<?xml version="1.0" encoding="UTF-8" standalone="no"?>
<!-- Created with Inkscape (http://www.inkscape.org/) -->

<svg
   width="62.441608mm"
   height="37.306244mm"
   viewBox="0 0 62.441608 37.306244"
   version="1.1"
   id="svg1"
   xmlns="http://www.w3.org/2000/svg"
   xmlns:svg="http://www.w3.org/2000/svg">
  <defs
     id="defs1">
    <clipPath
       id="clip0-8">
      <rect
         x="90"
         y="83"
         width="236"
         height="169"
         id="rect1-4" />
    </clipPath>
  </defs>
  <g
     id="layer1"
     transform="translate(-73.818804,-129.91015)">
    <g
       clip-path="url(#clip0-8)"
       transform="matrix(0.26458333,0,0,0.26458333,50.00625,107.42083)"
       id="g2">
      <path
         d="m 233.087,95.5298 c -1.94,8.2052 -4.852,16.1142 -8.617,23.6122 -2.129,4.211 -6.184,10.548 -12.193,15.261 -4.977,3.856 -11.073,6.598 -18.382,6.598 h -59.893 -28.7 -63.1826 c -7.3103,0 -13.4196,-2.742 -18.3752,-6.598 C 17.7143,129.69 13.6452,123.353 11.5299,119.142 7.76549,111.644 4.85143,103.735 2.91427,95.5298 1.02302,87.4628 2.09615e-4,79.087 2.09615e-4,70.4962 2.09615e-4,61.904 1.02302,53.5297 2.91427,45.4838 4.85143,37.2674 7.76549,29.3486 11.5299,21.8491 13.6452,17.6395 17.7143,11.3008 23.7442,6.61216 28.6998,2.74353 34.8091,0.00104943 42.1194,0.00104943 h 63.1826 28.7 59.893 c 7.309,0 13.405,2.74248057 18.382,6.61111057 6.009,4.68864 10.064,11.02734 12.193,15.23694 3.765,7.4995 6.677,15.4183 8.617,23.6347 1.896,8.0459 2.913,16.4202 2.913,25.0124 0,8.5908 -1.017,16.9666 -2.913,25.0336"
         fill="#ffffff"
         fill-rule="evenodd"
         transform="matrix(1,0,0,-1,90,226)"
         id="path1" />
      <path
         d="m 210.309,107.488 c -2.089,4.12 -9.961,17.514 -23.811,17.514 H 126.534 97.7876 34.5102 c -13.8618,0 -21.7161,-13.394 -23.8055,-17.514 C 3.59754,93.4495 0.0014716,78.3233 0.0014716,62.4967 0.0014716,46.6798 3.59754,31.5554 10.7047,17.54 12.7732,13.4297 20.6484,0.00230258 34.5102,0.00230258 h 63.2774 28.7464 59.964 c 13.877,0 21.722,13.42739742 23.811,17.53769742 7.105,14.0154 10.693,29.1398 10.693,44.9567 0,15.8266 -3.588,30.9528 -10.693,44.9913"
         fill="#708270"
         fill-rule="evenodd"
         transform="matrix(-1,0,0,1,318,93)"
         id="path2" />
      <path
         d="m 16.40625,-30.15625 h 2.8125 q 4.335937,0 6.367187,-0.625 5.46875,-1.71875 5.46875,-8.320312 0,-4.609375 -2.96875,-6.484375 Q 26.09375,-46.875 19.921875,-46.875 H 16.40625 Z m 0,24.140625 h 3.515625 q 4.882812,0 6.992187,-0.7421875 2.65625,-0.8984375 4.101563,-3.3203125 1.40625,-2.34375 1.40625,-5.625 0,-5.429687 -3.671875,-7.5 -2.421875,-1.367187 -9.53125,-1.367187 h -2.8125 z M 4.3359375,-52.8125 H 21.601562 q 8.867188,0 13.046875,1.835938 6.71875,2.929687 6.71875,10.234375 0,4.726562 -2.851562,8.125 -1.757813,2.148437 -4.414063,3.4375 -1.445312,0.703125 -4.257812,1.328125 5,0.78125 7.695312,2.304687 5.9375,3.398438 5.9375,10.429687 0,5.5468755 -3.789062,9.4531255 -3.4375,3.515625 -9.179688,4.765625 Q 26.289062,0 19.140625,0 H 5.9375 v -37.773437 q -0.039063,-2.65625 3.1640625,-5.742188 2.4218755,-2.265625 5.3906255,-3.125 V -46.875 H 4.8046875 Z m 58.0468745,24.648438 h 4.570313 q 3.90625,0 6.171875,-0.976563 4.921875,-2.109375 4.921875,-9.140625 0,-6.09375 -4.453125,-7.773437 -1.953125,-0.742188 -6.71875,-0.742188 H 62.382812 Z M 51.679687,0 v -37.773437 q -0.03906,-2.65625 3.164063,-5.742188 2.382812,-2.304687 5.390625,-3.125 V -46.875 h -9.6875 l -0.46875,-5.9375 h 17.03125 q 6.289062,0 9.023437,0.390625 6.132813,0.820313 9.375,4.296875 3.4375,3.671875 3.4375,9.492188 0,8.828125 -7.304687,12.929687 -5.273438,2.96875 -12.851563,2.96875 h -6.40625 V 0 Z"
         id="text2"
         style="font-size:80px;font-family:LTA-Identity, LTA-Identity_MSFontService, sans-serif;fill:#ffffff"
         transform="translate(162.694,183)"
         aria-label="BP" />
    </g>
  </g>
</svg>
