<svg width="363" height="217" xmlns="http://www.w3.org/2000/svg" xmlns:xlink="http://www.w3.org/1999/xlink" xml:space="preserve" overflow="hidden"><g transform="translate(-1168 -985)"><path d="M355.944 135.488C352.968 148.056 348.501 160.172 342.726 171.661 339.46 178.092 333.24 187.82 324.023 195.019 316.389 200.946 307.038 205.13 295.827 205.13L203.957 205.13 159.934 205.13 63.0183 205.13C51.8052 205.13 42.4342 200.946 34.8328 195.019 25.5835 187.82 19.3418 178.092 16.0972 171.661 10.323 160.172 5.85314 148.056 2.88174 135.488-0.0192116 123.146-1.58816 110.298-1.58816 97.1544-1.58816 83.9598-0.0192116 71.129 2.88174 58.8033 5.85314 46.2187 10.323 34.0856 16.0972 22.5967 19.3418 16.1653 25.5835 6.43787 34.8328-0.725544 42.4342-6.65403 51.8052-10.8725 63.0183-10.8725L159.934-10.8725 203.957-10.8725 295.827-10.8725C307.038-10.8725 316.389-6.65403 324.023-0.725544 333.24 6.43787 339.46 16.1653 342.726 22.5967 348.501 34.0856 352.968 46.2187 355.944 58.8033 358.851 71.129 360.412 83.9598 360.412 97.1544 360.412 110.298 358.851 123.146 355.944 135.488" fill="#2E2A26" fill-rule="evenodd" transform="matrix(1 0 0 -1 1170 1191)"/><path d="M320.063 154.241C316.868 160.571 304.828 181.157 283.646 181.157L191.936 181.157 147.97 181.157 51.1922 181.157C29.9918 181.157 17.9793 160.571 14.7838 154.241 3.91392 132.663-1.58603 109.432-1.58603 85.156-1.58603 60.8483 3.91392 37.6165 14.7838 16.0735 17.9473 9.76066 29.9918-10.8452 51.1922-10.8452L147.97-10.8452 191.936-10.8452 283.646-10.8452C304.87-10.8452 316.868 9.76066 320.063 16.0735 330.929 37.6165 336.416 60.8483 336.416 85.156 336.416 109.432 330.929 132.663 320.063 154.241" fill="#F9A01B" fill-rule="evenodd" transform="matrix(1 0 0 -1 1182 1179)"/><path d="M54.2212 67.6858 51.2495 57.9359C45.5311 60.3857 40.789 61.6383 37.0213 61.6383 30.1588 61.6383 24.8712 58.4395 21.2054 51.9738 18.0023 46.3253 16.3954 39.0081 16.3954 30.0392 16.3954 21.1578 17.9365 13.8577 21.0823 8.24547 24.5401 1.98668 29.626-1.15872 36.2317-1.15872 40.6872-1.15872 45.686 0.388374 51.2495 3.53377L54.4866-6.26732C48.2587-9.3103 41.2072-10.8403 33.3406-10.8403 19.9615-10.8403 10.331-5.59087 4.43424 4.88881 0.437268 11.8411-1.51346 20.1677-1.51346 29.7618-1.51346 43.2844 2.27337 53.7812 9.87886 61.4121 16.3615 67.9291 24.9052 71.162 35.4675 71.162 42.7483 71.162 49.0016 70.0161 54.2212 67.6858" fill="#2E2A26" fill-rule="evenodd" transform="matrix(1 0 0 -1 1263 1124)"/><path d="M54.1533 67.6858 51.1689 57.9359C45.461 60.3857 40.7063 61.6383 36.9513 61.6383 30.0908 61.6383 24.7821 58.4395 21.1353 51.9738 17.9195 46.3253 16.3254 39.0081 16.3254 30.0392 16.3254 21.1578 17.8452 13.8577 21.0143 8.24547 24.4722 1.98668 29.5368-1.15872 36.1404-1.15872 40.598-1.15872 45.6181 0.388374 51.1689 3.53377L54.4165-6.26732C48.1908-9.3103 41.1181-10.8403 33.2706-10.8403 19.8936-10.8403 10.2418-5.59087 4.34721 4.88881 0.369343 11.8411-1.5835 20.1677-1.5835 29.7618-1.5835 43.2844 2.20544 53.7812 9.81094 61.4121 16.2935 67.9291 24.816 71.162 35.3784 71.162 42.6591 71.162 48.9188 70.0161 54.1533 67.6858" fill="#2E2A26" fill-rule="evenodd" transform="matrix(1 0 0 -1 1326 1124)"/><path d="M-1.64818-10.8952-1.64818 56.2885C-1.69491 58.1759-0.641432 60.43 1.46765 63.1023 5.29075 67.6449 9.61723 69.9676 14.4407 70.107L14.4407-0.937248 43.3497-0.937248 43.3497-10.8952" fill="#2E2A26" fill-rule="evenodd" transform="matrix(1 0 0 -1 1392 1123)"/></g></svg>