<svg width="387" height="231" xmlns="http://www.w3.org/2000/svg" xmlns:xlink="http://www.w3.org/1999/xlink" xml:space="preserve" overflow="hidden"><g transform="translate(-1167 -1690)"><path d="M60.7253 85.3962 57.3593 74.5276C50.9257 77.2788 45.6035 78.651 41.3773 78.651 33.6272 78.651 27.6841 75.0949 23.5438 67.9827 19.9381 61.6978 18.1315 53.5803 18.1315 43.6282 18.1315 33.7202 19.8894 25.6475 23.4166 19.4067 27.3286 12.4688 33.0137 8.99789 40.4534 8.99789 45.4689 8.99789 51.1016 10.7224 57.3593 14.1711L60.9908 3.30251C53.9855-0.0605505 46.0636-1.74049 37.2141-1.74049 22.1598-1.74049 11.3053 4.06644 4.66284 15.6762 0.212156 23.4412-2.00951 32.6522-2.00951 43.3018-2.00951 58.2714 2.25795 69.9668 10.8007 78.3915 18.1054 85.6334 27.7103 89.2601 39.5928 89.2601 47.7801 89.2601 54.8272 87.9694 60.7253 85.3962" fill="#2E2A26" fill-rule="evenodd" transform="matrix(1 0 0 -1 1262 1849)"/><path d="M58.778 84.4352 55.5137 73.6876C49.2932 76.406 44.1368 77.7652 40.0436 77.7652 32.5393 77.7652 26.7849 74.2484 22.7763 67.2109 19.281 60.9981 17.5352 52.9693 17.5352 43.1281 17.5352 33.3275 19.2369 25.3434 22.648 19.1713 26.444 12.3083 31.9417 8.87731 39.1448 8.87731 44.008 8.87731 49.4621 10.5816 55.5137 13.9908L59.031 3.24316C52.2567-0.0802469 44.584-1.744 36.0129-1.744 21.4339-1.744 10.9261 3.9973 4.48906 15.4799 0.183273 23.1635-1.96962 32.2693-1.96962 42.8049-1.96962 57.6077 2.1637 69.1755 10.4344 77.5089 17.5132 84.6728 26.8069 88.2565 38.3158 88.2565 46.2456 88.2565 53.0636 86.9826 58.778 84.4352" fill="#2E2A26" fill-rule="evenodd" transform="matrix(1 0 0 -1 1262 1848)"/><path d="M379.161 154.084C375.995 167.47 371.219 180.38 365.056 192.604 361.608 199.456 354.958 209.811 345.105 217.466 336.993 223.771 326.999 228.253 315.048 228.253L217.1 228.253 170.157 228.253 66.7975 228.253C54.8471 228.253 44.849 223.771 36.7406 217.466 26.8918 209.811 20.2415 199.456 16.7896 192.604 10.6265 180.38 5.85438 167.47 2.68196 154.084-0.427434 140.944-2.07552 127.274-2.07552 113.255-2.07552 99.2318-0.427434 85.5631 2.68196 72.4223 5.85438 59.0402 10.6265 46.1303 16.7896 33.902 20.2415 27.0546 26.8918 16.6957 36.7406 9.03999 44.849 2.73613 54.8471-1.74729 66.7975-1.74729L170.157-1.74729 217.1-1.74729 315.048-1.74729C326.995-1.74729 336.993 2.73613 345.105 9.03999 354.958 16.6957 361.608 27.0546 365.056 33.902 371.219 46.1303 375.995 59.0402 379.161 72.4223 382.27 85.5631 383.925 99.2318 383.925 113.255 383.925 127.274 382.27 140.944 379.161 154.084" fill="#2E2A26" fill-rule="evenodd" transform="matrix(1 0 0 -1 1170 1919)"/><path d="M340.504 173.664C337.11 180.373 324.284 202.261 301.713 202.261L204.036 202.261 157.212 202.261 54.1477 202.261C31.5758 202.261 18.7502 180.373 15.3559 173.664 3.79159 150.775-2.07025 126.078-2.07025 100.261-2.07025 74.4475 3.79159 49.7538 15.3559 26.865 18.743 20.156 31.5571-1.73936 54.1477-1.73936L157.212-1.73936 204.036-1.73936 301.713-1.73936C324.303-1.73936 337.114 20.156 340.504 26.865 352.069 49.7538 357.93 74.4475 357.93 100.261 357.93 126.078 352.069 150.775 340.504 173.664" fill="#93D500" fill-rule="evenodd" transform="matrix(1 0 0 -1 1183 1906)"/><path d="M59.7584 85.3976 56.4457 74.528C50.1184 77.2786 44.8747 78.656 40.7177 78.656 33.0897 78.656 27.2415 75.0959 23.1696 67.9829 19.6175 61.698 17.8413 53.5791 17.8413 43.6265 17.8413 33.7182 19.5732 25.6439 23.0407 19.4033 26.8954 12.4653 32.4852 8.99404 39.8074 8.99404 44.7457 8.99404 50.2917 10.7165 56.4457 14.1654L60.0199 3.29944C53.1289-0.0638101 45.3316-1.74202 36.6236-1.74202 21.8064-1.74202 11.1235 4.06015 4.58271 15.6727 0.204953 23.4388-1.98076 32.6489-1.98076 43.2997-1.98076 58.2714 2.22055 69.9692 10.6259 78.3926 17.8191 85.635 27.2637 89.2585 38.9636 89.2585 47.0192 89.2585 53.9505 87.9741 59.7584 85.3976" fill="#2E2A26" fill-rule="evenodd" transform="matrix(1 0 0 -1 1263 1849)"/><path d="M18.4032-1.73192 0.612369-1.73192 0.612369 61.2114C0.567416 64.116 2.34948 67.3048 5.95122 70.7777 8.62959 73.2913 11.6598 75.0296 15.0446 75.9857L15.0446 76.3768-1.29721 76.3768-2.08894 86.2685 24.3324 86.2685C30.5717 86.2685 35.1413 86.095 38.0403 85.7479 44.5823 84.9694 49.723 82.9057 53.4555 79.5661 57.8939 75.6164 60.1094 70.3903 60.1094 63.88 60.1094 57.1517 58.1329 51.534 54.1802 47.0202 51.8528 44.3294 49.1065 42.2481 45.9461 40.7718 44.4516 40.0739 42.1462 39.2769 39.0265 38.3651L65.9116-1.73192 45.419-1.73192 21.7623 36.2761C21.5004 36.7116 21.3701 37.2318 21.3701 37.8449 21.3701 38.6234 21.5866 39.2288 22.0274 39.6643 22.2476 39.8823 23.5219 40.3359 25.8493 41.0337 36.744 44.3294 42.1911 51.1393 42.1911 61.4661 42.1911 67.7222 40.2783 71.9256 36.4564 74.0998 33.9977 75.5317 29.78 76.244 23.8058 76.244L18.4032 76.244" fill="#2E2A26" fill-rule="evenodd" transform="matrix(1 0 0 -1 1333 1848)"/><path d="M-2.14664-1.73403-2.14664 72.0784C-2.19072 74.1699-1.03651 76.6632 1.31416 79.5742 5.57745 84.5731 10.3856 87.1331 15.7372 87.266L15.7372 9.21216 47.8523 9.21216 47.8523-1.73403" fill="#2E2A26" fill-rule="evenodd" transform="matrix(1 0 0 -1 1413 1848)"/></g></svg>