<svg width="397" height="237" xmlns="http://www.w3.org/2000/svg" xmlns:xlink="http://www.w3.org/1999/xlink" xml:space="preserve" overflow="hidden"><g transform="translate(-1167 -1935)"><path d="M388.991 157.304C385.74 171.04 380.845 184.281 374.522 196.83 370.981 203.86 364.161 214.486 354.053 222.341 345.732 228.81 335.478 233.409 323.215 233.409L222.726 233.409 174.564 233.409 68.5322 233.409C56.2698 233.409 46.0165 228.81 37.6951 222.341 27.5864 214.486 20.7673 203.86 17.2259 196.83 10.9024 184.281 6.00811 171.04 2.75649 157.304-0.433831 143.82-2.1261 129.794-2.1261 115.409-2.1261 101.016-0.433831 86.9895 2.75649 73.5093 6.00811 59.7766 10.9024 46.5327 17.2259 33.9836 20.7673 26.957 27.5864 16.3316 37.6913 8.46896 46.0165 2.00372 56.2735-2.59134 68.5322-2.59134L174.564-2.59134 222.726-2.59134 323.215-2.59134C335.474-2.59134 345.732 2.00372 354.056 8.46896 364.161 16.3316 370.981 26.957 374.522 33.9836 380.845 46.5327 385.74 59.7766 388.991 73.5093 392.182 86.9895 393.874 101.016 393.874 115.409 393.874 129.794 392.182 143.82 388.991 157.304" fill="#FFFFFF" fill-rule="evenodd" transform="matrix(1 0 0 -1 1170 2169)"/><path d="M350.912 177.971C347.413 184.874 334.195 207.412 310.936 207.412L210.275 207.412 162.022 207.412 55.8039 207.412C32.5447 207.412 19.3264 184.874 15.8278 177.971 3.9117 154.408-2.13029 128.984-2.13029 102.41-2.13029 75.8356 3.9117 50.4162 15.8278 26.8566 19.3222 19.9497 32.5217-2.5879 55.8039-2.5879L162.022-2.5879 210.275-2.5879 310.936-2.5879C334.218-2.5879 347.418 19.9497 350.912 26.8566 362.828 50.4162 368.87 75.8356 368.87 102.41 368.87 128.984 362.828 154.408 350.912 177.971" fill="#00ADBB" fill-rule="evenodd" transform="matrix(1 0 0 -1 1183 2156)"/><path d="M1.65379 15.9573C7.03484 11.0505 12.5762 8.60273 18.2705 8.60273 22.846 8.60273 25.9852 10.0855 27.6925 13.0539 28.9027 15.1682 29.5062 18.4315 29.5062 22.8365L29.5062 75.6761C29.4607 77.6103 30.5603 79.9429 32.802 82.693 37.6485 88.3622 43.0301 91.2614 48.9531 91.3997L48.9531 26.483C48.9531 17.0794 46.0812 9.79393 40.3414 4.61527 34.9561-0.191402 27.6006-2.60062 18.2705-2.60062 13.6073-2.60062 9.41401-1.94599 5.69051-0.643335 3.35682 0.122742 0.778835 1.44797-2.0472 3.33613" fill="#FFFFFF" fill-rule="evenodd" transform="matrix(1 0 0 -1 1268 2098)"/><path d="M18.6755-2.59497 0.622052-2.59497 0.622052 62.4936C0.580116 65.5004 2.3829 68.7976 6.03786 72.3851 8.75905 74.9909 11.833 76.7865 15.2675 77.7683L15.2675 78.1774-1.31353 78.1774-2.11824 88.4052 24.6947 88.4052C31.021 88.4052 35.6592 88.2256 38.6003 87.8663 45.242 87.0604 50.4561 84.9322 54.2438 81.4745 58.745 77.386 60.9955 71.9841 60.9955 65.2555 60.9955 58.2986 58.9915 52.4833 54.98 47.8221 52.6158 45.0409 49.834 42.8859 46.6231 41.3614 45.105 40.6395 42.7673 39.8144 39.6021 38.8668L66.882-2.59497 46.0882-2.59497 22.0873 36.7156C21.8179 37.1589 21.6851 37.6974 21.6851 38.3278 21.6851 39.1379 21.9093 39.7684 22.3533 40.2154 22.5733 40.441 23.8677 40.9068 26.2319 41.6292 37.2835 45.0409 42.813 52.0823 42.813 62.7647 42.813 69.2254 40.8737 73.5733 36.9951 75.816 34.4975 77.2983 30.2205 78.0394 24.1594 78.0394L18.6755 78.0394" fill="#FFFFFF" fill-rule="evenodd" transform="matrix(1 0 0 -1 1335 2096)"/><path d="M-2.18787-2.59692-2.18787 73.7101C-2.23334 75.8588-1.05797 78.4468 1.34195 81.4516 5.68845 86.6121 10.5941 89.2653 16.0515 89.4028L16.0515 8.72241 48.8114 8.72241 48.8114-2.59692" fill="#FFFFFF" fill-rule="evenodd" transform="matrix(1 0 0 -1 1417 2096)"/></g></svg>