<svg width="363" height="217" xmlns="http://www.w3.org/2000/svg" xmlns:xlink="http://www.w3.org/1999/xlink" xml:space="preserve" overflow="hidden"><g transform="translate(-1168 -280)"><path d="M355.944 133.506C352.968 146.091 348.501 158.19 342.726 169.676 339.46 176.11 333.24 185.837 324.023 193.035 316.389 198.964 307.038 203.146 295.827 203.146L203.957 203.146 159.934 203.146 63.0183 203.146C51.8052 203.146 42.4342 198.964 34.8328 193.035 25.5835 185.837 19.3418 176.11 16.0972 169.676 10.323 158.19 5.85314 146.091 2.88174 133.506-0.0192116 121.146-1.58816 108.316-1.58816 95.1553-1.58816 81.9756-0.0192116 69.147 2.88174 56.8213 5.85314 44.2367 10.323 32.1208 16.0972 20.6148 19.3418 14.1834 25.5835 4.45599 34.8328-2.70955 42.4342-8.63589 51.8052-12.8543 63.0183-12.8543L159.934-12.8543 203.957-12.8543 295.827-12.8543C307.038-12.8543 316.389-8.63589 324.023-2.70955 333.24 4.45599 339.46 14.1834 342.726 20.6148 348.501 32.1208 352.968 44.2367 355.944 56.8213 358.851 69.147 360.412 81.9756 360.412 95.1553 360.412 108.316 358.851 121.146 355.944 133.506" fill="#FFFFFF" fill-rule="evenodd" transform="matrix(1 0 0 -1 1170 484)"/><path d="M320.063 152.267C316.868 158.56 304.828 179.181 283.646 179.181L191.936 179.181 147.97 179.181 51.1922 179.181C29.9918 179.181 17.9793 158.56 14.7838 152.267 3.91392 130.707-1.58603 107.479-1.58603 83.1886-1.58603 58.8831 3.91392 35.6535 14.7838 14.1295 17.9473 7.81721 29.9918-12.8209 51.1922-12.8209L147.97-12.8209 191.936-12.8209 283.646-12.8209C304.87-12.8209 316.868 7.81721 320.063 14.1295 330.929 35.6535 336.416 58.8831 336.416 83.1886 336.416 107.479 330.929 130.707 320.063 152.267" fill="#D42E12" fill-rule="evenodd" transform="matrix(1 0 0 -1 1182 472)"/><path d="M58.4953-12.9007 48.3471-12.9007 9.11601 41.3848 9.11601-12.9007-1.50702-12.9007-1.50702 67.3838 8.65377 67.3838 47.7498 13.1477 47.7498 58.7941C47.716 60.1065 48.421 61.6616 49.8457 63.4122 52.368 66.4387 55.2786 68.0132 58.4953 68.1012" fill="#FFFFFF" fill-rule="evenodd" transform="matrix(1 0 0 -1 1262 416)"/><path d="M42.9184 66.0133 40.019 56.4269C34.9056 58.8342 29.8924 60.0175 24.9557 60.0175 21.6774 60.0175 18.9738 59.4076 16.9089 58.188 14.3097 56.6901 13.0281 54.3705 13.0281 51.1993 13.0281 49.0552 13.72 47.0866 15.2101 45.379 16.6535 43.6351 19.374 41.4225 23.3911 38.7028L28.4363 35.339C33.6795 31.819 37.6475 28.5601 40.2829 25.5451 44.3383 20.891 46.4053 15.488 46.4053 9.40448 46.4053 2.60843 44.1637-2.76036 39.7273-6.71688 35.0951-10.7761 28.5597-12.8517 20.1319-12.8517 13.1431-12.8517 6.16069-11.1762-0.883444-7.77822L2.65885 2.76678C8.20645-1.27747 13.8967-3.28247 19.787-3.28247 24.0339-3.28247 27.2101-2.11414 29.3772 0.151927 30.8141 1.73753 31.5592 3.70616 31.5592 6.07707 31.5592 8.56781 30.7119 10.7996 29.0813 12.7683 27.4336 14.739 24.5023 17.11 20.2554 19.881L15.2101 23.1228C10.2863 26.294 6.5609 29.3968 4.0085 32.4631 0.280999 36.8904-1.59446 41.9104-1.59446 47.5745-1.59446 55.6608 1.67109 61.6202 8.13833 65.2986 12.5747 67.8599 18.0755 69.1502 24.6087 69.1502 31.4911 69.1502 37.5815 68.0889 42.9184 66.0133" fill="#FFFFFF" fill-rule="evenodd" transform="matrix(1 0 0 -1 1336 417)"/><path d="M-1.65463-12.8812-1.65463 54.3023C-1.68862 56.2068-0.647834 58.5123 1.46134 61.1332 5.28675 65.6564 9.61131 67.9985 14.4371 68.1207L14.4371-2.9061 43.3454-2.9061 43.3454-12.8812" fill="#FFFFFF" fill-rule="evenodd" transform="matrix(1 0 0 -1 1396 416)"/></g></svg>