<?xml version="1.0" encoding="UTF-8" standalone="no"?>
<!-- Created with Inkscape (http://www.inkscape.org/) -->

<svg
   width="62.441608mm"
   height="37.306244mm"
   viewBox="0 0 62.441608 37.306244"
   version="1.1"
   id="svg1"
   xmlns="http://www.w3.org/2000/svg"
   xmlns:svg="http://www.w3.org/2000/svg">
  <defs
     id="defs1">
    <clipPath
       id="clip0-9">
      <rect
         x="90"
         y="236"
         width="236"
         height="169"
         id="rect1-38" />
    </clipPath>
  </defs>
  <g
     id="layer1"
     transform="translate(-73.818804,-129.91015)">
    <g
       clip-path="url(#clip0-9)"
       transform="matrix(0.26458333,0,0,0.26458333,50.00625,66.939583)"
       id="g2">
      <path
         d="m 233.087,95.5298 c -1.94,8.2052 -4.852,16.1142 -8.617,23.6122 -2.129,4.211 -6.184,10.548 -12.193,15.261 -4.977,3.856 -11.073,6.598 -18.382,6.598 h -59.893 -28.7 -63.1826 c -7.3103,0 -13.4196,-2.742 -18.3752,-6.598 C 17.7143,129.69 13.6452,123.353 11.5299,119.142 7.76549,111.644 4.85143,103.735 2.91427,95.5298 1.02302,87.4628 2.09615e-4,79.087 2.09615e-4,70.4962 2.09615e-4,61.904 1.02302,53.5297 2.91427,45.4838 4.85143,37.2674 7.76549,29.3486 11.5299,21.8491 13.6452,17.6395 17.7143,11.3008 23.7442,6.61216 28.6998,2.74353 34.8091,0.00104943 42.1194,0.00104943 h 63.1826 28.7 59.893 c 7.309,0 13.405,2.74248057 18.382,6.61111057 6.009,4.68864 10.064,11.02734 12.193,15.23694 3.765,7.4995 6.677,15.4183 8.617,23.6347 1.896,8.0459 2.913,16.4202 2.913,25.0124 0,8.5908 -1.017,16.9666 -2.913,25.0336"
         fill="#ffffff"
         fill-rule="evenodd"
         transform="matrix(1,0,0,-1,90,379)"
         id="path1" />
      <path
         d="m 210.309,107.488 c -2.089,4.12 -9.961,17.514 -23.811,17.514 H 126.534 97.7876 34.5102 c -13.8618,0 -21.7161,-13.394 -23.8055,-17.514 C 3.59754,93.4495 0.0014716,78.3233 0.0014716,62.4967 0.0014716,46.6798 3.59754,31.5554 10.7047,17.54 12.7732,13.4297 20.6484,0.00230258 34.5102,0.00230258 h 63.2774 28.7464 59.964 c 13.877,0 21.722,13.42739742 23.811,17.53769742 7.105,14.0154 10.693,29.1398 10.693,44.9567 0,15.8266 -3.588,30.9528 -10.693,44.9913"
         fill="#708270"
         fill-rule="evenodd"
         transform="matrix(-1,0,0,1,318,246)"
         id="path2" />
      <path
         d="m 33.28125,-51.289062 -1.914063,6.328125 q -5.117187,-2.382813 -10,-2.382813 -3.28125,0 -5.351562,1.210938 -2.578125,1.484375 -2.578125,4.609375 0,2.148437 1.445313,3.867187 1.445312,1.71875 5.429687,4.375 l 3.359375,2.226563 q 5.234375,3.515625 7.851562,6.484375 4.0625,4.609375 4.0625,10.664062 0,6.71875 -4.414062,10.625 -4.609375,4.0625 -13.007813,4.0625 -6.953124,0 -13.945312,-3.359375 L 6.5625,-9.53125 q 5.507813,3.984375 11.367187,3.984375 4.21875,0 6.367188,-2.265625 1.445312,-1.5625 1.445312,-3.90625 0,-2.460938 -1.640625,-4.414062 -1.640625,-1.953125 -5.859375,-4.6875 L 14.882813,-22.96875 Q 10,-26.09375 7.4609375,-29.140625 3.75,-33.515625 3.75,-39.101562 q 0,-8.046875 6.445313,-11.71875 4.414062,-2.539063 10.937499,-2.539063 6.835938,0 12.148438,2.070313 z M 73.4375,-52.8125 h 8.867187 L 65.195312,-30.15625 82.226562,0 H 69.609375 L 56.40625,-25.507812 q -0.46875,-0.898438 -0.46875,-1.5625 0,-0.820313 0.546875,-1.5625 z M 43.59375,0 v -44.257812 q -0.03906,-1.796875 2.070312,-4.375 3.984375,-4.609375 8.632813,-4.726563 V 0 Z"
         id="text2"
         style="font-size:80px;font-family:LTA-Identity, LTA-Identity_MSFontService, sans-serif;fill:#ffffff"
         transform="translate(166.277,335)"
         aria-label="SK" />
    </g>
  </g>
</svg>
