<?xml version="1.0" encoding="UTF-8" standalone="no"?>
<!-- Created with Inkscape (http://www.inkscape.org/) -->

<svg
   width="62.441616mm"
   height="37.570827mm"
   viewBox="0 0 62.441616 37.570827"
   version="1.1"
   id="svg1"
   xmlns="http://www.w3.org/2000/svg"
   xmlns:svg="http://www.w3.org/2000/svg">
  <defs
     id="defs1">
    <clipPath
       id="clip0">
      <rect
         x="488"
         y="113"
         width="236"
         height="169"
         id="rect1" />
    </clipPath>
  </defs>
  <g
     id="layer1"
     transform="translate(-73.818796,-129.64557)">
    <g
       clip-path="url(#clip0)"
       transform="matrix(0.26458333,0,0,0.26458333,-55.29792,99.21875)"
       id="g2">
      <path
         d="m 233.087,96.2073 c -1.94,8.2627 -4.852,16.2287 -8.617,23.7797 -2.129,4.241 -6.184,10.623 -12.193,15.369 -4.977,3.883 -11.073,6.645 -18.382,6.645 h -59.893 -28.7 -63.1826 c -7.3103,0 -13.4196,-2.762 -18.3752,-6.645 C 17.7143,130.61 13.6452,124.228 11.5299,119.987 7.76549,112.436 4.85143,104.47 2.91427,96.2073 1.02302,88.0831 2.09615e-4,79.6479 2.09615e-4,70.9962 2.09615e-4,62.343 1.02302,53.9094 2.91427,45.8064 4.85143,37.5317 7.76549,29.5568 11.5299,22.004 13.6452,17.7646 17.7143,11.381 23.7442,6.65905 28.6998,2.76299 34.8091,0.00105687 42.1194,0.00105687 h 63.1826 28.7 59.893 c 7.309,0 13.405,2.76193313 18.382,6.65799313 6.009,4.72195 10.064,11.10555 12.193,15.34495 3.765,7.5528 6.677,15.5277 8.617,23.8024 1.896,8.103 2.913,16.5366 2.913,25.1898 0,8.6517 -1.017,17.0869 -2.913,25.2111"
         fill="#ffffff"
         fill-rule="evenodd"
         transform="matrix(1,0,0,-1,488,257)"
         id="path1" />
      <path
         d="m 209.358,108.348 c -2.08,4.153 -9.917,17.654 -23.704,17.654 H 125.962 97.3451 34.354 c -13.799,0 -21.6178,-13.501 -23.6977,-17.654 C 3.58126,94.1971 0.00146494,78.9499 0.00146494,62.9966 0.00146494,47.0533 3.58126,31.8078 10.6563,17.6803 12.7154,13.5371 20.555,0.002321 34.354,0.002321 h 62.9911 28.6169 59.692 c 13.815,0 21.624,13.534779 23.704,17.677979 7.072,14.1275 10.644,29.373 10.644,45.3163 0,15.9533 -3.572,31.2005 -10.644,45.3514"
         fill="#f266b5"
         fill-rule="evenodd"
         transform="matrix(-1,0,0,1,716,123)"
         id="path2" />
      <path
         d="m 33.28125,-51.289062 -1.914063,6.328125 q -5.117187,-2.382813 -10,-2.382813 -3.28125,0 -5.351562,1.210938 -2.578125,1.484375 -2.578125,4.609375 0,2.148437 1.445313,3.867187 1.445312,1.71875 5.429687,4.375 l 3.359375,2.226563 q 5.234375,3.515625 7.851562,6.484375 4.0625,4.609375 4.0625,10.664062 0,6.71875 -4.414062,10.625 -4.609375,4.0625 -13.007813,4.0625 -6.953124,0 -13.945312,-3.359375 L 6.5625,-9.53125 q 5.507813,3.984375 11.367187,3.984375 4.21875,0 6.367188,-2.265625 1.445312,-1.5625 1.445312,-3.90625 0,-2.460938 -1.640625,-4.414062 -1.640625,-1.953125 -5.859375,-4.6875 L 14.882813,-22.96875 Q 10,-26.09375 7.4609375,-29.140625 3.75,-33.515625 3.75,-39.101562 q 0,-8.046875 6.445313,-11.71875 4.414062,-2.539063 10.937499,-2.539063 6.835938,0 12.148438,2.070313 z M 53.476562,0 v -37.1875 q 0,-1.523437 1.328125,-3.632812 2.851563,-4.140625 7.226563,-5.273438 v -0.234375 H 40.039062 L 39.648437,-52.8125 h 38.398438 v 6.484375 H 64.179687 V 0 Z m 31.328125,0 v -44.257812 q -0.03906,-1.875 2.070313,-4.492188 3.828125,-4.492187 8.632812,-4.609375 V -6.5625 H 114.72656 V 0 Z"
         id="text2"
         style="font-size:80px;font-family:LTA-Identity, LTA-Identity_MSFontService, sans-serif;fill:#ffffff"
         transform="translate(548.474,213)"
         aria-label="STL" />
    </g>
  </g>
</svg>
