<svg width="363" height="217" xmlns="http://www.w3.org/2000/svg" xmlns:xlink="http://www.w3.org/1999/xlink" xml:space="preserve" overflow="hidden"><g transform="translate(-1168 -1455)"><path d="M355.944 136.792C352.968 149.361 348.501 161.477 342.726 172.964 339.46 179.415 333.24 189.123 324.023 196.342 316.389 202.249 307.038 206.45 295.827 206.45L203.957 206.45 159.934 206.45 63.0183 206.45C51.8052 206.45 42.4342 202.249 34.8328 196.342 25.5835 189.123 19.3418 179.415 16.0972 172.964 10.323 161.477 5.85314 149.361 2.88174 136.792-0.0192116 124.434-1.58816 111.603-1.58816 98.4427-1.58816 85.2802-0.0192116 72.4515 2.88174 60.1259 5.85314 47.5391 10.323 35.4082 16.0972 23.9194 19.3418 17.4708 25.5835 7.76053 34.8328 0.577866 42.4342-5.34847 51.8052-9.54977 63.0183-9.54977L159.934-9.54977 203.957-9.54977 295.827-9.54977C307.038-9.54977 316.389-5.34847 324.023 0.577866 333.24 7.76053 339.46 17.4708 342.726 23.9194 348.501 35.4082 352.968 47.5391 355.944 60.1259 358.851 72.4515 360.412 85.2802 360.412 98.4427 360.412 111.603 358.851 124.434 355.944 136.792" fill="#FFFFFF" fill-rule="evenodd" transform="matrix(1 0 0 -1 1170 1662)"/><path d="M320.063 155.574C316.868 161.902 304.828 182.476 283.646 182.476L191.936 182.476 147.97 182.476 51.1922 182.476C29.9918 182.476 17.9793 161.902 14.7838 155.574 3.91392 134.01-1.58603 110.776-1.58603 86.4659-1.58603 62.171 3.91392 38.9394 14.7838 17.4115 17.9473 11.0981 29.9918-9.52667 51.1922-9.52667L147.97-9.52667 191.936-9.52667 283.646-9.52667C304.87-9.52667 316.868 11.0981 320.063 17.4115 330.929 38.9394 336.416 62.171 336.416 86.4659 336.416 110.776 330.929 134.01 320.063 155.574" fill="#9D5B25" fill-rule="evenodd" transform="matrix(1 0 0 -1 1182 1650)"/><path d="M19.3504-9.55027 19.3504 46.7582C19.3504 48.3442 20.0312 50.1571 21.3544 52.2675 24.2206 56.469 27.8721 59.1188 32.2856 60.2682L32.2856 60.617-0.930494 60.617-1.52166 70.4498 56.4784 70.4498 56.4784 60.617 35.5188 60.617 35.5188-9.55027" fill="#FFFFFF" fill-rule="evenodd" transform="matrix(1 0 0 -1 1262 1594)"/><path d="M0.818836-9.55027 0.818836 47.456C0.784718 50.1229 2.36695 53.0509 5.58259 56.1886 8.01138 58.4724 10.7259 60.0242 13.7432 60.8974L13.7432 61.2463-0.897735 61.2463-1.58863 70.4498 47.9424 70.4498 47.9424 60.617 16.9717 60.617 16.9717 36.4909 45.8954 36.4909 45.8954 27.0241 16.9717 27.0241 16.9717 0.509405 48.4116 0.509405 48.4116-9.55027" fill="#FFFFFF" fill-rule="evenodd" transform="matrix(1 0 0 -1 1327 1594)"/><path d="M-1.68343-9.5698-1.68343 57.614C-1.72688 59.5185-0.682062 61.7726 1.49445 64.4449 5.40653 68.9682 9.82907 71.3102 14.7642 71.4325L14.7642 0.40321 44.3145 0.40321 44.3145-9.5698" fill="#FFFFFF" fill-rule="evenodd" transform="matrix(1 0 0 -1 1389 1594)"/></g></svg>