<svg width="220" height="219" xmlns="http://www.w3.org/2000/svg" xmlns:xlink="http://www.w3.org/1999/xlink" xml:space="preserve" overflow="hidden"><g transform="translate(-2057 -786)"><path d="M186.878 89.2504C186.878 82.8467 180.074 72.2177 108.172 72.2177 36.2722 72.2177 29.4709 82.8467 29.4709 89.2504L29.4709 174.802C29.4709 178.549 32.5518 181.617 36.3134 181.617L180.033 181.617C183.797 181.617 186.878 178.549 186.878 174.802ZM179.364 52.2583 177.287 41.9108C176.916 40.0723 175.075 38.5711 173.193 38.5711L145.808 38.5711C143.926 38.5711 142.388 40.1014 142.388 41.9781L142.388 52.1909C142.388 54.0676 143.926 55.6012 145.808 55.6012L176.616 55.6012C178.498 55.6012 179.732 54.0968 179.364 52.2583ZM73.9526 41.9781C73.9526 40.1014 72.4148 38.5711 70.5328 38.5711L43.1562 38.5711C41.2738 38.5711 39.433 40.0723 39.0619 41.9108L36.985 52.2583C36.6168 54.0968 37.854 55.6012 39.7335 55.6012L70.5328 55.6012C72.4177 55.6012 73.9526 54.0676 73.9526 52.1909ZM46.5788 202.051C46.5788 203.924 48.1195 205.458 50.0019 205.458L166.348 205.458C168.23 205.458 169.77 203.924 169.77 202.051L169.77 195.239C169.77 193.366 168.23 191.835 166.348 191.835L50.0048 191.835C48.1195 191.835 46.5788 193.366 46.5788 195.239ZM210.829 161.179 200.016 161.179C199.96 162.326 199.904 163.46 199.845 164.56L197.863 202.071C197.468 209.554 190.985 215.679 183.455 215.676L32.8907 215.676C25.3619 215.679 18.8814 209.554 18.4836 202.071L16.5014 164.56C16.4425 163.46 16.3893 162.326 16.3332 161.179L5.51699 161.179C1.75256 161.179-1.32834 158.112-1.32834 154.368L-1.32834 133.837C-1.32834 131.963-0.951504 128.946-0.491845 127.128L1.25782 120.202C1.72037 118.387 3.63495 116.901 5.51699 116.901L15.7825 116.901 15.7825 116.915 15.7825 31.7509C15.7825 24.2561 21.9417 18.1253 29.4709 18.1253L32.9319 18.1253 32.8936 18.1134 32.8936 1.08072C32.8936-0.790199 34.4342-2.3238 36.3134-2.3238L56.8472-2.3238C58.7296-2.3238 60.2673-0.790199 60.2673 1.08072L60.2673 18.1134 60.2171 18.1253 156.082 18.1253 156.026 18.1134 156.026 1.08072C156.026-0.790199 157.567-2.3238 159.449-2.3238L180.033-2.3238C181.915-2.3238 183.455-0.790199 183.455 1.08072L183.455 18.1134 183.414 18.1253 186.878 18.1253C194.404 18.1253 200.567 24.2561 200.567 31.7509L200.567 116.901 210.829 116.901C212.711 116.901 214.626 118.387 215.085 120.202L216.838 127.128C217.298 128.946 217.672 131.963 217.672 133.837L217.672 154.368C217.672 158.112 214.594 161.179 210.829 161.179" fill="#2E2A26" fill-rule="evenodd" transform="matrix(1 0 0 -1 2059 1002)"/></g></svg>