<svg width="471" height="163" xmlns="http://www.w3.org/2000/svg" xmlns:xlink="http://www.w3.org/1999/xlink" xml:space="preserve" overflow="hidden"><g transform="translate(-3734 -1241)"><path d="M315.511-3.51599 315.344 149.149 6.25263 148.815C1.42145 148.815-2.49048 144.896-2.49048 140.042L-2.33482 4.89591C-2.33482 0.0559028 1.58885-3.85141 6.42003-3.85141" fill="#FFFFFF" fill-rule="evenodd" transform="matrix(1 0 0 -1 3742 1395)"/><path d="M10.995 157.829C3.50762 157.818-2.49431 151.763-2.49431 144.349L-2.35018 9.60704C-2.33841 2.20494 3.68705-3.83813 11.1744-3.83813L325.507-3.49067 325.328 158.164ZM315.803 148.647 315.959 6.00202 11.1626 5.66776C8.94627 5.66776 7.18437 7.45781 7.18437 9.62024L7.05348 144.361C7.05348 146.533 8.79037 148.312 10.995 148.325" fill="#8DC63F" fill-rule="evenodd" transform="matrix(1 0 0 -1 3737 1400)"/><path d="M10.895-3.84292 145.797-3.68733C153.223-3.67559 159.275 2.37357 159.263 9.79814L159.119 144.648C159.108 152.073 153.057 158.157 145.63 158.157L10.7158 158.015C3.30079 157.99-2.75017 151.906-2.73843 144.493L-2.59453 9.6308C-2.59453 2.19449 3.46818-3.84292 10.895-3.84292" fill="#8DC63F" fill-rule="evenodd" transform="matrix(1 0 0 -1 4045 1400)"/><path d="M10.895-3.84292 145.797-3.68733C153.223-3.67559 159.275 2.37357 159.263 9.79814L159.119 144.648C159.108 152.073 153.057 158.157 145.63 158.157L10.7158 158.015C3.30079 157.99-2.75017 151.906-2.73843 144.493L-2.59453 9.6308C-2.59453 2.19449 3.46818-3.84292 10.895-3.84292" fill="#8DC63F" fill-rule="evenodd" transform="matrix(1 0 0 -1 4045 1400)"/><path d="M0.387869 84.8092 14.3921 84.7857 14.3695 55.0071 0.354019 55.0174ZM15.794 93.14-0.990124 93.165C-1.82933 93.165-2.57545 92.4366-2.57545 91.5178L-2.67841-3.813 0.296191-3.813 0.318758 23.1022 14.3342 23.0905 14.3117-3.83645 14.7827-3.83645 17.2298-3.83645 17.3215 91.5178C17.3215 92.4117 16.6671 93.14 15.794 93.14" fill="#363736" fill-rule="evenodd" transform="matrix(1 0 0 -1 4162 1367)"/><path d="M68.5625 30.9806C68.5625 28.5841 65.9975 24.5356 38.718 24.5591 11.4751 24.5944 8.91024 28.6444 8.92201 31.0409L8.95732 63.5853C8.95732 65.0344 10.1449 66.173 11.5473 66.173L65.9975 66.1245C67.4235 66.1127 68.5978 64.9623 68.5978 63.525ZM65.6856 16.9018 64.8703 12.9724C64.7276 12.2884 64.0683 11.7146 63.3488 11.7146L52.9817 11.7249C52.2503 11.7249 51.675 12.3016 51.6867 13.0313L51.6867 16.9254C51.6867 17.6095 52.2621 18.22 52.9817 18.22L64.6555 18.2082C65.3383 18.2082 65.8416 17.6212 65.6856 16.9018M25.7624 13.0563C25.7624 12.3369 25.162 11.7617 24.4675 11.7617L14.0401 11.7735C13.3926 11.7735 12.673 12.3487 12.517 13.0313L11.7621 16.9622C11.6194 17.6815 12.1094 18.2568 12.7937 18.2568L24.4792 18.2435C25.162 18.2435 25.7624 17.6448 25.7624 16.9504ZM15.4057 73.9612C15.4057 74.6806 16.0296 75.2558 16.7492 75.2558L60.8192 75.2072C61.5152 75.2072 62.1141 74.632 62.1141 73.9009L62.1141 71.3132C62.1141 70.6188 61.5034 70.0186 60.8192 70.0186L16.7492 70.0671C16.0178 70.0671 15.4057 70.6776 15.4057 71.3617ZM77.636 58.3128 73.5598 58.3245C73.5598 58.7923 73.5128 59.2116 73.5128 59.6191L72.7211 73.9009C72.6254 76.7534 70.1812 79.0778 67.3161 79.0896L10.2641 79.1499C7.4122 79.1499 4.96648 76.8255 4.8105 73.973L4.07914 59.6897C4.03205 59.2837 4.03205 58.8644 3.99526 58.3966L-0.126553 58.3966C-1.54218 58.4084-2.71648 57.2697-2.72825 55.8089L-2.72825 48.0325C-2.72825 47.3131-2.58404 46.1627-2.40451 45.4683L-1.75703 42.8438C-1.60105 42.1612-0.834369 41.586-0.139797 41.586L3.73185 41.586 3.69653 9.19752C3.69653 6.33323 6.03336 3.99707 8.88522 3.99707L10.2287 3.99707 10.1802 3.99707 10.1802-2.49651C10.1802-3.18059 10.7438-3.79111 11.4751-3.79111L19.2655-3.80288C19.9969-3.80288 20.5605-3.19236 20.5605-2.50975L20.5723 3.9853 20.5237 3.9853 56.8636 3.94852 56.8283 3.94852 56.8165-2.54506C56.8165-3.22766 57.4272-3.83966 58.1586-3.83966L65.9254-3.85143C66.6568-3.85143 67.2322-3.24091 67.2322-2.55683L67.2322 3.93675 68.5257 3.93675C71.3555 3.92498 73.7276 6.26261 73.7276 9.12544L73.7644 41.5021 77.611 41.5021C78.3424 41.5021 79.0737 42.0773 79.265 42.7482L79.9125 45.3844C80.1156 46.0671 80.2598 47.2175 80.2598 47.9486L80.2716 55.725C80.2716 57.1859 79.0855 58.3128 77.636 58.3128" fill="#363736" fill-rule="evenodd" transform="matrix(1 0 0 -1 4070 1360)"/><path d="M-0.359572-3.8149-0.359572 6.91865 11.2832 6.89362 11.295 50.5817-1.83015 44.4301-2.36877 55.3433 24.037 68.1514 23.9534 6.89362 35.6329 6.88184 35.6329-3.85024" fill="#2E2A26" fill-rule="evenodd" transform="matrix(1 0 0 -1 3773 1357)"/><path d="M-2.4642-3.78351-2.4642 5.8599C-0.690633 8.61621 1.08294 11.1351 2.82071 13.3668 4.53312 15.5986 6.56176 17.9856 8.87083 20.5045 11.1426 23.0102 13.9857 25.9585 17.3866 29.383 20.085 32.0807 22.1495 34.4077 23.571 36.3654 25.0299 38.3113 26.0248 40.0888 26.6214 41.7358 27.1912 43.3712 27.4836 45.0783 27.4836 46.844 27.4836 49.6135 26.6572 51.9053 24.9568 53.7062 23.2548 55.4969 20.9114 56.4039 17.8849 56.4039 14.6897 56.4039 11.7751 55.7357 9.18706 54.4345 6.59905 53.1098 3.89022 51.2239 1.00985 48.7665L-1.26193 60.2944C1.61695 62.3239 4.77626 63.9592 8.19064 65.2487 11.5677 66.525 15.6131 67.1698 20.3028 67.1698 27.1554 67.158 32.4896 65.3439 36.2187 61.6791 39.9851 58.0275 41.8676 53.1465 41.8318 47.036 41.8318 43.6335 41.1143 40.5196 39.73 37.6666 38.3816 34.8385 36.5349 32.1042 34.2259 29.4548 31.9183 26.8055 29.3303 24.0961 26.523 21.3266 24.2154 18.9996 22.0033 16.7078 19.9508 14.4527 17.8849 12.1858 15.8935 9.77382 13.9857 7.25637L42.5358 7.21973 42.5358-3.83187" fill="#2E2A26" fill-rule="evenodd" transform="matrix(1 0 0 -1 3821 1357)"/><path d="M0.17022 13.5479C2.97812 11.4051 5.7511 9.73884 8.52408 8.53592 11.2621 7.33446 14.201 6.75127 17.3522 6.75127 21.0258 6.75127 23.9995 7.92935 26.2633 10.3454 28.5038 12.763 29.6168 15.9888 29.6532 20.0243 29.6532 23.7266 28.5736 26.7391 26.4292 29.0718 24.2847 31.3812 21.0258 32.5724 16.7237 32.5724 15.9075 32.5724 14.8644 32.5008 13.6074 32.3459 12.3635 32.1909 11.0483 31.8577 9.66179 31.3461L6.13082 38.8107 23.5849 56.1208 1.4505 56.1442 2.11393 67.1795 40.8746 67.1327 40.8746 57.7154 24.2134 41.4051C30.5537 40.2752 35.3286 37.8942 38.6224 34.2621 41.9177 30.5846 43.5399 26.0609 43.5399 20.6675 43.505 15.7622 42.4735 11.465 40.3886 7.78611 38.2791 4.13203 35.2689 1.26285 31.383-0.773203 27.4723-2.80925 22.8269-3.8207 17.4235-3.8207 13.3717-3.8207 9.86402-3.3676 6.92518-2.42777 3.98634-1.52302 0.856918-0.0233861-2.46018 2.04774" fill="#2E2A26" fill-rule="evenodd" transform="matrix(1 0 0 -1 3872 1358)"/><path d="M-2.5483 11.1512-2.51296 19.835C0.185491 25.0584 2.88395 30.1164 5.5088 34.9825 8.14689 39.872 10.8807 44.8465 13.747 49.9631 16.6604 55.0562 19.7784 60.4714 23.1467 66.1722L38.5307 66.1605 38.4953 21.3858 47.4519 21.3858 47.4048 11.1044 38.4718 11.1044 38.4718-3.82934 26.0247-3.80445 26.0247 11.1161ZM10.0062 21.4209 26.0615 21.4092 26.0615 50.2252C23.2909 45.5026 20.5454 40.7199 17.8469 35.9241 15.1499 31.118 12.5604 26.287 10.0062 21.4209" fill="#2E2A26" fill-rule="evenodd" transform="matrix(1 0 0 -1 3923 1357)"/><path d="M0.0563491 12.9764C2.39845 11.0251 4.90526 9.51229 7.58835 8.41753 10.2714 7.29792 12.8606 6.76296 15.3313 6.75127 18.9434 6.75127 21.875 7.98927 24.1449 10.477 26.4162 12.9413 27.5461 16.227 27.5822 20.3225 27.5822 24.4063 26.4162 27.6438 24.0755 30.0847 21.7334 32.5008 18.3669 33.7037 13.9544 33.7154 11.7885 33.7154 9.69349 33.4538 7.62303 32.9174 5.59879 32.3824 3.36361 31.6195 1.02151 30.608 1.57489 36.7147 2.22218 42.798 2.97494 48.893 3.73927 55.0012 4.56283 61.0962 5.42252 67.1795L39.8331 67.1444 39.2436 56.1193 16.1664 56.1325C15.8847 54.1914 15.6376 52.2153 15.366 50.2026 15.1305 48.2148 14.9195 46.1919 14.814 44.1792 16.0494 44.3576 17.5318 44.4526 19.2859 44.4526 23.7577 44.4526 27.653 43.4894 30.9949 41.5366 34.2892 39.5722 36.8668 36.8462 38.6916 33.3588 40.5497 29.8699 41.4441 25.8343 41.4441 21.239 41.4094 16.4053 40.4095 12.0848 38.3853 8.27429 36.3842 4.48867 33.5017 1.51279 29.7119-0.606577 25.9697-2.74933 21.521-3.8207 16.3673-3.8207 13.3779-3.79732 10.8234-3.58246 8.65898-3.18928 6.52927-2.77271 4.56283-2.17783 2.84491-1.39293 1.09231-0.606577-0.696417 0.346406-2.55594 1.4894" fill="#2E2A26" fill-rule="evenodd" transform="matrix(1 0 0 -1 3977 1358)"/></g></svg>