<svg width="163" height="164" xmlns="http://www.w3.org/2000/svg" xmlns:xlink="http://www.w3.org/1999/xlink" xml:space="preserve" overflow="hidden"><g transform="translate(-3386 -938)"><path d="M147.054-1.63459 12.0522-1.63459C4.62685-1.63459-1.44553 4.47816-1.44553 11.9493L-1.44553 147.784C-1.44553 155.255 4.62685 161.365 12.0522 161.365L147.054 161.365C154.479 161.365 160.554 155.255 160.554 147.784L160.554 11.9493C160.554 4.47816 154.479-1.63459 147.054-1.63459" fill="#8DC63F" fill-rule="evenodd" transform="matrix(1 0 0 -1 3388 1100)"/><path d="M147.054-1.63459 12.0522-1.63459C4.62685-1.63459-1.44553 4.47816-1.44553 11.9493L-1.44553 147.784C-1.44553 155.255 4.62685 161.365 12.0522 161.365L147.054 161.365C154.479 161.365 160.554 155.255 160.554 147.784L160.554 11.9493C160.554 4.47816 154.479-1.63459 147.054-1.63459" fill="#8DC63F" fill-rule="evenodd" transform="matrix(1 0 0 -1 3388 1100)"/><path d="M17.8423 96.362 0.12766 96.362C-0.781966 96.362-1.51665 95.6313-1.51665 94.7299L-1.51665-1.63794 1.58503-1.63794 1.58503 25.5093 16.3816 25.5093 16.3816-1.63794 16.8825-1.63794 19.4833-1.63794 19.4833 94.7299C19.4833 95.6313 18.7486 96.362 17.8423 96.362M1.58503 87.9032 16.3816 87.9032 16.3816 57.7947 1.58503 57.7947" fill="#2E2A26" fill-rule="evenodd" transform="matrix(1 0 0 -1 3505 1068)"/><path d="M79.9346 61.3679 75.7835 61.3679C75.7598 61.8097 75.7449 62.2424 75.7184 62.666L74.9511 77.1245C74.8089 80.0027 72.3228 82.3619 69.4278 82.3619L11.6858 82.3619C8.79371 82.3619 6.30798 80.0027 6.15083 77.1245L5.39525 62.666C5.3687 62.2424 5.3596 61.8097 5.33305 61.3679L1.17902 61.3679C-0.261196 61.3679-1.44894 60.1823-1.44894 58.7387L-1.44894 50.8309C-1.44894 50.1046-1.30416 48.9426-1.11718 48.2432L-0.444542 45.5728C-0.269926 44.8734 0.453273 44.3042 1.17902 44.3042L5.11987 44.3042 5.11987 44.31 5.11987 11.4926C5.11987 8.60574 7.48409 6.24324 10.3642 6.24324L11.7036 6.24324 11.6858 6.23123 11.6858-0.324972C11.6858-1.05097 12.2693-1.63796 12.9954-1.63796L20.8709-1.63796C21.585-1.63796 22.1805-1.05097 22.1805-0.324972L22.1805 6.23123 22.154 6.24324 58.936 6.24324 58.9094 6.23123 58.9094-0.324972C58.9094-1.05097 59.502-1.63796 60.2161-1.63796L68.1211-1.63796C68.8473-1.63796 69.4278-1.05097 69.4278-0.324972L69.4278 6.23123 69.4162 6.24324 70.7407 6.24324C73.6295 6.24324 75.9999 8.60574 75.9999 11.4926L75.9999 44.3042 79.9346 44.3042C80.6487 44.3042 81.3897 44.8734 81.5614 45.5728L82.2341 48.2432C82.4058 48.9426 82.5509 50.1046 82.5509 50.8309L82.5509 58.7387C82.5509 60.1823 81.3748 61.3679 79.9346 61.3679M16.9359 77.1129C16.9359 77.8301 17.5285 78.4259 18.2426 78.4259L62.8739 78.4259C63.5851 78.4259 64.1806 77.8301 64.1806 77.1129L64.1806 74.4865C64.1806 73.7693 63.5851 73.1735 62.8739 73.1735L18.2426 73.1735C17.5285 73.1735 16.9359 73.7693 16.9359 74.4865ZM27.4281 15.4316C27.4281 14.7114 26.8471 14.1157 26.1214 14.1157L15.6117 14.1157C14.8976 14.1157 14.1893 14.7027 14.0413 15.405L13.2591 19.3917C13.114 20.1031 13.5909 20.681 14.305 20.681L26.1214 20.681C26.8471 20.681 27.4281 20.0882 27.4281 19.368ZM67.8548 19.3917 67.0636 15.405C66.9185 14.7027 66.2164 14.1157 65.5023 14.1157L54.9835 14.1157C54.2694 14.1157 53.6768 14.7114 53.6768 15.4316L53.6768 19.368C53.6768 20.0882 54.2694 20.681 54.9835 20.681L66.8148 20.681C67.5285 20.681 68 20.1031 67.8548 19.3917M70.7407 33.6424C70.7407 31.1853 68.1331 27.0833 40.5508 27.0833 12.9688 27.0833 10.3642 31.1853 10.3642 33.6424L10.3642 66.6141C10.3642 68.0577 11.5555 69.2375 12.9954 69.2375L68.1211 69.2375C69.5614 69.2375 70.7407 68.0577 70.7407 66.6141" fill="#2E2A26" fill-rule="evenodd" transform="matrix(1 0 0 -1 3412 1068)"/></g></svg>