<svg width="334" height="116" xmlns="http://www.w3.org/2000/svg" xmlns:xlink="http://www.w3.org/1999/xlink" xml:space="preserve" overflow="hidden"><g transform="translate(-3326 -1101)"><path d="M224.231-2.50485 224.112 106.256 4.4437 106.018C1.01022 106.018-1.76996 103.226-1.76996 99.7687L-1.65934 3.48793C-1.65934 0.0398261 1.12919-2.74381 4.56267-2.74381" fill="#FFFFFF" fill-rule="evenodd" transform="matrix(1 0 0 -1 3331 1211)"/><path d="M7.77692 112.039C2.481 112.031-1.76427 107.733-1.76427 102.47L-1.66232 6.81981C-1.654 1.56524 2.60791-2.72459 7.90383-2.72459L230.237-2.47794 230.11 112.277ZM223.373 105.521 223.483 4.26069 7.89551 4.02341C6.32785 4.02341 5.08163 5.29412 5.08163 6.82918L4.98905 102.478C4.98905 104.021 6.21758 105.283 7.77692 105.292" fill="#8DC63F" fill-rule="evenodd" transform="matrix(1 0 0 -1 3328 1214)"/><path d="M7.73406-2.728 103.498-2.61755C108.769-2.60921 113.065 1.68494 113.057 6.95547L112.955 102.682C112.946 107.953 108.651 112.272 103.379 112.272L7.60689 112.171C2.34315 112.153-1.95228 107.834-1.94394 102.572L-1.84179 6.83668C-1.84179 1.55782 2.46197-2.728 7.73406-2.728" fill="#8DC63F" fill-rule="evenodd" transform="matrix(1 0 0 -1 3546 1214)"/><path d="M7.73406-2.728 103.498-2.61755C108.769-2.60921 113.065 1.68494 113.057 6.95547L112.955 102.682C112.946 107.953 108.651 112.272 103.379 112.272L7.60689 112.171C2.34315 112.153-1.95228 107.834-1.94394 102.572L-1.84179 6.83668C-1.84179 1.55782 2.46197-2.728 7.73406-2.728" fill="#8DC63F" fill-rule="evenodd" transform="matrix(1 0 0 -1 3546 1214)"/><path d="M0.271511 60.3283 10.0745 60.3116 10.0587 39.1289 0.247816 39.1362ZM11.0559 66.2544-0.693094 66.2721C-1.28054 66.2721-1.80283 65.754-1.80283 65.1005L-1.87491-2.71235 0.207336-2.71235 0.223133 16.4336 10.0341 16.4252 10.0183-2.72902 10.348-2.72902 12.061-2.72902 12.1252 65.1005C12.1252 65.7363 11.6671 66.2544 11.0559 66.2544" fill="#363736" fill-rule="evenodd" transform="matrix(1 0 0 -1 3629 1191)"/><path d="M48.7374 22.0223C48.7374 20.3188 46.9141 17.4409 27.5225 17.4576 8.15707 17.4827 6.33381 20.3617 6.34218 22.0652L6.36728 45.1991C6.36728 46.2292 7.21144 47.0386 8.20832 47.0386L46.9141 47.0041C47.9277 46.9957 48.7625 46.1779 48.7625 45.1562ZM46.6924 12.0145 46.1128 9.22136C46.0114 8.73509 45.5428 8.32725 45.0312 8.32725L37.6618 8.33457C37.142 8.33457 36.7329 8.7445 36.7413 9.26319L36.7413 12.0313C36.7413 12.5175 37.1503 12.9515 37.6618 12.9515L45.9601 12.9432C46.4455 12.9432 46.8032 12.5259 46.6924 12.0145M18.3131 9.28097C18.3131 8.7696 17.8863 8.36071 17.3926 8.36071L9.98032 8.36908C9.52006 8.36908 9.00855 8.77797 8.89767 9.26319L8.36105 12.0574C8.25958 12.5688 8.60791 12.9777 9.09432 12.9777L17.401 12.9683C17.8863 12.9683 18.3131 12.5426 18.3131 12.0491ZM10.9511 52.5747C10.9511 53.0861 11.3946 53.495 11.9061 53.495L43.2331 53.4605C43.7279 53.4605 44.1536 53.0516 44.1536 52.5319L44.1536 50.6924C44.1536 50.1988 43.7195 49.7721 43.2331 49.7721L11.9061 49.8066C11.3862 49.8066 10.9511 50.2406 10.9511 50.7269ZM55.1873 41.4512 52.2897 41.4595C52.2897 41.7921 52.2563 42.0901 52.2563 42.3798L51.6935 52.5319C51.6255 54.5595 49.888 56.2118 47.8514 56.2202L7.29617 56.2631C5.26893 56.2631 3.53041 54.6108 3.41952 52.5831L2.89964 42.43C2.86617 42.1413 2.86617 41.8433 2.84001 41.5108L-0.08996 41.5108C-1.09626 41.5191-1.931 40.7097-1.93937 39.6713L-1.93937 34.1435C-1.93937 33.6321-1.83686 32.8144-1.70924 32.3208L-1.24898 30.4552C-1.1381 29.9699-0.593108 29.5611-0.0993744 29.5611L2.65277 29.5611 2.62767 6.53798C2.62767 4.50192 4.28879 2.84128 6.31603 2.84128L7.27107 2.84128 7.23655 2.84128 7.23655-1.77463C7.23655-2.2609 7.63718-2.69488 8.15707-2.69488L13.6948-2.70325C14.2147-2.70325 14.6154-2.26926 14.6154-1.78404L14.6237 2.83292 14.5892 2.83292 40.4213 2.80677 40.3962 2.80677 40.3878-1.80914C40.3878-2.29436 40.8219-2.72939 41.3418-2.72939L46.8629-2.73776C47.3827-2.73776 47.7917-2.30377 47.7917-1.8175L47.7917 2.79841 48.7112 2.79841C50.7228 2.79004 52.409 4.45173 52.409 6.48674L52.4352 29.5015 55.1695 29.5015C55.6894 29.5015 56.2093 29.9103 56.3453 30.3872L56.8055 32.2612C56.9499 32.7464 57.0524 33.5642 57.0524 34.0839L57.0608 39.6117C57.0608 40.6501 56.2177 41.4512 55.1873 41.4512" fill="#363736" fill-rule="evenodd" transform="matrix(1 0 0 -1 3564 1186)"/></g></svg>