<svg width="310" height="311" xmlns="http://www.w3.org/2000/svg" xmlns:xlink="http://www.w3.org/1999/xlink" xml:space="preserve" overflow="hidden"><g transform="translate(-3964 -581)"><path d="M308.618 280.537C308.618 295.992 296.014 308.636 280.609 308.636L27.6261 308.636C12.2218 308.636-0.382169 295.992-0.382169 280.537L-0.382169 26.7328C-0.382169 19.7831 2.17223 13.4048 6.38078 8.48486L6.38078 8.47618 6.38871 8.47618C11.5372 2.46321 19.1549-1.36363 27.6261-1.36363L280.609-1.36363C289.081-1.36363 296.698 2.46321 301.846 8.47618L301.855 8.47618 301.855 8.48486C306.063 13.4048 308.618 19.7831 308.618 26.7328" fill="#8DC63F" fill-rule="evenodd" transform="matrix(1 0 0 -1 3965 890)"/><path d="M275.617 91.769 275.617 12.8983C275.617 5.10594 269.257-1.23119 261.439-1.23119L13.7946-1.23119C5.97798-1.23119-0.383042 5.10594-0.383042 12.8983L-0.383042 91.769" fill="#FFFFFF" fill-rule="evenodd" transform="matrix(1 0 0 -1 3981 875)"/><path d="M29.0321 146.577 2.03761 146.577C0.655481 146.577-0.465333 145.472-0.465333 144.11L-0.465333-1.42325 4.26136-1.42325 4.26136 39.5774 26.8087 39.5774 26.8087-1.42325 27.5667-1.42325 31.535-1.42325 31.535 144.11C31.535 145.472 30.4146 146.577 29.0321 146.577M4.26136 133.801 26.8087 133.801 26.8087 88.3317 4.26136 88.3317" fill="#2E2A26" fill-rule="evenodd" transform="matrix(1 0 0 -1 4173 759)"/><path d="M122.685 93.1031 116.41 93.1031C116.375 93.7649 116.354 94.4148 116.313 95.0472L115.153 116.734C114.932 121.053 111.18 124.593 106.801 124.593L19.504 124.593C15.126 124.593 11.3702 121.053 11.1315 116.734L9.99306 95.0472C9.95141 94.4148 9.93439 93.7649 9.89273 93.1031L3.61813 93.1031C1.44015 93.1031-0.358952 91.323-0.358952 89.1621L-0.358952 77.2982C-0.358952 76.2061-0.137641 74.4669 0.142349 73.4158L1.16016 69.4105C1.41915 68.3594 2.51991 67.5071 3.61813 67.5071L9.57109 67.5071 9.57109 67.516 9.57109 18.2918C9.57109 13.9582 13.1494 10.4184 17.5035 10.4184L19.5225 10.4184 19.504 10.398 19.504 0.562945C19.504-0.523043 20.3835-1.40736 21.4806-1.40736L33.3891-1.40736C34.4688-1.40736 35.366-0.523043 35.366 0.562945L35.366 10.398 35.3305 10.4184 90.9355 10.4184 90.8971 10.398 90.8971 0.562945C90.8971-0.523043 91.7939-1.40736 92.8737-1.40736L104.822-1.40736C105.922-1.40736 106.801-0.523043 106.801 0.562945L106.801 10.398 106.781 10.4184 108.778 10.4184C113.156 10.4184 116.732 13.9582 116.732 18.2918L116.732 67.5071 122.685 67.5071C123.765 67.5071 124.883 68.3594 125.146 69.4105L126.163 73.4158C126.42 74.4669 126.641 76.2061 126.641 77.2982L126.641 89.1621C126.641 91.323 124.862 93.1031 122.685 93.1031M27.4336 116.72C27.4336 117.797 28.3337 118.684 29.4134 118.684L96.8917 118.684C97.9685 118.684 98.8683 117.797 98.8683 116.72L98.8683 112.779C98.8683 111.704 97.9685 110.811 96.8917 110.811L29.4134 110.811C28.3337 110.811 27.4336 111.704 27.4336 112.779ZM43.2988 24.2002C43.2988 23.1199 42.4197 22.227 41.3251 22.227L25.4367 22.227C24.3569 22.227 23.2804 23.1052 23.0591 24.1621L21.879 30.1409C21.6614 31.2068 22.3804 32.0706 23.4605 32.0706L41.3251 32.0706C42.4197 32.0706 43.2988 31.1863 43.2988 30.1061ZM104.421 30.1409 103.226 24.1621C103.004 23.1052 101.945 22.227 100.866 22.227L84.9612 22.227C83.8814 22.227 82.9846 23.1199 82.9846 24.2002L82.9846 30.1061C82.9846 31.1863 83.8814 32.0706 84.9612 32.0706L102.845 32.0706C103.925 32.0706 104.642 31.2068 104.421 30.1409M108.778 51.5149C108.778 47.8288 104.843 41.677 63.139 41.677 21.4426 41.677 17.5035 47.8288 17.5035 51.5149L17.5035 100.97C17.5035 103.137 19.3037 104.908 21.4806 104.908L104.822 104.908C107.002 104.908 108.778 103.137 108.778 100.97" fill="#2E2A26" fill-rule="evenodd" transform="matrix(1 0 0 -1 4033 759)"/><path d="M1.81142 9.49008 13.4379 9.49008 13.4379 53.1867 0.300218 47.0097-0.268787 57.9326 26.106 70.7593 26.106 9.49008 37.7314 9.49008 37.7314-1.24049 1.81142-1.24049" fill="#2E2A26" fill-rule="evenodd" transform="matrix(1 0 0 -1 3997 865)"/><path d="M-0.323751 8.03088C0.929213 10.6742 2.41897 13.1347 4.14265 15.4037 5.86705 17.676 7.71649 19.8922 9.68882 22.0705 11.6644 24.2455 13.6982 26.3999 15.7991 28.5482 17.898 30.6882 19.9845 32.9543 22.0517 35.3563 24.2465 37.8724 25.9382 40.192 27.1294 42.3052 28.3176 44.4156 28.9145 46.7966 28.9145 49.4425 28.9145 52.2799 28.0834 54.5756 26.424 56.3416 24.7618 58.1075 22.4585 58.9903 19.5135 58.9903 16.3184 58.9903 13.4819 58.328 11.0057 57.0036 8.52964 55.6792 5.88178 53.7925 3.06037 51.332L0.80345 62.8638C3.62522 64.8827 6.69457 66.5399 10.019 67.8318 13.3378 69.124 17.2889 69.7658 21.8642 69.7658 28.6335 69.7658 33.8344 67.9409 37.4722 64.2825 41.1042 60.6298 42.9245 55.7439 42.9245 49.6307 42.9245 46.8555 42.4854 44.2858 41.6076 41.9254 40.7294 39.5589 39.5853 37.3517 38.1746 35.3089 36.7668 33.2575 35.1689 31.3032 33.3805 29.4433 31.5954 27.583 29.7927 25.7433 27.9752 23.9127 25.6572 21.5815 23.4768 19.2829 21.4423 17.0139 19.4028 14.7417 17.4445 12.3459 15.5663 9.82359L43.6766 9.82359 43.6766-1.23441-0.323751-1.23441" fill="#2E2A26" fill-rule="evenodd" transform="matrix(1 0 0 -1 4045 865)"/><path d="M3.18931 15.6479C5.94232 13.6345 8.53998 12.0787 10.9801 10.981 13.4203 9.88042 16.2375 9.33157 19.4286 9.33157 23.1837 9.33157 26.1736 10.523 28.3945 12.9123 30.6154 15.3016 31.7259 18.5392 31.7259 22.6251 31.7259 26.3968 30.6477 29.429 28.4878 31.7242 26.3282 34.0195 23.0904 35.1673 18.7713 35.1673 17.9586 35.1673 16.9271 35.0851 15.6735 34.9294 14.4227 34.7737 13.1078 34.4422 11.7314 33.9402L8.16612 41.3899 25.25 58.7369 3.46988 58.7369 4.12755 69.7706 42.8979 69.7706 42.8979 60.3399 26.3752 44.1226C29.5049 43.7467 32.2752 42.9456 34.6834 41.7185 37.0941 40.4918 39.1105 38.9685 40.7384 37.1457 42.3662 35.323 43.5875 33.2328 44.3999 30.8759 45.2125 28.5191 45.6215 25.9889 45.6215 23.2853 45.6215 19.5753 45.0109 16.2144 43.7892 13.197 42.5707 10.1799 40.8317 7.59961 38.5788 5.46582 36.3256 3.32591 33.5873 1.67647 30.3671 0.513896 27.1409-0.648316 23.5289-1.2296 19.5223-1.2296 17.4592-1.2296 15.5802-1.11789 13.891-0.900579 12.2018-0.677867 10.574-0.334429 9.01071 0.138384 7.44423 0.607954 5.89532 1.2069 4.36399 1.92873 2.82693 2.65092 1.24896 3.5461-0.378885 4.6175" fill="#2E2A26" fill-rule="evenodd" transform="matrix(1 0 0 -1 4095 866)"/><path d="M-0.434373 23.0937 24.7166 69.7603 39.8078 69.7603 39.8078 24.7121 48.5658 24.7121 48.5658 14.3504 39.8078 14.3504 39.8078-1.23986 27.6051-1.23986 27.6051 14.3504-0.434373 14.3504ZM27.6051 24.7121 27.6051 53.608 12.0496 24.7121" fill="#2E2A26" fill-rule="evenodd" transform="matrix(1 0 0 -1 4147 866)"/><path d="M3.12251 15.1754C5.41056 13.2939 7.79407 11.847 10.2723 10.8372 12.7506 9.8361 15.2613 9.33157 17.8048 9.33157 21.491 9.33157 24.4947 10.5583 26.8156 13.0063 29.1339 15.4601 30.2941 18.7622 30.2941 22.9069 30.2941 27.0545 29.1189 30.3242 26.7682 32.7135 24.4146 35.1056 20.951 36.3003 16.3745 36.3003 14.1484 36.3003 11.9879 36.0271 9.89227 35.4988 7.79407 34.9619 5.53846 34.1928 3.12251 33.1859L7.60386 69.7706 42.7834 69.7706 42.2106 58.7369 18.5678 58.7369 17.2323 46.7613C17.6772 46.949 19.203 47.0489 21.8088 47.0489 25.2428 47.0489 28.3562 46.4827 31.1519 45.3465 33.9479 44.2196 36.331 42.6314 38.3017 40.5855 40.2724 38.5429 41.7981 36.1093 42.8785 33.28 43.9586 30.4503 44.499 27.3096 44.499 23.8518 44.499 20.2034 43.9112 16.8425 42.736 13.7606 41.5605 10.6844 39.8599 8.04287 37.637 5.84133 35.4109 3.64016 32.71 1.91396 29.5314 0.657686 26.3528-0.601467 22.7941-1.2296 18.8528-1.2296 16.5644-1.2296 14.5314-1.11789 12.7506-0.897696 10.9727-0.677867 9.33438-0.348844 7.84144 0.0911751 6.34851 0.531554 4.93283 1.08329 3.59732 1.73809 2.26472 2.3983 0.896415 3.16734-0.501409 4.0481" fill="#2E2A26" fill-rule="evenodd" transform="matrix(1 0 0 -1 4200 866)"/></g></svg>