<svg width="254" height="164" xmlns="http://www.w3.org/2000/svg" xmlns:xlink="http://www.w3.org/1999/xlink" xml:space="preserve" overflow="hidden"><g transform="translate(-2805 -940)"><path d="M16.3804-1.62923C6.87507-1.62923-0.859293 6.08719-0.859293 15.5665L-0.859293 138.176C-0.859293 147.658 6.87507 155.371 16.3804 155.371L224.901 155.371C234.407 155.371 242.141 147.658 242.141 138.176L242.141 15.5665C242.141 6.08719 234.407-1.62923 224.901-1.62923" fill="#034750" fill-rule="evenodd" transform="matrix(1 0 0 -1 2809 1099)"/><path d="M252.137-1.63279 231.398-1.63279C242.5-1.63279 251.495 7.34988 251.495 18.4289L251.495 141.306C251.495 152.385 242.5 161.367 231.398 161.367L252.137 161.367 240.052 161.367 19.2344 161.367C8.13574 161.367-0.862865 152.385-0.862865 141.306L-0.862865 18.4289C-0.862865 7.34988 8.13574-1.63279 19.2344-1.63279L240.052-1.63279ZM230.841 4.03016 19.2344 4.03016C11.2787 4.03016 4.80724 10.4902 4.80724 18.4289L4.80724 141.306C4.80724 149.247 11.2787 155.707 19.2344 155.707L230.841 155.707C238.797 155.707 245.269 149.247 245.269 141.306L245.269 18.4289C245.269 10.4902 238.797 4.03016 230.841 4.03016" fill="#8DC63F" fill-rule="evenodd" transform="matrix(1 0 0 -1 2806 1102)"/><path d="M79.0321-1.63347C78.0846-1.63347 77.1109-1.59221 76.1133-1.50356 59.6673-0.0626029 53.0883 11.4676 45.5178 17.6573 37.3784 24.3095 26.2442 31.2917-0.858168 33.4195-0.858168 33.4195 12.9071 55.1242 15.8169 59.8603 19.6622 66.1206 23.6012 74.9303 38.4987 74.9303 39.8715 74.9303 41.3383 74.8568 42.9015 74.6976L24.7864 45.9961C24.7864 45.9961 45.5063 42.5917 57.7022 31.274 65.3079 24.2121 66.1495 23.496 69.0769 20.4925 75.5123 14.1794 81.2875 11.9984 86.2007 11.9984 97.2175 11.9984 103.887 22.9771 103.887 22.9771 103.887 22.9771 99.2824 20.9376 93.774 20.9376 89.9081 20.9376 85.6021 21.9425 82.1324 25.3614 73.5705 33.7998 71.309 36.0282 71.309 36.0282 71.309 36.0282 61.5972 46.789 40.1913 53.2523L49.0906 67.2938C52.0882 72.3339 61.4859 85.3669 78.2488 85.3669 79.1992 85.3669 80.173 85.3256 81.1673 85.2402 97.6136 83.7989 104.196 72.2658 111.763 66.0794 119.903 59.4243 131.037 52.445 158.142 50.3168 158.142 50.3168 144.374 28.6095 141.464 23.8731 137.622 17.6128 133.682 8.80313 118.782 8.80313 117.412 8.80313 115.946 8.87984 114.379 9.03617L132.495 37.7376C132.495 37.7376 111.778 41.1417 99.5817 52.4623 91.9759 59.5216 91.1311 60.2378 88.2069 63.2413 81.7715 69.5544 75.9934 71.7353 71.0832 71.7353 60.0663 71.7353 53.3933 60.7563 53.3933 60.7563 53.3933 60.7563 58.0014 62.7962 63.5098 62.7962 67.3728 62.7962 71.6817 61.7909 75.1514 58.372 83.7133 49.9336 85.9716 47.7085 85.9716 47.7085 85.9716 47.7085 95.6834 36.9477 117.09 30.484L108.19 16.44C105.193 11.3999 95.7979-1.63347 79.0321-1.63347" fill="#8DC63F" fill-rule="evenodd" transform="matrix(1 0 0 -1 2852 1066)"/></g></svg>