<svg width="368" height="127" xmlns="http://www.w3.org/2000/svg" xmlns:xlink="http://www.w3.org/1999/xlink" xml:space="preserve" overflow="hidden"><g transform="translate(-3447 -977)"><path d="M-3.56737-3.13374-3.56737 114.867 237.619 114.867C241.376 114.867 244.433 111.833 244.433 108.099L244.433 3.62823C244.433-0.0996212 241.376-3.13374 237.619-3.13374" fill="#FFFFFF" fill-rule="evenodd" transform="matrix(1 0 0 -1 3566 1096)"/><path d="M240.928 115.441C242.632 115.441 244.022 114.053 244.022 112.351L244.022 7.35151C244.022 5.64949 242.632 4.25507 240.928 4.25507L3.8505 4.25507 3.8505 115.441ZM240.928 122.851-3.56146 122.851-3.56146-3.14941 240.928-3.14941C246.731-3.14941 251.439 1.55475 251.439 7.35151L251.439 112.351C251.439 118.148 246.731 122.851 240.928 122.851" fill="#8DC63F" fill-rule="evenodd" transform="matrix(1 0 0 -1 3563 1100)"/><path d="M122.637 120.369 118.897 120.369C117.065 121.912 114.707 122.851 112.131 122.851L7.13749 122.851C1.36394 122.851-3.36343 118.124-3.36343 112.35L-3.36343 7.35185C-3.36343 1.57804 1.36394-3.14955 7.13749-3.14955L112.131-3.14955C114.406-3.14955 116.516-2.41023 118.241-1.17537L122.637-1.17537" fill="#8DC63F" fill-rule="evenodd" transform="matrix(1 0 0 -1 3451 1100)"/><path d="M12.0785 72.8344-2.27032 72.8344C-3.00029 72.8344-3.59314 72.2699-3.59314 71.5689L-3.59314-3.16627-1.08537-3.16627-1.08537 17.8882 10.8997 17.8882 10.8997-3.16627 11.2988-3.16627 13.4075-3.16627 13.4075 71.5689C13.4075 72.2699 12.8146 72.8344 12.0785 72.8344M-1.08537 66.2758 10.8997 66.2758 10.8997 42.9288-1.08537 42.9288" fill="#2E2A26" fill-rule="evenodd" transform="matrix(1 0 0 -1 3542 1075)"/><path d="M59.5877 45.592 56.375 45.592C56.3633 45.9259 56.3516 46.2656 56.3333 46.5936L55.7376 57.7751C55.6183 60.0111 53.6987 61.8297 51.4578 61.8297L6.78259 61.8297C4.54685 61.8297 2.62214 60.0111 2.50212 57.7751L1.91812 46.5936C1.89471 46.2656 1.88885 45.9259 1.8647 45.592L-1.34803 45.592C-2.45675 45.592-3.38032 44.6673-3.38032 43.5588L-3.38032 37.4343C-3.38032 36.8677-3.26762 35.973-3.11832 35.4304L-2.60604 33.3672C-2.46846 32.8247-1.90202 32.3891-1.34803 32.3891L1.7037 32.3891 1.7037 6.99135C1.7037 4.75461 3.534 2.93008 5.76315 2.93008L6.7943 2.93008 6.78259 2.92423 6.78259-2.1562C6.78259-2.71117 7.24145-3.17023 7.79544-3.17023L13.8938-3.17023C14.4478-3.17023 14.9066-2.71117 14.9066-2.1562L14.9066 2.92423 14.8825 2.93008 43.3448 2.93008 43.3214 2.92423 43.3214-2.1562C43.3214-2.71117 43.7802-3.17023 44.3342-3.17023L50.4442-3.17023C51.0107-3.17023 51.4578-2.71117 51.4578-2.1562L51.4578 2.92423 51.4578 2.93008 52.4773 2.93008C54.7123 2.93008 56.5418 4.75461 56.5418 6.99135L56.5418 32.3891 59.5877 32.3891C60.1424 32.3891 60.7147 32.8247 60.8457 33.3672L61.3763 35.4304C61.5015 35.973 61.6207 36.8677 61.6207 37.4343L61.6207 43.5588C61.6207 44.6673 60.7023 45.592 59.5877 45.592M10.8472 57.7751C10.8472 58.3293 11.3068 58.7825 11.8608 58.7825L46.3914 58.7825C46.9454 58.7825 47.3984 58.3293 47.3984 57.7751L47.3984 55.7411C47.3984 55.1869 46.9454 54.722 46.3914 54.722L11.8608 54.722C11.3068 54.722 10.8472 55.1869 10.8472 55.7411ZM18.9602 10.0386C18.9602 9.48433 18.5131 9.02454 17.9466 9.02454L9.82846 9.02454C9.27374 9.02454 8.71974 9.47189 8.60046 10.0269L8.00401 13.1034C7.89058 13.6583 8.26089 14.1057 8.81488 14.1057L17.9466 14.1057C18.5131 14.1057 18.9602 13.6466 18.9602 13.0917ZM50.2415 13.1034 49.6334 10.0269C49.5207 9.47189 48.9777 9.02454 48.4237 9.02454L40.2813 9.02454C39.7266 9.02454 39.2678 9.48433 39.2678 10.0386L39.2678 13.0917C39.2678 13.6466 39.7266 14.1057 40.2813 14.1057L49.4431 14.1057C49.9854 14.1057 50.3608 13.6583 50.2415 13.1034M52.4773 24.1355C52.4773 22.2275 50.456 19.0551 29.1231 19.0551 7.77202 19.0551 5.76315 22.2275 5.76315 24.1355L5.76315 49.6467C5.76315 50.7683 6.68672 51.6747 7.79544 51.6747L50.4442 51.6747C51.5647 51.6747 52.4773 50.7683 52.4773 49.6467" fill="#2E2A26" fill-rule="evenodd" transform="matrix(1 0 0 -1 3471 1075)"/></g></svg>