<svg width="724" height="251" xmlns="http://www.w3.org/2000/svg" xmlns:xlink="http://www.w3.org/1999/xlink" xml:space="preserve" overflow="hidden"><g transform="translate(-3944 -988)"><path d="M-0.732065-0.629451-0.732065 233.371 474.835 233.371C482.243 233.371 488.268 227.355 488.268 219.961L488.268 12.7802C488.268 5.38634 482.243-0.629451 474.835-0.629451" fill="#FFFFFF" fill-rule="evenodd" transform="matrix(1 0 0 -1 4172 1230)"/><path d="M481.537 234.668C484.903 234.668 487.642 231.916 487.642 228.534L487.642 20.2008C487.642 16.8181 484.903 14.0694 481.537 14.0694L13.8964 14.0694 13.8964 234.668ZM481.537 249.367-0.731122 249.367-0.731122-0.63295 481.537-0.63295C492.987-0.63295 502.27 8.69292 502.27 20.2008L502.27 228.534C502.27 240.039 492.987 249.367 481.537 249.367" fill="#8DC63F" fill-rule="evenodd" transform="matrix(1 0 0 -1 4165 1238)"/><path d="M228.816-0.63295 20.4819-0.63295C9.02502-0.63295-0.350514 8.74289-0.350514 20.2008L-0.350514 228.534C-0.350514 239.991 9.02502 249.367 20.4819 249.367L228.816 249.367C240.274 249.367 249.65 239.991 249.65 228.534L249.65 20.2008C249.65 8.74289 240.274-0.63295 228.816-0.63295" fill="#8DC63F" fill-rule="evenodd" transform="matrix(1 0 0 -1 3945 1238)"/><path d="M228.816-0.63295 20.4819-0.63295C9.02502-0.63295-0.350514 8.74289-0.350514 20.2008L-0.350514 228.534C-0.350514 239.991 9.02502 249.367 20.4819 249.367L228.816 249.367C240.274 249.367 249.65 239.991 249.65 228.534L249.65 20.2008C249.65 8.74289 240.274-0.63295 228.816-0.63295" fill="#8DC63F" fill-rule="evenodd" transform="matrix(1 0 0 -1 3945 1238)"/><path d="M28.1594 149.367 2.00662 149.367C0.668172 149.367-0.41572 148.247-0.41572 146.866L-0.41572-0.632952 4.16282-0.632952 4.16282 40.9225 26.006 40.9225 26.006-0.632952 26.7409-0.632952 30.5846-0.632952 30.5846 146.866C30.5846 148.247 29.4979 149.367 28.1594 149.367M4.16282 136.417 26.006 136.417 26.006 90.3344 4.16282 90.3344" fill="#363736" fill-rule="evenodd" transform="matrix(1 0 0 -1 4125 1188)"/><path d="M122.722 95.3915 116.444 95.3915C116.408 96.065 116.388 96.7269 116.344 97.3706L115.19 119.4C114.97 123.787 111.214 127.381 106.834 127.381L19.5368 127.381C15.1629 127.381 11.407 123.787 11.1678 119.4L10.0279 97.3706C9.98692 96.7269 9.96965 96.065 9.92829 95.3915L3.6527 95.3915C1.47583 95.3915-0.323365 93.5841-0.323365 91.3864L-0.323365 79.3349C-0.323365 78.227-0.103592 76.4579 0.174452 75.3914L1.19419 71.3213C1.45532 70.2547 2.55383 69.3894 3.6527 69.3894L9.60924 69.3894 9.60924 69.3981 9.60924 19.3931C9.60924 14.989 13.1832 11.3943 17.5398 11.3943L19.5577 11.3943 19.5368 11.3737 19.5368 1.381C19.5368 0.279246 20.4191-0.618693 21.5176-0.618693L33.4242-0.618693C34.5055-0.618693 35.4036 0.279246 35.4036 1.381L35.4036 11.3737 35.3641 11.3943 90.9728 11.3943 90.929 11.3737 90.929 1.381C90.929 0.279246 91.8314-0.618693 92.9066-0.618693L104.857-0.618693C105.955-0.618693 106.834 0.279246 106.834 1.381L106.834 11.3737 106.814 11.3943 108.812 11.3943C113.192 11.3943 116.763 14.989 116.763 19.3931L116.763 69.3894 122.722 69.3894C123.8 69.3894 124.919 70.2547 125.18 71.3213L126.196 75.3914C126.457 76.4579 126.677 78.227 126.677 79.3349L126.677 91.3864C126.677 93.5841 124.899 95.3915 122.722 95.3915M27.4709 119.385C27.4709 120.478 28.3705 121.382 29.4485 121.382L96.9261 121.382C98.0042 121.382 98.9037 120.478 98.9037 119.385L98.9037 115.38C98.9037 114.287 98.0042 113.38 96.9261 113.38L29.4485 113.38C28.3705 113.38 27.4709 114.287 27.4709 115.38ZM43.3345 25.3954C43.3345 24.2966 42.4558 23.3896 41.3573 23.3896L25.4728 23.3896C24.3948 23.3896 23.3168 24.2817 23.0971 25.3541L21.9158 31.43C21.696 32.5111 22.4172 33.3913 23.4952 33.3913L41.3573 33.3913C42.4558 33.3913 43.3345 32.4905 43.3345 31.3945ZM104.458 31.43 103.26 25.3541C103.04 24.2817 101.98 23.3896 100.901 23.3896L84.9965 23.3896C83.9153 23.3896 83.0189 24.2966 83.0189 25.3954L83.0189 31.3945C83.0189 32.4905 83.9153 33.3913 84.9965 33.3913L102.879 33.3913C103.957 33.3913 104.678 32.5111 104.458 31.43M108.812 53.1463C108.812 49.3979 104.877 43.1479 63.1749 43.1479 21.4763 43.1479 17.5398 49.3979 17.5398 53.1463L17.5398 103.385C17.5398 105.585 19.3379 107.384 21.5176 107.384L104.857 107.384C107.034 107.384 108.812 105.585 108.812 103.385" fill="#363736" fill-rule="evenodd" transform="matrix(1 0 0 -1 3984 1188)"/><path d="M2.65525 15.9161 20.7072 15.9161 20.7072 83.2774 0.308471 73.7606-0.573342 90.6001 40.3749 110.369 40.3749 15.9161 58.4268 15.9161 58.4268-0.631164 2.65525-0.631164" fill="#2E2A26" fill-rule="evenodd" transform="matrix(1 0 0 -1 4240 1170)"/><path d="M-0.65467 13.723C1.282 17.8252 3.58198 21.6322 6.24814 25.1467 8.91107 28.6643 11.7679 32.1052 14.8178 35.4749 17.8675 38.8417 21.0171 42.185 24.2606 45.5076 27.5094 48.8244 30.7296 52.3417 33.9259 56.0545 37.3155 59.9587 39.932 63.5471 41.7719 66.8196 43.6118 70.0889 44.5345 73.7778 44.5345 77.8771 44.5345 82.2719 43.2485 85.8367 40.6849 88.5715 38.1155 91.3035 34.5558 92.6709 29.9997 92.6709 25.0631 92.6709 20.6771 91.6461 16.8538 89.5963 13.0276 87.5435 8.93193 84.6169 4.57514 80.807L1.08884 98.6782C5.44815 101.8 10.1945 104.364 15.3247 106.366 20.4574 108.368 26.5631 109.369 33.6356 109.369 44.0981 109.369 52.1373 106.537 57.7566 100.872 63.3731 95.2109 66.1828 87.6411 66.1828 78.1697 66.1828 73.8724 65.503 69.8942 64.1494 66.2318 62.7929 62.5724 61.0264 59.1526 58.8466 55.9805 56.6667 52.8055 54.197 49.7784 51.434 46.8986 48.6744 44.0162 45.888 41.1603 43.0812 38.3308 39.4953 34.7159 36.1259 31.154 32.9824 27.6363 29.8328 24.1219 26.8033 20.4095 23.9001 16.5049L67.3458 16.5049 67.3458-0.630579-0.65467-0.630579" fill="#2E2A26" fill-rule="evenodd" transform="matrix(1 0 0 -1 4314 1170)"/><path d="M4.77122 25.5235C9.01589 22.404 13.0271 19.9918 16.7958 18.2921 20.5616 16.5866 24.9117 15.7353 29.8372 15.7353 35.6335 15.7353 40.2433 17.5822 43.6731 21.2876 47.0999 24.9875 48.8148 30.0006 48.8148 36.3336 48.8148 42.1773 47.1469 46.8754 43.8194 50.4307 40.4858 53.9831 35.4872 55.762 28.8235 55.762 27.5674 55.762 25.972 55.6383 24.0412 55.3967 22.1043 55.1526 20.0766 54.6427 17.9529 53.8594L12.4489 65.3997 38.8208 92.2836 5.20379 92.2836 6.22031 109.374 66.0575 109.374 66.0575 94.7666 40.559 69.6385C45.3879 69.0551 49.662 67.8151 53.3812 65.9154 57.0943 64.0153 60.2145 61.6531 62.7239 58.8283 65.2336 56.0007 67.1206 52.7665 68.3742 49.1172 69.6303 45.4646 70.2613 41.5412 70.2613 37.3556 70.2613 31.6088 69.3176 26.3983 67.4305 21.7266 65.5517 17.052 62.8702 13.0581 59.3906 9.74728 55.9171 6.43357 51.6897 3.87967 46.7144 2.07726 41.7362 0.277378 36.1593-0.626722 29.9774-0.626722 26.7901-0.626722 23.8952-0.453135 21.2861-0.117171 18.6774 0.230365 16.1677 0.763422 13.7545 1.49393 11.3387 2.22445 8.94882 3.14916 6.57971 4.26844 4.21024 5.38482 1.77656 6.77532-0.738531 8.43055" fill="#2E2A26" fill-rule="evenodd" transform="matrix(1 0 0 -1 4391 1172)"/><path d="M-0.838221 36.7276 38.6846 108.374 62.4013 108.374 62.4013 39.2082 76.1621 39.2082 76.1621 23.3022 62.4013 23.3022 62.4013-0.626744 43.2244-0.626744 43.2244 23.3022-0.838221 23.3022ZM43.2244 39.2082 43.2244 83.5679 18.7786 39.2082" fill="#2E2A26" fill-rule="evenodd" transform="matrix(1 0 0 -1 4471 1171)"/><path d="M4.56477 24.7907C8.02178 21.8686 11.6236 19.6271 15.3709 18.0716 19.1154 16.5104 22.9091 15.7328 26.7524 15.7328 32.3211 15.7328 36.8584 17.6329 40.3646 21.4299 43.8709 25.2294 45.6224 30.3431 45.6224 36.7703 45.6224 43.1976 43.8448 48.261 40.2919 51.9607 36.7393 55.6636 31.5047 57.5135 24.5911 57.5135 21.2271 57.5135 17.9623 57.0979 14.7932 56.273 11.6236 55.4427 8.21331 54.2496 4.56477 52.6941L11.3361 109.373 64.4956 109.373 63.6329 92.2832 27.9026 92.2832 25.8868 73.7287C26.5576 74.0202 28.8612 74.1678 32.8004 74.1678 37.9883 74.1678 42.6914 73.2897 46.9209 71.5371 51.1448 69.7846 54.7466 67.325 57.7242 64.1613 60.7016 60.9951 63.0052 57.2216 64.6408 52.8388 66.2732 48.4556 67.0895 43.5863 67.0895 38.2314 67.0895 32.5817 66.2008 27.3711 64.4229 22.5991 62.645 17.8271 60.0771 13.7358 56.7164 10.3276 53.3524 6.91691 49.2738 4.23925 44.4722 2.29503 39.6674 0.345014 34.2905-0.626738 28.3355-0.626738 24.8789-0.626738 21.8024-0.45604 19.1154-0.117174 16.4255 0.224223 13.9504 0.737041 11.6964 1.4173 9.43947 2.09793 7.30135 2.95214 5.2852 3.97416 3.26942 4.99619 1.2012 6.18637-0.910886 7.55305" fill="#2E2A26" fill-rule="evenodd" transform="matrix(1 0 0 -1 4554 1172)"/></g></svg>