<svg width="397" height="164" xmlns="http://www.w3.org/2000/svg" xmlns:xlink="http://www.w3.org/1999/xlink" xml:space="preserve" overflow="hidden"><g transform="translate(-2346 -940)"><path d="M16.8871-1.62923C7.38182-1.62923-0.352169 6.08719-0.352169 15.5665L-0.352169 138.176C-0.352169 147.658 7.38182 155.371 16.8871 155.371L225.409 155.371C234.914 155.371 242.648 147.658 242.648 138.176L242.648 15.5665C242.648 6.08719 234.914-1.62923 225.409-1.62923" fill="#034750" fill-rule="evenodd" transform="matrix(1 0 0 -1 2350 1099)"/><path d="M252.444-1.63279 375.479-1.63279C386.572-1.63279 395.567 7.34988 395.567 18.4289L395.567 141.306C395.567 152.385 386.572 161.367 375.479 161.367L252.444 161.367 240.364 161.367 19.6541 161.367C8.55723 161.367-0.433754 152.385-0.433754 141.306L-0.433754 18.4289C-0.433754 7.34988 8.55723-1.63279 19.6541-1.63279L240.364-1.63279ZM231.158 4.03016 19.6541 4.03016C11.7016 4.03016 5.2336 10.4902 5.2336 18.4289L5.2336 141.306C5.2336 149.247 11.7016 155.707 19.6541 155.707L231.158 155.707C239.11 155.707 245.578 149.247 245.578 141.306L245.578 18.4289C245.578 10.4902 239.11 4.03016 231.158 4.03016" fill="#8DC63F" fill-rule="evenodd" transform="matrix(1 0 0 -1 2347 1102)"/><path d="M-0.540854 38.3739 12.6922 38.3739C17.2189 38.3739 20.5539 37.911 22.6915 36.9824 26.1244 35.5031 27.8409 32.9194 27.8409 29.2315 27.8409 26.847 27.1086 24.7934 25.656 23.08 24.7577 21.9931 23.6312 21.126 22.2736 20.4758 21.5355 20.1211 20.4472 19.7845 19.0096 19.468 21.565 19.0756 23.5304 18.4926 24.9058 17.7251 27.9417 16.0085 29.4594 13.3751 29.4594 9.82464 29.4594 7.02402 28.4898 4.63664 26.5542 2.66539 24.7992 0.890141 22.4542-0.313617 19.5166-0.943369 17.3645-1.39761 14.456-1.62599 10.804-1.62599L0.686076-1.62599 0.686076 26.9848C0.66533 28.3263 1.47479 29.7735 3.11118 31.3319 4.35049 32.4774 5.72591 33.265 7.24074 33.6988L7.24074 33.8775-0.182347 33.8775ZM8.71116 21.2138 10.8662 21.2138C13.0806 21.2138 14.7053 21.372 15.7426 21.6885 18.5412 22.5556 19.9373 24.6556 19.9373 27.9896 19.9373 30.3184 19.1785 31.953 17.6636 32.9021 16.6438 33.5524 14.5568 33.8775 11.4056 33.8775L8.71116 33.8775ZM8.71116 2.93189 11.4056 2.93189C13.8988 2.93189 15.6866 3.11927 16.7654 3.49439 18.1204 3.94539 19.1697 4.78626 19.9078 6.00764 20.6252 7.19126 20.987 8.61189 20.987 10.267 20.987 13.009 20.0472 14.904 18.1706 15.9499 16.9346 16.6383 14.4979 16.9839 10.8662 16.9839L8.71116 16.9839" fill="#034750" fill-rule="evenodd" transform="matrix(1 0 0 -1 2624 1041)"/><path d="M18.4063 3.89799C16.3211 0.232472 13.1075-1.60029 8.76556-1.60029 2.53875-1.60029-0.574654 1.88857-0.574654 8.86877L-0.574654 28.4 7.03943 28.4 7.03943 10.4179C7.03943 8.62563 7.14864 7.32002 7.36635 6.50068 7.96162 4.25665 9.42231 3.13624 11.7405 3.13624 13.7819 3.13624 15.2987 3.99646 16.2914 5.71014 17.3018 7.42702 17.8085 10.2817 17.8085 14.2771L17.8085 28.4 25.4258 28.4 25.4258-1.18902 23.2223-1.18902C21.6553-1.18902 20.4272-0.586867 19.5346 0.62348 18.8602 1.5587 18.483 2.64997 18.4063 3.89799" fill="#034750" fill-rule="evenodd" transform="matrix(1 0 0 -1 2659 1041)"/><path d="M19.0543 28.1207 17.7349 23.4637C15.8104 24.5636 13.649 25.1153 11.2565 25.1153 8.28667 25.1153 6.80304 24.1319 6.80304 22.1679 6.80304 21.4418 7.02811 20.8317 7.47786 20.3416 7.99181 19.7698 8.95216 19.1217 10.366 18.3952L13.5273 16.7759C16.0053 15.4776 17.7651 14.103 18.8079 12.6499 19.8537 11.194 20.3737 9.46646 20.3737 7.46168 20.3737 4.77156 19.413 2.61811 17.4885 1.00741 15.4215-0.740508 12.5759-1.61285 8.95216-1.61285 6.82432-1.61285 4.61436-1.30081 2.32193-0.670648 1.25819-0.375807 0.273212-0.0139718-0.62667 0.420947L0.938698 5.42824C3.49875 3.75878 6.05507 2.92441 8.61475 2.92441 9.67886 2.92441 10.6 3.08204 11.3782 3.39731 12.6457 3.90782 13.2814 4.77156 13.2814 5.98819 13.2814 7.05041 12.7279 8.03094 11.6246 8.93553 11.0498 9.40806 9.86436 10.1346 8.06161 11.118L5.48364 12.5012C3.27369 13.6799 1.71728 14.9785 0.817395 16.3908-0.0216479 17.7066-0.44117 19.2005-0.44117 20.8725-0.44117 24.0531 0.868902 26.3727 3.48643 27.8262 5.37129 28.8676 7.68464 29.3871 10.4268 29.3871 13.7617 29.3871 16.6375 28.964 19.0543 28.1207" fill="#034750" fill-rule="evenodd" transform="matrix(1 0 0 -1 2691 1041)"/><path d="M79.5388-1.63347C78.5913-1.63347 77.6176-1.59221 76.62-1.50356 60.1741-0.0626029 53.5944 11.4676 46.0232 17.6573 37.8838 24.3095 26.7504 31.2917-0.352197 33.4195-0.352197 33.4195 13.4126 55.1242 16.3228 59.8603 20.166 66.1206 24.1071 74.9303 39.0041 74.9303 40.3769 74.9303 41.8437 74.8568 43.4073 74.6976L25.2919 45.9961C25.2919 45.9961 46.0117 42.5917 58.2089 31.274 65.8147 24.2121 66.6563 23.496 69.5837 20.4954 76.019 14.1794 81.7942 11.9984 86.7073 11.9984 97.7241 11.9984 104.394 22.9771 104.394 22.9771 104.394 22.9771 99.789 20.9376 94.2806 20.9376 90.4148 20.9376 86.1088 21.9425 82.6391 25.3614 74.0772 33.7998 71.8157 36.0282 71.8157 36.0282 71.8157 36.0282 62.104 46.789 40.6978 53.2523L49.597 67.2938C52.5943 72.3339 61.9927 85.3669 78.7555 85.3669 79.7059 85.3669 80.6796 85.3256 81.6739 85.2402 98.1202 83.7989 104.702 72.2658 112.27 66.0794 120.409 59.4243 131.543 52.445 158.648 50.3168 158.648 50.3168 144.88 28.6095 141.97 23.8731 138.128 17.6128 134.189 8.80313 119.288 8.80313 117.919 8.80313 116.452 8.87984 114.886 9.03617L133.001 37.7376C133.001 37.7376 112.284 41.1417 100.088 52.4623 92.4826 59.5216 91.6377 60.2378 88.7136 63.2413 82.2782 69.5544 76.4997 71.7353 71.5899 71.7353 60.5731 71.7353 53.9001 60.7563 53.9001 60.7563 53.9001 60.7563 58.5082 62.7962 64.0166 62.7962 67.8796 62.7962 72.1884 61.7909 75.6581 58.372 84.22 49.9336 86.4783 47.7085 86.4783 47.7085 86.4783 47.7085 96.19 36.9477 117.596 30.484L108.697 16.44C105.699 11.3999 96.3045-1.63347 79.5388-1.63347" fill="#8DC63F" fill-rule="evenodd" transform="matrix(1 0 0 -1 2393 1066)"/></g></svg>