<svg width="164" height="164" xmlns="http://www.w3.org/2000/svg" xmlns:xlink="http://www.w3.org/1999/xlink" xml:space="preserve" overflow="hidden"><g transform="translate(-3137 -938)"><path d="M148.236-1.63459 12.4013-1.63459C4.93301-1.63459-1.17974 4.47816-1.17974 11.9493L-1.17974 147.781C-1.17974 155.253 4.93301 161.365 12.4013 161.365L148.236 161.365C155.707 161.365 161.82 155.253 161.82 147.781L161.82 11.9493C161.82 4.47816 155.707-1.63459 148.236-1.63459" fill="#8DC63F" fill-rule="evenodd" transform="matrix(1 0 0 -1 3139 1100)"/><path d="M93.7642 71.8695 88.9221 71.8695C88.8928 72.385 88.8751 72.8918 88.8458 73.3838L87.9505 90.2516C87.7795 93.6103 84.8816 96.362 81.5065 96.362L14.1449 96.362C10.7665 96.362 7.86868 93.6103 7.68318 90.2516L6.80559 73.3838C6.77305 72.8918 6.75822 72.385 6.72893 71.8695L1.88681 71.8695C0.205386 71.8695-1.18169 70.4848-1.18169 68.8024L-1.18169 59.5745C-1.18169 58.7291-1.01102 57.3736-0.795872 56.5576L-0.00976308 53.4401C0.190561 52.624 1.03886 51.9613 1.88681 51.9613L6.4816 51.9613 6.4816 51.9671 6.4816 13.6827C6.4816 10.3124 9.24093 7.55741 12.6016 7.55741L14.1594 7.55741 14.1449 7.54258 14.1449-0.108883C14.1449-0.951368 14.8222-1.63794 15.6705-1.63794L24.8593-1.63794C25.6928-1.63794 26.3878-0.951368 26.3878-0.108883L26.3878 7.54258 26.3552 7.55741 69.2633 7.55741 69.234 7.54258 69.234-0.108883C69.234-0.951368 69.9261-1.63794 70.7595-1.63794L79.9809-1.63794C80.826-1.63794 81.5065-0.951368 81.5065-0.108883L81.5065 7.54258 81.4917 7.55741 83.0321 7.55741C86.4101 7.55741 89.1665 10.3124 89.1665 13.6827L89.1665 51.9613 93.7642 51.9613C94.5945 51.9613 95.4605 52.624 95.6608 53.4401L96.4473 56.5576C96.6472 57.3736 96.8183 58.7291 96.8183 59.5745L96.8183 68.8024C96.8183 70.4848 95.4428 71.8695 93.7642 71.8695M20.2649 90.2396C20.2649 91.0763 20.9599 91.7687 21.7934 91.7687L73.8606 91.7687C74.6912 91.7687 75.3861 91.0763 75.3861 90.2396L75.3861 87.1725C75.3861 86.3358 74.6912 85.6434 73.8606 85.6434L21.7934 85.6434C20.9599 85.6434 20.2649 86.3358 20.2649 87.1725ZM32.5078 18.2789C32.5078 17.4364 31.8305 16.7441 30.9822 16.7441L18.7245 16.7441C17.891 16.7441 17.0604 17.4245 16.8898 18.2467L15.9767 22.8987C15.8086 23.7267 16.3654 24.4013 17.196 24.4013L30.9822 24.4013C31.8305 24.4013 32.5078 23.7122 32.5078 22.8694ZM79.6714 22.8987 78.7468 18.2467C78.5758 17.4245 77.76 16.7441 76.9265 16.7441L64.6544 16.7441C63.8205 16.7441 63.1288 17.4364 63.1288 18.2789L63.1288 22.8694C63.1288 23.7122 63.8205 24.4013 64.6544 24.4013L78.4521 24.4013C79.2856 24.4013 79.8396 23.7267 79.6714 22.8987M83.0321 39.5248C83.0321 36.6552 79.9954 31.8705 47.8167 31.8705 15.6408 31.8705 12.6016 36.6552 12.6016 39.5248L12.6016 77.989C12.6016 79.6744 13.9916 81.0501 15.6705 81.0501L79.9809 81.0501C81.6624 81.0501 83.0321 79.6744 83.0321 77.989" fill="#2E2A26" fill-rule="evenodd" transform="matrix(1 0 0 -1 3172 1068)"/></g></svg>