<svg width="191" height="192" xmlns="http://www.w3.org/2000/svg" xmlns:xlink="http://www.w3.org/1999/xlink" xml:space="preserve" overflow="hidden"><g transform="translate(-3603 -657)"><path d="M170.512-3.66774 12.1826-3.66774C3.43755-3.66774-3.65245 3.46035-3.65245 12.2515L-3.65245 171.414C-3.65245 180.205 3.43755 187.332 12.1826 187.332L170.512 187.332C179.258 187.332 186.348 180.205 186.348 171.414L186.348 12.2515C186.348 3.46035 179.258-3.66774 170.512-3.66774" fill="#8DC63F" fill-rule="evenodd" transform="matrix(1 0 0 -1 3607 845)"/><path d="M-3.66558 57.4233 166.335 57.4233 166.335 5.49425C166.335 0.487248 162.26-3.57654 157.239-3.57654L5.43093-3.57654C0.409378-3.57654-3.66558 0.487248-3.66558 5.49425" fill="#FFFFFF" fill-rule="evenodd" transform="matrix(1 0 0 -1 3617 835)"/><path d="M13.8645 87.2795-2.17005 87.2795C-2.98729 87.2795-3.65327 86.5999-3.65327 85.7658L-3.65327-3.72056-0.843479-3.72056-0.843479 21.4893 12.5441 21.4893 12.5441-3.72056 12.9964-3.72056 15.3478-3.72056 15.3478 85.7658C15.3478 86.5999 14.6879 87.2795 13.8645 87.2795M-0.843479 79.4218 12.5441 79.4218 12.5441 51.4656-0.843479 51.4656" fill="#2E2A26" fill-rule="evenodd" transform="matrix(1 0 0 -1 3735 763)"/><path d="M70.9599 54.069 67.1514 54.069C67.1264 54.4765 67.1193 54.8715 67.0943 55.2602L66.3875 68.5114C66.26 71.148 63.9801 73.3145 61.331 73.3145L8.4037 73.3145C5.74138 73.3145 3.46766 71.148 3.3277 68.5114L2.63339 55.2602C2.60133 54.8715 2.60133 54.4765 2.57631 54.069L-1.23225 54.069C-2.55051 54.069-3.63967 52.9795-3.63967 51.6608L-3.63967 44.4111C-3.63967 43.7423-3.50597 42.6786-3.34647 42.0349L-2.72252 39.5884C-2.56302 38.9454-1.90076 38.4292-1.23225 38.4292L2.37224 38.4292 2.37224 38.4363 2.37224 8.35411C2.37224 5.7042 4.55057 3.53843 7.18708 3.53843L8.41621 3.53843 8.4037 3.52514 8.4037-2.48253C8.4037-3.14423 8.92521-3.68626 9.59372-3.68626L16.816-3.68626C17.4657-3.68626 18.0193-3.14423 18.0193-2.48253L18.0193 3.52514 17.9873 3.53843 51.7084 3.53843 51.6826 3.52514 51.6826-2.48253C51.6826-3.14423 52.2307-3.68626 52.8859-3.68626L60.1207-3.68626C60.7962-3.68626 61.331-3.14423 61.331-2.48253L61.331 3.52514 61.3177 3.53843 62.5218 3.53843C65.1834 3.53843 67.3422 5.7042 67.3422 8.35411L67.3422 38.4292 70.9599 38.4292C71.6097 38.4292 72.2907 38.9454 72.4502 39.5884L73.0609 42.0349C73.2204 42.6786 73.3603 43.7423 73.3603 44.4111L73.3603 51.6608C73.3603 52.9795 72.2782 54.069 70.9599 54.069M13.2115 68.5043C13.2115 69.1605 13.7463 69.7018 14.4086 69.7018L55.3129 69.7018C55.9751 69.7018 56.5162 69.1605 56.5162 68.5043L56.5162 66.0898C56.5162 65.4336 55.9751 64.8924 55.3129 64.8924L14.4086 64.8924C13.7463 64.8924 13.2115 65.4336 13.2115 66.0898ZM22.8209 11.9661C22.8209 11.3036 22.2994 10.7561 21.6308 10.7561L11.9949 10.7561C11.3451 10.7561 10.6891 11.2911 10.5492 11.941L9.83611 15.5913C9.70866 16.2405 10.1418 16.7763 10.7916 16.7763L21.6308 16.7763C22.2994 16.7763 22.8209 16.2342 22.8209 15.5718ZM59.8853 15.5913 59.159 11.941C59.019 11.2911 58.3825 10.7561 57.7328 10.7561L48.0906 10.7561C47.4283 10.7561 46.8873 11.3036 46.8873 11.9661L46.8873 15.5718C46.8873 16.2342 47.4283 16.7763 48.0906 16.7763L58.9299 16.7763C59.5859 16.7763 60.019 16.2405 59.8853 15.5913M62.5218 28.6571C62.5218 26.4021 60.134 22.6431 34.8509 22.6431 9.57496 22.6431 7.18708 26.4021 7.18708 28.6571L7.18708 58.8784C7.18708 60.2042 8.27625 61.2804 9.59372 61.2804L60.1207 61.2804C61.4514 61.2804 62.5218 60.2042 62.5218 58.8784" fill="#2E2A26" fill-rule="evenodd" transform="matrix(1 0 0 -1 3650 763)"/></g></svg>