<svg width="164" height="164" xmlns="http://www.w3.org/2000/svg" xmlns:xlink="http://www.w3.org/1999/xlink" xml:space="preserve" overflow="hidden"><g transform="translate(-3149 -1544)"><path d="M150.769 162.185 9.84473 162.185C3.74642 162.185-1.19309 157.243-1.19309 151.147L-1.19309 10.2231C-1.19309 4.12474 3.74642-0.814769 9.84473-0.814769L150.769-0.814769C156.864-0.814769 161.807 4.12474 161.807 10.2231L161.807 151.147C161.807 157.243 156.864 162.185 150.769 162.185" fill="#2E2A26" fill-rule="evenodd" transform="matrix(1 0 0 -1 3151 1707)"/><path d="M81.3446 65.1686C82.0397 68.6729 79.7187 70.0731 77.1619 70.7744 74.6055 71.4729 56.7112 75.4453 55.5478 75.4453 54.3844 75.4453 50.6671 74.5099 50.6671 74.5099L50.6671 85.932C53.4684 87.0273 55.4654 89.7354 55.533 92.9203L92.8086 104.18 77.5243 104.18 54.5229 96.9014C53.2062 99.2072 50.7319 100.758 47.8984 100.758 43.7482 100.758 40.3694 97.4283 40.2664 93.2786L-1.1916 82.0545-1.1916 76.9076 41.1886 89.4247C42.1162 87.7109 43.6745 86.391 45.5535 85.7812L45.5535 74.0451C45.5535 74.0451 27.5388 69.839 23.8248 68.9069 21.966 68.4392 20.4522 66.8024 20.9176 63.7684 21.3827 60.7318 23.474 60.4977 23.474 60.4977 23.474 60.4977 17.0824 48.1165 16.502 36.4429 16.2694 31.7721 16.0365 26.8676 16.7349 24.5323 17.4299 22.1938 22.081 7.48322 24.6378 5.61569 27.1942 3.74779 46.0692-1.7338 56.9412-0.689014 61.8248-0.22422 77.8602 3.97855 80.4138 7.95092 82.9706 11.92 87.1533 21.9631 87.3887 28.972 87.6216 35.9752 86.9233 48.5871 79.0236 61.4302 78.8497 61.7144 80.6467 61.6668 81.3446 65.1686M45.427 89.2027 45.427 88.3472C44.623 88.7499 43.9367 89.3538 43.4329 90.0937L44.3815 90.3721 43.6831 94.2256 42.5935 93.9298C43.0087 96.4159 45.159 98.3103 47.7541 98.3103 49.5153 98.3103 51.0765 97.4341 52.0251 96.0906L50.5406 95.6258 51.8189 91.7719 52.897 92.0946C52.6258 90.6294 51.751 89.3774 50.5406 88.6107L50.5406 89.2027ZM34.5962 11.2274C34.5962 11.2274 32.0398 18.349 31.3444 26.8734 31.3386 26.9206 20.885 26.8734 20.885 26.8734L20.885 29.3271 30.9968 29.3271 30.9968 33.9979 21.1176 33.9979C21.1176 33.9979 23.1945 54.2999 29.8334 60.9712 30.4139 61.5574 37.8513 62.608 37.8513 62.608 37.8513 62.608 33.6686 53.3823 33.6686 31.4287 33.6686 18.6982 34.5962 11.2274 34.5962 11.2274M54.5848 3.75069C51.5654 10.8781 52.028 26.2905 52.028 26.2905L38.6672 26.2905 38.6672 29.0934 51.7951 29.0934 51.7951 34.2287 38.5493 34.2287C38.5493 52.6805 43.545 63.7745 43.545 63.7745L52.7259 65.5265C52.7259 65.5265 53.7718 52.5653 54.1222 42.99 54.4698 33.415 54.6524 3.60279 54.5848 3.75069M57.7245 65.4084C57.7245 65.4084 71.2032 62.9576 72.8291 61.9066 74.4579 60.856 75.966 57.5854 75.966 57.5854L57.8395 60.7405ZM82.5934 35.7473C82.5934 35.6318 59.3504 34.2287 59.3504 34.2287 59.3504 34.2287 58.6525 53.2638 58.3049 55.8331 58.3049 55.8331 73.2945 52.5653 78.7557 52.6805 78.8703 52.6838 82.5934 40.5421 82.5934 35.7473" fill="#FFFFFF" fill-rule="evenodd" transform="matrix(1 0 0 -1 3182 1678)"/></g></svg>