<svg width="164" height="164" xmlns="http://www.w3.org/2000/svg" xmlns:xlink="http://www.w3.org/1999/xlink" xml:space="preserve" overflow="hidden"><g transform="translate(-2611 -1843)"><path d="M151.365 162.589 10.44 162.589C4.34206 162.589-0.59781 157.647-0.59781 151.552L-0.59781 10.6267C-0.59781 4.5316 4.34206-0.411176 10.44-0.411176L151.365-0.411176C157.46-0.411176 162.402 4.5316 162.402 10.6267L162.402 151.552C162.402 157.647 157.46 162.589 151.365 162.589" fill="#2E2A26" fill-rule="evenodd" transform="matrix(1 0 0 -1 2612 2006)"/><path d="M69.7543 8.27362C68.0263 8.27362 66.0731 8.25789 62.8411 9.54876 55.9365 12.3055 51.6724 12.2648 46.0414 9.70839 42.3921 8.0549 37.8685 7.87684 33.2985 9.52689 27.3819 11.6616 23.7852 12.6773 17.2857 9.87071 13.7767 8.3519 9.19482 7.96433 5.37662 8.90486 2.90498 9.50808 1.6196 10.2272-0.592591 10.7867L-0.592591 2.3634C0.389693 2.10093 1.29039 1.77284 2.21721 1.41328 7.62674-0.705681 12.0017-0.968153 17.1751 1.5165 21.6925 3.69187 27.6646 3.64161 32.3746 1.41942 42.669-3.43094 46.5366 3.06371 54.7355 3.09479 57.4083 3.10093 59.973 2.44782 62.1708 1.48197 69.4659-1.72142 73.0422 0.416348 79.4075 2.30085L79.4075 10.7395C76.2162 9.73333 73.8613 8.27362 69.7543 8.27362" fill="#FFFFFF" fill-rule="evenodd" transform="matrix(1 0 0 -1 2654 1971)"/><path d="M9.91777 22.7119 16.0422 1.32146C19.5405 3.36642 22.2961 4.01372 25.0048 3.75647 27.6401 3.51119 30.0992 2.41506 33.1456 0.931407 35.0999-0.0232217 37.0369-0.454637 38.8622-0.419079 40.7196-0.386786 42.4689 0.13933 44.0329 1.09396 47.0411 2.94081 49.7114 3.87476 52.5992 3.85117 55.0554 3.83049 57.5851 3.11824 60.5403 1.68502L67.7274 22.7119 76.7836 34.3558C77.4733 35.7683 77.5907 37.314 77.1212 38.8535 76.6604 40.3963 75.742 41.4986 74.4535 42.069L70.3479 43.8951 70.3479 57.8797 61.5442 57.8797 61.5442 67.7917 47.6864 67.7917 47.6864 80.5792 29.1192 80.5792 29.1192 67.7917 15.2586 67.7917 15.2586 57.8797 6.46064 57.8797 6.46064 43.8538 2.30812 41.9536C1.04344 41.3745 0.145203 40.2838-0.312385 38.765-0.776098 37.2487-0.670529 35.7298-0.00720611 34.3173ZM11.1619 53.1454 19.9602 53.1454 19.9602 63.0545 56.8429 63.0545 56.8429 53.1454 65.6437 53.1454 65.6437 45.9818 41.5328 56.6917C39.091 57.7734 36.9223 57.8118 34.4805 56.6917L11.1619 46.0112" fill="#FFFFFF" fill-rule="evenodd" transform="matrix(1 0 0 -1 2655 1959)"/></g></svg>