<svg width="166" height="166" xmlns="http://www.w3.org/2000/svg" xmlns:xlink="http://www.w3.org/1999/xlink" xml:space="preserve" overflow="hidden"><g transform="translate(-2610 -1241)"><path d="M150.595-1.2226 13.211-1.2226C5.58443-1.2226-0.597057 4.96213-0.597057 12.5854L-0.597057 149.97C-0.597057 157.596 5.58443 163.778 13.211 163.778L150.595 163.778C158.219 163.778 164.403 157.596 164.403 149.97L164.403 12.5854C164.403 4.96213 158.219-1.2226 150.595-1.2226" fill="#2E2A26" fill-rule="evenodd" transform="matrix(1 0 0 -1 2611 1405)"/><path d="M85.6259 65.2106 80.927 65.2106 80.429 115.13C80.0126 118.126 75.4372 124.781 43.9043 124.781 12.2219 124.781 7.7491 118.085 7.37375 115.083L6.87857 65.2106 6.58528 65.2106 2.18586 65.2106C0.661803 65.2106-0.595946 63.9513-0.595946 62.4283L-0.595946 54.0601C-0.595946 53.2869-0.440482 52.0624-0.255868 51.3184L0.462434 48.495C0.649927 47.7539 1.42365 47.1504 2.18586 47.1504L6.35676 47.1504 6.36252 47.1562 6.69972 47.1562 6.35964 12.6789C6.35964 9.61824 8.86578 7.12252 11.92 7.12252L13.33 7.12252 13.3123 7.10777 13.3123 0.166142C13.3123-0.598398 13.9396-1.21945 14.6986-1.21945L23.0407-1.21945C23.8087-1.21945 24.4331-0.598398 24.4331 0.166142L24.4331 7.10777 24.4126 7.12252 63.3697 7.12252 63.3524 7.10777 63.3524 0.166142C63.3524-0.598398 63.9735-1.21945 64.7357-1.21945L73.1042-1.21945C73.8718-1.21945 74.499-0.598398 74.499 0.166142L74.499 7.10777 74.4818 7.12252 75.8856 7.12252C78.9456 7.12252 81.4517 9.61824 81.4517 12.6789L81.1059 47.1504 81.4546 47.1504 85.6259 47.1504C86.3877 47.1504 87.1704 47.7539 87.3551 48.495L88.0673 51.3184C88.2519 52.0624 88.4044 53.2869 88.4044 54.0601L88.4044 62.4283C88.4044 63.9513 87.1557 65.2106 85.6259 65.2106M12.2396 114.597C12.905 116.589 19.8634 119.91 43.9043 119.91 67.7637 119.91 74.81 116.633 75.5632 114.582L75.8827 85.6115 11.92 85.6115ZM68.7602 80.0494 68.7602 77.2724C68.7602 76.514 68.1387 75.8872 67.3707 75.8872L20.0891 75.8872C19.3269 75.8872 18.6996 76.514 18.6996 77.2724L18.6996 80.0494C18.6996 80.8136 19.3269 81.4404 20.0891 81.4404L67.3707 81.4404C68.1387 81.4404 68.7602 80.8136 68.7602 80.0494M11.7674 71.7132 76.0382 71.7132 76.4571 33.5099C73.9599 31.1318 66.3213 28.7094 43.9043 28.7094 21.4843 28.7094 13.8457 31.1347 11.3485 33.5099ZM72.8372 20.9533 71.9933 16.7354C71.8378 15.9888 71.0932 15.3706 70.331 15.3706L59.1988 15.3706C58.4337 15.3706 57.8064 16.0003 57.8064 16.762L57.8064 20.9299C57.8064 21.6887 58.4337 22.3184 59.1988 22.3184L71.7176 22.3184C72.4856 22.3184 72.9869 21.7002 72.8372 20.9533M29.9963 20.9299 29.9963 16.762C29.9963 16.0003 29.3748 15.3706 28.6069 15.3706L17.4861 15.3706C16.721 15.3706 15.9736 15.9888 15.8185 16.7354L14.98 20.9533C14.8278 21.7002 15.3319 22.3184 16.0938 22.3184L28.6126 22.3184C29.3748 22.3184 29.9963 21.6887 29.9963 20.9299" fill="#FFFFFF" fill-rule="evenodd" transform="matrix(1 0 0 -1 2649 1386)"/></g></svg>