<svg width="164" height="164" xmlns="http://www.w3.org/2000/svg" xmlns:xlink="http://www.w3.org/1999/xlink" xml:space="preserve" overflow="hidden"><g transform="translate(-2881 -1843)"><path d="M148.444 162.589 12.7623 162.589C5.22037 162.589-0.895271 156.473-0.895271 148.929L-0.895271 13.2493C-0.895271 5.70448 5.22037-0.411176 12.7623-0.411176L148.444-0.411176C155.989-0.411176 162.105 5.70448 162.105 13.2493L162.105 148.929C162.105 156.473 155.989 162.589 148.444 162.589" fill="#2E2A26" fill-rule="evenodd" transform="matrix(1 0 0 -1 2882 2006)"/><path d="M70.3252 8.27203C68.5752 8.27203 66.5982 8.2563 63.3254 9.54693 56.3348 12.3031 52.0176 12.2686 46.3163 9.70653 42.6219 8.05335 38.0449 7.87533 33.415 9.52506 27.4276 11.6593 23.7831 12.6749 17.2022 9.86882 13.6495 8.3503 9.01052 7.96281 5.14509 8.90315 2.64265 9.50626 1.34125 10.2252-0.898516 10.7846L-0.898516 2.36295C0.0960108 2.10052 1.01083 1.7725 1.9492 1.41301 7.4229-0.705546 11.8524-0.967967 17.0932 1.51621 21.6673 3.69117 27.7105 3.64091 32.4795 1.41915 42.902-3.43028 46.8181 3.06312 55.1189 3.0942 57.8249 3.10033 60.4248 2.44735 62.6469 1.48168 70.0328-1.72109 73.6537 0.416268 80.1016 2.30041L80.1016 10.7374C76.8673 9.73147 74.483 8.27203 70.3252 8.27203" fill="#FFFFFF" fill-rule="evenodd" transform="matrix(1 0 0 -1 2923 1971)"/><path d="M42.3757 23.6274C41.6908 26.5058 39.1706 28.5356 36.2759 28.5356L23.6373 28.5356 23.5643 28.5356 10.9314 28.5356C8.03673 28.5356 5.51078 26.5058 4.82584 23.6274L-0.890494-0.464949 18.4625 8.55425C20.2039 9.36708 21.8872 9.75951 23.6049 9.75951 25.3201 9.75951 27.0034 9.36708 28.7448 8.55425L48.1097-0.464949ZM7.67377 14.8898 9.47956 22.47C9.64666 23.1595 10.2464 23.6391 10.9314 23.6391L36.2759 23.6391C36.9695 23.6391 37.5725 23.1595 37.7278 22.47L39.5307 14.8898" fill="#FFFFFF" fill-rule="evenodd" transform="matrix(1 0 0 -1 2938 1906)"/><path d="M-1.05618-0.47745 2.94402-0.47745 2.94402 22.5229-1.05618 22.5229Z" fill="#FFFFFF" fill-rule="evenodd" transform="matrix(1 0 0 -1 2961 1892)"/><path d="M78.8165 39.5955C78.3468 41.163 77.3954 42.2814 76.0798 42.8599L42.3144 57.7527C39.8095 58.8592 37.5808 58.8945 35.0849 57.7527L2.09173 42.7511C0.790977 42.161-0.136997 41.0545-0.606752 39.4985-1.07651 37.9573-0.967992 36.4161-0.295625 34.9686L9.88794 23.1496 16.166 1.38154C19.7571 3.45404 22.5908 4.11435 25.3596 3.85015 28.0728 3.60938 30.5893 2.48807 33.711 0.982182 35.7133 0.00756911 37.7012-0.427114 39.5806-0.403686 41.4834-0.36548 43.2806 0.17481 44.8838 1.14077 47.967 3.03125 50.7037 3.98243 53.6664 3.94711 56.1861 3.93558 58.7757 3.21038 61.8148 1.74234L69.1766 23.1496 78.4672 35.0187C79.1778 36.451 79.2982 38.0276 78.8165 39.5955M38.8819 25.5832C31.6643 25.5832 25.7944 31.4518 25.7944 38.6677 25.7944 45.8836 31.6643 51.7637 38.8819 51.7637 46.0995 51.7637 51.9691 45.8836 51.9691 38.6677 51.9691 31.4518 46.0995 25.5832 38.8819 25.5832" fill="#FFFFFF" fill-rule="evenodd" transform="matrix(1 0 0 -1 2923 1958)"/><path d="M7.11994 15.5892C2.70345 15.5892-0.880316 12.0085-0.880316 7.58349-0.880316 3.18158 2.70345-0.410916 7.11994-0.410916 11.5364-0.410916 15.1202 3.18158 15.1202 7.58349 15.1202 12.0085 11.5364 15.5892 7.11994 15.5892" fill="#FFFFFF" fill-rule="evenodd" transform="matrix(1 0 0 -1 2955 1927)"/></g></svg>