<svg width="397" height="164" xmlns="http://www.w3.org/2000/svg" xmlns:xlink="http://www.w3.org/1999/xlink" xml:space="preserve" overflow="hidden"><g transform="translate(-2346 -634)"><path d="M226.528 19.9553C235.632 34.481 240.646 53.8335 240.646 74.4511 240.646 95.045 235.641 114.383 226.555 128.903 217.699 143.054 206.039 150.885 193.723 150.953L46.6407 150.95C34.3157 150.914 22.6362 143.101 13.7642 128.947 4.66071 114.421-0.353539 95.0684-0.353539 74.4511-0.353539 53.857 4.64951 34.5193 13.7378 19.9997 22.5914 5.84747 34.2535-1.97986 46.5702-2.04775L193.653-2.04775C205.977-2.01525 217.654 5.80052 226.528 19.9553" fill="#034750" fill-rule="evenodd" transform="matrix(1 0 0 -1 2352 790)"/><path d="M346.385 160.953 200.054 160.951C199.833 160.951 199.615 160.942 199.395 160.936 199.156 160.942 198.918 160.953 198.676 160.953L51.6008 160.951C37.4673 160.912 24.2732 152.259 14.4475 136.59 4.85031 121.283-0.433708 100.989-0.433708 79.452-0.433708 57.9381 4.84235 37.6617 14.4208 22.3605 24.2241 6.69793 37.3972-1.97032 51.5217-2.04685L198.6-2.04685C198.938-2.04685 199.277-2.03494 199.615-2.02591 199.733-2.02591 199.851-2.03494 199.968-2.03494L346.3-2.03494C373.518-1.9584 395.567 34.4979 395.567 79.4578 395.567 124.37 373.562 160.8 346.385 160.953M198.591 2.98724 183.045 2.98724 51.535 2.98724C39.2221 3.05475 27.5643 10.8786 18.7102 25.0246 15.0569 30.858 12.0773 37.4822 9.80181 44.6451 6.42214 55.2945 4.62152 67.1439 4.62152 79.452 4.62152 100.06 9.63411 119.404 18.7366 133.923 27.6092 148.072 39.2842 155.884 51.6066 155.917L183.03 155.92 198.662 155.92C210.975 155.852 222.636 148.025 231.488 133.879 240.575 119.366 245.576 100.037 245.576 79.452 245.576 67.141 243.774 55.2916 240.395 44.6451 238.117 37.4649 235.126 30.8258 231.461 24.9802 222.591 10.8317 210.913 3.01937 198.591 2.98724" fill="#688071" fill-rule="evenodd" transform="matrix(1 0 0 -1 2347 795)"/><path d="M79.5379-2.05157C78.5905-2.05157 77.6169-2.00996 76.6198-1.92167 60.1723-0.480509 53.595 11.0513 46.0243 17.2372 37.8857 23.8916 26.7505 30.8731-0.352161 33.001-0.352161 33.001 13.4152 54.706 16.324 59.4449 20.1686 65.7013 24.1075 74.5132 39.0063 74.5132 40.3768 74.5132 41.843 74.4365 43.409 74.2806L25.2933 45.576C25.2933 45.576 46.0131 42.1751 58.2073 30.8553 65.8123 23.7942 66.6541 23.0782 69.5838 20.075 76.0184 13.7625 81.7931 11.5789 86.7057 11.5789 97.7213 11.5818 104.394 22.5597 104.394 22.5597 104.394 22.5597 99.7889 20.52 94.2782 20.52 90.4156 20.52 86.1076 21.5252 82.6378 24.9438 74.0769 33.3809 71.8159 35.609 71.8159 35.609 71.8159 35.609 62.1023 46.3687 40.6983 52.8346L49.5967 66.8743C52.5969 71.9139 61.9907 84.9488 78.7547 84.9488 79.705 84.9488 80.6786 84.9075 81.6728 84.8221 98.1203 83.3777 104.699 71.8462 112.271 65.6604 120.41 59.0056 131.543 52.027 158.648 49.8962 158.648 49.8962 144.878 28.1912 141.969 23.4523 138.127 17.1959 134.188 8.3872 119.29 8.3872 117.917 8.3872 116.451 8.46065 114.884 8.61985L133 37.3212C133 37.3212 112.283 40.7224 100.085 52.0448 92.4803 59.103 91.6388 59.819 88.7117 62.8222 82.277 69.135 76.4995 71.3187 71.5869 71.3187 60.5713 71.3187 53.9018 60.3379 53.9018 60.3379 53.9018 60.3379 58.5066 62.3771 64.0144 62.3771 67.8799 62.3771 72.1882 61.3723 75.6576 57.9534 84.2186 49.5163 86.477 47.2882 86.477 47.2882 86.477 47.2882 96.1906 36.5313 117.594 30.0655L108.696 16.0229C105.699 10.9833 96.3019-2.05157 79.5379-2.05157" fill="#688071" fill-rule="evenodd" transform="matrix(1 0 0 -1 2393 757)"/><path d="M-0.537654-2.07035-0.537654 31.9378C-0.558838 32.8956-0.0262983 34.0465 1.05376 35.388 3.01444 37.6895 5.22751 38.8704 7.68786 38.9299L7.68786 2.97079 22.4617 2.97079 22.4617-2.07035" fill="#034750" fill-rule="evenodd" transform="matrix(1 0 0 -1 2623 734)"/><path d="M8.77057-2.04036 0.659985-2.04036 0.659985 26.5682C0.639155 27.8902 1.45153 29.3381 3.09455 30.9181 4.31512 32.0616 5.69612 32.8502 7.23791 33.2839L7.23791 33.4627-0.212321 33.4627-0.57228 37.9595 11.4734 37.9595C14.319 37.9595 16.3995 37.8807 17.7239 37.7223 20.7062 37.3675 23.0487 36.4295 24.7513 34.9139 26.7754 33.1169 27.7844 30.7396 27.7844 27.7815 27.7844 24.7269 26.8854 22.1708 25.0816 20.1189 24.0193 18.8963 22.7691 17.9493 21.3286 17.2781 20.647 16.9646 19.596 16.5982 18.1733 16.1847L30.4277-2.04036 21.0874-2.04036 10.3036 15.2377C10.1815 15.4342 10.122 15.6718 10.122 15.9475 10.122 16.302 10.2232 16.5777 10.4227 16.7767 10.5239 16.8735 11.1043 17.0816 12.164 17.3983 17.1315 18.8963 19.6139 21.9919 19.6139 26.6881 19.6139 29.526 18.7449 31.4429 17.0006 32.4251 15.8784 33.0758 13.9558 33.4041 11.2351 33.4041L8.77057 33.4041" fill="#034750" fill-rule="evenodd" transform="matrix(1 0 0 -1 2649 734)"/><path d="M9.84727-2.04036 9.84727 26.1251C9.84727 26.8932 10.1807 27.811 10.85 28.8781 12.2852 30.9653 14.1062 32.2991 16.3077 32.8707L16.3077 33.0463-0.301828 33.0463-0.596837 37.9595 28.4034 37.9595 28.4034 33.0463 17.9299 33.0463 17.9299-2.04036" fill="#034750" fill-rule="evenodd" transform="matrix(1 0 0 -1 2682 734)"/></g></svg>