<svg width="252" height="164" xmlns="http://www.w3.org/2000/svg" xmlns:xlink="http://www.w3.org/1999/xlink" xml:space="preserve" overflow="hidden"><g transform="translate(-3118 -637)"><path d="M225.673 19.9589C234.777 34.4813 239.791 53.8371 239.791 74.4544 239.791 95.0486 234.786 114.386 225.7 128.906 216.843 143.058 205.184 150.888 192.868 150.956L45.785 150.953C33.4603 150.921 21.7802 143.105 12.9088 128.95 3.80216 114.425-1.20919 95.072-1.20919 74.4544-1.20919 53.8606 3.79349 34.5225 12.8825 20.003 21.7357 5.85108 33.3953-1.97949 45.7145-2.04414L192.797-2.04414C205.122-2.01164 216.799 5.80413 225.673 19.9589" fill="#034750" fill-rule="evenodd" transform="matrix(1 0 0 -1 3125 793)"/><path d="M230.624 24.9838C221.754 10.8349 210.082 3.02298 197.763 2.99049L50.7467 2.99049C38.4333 3.05511 26.782 10.8822 17.9266 25.0279 14.2746 30.8612 11.2991 37.4859 9.02416 44.6484 5.64575 55.2949 3.84164 67.1471 3.84164 79.4553 3.84164 100.064 8.8565 119.408 17.9533 133.927 26.8232 148.076 38.4951 155.885 50.8146 155.92L197.837 155.923C210.144 155.855 221.801 148.028 230.651 133.883 239.733 119.37 244.736 100.04 244.736 79.4553 244.736 67.1442 242.938 55.2949 239.553 44.6484 237.279 37.4682 234.289 30.8291 230.624 24.9838M234.939 136.546C225.139 152.209 211.969 160.881 197.849 160.957L50.8085 160.954C36.6824 160.916 23.4917 152.262 13.6654 136.591 4.07397 121.286-1.20864 100.993-1.20864 79.4553-1.20864 57.9413 4.06241 37.6653 13.6387 22.3641 23.439 6.70117 36.6086-1.96671 50.7322-2.04324L197.769-2.04324C211.895-2.00497 225.086 6.64522 234.909 22.3168 244.504 37.6238 249.792 57.9179 249.792 79.4553 249.792 100.969 244.515 121.246 234.939 136.546" fill="#FFFFFF" fill-rule="evenodd" transform="matrix(1 0 0 -1 3120 798)"/><path d="M1.01725 11.0497-1.24678-1.94464 24.7534-1.95033 22.4834 11.0497Z" fill="#FFFFFF" fill-rule="evenodd" transform="matrix(1 0 0 -1 3233 770)"/><path d="M74.7904 79.884 74.7904 83.1814C74.7904 83.1814 74.7904 90.6875 66.1222 93.1822 63.1946 94.0233 58.6708 95.3233 55.7754 96.1558 54.347 96.5674 51.9054 96.9528 48.6006 96.9528L24.9765 96.9528C21.6718 96.9528 19.2331 96.5674 17.8018 96.1558 14.9067 95.3233 10.3826 94.0233 7.45788 93.1822-1.20995 90.6875-1.20995 83.1814-1.20995 83.1814L-1.20995 10.3326C-1.20995 8.96793-0.0998049 7.85926 1.26709 7.85926L10.3562 7.85926 11.7347-0.421077C11.8847-1.31487 12.7504-2.0476 13.6577-2.0476L20.2698-2.0476C21.18-2.0476 22.0431-1.31487 22.1932-0.421077L23.5717 7.85926 50.0055 7.85926 51.3869-0.421077C51.5344-1.31487 52.4001-2.0476 53.3103-2.0476L59.9194-2.0476C60.8296-2.0476 61.6953-1.31487 61.8429-0.421077L63.2242 7.85926 72.3101 7.85926C73.6799 7.85926 74.7904 8.96793 74.7904 10.3326ZM12.0084 14.4625C10.1823 14.4625 8.70074 15.9388 8.70074 17.7625 8.70074 19.5833 10.1823 21.06 12.0084 21.06 13.8317 21.06 15.3099 19.5833 15.3099 17.7625 15.3128 15.9388 13.8317 14.4625 12.0084 14.4625M21.9195 14.4625C20.0962 14.4625 18.6147 15.9388 18.6147 17.7625 18.6147 19.5833 20.0962 21.06 21.9195 21.06 23.7452 21.06 25.2239 19.5833 25.2239 17.7625 25.2239 15.9388 23.7452 14.4625 21.9195 14.4625M51.6581 14.4625C49.8319 14.4625 48.3533 15.9388 48.3533 17.7625 48.3533 19.5833 49.8319 21.06 51.6581 21.06 53.4809 21.06 54.9625 19.5833 54.9625 17.7625 54.9625 15.9388 53.4809 14.4625 51.6581 14.4625M61.5717 14.4625C59.7455 14.4625 58.2672 15.9388 58.2672 17.7625 58.2672 19.5833 59.7455 21.06 61.5717 21.06 63.3949 21.06 64.8764 19.5833 64.8764 17.7625 64.8764 15.9388 63.3949 14.4625 61.5717 14.4625M63.2242 27.6603 10.3562 27.6603C8.53874 27.6603 7.32843 29.1193 7.664 30.9018L18.0021 85.4609C18.3377 87.2463 20.102 88.7053 21.9195 88.7053L51.6581 88.7053C53.4752 88.7053 55.2395 87.2463 55.5779 85.4609L65.9132 30.9018C66.252 29.1193 65.0413 27.6603 63.2242 27.6603" fill="#FFFFFF" fill-rule="evenodd" transform="matrix(1 0 0 -1 3208 763)"/></g></svg>