<svg width="252" height="164" xmlns="http://www.w3.org/2000/svg" xmlns:xlink="http://www.w3.org/1999/xlink" xml:space="preserve" overflow="hidden"><g transform="translate(-2805 -637)"><path d="M226.021 19.9589C235.125 34.4842 240.139 53.8367 240.139 74.4544 240.139 95.0482 235.134 114.386 226.048 128.909 217.194 143.058 205.532 150.888 193.216 150.956L46.1322 150.953C33.8073 150.92 22.1306 143.105 13.2564 128.95 4.15565 114.425-0.861423 95.072-0.861423 74.4544-0.861423 53.8602 4.14372 34.5225 13.2301 20.003 22.0894 5.85108 33.7455-1.97949 46.0643-2.04414L193.146-2.04414C205.47-2.012 217.147 5.80413 226.021 19.9589" fill="#034750" fill-rule="evenodd" transform="matrix(1 0 0 -1 2811 793)"/><path d="M235.289 136.547C225.486 152.21 212.32 160.88 198.197 160.957L51.1583 160.954C37.0324 160.916 23.8423 152.263 14.0186 136.591 4.42476 121.288-0.861033 100.994-0.861033 79.4568-0.861033 57.9432 4.41284 37.6675 13.989 22.3666 23.792 6.70394 36.9587-1.96667 51.0821-2.0432L198.12-2.0432C212.246-2.00494 225.436 6.64799 235.26 22.3193 244.854 37.6263 250.139 57.9169 250.139 79.4568 250.139 100.97 244.865 121.246 235.289 136.547M230.975 24.9863C222.105 10.8348 210.43 3.02582 198.111 2.99044L51.0965 2.99044C38.7833 3.05795 27.1292 10.8849 18.2768 25.0274 14.6249 30.8639 11.6465 37.4881 9.37453 44.6476 5.99327 55.2972 4.19207 67.1492 4.19207 79.4568 4.19207 100.065 9.20398 119.409 18.3064 133.927 27.1733 148.076 38.848 155.888 51.1673 155.92L198.182 155.923C210.492 155.856 222.149 148.029 231.001 133.883 240.083 119.37 245.083 100.041 245.083 79.4568 245.083 67.1459 243.285 55.2972 239.904 44.6476 237.626 37.4704 234.639 30.8314 230.975 24.9863" fill="#688071" fill-rule="evenodd" transform="matrix(1 0 0 -1 2806 798)"/><path d="M79.0278-2.03704C78.0803-2.03704 77.1064-1.99889 76.1089-1.91108 59.6629-0.486227 53.0821 10.9137 45.5125 17.0284 37.3737 23.6063 26.2392 30.5071-0.863409 32.6114-0.863409 32.6114 12.9033 54.0662 15.8131 58.7536 19.6555 64.9385 23.595 73.6449 38.4951 73.6449 39.8672 73.6449 41.3338 73.5714 42.898 73.4189L24.7812 45.0435C24.7812 45.0435 45.5009 41.6784 57.6973 30.4923 65.3024 23.5127 66.1462 22.8005 69.0738 19.8338 75.5071 13.5928 81.2822 11.4384 86.1959 11.4384 97.2123 11.4384 103.884 22.2934 103.884 22.2934 103.884 22.2934 99.2779 20.2736 93.7684 20.2736 89.9054 20.2736 85.5967 21.2673 82.1264 24.65 73.5651 32.9868 71.3049 35.1912 71.3049 35.1912 71.3049 35.1912 61.593 45.8292 40.186 52.2196L49.0864 66.0963C52.0846 71.0799 61.4806 83.9632 78.2455 83.9632 79.193 83.9632 80.1669 83.9251 81.1644 83.8369 97.6105 82.4124 104.191 71.0122 111.761 64.8975 119.9 58.3167 131.034 51.4191 158.137 49.3144 158.137 49.3144 144.37 27.8571 141.46 23.1726 137.618 16.9902 133.678 8.28134 118.779 8.28134 117.406 8.28134 115.94 8.3544 114.375 8.507L132.492 36.8827C132.492 36.8827 111.772 40.2478 99.576 51.4397 91.971 58.4135 91.1271 59.1228 88.2025 62.0924 81.7662 68.3302 75.9912 70.4936 71.0774 70.4936 60.0611 70.4936 53.3889 59.6328 53.3889 59.6328 53.3889 59.6328 57.9955 61.6526 63.5053 61.6526 67.368 61.6526 71.6767 60.6589 75.147 57.2762 83.7083 48.9362 85.9684 46.735 85.9684 46.735 85.9684 46.735 95.6804 36.1028 117.084 29.7095L108.187 15.8296C105.189 10.8464 95.7927-2.03704 79.0278-2.03704" fill="#688071" fill-rule="evenodd" transform="matrix(1 0 0 -1 2852 759)"/></g></svg>