<svg width="158" height="220" xmlns="http://www.w3.org/2000/svg" xmlns:xlink="http://www.w3.org/1999/xlink" xml:space="preserve" overflow="hidden"><g transform="translate(-2096 -502)"><path d="M3.68431 25.745-0.844245-2.24007 51.1557-2.25524 46.6213 25.745 3.68431 25.745" fill="#2E2A26" fill-rule="evenodd" transform="matrix(1 0 0 -1 2150 719)"/><path d="M132.265 59.1762 23.0458 59.1762C19.2911 59.1762 16.7909 62.1995 17.4871 65.8904L38.8437 178.865C39.5399 182.556 43.1832 185.579 46.9379 185.579L108.37 185.579C112.127 185.579 115.768 182.556 116.464 178.865L137.82 65.8904C138.52 62.1995 136.02 59.1762 132.265 59.1762ZM128.851 31.8456C125.081 31.8456 122.023 34.9072 122.023 38.6805 122.023 42.4509 125.081 45.5125 128.851 45.5125 132.617 45.5125 135.676 42.4509 135.676 38.6805 135.679 34.9072 132.617 31.8456 128.851 31.8456ZM108.37 31.8456C104.6 31.8456 101.544 34.9072 101.544 38.6805 101.544 42.4509 104.6 45.5125 108.37 45.5125 112.136 45.5125 115.195 42.4509 115.195 38.6805 115.195 34.9072 112.136 31.8456 108.37 31.8456ZM46.9379 31.8456C43.1684 31.8456 40.1102 34.9072 40.1102 38.6805 40.1131 42.4509 43.1684 45.5125 46.9379 45.5125 50.7075 45.5125 53.7631 42.4509 53.7631 38.6805 53.7631 34.9072 50.7075 31.8456 46.9379 31.8456ZM26.4568 31.8456C22.6873 31.8456 19.6287 34.9072 19.6287 38.6805 19.6287 42.4509 22.6873 45.5125 26.4568 45.5125 30.2235 45.5125 33.2821 42.4509 33.2821 38.6805 33.2849 34.9072 30.2235 31.8456 26.4568 31.8456ZM156.154 167.31 156.154 174.144C156.154 174.144 156.154 189.688 138.253 194.849 132.206 196.593 122.86 199.287 116.881 201.01 113.926 201.866 108.881 202.66 102.056 202.66L53.252 202.66C46.4268 202.66 41.3821 201.866 38.4263 201.01 32.4477 199.287 23.1017 196.593 17.0582 194.849-0.846255 189.688-0.846255 174.144-0.846255 174.144L-0.846255 23.2962C-0.846255 20.4672 1.4483 18.1732 4.27456 18.1732L23.0458 18.1732 25.8959 1.03305C26.2072-0.822543 27.9935-2.34017 29.8711-2.34017L43.5269-2.34017C45.4045-2.34017 47.1937-0.822543 47.5021 1.03305L50.3493 18.1732 104.959 18.1732 107.808 1.03305C108.117-0.822543 109.906-2.34017 111.781-2.34017L125.437-2.34017C127.317-2.34017 129.103-0.822543 129.412 1.03305L132.262 18.1732 151.033 18.1732C153.862 18.1732 156.154 20.4672 156.154 23.2962L156.154 167.31" fill="#2E2A26" fill-rule="evenodd" transform="matrix(1 0 0 -1 2097 705)"/></g></svg>