<svg width="164" height="164" xmlns="http://www.w3.org/2000/svg" xmlns:xlink="http://www.w3.org/1999/xlink" xml:space="preserve" overflow="hidden"><g transform="translate(-2881 -1545)"><path d="M151.067 162.186 10.1426 162.186C4.04713 162.186-0.895271 157.243-0.895271 151.148L-0.895271 10.2234C-0.895271 4.12835 4.04713-0.814408 10.1426-0.814408L151.067-0.814408C157.162-0.814408 162.105 4.12835 162.105 10.2234L162.105 151.148C162.105 157.243 157.162 162.186 151.067 162.186" fill="#2E2A26" fill-rule="evenodd" transform="matrix(1 0 0 -1 2882 1708)"/><path d="M58.7098 0.816196C41.9698 3.74554 10.7993 9.24528-0.87847 11.9451L-0.87847 44.0272 34.1512 46.6974 44.9544 47.151 73.95 44.6453C73.95 44.6453 78.3993 43.3441 83.3621 40.0908 90.3967 35.5363 99.1543 27.4018 103.046 17.3151L101.296 17.3151 104.865 7.22576 105.834 10.4819C105.834 10.4819 108.106 9.60169 106.614 1.27273 106.614 1.27273 91.7908-1.55974 71.7812-0.679199" fill="#FFFFFF" fill-rule="evenodd" transform="matrix(1 0 0 -1 2895 1625)"/><path d="M-0.2705 10.17 5.18406 10.17 4.44669-0.830307-0.816135-0.611033Z" fill="#2E2A26" fill-rule="evenodd" transform="matrix(1 0 0 -1 2898 1599)"/><path d="M-0.295444 14.1329 8.16537 14.1329 7.53434-0.866904-0.834566 0.118413Z" fill="#2E2A26" fill-rule="evenodd" transform="matrix(1 0 0 -1 2923 1602)"/><path d="M8.46692-0.828206 22.0909-0.828206C22.0909-0.828206 15.3279 13.4194 11.6359 16.172L0.953027 15.9515C0.953027 15.9515-0.353484 15.9515-0.909114 15.539" fill="#2E2A26" fill-rule="evenodd" transform="matrix(1 0 0 -1 2960 1608)"/><path d="M8.69068-0.879166C8.69068-0.879166 0.476824 15.0175-0.918662 16.121L8.17058 16.121C8.17058 16.121 9.7951 15.9206 10.3152 14.6767L19.0813-0.879166" fill="#2E2A26" fill-rule="evenodd" transform="matrix(1 0 0 -1 2975 1608)"/><path d="M-0.880052 9.17572C-0.880052 9.17572 3.98976 1.43491 11.1203-0.824252L6.76003 8.95102" fill="#2E2A26" fill-rule="evenodd" transform="matrix(1 0 0 -1 2960 1619)"/><path d="M-0.808693-0.504674-0.328344 11.1921 2.19141 8.91386 1.59139-0.808299Z" fill="#2E2A26" fill-rule="evenodd" transform="matrix(1 0 0 -1 2944 1603)"/><path d="M-0.226416 8.17954-0.858273 0.0250821C-0.858273 0.0250821-0.638176-0.599183 0.0909172-0.820393L5.04854-0.820393C5.04854-0.820393 5.36622-0.411764 4.82844 0.340001" fill="#2E2A26" fill-rule="evenodd" transform="matrix(1 0 0 -1 2949 1604)"/><path d="M-0.882425 17.3782 2.0544 15.3451 8.15237 16.0872 8.90506 24.1578 23.2558 19.2184 25.8683 5.10979C25.8683 5.10979 33.3683 1.14009 36.2077 0.494553 36.2077 0.494553 41.624-1.44206 45.8654-0.571659 45.8654-0.571659 51.6391 0.591025 51.9638 1.04362L57.4123 17.5066C57.4123 17.5066 58.1621 22.4461 71.4416 22.2212L97.112 22.8667C97.112 22.8667 92.8735 18.9935 91.7635 17.9273L93.5258 17.3782C93.5258 17.3782 104.615 27.289 106.117 31.0661 106.117 31.0661 78.3869 28.2588 65.8956 30.0993L51.8663 32.3601 34.4457 35.36 18.1348 38.4912-0.882425 42.2038" fill="#FFFFFF" fill-rule="evenodd" transform="matrix(1 0 0 -1 2895 1657)"/><path d="M-0.692674 39.228-0.88681 37.2865 96.0268-0.772257 102.113-0.772257Z" fill="#FFFFFF" fill-rule="evenodd" transform="matrix(1 0 0 -1 2903 1675)"/><path d="M-0.923281 19.6551 78.0768-0.797835 78.0768 1.40388 0.922202 21.2022Z" fill="#FFFFFF" fill-rule="evenodd" transform="matrix(1 0 0 -1 2952 1656)"/><path d="M-0.92307 16.3726 71.0771-0.788691 71.0771 1.53438 0.366434 18.2112Z" fill="#FFFFFF" fill-rule="evenodd" transform="matrix(1 0 0 -1 2959 1650)"/></g></svg>