<svg width="199" height="220" xmlns="http://www.w3.org/2000/svg" xmlns:xlink="http://www.w3.org/1999/xlink" xml:space="preserve" overflow="hidden"><g transform="translate(-1950 -225)"><path d="M156.663 79.8008 40.5866 79.8008C20.1079 79.8008 20.1079 99.2186 20.1079 105.696 20.1079 126.256 24.0771 148.189 30.3482 167.053 35.4679 182.446 44.0053 201.266 98.6264 201.266 153.245 201.266 161.782 182.446 166.901 167.053 173.175 148.189 177.142 126.256 177.142 105.696 177.142 99.2186 177.142 79.8008 156.663 79.8008ZM136.177 55.8472C136.177 61.5147 140.764 66.1127 146.419 66.1127 152.075 66.1127 156.663 61.5147 156.663 55.8472 156.663 50.1769 152.075 45.5818 146.419 45.5818 140.764 45.5847 136.177 50.1769 136.177 55.8472ZM50.8316 45.5847C45.175 45.5847 40.5866 50.1769 40.5866 55.8472 40.5866 61.5147 45.175 66.1127 50.8316 66.1127 56.4887 66.1127 61.073 61.5147 61.073 55.8472 61.073 50.1769 56.4887 45.5818 50.8316 45.5818ZM197.625 86.231C197.625 127.699 181.874 184.55 166.901 199.555 150.636 215.862 115.694 216.666 98.6264 216.666 81.5586 216.666 46.6178 215.862 30.3482 199.555 15.3792 184.55-0.374874 127.699-0.374874 86.231-0.374874 66.1127-0.374874 31.8846 20.1079 31.8846L33.7577 31.8846 16.6925-2.33446 50.8316-2.33446 57.658 31.8846 139.589 31.8846 146.419-2.33446 180.557-2.33446 163.492 31.8846 177.142 31.8846C197.628 31.8846 197.625 66.1127 197.625 86.231" fill="#2E2A26" fill-rule="evenodd" transform="matrix(1 0 0 -1 1951 442)"/></g></svg>