<svg width="252" height="164" xmlns="http://www.w3.org/2000/svg" xmlns:xlink="http://www.w3.org/1999/xlink" xml:space="preserve" overflow="hidden"><g transform="translate(-3118 -339)"><path d="M225.673 19.5566C234.777 34.0794 239.791 53.4351 239.791 74.0524 239.791 94.6462 234.786 113.984 225.7 128.504 216.843 142.656 205.184 150.486 192.868 150.554L45.785 150.551C33.4603 150.518 21.7802 142.703 12.9088 128.548 3.80216 114.023-1.20919 94.6697-1.20919 74.0524-1.20919 53.4583 3.79349 34.1205 12.8825 19.601 21.7357 5.44912 33.3953-2.38146 45.7145-2.44611L192.797-2.44611C205.122-2.41396 216.799 5.40217 225.673 19.5566" fill="#034750" fill-rule="evenodd" transform="matrix(1 0 0 -1 3125 495)"/><path d="M234.942 136.145C225.139 151.808 211.972 160.479 197.849 160.555L50.8117 160.552C36.6824 160.514 23.4917 151.861 13.6683 136.189 4.07397 120.885-1.20864 100.591-1.20864 79.0537-1.20864 57.5397 4.0653 37.2636 13.6416 21.9623 23.4419 6.2994 36.6115-2.3685 50.7322-2.44503L197.772-2.44503C211.898-2.40677 225.089 6.24344 234.912 21.9151 244.507 37.2224 249.792 57.5162 249.792 79.0537 249.792 100.568 244.518 120.844 234.942 136.145M230.627 24.5821C221.757 10.4335 210.082 2.62084 197.763 2.58871L50.7467 2.58871C38.4362 2.65333 26.782 10.4805 17.9298 24.6261 14.2775 30.4595 11.2991 37.0841 9.02416 44.2467 5.64575 54.8936 3.84453 66.7458 3.84453 79.0537 3.84453 99.6623 8.8565 119.006 17.9562 133.525 26.8264 147.674 38.498 155.483 50.8175 155.519L197.837 155.522C210.147 155.454 221.801 147.627 230.654 133.481 239.736 118.968 244.736 99.6384 244.736 79.0537 244.736 66.7426 242.938 54.8936 239.556 44.2467 237.279 37.0665 234.291 30.4274 230.627 24.5821" fill="#FFFFFF" fill-rule="evenodd" transform="matrix(1 0 0 -1 3120 500)"/><path d="M-1.19914 40.4149C-1.19914 30.6717-1.19914 14.1054 8.62918 14.1054L15.1755 14.1054 6.98838-2.45517 23.3717-2.45517 26.6504 14.1054 46.301 14.1054 65.9576 14.1054 69.2335-2.45517 85.6168-2.45517 77.4296 14.1054 83.9789 14.1054C93.8014 14.1054 93.8014 30.6717 93.8014 40.4149 93.8014 60.4858 86.2477 88.0028 79.0618 95.2689 71.2572 103.155 54.4942 103.545 46.301 103.545 38.1109 103.55 21.348 103.155 13.5433 95.2689 6.35744 88.0028-1.19914 60.4858-1.19914 40.4149M23.3717 20.7336C20.659 20.7336 18.4604 22.9626 18.4604 25.7056 18.4604 28.4486 20.659 30.6717 23.3717 30.6717 26.0869 30.6717 28.2826 28.4486 28.2826 25.7056 28.2826 22.9626 26.0869 20.7336 23.3717 20.7336M69.2335 20.7336C66.5183 20.7336 64.3226 22.9626 64.3226 25.7056 64.3226 28.4486 66.5183 30.6717 69.2335 30.6717 71.9462 30.6717 74.1509 28.4486 74.1509 25.7056 74.1509 22.9626 71.9462 20.7336 69.2335 20.7336M46.301 96.0954C72.5126 96.0954 76.6062 86.9841 79.0618 79.5352 82.0753 70.4 83.9789 59.7858 83.9789 49.8361 83.9789 46.7005 83.9789 37.2999 74.1509 37.2999L46.301 37.2999 18.4604 37.2999C8.62918 37.2999 8.62918 46.7005 8.62918 49.8361 8.62918 59.7858 10.5331 70.4 13.5433 79.5352 16.0019 86.9841 20.0954 96.0954 46.301 96.0954" fill="#FFFFFF" fill-rule="evenodd" transform="matrix(1 0 0 -1 3198 472)"/></g></svg>