<svg width="252" height="164" xmlns="http://www.w3.org/2000/svg" xmlns:xlink="http://www.w3.org/1999/xlink" xml:space="preserve" overflow="hidden"><g transform="translate(-2805 -339)"><path d="M226.021 19.5566C235.128 34.0823 240.139 53.4351 240.139 74.0524 240.139 94.6462 235.134 113.984 226.047 128.504 217.194 142.656 205.531 150.486 193.218 150.554L46.1334 150.551C33.8082 150.516 22.125 142.703 13.2568 128.548 4.14997 114.023-0.861445 94.6697-0.861445 74.0524-0.861445 53.4583 4.13804 34.1205 13.2304 19.601 22.0838 5.44912 33.7406-2.38146 46.0625-2.44611L193.144-2.44611C205.47-2.41396 217.147 5.40217 226.021 19.5566" fill="#034750" fill-rule="evenodd" transform="matrix(1 0 0 -1 2811 495)"/><path d="M235.289 136.145C225.486 151.808 212.319 160.479 198.196 160.555L51.1589 160.552C37.0299 160.514 23.8393 151.861 14.0159 136.189 4.42156 120.885-0.861043 100.591-0.861043 79.0537-0.861043 57.5397 4.41289 37.2636 13.9891 21.9623 23.7923 6.2994 36.9591-2.3685 51.0794-2.44503L198.119-2.44503C212.245-2.40677 225.436 6.24344 235.259 21.9151 244.854 37.2224 250.139 57.5162 250.139 79.0537 250.139 100.568 244.865 120.844 235.289 136.145M230.974 24.5821C222.105 10.4335 210.43 2.62084 198.11 2.58871L51.0942 2.58871C38.7838 2.65622 27.1295 10.4805 18.277 24.6261 14.6251 30.4595 11.6467 37.0841 9.37463 44.2467 5.99333 54.8965 4.19212 66.7458 4.19212 79.0537 4.19212 99.6623 9.20409 119.006 18.3038 133.525 27.1736 147.674 38.8456 155.486 51.165 155.519L198.184 155.522C210.494 155.454 222.149 147.627 231.001 133.481 240.083 118.968 245.083 99.6384 245.083 79.0537 245.083 66.7426 243.285 54.8936 239.904 44.2467 237.626 37.0665 234.639 30.4274 230.974 24.5821" fill="#FFD33D" fill-rule="evenodd" transform="matrix(1 0 0 -1 2806 500)"/><path d="M79.0307-2.43753C78.0803-2.43753 77.1064-2.3965 76.1122-2.30869 59.6629-0.887128 53.0879 10.5127 45.5154 16.6301 37.3737 23.2078 26.2392 30.108-0.863409 32.2098-0.863409 32.2098 12.9062 53.6667 15.8131 58.3507 19.6555 64.5358 23.5979 73.2447 38.4951 73.2447 39.8672 73.2447 41.3367 73.1713 42.898 73.0158L24.7845 44.6443C24.7845 44.6443 45.5038 41.279 57.6973 30.0904 65.3024 23.111 66.1462 22.4017 69.0767 19.4355 75.5071 13.195 81.2822 11.0375 86.1959 11.0375 97.2123 11.0375 103.884 21.8917 103.884 21.8917 103.884 21.8917 99.2779 19.872 93.7713 19.872 89.9083 19.872 85.5967 20.866 82.1293 24.2486 73.5651 32.588 71.3049 34.7894 71.3049 34.7894 71.3049 34.7894 61.593 45.4271 40.1889 51.8173L49.0864 65.6968C52.0875 70.6769 61.4806 83.5628 78.2455 83.5628 79.193 83.5628 80.1698 83.5217 81.1644 83.4368 97.6105 82.0091 104.194 70.6125 111.761 64.4947 119.903 57.917 131.034 51.0169 158.137 48.9151 158.137 48.9151 144.37 27.4581 141.46 22.7742 137.618 16.5891 133.678 7.8805 118.781 7.8805 117.406 7.8805 115.94 7.95356 114.375 8.10903L132.492 36.4809C132.492 36.4809 111.772 39.8459 99.576 51.0345 91.9739 58.0138 91.13 58.7232 88.2054 61.6898 81.7662 67.9302 75.9912 70.0878 71.0774 70.0878 60.0611 70.0878 53.3889 59.2332 53.3889 59.2332 53.3889 59.2332 57.9955 61.25 63.5053 61.25 67.368 61.25 71.6796 60.2563 75.147 56.8766 83.7112 48.5369 85.9717 46.3354 85.9717 46.3354 85.9717 46.3354 95.6836 35.701 117.084 29.3108L108.187 15.4285C105.189 10.4483 95.7927-2.43753 79.0307-2.43753" fill="#FFD33D" fill-rule="evenodd" transform="matrix(1 0 0 -1 2852 462)"/></g></svg>