<svg width="397" height="164" xmlns="http://www.w3.org/2000/svg" xmlns:xlink="http://www.w3.org/1999/xlink" xml:space="preserve" overflow="hidden"><g transform="translate(-2346 -339)"><path d="M226.53 19.556C235.634 34.0804 240.646 53.4352 240.646 74.0523 240.646 94.6456 235.644 113.986 226.556 128.507 217.702 142.657 206.041 150.486 193.724 150.554L46.6394 150.551C34.3137 150.519 22.6351 142.702 13.7621 128.548 4.65798 114.024-0.353578 94.6691-0.353578 74.0523-0.353578 53.4558 4.64858 34.1187 13.7357 19.6004 22.59 5.44975 34.2515-2.38174 46.5682-2.44639L193.653-2.44639C205.979-2.41388 217.658 5.3999 226.53 19.556" fill="#034750" fill-rule="evenodd" transform="matrix(1 0 0 -1 2352 495)"/><path d="M346.386 160.526 200.053 160.523C200.038 160.523 200.021 160.523 200.003 160.523 199.561 160.541 199.119 160.552 198.678 160.555L51.6022 160.552C37.4709 160.514 24.2755 151.864 14.4522 136.192 4.85402 120.888-0.43375 100.597-0.43375 79.0623-0.43375 57.5484 4.84282 37.2751 14.4222 21.9768 24.2264 6.31384 37.3972-2.35406 51.5226-2.43023L198.601-2.43023C198.737-2.43023 198.875-2.42157 199.011-2.42157 199.329-2.43348 199.649-2.44503 199.97-2.44503L346.301-2.44503C373.518-2.3685 395.567 34.0821 395.567 79.0389 395.567 123.949 373.563 160.373 346.386 160.526M198.592 2.60351 183.001 2.60351 51.5378 2.60351C39.2222 2.67102 27.5644 10.4982 18.7116 24.6409 15.0584 30.4743 12.0785 37.0957 9.806 44.2586 6.42637 54.9051 4.62414 66.7545 4.62414 79.0623 4.62414 99.668 9.63467 119.012 18.7384 133.528 27.6082 147.674 39.288 155.486 51.6079 155.519L183.078 155.522 198.663 155.522C210.978 155.454 222.637 147.63 231.489 133.484 240.575 118.974 245.579 99.6446 245.579 79.0623 245.579 66.7545 243.778 54.9051 240.398 44.2586 238.119 37.0813 235.128 30.4422 231.463 24.5969 222.593 10.448 210.916 2.63853 198.592 2.60351" fill="#FFD33D" fill-rule="evenodd" transform="matrix(1 0 0 -1 2347 500)"/><path d="M19.1469 8.56456 26.5086 32.5576C27.0154 34.2344 28.0503 35.5368 29.6104 36.4621 30.89 37.2136 32.3277 37.5876 33.9325 37.5876L38.4633 37.5876 38.4633-2.41227 30.6157-2.41227 30.6157 30.7533 20.1521-2.41227 15.5257-2.41227 5.00251 30.6055 5.00251-2.41227-0.536507-2.41227-0.536507 37.5876 9.68862 37.5876" fill="#034750" fill-rule="evenodd" transform="matrix(1 0 0 -1 2612 439)"/><path d="M8.48451-2.41227 0.634484-2.41227 0.634484 26.1962C0.617335 27.519 1.40125 28.9664 2.99184 30.5446 4.17191 31.6903 5.50877 32.4792 7.00207 32.9116L7.00207 33.0886-0.206478 33.0886-0.557142 37.5876 11.1012 37.5876C13.8519 37.5876 15.8698 37.5068 17.1468 37.35 20.0344 36.996 22.3032 36.059 23.9508 34.5389 25.906 32.7435 26.8866 30.3675 26.8866 27.4086 26.8866 24.351 26.0145 21.7984 24.27 19.7472 23.2411 18.5231 22.0323 17.5775 20.6356 16.9076 19.9773 16.5913 18.9596 16.2259 17.5829 15.811L29.4435-2.41227 20.405-2.41227 9.96661 14.8654C9.84972 15.0623 9.79268 15.2974 9.79268 15.5759 9.79268 15.9299 9.88962 16.2052 10.0835 16.4025 10.1804 16.5012 10.7421 16.7103 11.7682 17.0265 16.5767 18.5231 18.9796 21.6213 18.9796 26.3148 18.9796 29.1548 18.1358 31.0667 16.4486 32.0529 15.3655 32.7057 13.504 33.0305 10.8674 33.0305L8.48451 33.0305" fill="#034750" fill-rule="evenodd" transform="matrix(1 0 0 -1 2658 439)"/><path d="M10.1865-2.41227 10.1865 25.7521C10.1865 26.521 10.5337 27.4378 11.2219 28.5052 12.7062 30.5937 14.5885 31.9254 16.8686 32.4967L16.8686 32.6765-0.314504 32.6765-0.619824 37.5876 29.3804 37.5876 29.3804 32.6765 18.5444 32.6765 18.5444-2.41227" fill="#034750" fill-rule="evenodd" transform="matrix(1 0 0 -1 2689 439)"/><path d="M79.537-2.45092C78.5928-2.45092 77.619-2.40967 76.6185-2.32137 60.1723-0.88006 53.5943 10.6501 46.0241 16.8395 37.8845 23.4917 26.7501 30.4739-0.352203 32.5991-0.352203 32.5991 13.4132 54.3064 16.3223 59.0429 20.1674 65.3032 24.1079 74.1128 39.0052 74.1128 40.3777 74.1128 41.8444 74.039 43.4074 73.8798L25.2927 45.1783C25.2927 45.1783 46.0125 41.7742 58.2071 30.4561 65.8126 23.3943 66.6575 22.6782 69.5849 19.6747 76.0175 13.3616 81.7928 11.1806 86.706 11.1806 97.723 11.1806 104.396 22.1596 104.396 22.1596 104.396 22.1596 99.7908 20.1198 94.2823 20.1198 90.4164 20.1198 86.1104 21.125 82.6377 24.544 74.0786 32.982 71.817 35.2103 71.817 35.2103 71.817 35.2103 62.1051 45.9712 40.6974 52.4348L49.5965 66.476C52.5942 71.5161 61.9938 84.5494 78.757 84.5494 79.7045 84.5494 80.6782 84.5078 81.6725 84.4228 98.1188 82.9782 104.704 71.4484 112.268 65.2616 120.411 58.6065 131.542 51.6271 158.648 49.4994 158.648 49.4994 144.883 27.7917 141.97 23.0523 138.128 16.7953 134.188 7.98567 119.291 7.98567 117.918 7.98567 116.451 8.06239 114.888 8.21835L133.003 36.9198C133.003 36.9198 112.283 40.3242 100.09 51.6449 92.4842 58.7038 91.6423 59.4199 88.7123 62.4234 82.2768 68.7366 76.5044 70.9175 71.5912 70.9175 60.5713 70.9175 53.8982 59.9389 53.8982 59.9389 53.8982 59.9389 58.5064 61.9783 64.0177 61.9783 67.8779 61.9783 72.1865 60.9734 75.6595 57.5545 84.2186 49.1161 86.477 46.8907 86.477 46.8907 86.477 46.8907 96.1917 36.1298 117.595 29.6662L108.696 15.6221C105.698 10.5821 96.3034-2.45092 79.537-2.45092" fill="#FFD33D" fill-rule="evenodd" transform="matrix(1 0 0 -1 2393 462)"/></g></svg>