<svg width="449" height="245" xmlns="http://www.w3.org/2000/svg" xmlns:xlink="http://www.w3.org/1999/xlink" xml:space="preserve" overflow="hidden"><g transform="translate(-2709 0)"><path d="M223.722-0.62024C221.05-0.62024 218.307-0.502546 215.502-0.258493 169.16 3.78173 150.62 36.1245 129.294 53.4764 106.36 72.1395 74.9877 91.7146-1.38029 97.6838-1.38029 97.6838 37.4123 158.561 45.6089 171.846 56.4368 189.398 67.538 214.107 109.52 214.107 113.377 214.107 117.511 213.898 121.924 213.455L70.8804 132.958C70.8804 132.958 129.259 123.416 163.621 91.6673 185.053 71.8662 187.423 69.8549 195.672 61.4362 213.803 43.7283 230.079 37.6065 243.92 37.6093 274.959 37.6122 293.755 68.4022 293.755 68.4022 293.755 68.4022 280.781 62.68 265.258 62.68 254.371 62.68 242.232 65.4999 232.454 75.092 208.335 98.7542 201.964 105.003 201.964 105.003 201.964 105.003 174.596 135.181 114.286 153.312L139.361 192.691C147.807 206.824 174.281 243.38 221.52 243.38 224.193 243.38 226.933 243.262 229.74 243.018 276.083 238.975 294.619 206.635 315.948 189.28 338.883 170.617 370.255 151.045 446.62 145.076 446.62 145.076 407.83 84.1984 399.634 70.9106 388.803 53.3616 377.705 28.6523 335.725 28.6523 331.862 28.6523 327.726 28.8614 323.315 29.3054L374.362 109.799C374.362 109.799 315.983 119.343 281.622 151.092 260.192 170.893 257.817 172.902 249.57 181.323 231.44 199.028 215.164 205.15 201.323 205.15 170.283 205.15 151.485 174.355 151.485 174.355 151.485 174.355 164.465 180.077 179.985 180.077 190.871 180.077 203.01 177.26 212.786 167.668 236.908 144.002 243.276 137.76 243.276 137.76 243.276 137.76 270.644 107.585 330.957 89.4564L305.879 50.0683C297.435 35.936 270.958-0.623128 223.722-0.62024" fill="#FFD33D" fill-rule="evenodd" transform="matrix(1 0 0 -1 2711 244)"/></g></svg>