<svg width="655" height="418" xmlns="http://www.w3.org/2000/svg" xmlns:xlink="http://www.w3.org/1999/xlink" xml:space="preserve" overflow="hidden"><g transform="translate(-636 -908)"><path d="M614.656 59.4006C639.356 98.9873 652.968 151.735 652.968 207.928 652.968 264.055 639.383 316.761 614.729 356.337 590.695 394.906 559.052 416.248 525.629 416.431L126.491 416.425C93.044 416.333 61.3569 395.032 37.2789 356.454 12.569 316.867-1.03302 264.12-1.03302 207.928-1.03302 151.797 12.5427 99.0906 37.2054 59.5183 61.2364 20.952 92.8767-0.387238 126.297-0.569659L525.441-0.569659C558.884-0.478629 590.574 20.8198 614.656 59.4006" fill="#034750" fill-rule="evenodd" transform="matrix(1 0 0 -1 638 1325)"/><path d="M261.752-0.568014C258.634-0.568014 255.43-0.436186 252.155-0.151638 198.056 4.53943 176.416 42.0492 151.516 62.1743 124.742 83.8222 88.1189 106.526-1.03263 113.446-1.03263 113.446 44.2536 184.054 53.8216 199.465 66.4637 219.825 79.4235 248.481 128.431 248.481 132.941 248.481 137.763 248.237 142.911 247.721L83.3232 154.359C83.3232 154.359 151.478 143.291 191.589 106.47 216.61 83.5024 219.379 81.1702 229.008 71.4066 250.173 50.8709 269.173 43.7717 285.331 43.7717 321.566 43.7717 343.509 79.4892 343.509 79.4892 343.509 79.4892 328.362 72.8473 310.243 72.8473 297.533 72.8473 283.36 76.1211 271.946 87.2425 243.789 114.693 236.353 121.939 236.353 121.939 236.353 121.939 204.402 156.938 133.995 177.967L163.268 223.641C173.13 240.035 204.035 282.432 259.18 282.432 262.302 282.432 265.503 282.294 268.777 282.013 322.876 277.325 344.519 239.815 369.42 219.687 396.19 198.036 432.816 175.335 521.968 168.412 521.968 168.412 476.681 97.8097 467.114 82.3962 454.471 62.0396 441.512 33.3832 392.505 33.3832 387.994 33.3832 383.169 33.6238 378.021 34.1432L437.609 127.502C437.609 127.502 369.458 138.567 329.343 175.394 304.325 198.362 301.556 200.691 291.926 210.457 270.759 230.993 251.762 238.093 235.604 238.093 199.369 238.093 177.423 202.372 177.423 202.372 177.423 202.372 192.576 209.011 210.692 209.011 223.402 209.011 237.575 205.743 248.987 194.616 277.146 167.171 284.579 159.93 284.579 159.93 284.579 159.93 316.527 124.935 386.937 103.903L357.664 58.2198C347.805 41.8263 316.897-0.574137 261.752-0.568014" fill="#FFD33D" fill-rule="evenodd" transform="matrix(1 0 0 -1 703 1258)"/></g></svg>