<svg width="164" height="164" xmlns="http://www.w3.org/2000/svg" xmlns:xlink="http://www.w3.org/1999/xlink" xml:space="preserve" overflow="hidden"><g transform="translate(-2343 -1843)"><path d="M149.039 162.589 13.358 162.589C5.81531 162.589-0.300711 156.473-0.300711 148.929L-0.300711 13.2493C-0.300711 5.70448 5.81531-0.411176 13.358-0.411176L149.039-0.411176C156.584-0.411176 162.699 5.70448 162.699 13.2493L162.699 148.929C162.699 156.473 156.584 162.589 149.039 162.589" fill="#2E2A26" fill-rule="evenodd" transform="matrix(1 0 0 -1 2344 2006)"/><path d="M70.0465 8.2698C68.3181 8.2698 66.3654 8.25714 63.133 9.54748 56.2296 12.3031 51.9656 12.2685 46.335 9.70666 42.6858 8.05116 38.1652 7.8728 33.5917 9.52561 27.6781 11.6564 24.0796 12.6747 17.5799 9.86929 14.0709 8.34767 9.48844 7.96333 5.67102 8.90384 3.19943 9.50682 1.91408 10.2222-0.298079 10.7845L-0.298079 2.36203C0.684545 2.09929 1.58737 1.7744 2.51202 1.41231 7.92075-0.702703 12.296-0.965449 17.4718 1.51856 21.9892 3.68957 27.9583 3.64278 32.6681 1.41845 42.9628-3.43028 46.8299 3.06474 55.0284 3.09619 57.7018 3.10233 60.2689 2.44949 62.4628 1.48404 69.7609-1.7184 73.3343 0.41886 79.7024 2.29951L79.7024 10.7346C76.508 9.73159 74.153 8.2698 70.0465 8.2698" fill="#FFFFFF" fill-rule="evenodd" transform="matrix(1 0 0 -1 2385 1971)"/><path d="M34.7764 46.9218 2.60329 34.7115C1.3375 34.2369 0.439947 33.3316-0.0208984 32.0733-0.478501 30.8177-0.372928 29.5565 0.287173 28.3905L14.3363 3.67423C14.7204 3.00047 15.4691 1.97616 16.3253 1.05059L16.3379 1.05343C19.8358 2.74582 22.5915 3.2839 25.3004 3.07257 27.9358 2.87013 30.3985 1.96196 33.4407 0.73236 35.3954-0.0603789 37.3292-0.4191 39.1578-0.389976 41.0163-0.358366 42.7679 0.0756512 44.3295 0.871231 47.3374 2.38994 50.0073 3.16811 52.8985 3.15071 55.3516 3.13331 57.8839 2.54337 60.836 1.3571 61.5933 2.21342 62.239 3.1017 62.5734 3.67423L77.0798 28.4196C77.7694 29.5881 77.884 30.8696 77.4232 32.1454 76.9566 33.4211 76.041 34.3353 74.7525 34.8098L41.8253 46.9218C39.3895 47.8218 37.2182 47.8534 34.7764 46.9218" fill="#FFFFFF" fill-rule="evenodd" transform="matrix(1 0 0 -1 2386 1958)"/><path d="M70.6943-0.352636 65.542 1.53907C65.2661 1.63714 65.0813 1.87364 65.0607 2.1622 64.9285 3.70197 64.7967 5.22758 64.6616 6.73868 64.5031 8.59851 64.3417 10.447 64.1803 12.2697 64.0074 14.2506 62.1471 15.9433 60.0432 15.9433 51.9149 15.9462 43.8875 15.9433 35.7769 15.9433 27.667 15.9462 19.4808 15.9433 11.3878 15.9433 9.29619 15.9462 7.44524 14.268 7.26079 12.2927 7.09292 10.4761 6.92216 8.63321 6.7496 6.77904 6.60838 5.25626 6.46501 3.72215 6.31478 2.17671 6.28849 1.89099 6.11557 1.66334 5.84286 1.55925L0.711129-0.381314C0.461477-0.473722 0.199938-0.439025-0.0104472-0.274745-0.228757-0.113297-0.324943 0.12321-0.295043 0.388749-0.257217 0.71731-0.213627 1.04339-0.177962 1.36912L0.50831 7.4882C0.852346 10.5596 1.1917 13.5786 1.52385 16.5374 1.88157 19.7327 4.95125 22.2154 8.36099 22.2154L19.4696 22.2154C22.0598 22.2154 23.442 22.2154 24.6193 25.627 24.9183 26.492 25.1049 27.2822 25.346 28.0838 25.5956 28.9317 26.6342 29.569 27.6497 29.569L35.769 29.569 43.8908 29.569C44.9085 29.569 45.9377 28.9346 46.165 28.0838 46.3815 27.2822 46.5865 26.5065 46.825 25.627 47.5347 22.9769 49.1252 22.2154 51.9978 22.2154L63.1154 22.2154C66.5367 22.2154 69.6262 19.7239 69.9695 16.5229 70.2865 13.5499 70.6122 10.5221 70.9436 7.44218L71.5924 1.37195C71.6302 1.05189 71.6626 0.731826 71.6951 0.40893 71.7242 0.14941 71.6187-0.0842644 71.4134-0.245712 71.199-0.404328 70.9436-0.441857 70.6943-0.352636" fill="#FFFFFF" fill-rule="evenodd" transform="matrix(1 0 0 -1 2389 1918)"/></g></svg>