<svg xmlns="http://www.w3.org/2000/svg" viewBox="0 0 71.47 71.47"><defs><style>.cls-1{fill:#9e1f63;}.cls-2,.cls-3{fill:#fff;}.cls-3{fill-rule:evenodd;}</style></defs><title>HospitalShuttleBus (4)</title><g id="Layer_2" data-name="Layer 2"><g id="HospitalShuttleBus"><g id="HospitalShuttleBus-2" data-name="HospitalShuttleBus"><rect class="cls-1" x="1.23" y="1.23" width="69" height="69" rx="4.66"/><path class="cls-2" d="M63.53,2.36a5.58,5.58,0,0,1,5.58,5.58V63.53a5.58,5.58,0,0,1-5.58,5.58H7.94a5.58,5.58,0,0,1-5.58-5.58V7.94A5.58,5.58,0,0,1,7.94,2.36H63.53m0-2.36H7.94A8,8,0,0,0,0,7.94V63.53a8,8,0,0,0,7.94,7.94H63.53a8,8,0,0,0,7.94-7.94V7.94A8,8,0,0,0,63.53,0Z"/><path class="cls-3" d="M50.76,31.74H50A76.9,76.9,0,0,0,49,23.83c-.88-4.63-3.93-5.72-13.26-5.72S23.41,19.2,22.53,23.83a74.21,74.21,0,0,0-.93,7.91h-.89a.88.88,0,0,0-.95.8v2.39a3.41,3.41,0,0,0,.11.78l.25.81a.64.64,0,0,0,.59.39h.59c-.06,1.34-.08,3.36-.08,4.29v6.46a2.21,2.21,0,0,0,2,2.35h.35V52.8a.57.57,0,0,0,.56.56h3.35a.56.56,0,0,0,.55-.56V50H43.49V52.8a.57.57,0,0,0,.56.56H47.4A.56.56,0,0,0,48,52.8V50h.36a2.21,2.21,0,0,0,2-2.35V41.2c0-.93,0-3-.08-4.29h.49a.64.64,0,0,0,.59-.39l.25-.81a3.41,3.41,0,0,0,.11-.78V32.54A.88.88,0,0,0,50.76,31.74ZM24.05,25.65c.22-1.63.53-3,3.09-3H44.43c2.56,0,2.86,1.36,3.09,3s.59,8.16.59,8.16c0,1-.94,2.76-11,2.76h0c-10,0-13.7-1.72-13.7-2.76C23.45,33.81,23.82,27.33,24.05,25.65Zm4.48,19.62a.32.32,0,0,1-.27.16h-4.6a.34.34,0,0,1-.32-.35V42.83a.34.34,0,0,1,.32-.35h3.4a.62.62,0,0,1,.72.48l.77,2A.35.35,0,0,1,28.53,45.27Zm12.83,1.2H30.21l-1-2.36H42.32Zm6.86-1.39a.34.34,0,0,1-.32.35H43.31a.32.32,0,0,1-.27-.16.38.38,0,0,1,0-.33l.78-2a.6.6,0,0,1,.71-.48h3.4a.34.34,0,0,1,.32.35Z"/></g></g></g></svg>