<svg width="167" height="168" xmlns="http://www.w3.org/2000/svg" xmlns:xlink="http://www.w3.org/1999/xlink" xml:space="preserve" overflow="hidden"><g transform="translate(-2344 -1241)"><path d="M151.807-1.22531 13.5887-1.22531C5.91591-1.22531-0.302698 5.03143-0.302698 12.7522L-0.302698 151.798C-0.302698 159.518 5.91591 165.775 13.5887 165.775L151.807 165.775C159.475 165.775 165.698 159.518 165.698 151.798L165.698 12.7522C165.698 5.03143 159.475-1.22531 151.807-1.22531" fill="#2E2A26" fill-rule="evenodd" transform="matrix(1 0 0 -1 2345 1407)"/><path d="M86.8852 66.2813 82.4375 66.2813C82.4169 66.7547 82.3935 67.222 82.3668 67.6744L81.5502 83.1648C81.3886 86.2505 78.7271 88.778 75.6364 88.778L13.7621 88.778C10.6627 88.778 8.00151 86.2505 7.83956 83.1648L7.02369 67.6744C6.99736 67.222 6.97644 66.7547 6.9584 66.2813L2.50823 66.2813C0.965924 66.2813-0.3037 65.0091-0.3037 63.4691L-0.3037 54.9908C-0.3037 54.2147-0.147522 52.9688 0.0396757 52.2194L0.766102 49.3599C0.954021 48.6105 1.73563 47.9993 2.50823 47.9993L6.72648 47.9993 6.73225 48.0051 6.73225 12.8457C6.73225 9.74808 9.265 7.22059 12.3554 7.22059L13.7808 7.22059 13.7621 7.20615 13.7621 0.182571C13.7621-0.596424 14.3969-1.22243 15.1666-1.22243L23.6013-1.22243C24.3797-1.22243 25.0083-0.596424 25.0083 0.182571L25.0083 7.20615 24.9878 7.22059 64.385 7.22059 64.3645 7.20615 64.3645 0.182571C64.3645-0.596424 64.9932-1.22243 65.7629-1.22243L74.2264-1.22243C75.0019-1.22243 75.6364-0.596424 75.6364 0.182571L75.6364 7.20615 75.6158 7.22059 77.038 7.22059C80.1342 7.22059 82.6637 9.74808 82.6637 12.8457L82.6637 47.9993 86.8852 47.9993C87.6549 47.9993 88.4423 48.6105 88.6302 49.3599L89.3501 52.2194C89.538 52.9688 89.6967 54.2147 89.6967 54.9908L89.6967 63.4691C89.6967 65.0091 88.4336 66.2813 86.8852 66.2813M19.383 83.1529C19.383 83.9229 20.02 84.5576 20.7897 84.5576L68.5975 84.5576C69.3792 84.5576 70.0049 83.9229 70.0049 83.1529L70.0049 80.3375C70.0049 79.5675 69.3792 78.9329 68.5975 78.9329L20.7897 78.9329C20.02 78.9329 19.383 79.5675 19.383 80.3375ZM30.6315 17.0657C30.6315 16.2929 30.0024 15.6578 29.2269 15.6578L17.9785 15.6578C17.2084 15.6578 16.4506 16.281 16.2916 17.039L15.4458 21.3092C15.2896 22.0673 15.8014 22.6904 16.5736 22.6904L29.2324 22.6904C30.0024 22.6904 30.6315 22.0558 30.6315 21.2829ZM73.953 21.3092 73.0982 17.039C72.9399 16.281 72.1907 15.6578 71.4178 15.6578L60.1585 15.6578C59.3895 15.6578 58.7547 16.2929 58.7547 17.0657L58.7547 21.2829C58.7547 22.0558 59.3895 22.6904 60.1585 22.6904L72.8194 22.6904C73.5978 22.6904 74.1002 22.0673 73.953 21.3092M77.038 36.5792C77.038 33.9402 74.247 29.5466 44.6972 29.5466 15.146 29.5466 12.3554 33.9402 12.3554 36.5792L12.3554 71.9006C12.3554 73.4492 13.6189 74.7128 15.1666 74.7128L74.2264 74.7128C75.7745 74.7128 77.038 73.4492 77.038 71.9006" fill="#FFFFFF" fill-rule="evenodd" transform="matrix(1 0 0 -1 2383 1368)"/></g></svg>