<svg width="213" height="182" xmlns="http://www.w3.org/2000/svg" xmlns:xlink="http://www.w3.org/1999/xlink" xml:space="preserve" overflow="hidden"><g transform="translate(-1987 -1239)"><path d="M207.496 81.6257 197.12 93.6541 205.242 93.6541C205.242 93.6541 210.905 93.6541 210.905 99.5773L210.905 99.8251 210.905 105.99 210.905 106.245C210.905 112.161 205.242 112.161 205.242 112.161L186.384 112.161 170.083 150.636C167.271 157.316 158.993 162.762 151.689 162.762L133.239 162.775 128.088 174.209C126.37 176.945 122.332 179.185 119.08 179.185L91.559 179.185C88.328 179.185 84.2697 176.945 82.5516 174.209L77.4077 162.775 58.9559 162.762C51.669 162.762 43.3834 157.316 40.5572 150.636L24.258 112.161 5.4183 112.161C5.4183 112.161-0.24464 112.161-0.24464 106.245L-0.24464 105.99-0.24464 99.8251-0.24464 99.5773C-0.24464 93.6541 5.4183 93.6541 5.4183 93.6541L13.5397 93.6541 3.14974 81.6257C1.04053 79.19-0.670346 74.5736-0.670346 71.341L-0.670346 34.3873 2.62827 27.8179 2.62827 2.08291C2.62827-0.0649407 4.40996-1.81513 6.55298-1.81513L31.8338-1.81513C33.9969-1.81513 35.7537-0.0649407 35.7537 2.08291L35.7537 24.534 174.888 24.534 174.888 2.08291C174.888-0.0649407 176.651-1.81513 178.814-1.81513L204.094-1.81513C206.257-1.81513 208.014-0.0649407 208.014 2.08291L208.014 27.8179 211.331 34.3873 211.331 71.3281C211.331 74.5471 209.6 79.1707 207.496 81.6257M34.9015 109.627 49.0134 144.582C50.8755 149.166 56.4387 152.908 61.4079 152.908L149.226 152.908C154.185 152.908 159.76 149.166 161.615 144.582L175.727 109.627C177.083 106.27 175.222 103.293 171.604 103.006 171.604 103.006 136.731 100.236 105.316 100.236L105.316 100.25 105.303 100.25 105.303 100.236C73.9007 100.236 39.0314 103.006 39.0314 103.006 35.4052 103.293 33.5447 106.27 34.9015 109.627M49.1437 57.4252 18.2128 57.4252C16.0441 57.4252 14.2881 59.1882 14.2881 61.3241L14.2881 73.2804C14.2881 75.4354 16.0441 77.1792 18.2128 77.1792L41.7699 77.1792C43.9338 77.1792 46.3207 75.5333 47.0651 73.5217L51.6947 61.0956C52.4472 59.0776 51.2956 57.4252 49.1437 57.4252M140.277 73.5353 133.18 54.5261C132.432 52.5082 130.046 50.8566 127.903 50.8566L82.7286 50.8566C80.58 50.8566 78.1988 52.5082 77.4463 54.5261L70.3494 73.5353C69.601 75.5461 70.7533 77.1985 72.9173 77.1985L137.709 77.1985C139.87 77.1985 141.025 75.5461 140.277 73.5353M196.36 61.3241C196.36 59.1882 194.597 57.4252 192.434 57.4252L161.504 57.4252C159.353 57.4252 158.2 59.0776 158.953 61.0956L163.581 73.5217C164.328 75.5333 166.727 77.1792 168.871 77.1792L192.434 77.1792C194.597 77.1792 196.36 75.4354 196.36 73.2804" fill="#2E2A26" fill-rule="evenodd" transform="matrix(1 0 0 -1 1988 1419)"/></g></svg>