<svg width="164" height="164" xmlns="http://www.w3.org/2000/svg" xmlns:xlink="http://www.w3.org/1999/xlink" xml:space="preserve" overflow="hidden"><g transform="translate(-2343 -1542)"><path d="M151.661 162.183 10.7379 162.183C4.63918 162.183-0.300711 157.24-0.300711 151.145L-0.300711 10.2205C-0.300711 4.12547 4.63918-0.817296 10.7379-0.817296L151.661-0.817296C157.76-0.817296 162.699 4.12547 162.699 10.2205L162.699 151.145C162.699 157.24 157.76 162.183 151.661 162.183" fill="#2E2A26" fill-rule="evenodd" transform="matrix(1 0 0 -1 2344 1705)"/><path d="M92.9815 36.5286 88.3321 41.9115 91.9714 41.9115C91.9714 41.9115 94.5091 41.9115 94.5091 44.5623L94.5091 44.6731 94.5091 47.4319 94.5091 47.546C94.5091 50.1935 91.9714 50.1935 91.9714 50.1935L83.5212 50.1935 76.2163 67.4117C74.9563 70.4012 71.2467 72.8384 67.9737 72.8384L59.706 72.8441 57.3977 77.9612C56.6278 79.1854 54.8186 80.1878 53.3613 80.1878L41.0287 80.1878C39.5809 80.1878 37.7623 79.1854 36.9924 77.9612L34.6874 72.8441 26.4189 72.8384C23.1535 72.8384 19.4406 70.4012 18.1742 67.4117L10.8703 50.1935 2.42801 50.1935C2.42801 50.1935-0.109626 50.1935-0.109626 47.546L-0.109626 47.4319-0.109626 44.6731-0.109626 44.5623C-0.109626 41.9115 2.42801 41.9115 2.42801 41.9115L6.06731 41.9115 1.41144 36.5286C0.466273 35.4386-0.300391 33.3727-0.300391 31.9261L-0.300391 15.3888 1.17776 12.4489 1.17776 0.932133C1.17776-0.0290619 1.97616-0.812298 2.93647-0.812298L14.2651-0.812298C15.2345-0.812298 16.0217-0.0290619 16.0217 0.932133L16.0217 10.9793 78.3695 10.9793 78.3695 0.932133C78.3695-0.0290619 79.1596-0.812298 80.1286-0.812298L91.4572-0.812298C92.4265-0.812298 93.2138-0.0290619 93.2138 0.932133L93.2138 12.4489 94.6998 15.3888 94.6998 31.9204C94.6998 33.3609 93.9245 35.43 92.9815 36.5286M15.6398 49.0597 21.9635 64.7025C22.7979 66.7541 25.2909 68.4285 27.5177 68.4285L66.8699 68.4285C69.0924 68.4285 71.5903 66.7541 72.4215 64.7025L78.7452 49.0597C79.3532 47.5574 78.5191 46.2249 76.8978 46.0965 76.8978 46.0965 61.271 44.8572 47.1934 44.8572L47.1934 44.8633 47.1876 44.8633 47.1876 44.8572C33.1158 44.8572 17.4904 46.0965 17.4904 46.0965 15.8655 46.2249 15.0318 47.5574 15.6398 49.0597M22.0219 25.6986 8.16139 25.6986C7.18954 25.6986 6.40268 26.4876 6.40268 27.4434L6.40268 32.794C6.40268 33.7584 7.18954 34.5388 8.16139 34.5388L18.7176 34.5388C19.6873 34.5388 20.7569 33.8022 21.0904 32.902L23.1651 27.3411C23.5022 26.4381 22.9862 25.6986 22.0219 25.6986M62.8599 32.9081 59.6796 24.4012C59.3446 23.4981 58.2754 22.759 57.3151 22.759L37.0717 22.759C36.1089 22.759 35.0418 23.4981 34.7047 24.4012L31.5244 32.9081C31.1891 33.8079 31.7054 34.5474 32.6751 34.5474L61.7092 34.5474C62.6774 34.5474 63.1953 33.8079 62.8599 32.9081M87.9914 27.4434C87.9914 26.4876 87.2013 25.6986 86.2319 25.6986L72.3718 25.6986C71.4082 25.6986 70.8914 26.4381 71.229 27.3411L73.3029 32.902C73.6375 33.8022 74.7125 34.5388 75.6732 34.5388L86.2319 34.5388C87.2013 34.5388 87.9914 33.7584 87.9914 32.794" fill="#FFFFFF" fill-rule="evenodd" transform="matrix(1 0 0 -1 2378 1664)"/></g></svg>