<svg version="1.1" viewBox="0.0 0.0 566.9291338582677 566.9291338582677" fill="none" stroke="none" stroke-linecap="square" stroke-miterlimit="10" xmlns:xlink="http://www.w3.org/1999/xlink" xmlns="http://www.w3.org/2000/svg"><clipPath id="p.0"><path d="m0 0l566.92914 0l0 566.92914l-566.92914 0l0 -566.92914z" clip-rule="nonzero"/></clipPath><g clip-path="url(#p.0)"><path fill="#000000" fill-opacity="0.0" d="m0 0l566.92914 0l0 566.92914l-566.92914 0z" fill-rule="evenodd"/><path fill="#d42e12" d="m0 35.143936l0 0c0 -19.40946 15.734476 -35.143936 35.143936 -35.143936l496.6413 0c9.32074 0 18.259705 3.7026541 24.850525 10.293421c6.5907593 6.590767 10.293396 15.529764 10.293396 24.850515l0 496.6413c0 19.409424 -15.734497 35.14392 -35.14392 35.14392l-496.6413 0l0 0c-19.40946 0 -35.143936 -15.734497 -35.143936 -35.14392z" fill-rule="evenodd"/><path fill="#ffffff" d="m254.99594 464.5083q-34.546875 0 -63.515625 -12.890625q-28.953125 -12.90625 -47.4375 -36.75l43.796875 -52.5625q14.109375 18.5 29.671875 27.984375q15.578125 9.484375 33.59375 9.484375q48.171875 0 48.171875 -56.453125l0 -162.04688l-119.71875 0l0 -63.265625l198.07812 0l0 220.9375q0 63.265625 -31.15625 94.421875q-31.140625 31.140625 -91.484375 31.140625z" fill-rule="nonzero"/></g></svg>