<svg width="1865" height="287" xmlns="http://www.w3.org/2000/svg" xmlns:xlink="http://www.w3.org/1999/xlink" xml:space="preserve" overflow="hidden"><g transform="translate(-221 -2134)"><path d="M6.43714 62.6406 23.8546 14.2721-11.2592 14.2721ZM-46.4659-26.7675-10.9803-26.7675-10.9803-23.6232C-16.8481-23.6232-21.9606-22.6647-21.9606-18.0944-21.9606-16.0021-21.1008-13.524-20.0667-10.6719L-13.3507 8.0887 26.0274 8.0887 33.4987-11.8174C34.161-13.524 34.8233-16.3878 34.8233-18.4801 34.8233-22.5712 28.5837-23.6232 23.8546-23.6232L23.8546-26.7675 64.5457-26.7675 64.5457-23.6232C54.4136-23.6232 50.3468-17.3346 46.4659-7.34061L13.7225 80.2441 5.11253 80.2441-27.538-6.10159C-32.0811-18.2931-34.2656-23.6232-46.4659-23.6232" fill="#118B95" fill-rule="evenodd" transform="matrix(1 0 0 -1 1513 2301)"/><path d="M-3.16345-20.9389C-5.32611-21.2219-7.37372-21.7053-9.53638-21.7053-18.0604-21.7053-23.306-19.7835-23.306-7.68703L-23.306 42.821-3.16345 42.821-3.16345 48.0086-23.306 48.0086-23.306 72.0247-27.4358 72.0247C-27.4358 56.6506-33.4291 48.492-46.1749 48.492L-46.1749 42.821-35.3962 42.821-35.3962-3.17149C-35.3962-21.0332-34.1768-26.9871-10.6637-26.9871-8.13295-26.9871-5.69422-26.6924-3.16345-26.3151" fill="#118B95" fill-rule="evenodd" transform="matrix(1 0 0 -1 1699 2303)"/><path d="M-3.59678-20.9389C-5.66032-21.2219-7.81608-21.7053-9.89115-21.7053-18.4335-21.7053-23.7826-19.7835-23.7826-7.68703L-23.7826 42.821-3.59678 42.821-3.59678 48.0086-23.7826 48.0086-23.7826 72.0247-27.8289 72.0247C-27.8289 56.6506-34.0195 48.492-46.6083 48.492L-46.6083 42.821-35.8986 42.821-35.8986-3.17149C-35.8986-21.0332-34.6767-26.9871-11.1131-26.9871-8.57694-26.9871-6.13297-26.6924-3.59678-26.3151" fill="#118B95" fill-rule="evenodd" transform="matrix(1 0 0 -1 2007 2303)"/><path d="M9.54737-26.7561 34.014-22.8503 34.014-20.2776C29.2285-19.9852 21.9683-19.4122 21.9683-9.89321L21.9683 49.2556-2.48654 45.3497-2.48654 42.777C2.19331 42.4964 9.54737 41.9234 9.54737 32.5915L9.54737 10.6767C9.54737-3.80058 0.375326-18.5585-9.84059-18.5585-18.1564-18.5585-22.543-12.4659-22.543 0.771811L-22.543 49.2556-46.9979 45.3497-46.9979 42.777C-42.1304 42.4964-34.8702 41.9234-34.8702 32.5915L-34.8702-2.74811C-34.8702-17.6113-27.8914-26.7561-14.626-26.7561 2.38098-26.7561 7.26022-12.9454 9.17204-7.70641L9.54737-7.70641" fill="#118B95" fill-rule="evenodd" transform="matrix(1 0 0 -1 1614 2303)"/><path d="M-46.9558-26.7552-10.5242-26.7552-10.5242-24.1848C-17.1704-24.1848-22.6019-22.6543-22.6019-12.3845L-22.6019 6.83484C-22.6019 21.8715-11.2834 40.051-1.85721 40.051 8.42168 40.051 8.70201 33.8704 8.70201 20.1657L8.70201-12.3845C8.70201-22.6543 3.17711-24.1848-3.38736-24.1848L-3.38736-26.7552 33.056-26.7552 33.056-24.1848C26.4915-24.1848 20.9783-22.6543 20.9783-12.3845L20.9783 23.6824C20.9783 38.4387 19.5416 47.5635 2.89678 47.5635-12.8953 47.5635-20.0321 32.4333-22.3099 26.7318L-22.6019 26.7318-22.6019 83.2565-46.9558 79.2608-46.9558 76.6904C-42.3887 76.2114-34.9716 75.7323-34.9716 66.4089L-34.9716-12.3845C-34.9716-22.6543-40.2979-24.1848-46.9558-24.1848" fill="#118B95" fill-rule="evenodd" transform="matrix(1 0 0 -1 1749 2301)"/><path d="M-32.8603 11.2497C-32.8603 24.4874-29.6348 44.0166-14.078 44.0166 1.85145 44.0166 5.07692 24.4874 5.07692 11.2497 5.07692-1.70734 1.85145-21.5171-14.078-21.5171-29.6348-21.5171-32.8603-1.70734-32.8603 11.2497M-14.078-26.7561C6.12491-26.7561 19.12-12.5595 19.12 11.2497 19.12 35.0589 6.12491 49.2556-14.078 49.2556-34.1877 49.2556-46.8917 35.0589-46.8917 11.2497-46.8917-12.5595-34.1877-26.7561-14.078-26.7561" fill="#118B95" fill-rule="evenodd" transform="matrix(1 0 0 -1 1833 2303)"/><path d="M-47.0398-26.6172-10.7539-26.6172-10.7539-24.0578C-17.4023-24.0578-22.7326-22.5338-22.7326-12.3081L-22.7326 11.5752C-22.7326 30.2351-13.5066 36.4939-10.6606 36.4939-8.38621 36.4939-6.39172 32.7945-1.63292 32.7945 2.636 32.7945 5.96016 35.6447 5.96016 40.1817 5.96016 44.835 1.50462 47.3944-2.01782 47.3944-13.9848 47.3944-19.595 38.3901-22.441 30.526L-22.7326 30.526-22.7326 47.3944-47.0398 43.6019-47.0398 40.9495C-42.386 40.6586-35.1661 40.1817-35.1661 30.7121L-35.1661-12.3081C-35.1661-22.5338-40.4848-24.0578-47.0398-24.0578" fill="#118B95" fill-rule="evenodd" transform="matrix(1 0 0 -1 1904 2301)"/><path d="M-29.1033 62.1614C-24.1158 62.1614-20.2508 66.159-20.2508 71.2086-20.2508 76.2465-24.1158 80.2441-29.1033 80.2441-34.1949 80.2441-38.1525 76.2465-38.1525 71.2086-38.1525 66.159-34.1949 62.1614-29.1033 62.1614M-46.7272-26.7675-10.7271-26.7675-10.7271-24.0908C-17.3231-24.0908-22.5999-22.6647-22.5999-12.3902L-22.5999 47.5971-46.7272 43.7865-46.7272 41.1214C-42.0175 40.8292-34.8545 40.3617-34.8545 30.8352L-34.8545-12.3902C-34.8545-22.6647-40.0387-24.0908-46.7272-24.0908" fill="#118B95" fill-rule="evenodd" transform="matrix(1 0 0 -1 1965 2301)"/><path d="M23.4237 63.7571C26.7566 72.2997 30.5689 77.3899 38.6614 77.3899L38.6614 80.0764 8.75904 80.0764 8.75904 77.3899C14.9453 77.3899 17.4245 76.0467 17.4245 72.0169 17.4245 70.0963 15.2377 64.523 12.852 58.1013L-0.479467 23.2594-17.5298 62.9912C-19.4359 67.3156-20.2896 70.5794-20.2896 73.0656-20.2896 76.3294-17.4362 77.3899-12.0101 77.3899L-12.0101 80.0764-47.3386 80.0764-47.3386 74.7977C-38.1117 74.7977-35.6326 74.0318-30.4871 62.1311L-6.66575 6.65732-11.6241-5.72648C-15.2494-14.7404-19.3424-21.1738-23.5289-21.1738-32.2997-21.1738-26.5812-9.55591-36.6733-9.55591-41.2458-9.55591-44.1109-12.7255-44.1109-16.8495-44.1109-25.1093-35.9132-26.9356-27.7155-26.9356-13.811-26.9356-8.19771-18.6759-0.0116943 2.81611" fill="#118B95" fill-rule="evenodd" transform="matrix(1 0 0 -1 2047 2335)"/><path d="M-45.6985-26.6813 26.0529-26.6813 27.3013-3.99812 22.9906-3.99812C20.5879-15.8643 17.7141-20.5151 3.99273-20.5151L-6.65455-20.5151C-16.3478-20.5151-17.5845-19.571-17.5845-10.6422L-17.5845 62.2681C-17.5845 74.1342-12.4022 75.2766-3.68651 75.2766L-3.68651 78.3189-45.6985 78.3189-45.6985 75.2766C-36.9711 75.2766-31.7887 74.1342-31.7887 62.2681L-31.7887-10.6422C-31.7887-22.5084-36.9711-23.5574-45.6985-23.5574" fill="#118B95" fill-rule="evenodd" transform="matrix(1 0 0 -1 267 2301)"/><path d="M-3.63506 0.677424C-3.63506-10.0679-10.1828-20.0658-20.5288-20.0658-25.8415-20.0658-31.2475-14.4478-31.2475-6.27201-31.2475 8.38604-11.0333 9.90441-3.63506 9.99784ZM19.7132-21.771C18.385-22.2499 16.9636-22.6236 15.5422-22.6236 10.6023-22.6236 8.79638-20.7315 8.79638-15.207L8.79638 24.0836C8.79638 38.8234 4.81179 49.2884-16.917 49.2884-27.729 49.2884-43.0149 43.9625-43.0149 33.6843-43.0149 29.4095-39.6944 26.5597-35.4185 26.5597-32.7621 26.5597-28.0202 28.3584-28.0202 34.8289-28.0202 39.8746-26.692 43.9625-17.1151 43.9625-3.72826 43.9625-3.63506 32.2594-3.63506 21.2221L-3.63506 15.2304C-15.5888 14.0974-45.2868 14.0974-45.2868-8.73643-45.2868-19.108-37.2244-26.7232-26.2144-26.7232-15.5888-26.7232-8.85463-22.2499-3.91468-15.207L-3.63506-15.207C-3.63506-21.8644-0.978669-26.7232 8.31869-26.7232 13.9227-26.7232 17.9073-25.7655 19.7132-25.3917" fill="#118B95" fill-rule="evenodd" transform="matrix(1 0 0 -1 349 2303)"/><path d="M-46.0645-26.6172-9.16559-26.6172-9.16559-24.0578C-15.9067-24.0578-21.3115-22.5338-21.3115-12.3081L-21.3115 7.02656C-21.3115 21.9987-9.8397 39.9025-0.307491 39.9025 10.1945 39.9025 10.3837 33.7484 10.3837 20.1025L10.3837-12.3081C10.3837-22.5338 4.8962-24.0578-1.84494-24.0578L-1.84494-26.6172 34.9475-26.6172 34.9475-24.0578C28.2064-24.0578 22.8134-22.5338 22.8134-12.3081L22.8134 23.6041C22.8134 38.2971 21.276 47.3944 4.3167 47.3944-11.5782 47.3944-18.8988 32.3175-21.0158 26.6404L-21.3115 26.6404-21.3115 47.3944-46.0645 43.6019-46.0645 40.9495C-41.3338 40.6586-33.9186 40.1817-33.9186 30.7121L-33.9186-12.3081C-33.9186-22.5338-39.3115-24.0578-46.0645-24.0578" fill="#118B95" fill-rule="evenodd" transform="matrix(1 0 0 -1 419 2301)"/><path d="M1.98798-26.8481 26.3699-22.9323 26.3699-20.353C21.6105-20.0599 14.3719-19.4854 14.3719-9.94201L14.3719 85.1637-10.1153 81.2478-10.1153 78.6685C-5.4377 78.1996 1.98798 77.5313 1.98798 68.2693L1.98798 37.1301 1.60208 37.1301C-0.584699 41.5267-6.58371 49.3583-16.4885 49.3583-38.4966 49.3583-45.6416 30.6467-45.6416 11.3489-45.6416-8.12478-38.4966-26.8481-16.4885-26.8481-7.72972-26.8481 0.280656-19.2978 1.60208-15.1006L1.98798-15.1006ZM-31.6322 11.3489C-31.6322 24.6206-27.9135 43.4377-14.5824 43.4377-2.29202 43.4377 1.98798 26.344 1.98798 11.3489 1.98798-2.29792-1.63716-21.0213-14.5824-21.0213-29.0595-21.0213-31.6322-2.49723-31.6322 11.3489" fill="#118B95" fill-rule="evenodd" transform="matrix(1 0 0 -1 507 2303)"/><path d="M-27.2589-26.6813 17.3669-26.6813 17.3669-23.5574C7.81509-23.5574 2.07698-22.5084 2.07698-10.6422L2.07698 72.2459 10.7722 72.2459C26.2615 72.2459 31.0374 66.8257 32.0935 56.8596L36.1067 56.8596 34.9567 78.3189-44.8488 78.3189-45.9049 56.8596-41.8917 56.8596C-40.2606 65.7883-37.8786 72.2459-21.6265 72.2459L-12.0629 72.2459-12.0629-10.6422C-12.0629-22.5084-17.7072-23.5574-27.2589-23.5574" fill="#118B95" fill-rule="evenodd" transform="matrix(1 0 0 -1 599 2301)"/><path d="M-45.6081-26.6172-9.39401-26.6172-9.39401-24.0578C-15.9361-24.0578-21.2442-22.5338-21.2442-12.3081L-21.2442 11.5752C-21.2442 30.2351-12.0481 36.4939-9.19612 36.4939-7.01932 36.4939-4.93564 32.7945-0.197891 32.7945 3.98111 32.7945 7.39182 35.6447 7.39182 40.1817 7.39182 44.835 3.02657 47.3944-0.570392 47.3944-12.4322 47.3944-18.0197 38.3901-21.0463 30.526L-21.2442 30.526-21.2442 47.3944-45.6081 43.6019-45.6081 40.9495C-40.8704 40.6586-33.7579 40.1817-33.7579 30.7121L-33.7579-12.3081C-33.7579-22.5338-38.9729-24.0578-45.6081-24.0578" fill="#118B95" fill-rule="evenodd" transform="matrix(1 0 0 -1 683 2301)"/><path d="M-3.95561 0.677424C-3.95561-10.0679-10.5871-20.0658-20.8251-20.0658-26.2234-20.0658-31.5285-14.4478-31.5285-6.27201-31.5285 8.38604-11.3549 9.90441-3.95561 9.99784ZM19.3592-21.771C17.9282-22.2499 16.5089-22.6236 14.9964-22.6236 10.2613-22.6236 8.36495-20.7315 8.36495-15.207L8.36495 24.0836C8.36495 38.8234 4.47915 49.2884-17.2302 49.2884-28.1197 49.2884-43.2907 43.9625-43.2907 33.6843-43.2907 29.4095-40.0564 26.5597-35.7983 26.5597-33.1457 26.5597-28.4106 28.3584-28.4106 34.8289-28.4106 39.8746-27.1774 43.9625-17.4163 43.9625-4.14176 43.9625-3.95561 32.2594-3.95561 21.2221L-3.95561 15.2304C-15.997 14.0974-45.6524 14.0974-45.6524-8.73643-45.6524-19.108-37.4968-26.7232-26.7004-26.7232-15.997-26.7232-9.16771-22.2499-4.33954-15.207L-3.95561-15.207C-3.95561-21.8644-1.30302-26.7232 7.79488-26.7232 13.5654-26.7232 17.4512-25.7655 19.3592-25.3917" fill="#118B95" fill-rule="evenodd" transform="matrix(1 0 0 -1 740 2303)"/><path d="M-45.9279-26.6172-9.57805-26.6172-9.57805-24.0578C-16.236-24.0578-21.574-22.5338-21.574-12.3081L-21.574 7.02656C-21.574 21.9987-10.2438 39.9025-0.829319 39.9025 9.54301 39.9025 9.7299 33.7484 9.7299 20.1025L9.7299-12.3081C9.7299-22.5338 4.31012-24.0578-2.34779-24.0578L-2.34779-26.6172 34.0839-26.6172 34.0839-24.0578C27.4259-24.0578 22.0062-22.5338 22.0062-12.3081L22.0062 23.6041C22.0062 38.2971 20.476 47.3944 3.73778 47.3944-11.8674 47.3944-19.0977 32.3175-21.282 26.6404L-21.574 26.6404-21.574 47.3944-45.9279 43.6019-45.9279 40.9495C-41.3608 40.6586-34.0371 40.1817-34.0371 30.7121L-34.0371-12.3081C-34.0371-22.5338-39.3635-24.0578-45.9279-24.0578" fill="#118B95" fill-rule="evenodd" transform="matrix(1 0 0 -1 812 2301)"/><path d="M0.810646 29.9621-0.434694 46.5531C-3.97099 47.7005-12.2067 49.2226-18.7036 49.2226-31.7209 49.2226-45.126 44.2582-45.126 29.6694-45.126 22.9955-43.117 19.0849-36.8903 14.6005-28.0907 8.02033-7.70702 2.40025-7.70702-8.85164-7.70702-14.2961-13.1583-21.6373-23.497-21.6373-36.8903-21.6373-40.7203-11.9076-42.1536-6.47481L-46.2656-6.47481-45.126-24.0142C-40.8143-25.3606-33.542-26.7891-24.5426-26.7891-6.84937-26.7891 4.73464-19.0615 4.73464-5.42104 4.73464 6.31089-1.962 10.8889-9.99797 15.3616-18.9973 20.4196-32.6726 25.0913-32.6726 34.0601-32.6726 41.4013-25.412 44.0708-19.479 44.0708-8.08297 44.0708-4.54667 35.2075-3.20734 29.9621" fill="#118B95" fill-rule="evenodd" transform="matrix(1 0 0 -1 898 2303)"/><path d="M-21.6855 43.1648C-21.6855 56.8932-17.962 75.3071-5.37455 75.3071 9.21518 75.3071 11.6975 57.0924 11.6975 43.1648 11.6975 29.7995 8.26673 10.9171-5.37455 10.9171-17.4819 10.9171-21.6855 28.0894-21.6855 43.1648M-46.193-26.7774-9.66013-26.7774-9.66013-24.013C-16.3461-24.013-21.6855-22.4785-21.6855-12.2759L-21.6855 17.3948-21.3928 17.3948C-19.2032 12.8147-13.1963 5.09544-3.37226 5.09544 18.6645 5.09544 25.8072 23.5093 25.8072 43.1648 25.8072 62.5275 18.6645 81.2225-3.37226 81.2225-12.1425 81.2225-19.8706 73.7843-21.3928 69.4971L-21.6855 69.4971-21.6855 81.2225-46.193 77.3102-46.193 74.7449C-41.4273 74.452-34.1793 73.9718-34.1793 64.4368L-34.1793-12.2759C-34.1793-22.4785-39.5187-24.013-46.193-24.013" fill="#118B95" fill-rule="evenodd" transform="matrix(1 0 0 -1 955 2335)"/><path d="M-32.0322 11.2497C-32.0322 24.4874-28.8954 44.0166-13.0367 44.0166 2.72862 44.0166 5.95866 24.4874 5.95866 11.2497 5.95866-1.70734 2.72862-21.5171-13.0367-21.5171-28.8954-21.5171-32.0322-1.70734-32.0322 11.2497M-13.0367-26.7561C7.10141-26.7561 19.9283-12.5595 19.9283 11.2497 19.9283 35.0589 7.10141 49.2556-13.0367 49.2556-33.2682 49.2556-46.0834 35.0589-46.0834 11.2497-46.0834-12.5595-33.2682-26.7561-13.0367-26.7561" fill="#118B95" fill-rule="evenodd" transform="matrix(1 0 0 -1 1036 2303)"/><path d="M-46.165-26.6172-9.87917-26.6172-9.87917-24.0578C-16.5392-24.0578-21.8578-22.5338-21.8578-12.3081L-21.8578 11.5752C-21.8578 30.2351-12.5385 36.4939-9.78586 36.4939-7.51143 36.4939-5.51694 32.7945-0.664832 32.7945 3.60409 32.7945 6.83494 35.6447 6.83494 40.1817 6.83494 44.835 2.46104 47.3944-1.04973 47.3944-12.9234 47.3944-18.5336 38.3901-21.5662 30.526L-21.8578 30.526-21.8578 47.3944-46.165 43.6019-46.165 40.9495C-41.5228 40.6586-34.198 40.1817-34.198 30.7121L-34.198-12.3081C-34.198-22.5338-39.61-24.0578-46.165-24.0578" fill="#118B95" fill-rule="evenodd" transform="matrix(1 0 0 -1 1109 2301)"/><path d="M-2.78425-20.9389C-4.94465-21.2219-6.9202-21.7053-8.99972-21.7053-17.5604-21.7053-22.921-19.7835-22.921-7.68703L-22.921 42.821-2.78425 42.821-2.78425 48.0086-22.921 48.0086-22.921 72.0247-26.9761 72.0247C-26.9761 56.6506-33.18 48.492-45.7958 48.492L-45.7958 42.821-35.0631 42.821-35.0631-3.17149C-35.0631-21.0332-33.8385-26.9871-10.2243-26.9871-7.77512-26.9871-5.23347-26.6924-2.78425-26.3151" fill="#118B95" fill-rule="evenodd" transform="matrix(1 0 0 -1 1168 2303)"/><path d="M154.031 94.2082C154.031 94.2082 232.324 132.393 233.367 178.888 234.328 225.289 198.997 256.219 154.406 255.644 110.013 256.219 74.5888 225.289 75.55 178.888 76.4995 132.393 154.031 94.2082 154.031 94.2082M121.279 53.3628-3.03607-26.8279-46.6664-26.8279 104.668 65.5754 103.144 66.6302C103.144 66.6302 22.7529 115.504 39.2696 178.888 39.2696 178.888 53.8755 258.785 154.886 259.172 256.096 258.785 270.409 178.888 270.409 178.888 286.844 115.504 206.453 66.6302 206.453 66.6302L204.729 65.3878 356.345-26.8279 234.328-26.8279 154.886 29.7814 75.257-26.8279 35.5419-26.8279 138.182 41.4314ZM186.583 74.9282 169.586 84.5741 170.934 85.5234C260.387 139.941 247.879 176.884 245.019 204.567 262.391 175.934 257.902 156.08 254.186 145.379 243.495 115.504 209.219 90.3053 186.583 74.9282" fill="#263D83" fill-rule="evenodd" transform="matrix(1 0 0 -1 1171 2394)"/></g></svg>