<svg width="785" height="179" xmlns="http://www.w3.org/2000/svg" xmlns:xlink="http://www.w3.org/1999/xlink" xml:space="preserve" overflow="hidden"><g transform="translate(-322 -710)"><path d="M19.7871 83.2809C28.7878 83.1223 35.3127 81.1664 40.6553 79.0135 38.4594 74.3185 36.6496 69.4264 34.6033 64.6496 27.2917 67.8598 12.9823 70.325 8.58085 61.3626 8.06928 60.3823 7.71697 58.8156 7.75558 57.72 7.99206 53.0633 12.4755 49.1083 16.2109 45.3936 24.7387 37.4452 34.0917 28.5596 34.0917 16.0747 34.0917 9.26518 32.2047 2.9218 28.0784-2.55657 15.0672-18.564-9.54124-19.1887-27.3448-8.65968L-20.4676 5.31018C-11.7806 0.692005-2.3841-3.81083 6.46218 3.43119 15.8538 12.7877 2.60611 22.6103-3.68233 28.8768-14.2178 39.3242-19.3238 48.6806-14.295 63.6693-8.67254 77.7641 5.87339 83.1608 19.7871 83.2809" fill="#E23C2C" fill-rule="evenodd" transform="matrix(1 0 0 -1 350 848)"/><path d="M-2.83681 73.1262 18.9009 73.1262 12.4772 48.1748 30.0606 48.0971C43.7254 47.6214 66.795 45.6456 70.9829 43.9855 66.8719 41.6942 34.4841 36.7088 18.0787 36.7913L9.73171 36.7913-3.73594-15.8738-25.5121-15.8738-11.4915 39.199C-13.6456 39.5194-27.1565 43.0777-28.0171 44.8155-26.4112 46.199-13.1359 47.3058-9.41438 47.267L-2.83681 73.1262" fill="#6D3488" fill-rule="evenodd" transform="matrix(1 0 0 -1 1036 847)"/><path d="M37.6812 61.2051C44.3715 61.5575 53.5323 56.5275 53.2199 48.4273 53.2199 41.2684 50.6773 34.153 49.149 27.1921L38.1522-15.7804 16.1491-15.7804 30.1642 39.5789C30.3564 41.3505 29.9671 42.3304 29.7701 42.6442 27.737 46.2647 24.1756 45.8688 20.8833 43.7883 17.1296 41.4277 13.645 36.866 12.1551 34.3896 3.07602 19.3719-1.42746 1.20682-6.00784-15.7804L-27.7755-15.7804-8.31966 59.5156 12.0782 59.5156 7.18538 40.2113C13.9959 50.4692 24.5264 61.2051 37.6812 61.2051" fill="#6D3488" fill-rule="evenodd" transform="matrix(1 0 0 -1 835 847)"/><path d="M-8.53472 60.2197 13.8465 60.2197-5.73343-15.7802-28.1583-15.7802-8.53472 60.2197" fill="#6D3488" fill-rule="evenodd" transform="matrix(1 0 0 -1 989 847)"/><path d="M108.316 139.16 157.248 138.177C187.955 137.388 218.623 135.611 249.33 131.787 229.857 125.125 200.013 119.921 175.115 117.592 147.388 115.031 120.099 114.75 92.179 114.75L58.5213-15.8403C49.65-5.66902 44.5828 3.71803 44.5828 17.5977 43.8403 39.6347 50.1997 62.3883 55.1463 83.6411L63.2751 115.147C39.1636 116.29 5.15882 120.468-22.4095 129.342L-27.6696 131.67C13.519 138.768 61.901 137.857 108.316 139.16" fill="#6D3488" fill-rule="evenodd" transform="matrix(1 0 0 -1 565 873)"/><path d="M70.0512-0.95805 119.87-1.94513C132.541-2.77254 145.251-3.63865 157.922-4.50477 167.651-5.1725 174.827-5.84507 177.495-6.5128 174.827-8.28858 163.923-10.0982 145.525-12.2659 126.733-14.4337 99.8247-14.8691 80.7623-15.6191 70.3257-15.6191 67.6961-15.6578 58.9114-15.9336 55.9687-16.0498 33.8432-15.8949 6.97381-12.8611-12.1319-10.2579-24.2109-7.34021-27.5051-5.37089-17.7379-3.47898 6.11172-1.86287 32.042-1.27256L70.0512-0.95805" fill="#E23C2C" fill-rule="evenodd" transform="matrix(1 0 0 -1 479 710)"/><path d="M19.6196 83.2809C28.5867 83.1223 35.1153 81.1664 40.4608 79.0135 38.2589 74.3185 36.4529 69.4264 34.4055 64.6496 27.0898 67.8598 12.8157 70.325 8.37321 61.3626 7.89998 60.3823 7.54265 58.8156 7.58128 57.72 7.81789 53.0633 12.3039 49.1083 16.0414 45.3936 24.574 37.4452 33.9371 28.5596 33.9371 16.0747 33.9371 9.26518 32.0055 2.9218 27.9155-2.55657 14.897-18.564-9.72045-19.1887-27.5389-8.65968L-20.6578 5.31018C-11.9659 0.692005-2.56411-3.81083 6.28715 3.43119 15.6454 12.7877 2.42891 22.6103-3.86307 28.8768-14.3996 39.3242-19.5133 48.6806-14.4817 63.6693-8.89472 77.7641 5.65457 83.1608 19.6196 83.2809" fill="#E23C2C" fill-rule="evenodd" transform="matrix(1 0 0 -1 511 848)"/><path d="M33.3036 61.1441 39.1533 61.1441 34.3707 42.6544 34.3319 42.5768C27.8516 42.6156 25.4409 41.8637 21.2161 38.5849 13.9452 32.973 9.83683 24.6788 5.56838 16.341 0.829436 6.1503-2.68718-5.26753-5.68964-15.8559L-27.8516-15.8559-8.25556 59.8393 14.1441 59.8393 7.38732 33.0942C8.49323 36.213 12.6016 43.7603 16.71 49.605 20.862 55.571 28.1281 61.3381 33.3036 61.1441" fill="#6D3488" fill-rule="evenodd" transform="matrix(1 0 0 -1 682 847)"/><path d="M-8.53472 60.2197 13.8465 60.2197-5.73343-15.7802-28.1583-15.7802-8.53472 60.2197" fill="#6D3488" fill-rule="evenodd" transform="matrix(1 0 0 -1 989 847)"/><path d="M16.1633 63.1729C22.231 63.1729 30.4823 61.3955 35.3078 59.4631L30.3246 47.9463C24.8397 50.0337 16.2779 52.4407 10.7118 49.2055 5.65212 46.29 5.2269 41.1612 9.54602 37.0979 20.4824 26.8015 32.9715 16.4277 24.682-1.08485 21.1035-8.30585 13.5546-12.8826 4.95457-14.7762-4.34779-16.8248-14.8541-15.7981-22.1689-12.4854L-27.6968-9.80236-21.9348 1.3609C-14.5054-2.38763-5.16479-6.21365 2.61823-1.44323 7.98846 2.58135 6.70324 7.55034 2.73767 12.3643-6.72235 22.4621-20.5732 32.9571-11.8155 49.3654-6.72235 58.8723 6.0439 63.1729 16.1633 63.1729" fill="#6D3488" fill-rule="evenodd" transform="matrix(1 0 0 -1 922 848)"/><path d="M-8.53472 60.2197 13.8465 60.2197-5.73343-15.7802-28.1583-15.7802-8.53472 60.2197" fill="#6D3488" fill-rule="evenodd" transform="matrix(1 0 0 -1 989 847)"/><path d="M-2.7449-4.40134-5.69985-16.4014-27.7498-16.4014-24.7901-4.40134-2.7449-4.40134" fill="#6D3488" fill-rule="evenodd" transform="matrix(1 0 0 -1 1011 762)"/><path d="M-8.10615 81.1767 25.2804 81.1767C38.3121 81.2154 47.443 78.3033 52.0495 72.5081 59.5708 62.2286 53.8622 46.3473 44.6491 40.9101 40.5163 38.4672 36.5768 36.3 32.0137 34.96 47.5638 31.6512 54.215 22.078 50.7154 8.01077 48.8641 0.643377 43.8612-5.42275 37.9544-8.96858 30.554-13.4625 23.5064-15.354 13.6263-15.828L-27.4749-15.828ZM20.7125 66.2049C31.1437 66.2049 31.1437 56.7865 27.7987 49.4191 23.8641 40.8327 18.3488 41.4228 9.5321 41.4615L14.4528 66.2049ZM6.73821 27.3943 15.7531 27.3943C16.3428 27.3943 21.6551 26.8041 24.333 23.892 25.9474 22.1554 26.4598 19.0836 26.1069 16.128 25.2417 6.5547 19.6877-0.657889 10.1218-0.657889L1.10692-0.657889 6.73821 27.3943" fill="#E23C2C" fill-rule="evenodd" transform="matrix(1 0 0 -1 422 847)"/><path d="M28.2562 62.4058C37.4554 62.4058 45.7127 60.0771 54.3255 57.0804L36.201-13.6903 15.2984-13.6903 20.7776 7.10046C14.4381-2.46225 3.16254-15.5991-9.63662-15.5991-20.2489-15.5991-26.5884-8.67992-27.492 1.62242-28.7032 15.1076-23.8873 27.2327-16.4519 38.2699-6.1136 52.6522 10.1701 62.4058 28.2562 62.4058ZM25.1994 50.982C26.7662 50.982 29.0781 50.5526 30.6834 50.3569 26.3769 35.3925 20.9747 20.0798 12.0494 7.21498 9.85771 4.76704 6.95951 1.46495 3.62875 0.648966-11.9869-2.38113-0.00961259 26.4931 3.62875 32.9875 8.32931 41.7295 15.7646 50.982 25.1994 50.982" fill="#6D3488" fill-rule="evenodd" transform="matrix(1 0 0 -1 746 848)"/></g></svg>