<svg width="698" height="190" xmlns="http://www.w3.org/2000/svg" xmlns:xlink="http://www.w3.org/1999/xlink" xml:space="preserve" overflow="hidden"><g transform="translate(-621 -335)"><path d="M428.458-27.8928 0.242784-27.8928C-3.33655-27.8928-6.15978-24.9608-6.15978-21.393-6.15978-17.8251-3.33655-14.8861 0.242784-14.8861L428.458-14.8861C431.962-14.8861 434.847-17.8251 434.847-21.393 434.847-24.9608 431.962-27.8928 428.458-27.8928" fill="#AF851D" fill-rule="evenodd" transform="matrix(1 0 0 -1 856 457)"/><path d="M99.9023-24.3085 116.664-1.68338C117.745-0.0484924 119.423 1.13611 121.585 1.13611L175.945 1.13611C176.014 1.13611 176.014 1.13611 176.014 1.08069L199.375 1.08069C200.56 1.08069 201.468 2.20987 201.177 3.33905 193.393 40.6366 163.357 69.6905 125.64 76.1815 120.504 77.0267 115.187 77.5324 109.78 77.5324L109.718 77.5324C109.434 77.5324 109.212 77.477 108.921 77.477 107.735 77.477 106.495 77.477 105.302 77.4215 104.297 77.3661 103.347 77.2483 102.328 77.1929 101.933 77.1375 101.531 77.1375 101.136 77.0821 57.7149 73.1334 22.8891 39.5628 17.0732-3.26284 16.9554-4.16342 16.1582-4.90466 15.2155-4.90466L10.6266-4.90466C10.0096-4.90466 9.50361-5.18176 9.10156-5.63204L-5.40687-24.4817C-6.30801-25.7217-5.44846-27.4744-3.88186-27.4744L93.9756-27.4744C96.3948-27.4744 98.5367-26.2274 99.9023-24.3085M83.4114-4.90466 44.4611-4.90466C43.2688-4.90466 42.3607-3.8309 42.5826-2.6463 48.8074 28.6728 76.528 52.4272 109.718 52.4272 131.29 52.4272 150.54 42.4378 163.066 26.8094 164.085 25.5693 163.177 23.7058 161.61 23.7058L114.016 23.7058C109.718 23.7058 105.593 21.3366 102.155 16.8199L89.5184-1.28851C88.3261-3.43603 86.0524-4.90466 83.4114-4.90466" fill="#EA0729" fill-rule="evenodd" transform="matrix(1 0 0 -1 627 413)"/><path d="M200.817 74.5951C201.76 75.8906 200.852 77.6432 199.334 77.6432L101.514 77.6432C99.019 77.6432 96.8772 76.3478 95.5811 74.4843L78.7522 51.9145C77.6986 50.2242 75.9935 49.0951 73.9003 49.0951L19.4766 48.9773 19.4766 49.0951C19.4766 49.0951 19.4766 49.0951 19.4766 49.0951L-3.89533 49.0951C-5.0667 49.0951-6.03707 47.9659-5.74595 46.8367 1.81597 10.8415 29.9774-17.485 65.874-25.216 72.2022-26.6292 78.8631-27.3636 85.6348-27.3636L85.6972-27.3636C85.6972-27.3636 85.6348-27.3636 85.6972-27.3636L85.7665-27.3636C85.7665-27.3636 85.6972-27.3636 85.7665-27.3636 86.2101-27.3636 86.6745-27.3636 87.1112-27.3636 88.0815-27.3081 89.0311-27.3081 90.0015-27.2458 91.4154-27.1904 92.7601-27.0795 94.0978-26.9687 137.633-23.1309 172.524 10.5021 178.409 53.3832 178.513 54.3392 179.247 55.0181 180.19 55.0181L184.82 55.0181C185.395 55.0181 185.971 55.3021 186.303 55.7524ZM85.7665-2.30685C64.1967-2.30685 44.9488 7.73107 32.3548 23.3595 31.3844 24.6064 32.2439 26.4076 33.8103 26.4076L81.4692 26.4076C85.6972 26.4076 89.8213 28.7768 93.3284 33.3489L105.922 51.4643C107.156 53.6049 109.36 55.0181 111.939 55.0181L151.017 55.0181C152.14 55.0181 153.11 53.9443 152.833 52.8151 146.678 21.4475 118.891-2.30685 85.7665-2.30685" fill="#EA0729" fill-rule="evenodd" transform="matrix(1 0 0 -1 651 495)"/><path d="M-6.08483-25.8847-6.08483-23.0592C-6.08483-22.6177-5.68998-22.1762-5.16822-22.1762L14.1227-22.1762C15.3919-22.1762 16.3649-21.8977 16.9994-21.2932 17.6834-20.6819 18.0289-19.8533 18.0289-18.8005 18.0289-17.6934 17.6834-16.8648 16.9994-16.3146 16.3649-15.7577 15.3919-15.486 14.1227-15.486L1.72039-15.486C0.458301-15.486-0.690977-15.2618-1.72744-14.929-2.75686-14.5419-3.56065-14.046-4.30803-13.3804-4.999-12.7216-5.51371-11.9405-5.91561-11.0575-6.3175-10.1202-6.49377-9.12178-6.49377-8.06901-6.49377-6.9619-6.3175-6.02459-5.97201-5.14161-5.62652-4.19751-5.05541-3.47755-4.36443-2.81872-3.67346-2.20743-2.81326-1.70482-1.78385-1.32446-0.690977-0.930517 0.458301-0.767506 1.7768-0.767506L20.271-0.767506C20.7857-0.767506 21.1312-1.15466 21.1312-1.65727L21.1312-4.47599C21.1312-4.91748 20.7857-5.30462 20.271-5.30462L1.7768-5.30462C0.690977-5.30462-0.112813-5.5831-0.690977-6.13326-1.32555-6.68342-1.60758-7.51885-1.60758-8.51049-1.60758-9.50893-1.32555-10.2832-0.690977-10.8334-0.112813-11.3903 0.690977-11.6077 1.7768-11.6077L14.1227-11.6077C16.8796-11.6077 18.9525-12.2733 20.3274-13.4891 21.7658-14.7117 22.5131-16.5863 22.5131-19.1333 22.5131-20.2404 22.3369-21.2389 21.9914-22.1762 21.653-23.1203 21.1312-23.8946 20.4402-24.5534 19.7563-25.2734 18.8326-25.776 17.8032-26.1563 16.7668-26.5503 15.5047-26.7676 14.1227-26.7676L-5.16822-26.7676C-5.68998-26.7676-6.08483-26.3262-6.08483-25.8847" fill="#54565A" fill-rule="evenodd" transform="matrix(1 0 0 -1 1265 498)"/><path d="M2.43427-1.6517C2.03783-1.6517 1.70399-1.93505 1.59271-2.27368L-5.94657-26.2475C-6.0648-26.5309-5.99525-26.8142-5.84224-27.0354-5.66141-27.2634-5.37625-27.374-5.11196-27.374L66.6085-27.374C80.8316-27.0354 91.5493-19.8342 95.2842-8.00971 97.3846-1.42364 97.0299 1.94887 96.6335 6.23361L96.5917 6.73811C96.1953 11.1265 93.6497 16.1922 89.9079 20.0761 86.1035 24.0153 68.5977 41.3547 68.4238 41.5759 65.8713 44.0569 66.4972 46.137 67.0676 47.2082 68.2012 49.2331 69.7939 49.8551 73.5775 49.8551L109.09 49.8551C109.493 49.8551 109.848 50.1315 109.959 50.5255L116.97 74.4509C117.04 74.7343 116.97 75.0107 116.817 75.2388 116.636 75.4668 116.414 75.6327 116.135 75.6327L55.0144 75.6327C35.1856 75.4046 24.6278 62.2947 24.5235 49.4059 24.4053 41.1819 28.6548 37.3049 38.7883 27.8439 40.5619 26.2683 42.4188 24.5267 44.4567 22.6055L50.2572 17.374C55.6334 12.253 59.264 8.2585 56.8714 2.90948 55.0562-1.20249 51.9403-1.6517 45.7155-1.6517" fill="#EA0729" fill-rule="evenodd" transform="matrix(1 0 0 -1 861 435)"/><path d="M108.79 49.9104C109.809 49.9104 112.743 49.7445 114.623 47.8233 117.224 45.1211 116.981 41.9698 116.537 40.3941 116.537 40.2835 116.537 40.173 116.475 40.0555L97.6715-26.2475C97.6022-26.5862 97.6022-26.8695 97.7825-26.9801 97.9559-27.2634 98.2195-27.374 98.5108-27.374L127.44-27.374C127.836-27.374 128.169-27.0976 128.28-26.6967L149.816 46.8143C151.959 52.8337 153.547 64.209 148.692 70.0003 144.676 74.7343 140.147 75.6327 133.156 75.6327L93.6557 75.6327C93.2534 75.6327 92.9274 75.3493 92.8164 74.9554L90.6524 69.33C90.3888 68.4246 89.4802 67.699 88.4052 67.5262 87.3232 67.2982 86.262 67.8096 85.5753 68.708L85.3603 69.1019C84.5002 70.3389 83.1963 72.1427 80.7271 73.435 76.9886 75.3493 74.0617 75.6327 68.4089 75.6327L23.8804 75.6327C23.5058 75.6327 23.1451 75.3493 23.0411 74.9554L-6.11054-26.2475C-6.15216-26.4756-6.11054-26.7589-5.93714-26.9801-5.78455-27.2634-5.5418-27.374-5.25049-27.374L24.5185-27.374C24.9138-27.374 25.2467-27.0976 25.3577-26.6967L46.651 47.8233C47.0047 49.0051 48.1769 49.9104 49.4323 49.9104L58.2339 49.9104C58.3518 49.9104 62.2984 50.1315 64.5664 46.8143 66.3143 44.278 65.2323 40.8502 65.1907 40.6774L46.2071-26.2475C46.103-26.5862 46.2071-26.8695 46.325-26.9801 46.4706-27.2634 46.7619-27.374 47.0532-27.374L76.8153-27.374C77.2175-27.374 77.5435-27.0976 77.6822-26.6967L98.7952 47.8233C99.1905 49.0051 100.314 49.9104 101.556 49.9104L108.394 49.9104C108.394 49.9104 108.568 49.9104 108.79 49.9104" fill="#EA0729" fill-rule="evenodd" transform="matrix(1 0 0 -1 966 435)"/><path d="M114.643 49.8785 136.59 49.8785C137.722 49.8785 138.34 49.6504 138.91 48.9175 139.472 48.2468 139.25 47.0645 138.965 46.214L117.866-26.2599C117.81-26.488 117.866-26.7715 118.032-27.0481 118.206-27.2762 118.435-27.3869 118.769-27.3869L148.355-27.3869C148.751-27.3869 149.091-27.1656 149.202-26.7715L171.038 47.8458C171.378 49.0281 172.51 49.8785 173.809 49.8785L198.304 49.8785C198.7 49.8785 199.04 50.1551 199.152 50.5492L206.618 74.4859C206.736 74.7694 206.68 75.1082 206.506 75.2741 206.34 75.5023 206.055 75.6129 205.77 75.6129L119.053 75.6129C118.658 75.6129 118.317 75.3847 118.151 75.1082L112.831 59.8971C112.608 59.2264 112.15 58.8323 111.587 58.7701 110.566 58.7148 110.004 59.6758 109.83 60.0146 103.552 70.372 94.676 75.6129 83.3624 75.6129L23.5579 75.6129C23.1551 75.6129 22.8286 75.3847 22.7175 74.9906L-6.29923-26.2599C-6.36868-26.488-6.29923-26.7715-6.13949-27.0481-5.96586-27.2762-5.67417-27.3869-5.45887-27.3869L23.3981-27.3869C23.8426-27.3869 24.1968-27.1656 24.301-26.7715L45.3447 47.8458C45.6851 49.0281 46.8727 49.8785 48.1158 49.8785L66.8399 49.8785C71.8196 49.8163 75.7227 48.5234 78.098 46.1034 79.8551 44.2435 80.7579 41.8789 80.6468 39.0095 80.4732 31.7428 74.0837 28.2511 61.013 28.424L48.852 28.424C48.5742 28.424 48.2895 28.2511 48.1158 28.023 47.9492 27.7464 47.8936 27.5182 48.0047 27.2417L69.7846-26.654C69.8958-27.1656 70.2361-27.3869 70.632-27.3869L100.559-27.3869C100.836-27.3869 101.065-27.2762 101.232-27.0481 101.406-26.8821 101.461-26.654 101.406-26.3705L84.3208 13.2751C84.036 14.0564 83.5291 15.0728 83.9805 15.7504 84.4319 16.3657 85.7376 16.5939 86.4113 16.7598 93.3703 18.0597 109.497 23.5772 111.358 47.0645 111.532 48.9728 112.324 49.8785 114.643 49.8785" fill="#EA0729" fill-rule="evenodd" transform="matrix(1 0 0 -1 1112 435)"/><path d="M-1.99744-10.75-1.99744-25.6665C-1.99744-26.3337-2.50374-26.8307-3.18343-26.8307L-5.10458-26.8307C-5.78426-26.8307-6.34604-26.3337-6.34604-25.6665L-6.34604-3.54702C-6.34604-2.70962-6.11717-2.1037-5.66636-1.60671-5.27103-1.10291-4.70925-0.878245-4.02956-0.878245-3.63424-0.878245-3.34988-0.939518-3.07246-1.10291-2.73261-1.21184-2.39277-1.49097-2.05293-1.82457L14.3289-17.5172C15.0641-18.2389 16.361-17.6874 16.361-16.6867L16.361-1.98796C16.361-1.38204 16.8742-0.82378 17.4915-0.82378L19.4681-0.82378C20.1478-0.82378 20.6541-1.38204 20.6541-1.98796L20.6541-24.0598C20.6541-24.8904 20.4322-25.5576 20.0369-26.0546 19.6415-26.4971 19.0728-26.7218 18.4555-26.7218 17.6649-26.7218 16.9852-26.3882 16.361-25.7823L0.0346778-9.9194C-0.693557-9.19774-1.99744-9.70154-1.99744-10.75" fill="#54565A" fill-rule="evenodd" transform="matrix(1 0 0 -1 1231 498)"/><path d="M21.6877-26.3344 18.4436-20.9993C18.2129-20.665 17.8144-20.4399 17.4159-20.4399L7.67669-20.4399C6.7678-20.4399 6.20148-19.4438 6.65593-18.6661L7.45297-17.3903C7.62076-17.0014 8.01928-16.7763 8.47373-16.7763L13.7733-16.7763C14.6822-16.7763 15.2555-15.7734 14.8011-14.9956L11.0396-8.88958C10.5852-8.105 9.44555-8.105 8.93517-8.88958L-1.65699-26.3344C-1.88771-26.6687-2.2303-26.887-2.68475-26.887L-5.13178-26.887C-6.04068-26.887-6.66992-25.891-6.15953-25.1132L7.90741-2.27186C8.19407-1.88298 8.53665-1.4941 8.87225-1.21439 9.21483-0.996069 9.66928-0.880088 10.1867-0.880088 10.697-0.880088 11.0956-0.996069 11.4941-1.21439 11.7807-1.4941 12.1233-1.88298 12.403-2.27186L26.4699-25.1132C26.9873-25.891 26.414-26.887 25.4492-26.887L22.7155-26.887C22.3169-26.887 21.9184-26.6687 21.6877-26.3344" fill="#54565A" fill-rule="evenodd" transform="matrix(1 0 0 -1 1179 498)"/><path d="M3.65987-25.6665 3.65987-6.53578C3.65987-5.87539 3.16327-5.37159 2.4898-5.37159L-4.93199-5.37159C-5.60546-5.37159-6.09525-4.8746-6.09525-4.20741L-6.09525-1.98796C-6.09525-1.32758-5.60546-0.82378-4.93199-0.82378L16.7347-0.82378C17.4082-0.82378 17.9048-1.32758 17.9048-1.98796L17.9048-4.20741C17.9048-4.8746 17.4082-5.37159 16.7347-5.37159L9.31295-5.37159C8.7007-5.37159 8.14288-5.87539 8.14288-6.53578L8.14288-25.6665C8.14288-26.3337 7.64628-26.8307 7.00002-26.8307L4.82995-26.8307C4.2245-26.8307 3.65987-26.3337 3.65987-25.6665" fill="#54565A" fill-rule="evenodd" transform="matrix(1 0 0 -1 1114 498)"/><path d="M-5.54741-0.82378-3.17102-0.82378C-2.49633-0.82378-1.82165-1.38204-1.82165-1.98796L-1.82165-25.6665C-1.82165-26.3337-2.49633-26.8307-3.17102-26.8307L-5.54741-26.8307C-6.22209-26.8307-6.82931-26.3337-6.82931-25.6665L-6.82931-1.98796C-6.82931-1.38204-6.22209-0.82378-5.54741-0.82378" fill="#54565A" fill-rule="evenodd" transform="matrix(1 0 0 -1 1219 498)"/><path d="M17.6229-26.4427 11.5847-19.9001C11.3631-19.6278 11.0238-19.512 10.7399-19.512L2.73518-19.512C2.11198-19.512 1.55109-18.9606 1.55109-18.3478L1.55109-16.6867C1.55109-16.0195 2.11198-15.5225 2.73518-15.5225L12.3187-15.5225C14.0152-15.5225 15.2547-15.0799 16.0441-14.1881 16.8889-13.303 17.2836-12.0299 17.2836-10.3075 17.2836-8.64629 16.8889-7.37317 15.9887-6.59705 15.1439-5.75965 13.9529-5.31713 12.3187-5.31713L-0.602433-5.31713C-1.21871-5.31713-1.79345-5.87539-1.79345-6.48131L-1.79345-25.6665C-1.79345-26.3337-2.29894-26.8307-2.95677-26.8307L-5.04797-26.8307C-5.7335-26.8307-6.23899-26.3337-6.23899-25.6665L-6.23899-1.98796C-6.23899-1.32758-5.7335-0.82378-5.04797-0.82378L12.3187-0.82378C13.8421-0.82378 15.1439-1.04845 16.328-1.49097 17.4498-1.94031 18.4677-2.54623 19.2571-3.37682 20.0465-4.20741 20.6697-5.15373 21.1198-6.31792 21.5699-7.4821 21.7361-8.80968 21.7361-10.253 21.7361-12.418 21.286-14.2425 20.3858-15.6859 19.7072-16.6867 18.8624-17.5172 17.8445-18.13 17.1728-18.5725 16.9997-19.4031 17.5675-19.9613L22.4147-24.8359C23.1487-25.5576 22.6432-26.8307 21.5699-26.8307L18.5231-26.8307C18.1838-26.8307 17.8445-26.7218 17.6229-26.4427" fill="#54565A" fill-rule="evenodd" transform="matrix(1 0 0 -1 1144 498)"/></g></svg>