<svg width="176" height="108" viewBox="0 0 176 108" xmlns="http://www.w3.org/2000/svg"><mask id="satori_om-id"><rect x="0" y="0" width="176" height="108" fill="#fff"/></mask><mask id="satori_om-id-0"><rect x="30" y="0" width="116" height="108" fill="#fff"/></mask><defs><clipPath id="satori_bc-id-0-0"><rect x="30" y="39" width="116" height="30"/></clipPath></defs><mask id="satori_om-id-0-0"><rect x="30" y="43" width="116" height="22" fill="#fff"/><path width="116" height="30" fill="none" stroke="#000" stroke-width="8" d="M30,39 A0,0 0 0 1 30,39 h116 A0,0 0 0 1 146,39"/><path width="116" height="30" fill="none" stroke="#000" stroke-width="8" d="M146,69 A0,0 0 0 1 146,69 h-116 A0,0 0 0 1 30,69"/></mask><path width="116" height="30" clip-path="url(#satori_bc-id-0-0)" fill="none" stroke="white" stroke-width="8" d="M30,39 A0,0 0 0 1 30,39 h116 A0,0 0 0 1 146,39"/><path width="116" height="30" clip-path="url(#satori_bc-id-0-0)" fill="none" stroke="white" stroke-width="8" d="M146,69 A0,0 0 0 1 146,69 h-116 A0,0 0 0 1 30,69"/><mask id="satori_om-id-1"><rect x="0" y="0" width="176" height="108" fill="#fff"/></mask><defs><clipPath id="satori_bc-id-1-0"><path x="0" y="0" width="176" height="108" d="M30,0 h116 a30,54 0 0 1 30,54 v0 a30,54 0 0 1 -30,54 h-116 a30,54 0 0 1 -30,-54 v0 a30,54 0 0 1 30,-54"/></clipPath></defs><clipPath id="satori_cp-id-1-0"><path x="0" y="0" width="176" height="108" d="M30,0 h116 a30,54 0 0 1 30,54 v0 a30,54 0 0 1 -30,54 h-116 a30,54 0 0 1 -30,-54 v0 a30,54 0 0 1 30,-54"/></clipPath><mask id="satori_om-id-1-0"><rect x="4" y="4" width="168" height="100" fill="#fff"/><path width="176" height="108" fill="none" stroke="#000" stroke-width="8" d="M3.7749999999999986,27.775 A30,54 0 0 1 30,0 h116 a30,54 0 0 1 30,54 v0 a30,54 0 0 1 -30,54 h-116 a30,54 0 0 1 -30,-54 v0 A30,54 0 0 1 3.7749999999999986,27.775"/></mask><path width="176" height="108" clip-path="url(#satori_bc-id-1-0)" fill="none" stroke="white" stroke-width="8" d="M3.7749999999999986,27.775 A30,54 0 0 1 30,0 h116 a30,54 0 0 1 30,54 v0 a30,54 0 0 1 -30,54 h-116 a30,54 0 0 1 -30,-54 v0 A30,54 0 0 1 3.7749999999999986,27.775"/><mask id="satori_om-id-1-0-0"><rect x="4" y="4" width="168" height="100" fill="#fff" mask="url(#satori_om-id-1-0)"/></mask><mask id="satori_om-id-1-0-0-0"><rect x="4" y="4" width="168" height="100" fill="#fff" mask="url(#satori_om-id-1-0)"/></mask><rect x="4" y="4" width="168" height="100" fill="#708270" clip-path="url(#satori_cp-id-1-0)" mask="url(#satori_om-id-1-0)"/><mask id="satori_om-id-1-0-0-0-0"><rect x="55" y="35" width="67" height="38" fill="#fff" mask="url(#satori_om-id-1-0)"/></mask><g clip-path="url(#satori_cp-id-1-0)" mask="url(#satori_om-id-1-0)"></g><mask id="satori_om-id-1-0-0-0-0-0"><rect x="55" y="35" width="67" height="38" fill="#fff" mask="url(#satori_om-id-1-0)"/></mask><g clip-path="url(#satori_cp-id-1-0)" mask="url(#satori_om-id-1-0)"></g><g mask="url(#satori_om-id-1-0)" clip-path="url(#satori_cp-id-1-0)"><path fill="white" d="M67.0 40.3L67.0 52.3L69.0 52.3Q70.2 52.3 71.8 52.2Q73.4 52.1 74.6 51.5L74.6 51.5Q76.1 50.7 76.8 49.1Q77.5 47.6 77.5 45.8L77.5 45.8Q77.5 44.5 77.0 43.3Q76.5 42.0 75.4 41.3L75.4 41.3Q74.4 40.6 73.0 40.5Q71.6 40.3 69.6 40.3L69.6 40.3L67.0 40.3ZM67.0 56.4L67.0 69.7L69.6 69.7Q71.0 69.7 72.7 69.5Q74.3 69.4 75.6 68.7L75.6 68.7Q77.1 67.7 77.8 66.1Q78.5 64.5 78.5 62.7L78.5 62.7Q78.5 61.1 77.9 59.6Q77.3 58.2 75.9 57.3L75.9 57.3Q74.6 56.7 73.0 56.5Q71.3 56.4 69.0 56.4L69.0 56.4L67.0 56.4ZM58.7 40.3L58.3 36.1L70.7 36.1Q73.9 36.1 76.3 36.4Q78.7 36.7 80.9 37.7L80.9 37.7Q82.8 38.7 83.8 40.5Q84.9 42.3 84.9 44.8L84.9 44.8Q84.9 48.0 82.9 50.6Q80.8 53.1 76.7 54.0L76.7 54.0Q77.8 54.1 79.4 54.5Q81.0 54.9 82.8 56.0L82.8 56.0Q86.4 58.4 86.4 63.2L86.4 63.2Q86.4 66.2 84.8 68.6Q83.2 71.0 80.1 72.4L80.1 72.4Q78.2 73.2 75.6 73.6Q73.0 74.0 69.0 74.0L69.0 74.0L59.5 74.0L59.5 46.9Q59.5 45.4 61.2 43.3Q63.0 41.3 65.7 40.5L65.7 40.5L65.7 40.3L58.7 40.3ZM103.8 40.4L103.8 40.4L100.0 40.4L100.0 53.8L103.3 53.8Q104.5 53.8 105.8 53.6Q107.2 53.4 108.4 52.7Q109.7 52.0 110.5 50.5Q111.3 49.1 111.3 46.5L111.3 46.5Q111.3 44.3 110.6 43.0Q109.8 41.8 108.7 41.2Q107.6 40.7 106.3 40.5Q105.0 40.4 103.8 40.4ZM100.0 74L92.3 74L92.3 46.9Q92.3 45.4 94.1 43.3Q95.8 41.3 98.5 40.5L98.5 40.5L98.5 40.3L91.5 40.3L91.2 36.1L103.4 36.1Q107.4 36.1 109.9 36.4Q112.5 36.7 114.6 37.9L114.6 37.9Q116.3 38.9 117.3 40.3Q118.3 41.6 118.7 43.2Q119.1 44.8 119.1 46.1L119.1 46.1Q119.1 49.5 117.8 51.7Q116.5 53.9 114.4 55.2Q112.2 56.5 109.7 57.1Q107.1 57.7 104.6 57.7L104.6 57.7L100.0 57.7L100.0 74Z " transform="matrix(1.00,0.00,0.00,1.00,0.00,-2.00)"/></g></svg>