<svg width="176" height="108" viewBox="0 0 176 108" xmlns="http://www.w3.org/2000/svg"><mask id="satori_om-id"><rect x="0" y="0" width="176" height="108" fill="#fff"/></mask><mask id="satori_om-id-0"><rect x="30" y="0" width="116" height="108" fill="#fff"/></mask><defs><clipPath id="satori_bc-id-0-0"><rect x="30" y="39" width="116" height="30"/></clipPath></defs><mask id="satori_om-id-0-0"><rect x="30" y="43" width="116" height="22" fill="#fff"/><path width="116" height="30" fill="none" stroke="#000" stroke-width="8" d="M30,39 A0,0 0 0 1 30,39 h116 A0,0 0 0 1 146,39"/><path width="116" height="30" fill="none" stroke="#000" stroke-width="8" d="M146,69 A0,0 0 0 1 146,69 h-116 A0,0 0 0 1 30,69"/></mask><path width="116" height="30" clip-path="url(#satori_bc-id-0-0)" fill="none" stroke="white" stroke-width="8" d="M30,39 A0,0 0 0 1 30,39 h116 A0,0 0 0 1 146,39"/><path width="116" height="30" clip-path="url(#satori_bc-id-0-0)" fill="none" stroke="white" stroke-width="8" d="M146,69 A0,0 0 0 1 146,69 h-116 A0,0 0 0 1 30,69"/><mask id="satori_om-id-1"><rect x="0" y="0" width="176" height="108" fill="#fff"/></mask><defs><clipPath id="satori_bc-id-1-0"><path x="0" y="0" width="176" height="108" d="M30,0 h116 a30,54 0 0 1 30,54 v0 a30,54 0 0 1 -30,54 h-116 a30,54 0 0 1 -30,-54 v0 a30,54 0 0 1 30,-54"/></clipPath></defs><clipPath id="satori_cp-id-1-0"><path x="0" y="0" width="176" height="108" d="M30,0 h116 a30,54 0 0 1 30,54 v0 a30,54 0 0 1 -30,54 h-116 a30,54 0 0 1 -30,-54 v0 a30,54 0 0 1 30,-54"/></clipPath><mask id="satori_om-id-1-0"><rect x="4" y="4" width="168" height="100" fill="#fff"/><path width="176" height="108" fill="none" stroke="#000" stroke-width="8" d="M3.7749999999999986,27.775 A30,54 0 0 1 30,0 h116 a30,54 0 0 1 30,54 v0 a30,54 0 0 1 -30,54 h-116 a30,54 0 0 1 -30,-54 v0 A30,54 0 0 1 3.7749999999999986,27.775"/></mask><path width="176" height="108" clip-path="url(#satori_bc-id-1-0)" fill="none" stroke="white" stroke-width="8" d="M3.7749999999999986,27.775 A30,54 0 0 1 30,0 h116 a30,54 0 0 1 30,54 v0 a30,54 0 0 1 -30,54 h-116 a30,54 0 0 1 -30,-54 v0 A30,54 0 0 1 3.7749999999999986,27.775"/><mask id="satori_om-id-1-0-0"><rect x="4" y="4" width="168" height="100" fill="#fff" mask="url(#satori_om-id-1-0)"/></mask><mask id="satori_om-id-1-0-0-0"><rect x="4" y="4" width="168" height="100" fill="#fff" mask="url(#satori_om-id-1-0)"/></mask><rect x="4" y="4" width="168" height="100" fill="#FA9E0D" clip-path="url(#satori_cp-id-1-0)" mask="url(#satori_om-id-1-0)"/><mask id="satori_om-id-1-0-0-0-0"><rect x="45" y="35" width="86" height="38" fill="#fff" mask="url(#satori_om-id-1-0)"/></mask><g clip-path="url(#satori_cp-id-1-0)" mask="url(#satori_om-id-1-0)"></g><mask id="satori_om-id-1-0-0-0-0-0"><rect x="45" y="35" width="86" height="38" fill="#fff" mask="url(#satori_om-id-1-0)"/></mask><g clip-path="url(#satori_cp-id-1-0)" mask="url(#satori_om-id-1-0)"></g><g mask="url(#satori_om-id-1-0)" clip-path="url(#satori_cp-id-1-0)"><path fill="#2E2A25" d="M73.7 37.2L73.7 37.2L72.2 41.9Q71.1 41.3 69.3 40.7Q67.5 40.1 65.5 40.1L65.5 40.1Q62.2 40.1 60.0 42.1Q57.8 44.1 56.7 47.5Q55.6 50.8 55.6 55.0L55.6 55.0Q55.6 62.1 58.1 66.0Q60.7 70.0 65.0 70.0L65.0 70.0Q66.5 70.0 67.9 69.6Q69.3 69.2 70.4 68.7Q71.5 68.1 72.2 67.7L72.2 67.7L73.8 72.4Q72.0 73.3 69.5 73.9Q66.9 74.6 63.5 74.6L63.5 74.6Q59.1 74.6 56.0 73.0Q52.9 71.4 50.9 68.7Q48.9 66.0 48.0 62.5Q47.0 59.0 47.0 55.2L47.0 55.2Q47.0 49.6 49.1 45.2Q51.1 40.7 55.0 38.1Q58.9 35.6 64.5 35.6L64.5 35.6Q69.8 35.6 73.7 37.2ZM102.1 37.2L102.1 37.2L100.7 41.9Q99.5 41.3 97.7 40.7Q96.0 40.1 93.9 40.1L93.9 40.1Q90.6 40.1 88.4 42.1Q86.2 44.1 85.1 47.5Q84.0 50.8 84.0 55.0L84.0 55.0Q84.0 62.1 86.6 66.0Q89.1 70.0 93.5 70.0L93.5 70.0Q94.9 70.0 96.3 69.6Q97.7 69.2 98.8 68.7Q100.0 68.1 100.7 67.7L100.7 67.7L102.2 72.4Q100.5 73.3 97.9 73.9Q95.4 74.6 92.0 74.6L92.0 74.6Q87.6 74.6 84.5 73.0Q81.3 71.4 79.3 68.7Q77.4 66.0 76.4 62.5Q75.5 59.0 75.5 55.2L75.5 55.2Q75.5 49.6 77.5 45.2Q79.6 40.7 83.5 38.1Q87.4 35.6 92.9 35.6L92.9 35.6Q98.3 35.6 102.1 37.2ZM126.6 74.0L105.1 74.0L105.1 42.2Q105.1 41.1 106.2 39.5Q107.3 38.0 109.1 36.8Q110.8 35.7 112.8 35.7L112.8 35.7L112.8 69.3L126.6 69.3L126.6 74.0Z " transform="matrix(1.00,0.00,0.00,1.00,0.00,-2.00)"/></g></svg>