<svg width="176" height="108" viewBox="0 0 176 108" xmlns="http://www.w3.org/2000/svg"><mask id="satori_om-id"><rect x="0" y="0" width="176" height="108" fill="#fff"/></mask><mask id="satori_om-id-0"><rect x="30" y="0" width="116" height="108" fill="#fff"/></mask><defs><clipPath id="satori_bc-id-0-0"><rect x="30" y="39" width="116" height="30"/></clipPath></defs><mask id="satori_om-id-0-0"><rect x="30" y="43" width="116" height="22" fill="#fff"/><path width="116" height="30" fill="none" stroke="#000" stroke-width="8" d="M30,39 A0,0 0 0 1 30,39 h116 A0,0 0 0 1 146,39"/><path width="116" height="30" fill="none" stroke="#000" stroke-width="8" d="M146,69 A0,0 0 0 1 146,69 h-116 A0,0 0 0 1 30,69"/></mask><path width="116" height="30" clip-path="url(#satori_bc-id-0-0)" fill="none" stroke="white" stroke-width="8" d="M30,39 A0,0 0 0 1 30,39 h116 A0,0 0 0 1 146,39"/><path width="116" height="30" clip-path="url(#satori_bc-id-0-0)" fill="none" stroke="white" stroke-width="8" d="M146,69 A0,0 0 0 1 146,69 h-116 A0,0 0 0 1 30,69"/><mask id="satori_om-id-1"><rect x="0" y="0" width="176" height="108" fill="#fff"/></mask><defs><clipPath id="satori_bc-id-1-0"><path x="0" y="0" width="176" height="108" d="M30,0 h116 a30,54 0 0 1 30,54 v0 a30,54 0 0 1 -30,54 h-116 a30,54 0 0 1 -30,-54 v0 a30,54 0 0 1 30,-54"/></clipPath></defs><clipPath id="satori_cp-id-1-0"><path x="0" y="0" width="176" height="108" d="M30,0 h116 a30,54 0 0 1 30,54 v0 a30,54 0 0 1 -30,54 h-116 a30,54 0 0 1 -30,-54 v0 a30,54 0 0 1 30,-54"/></clipPath><mask id="satori_om-id-1-0"><rect x="4" y="4" width="168" height="100" fill="#fff"/><path width="176" height="108" fill="none" stroke="#000" stroke-width="8" d="M3.7749999999999986,27.775 A30,54 0 0 1 30,0 h116 a30,54 0 0 1 30,54 v0 a30,54 0 0 1 -30,54 h-116 a30,54 0 0 1 -30,-54 v0 A30,54 0 0 1 3.7749999999999986,27.775"/></mask><path width="176" height="108" clip-path="url(#satori_bc-id-1-0)" fill="none" stroke="white" stroke-width="8" d="M3.7749999999999986,27.775 A30,54 0 0 1 30,0 h116 a30,54 0 0 1 30,54 v0 a30,54 0 0 1 -30,54 h-116 a30,54 0 0 1 -30,-54 v0 A30,54 0 0 1 3.7749999999999986,27.775"/><mask id="satori_om-id-1-0-0"><rect x="4" y="4" width="168" height="100" fill="#fff" mask="url(#satori_om-id-1-0)"/></mask><mask id="satori_om-id-1-0-0-0"><rect x="4" y="4" width="168" height="100" fill="#fff" mask="url(#satori_om-id-1-0)"/></mask><rect x="4" y="4" width="168" height="100" fill="#0055B8" clip-path="url(#satori_cp-id-1-0)" mask="url(#satori_om-id-1-0)"/><mask id="satori_om-id-1-0-0-0-0"><rect x="44" y="35" width="88" height="38" fill="#fff" mask="url(#satori_om-id-1-0)"/></mask><g clip-path="url(#satori_cp-id-1-0)" mask="url(#satori_om-id-1-0)"></g><mask id="satori_om-id-1-0-0-0-0-0"><rect x="44" y="35" width="88" height="38" fill="#fff" mask="url(#satori_om-id-1-0)"/></mask><g clip-path="url(#satori_cp-id-1-0)" mask="url(#satori_om-id-1-0)"></g><g mask="url(#satori_om-id-1-0)" clip-path="url(#satori_cp-id-1-0)"><path fill="white" d="M58.4 40.4L58.4 40.4L56.2 40.4L56.2 69.9L58.1 69.9Q59.5 69.9 61.0 69.7Q62.4 69.5 63.8 68.7Q65.2 67.9 66.3 66.2Q67.4 64.5 68.0 61.6Q68.7 58.7 68.7 54.1L68.7 54.1Q68.7 50.0 68.1 47.5Q67.5 44.9 66.5 43.4Q65.5 42.0 64.1 41.3Q62.8 40.7 61.3 40.5Q59.9 40.4 58.4 40.4ZM56.5 74.0L48.5 74.0L48.5 46.9Q48.5 45.4 50.2 43.3Q52.0 41.3 54.7 40.5L54.7 40.5L54.7 40.3L47.7 40.3L47.3 36.1L57.5 36.1Q60.0 36.1 62.5 36.2Q65.0 36.4 67.3 37.2Q69.7 38.0 71.8 39.7L71.8 39.7Q74.2 41.9 75.2 44.6Q76.3 47.3 76.6 49.8Q76.8 52.4 76.8 53.9L76.8 53.9Q76.8 57.1 76.1 60.5Q75.4 64.0 73.5 67.0Q71.6 70.0 68.1 71.9L68.1 71.9Q65.7 73.2 62.9 73.6Q60.1 74.0 56.5 74.0L56.5 74.0ZM93.3 74.0L85.6 74.0L85.6 47.3Q85.6 45.8 87.4 43.7Q89.1 41.6 91.8 40.9L91.8 40.9L91.8 40.7L76.0 40.7L75.7 36.1L103.2 36.1L103.2 40.7L93.3 40.7L93.3 74.0ZM126.1 74.0L104.6 74.0L104.6 42.2Q104.6 41.1 105.7 39.5Q106.8 38.0 108.5 36.8Q110.3 35.7 112.3 35.7L112.3 35.7L112.3 69.3L126.1 69.3L126.1 74.0Z " transform="matrix(1.00,0.00,0.00,1.00,0.00,-2.00)"/></g></svg>