<svg width="176" height="108" viewBox="0 0 176 108" xmlns="http://www.w3.org/2000/svg"><mask id="satori_om-id"><rect x="0" y="0" width="176" height="108" fill="#fff"/></mask><mask id="satori_om-id-0"><rect x="30" y="0" width="116" height="108" fill="#fff"/></mask><defs><clipPath id="satori_bc-id-0-0"><rect x="30" y="39" width="116" height="30"/></clipPath></defs><mask id="satori_om-id-0-0"><rect x="30" y="43" width="116" height="22" fill="#fff"/><path width="116" height="30" fill="none" stroke="#000" stroke-width="8" d="M30,39 A0,0 0 0 1 30,39 h116 A0,0 0 0 1 146,39"/><path width="116" height="30" fill="none" stroke="#000" stroke-width="8" d="M146,69 A0,0 0 0 1 146,69 h-116 A0,0 0 0 1 30,69"/></mask><path width="116" height="30" clip-path="url(#satori_bc-id-0-0)" fill="none" stroke="white" stroke-width="8" d="M30,39 A0,0 0 0 1 30,39 h116 A0,0 0 0 1 146,39"/><path width="116" height="30" clip-path="url(#satori_bc-id-0-0)" fill="none" stroke="white" stroke-width="8" d="M146,69 A0,0 0 0 1 146,69 h-116 A0,0 0 0 1 30,69"/><mask id="satori_om-id-1"><rect x="0" y="0" width="176" height="108" fill="#fff"/></mask><defs><clipPath id="satori_bc-id-1-0"><path x="0" y="0" width="176" height="108" d="M30,0 h116 a30,54 0 0 1 30,54 v0 a30,54 0 0 1 -30,54 h-116 a30,54 0 0 1 -30,-54 v0 a30,54 0 0 1 30,-54"/></clipPath></defs><clipPath id="satori_cp-id-1-0"><path x="0" y="0" width="176" height="108" d="M30,0 h116 a30,54 0 0 1 30,54 v0 a30,54 0 0 1 -30,54 h-116 a30,54 0 0 1 -30,-54 v0 a30,54 0 0 1 30,-54"/></clipPath><mask id="satori_om-id-1-0"><rect x="4" y="4" width="168" height="100" fill="#fff"/><path width="176" height="108" fill="none" stroke="#000" stroke-width="8" d="M3.7749999999999986,27.775 A30,54 0 0 1 30,0 h116 a30,54 0 0 1 30,54 v0 a30,54 0 0 1 -30,54 h-116 a30,54 0 0 1 -30,-54 v0 A30,54 0 0 1 3.7749999999999986,27.775"/></mask><path width="176" height="108" clip-path="url(#satori_bc-id-1-0)" fill="none" stroke="white" stroke-width="8" d="M3.7749999999999986,27.775 A30,54 0 0 1 30,0 h116 a30,54 0 0 1 30,54 v0 a30,54 0 0 1 -30,54 h-116 a30,54 0 0 1 -30,-54 v0 A30,54 0 0 1 3.7749999999999986,27.775"/><mask id="satori_om-id-1-0-0"><rect x="4" y="4" width="168" height="100" fill="#fff" mask="url(#satori_om-id-1-0)"/></mask><mask id="satori_om-id-1-0-0-0"><rect x="4" y="4" width="168" height="100" fill="#fff" mask="url(#satori_om-id-1-0)"/></mask><rect x="4" y="4" width="168" height="100" fill="#009645" clip-path="url(#satori_cp-id-1-0)" mask="url(#satori_om-id-1-0)"/><mask id="satori_om-id-1-0-0-0-0"><rect x="37" y="35" width="102" height="38" fill="#fff" mask="url(#satori_om-id-1-0)"/></mask><g clip-path="url(#satori_cp-id-1-0)" mask="url(#satori_om-id-1-0)"></g><mask id="satori_om-id-1-0-0-0-0-0"><rect x="37" y="35" width="102" height="38" fill="#fff" mask="url(#satori_om-id-1-0)"/></mask><g clip-path="url(#satori_cp-id-1-0)" mask="url(#satori_om-id-1-0)"></g><g mask="url(#satori_om-id-1-0)" clip-path="url(#satori_cp-id-1-0)"><path fill="white" d="M64.1 74.0L41.5 74.0L41.5 47Q41.5 45.5 43.2 43.4Q45.0 41.4 47.7 40.6L47.7 40.6L47.7 40.4L40.7 40.4L40.3 36.1L63.9 36.1L63.9 40.7L49.2 40.7L49.2 52.2L62.9 52.2L62.9 56.7L49.2 56.7L49.2 69.2L64.1 69.2L64.1 74.0ZM77.7 74.3L69.2 36.1L77.1 36.1L82.4 63.3L89.7 36.1L95.4 36.1L102.2 63.3L107.0 40.2Q107.3 38.5 108.5 37.5Q109.6 36.6 110.9 36.1Q112.3 35.7 113.2 35.7L113.2 35.7L104.2 74L98.5 74L91.2 46.6L84.7 69.6Q84.2 71.4 83.0 72.4Q81.9 73.5 80.5 73.9Q79.1 74.3 77.7 74.3L77.7 74.3ZM137.6 74.0L116.1 74.0L116.1 42.2Q116.1 41.1 117.2 39.5Q118.3 38.0 120.0 36.8Q121.8 35.7 123.8 35.7L123.8 35.7L123.8 69.3L137.6 69.3L137.6 74.0Z " transform="matrix(1.00,0.00,0.00,1.00,0.00,-2.00)"/></g></svg>