<svg width="176" height="108" viewBox="0 0 176 108" xmlns="http://www.w3.org/2000/svg"><mask id="satori_om-id"><rect x="0" y="0" width="176" height="108" fill="#fff"/></mask><mask id="satori_om-id-0"><rect x="30" y="0" width="116" height="108" fill="#fff"/></mask><defs><clipPath id="satori_bc-id-0-0"><rect x="30" y="39" width="116" height="30"/></clipPath></defs><mask id="satori_om-id-0-0"><rect x="30" y="43" width="116" height="22" fill="#fff"/><path width="116" height="30" fill="none" stroke="#000" stroke-width="8" d="M30,39 A0,0 0 0 1 30,39 h116 A0,0 0 0 1 146,39"/><path width="116" height="30" fill="none" stroke="#000" stroke-width="8" d="M146,69 A0,0 0 0 1 146,69 h-116 A0,0 0 0 1 30,69"/></mask><path width="116" height="30" clip-path="url(#satori_bc-id-0-0)" fill="none" stroke="white" stroke-width="8" d="M30,39 A0,0 0 0 1 30,39 h116 A0,0 0 0 1 146,39"/><path width="116" height="30" clip-path="url(#satori_bc-id-0-0)" fill="none" stroke="white" stroke-width="8" d="M146,69 A0,0 0 0 1 146,69 h-116 A0,0 0 0 1 30,69"/><mask id="satori_om-id-1"><rect x="0" y="0" width="176" height="108" fill="#fff"/></mask><defs><clipPath id="satori_bc-id-1-0"><path x="0" y="0" width="176" height="108" d="M30,0 h116 a30,54 0 0 1 30,54 v0 a30,54 0 0 1 -30,54 h-116 a30,54 0 0 1 -30,-54 v0 a30,54 0 0 1 30,-54"/></clipPath></defs><clipPath id="satori_cp-id-1-0"><path x="0" y="0" width="176" height="108" d="M30,0 h116 a30,54 0 0 1 30,54 v0 a30,54 0 0 1 -30,54 h-116 a30,54 0 0 1 -30,-54 v0 a30,54 0 0 1 30,-54"/></clipPath><mask id="satori_om-id-1-0"><rect x="4" y="4" width="168" height="100" fill="#fff"/><path width="176" height="108" fill="none" stroke="#000" stroke-width="8" d="M3.7749999999999986,27.775 A30,54 0 0 1 30,0 h116 a30,54 0 0 1 30,54 v0 a30,54 0 0 1 -30,54 h-116 a30,54 0 0 1 -30,-54 v0 A30,54 0 0 1 3.7749999999999986,27.775"/></mask><path width="176" height="108" clip-path="url(#satori_bc-id-1-0)" fill="none" stroke="white" stroke-width="8" d="M3.7749999999999986,27.775 A30,54 0 0 1 30,0 h116 a30,54 0 0 1 30,54 v0 a30,54 0 0 1 -30,54 h-116 a30,54 0 0 1 -30,-54 v0 A30,54 0 0 1 3.7749999999999986,27.775"/><mask id="satori_om-id-1-0-0"><rect x="4" y="4" width="168" height="100" fill="#fff" mask="url(#satori_om-id-1-0)"/></mask><mask id="satori_om-id-1-0-0-0"><rect x="4" y="4" width="168" height="100" fill="#fff" mask="url(#satori_om-id-1-0)"/></mask><rect x="4" y="4" width="168" height="100" fill="#9900AB" clip-path="url(#satori_cp-id-1-0)" mask="url(#satori_om-id-1-0)"/><mask id="satori_om-id-1-0-0-0-0"><rect x="43" y="35" width="91" height="38" fill="#fff" mask="url(#satori_om-id-1-0)"/></mask><g clip-path="url(#satori_cp-id-1-0)" mask="url(#satori_om-id-1-0)"></g><mask id="satori_om-id-1-0-0-0-0-0"><rect x="43" y="35" width="91" height="38" fill="#fff" mask="url(#satori_om-id-1-0)"/></mask><g clip-path="url(#satori_cp-id-1-0)" mask="url(#satori_om-id-1-0)"></g><g mask="url(#satori_om-id-1-0)" clip-path="url(#satori_cp-id-1-0)"><path fill="white" d="M75.0 35.7L75.0 74.0L70.1 74.0L51.3 48.4L51.3 74.0L46.2 74.0L46.2 36.1L51.1 36.1L69.8 61.7L69.8 40.2Q69.8 39.4 70.6 38.3Q71.3 37.3 72.5 36.5Q73.6 35.7 75.0 35.7L75.0 35.7ZM104.6 74.0L81.9 74.0L81.9 47Q81.9 45.5 83.7 43.4Q85.4 41.4 88.1 40.6L88.1 40.6L88.1 40.4L81.1 40.4L80.8 36.1L104.3 36.1L104.3 40.7L89.6 40.7L89.6 52.2L103.4 52.2L103.4 56.7L89.6 56.7L89.6 69.2L104.6 69.2L104.6 74.0ZM130.7 74.0L109.2 74.0L109.2 42.2Q109.2 41.1 110.3 39.5Q111.3 38.0 113.1 36.8Q114.9 35.7 116.9 35.7L116.9 35.7L116.9 69.3L130.7 69.3L130.7 74.0Z " transform="matrix(1.00,0.00,0.00,1.00,0.00,-2.00)"/></g></svg>