<svg width="176" height="108" viewBox="0 0 176 108" xmlns="http://www.w3.org/2000/svg"><mask id="satori_om-id"><rect x="0" y="0" width="176" height="108" fill="#fff"/></mask><mask id="satori_om-id-0"><rect x="30" y="0" width="116" height="108" fill="#fff"/></mask><defs><clipPath id="satori_bc-id-0-0"><rect x="30" y="39" width="116" height="30"/></clipPath></defs><mask id="satori_om-id-0-0"><rect x="30" y="43" width="116" height="22" fill="#fff"/><path width="116" height="30" fill="none" stroke="#000" stroke-width="8" d="M30,39 A0,0 0 0 1 30,39 h116 A0,0 0 0 1 146,39"/><path width="116" height="30" fill="none" stroke="#000" stroke-width="8" d="M146,69 A0,0 0 0 1 146,69 h-116 A0,0 0 0 1 30,69"/></mask><path width="116" height="30" clip-path="url(#satori_bc-id-0-0)" fill="none" stroke="white" stroke-width="8" d="M30,39 A0,0 0 0 1 30,39 h116 A0,0 0 0 1 146,39"/><path width="116" height="30" clip-path="url(#satori_bc-id-0-0)" fill="none" stroke="white" stroke-width="8" d="M146,69 A0,0 0 0 1 146,69 h-116 A0,0 0 0 1 30,69"/><mask id="satori_om-id-1"><rect x="0" y="0" width="176" height="108" fill="#fff"/></mask><defs><clipPath id="satori_bc-id-1-0"><path x="0" y="0" width="176" height="108" d="M30,0 h116 a30,54 0 0 1 30,54 v0 a30,54 0 0 1 -30,54 h-116 a30,54 0 0 1 -30,-54 v0 a30,54 0 0 1 30,-54"/></clipPath></defs><clipPath id="satori_cp-id-1-0"><path x="0" y="0" width="176" height="108" d="M30,0 h116 a30,54 0 0 1 30,54 v0 a30,54 0 0 1 -30,54 h-116 a30,54 0 0 1 -30,-54 v0 a30,54 0 0 1 30,-54"/></clipPath><mask id="satori_om-id-1-0"><rect x="4" y="4" width="168" height="100" fill="#fff"/><path width="176" height="108" fill="none" stroke="#000" stroke-width="8" d="M3.7749999999999986,27.775 A30,54 0 0 1 30,0 h116 a30,54 0 0 1 30,54 v0 a30,54 0 0 1 -30,54 h-116 a30,54 0 0 1 -30,-54 v0 A30,54 0 0 1 3.7749999999999986,27.775"/></mask><path width="176" height="108" clip-path="url(#satori_bc-id-1-0)" fill="none" stroke="white" stroke-width="8" d="M3.7749999999999986,27.775 A30,54 0 0 1 30,0 h116 a30,54 0 0 1 30,54 v0 a30,54 0 0 1 -30,54 h-116 a30,54 0 0 1 -30,-54 v0 A30,54 0 0 1 3.7749999999999986,27.775"/><mask id="satori_om-id-1-0-0"><rect x="4" y="4" width="168" height="100" fill="#fff" mask="url(#satori_om-id-1-0)"/></mask><mask id="satori_om-id-1-0-0-0"><rect x="4" y="4" width="168" height="100" fill="#fff" mask="url(#satori_om-id-1-0)"/></mask><rect x="4" y="4" width="168" height="100" fill="#DF2827" clip-path="url(#satori_cp-id-1-0)" mask="url(#satori_om-id-1-0)"/><mask id="satori_om-id-1-0-0-0-0"><rect x="44" y="35" width="89" height="38" fill="#fff" mask="url(#satori_om-id-1-0)"/></mask><g clip-path="url(#satori_cp-id-1-0)" mask="url(#satori_om-id-1-0)"></g><mask id="satori_om-id-1-0-0-0-0-0"><rect x="44" y="35" width="89" height="38" fill="#fff" mask="url(#satori_om-id-1-0)"/></mask><g clip-path="url(#satori_cp-id-1-0)" mask="url(#satori_om-id-1-0)"></g><g mask="url(#satori_om-id-1-0)" clip-path="url(#satori_cp-id-1-0)"><path fill="white" d="M76.0 35.7L76.0 74.0L71.1 74.0L52.3 48.4L52.3 74.0L47.2 74.0L47.2 36.1L52.1 36.1L70.8 61.7L70.8 40.2Q70.8 39.4 71.6 38.3Q72.3 37.3 73.5 36.5Q74.6 35.7 76.0 35.7L76.0 35.7ZM102.4 37.2L102.4 37.2L101.0 41.7Q99.6 41.0 97.6 40.5Q95.7 40.0 93.8 40.0L93.8 40.0Q91.1 40.0 89.6 41.1Q88.1 42.1 88.1 44.1L88.1 44.1Q88.1 45.7 89.2 47.0Q90.2 48.3 93.0 50.1L93.0 50.1L95.4 51.7Q98.2 53.5 100.1 55.3Q102.0 57.1 103.0 59.2Q104.0 61.3 104.0 64.0L104.0 64.0Q104.0 68.9 100.8 71.7Q97.5 74.6 91.4 74.6L91.4 74.6Q89.2 74.6 87.3 74.2Q85.5 73.8 84.0 73.2Q82.5 72.7 81.5 72.2L81.5 72.2L83.2 67.1Q84.5 68.2 86.7 69.1Q88.9 70.0 91.3 70.0L91.3 70.0Q93.3 70.0 94.5 69.4Q95.8 68.8 96.4 67.8Q96.9 66.8 96.9 65.6L96.9 65.6Q96.9 63.8 95.8 62.4Q94.6 61.0 91.5 59.0L91.5 59.0L89.1 57.5Q85.1 55.0 83.1 52.2Q81.2 49.5 81.2 45.7L81.2 45.7Q81.2 42.5 82.7 40.2Q84.3 38.0 87.1 36.8Q89.9 35.7 93.5 35.7L93.5 35.7Q98.5 35.7 102.4 37.2ZM130.8 74.0L109.3 74.0L109.3 42.2Q109.3 41.1 110.4 39.5Q111.4 38.0 113.2 36.8Q115.0 35.7 117.0 35.7L117.0 35.7L117.0 69.3L130.8 69.3L130.8 74.0Z " transform="matrix(1.00,0.00,0.00,1.00,0.00,-2.00)"/></g></svg>