<svg width="176" height="108" viewBox="0 0 176 108" xmlns="http://www.w3.org/2000/svg"><mask id="satori_om-id"><rect x="0" y="0" width="176" height="108" fill="#fff"/></mask><mask id="satori_om-id-0"><rect x="30" y="0" width="116" height="108" fill="#fff"/></mask><defs><clipPath id="satori_bc-id-0-0"><rect x="30" y="39" width="116" height="30"/></clipPath></defs><mask id="satori_om-id-0-0"><rect x="30" y="43" width="116" height="22" fill="#fff"/><path width="116" height="30" fill="none" stroke="#000" stroke-width="8" d="M30,39 A0,0 0 0 1 30,39 h116 A0,0 0 0 1 146,39"/><path width="116" height="30" fill="none" stroke="#000" stroke-width="8" d="M146,69 A0,0 0 0 1 146,69 h-116 A0,0 0 0 1 30,69"/></mask><path width="116" height="30" clip-path="url(#satori_bc-id-0-0)" fill="none" stroke="white" stroke-width="8" d="M30,39 A0,0 0 0 1 30,39 h116 A0,0 0 0 1 146,39"/><path width="116" height="30" clip-path="url(#satori_bc-id-0-0)" fill="none" stroke="white" stroke-width="8" d="M146,69 A0,0 0 0 1 146,69 h-116 A0,0 0 0 1 30,69"/><mask id="satori_om-id-1"><rect x="0" y="0" width="176" height="108" fill="#fff"/></mask><defs><clipPath id="satori_bc-id-1-0"><path x="0" y="0" width="176" height="108" d="M30,0 h116 a30,54 0 0 1 30,54 v0 a30,54 0 0 1 -30,54 h-116 a30,54 0 0 1 -30,-54 v0 a30,54 0 0 1 30,-54"/></clipPath></defs><clipPath id="satori_cp-id-1-0"><path x="0" y="0" width="176" height="108" d="M30,0 h116 a30,54 0 0 1 30,54 v0 a30,54 0 0 1 -30,54 h-116 a30,54 0 0 1 -30,-54 v0 a30,54 0 0 1 30,-54"/></clipPath><mask id="satori_om-id-1-0"><rect x="4" y="4" width="168" height="100" fill="#fff"/><path width="176" height="108" fill="none" stroke="#000" stroke-width="8" d="M3.7749999999999986,27.775 A30,54 0 0 1 30,0 h116 a30,54 0 0 1 30,54 v0 a30,54 0 0 1 -30,54 h-116 a30,54 0 0 1 -30,-54 v0 A30,54 0 0 1 3.7749999999999986,27.775"/></mask><path width="176" height="108" clip-path="url(#satori_bc-id-1-0)" fill="none" stroke="white" stroke-width="8" d="M3.7749999999999986,27.775 A30,54 0 0 1 30,0 h116 a30,54 0 0 1 30,54 v0 a30,54 0 0 1 -30,54 h-116 a30,54 0 0 1 -30,-54 v0 A30,54 0 0 1 3.7749999999999986,27.775"/><mask id="satori_om-id-1-0-0"><rect x="4" y="4" width="168" height="100" fill="#fff" mask="url(#satori_om-id-1-0)"/></mask><mask id="satori_om-id-1-0-0-0"><rect x="4" y="4" width="168" height="100" fill="#fff" mask="url(#satori_om-id-1-0)"/></mask><rect x="4" y="4" width="168" height="100" fill="#708270" clip-path="url(#satori_cp-id-1-0)" mask="url(#satori_om-id-1-0)"/><mask id="satori_om-id-1-0-0-0-0"><rect x="54" y="35" width="68" height="38" fill="#fff" mask="url(#satori_om-id-1-0)"/></mask><g clip-path="url(#satori_cp-id-1-0)" mask="url(#satori_om-id-1-0)"></g><mask id="satori_om-id-1-0-0-0-0-0"><rect x="54" y="35" width="68" height="38" fill="#fff" mask="url(#satori_om-id-1-0)"/></mask><g clip-path="url(#satori_cp-id-1-0)" mask="url(#satori_om-id-1-0)"></g><g mask="url(#satori_om-id-1-0)" clip-path="url(#satori_cp-id-1-0)"><path fill="white" d="M70.0 40.4L70.0 40.4L66.2 40.4L66.2 53.8L69.5 53.8Q70.6 53.8 72.0 53.6Q73.4 53.4 74.6 52.7Q75.9 52.0 76.6 50.5Q77.4 49.1 77.4 46.5L77.4 46.5Q77.4 44.3 76.7 43.0Q76.0 41.8 74.9 41.2Q73.8 40.7 72.5 40.5Q71.1 40.4 70.0 40.4ZM66.2 74L58.5 74L58.5 46.9Q58.5 45.4 60.2 43.3Q62.0 41.3 64.7 40.5L64.7 40.5L64.7 40.3L57.7 40.3L57.3 36.1L69.6 36.1Q73.5 36.1 76.1 36.4Q78.7 36.7 80.8 37.9L80.8 37.9Q82.5 38.9 83.4 40.3Q84.4 41.6 84.8 43.2Q85.3 44.8 85.3 46.1L85.3 46.1Q85.3 49.5 84.0 51.7Q82.7 53.9 80.5 55.2Q78.4 56.5 75.9 57.1Q73.3 57.7 70.8 57.7L70.8 57.7L66.2 57.7L66.2 74ZM111.7 69.8L111.7 69.8L111.7 58.9Q111.7 57.7 112.7 56.2Q113.7 54.6 115.4 53.5Q117.1 52.3 119.2 52.3L119.2 52.3L119.2 72.1Q116.9 73.1 114.1 73.8Q111.4 74.6 107.7 74.6L107.7 74.6Q102.3 74.6 98.4 72.2Q94.5 69.9 92.4 65.5Q90.3 61.2 90.3 55.3L90.3 55.3Q90.3 49.1 92.6 44.7Q94.8 40.3 98.9 37.9Q102.9 35.6 108.4 35.6L108.4 35.6Q111.3 35.6 113.5 35.9Q115.7 36.2 117.1 36.7Q118.6 37.1 119.4 37.5L119.4 37.5L118.0 42.4Q116.4 41.5 114.2 40.9Q112.0 40.3 109.4 40.3L109.4 40.3Q105.8 40.3 103.4 42.2Q101.1 44.0 99.9 47.4Q98.8 50.8 98.8 55.4L98.8 55.4Q98.8 58.9 99.5 62.1Q100.2 65.3 102.1 67.4Q104.0 69.5 107.3 70.0L107.3 70.0Q108.0 70.1 108.6 70.1L108.6 70.1Q109.8 70.1 110.8 69.9Q111.7 69.8 111.7 69.8Z " transform="matrix(1.00,0.00,0.00,1.00,0.00,-2.00)"/></g></svg>