<svg width="176" height="108" viewBox="0 0 176 108" xmlns="http://www.w3.org/2000/svg"><mask id="satori_om-id"><rect x="0" y="0" width="176" height="108" fill="#fff"/></mask><mask id="satori_om-id-0"><rect x="30" y="0" width="116" height="108" fill="#fff"/></mask><defs><clipPath id="satori_bc-id-0-0"><rect x="30" y="39" width="116" height="30"/></clipPath></defs><mask id="satori_om-id-0-0"><rect x="30" y="43" width="116" height="22" fill="#fff"/><path width="116" height="30" fill="none" stroke="#000" stroke-width="8" d="M30,39 A0,0 0 0 1 30,39 h116 A0,0 0 0 1 146,39"/><path width="116" height="30" fill="none" stroke="#000" stroke-width="8" d="M146,69 A0,0 0 0 1 146,69 h-116 A0,0 0 0 1 30,69"/></mask><path width="116" height="30" clip-path="url(#satori_bc-id-0-0)" fill="none" stroke="white" stroke-width="8" d="M30,39 A0,0 0 0 1 30,39 h116 A0,0 0 0 1 146,39"/><path width="116" height="30" clip-path="url(#satori_bc-id-0-0)" fill="none" stroke="white" stroke-width="8" d="M146,69 A0,0 0 0 1 146,69 h-116 A0,0 0 0 1 30,69"/><mask id="satori_om-id-1"><rect x="0" y="0" width="176" height="108" fill="#fff"/></mask><defs><clipPath id="satori_bc-id-1-0"><path x="0" y="0" width="176" height="108" d="M30,0 h116 a30,54 0 0 1 30,54 v0 a30,54 0 0 1 -30,54 h-116 a30,54 0 0 1 -30,-54 v0 a30,54 0 0 1 30,-54"/></clipPath></defs><clipPath id="satori_cp-id-1-0"><path x="0" y="0" width="176" height="108" d="M30,0 h116 a30,54 0 0 1 30,54 v0 a30,54 0 0 1 -30,54 h-116 a30,54 0 0 1 -30,-54 v0 a30,54 0 0 1 30,-54"/></clipPath><mask id="satori_om-id-1-0"><rect x="4" y="4" width="168" height="100" fill="#fff"/><path width="176" height="108" fill="none" stroke="#000" stroke-width="8" d="M3.7749999999999986,27.775 A30,54 0 0 1 30,0 h116 a30,54 0 0 1 30,54 v0 a30,54 0 0 1 -30,54 h-116 a30,54 0 0 1 -30,-54 v0 A30,54 0 0 1 3.7749999999999986,27.775"/></mask><path width="176" height="108" clip-path="url(#satori_bc-id-1-0)" fill="none" stroke="white" stroke-width="8" d="M3.7749999999999986,27.775 A30,54 0 0 1 30,0 h116 a30,54 0 0 1 30,54 v0 a30,54 0 0 1 -30,54 h-116 a30,54 0 0 1 -30,-54 v0 A30,54 0 0 1 3.7749999999999986,27.775"/><mask id="satori_om-id-1-0-0"><rect x="4" y="4" width="168" height="100" fill="#fff" mask="url(#satori_om-id-1-0)"/></mask><mask id="satori_om-id-1-0-0-0"><rect x="4" y="4" width="168" height="100" fill="#fff" mask="url(#satori_om-id-1-0)"/></mask><rect x="4" y="4" width="168" height="100" fill="#708270" clip-path="url(#satori_cp-id-1-0)" mask="url(#satori_om-id-1-0)"/><mask id="satori_om-id-1-0-0-0-0"><rect x="58" y="35" width="60" height="38" fill="#fff" mask="url(#satori_om-id-1-0)"/></mask><g clip-path="url(#satori_cp-id-1-0)" mask="url(#satori_om-id-1-0)"></g><mask id="satori_om-id-1-0-0-0-0-0"><rect x="58" y="35" width="60" height="38" fill="#fff" mask="url(#satori_om-id-1-0)"/></mask><g clip-path="url(#satori_cp-id-1-0)" mask="url(#satori_om-id-1-0)"></g><g mask="url(#satori_om-id-1-0)" clip-path="url(#satori_cp-id-1-0)"><path fill="white" d="M81.6 37.2L81.6 37.2L80.2 41.7Q78.8 41.0 76.9 40.5Q75.0 40.0 73.1 40.0L73.1 40.0Q70.4 40.0 68.9 41.1Q67.4 42.1 67.4 44.1L67.4 44.1Q67.4 45.7 68.5 47.0Q69.5 48.3 72.3 50.1L72.3 50.1L74.7 51.7Q77.4 53.5 79.3 55.3Q81.3 57.1 82.3 59.2Q83.3 61.3 83.3 64.0L83.3 64.0Q83.3 68.9 80.0 71.7Q76.8 74.6 70.7 74.6L70.7 74.6Q68.5 74.6 66.6 74.2Q64.8 73.8 63.3 73.2Q61.8 72.7 60.8 72.2L60.8 72.2L62.4 67.1Q63.8 68.2 66.0 69.1Q68.2 70.0 70.5 70.0L70.5 70.0Q72.6 70.0 73.8 69.4Q75.1 68.8 75.6 67.8Q76.2 66.8 76.2 65.6L76.2 65.6Q76.2 63.8 75.0 62.4Q73.8 61.0 70.8 59.0L70.8 59.0L68.4 57.5Q64.4 55.0 62.4 52.2Q60.4 49.5 60.4 45.7L60.4 45.7Q60.4 42.5 62.0 40.2Q63.6 38.0 66.4 36.8Q69.2 35.7 72.8 35.7L72.8 35.7Q77.7 35.7 81.6 37.2ZM97.4 53.4L109.6 36.1L116.0 36.1L103.7 52.3L115.9 74.0L106.8 74.0L97.3 55.7Q97.0 55.1 97.0 54.6L97.0 54.6Q97.0 54.0 97.4 53.4L97.4 53.4ZM95.9 74.0L88.2 74.0L88.2 42.2Q88.2 41.1 89.3 39.5Q90.4 38.0 92.2 36.8Q94.0 35.7 95.9 35.7L95.9 35.7L95.9 74.0Z " transform="matrix(1.00,0.00,0.00,1.00,0.00,-2.00)"/></g></svg>