<svg width="251" height="251" xmlns="http://www.w3.org/2000/svg" xmlns:xlink="http://www.w3.org/1999/xlink" xml:space="preserve" overflow="hidden"><g transform="translate(-1606 -880)"><path d="M227.581 248.289 19.2499 248.289C7.74355 248.289-1.58451 238.961-1.58451 227.457L-1.58451 14.9549C-1.58451 5.75016 5.87642-1.71086 15.0843-1.71086L231.747-1.71086C240.951-1.71086 248.415 5.75016 248.415 14.9549L248.415 227.457C248.415 238.961 239.088 248.289 227.581 248.289" fill="#0E4B87" fill-rule="evenodd" transform="matrix(1 0 0 -1 1608 1129)"/><path d="M14.6271-1.78685C23.4655-1.69373 30.5519 5.54392 30.4588 14.3772 30.3654 23.2043 23.1305 30.3044 14.2917 30.2113 5.45334 30.1207-1.6331 22.8687-1.54005 14.0444-1.44664 5.20833 5.78834-1.87746 14.6271-1.78685" fill="#FFFFFF" fill-rule="evenodd" transform="matrix(1 0 0 -1 1689 953)"/><path d="M92.4135 11.7865 68.1824 59.6777C67.1896 61.6415 65.1812 62.8762 62.988 62.8762L25.8922 62.8762 23.2773 75.7582 48.6066 75.7582 48.6066 75.7639C52.5971 75.7787 55.8295 79.0271 55.8295 83.0338 55.8295 87.0437 52.5971 90.2979 48.6066 90.3098L20.3699 90.3098 16.754 107.86C15.7324 112.893 10.8342 116.147 5.82131 115.112 0.808815 114.089-2.42932 109.177-1.40734 104.147L9.83556 48.8064C10.3891 46.0814 12.7753 44.1234 15.5451 44.1234L51.6308 44.1234C53.824 44.1234 55.8295 42.8919 56.8252 40.9309L75.8532 3.41981C77.4989 0.147981 80.8129-1.73066 84.2358-1.69529 85.609-1.68338 86.994-1.36287 88.3025-0.701648 92.8729 1.60325 94.7144 7.2002 92.4135 11.7865" fill="#FFFFFF" fill-rule="evenodd" transform="matrix(1 0 0 -1 1701 1074)"/><path d="M88.5011 44.0538C85.3875 26.3326 69.9537 12.7327 51.2772 12.5369 30.2101 12.3178 12.8918 29.2331 12.6694 50.2432 12.5171 64.6958 20.4916 77.3784 32.3464 83.959L29.4053 98.3447C10.9836 90.0667-1.78425 71.4985-1.55897 50.094-1.25753 21.2589 22.5108-1.95662 51.4263-1.65287 71.4695-1.44523 88.7878 10.0252 97.4385 26.6393" fill="#FFFFFF" fill-rule="evenodd" transform="matrix(1 0 0 -1 1669 1087)"/></g></svg>