<svg width="424" height="424" xmlns="http://www.w3.org/2000/svg" xmlns:xlink="http://www.w3.org/1999/xlink" xml:space="preserve" overflow="hidden"><g transform="translate(-768 327)"><path d="M380.066 422.217 36.5885 422.217C14.7189 422.217-3.17336 404.326-3.17336 382.457L-3.17336 38.9791C-3.17336 17.1095 14.7189-0.782725 36.5885-0.782725L380.066-0.782725C401.936-0.782725 419.828 17.1095 419.828 38.9791L419.828 382.457C419.828 404.326 401.936 422.217 380.066 422.217" fill="#034F7D" fill-rule="evenodd" transform="matrix(1 0 0 -1 772 95.9999)"/><path d="M34.9769 17.6567C34.9769 27.8754 26.471 36.1573 15.9761 36.1573 5.47974 36.1573-3.02473 27.8754-3.02473 17.6567-3.02473 7.43675 5.47974-0.843828 15.9761-0.843828 26.471-0.843828 34.9769 7.43675 34.9769 17.6567" fill="#FFFFFF" fill-rule="evenodd" transform="matrix(1 0 0 -1 820 -157)"/><path d="M111.982 32.094C101.812 12.6098 81.4364-0.705099 57.9488-0.705099 24.2684-0.705099-3.01752 26.6624-3.01752 60.4068-3.01752 85.3241 11.8248 106.73 33.1082 116.295L36.5626 99.2155C22.9492 91.6771 13.7304 77.1413 13.7304 60.4068 13.7304 35.9389 33.5437 16.0972 57.9488 16.0972 79.7832 16.0972 97.9207 31.9683 101.502 52.8104" fill="#FFFFFF" fill-rule="evenodd" transform="matrix(1 0 0 -1 797 -1.00003)"/><path d="M22.3089 105.475 54.0313 105.475C59.1728 105.475 63.3427 101.301 63.3427 96.1303 63.3427 91.9206 59.9344 88.4995 55.7291 88.4995L25.8448 88.4995 28.5468 73.7506 69.9039 73.7506C73.844 73.7506 77.448 71.524 79.2266 67.999L106.905 13.21C109.297 8.49063 107.334 2.70493 102.562 0.432788 96.5671-2.4202 89.4045 0.0839951 86.47 6.0448L66.2531 47.1853C64.9142 49.8988 62.164 51.6143 59.16 51.6143L19.8141 51.6143C14.9974 51.6143 10.8375 55.0239 9.87868 59.7661L-2.87496 122.545C-4.11032 128.585 0.499253 134.256 6.65623 134.256L6.80657 134.256C12.4898 134.256 17.376 130.232 18.4851 124.643" fill="#FFFFFF" fill-rule="evenodd" transform="matrix(1 0 0 -1 834 -16.9998)"/><path d="M118.681-0.814391 118.681 37.1872 23.0654 37.1872C20.6273 37.1872 18.2687 35.9471 16.4423 33.6506L-1.68169 11.0954C-4.99824 6.95649-2.9419-0.814391 1.46314-0.814391" fill="#FFFFFF" fill-rule="evenodd" transform="matrix(1 0 0 -1 1048 -116)"/><path d="M37.8518 19.5914C37.8518 30.9122 28.6762 40.0921 17.3462 40.0921 6.01767 40.0921-3.14808 30.9122-3.14808 19.5914-3.14808 8.27068 6.01767-0.909223 17.3462-0.909223 28.6762-0.909223 37.8518 8.27068 37.8518 19.5914" fill="#FFFFFF" fill-rule="evenodd" transform="matrix(1 0 0 -1 944 -189)"/><path d="M102.842 9.11128 102.842 101.802C102.842 110.353 101.484 118.845 98.8261 126.98L85.1984 168.521C82.0797 176.783 74.1609 182.25 65.3334 182.25L54.4923 182.25C48.9093 182.25 43.6851 179.523 40.5086 174.943L-3.15822 112.068C4.31128 107.049 14.4275 108.96 19.5499 116.36L42.5222 149.397 47.1712 149.397 48.9898 143.171 63.7451 164.667 64.7809 161.031 23.3708 101.113C30.61 95.9913 40.6343 97.7517 45.6988 105.036L70.4784 140.583 71.2499 136.705 55.9308 114.772 55.8503 10.1017C55.781 4.14098 60.6039-0.750208 66.5882-0.750208 71.6527-0.750208 75.7605 3.35828 75.7605 8.40911L75.7605 90.997C75.7605 92.804 77.2004 94.2648 78.995 94.2888 80.7331 94.3227 82.1603 92.9311 82.1603 91.1821L82.1603 10.0777C82.1603 4.08305 87.0057-0.750208 92.9788-0.750208 98.4346-0.750208 102.842 3.6691 102.842 9.11128" fill="#FFFFFF" fill-rule="evenodd" transform="matrix(1 0 0 -1 922 -1.00003)"/><path d="M-3.32073-0.832517 118.681-0.832517" stroke="#055999" stroke-width="0.463747" stroke-miterlimit="8" fill="none" fill-rule="evenodd" transform="matrix(1 0 0 -1 1048.5 -115.5)"/></g></svg>