<svg width="313" height="415" xmlns="http://www.w3.org/2000/svg" xmlns:xlink="http://www.w3.org/1999/xlink" xml:space="preserve" overflow="hidden"><g transform="translate(-1123 -1908)"><path d="M76.7977 76.7952C68.0174 85.4002 56.4212 90.0688 44.1259 89.939 31.8391 89.8088 20.3378 84.9013 11.7404 76.1133 3.146 67.3307-1.5172 55.7318-1.38747 43.4531-1.26029 31.1686 3.64751 19.6669 12.4278 11.0736 21.0871 2.59264 32.4913-2.05823 44.5981-2.05823 44.7604-2.05823 44.9257-2.05823 45.0909-2.05823 57.3774-1.92844 68.8791 2.97659 77.4764 11.7526 86.0737 20.5319 90.7398 32.1316 90.6072 44.4157 90.48 56.6973 85.5748 68.1961 76.7977 76.7952M63.543 25.4134C58.5935 20.3579 51.9674 17.5318 44.8844 17.4578 44.7927 17.4578 44.6985 17.4578 44.6039 17.4578 30.1244 17.4578 18.2687 29.1517 18.1154 43.6569 18.0415 50.7235 20.7273 57.4028 25.6768 62.4583 30.632 67.52 37.2549 70.349 44.3292 70.4226 44.4238 70.4226 44.5184 70.4226 44.6126 70.4226 59.0921 70.4226 70.951 58.7229 71.1014 44.2119 71.1782 37.1425 68.4924 30.466 63.543 25.4134" fill="#6E6E70" fill-rule="evenodd" transform="matrix(1 0 0 -1 1171 1998)"/><path d="M200.943-1.78148C195.428-1.78148 190.013-0.292466 185.263 2.53915 180.286 5.50275 176.271 9.80282 173.651 14.9843L130.882 98.8187C130.305 99.9554 129.149 100.663 127.873 100.663L46.7557 100.663C41.5145 100.663 36.3877 102.487 32.3229 105.798 28.264 109.114 25.4494 113.76 24.4022 118.895L-0.874988 242.623C-2.50471 250.603-0.919406 258.74 3.58373 265.536 8.08398 272.327 14.9636 276.965 22.9581 278.592 30.9464 280.223 39.0997 278.645 45.9114 274.145 52.7178 269.651 57.3621 262.778 58.9944 254.795L59.0001 254.774 63.7474 231.241C63.968 230.175 64.9091 229.403 66.0004 229.403L119.67 229.4C126.67 229.376 133.408 227.085 138.644 222.952 144.918 218 148.644 210.854 149.432 202.283 150.153 194.42 147.632 186.886 142.338 181.067 136.844 175.037 128.908 171.421 121.108 171.392L78.8421 171.392C77.3919 171.392 76.3067 170.061 76.5949 168.64L77.5771 163.834C77.792 162.766 78.7331 161.999 79.8244 161.999L153.397 161.999C157.615 161.999 161.739 160.836 165.336 158.636 168.924 156.433 171.833 153.287 173.745 149.533L228.223 42.4385C231.894 35.16 232.502 26.8888 229.941 19.152 227.376 11.4152 221.955 5.13852 214.661 1.47856 210.449-0.63614 205.943-1.73171 201.263-1.77859 201.157-1.78148 201.052-1.78148 200.943-1.78148M29.0873 259.797C28.3434 259.797 27.5905 259.724 26.8462 259.574 23.9345 258.978 21.4313 257.291 19.7903 254.821 18.1577 252.351 17.5814 249.399 18.1725 246.503L43.4468 122.775C43.7675 121.209 45.1556 120.076 46.7557 120.076L127.873 120.076C132.085 120.076 136.209 118.912 139.794 116.715 143.382 114.521 146.291 111.379 148.203 107.633L190.998 23.7431C192.907 19.9684 196.707 17.6305 200.943 17.6305 200.978 17.6305 201.022 17.6305 201.057 17.6305 202.755 17.6482 204.393 18.0506 205.937 18.8231 208.578 20.1505 210.555 22.4329 211.484 25.2469 212.414 28.0489 212.193 31.045 210.869 33.6797L156.409 140.742C155.83 141.879 154.679 142.586 153.397 142.586L63.9475 142.586C62.8562 142.586 61.9151 143.353 61.7002 144.422L52.7972 188.052C52.5091 189.474 53.5942 190.801 55.0441 190.801L121.055 190.807C122.993 190.816 125.876 191.847 127.952 194.126 129.585 195.921 130.3 198.068 130.073 200.509 129.779 203.746 128.634 206.104 126.591 207.723 124.779 209.15 122.243 209.975 119.617 209.987L50.091 209.99C48.9939 209.99 48.0529 210.76 47.838 211.829L39.9436 250.918C39.3553 253.82 37.6642 256.319 35.1848 257.958 33.3463 259.168 31.2407 259.797 29.0873 259.797" fill="#6E6E70" fill-rule="evenodd" transform="matrix(1 0 0 -1 1204 2289)"/><path d="M126.122-1.69864C119.075-1.69864 111.981-1.12606 104.922 0.0133411 91.8123 2.13673 79.1439 6.34818 67.2627 12.533 55.6961 18.5592 45.1225 26.3241 35.8394 35.6102 26.5618 44.8963 18.8039 55.4718 12.7853 67.0457 6.60807 78.9192 2.40005 91.5856 0.281064 104.687-6.07228 143.946 5.66782 183.076 32.4862 212.038 38.4166 218.444 46.8183 221.797 55.5345 221.242 64.2504 220.687 72.1584 216.291 77.2277 209.181L77.3013 209.075C81.1745 203.648 83.0521 196.993 82.591 190.341 82.1324 183.713 79.3701 177.384 74.8121 172.527 59.7072 156.418 53.251 134.565 57.0978 112.569 58.3527 105.403 60.7243 98.5165 64.1479 92.1085 67.4947 85.8382 71.7824 80.1379 76.8928 75.1632 82.0032 70.1909 87.819 66.053 94.181 62.8667 100.684 59.6096 107.637 57.4131 114.843 56.3353 126.712 54.5642 138.303 55.6831 149.293 59.6627 159.623 63.4039 169.068 69.6623 176.602 77.765 181.125 82.6284 187.252 85.7884 193.858 86.6635 200.424 87.5357 207.153 86.1086 212.804 82.6432 220.263 78.0733 225.196 70.4786 226.34 61.8124 227.486 53.1342 224.685 44.5087 218.658 38.1507 204.69 23.4136 187.241 12.0982 168.195 5.42873 158.35 1.97808 148.071-0.245187 137.647-1.18483 133.827-1.52845 129.98-1.69864 126.122-1.69864M53.6829 201.892C51.0472 201.892 48.5461 200.802 46.7418 198.855 41.3377 193.017 36.574 186.585 32.5832 179.736 28.5368 172.794 25.2748 165.402 22.8856 157.763 17.8488 141.664 16.6939 124.848 19.4533 107.785 21.2429 96.7281 24.7986 86.035 30.0179 75.9972 35.1222 66.1821 41.705 57.2104 49.5838 49.328 57.4622 41.4427 66.431 34.8555 76.2405 29.7455 86.2729 24.5209 96.97 20.9646 108.025 19.1758 117.347 17.6664 126.727 17.3228 135.904 18.1478 144.732 18.9439 153.437 20.8265 161.771 23.7456 177.913 29.399 192.706 38.9934 204.558 51.4983 206.542 53.5892 207.462 56.4233 207.085 59.2722 206.709 62.112 205.093 64.6024 202.651 66.1003 198.819 68.4465 193.846 67.7946 190.828 64.5494 181.201 54.2 169.127 46.2004 155.908 41.4135 149.082 38.9407 141.946 37.3135 134.7 36.5794 127.209 35.8189 119.563 36.0068 111.972 37.1404 102.733 38.5207 93.8194 41.3371 85.4795 45.5132 77.3308 49.5952 69.881 54.8934 63.3397 61.2603 56.7951 67.633 51.3027 74.9338 47.0124 82.9691 42.6189 91.1948 39.5745 100.032 37.9671 109.227 35.4631 123.538 36.3244 137.684 40.5295 151.267 44.4821 164.042 51.438 175.983 60.642 185.801 63.7391 189.102 64.0949 194.153 61.4852 197.81L61.4087 197.915C59.7486 200.247 57.1538 201.689 54.2973 201.871 54.0917 201.886 53.8889 201.892 53.6829 201.892" fill="#6E6E70" fill-rule="evenodd" transform="matrix(1 0 0 -1 1125 2321)"/></g></svg>