<svg width="251" height="251" xmlns="http://www.w3.org/2000/svg" xmlns:xlink="http://www.w3.org/1999/xlink" xml:space="preserve" overflow="hidden"><g transform="translate(-3574 -249)"><path d="M227.742 247.683 19.4107 247.683C7.90512 247.683-1.42345 238.354-1.42345 226.851L-1.42345 18.5147C-1.42345 7.00885 7.90512-2.31704 19.4107-2.31704L227.742-2.31704C239.248-2.31704 248.577 7.00885 248.577 18.5147L248.577 226.851C248.577 238.354 239.248 247.683 227.742 247.683" fill="#2E2A26" fill-rule="evenodd" transform="matrix(1 0 0 -1 3576 497)"/><path d="M16.514-2.32327C6.62425-2.32327-1.42728 5.72841-1.42728 15.6215L-1.42728 182.735C-1.42728 192.628 6.62425 200.677 16.514 200.677L183.628 200.677C193.524 200.677 201.573 192.628 201.573 182.735L201.573 15.6215C201.573 5.72841 193.524-2.32327 183.628-2.32327" fill="#2E2A26" fill-rule="evenodd" transform="matrix(1 0 0 -1 3600 473)"/><path d="M186.671 200.775C194.942 200.775 201.671 194.049 201.671 185.775L201.671 18.5764C201.671 10.3058 194.942 3.57653 186.671 3.57653L19.4734 3.57653C11.1995 3.57653 4.47009 10.3058 4.47009 18.5764L4.47009 185.775C4.47009 194.049 11.1995 200.775 19.4734 200.775ZM186.671 206.676 19.4734 206.676C7.93049 206.676-1.42802 197.318-1.42802 185.775L-1.42802 18.5764C-1.42802 7.03399 7.93049-2.3244 19.4734-2.3244L186.671-2.3244C198.214-2.3244 207.572 7.03399 207.572 18.5764L207.572 185.775C207.572 197.318 198.214 206.676 186.671 206.676" fill="#FFFFFF" fill-rule="evenodd" transform="matrix(1 0 0 -1 3597 476)"/><path d="M12.2367-2.40326C19.6934-2.32643 25.6725 3.77831 25.5957 11.2316 25.5161 18.6795 19.4131 24.6748 11.9535 24.5951 4.49647 24.5157-1.48228 18.3961-1.40261 10.9515-1.32583 3.50069 4.77967-2.47973 12.2367-2.40326" fill="#FFFFFF" fill-rule="evenodd" transform="matrix(1 0 0 -1 3665 329)"/><path d="M77.7205 8.97699 57.3165 49.0894C56.4768 50.7344 54.7882 51.771 52.9402 51.771L21.6982 51.771 19.4985 62.5648 40.8307 62.5648C44.1901 62.5764 46.9076 65.2993 46.9076 68.6572 46.9076 72.0146 44.1901 74.7375 40.8307 74.7491L17.0529 74.7491 14.001 89.4472C13.1406 93.6639 9.02166 96.3869 4.79601 95.5247 0.579079 94.6683-2.1475 90.5516-1.28995 86.3403L8.18154 39.9851C8.64589 37.7052 10.654 36.0631 12.987 36.0631L43.3769 36.0631C45.219 36.0631 46.9105 35.0298 47.7474 33.3877L63.7746 1.97241C65.1586-0.771196 67.9502-2.34513 70.8332-2.31576 71.9867-2.3038 73.1546-2.03513 74.2576-1.48293 78.1046 0.451406 79.6541 5.13515 77.7205 8.97699" fill="#FFFFFF" fill-rule="evenodd" transform="matrix(1 0 0 -1 3675 430)"/><path d="M74.0962 36.1115C71.4859 21.2248 58.5475 9.80166 42.8872 9.63692 25.2229 9.45447 10.7043 23.6613 10.5189 41.3111 10.3925 53.4525 17.0779 64.105 27.0149 69.6341L24.552 81.7165C9.10672 74.7633-1.59865 59.1673-1.41007 41.1847-1.15717 16.9638 18.7698-2.53694 43.0137-2.28079 59.816-2.10701 74.3371 7.52701 81.5876 21.4838" fill="#FFFFFF" fill-rule="evenodd" transform="matrix(1 0 0 -1 3648 441)"/></g></svg>