<svg width="229" height="300" xmlns="http://www.w3.org/2000/svg" xmlns:xlink="http://www.w3.org/1999/xlink" xml:space="preserve" overflow="hidden"><g transform="translate(-2197 -1700)"><path d="M26.2686-2.5093C42.0182-2.33211 54.6347 10.7764 54.4684 26.7928 54.3012 42.7884 41.4143 55.6642 25.6775 55.487 9.92793 55.3245-2.68862 42.1804-2.52911 26.1779-2.36192 10.1684 10.5182-2.67867 26.2686-2.5093" fill="#2E2A26" fill-rule="evenodd" transform="matrix(1 0 0 -1 2236 1756)"/><path d="M166.563 21.7748 122.95 107.318C121.159 110.831 117.549 113.037 113.6 113.037L46.8168 113.037 42.1132 136.048 87.7076 136.048C94.8932 136.076 100.71 141.893 100.71 149.046 100.71 156.213 94.8932 162.009 87.7076 162.045L36.8884 162.045 30.3729 193.388C28.5323 202.382 19.7182 208.192 10.6919 206.359 1.67348 204.518-4.15124 195.749-2.31759 186.763L17.92 87.9049C18.9217 83.0431 23.2227 79.5364 28.1938 79.5364L93.1583 79.5364C97.0931 79.5364 100.71 77.3307 102.501 73.8318L136.757 6.8304C139.719 0.984274 145.684-2.36709 151.847-2.30325 154.315-2.28945 156.804-1.71321 159.159-0.533113 167.388 3.58428 170.702 13.5823 166.563 21.7748" fill="#2E2A26" fill-rule="evenodd" transform="matrix(1 0 0 -1 2257 1972)"/><path d="M159.338 80.0204C153.741 48.1185 125.99 23.6451 92.4102 23.2936 54.5286 22.892 23.3912 53.3455 22.9902 91.1568 22.7223 117.178 37.0623 140.005 58.3722 151.851L53.0851 177.746C19.9633 162.846-2.99402 129.418-2.5852 90.8891-2.04327 38.9876 40.6881-2.79834 92.6773-2.24904 128.714-1.86988 159.859 18.7705 175.41 48.6747" fill="#2E2A26" fill-rule="evenodd" transform="matrix(1 0 0 -1 2200 1997)"/></g></svg>