<svg width="255" height="255" xmlns="http://www.w3.org/2000/svg" xmlns:xlink="http://www.w3.org/1999/xlink" xml:space="preserve" overflow="hidden"><g transform="translate(-3764 -1601)"><path d="M20.6135-0.684214C8.23357-0.684214-1.8357 9.38506-1.8357 21.765L-1.8357 230.867C-1.8357 243.243 8.23357 253.316 20.6135 253.316L229.715 253.316C242.091 253.316 252.164 243.243 252.164 230.867L252.164 21.765C252.164 9.38506 242.091-0.684214 229.715-0.684214" fill="#2E2A26" fill-rule="evenodd" transform="matrix(1 0 0 -1 3766 1855)"/><path d="M14.9084-0.784532C24.0241-0.684476 31.332 7.0053 31.235 16.3883 31.1415 25.7677 23.6787 33.3096 14.5634 33.2137 5.44765 33.1136-1.86029 25.412-1.76324 16.029-1.66619 6.6501 5.79262-0.884588 14.9084-0.784532" fill="#FFFFFF" fill-rule="evenodd" transform="matrix(1 0 0 -1 3848 1675)"/><path d="M97.0943 13.3884 71.5926 63.3268C70.5465 65.3749 68.4322 66.6646 66.1261 66.6646L27.0724 66.6646 24.3244 80.1002 50.9826 80.1002C55.1859 80.1146 58.586 83.5037 58.586 87.688 58.586 91.8683 55.1859 95.2574 50.9826 95.2722L21.2631 95.2722 17.4546 113.569C16.375 118.816 11.2251 122.209 5.95041 121.135 0.667991 120.069-2.73935 114.947-1.6598 109.7L10.1718 51.991C10.7575 49.1516 13.2698 47.1107 16.1797 47.1107L54.1656 47.1107C56.4753 47.1107 58.586 45.8246 59.6321 43.7801L79.6673 4.66883C81.3985 1.25774 84.8868-0.70624 88.4895-0.665755 89.9372-0.654959 91.3958-0.318033 92.7661 0.367065 97.5804 2.77458 99.522 8.60713 97.0943 13.3884" fill="#FFFFFF" fill-rule="evenodd" transform="matrix(1 0 0 -1 3860 1801)"/><path d="M92.7926 47.3582C89.5225 28.7513 73.3079 14.4695 53.6906 14.2643 31.557 14.0334 13.3653 31.7901 13.1338 53.8575 12.9723 69.0336 21.3496 82.3509 33.8018 89.2607L30.7152 104.363C11.3627 95.6723-2.05213 76.1779-1.8171 53.7-1.49726 23.4176 23.4694-0.95188 53.8449-0.633237 74.9026-0.416757 93.0939 11.6287 102.18 29.0735" fill="#FFFFFF" fill-rule="evenodd" transform="matrix(1 0 0 -1 3827 1815)"/><path d="M3.11314-0.797912C5.87496-0.797912 8.11553 1.4394 8.11553 4.20207 8.11553 6.96431 5.87496 9.20205 3.11314 9.20205 0.351744 9.20205-1.88488 6.96431-1.88488 4.20207-1.88488 1.4394 0.351744-0.797912 3.11314-0.797912" fill="#FFFFFF" fill-rule="evenodd" transform="matrix(1 0 0 -1 3983 1632)"/><path d="M-1.73455-0.781203C-2.28937-0.781203-2.7349-0.467827-2.7349-0.0850594L-2.7349 66.5223C-2.7349 66.9086-2.28937 67.2189-1.73455 67.2189-1.17972 67.2189-0.734193 66.9086-0.734193 66.5223L-0.734193-0.0850594C-0.734193-0.467827-1.17972-0.781203-1.73455-0.781203" fill="#FFFFFF" fill-rule="evenodd" transform="matrix(1 0 0 -1 3967 1686)"/><path d="M23.0439 45.0101C23.0439 48.9911 19.8454 52.2165 15.8656 52.2165L5.22248 52.2165C1.2354 52.2165-1.95582 48.9911-1.95582 45.0101L-1.95582 30.9118C-1.95218 29.6419-0.919502 28.6121 0.350438 28.6121 1.62038 28.6121 2.65669 29.6419 2.65669 30.9118L2.65669 43.0955C2.65669 43.4474 2.94168 43.7325 3.28621 43.7325 3.64165 43.7325 3.92663 43.4474 3.92663 43.0955L3.92663 2.20831C3.92663 0.556966 5.26294-0.783844 6.92149-0.783844 8.57278-0.783844 9.90908 0.556966 9.90908 2.20831L9.90908 26.3683C9.90908 26.7162 10.1941 27.0012 10.5422 27.0012 10.8936 27.0012 11.179 26.7162 11.179 26.3683L11.179 2.20831C11.179 0.556966 12.5153-0.783844 14.1662-0.783844 15.8174-0.783844 17.1615 0.556966 17.1615 2.20831L17.1615 43.0955C17.1615 43.4474 17.4428 43.7325 17.7946 43.7325 18.146 43.7325 18.431 43.4474 18.431 43.0955L18.431 30.9118C18.431 29.6419 19.4677 28.6121 20.7377 28.6121 22.0072 28.6121 23.0366 29.6419 23.0439 30.9118" fill="#FFFFFF" fill-rule="evenodd" transform="matrix(1 0 0 -1 3976 1686)"/><path d="M3.48046-0.797912C6.51507-0.797912 8.9766 1.44334 8.9766 4.20207 8.9766 6.96431 6.51507 9.20205 3.48046 9.20205 0.43813 9.20205-2.0234 6.96431-2.0234 4.20207-2.0234 1.44334 0.43813-0.797912 3.48046-0.797912" fill="#FFFFFF" fill-rule="evenodd" transform="matrix(1 0 0 -1 3940 1632)"/><path d="M24.3415 47.0992C23.4088 50.1135 20.4945 52.2166 17.4661 52.2166L9.62794 52.2166C6.6042 52.2166 3.6894 50.1135 2.75673 47.0992L-1.84586 32.2209C-2.21948 31.0061-1.5172 29.7213-0.279057 29.3508 0.963258 28.9807 2.27325 29.6658 2.65475 30.8801L4.42552 36.6049 4.4181 36.6085 6.93981 44.7442C7.04179 45.0775 7.40429 45.2698 7.74407 45.1661 8.08756 45.0661 8.2804 44.7069 8.17471 44.3737L0.948424 21.0341C0.929419 20.975 0.921538 20.9191 0.921538 20.86 0.921538 20.5418 1.18205 20.2822 1.507 20.2822L7.67639 20.2822 7.67639 1.78262C7.67639 0.367799 8.84686-0.78379 10.289-0.78379 11.7348-0.78379 12.9052 0.367799 12.9052 1.78262L12.9052 20.2822 14.193 20.2822 14.193 1.78262C14.193 0.367799 15.363-0.78379 16.8056-0.78379 18.2555-0.78379 19.426 0.367799 19.426 1.78262L19.426 20.2822 25.5912 20.2822C25.912 20.2822 26.1767 20.5418 26.1767 20.86 26.1767 20.9191 26.1688 20.975 26.1503 21.0341L18.9235 44.3737C18.8178 44.7069 19.0107 45.0661 19.3542 45.1661 19.6939 45.2698 20.0564 45.0775 20.1584 44.7442L24.3452 31.2248C24.3531 31.1911 24.3642 31.1652 24.3753 31.1356L24.4514 30.8801C24.8324 29.6658 26.1424 28.9807 27.3847 29.3508 28.6228 29.7213 29.3251 31.0061 28.9552 32.2209" fill="#FFFFFF" fill-rule="evenodd" transform="matrix(1 0 0 -1 3930 1686)"/></g></svg>