<?xml version="1.0" encoding="UTF-8"?>
<svg id="Layer_1" data-name="Layer 1" xmlns="http://www.w3.org/2000/svg" xmlns:xlink="http://www.w3.org/1999/xlink" viewBox="8 8 97 97">
  <defs>
    <style>
      .cls-1, .cls-2, .cls-3 {
        fill: none;
      }

      .cls-4 {
        fill: #ff9e18;
      }

      .cls-4, .cls-5, .cls-6, .cls-7, .cls-8, .cls-9, .cls-10 {
        fill-rule: evenodd;
      }

      .cls-11 {
        fill: url(#linear-gradient-5);
      }

      .cls-12 {
        fill: url(#linear-gradient-4);
      }

      .cls-13 {
        fill: url(#linear-gradient-3);
      }

      .cls-14 {
        fill: url(#linear-gradient-2);
      }

      .cls-15, .cls-10 {
        fill: #231f20;
      }

      .cls-5 {
        fill: #00953b;
      }

      .cls-16 {
        fill: url(#linear-gradient);
      }

      .cls-6 {
        fill: #e1251b;
      }

      .cls-2 {
        opacity: .2;
        stroke-width: 2.52px;
      }

      .cls-2, .cls-3 {
        stroke: #ff9e18;
        stroke-miterlimit: 10;
      }

      .cls-7 {
        fill: #9d5918;
      }

      .cls-8 {
        fill: #9e28b5;
      }

      .cls-9 {
        fill: #0055b8;
      }

      .cls-17 {
        clip-path: url(#clippath-1);
      }

      .cls-18 {
        clip-path: url(#clippath-3);
      }

      .cls-19 {
        clip-path: url(#clippath-4);
      }

      .cls-20 {
        clip-path: url(#clippath-2);
      }

      .cls-21 {
        fill: #fff;
      }

      .cls-22 {
        clip-path: url(#clippath);
      }

      .cls-3 {
        stroke-width: 2.5px;
      }
    </style>
    <clipPath id="clippath">
      <rect class="cls-1" x="76.12" y="22.36" width="9.68" height="12.31" transform="translate(156.72 -11.84) rotate(132.55)"/>
    </clipPath>
    <clipPath id="clippath-1">
      <rect class="cls-1" x="86.73" y="60.9" width="9.68" height="12.31" transform="translate(156.8 159.94) rotate(-161.3)"/>
    </clipPath>
    <clipPath id="clippath-2">
      <rect class="cls-1" x="50.24" y="86.67" width="9.68" height="12.31" transform="translate(-37.15 148.9) rotate(-90.62)"/>
    </clipPath>
    <clipPath id="clippath-3">
      <rect class="cls-1" x="16.45" y="59.68" width="9.68" height="12.31" transform="translate(-17.34 8.43) rotate(-16.02)"/>
    </clipPath>
    <clipPath id="clippath-4">
      <rect class="cls-1" x="27.59" y="22.63" width="9.68" height="12.31" transform="translate(34.2 -14.54) rotate(50.75)"/>
    </clipPath>
    <linearGradient id="linear-gradient" x1="44.84" y1="22.47" x2="34.86" y2="28.21" gradientUnits="userSpaceOnUse">
      <stop offset="0" stop-color="#ff9e18" stop-opacity="0"/>
      <stop offset="1" stop-color="#ff9e18"/>
    </linearGradient>
    <linearGradient id="linear-gradient-2" x1="88.38" y1="40.6" x2="84.38" y2="33.22" xlink:href="#linear-gradient"/>
    <linearGradient id="linear-gradient-3" x1="82.81" y1="80.64" x2="89.64" y2="71.27" xlink:href="#linear-gradient"/>
    <linearGradient id="linear-gradient-4" x1="40.21" y1="89.05" x2="53.09" y2="91.06" xlink:href="#linear-gradient"/>
    <linearGradient id="linear-gradient-5" x1="21.11" y1="48.24" x2="20.9" y2="61.07" xlink:href="#linear-gradient"/>
  </defs>
  <rect x="0" y="0" width="113.39" height="113.39" style="fill:none"/>
  <g class="cls-22">
    <polyline class="cls-3" points="93.87 24.48 79.55 27.22 78.04 41.73"/>
  </g>
  <g class="cls-17">
    <polyline class="cls-3" points="100.48 77.24 92.18 65.25 78.31 69.73"/>
  </g>
  <g class="cls-20">
    <polyline class="cls-3" points="48.42 104.6 56.99 92.81 48.17 81.2"/>
  </g>
  <g class="cls-18">
    <polyline class="cls-3" points="8.17 62.55 21.82 67.68 30.66 56.09"/>
  </g>
  <g class="cls-19">
    <polyline class="cls-3" points="30.27 15.43 30.94 30 45.09 33.55"/>
  </g>
  <path class="cls-2" d="M71.87,89.55c12.69-5.77,21.51-18.56,21.51-33.41,0-20.26-16.43-36.69-36.69-36.69-20.26,0-36.69,16.43-36.69,36.69,0,14.53,8.45,27.09,20.7,33.03h0c4.83,2.34,10.26,3.66,15.99,3.66,5.41,0,10.55-1.17,15.18-3.28h0Z"/>
  <path class="cls-16" d="M31.83,30.9l-1.77-1.79c6.21-6.12,14.4-9.94,23.05-10.75l.23,2.51c-8.08.76-15.72,4.32-21.52,10.03Z"/>
  <path class="cls-14" d="M90.18,44.54c-2.21-6.39-6.19-11.99-11.52-16.21l1.56-1.98c5.71,4.51,9.97,10.52,12.34,17.36l-2.38.82Z"/>
  <path class="cls-13" d="M79.32,86.61l-1.5-2.02c6.35-4.72,10.98-11.5,13.06-19.08l2.43.66c-2.22,8.12-7.19,15.38-13.98,20.44Z"/>
  <path class="cls-12" d="M56.69,94.09c-5.8,0-11.36-1.27-16.54-3.79-1.56-.75-3.07-1.62-4.51-2.58l1.4-2.1c1.34.89,2.75,1.71,4.21,2.41,4.83,2.34,10.03,3.53,15.44,3.53v2.52Z"/>
  <path class="cls-11" d="M20.66,68.06c-1.27-3.83-1.91-7.85-1.91-11.93,0-3.79.56-7.53,1.66-11.12l2.41.74c-1.03,3.35-1.55,6.85-1.55,10.39,0,3.81.6,7.56,1.79,11.14l-2.39.79Z"/>
  <g>
    <g>
      <path class="cls-10" d="M56.69,15.65h-9.79c-.39,0-.72.15-.99.36-.33.25-.55.59-.66.82-.2.4-.36.83-.47,1.27-.1.43-.16.88-.16,1.35s.05.91.16,1.35c.1.44.26.87.47,1.27.11.23.33.57.66.82.27.21.6.36.99.36h3.41s1.55,0,1.55,0h4.82"/>
      <path class="cls-4" d="M56.69,16.07h-5.07s-1.49,0-1.49,0h-3.29c-.72,0-1.13.73-1.24.95-.37.76-.56,1.58-.56,2.43s.19,1.67.56,2.43c.11.22.52.95,1.24.95h9.86"/>
      <path class="cls-10" d="M56.69,15.65h9.79c.39,0,.72.15.99.36.33.25.55.59.66.82.2.4.36.83.47,1.27.1.43.16.88.16,1.35s-.05.91-.16,1.35c-.1.44-.26.87-.47,1.27-.11.23-.33.57-.66.82-.27.21-.6.36-.99.36h-3.41s-1.55,0-1.55,0h-4.82"/>
      <path class="cls-6" d="M56.69,16.07h5.07s1.49,0,1.49,0h3.29c.72,0,1.13.73,1.24.95.37.76.56,1.58.56,2.43s-.19,1.67-.56,2.43c-.11.22-.52.95-1.24.95h-9.86"/>
    </g>
    <g>
      <path class="cls-21" d="M60.14,20.86h-.34l-1.32-1.79v1.79h-.36v-2.65h.34l1.31,1.79v-1.51s.02-.09.07-.15c.08-.1.18-.15.29-.16v2.68Z"/>
      <path class="cls-21" d="M62.07,18.29l-.1.32c-.17-.08-.34-.12-.5-.12-.11,0-.2.02-.27.06-.09.05-.13.13-.13.23,0,.07.02.14.07.19.05.06.14.13.27.22l.17.11c.18.12.31.23.39.33.14.15.2.33.2.54,0,.22-.07.4-.22.53-.15.14-.37.2-.65.2-.23,0-.47-.06-.7-.17l.12-.35c.18.13.37.2.57.2.14,0,.25-.04.32-.11.05-.05.07-.12.07-.2s-.03-.16-.08-.22c-.05-.06-.15-.14-.29-.24l-.17-.11c-.16-.1-.29-.21-.37-.31-.12-.15-.19-.31-.19-.5,0-.27.11-.47.32-.59.15-.08.33-.13.55-.13s.43.04.61.1Z"/>
    </g>
    <g>
      <path class="cls-21" d="M64.15,18.21h.33v2.65h-.5v-2.25l-.65.38-.13-.25.96-.54Z"/>
      <path class="cls-21" d="M65.07,18.21h1.85v.26l-1.19,2.39h-.37l1.14-2.21h-1.43v-.44Z"/>
    </g>
    <g>
      <path class="cls-15" d="M48.4,18.29l-.1.33c-.19-.08-.35-.12-.47-.12-.23,0-.41.11-.53.32-.11.19-.16.43-.16.73s.05.54.16.73c.12.21.29.31.51.31.15,0,.32-.05.5-.16l.11.33c-.21.1-.44.15-.71.15-.45,0-.77-.17-.97-.52-.13-.23-.2-.51-.2-.83,0-.45.13-.8.38-1.05.22-.22.5-.33.85-.33.24,0,.45.04.63.12Z"/>
      <path class="cls-15" d="M50.47,18.29l-.1.33c-.19-.08-.35-.12-.47-.12-.23,0-.41.11-.53.32-.11.19-.16.43-.16.73s.05.54.16.73c.12.21.29.31.51.31.15,0,.32-.05.5-.16l.11.33c-.21.1-.44.15-.71.15-.45,0-.77-.17-.97-.52-.13-.23-.2-.51-.2-.83,0-.45.13-.8.38-1.05.22-.22.5-.33.86-.33.24,0,.45.04.63.12Z"/>
    </g>
    <g>
      <path class="cls-15" d="M52.35,18.21h.33v2.65h-.5v-2.25l-.65.38-.13-.25.96-.54Z"/>
      <path class="cls-15" d="M53.48,18.21h1.47v.42h-1.17v.68c.13-.05.27-.07.42-.07.26,0,.48.07.65.21.18.14.27.34.27.58s-.08.42-.24.59c-.19.19-.46.29-.79.29-.27,0-.51-.06-.72-.17l.11-.33c.17.12.37.18.57.18.18,0,.32-.05.41-.15.08-.09.12-.21.12-.37,0-.21-.08-.35-.23-.44-.1-.06-.21-.08-.35-.08-.17,0-.35.05-.53.15v-1.47Z"/>
    </g>
  </g>
  <g>
    <g>
      <path class="cls-10" d="M21.81,41.02h4.82s1.55,0,1.55,0h3.41c.39,0,.72.15.99.36.33.25.55.59.66.82.2.4.36.83.47,1.27.1.43.16.88.16,1.35,0,.46-.05.91-.16,1.35-.1.44-.26.87-.47,1.27-.11.23-.33.57-.66.82-.27.21-.6.36-.99.36h-3.41s-1.55,0-1.55,0h-4.82"/>
      <path class="cls-7" d="M21.81,41.44h5.07s1.49,0,1.49,0h3.29c.72,0,1.13.73,1.24.95.37.76.56,1.58.56,2.43s-.19,1.67-.56,2.43c-.11.22-.52.95-1.24.95h-3.29s-1.49,0-1.49,0h-5.07"/>
      <path class="cls-10" d="M21.81,41.02h-4.82s-1.55,0-1.55,0h-3.41c-.39,0-.72.15-.99.36-.33.25-.55.59-.66.82-.2.4-.36.83-.47,1.27-.1.43-.16.88-.16,1.35,0,.46.05.91.16,1.35.1.44.26.87.47,1.27.11.23.33.57.66.82.27.21.6.36.99.36h3.41s1.55,0,1.55,0h4.82"/>
      <path class="cls-4" d="M21.81,41.44h-5.07s-1.49,0-1.49,0h-3.29c-.72,0-1.13.73-1.24.95-.37.76-.56,1.58-.56,2.43s.19,1.67.56,2.43c.11.22.52.95,1.24.95h3.29s1.49,0,1.49,0h5.07"/>
    </g>
    <g>
      <path class="cls-15" d="M13.63,43.66l-.1.33c-.19-.08-.35-.12-.47-.12-.23,0-.41.11-.53.32-.11.19-.16.43-.16.73s.05.54.16.73c.12.21.29.31.51.31.15,0,.32-.05.5-.16l.11.33c-.21.1-.44.15-.71.15-.45,0-.77-.17-.97-.52-.13-.23-.2-.51-.2-.83,0-.45.13-.8.38-1.05.22-.22.5-.33.86-.33.24,0,.45.04.63.12Z"/>
      <path class="cls-15" d="M15.7,43.66l-.1.33c-.19-.08-.35-.12-.47-.12-.23,0-.41.11-.53.32-.11.19-.16.43-.16.73s.05.54.16.73c.12.21.29.31.51.31.15,0,.32-.05.5-.16l.11.33c-.21.1-.44.15-.71.15-.45,0-.77-.17-.97-.52-.13-.23-.2-.51-.2-.83,0-.45.13-.8.38-1.05.22-.22.5-.33.85-.33.24,0,.45.04.63.12Z"/>
    </g>
    <g>
      <path class="cls-15" d="M17.58,43.58h.33v2.65h-.5v-2.25l-.65.38-.13-.25.96-.54Z"/>
      <path class="cls-15" d="M18.5,43.58h1.85v.26l-1.19,2.39h-.37l1.14-2.21h-1.43v-.44Z"/>
    </g>
    <g>
      <path class="cls-21" d="M24.98,46.23v-1.87c0-.05.02-.11.07-.18.1-.14.22-.23.36-.26h0s-1.1-.01-1.1-.01l-.02-.33h1.93v.33h-.7v2.33h-.54Z"/>
      <path class="cls-21" d="M26.55,46.23v-1.89c0-.09.05-.19.16-.29.08-.08.17-.13.27-.16h0s-.49-.01-.49-.01l-.02-.31h1.65v.33h-1.03v.8h.96v.31h-.96v.88h1.05v.33h-1.58Z"/>
    </g>
    <path class="cls-21" d="M29.17,46.14l.1-.32c.15.1.31.16.48.16.24,0,.42-.13.51-.39.06-.16.09-.38.09-.67-.16.23-.36.34-.57.34-.21,0-.38-.07-.52-.21-.15-.15-.23-.35-.23-.61s.08-.48.25-.64c.16-.17.38-.25.64-.25.36,0,.63.14.79.43.12.21.18.49.18.83,0,.5-.11.87-.33,1.13-.19.23-.46.34-.78.34-.22,0-.43-.04-.61-.13ZM29.92,43.81c-.15,0-.26.08-.32.24-.04.09-.05.2-.05.33,0,.14.02.26.06.35.06.15.17.22.31.22.13,0,.23-.06.3-.17.06-.1.09-.24.09-.4s-.03-.29-.08-.39c-.07-.11-.16-.17-.3-.17Z"/>
  </g>
  <g>
    <g>
      <path class="cls-10" d="M35.12,82h4.82s1.55,0,1.55,0h3.41c.39,0,.72.15.99.36.33.25.55.59.66.82.2.4.36.83.47,1.27.1.43.16.88.16,1.35,0,.46-.05.91-.16,1.35-.1.44-.26.87-.47,1.27-.11.23-.33.57-.66.82-.27.21-.6.36-.99.36h-3.41s-1.55,0-1.55,0h-4.82"/>
      <path class="cls-8" d="M35.12,82.41h5.07s1.49,0,1.49,0h3.29c.72,0,1.13.73,1.24.95.37.76.56,1.58.56,2.43,0,.86-.19,1.67-.56,2.43-.11.22-.52.95-1.24.95h-3.29s-1.49,0-1.49,0h-5.07"/>
      <path class="cls-10" d="M35.12,82h-4.82s-1.55,0-1.55,0h-3.41c-.39,0-.72.15-.99.36-.33.25-.55.59-.66.82-.2.4-.36.83-.47,1.27-.1.43-.16.88-.16,1.35,0,.46.05.91.16,1.35.1.44.26.87.47,1.27.11.23.33.57.66.82.27.21.6.36.99.36h3.41s1.55,0,1.55,0h4.82"/>
      <path class="cls-4" d="M35.12,82.41h-5.07s-1.49,0-1.49,0h-3.29c-.72,0-1.13.73-1.24.95-.37.76-.56,1.58-.56,2.43,0,.86.19,1.67.56,2.43.11.22.52.95,1.24.95h3.29s1.49,0,1.49,0h5.07"/>
    </g>
    <g>
      <path class="cls-15" d="M27.13,84.63l-.1.33c-.19-.08-.35-.12-.47-.12-.23,0-.41.11-.53.32-.11.19-.16.43-.16.73s.05.54.16.73c.12.21.29.31.51.31.15,0,.32-.05.5-.16l.11.33c-.21.1-.44.15-.71.15-.45,0-.77-.17-.97-.52-.13-.23-.2-.51-.2-.83,0-.45.13-.8.38-1.05.22-.22.5-.33.86-.33.24,0,.45.04.63.12Z"/>
      <path class="cls-15" d="M29.21,84.63l-.1.33c-.19-.08-.35-.12-.47-.12-.23,0-.41.11-.53.32-.11.19-.16.43-.16.73s.05.54.16.73c.12.21.29.31.51.31.15,0,.32-.05.5-.16l.11.33c-.21.1-.44.15-.71.15-.45,0-.77-.17-.97-.52-.13-.23-.2-.51-.2-.83,0-.45.13-.8.38-1.05.22-.22.5-.33.86-.33.24,0,.45.04.63.12Z"/>
    </g>
    <g>
      <path class="cls-15" d="M30.57,86.77h1.31v.44h-1.9v-.27c.27-.23.53-.49.79-.77.14-.16.25-.29.32-.4.11-.18.17-.34.17-.5,0-.17-.07-.3-.2-.37-.08-.05-.18-.07-.28-.07-.17,0-.35.05-.53.15l-.11-.34c.18-.08.42-.13.73-.13s.54.07.71.2c.15.12.23.29.23.49,0,.19-.07.37-.21.56-.17.22-.51.55-1.03,1Z"/>
      <path class="cls-15" d="M32.31,87.11l.1-.32c.15.1.31.16.48.16.24,0,.42-.13.51-.39.06-.16.09-.38.09-.67-.16.23-.35.34-.57.34-.21,0-.38-.07-.52-.21-.15-.15-.23-.35-.23-.61s.08-.48.25-.64c.17-.17.38-.25.65-.25.36,0,.63.14.79.43.12.21.18.49.18.83,0,.5-.11.87-.33,1.13-.19.23-.46.34-.78.34-.22,0-.43-.04-.61-.13ZM33.07,84.78c-.15,0-.26.08-.32.24-.04.09-.05.2-.05.33,0,.14.02.26.06.35.06.15.17.22.31.22.13,0,.23-.06.3-.17.06-.1.09-.24.09-.4s-.03-.29-.08-.39c-.07-.11-.16-.17-.3-.17Z"/>
    </g>
    <g>
      <path class="cls-21" d="M39.56,87.21h-.34l-1.32-1.79v1.79h-.36v-2.65h.34l1.31,1.79v-1.51s.02-.09.07-.15c.08-.1.18-.15.29-.16v2.68Z"/>
      <path class="cls-21" d="M40.13,87.21v-1.89c0-.09.05-.19.16-.29.08-.08.17-.13.27-.16h0s-.49-.01-.49-.01l-.02-.31h1.65v.33h-1.03v.8h.96v.31h-.96v.88h1.04v.33h-1.58Z"/>
    </g>
    <path class="cls-21" d="M43.67,84.55h.33v2.65h-.5v-2.25l-.65.38-.13-.25.96-.54Z"/>
  </g>
  <g>
    <g>
      <path class="cls-10" d="M91.57,41.14h-4.82s-1.55,0-1.55,0h-3.41c-.39,0-.72.15-.99.36-.32.25-.54.59-.66.82-.2.4-.36.83-.47,1.27-.1.43-.16.88-.16,1.35,0,.46.06.91.16,1.35.1.44.26.87.47,1.27.11.23.33.57.66.82.27.21.6.36.99.36h3.41s1.55,0,1.55,0h4.82"/>
      <path class="cls-4" d="M91.57,41.56h-5.07s-1.49,0-1.49,0h-3.29c-.72,0-1.13.73-1.24.95-.37.76-.56,1.58-.56,2.43,0,.86.19,1.67.56,2.43.11.22.52.95,1.24.95h3.29s1.49,0,1.49,0h5.07"/>
      <path class="cls-10" d="M91.57,41.14h4.82s1.55,0,1.55,0h3.41c.39,0,.72.15.99.36.32.25.54.59.66.82.2.4.36.83.47,1.27.1.43.16.88.16,1.35s-.05.91-.16,1.35c-.1.44-.26.87-.47,1.27-.11.23-.33.57-.66.82-.27.21-.6.36-.99.36h-3.41s-1.55,0-1.55,0h-4.82"/>
      <path class="cls-5" d="M91.57,41.56h5.07s1.49,0,1.49,0h3.29c.72,0,1.13.73,1.24.95.37.76.56,1.58.56,2.43,0,.86-.19,1.67-.56,2.43-.11.22-.52.95-1.24.95h-3.29s-1.49,0-1.49,0h-5.07"/>
    </g>
    <g>
      <g>
        <path class="cls-21" d="M93.32,46.35v-1.89c0-.09.05-.19.16-.29.08-.08.17-.13.27-.16h0s-.49-.01-.49-.01l-.02-.31h1.65v.33h-1.03v.8h.96v.31h-.96v.88h1.05v.33h-1.58Z"/>
        <path class="cls-21" d="M95.11,43.7h.55l.37,1.9.51-1.9h.4l.48,1.9.33-1.62c.03-.12.11-.21.24-.27.06-.02.13-.04.2-.05l-.63,2.68h-.4l-.51-1.92-.45,1.61c-.04.14-.12.24-.26.29-.07.03-.15.04-.23.04l-.59-2.67Z"/>
      </g>
      <path class="cls-21" d="M99.67,44.96c-.13-.04-.24-.09-.31-.15-.15-.12-.23-.28-.23-.48s.07-.34.21-.47c.16-.14.38-.21.67-.21.31,0,.54.08.69.23.12.12.18.26.18.43,0,.18-.07.34-.22.47-.08.07-.19.13-.32.17.14.04.26.08.34.14.18.12.27.29.27.53,0,.2-.07.37-.21.51-.17.17-.42.25-.75.25s-.59-.09-.76-.26c-.12-.13-.17-.28-.17-.46,0-.33.2-.57.61-.7ZM100.01,45.11c-.12,0-.21.04-.29.12-.08.09-.12.22-.12.38,0,.18.05.32.14.41.07.07.16.11.27.11.15,0,.26-.06.33-.19.05-.09.08-.21.08-.34,0-.17-.05-.3-.14-.39-.07-.07-.17-.11-.28-.11ZM100.01,43.93c-.15,0-.26.08-.33.22-.03.07-.04.15-.04.23,0,.16.04.29.13.37.06.06.14.09.24.09.11,0,.2-.04.26-.12.07-.08.11-.2.11-.35,0-.13-.03-.24-.1-.32-.07-.08-.16-.13-.28-.13Z"/>
    </g>
    <g>
      <g>
        <path class="cls-15" d="M84.48,43.78l-.1.33c-.19-.08-.35-.12-.47-.12-.23,0-.41.11-.53.32-.11.19-.16.43-.16.73s.05.54.16.73c.12.21.29.31.51.31.15,0,.32-.05.5-.16l.11.33c-.21.1-.44.15-.71.15-.45,0-.77-.17-.97-.52-.13-.23-.2-.51-.2-.83,0-.45.13-.8.38-1.05.22-.22.5-.33.85-.33.24,0,.45.04.63.12Z"/>
        <path class="cls-15" d="M86.56,43.78l-.1.33c-.19-.08-.35-.12-.47-.12-.23,0-.41.11-.53.32-.11.19-.16.43-.16.73s.05.54.16.73c.12.21.29.31.51.31.15,0,.32-.05.5-.16l.11.33c-.21.1-.44.15-.71.15-.45,0-.77-.17-.97-.52-.13-.23-.2-.51-.2-.83,0-.45.13-.8.38-1.05.22-.22.5-.33.86-.33.24,0,.45.04.63.12Z"/>
      </g>
      <path class="cls-15" d="M87.52,46.26l.1-.32c.15.1.31.16.48.16.25,0,.42-.13.51-.39.06-.16.09-.38.09-.67-.16.23-.35.34-.57.34-.21,0-.38-.07-.52-.21-.15-.15-.23-.35-.23-.61s.08-.48.24-.64c.17-.17.38-.25.65-.25.36,0,.63.14.79.43.12.21.18.49.18.83,0,.5-.11.87-.33,1.13-.2.23-.46.34-.78.34-.22,0-.43-.04-.61-.13ZM88.27,43.92c-.15,0-.26.08-.32.24-.04.09-.05.2-.05.33,0,.14.02.26.06.35.06.15.17.22.31.22.13,0,.23-.06.29-.17.06-.1.09-.24.09-.4s-.03-.29-.08-.39c-.06-.11-.16-.17-.29-.17Z"/>
    </g>
  </g>
  <g>
    <g>
      <path class="cls-10" d="M78.27,81.99h-4.82s-1.55,0-1.55,0h-3.41c-.39,0-.72.15-.99.36-.32.25-.54.59-.66.82-.2.4-.36.83-.47,1.27-.1.43-.16.88-.16,1.35s.05.91.16,1.35c.1.44.26.87.47,1.27.11.23.33.57.66.82.27.21.6.36.99.36h3.41s1.55,0,1.55,0h4.82"/>
      <path class="cls-4" d="M78.27,82.41h-5.07s-1.49,0-1.49,0h-3.29c-.72,0-1.13.73-1.24.95-.37.76-.56,1.58-.56,2.43,0,.86.19,1.67.56,2.43.11.22.52.95,1.24.95h3.29s1.49,0,1.49,0h5.07"/>
      <path class="cls-10" d="M78.27,81.99h4.82s1.55,0,1.55,0h3.41c.39,0,.72.15.99.36.32.25.54.59.66.82.2.4.36.83.47,1.27.1.43.16.88.16,1.35s-.05.91-.16,1.35c-.1.44-.26.87-.47,1.27-.11.23-.33.57-.66.82-.27.21-.6.36-.99.36h-3.41s-1.55,0-1.55,0h-4.82"/>
      <path class="cls-9" d="M78.27,82.41h5.07s1.49,0,1.49,0h3.29c.72,0,1.13.73,1.24.95.37.76.56,1.58.56,2.43,0,.86-.19,1.67-.56,2.43-.11.22-.52.95-1.24.95h-3.29s-1.49,0-1.49,0h-5.07"/>
    </g>
    <g>
      <g>
        <path class="cls-21" d="M79.47,87.2v-1.9c0-.09.05-.19.16-.29.08-.08.17-.13.27-.16h0s-.49-.01-.49-.01l-.02-.3h.71c.23,0,.41,0,.52.03.55.11.83.51.83,1.21,0,.63-.2,1.05-.61,1.26-.11.06-.23.1-.37.12-.11.02-.26.03-.45.03h-.56ZM80.01,86.91h.07c.16,0,.27,0,.33-.03.31-.08.47-.44.47-1.06,0-.34-.04-.58-.13-.74-.07-.11-.16-.19-.28-.22-.08-.02-.19-.03-.34-.03h-.12v2.06Z"/>
        <path class="cls-21" d="M82.3,87.2v-1.87c0-.05.02-.11.07-.18.1-.14.22-.23.36-.26h0s-1.1-.01-1.1-.01l-.02-.33h1.93v.33h-.7v2.33h-.54Z"/>
      </g>
      <g>
        <path class="cls-21" d="M85.42,84.55h.33v2.65h-.5v-2.25l-.65.38-.13-.25.96-.54Z"/>
        <path class="cls-21" d="M86.55,84.55h1.47v.42h-1.17v.68c.13-.05.27-.07.42-.07.26,0,.48.07.65.21.18.14.27.34.27.58s-.08.42-.24.59c-.19.19-.46.29-.79.29-.27,0-.51-.06-.72-.17l.11-.33c.17.12.37.18.57.18.18,0,.32-.05.41-.15.08-.09.12-.21.12-.37,0-.21-.08-.35-.23-.44-.1-.06-.21-.08-.35-.08-.17,0-.35.05-.53.15v-1.47Z"/>
      </g>
    </g>
    <g>
      <g>
        <path class="cls-15" d="M71.01,84.63l-.1.33c-.19-.08-.35-.12-.47-.12-.23,0-.41.11-.53.32-.11.19-.16.43-.16.73s.05.54.16.73c.12.21.29.31.51.31.15,0,.32-.05.5-.16l.11.33c-.21.1-.44.15-.71.15-.45,0-.77-.17-.97-.52-.13-.23-.2-.51-.2-.83,0-.45.13-.8.38-1.05.22-.22.5-.33.85-.33.24,0,.45.04.63.12Z"/>
        <path class="cls-15" d="M73.09,84.63l-.1.33c-.19-.08-.35-.12-.47-.12-.23,0-.41.11-.53.32-.11.19-.16.43-.16.73s.05.54.16.73c.12.21.29.31.51.31.15,0,.32-.05.5-.16l.11.33c-.21.1-.44.15-.71.15-.45,0-.77-.17-.97-.52-.13-.23-.2-.51-.2-.83,0-.45.13-.8.38-1.05.22-.22.5-.33.86-.33.24,0,.45.04.63.12Z"/>
      </g>
      <path class="cls-15" d="M75.11,84.55h.32v1.59h.33v.31h-.33v.75h-.48v-.75h-1.1v-.27l1.26-1.64ZM74.95,85.2l-.72.94h.72v-.94Z"/>
    </g>
  </g>
</svg>