<svg width="164" height="164" xmlns="http://www.w3.org/2000/svg" xmlns:xlink="http://www.w3.org/1999/xlink" xml:space="preserve" overflow="hidden"><g transform="translate(-3149 -1845)"><path d="M150.77 162.592 9.84744 162.592C3.75249 162.592-1.19307 157.649-1.19307 151.554L-1.19307 10.6293C-1.19307 4.53692 3.75249-0.40828 9.84744-0.40828L150.77-0.40828C156.865-0.40828 161.807 4.53692 161.807 10.6293L161.807 151.554C161.807 157.649 156.865 162.592 150.77 162.592" fill="#2E2A26" fill-rule="evenodd" transform="matrix(1 0 0 -1 3151 2008)"/><path d="M51.9028 78.3738 51.9028 63.1891 88.6829 30.7839C89.3062 30.2325 89.8186 29.0983 89.8186 28.2612L89.8186 22.1898C89.8186 21.3527 89.2043 20.9678 88.4526 21.3294L51.9346 38.8908 48.8679 11.5598 58.8258 5.86154C59.1902 5.65459 59.4842 5.14438 59.4842 4.72726L59.4842 0.166133C59.4842-0.253853 59.158-0.495891 58.759-0.373082L44.3186 3.96606 29.8778-0.373082C29.4787-0.495891 29.1526-0.253853 29.1526 0.166133L29.1526 4.72726C29.1526 5.14438 29.4497 5.65459 29.8109 5.86154L39.7689 11.5598 36.7021 38.8908 0.184161 21.3294C-0.567146 20.9678-1.18185 21.3527-1.18185 22.1898L-1.18185 28.2612C-1.18185 29.0983-0.669061 30.2325-0.0429114 30.7839L36.734 63.1891 36.734 78.3738C36.734 102.669 51.9028 102.669 51.9028 78.3738" fill="#FFFFFF" fill-rule="evenodd" transform="matrix(1 0 0 -1 3187 1975)"/></g></svg>