<svg width="251" height="251" xmlns="http://www.w3.org/2000/svg" xmlns:xlink="http://www.w3.org/1999/xlink" xml:space="preserve" overflow="hidden"><g transform="translate(-856 -1330)"><path d="M228.411 248.897 20.0797 248.897C8.57334 248.897-0.75472 239.569-0.75472 228.065L-0.75472 15.5631C-0.75472 6.35834 6.70657-1.10304 15.9141-1.10304L232.577-1.10304C241.781-1.10304 249.246 6.35834 249.246 15.5631L249.246 228.065C249.246 239.569 239.917 248.897 228.411 248.897" fill="#0E4B87" fill-rule="evenodd" transform="matrix(1 0 0 -1 857 1579)"/><path d="M25.2481 11.8007C25.2481 4.61918 19.4305-1.20084 12.248-1.20084 5.06559-1.20084-0.752016 4.61918-0.752016 11.8007-0.752016 18.9764 5.06559 24.7993 12.248 24.7993 19.4305 24.7993 25.2481 18.9764 25.2481 11.8007" fill="#FFFFFF" fill-rule="evenodd" transform="matrix(1 0 0 -1 969 1397)"/><path d="M35.4148-0.945564C33.9265-1.3312 32.2947-1.1815 30.8244-0.410588L5.98389 12.6703-0.29773 28.0642C-1.6311 31.3251-0.05896 35.0457 3.22486 36.3725 6.48194 37.7143 10.2345 36.1307 11.5675 32.8669L13.9717 26.9796C15.3439 23.6233 17.8524 20.8589 21.0557 19.1703L36.8137 10.8771C39.9426 9.22742 41.1358 5.36627 39.4864 2.25512 38.6034 0.596619 37.103-0.515162 35.4148-0.945564" fill="#FFFFFF" fill-rule="evenodd" transform="matrix(1 0 0 -1 967 1452)"/><path d="M14.5064-1.03866C13.004-1.03866 11.7855 0.175911 11.7855 1.67259L11.7855 75.0212C11.7855 75.9004 11.4611 76.7392 10.8705 77.3828 10.1898 78.1254 9.25434 78.5359 8.23457 78.5391L8.2256 78.5391C7.2758 78.5391 6.38449 78.1748 5.71242 77.514 5.04322 76.8529 4.67184 75.9734 4.67184 75.0416 4.6661 73.5446 3.45006 72.3361 1.94804 72.3361L1.94229 72.3361C0.439914 72.3389-0.77577 73.5564-0.772899 75.053-0.767158 77.4411 0.176898 79.6836 1.88381 81.3665 3.58175 83.0413 5.83227 83.9612 8.2256 83.9612L8.24031 83.9612C10.7772 83.9555 13.1971 82.8897 14.8921 81.0376 16.397 79.3922 17.2273 77.2548 17.2273 75.0212L17.2273 1.67259C17.2273 0.175911 16.0084-1.03866 14.5064-1.03866" fill="#FFFFFF" fill-rule="evenodd" transform="matrix(1 0 0 -1 993 1537)"/><path d="M29.7567 116.135C31.612 122.438 32.4244 129.27 28.2075 133.713 25.4644 136.606 22.1356 137.653 18.2102 136.401 14.3022 135.158 11.6635 132.508 9.97445 128.917 8.74842 126.308 7.74086 123.591 6.71864 120.888 3.02627 111.12-1.0948 87.6545-0.707225 77.2104-0.518084 72.101 0.972881 67.676 3.94623 64.0725 5.5391 61.648 5.90629 57.9512 6.18876 56.6613L6.18876 7.06682C6.18876 2.57142 9.84359-1.07834 14.3487-1.07834 14.3837-1.07834 14.4245-1.06685 14.4245-1.06685L14.4767-1.06685C14.5496-1.07259 14.6136-1.04351 14.6894-1.04638 15.1814-1.02591 15.6676-0.975997 16.1339-0.870785 17.6771-0.598956 19.0021 0.132144 20.0622 1.26722 20.1234 1.32575 20.1699 1.39002 20.2342 1.44856 20.5224 1.77604 20.8281 2.07732 21.0641 2.45436 21.9669 3.76754 22.5025 5.35003 22.5025 7.06682L22.5025 8.40334C22.5025 8.44141 22.5086 8.4766 22.5086 8.51753L22.5025 65.5846C22.5025 68.2286 22.0309 79.059 23.3996 86.4878" fill="#FFFFFF" fill-rule="evenodd" transform="matrix(1 0 0 -1 952 1537)"/></g></svg>