<svg width="269" height="283" xmlns="http://www.w3.org/2000/svg" xmlns:xlink="http://www.w3.org/1999/xlink" xml:space="preserve" overflow="hidden"><g transform="translate(-2589 -2030)"><path d="M246.776 281.415 15.9396 281.415C5.6754 281.415-2.64239 273.067-2.64239 262.768L-2.64239 18.0621C-2.64239 7.76223 5.6754-0.585565 15.9396-0.585565L246.776-0.585565C257.04-0.585565 265.358 7.76223 265.358 18.0621L265.358 262.768C265.358 273.067 257.04 281.415 246.776 281.415" fill="#2E2A26" fill-rule="evenodd" transform="matrix(1 0 0 -1 2592 2312)"/><path d="M10.4491-0.537055 10.4491 5.96782C5.37565 6.11622 1.02245 7.35455-2.61168 9.69801L-1.75047 16.42C-0.743548 15.6427 0.438365 14.8995 1.80064 14.1909 3.1671 13.4878 4.5879 12.9276 6.07142 12.5116 7.55493 12.0956 9.01455 11.8377 10.4491 11.7441L10.4491 30.524 6.21714 32.7877C3.53738 34.2541 1.57668 35.973 0.331461 37.9448-0.913758 39.9166-1.53667 42.2692-1.53667 44.994-1.53667 48.799-0.412684 51.9295 1.83946 54.3916 4.08683 56.8488 7.1954 58.345 11.1694 58.8845L11.1694 65.4635 15.8343 65.4635 15.8343 58.9544C18.0327 58.8054 20.1248 58.4338 22.1141 57.8244 24.094 57.2107 25.6408 56.4674 26.7397 55.5952L25.4461 49.0216C22.6248 51.4983 19.4195 52.9106 15.8343 53.2573L15.8343 35.785 16.9093 35.2747C19.7306 33.9567 21.9684 32.6095 23.6168 31.2222 25.2711 29.8354 26.4775 28.3192 27.2413 26.6946 28.0046 25.0549 28.3892 23.2418 28.3892 21.2456 28.3892 17.2527 27.2073 13.9288 24.8381 11.2733 22.4689 8.61295 19.2295 6.94826 15.114 6.26463L15.114-0.537055ZM11.1694 52.9647C9.39857 52.4793 8.02196 51.6376 7.03952 50.4436 6.06186 49.2497 5.57034 47.818 5.57034 46.163 5.57034 44.8998 5.75011 43.8001 6.10546 42.8738 6.46559 41.9523 7.05386 41.1106 7.86609 40.3521 8.67891 39.5991 9.77841 38.8364 11.1694 38.0585ZM15.114 12.2543C16.9822 12.7938 18.4269 13.7153 19.4583 15.0333 20.4843 16.3507 21.0003 17.926 21.0003 19.7841 21.0003 21.5874 20.5572 23.128 19.6721 24.4205 18.787 25.7184 17.2694 26.947 15.114 28.1166" fill="#FFFFFF" fill-rule="evenodd" transform="matrix(1 0 0 -1 2712 2241)"/><path d="M70.6443 107.474 78.3526 107.474 78.3526-0.527003-2.64774-0.527003-2.64774 107.474 5.06056 107.474 5.06056 7.18481 70.6443 7.18481" fill="#FFFFFF" fill-rule="evenodd" transform="matrix(1 0 0 -1 2687 2268)"/><path d="M119.602-0.598546 119.602 9.63623 136.116 9.63623 136.116 28.1626 7.58389 28.1626 7.58389 9.63623 25.8922 9.63623 25.8922-0.598546-2.65257-0.598546-2.65257 38.4023 146.348 38.4023 146.348-0.598546 124.397-0.598546" fill="#FFFFFF" fill-rule="evenodd" transform="matrix(1 0 0 -1 2652 2181)"/><path d="M3.77085-0.67459C4.47566 1.68647 5.17017 4.00312 5.85501 6.27656 6.53501 8.5446 7.23014 10.803 7.93434 13.0369L25.1957 13.0369C25.9005 10.8468 26.6047 8.57881 27.3095 6.24716 28.0143 3.9005 28.7433 1.59825 29.4923-0.67459L36.5681-0.67459 29.0984 23.3316C27.7729 27.5309 26.4377 31.7051 25.0971 35.8607 23.7522 40.0156 22.3722 44.1706 20.9626 48.3256L12.9605 48.3256C11.5515 44.1268 10.1619 39.9616 8.79704 35.8313 7.42736 31.6955 6.06192 27.5111 4.69708 23.2679 3.41633 19.2888 2.18398 15.3097 0.991565 11.3312-0.196014 7.35207-1.40779 3.34834-2.64498-0.67459ZM9.59017 18.5458C9.85636 19.3332 10.1274 20.1399 10.4178 20.9657 10.7039 21.8017 10.9798 22.657 11.2412 23.532L16.7302 40.5876C17.7012 37.7422 18.6177 34.9124 19.475 32.0868 20.3371 29.2708 21.2288 26.3966 22.155 23.4636 22.4164 22.6768 22.6729 21.8797 22.9143 21.0683 23.1557 20.2617 23.4122 19.4209 23.6729 18.5458ZM49.0646-0.67459 55.8102-0.67459 55.8102 42.1612 68.7054 42.1612 68.9667 47.9295 36.0412 47.9295 35.706 42.1612 49.0646 42.1612ZM74.9191-0.67459 81.0688-0.67459 81.6647 36.5839C82.4137 34.1298 83.2074 31.6517 84.0447 29.1388 84.8826 26.6217 85.6757 24.1874 86.4247 21.8209 87.7012 17.9738 88.9922 14.1664 90.2929 10.4117 91.5943 6.64807 92.8798 2.95223 94.1612-0.67459L99.8474-0.67459C101.124 2.95223 102.449 6.64807 103.814 10.4117 105.179 14.1664 106.505 17.9738 107.781 21.8209 108.618 24.2312 109.412 26.6997 110.161 29.2318 110.91 31.7735 111.639 34.2426 112.344 36.6523L112.743-0.67459 119.356-0.67459 118.69 47.9295 110.033 47.9295C108.885 44.3417 107.761 40.6854 106.657 36.941 105.554 33.2061 104.366 29.4323 103.09 25.629 102.203 22.9991 101.267 20.1885 100.276 17.2014 99.286 14.2006 98.3247 11.4188 97.3985 8.83268 96.5164 11.375 95.6047 14.137 94.6585 17.1336 93.7081 20.1297 92.7963 22.9552 91.9143 25.629 90.6329 29.4761 89.4308 33.2649 88.3074 37.0094 87.1839 40.7484 86.0702 44.3855 84.9715 47.9295L75.5798 47.9295" fill="#FFFFFF" fill-rule="evenodd" transform="matrix(1 0 0 -1 2666 2124)"/></g></svg>