<svg width="250" height="251" xmlns="http://www.w3.org/2000/svg" xmlns:xlink="http://www.w3.org/1999/xlink" xml:space="preserve" overflow="hidden"><g transform="translate(-3104 -698)"><path d="M231.24 248.289 15.958 248.289C6.64673 248.289-0.899928 240.709-0.899928 231.358L-0.899928 15.2226C-0.899928 5.87163 6.64673-1.71131 15.958-1.71131L231.24-1.71131C240.55-1.71131 248.1 5.87163 248.1 15.2226L248.1 231.358C248.1 240.709 240.55 248.289 231.24 248.289" fill="#2E2A26" fill-rule="evenodd" transform="matrix(1 0 0 -1 3105 947)"/><path d="M127.357 70.0121C124.202 76.7995 119.624 84.4297 115.983 90.5492 110.106 100.432 103.592 108.322 89.9294 108.322 85.322 108.322 69.6383 108.325 45.3998 108.325 24.428 108.325 16.8454 86.5171 10.1817 73.8846 5.10623 64.2679-0.408339 49.4895-0.853209 41.2797-1.76646 24.562 9.81353 13.6176 11.6017 12.3378 20.958 5.63281 31.8165-0.0638813 49.5798-1.55094 62.8069-2.65362 74.7612 3.77626 75.9779 11.1139 77.4243 19.8261 71.9126 25.8952 60.5446 25.3808 42.7689 24.5736 31.2624 29.8035 27.7891 31.5476 19.0136 35.9496 29.5039 35.7841 31.7279 35.9586 37.2428 36.3811 42.7574 37.6613 45.5145 40.0024 48.3425 42.403 45.7828 41.664 42.1121 53.1612 39.3167 61.9293 43.3494 65.5952 45.559 66.3193 51.0055 68.1051 54.1402 65.6929 57.3657 59.7802 59.534 55.804 62.3768 51.4611 63.8793 49.7378 66.1032 47.1894 67.7059 44.3217 72.2924 41.5697 76.0604 39.3048 80.5409 37.8653 84.2322 37.6464 87.9999 37.4247 87.7966 37.6079 91.2344 38.217 87.5669 34.7583 74.8907 25.8393 83.6752 16.3583 88.3417 11.3208 98.7964 13.2543 103.693 15.1638 108.589 17.0737 117.023 22.9094 124.243 31.8848 138.221 49.2587 129.766 64.8294 127.357 70.0121M87.6993 41.6699C76.6759 41.6699 67.7442 50.6365 67.7442 61.6988 67.7442 72.7612 76.6759 81.7278 87.6993 81.7278 98.7227 81.7278 107.658 72.7612 107.658 61.6988 107.658 50.6365 98.7227 41.6699 87.6993 41.6699" fill="#FFFFFF" fill-rule="evenodd" transform="matrix(1 0 0 -1 3163 910)"/><path d="M56.1029 26.7218C56.1029 10.9822 43.3419-1.77882 27.6056-1.77882 11.8636-1.77882-0.897483 10.9822-0.897483 26.7218-0.897483 42.4609 11.8636 55.2216 27.6056 55.2216 43.3419 55.2216 56.1029 42.4609 56.1029 26.7218" fill="#FFFFFF" fill-rule="evenodd" transform="matrix(1 0 0 -1 3201 792)"/></g></svg>