<svg width="251" height="251" xmlns="http://www.w3.org/2000/svg" xmlns:xlink="http://www.w3.org/1999/xlink" xml:space="preserve" overflow="hidden"><g transform="translate(-853 -428)"><path d="M232.321 247.678 16.1792 247.678C6.82758 247.678-0.751481 240.099-0.751481 230.748L-0.751481 14.6055C-0.751481 5.25676 6.82758-2.3223 16.1792-2.3223L232.321-2.3223C241.67-2.3223 249.249 5.25676 249.249 14.6055L249.249 230.748C249.249 240.099 241.67 247.678 232.321 247.678" fill="#2E2A26" fill-rule="evenodd" transform="matrix(1 0 0 -1 854 676)"/><path d="M83.2818 11.7408C83.2818 4.00924 76.909-2.3143 69.1237-2.3143L13.4396-2.3143C5.65145-2.3143-0.718429 4.00924-0.718429 11.7408L-0.718429 99.6279C-0.718429 107.359 5.65145 113.686 13.4396 113.686L69.1237 113.686C76.909 113.686 83.2818 107.359 83.2818 99.6279" fill="#FFFFFF" fill-rule="evenodd" transform="matrix(1 0 0 -1 902 615)"/><path d="M33.2959-2.40108 30.0305-2.40108 30.0305 37.2994C30.0305 38.9618 28.6899 40.3147 27.0382 40.3147L5.55388 40.3147C3.90215 40.3147 2.56117 38.9618 2.56117 37.2994L2.56117-2.40108-0.704169-2.40108-0.704169 37.2994C-0.704169 40.7735 2.10253 43.599 5.55388 43.599L27.0382 43.599C30.4892 43.599 33.2959 40.7735 33.2959 37.2994" fill="#FFFFFF" fill-rule="evenodd" transform="matrix(1 0 0 -1 927 505)"/><path d="M1.77612-2.31216C0.39461-2.31216-0.724337-1.24876-0.724337 0.0641867L-0.724337 87.312C-0.724337 88.6249 0.39461 89.688 1.77612 89.688 3.15726 89.688 4.27621 88.6249 4.27621 87.312L4.27621 0.0641867C4.27621-1.24876 3.15726-2.31216 1.77612-2.31216" fill="#2E2A26" fill-rule="evenodd" transform="matrix(1 0 0 -1 920 603)"/><path d="M1.75032-2.31216C0.369188-2.31216-0.749759-1.24876-0.749759 0.0641867L-0.749759 87.312C-0.749759 88.6249 0.369188 89.688 1.75032 89.688 3.13184 89.688 4.25078 88.6249 4.25078 87.312L4.25078 0.0641867C4.25078-1.24876 3.13184-2.31216 1.75032-2.31216" fill="#2E2A26" fill-rule="evenodd" transform="matrix(1 0 0 -1 942 603)"/><path d="M1.37992-2.31216C0.274709-2.31216-0.620145-1.24876-0.620145 0.0641867L-0.620145 87.312C-0.620145 88.6249 0.274709 89.688 1.37992 89.688 2.48513 89.688 3.38029 88.6249 3.38029 87.312L3.38029 0.0641867C3.38029-1.24876 2.48513-2.31216 1.37992-2.31216" fill="#2E2A26" fill-rule="evenodd" transform="matrix(1 0 0 -1 964 603)"/><path d="M16.3195 6.29169C16.3195 1.59767 12.5134-2.2084 7.81924-2.2084 3.12511-2.2084-0.681041 1.59767-0.681041 6.29169-0.681041 10.9857 3.12511 14.7914 7.81924 14.7914 12.5134 14.7914 16.3195 10.9857 16.3195 6.29169" fill="#FFFFFF" fill-rule="evenodd" transform="matrix(1 0 0 -1 910 634)"/><path d="M9.25459 2.32479C9.25459-0.161085 7.01689-2.17536 4.2548-2.17536 1.49271-2.17536-0.745376-0.161085-0.745376 2.32479-0.745376 4.81066 1.49271 6.82458 4.2548 6.82458 7.01689 6.82458 9.25459 4.81066 9.25459 2.32479" fill="#2E2A26" fill-rule="evenodd" transform="matrix(1 0 0 -1 914 630)"/><path d="M30.2365-2.30509 30.2365 38.7523 14.2061 38.7523 14.2061-2.30509-0.778559-2.30509-0.778559 41.5677C-0.778559 48.2535 4.67531 53.6949 11.3824 53.6949L33.063 53.6949C39.7676 53.6949 45.2211 48.2535 45.2211 41.5677L45.2211-2.30509" fill="#2E2A26" fill-rule="evenodd" transform="matrix(1 0 0 -1 983 581)"/><path d="M17.9079-2.25415C7.60534-2.25415-0.777663 6.0848-0.777663 16.3332L-0.777663 71.159C-0.777663 81.4074 7.60534 89.746 17.9079 89.746L105.537 89.746C115.84 89.746 124.223 81.4074 124.223 71.159L124.223 16.3332C124.223 6.0848 115.84-2.25415 105.537-2.25415" fill="#2E2A26" fill-rule="evenodd" transform="matrix(1 0 0 -1 942 634)"/><path d="M13.2755-2.28946C5.54393-2.28946-0.779615 4.08336-0.779615 11.8687L-0.779615 67.5534C-0.779615 75.3416 5.54393 81.7111 13.2755 81.7111L101.163 81.7111C108.894 81.7111 115.22 75.3416 115.22 67.5534L115.22 11.8687C115.22 4.08336 108.894-2.28946 101.163-2.28946" fill="#FFFFFF" fill-rule="evenodd" transform="matrix(1 0 0 -1 946 630)"/><path d="M-0.764741 3.70568C-0.764741 0.39153 1.9214-2.29453 5.23565-2.29453 8.54953-2.29453 11.2357 0.39153 11.2357 3.70568" fill="#FFFFFF" fill-rule="evenodd" transform="matrix(1 0 0 -1 960 636)"/><path d="M-0.781303 3.70568C-0.781303 0.39153 1.67824-2.29453 4.71904-2.29453 7.75675-2.29453 10.219 0.39153 10.219 3.70568" fill="#FFFFFF" fill-rule="evenodd" transform="matrix(1 0 0 -1 1037 636)"/><path d="M1.37992-2.26485C0.274709-2.26485-0.620145-1.20471-0.620145 0.104648L-0.620145 63.3657C-0.620145 64.6751 0.274709 65.7352 1.37992 65.7352 2.48513 65.7352 3.38029 64.6751 3.38029 63.3657L3.38029 0.104648C3.38029-1.20471 2.48513-2.26485 1.37992-2.26485" fill="#2E2A26" fill-rule="evenodd" transform="matrix(1 0 0 -1 964 622)"/><path d="M1.63649-2.26485C0.251943-2.26485-0.863968-1.20471-0.863968 0.104648L-0.863968 63.3657C-0.863968 64.6751 0.251943 65.7352 1.63649 65.7352 3.01459 65.7352 4.13658 64.6751 4.13658 63.3657L4.13658 0.104648C4.13658-1.20471 3.01459-2.26485 1.63649-2.26485" fill="#2E2A26" fill-rule="evenodd" transform="matrix(1 0 0 -1 1040 622)"/><path d="M37.2134-2.3232 30.5534-2.3232 30.5534 37.6758C30.5534 38.4268 29.92 39.0564 29.1681 39.0564L7.25813 39.0564C6.50659 39.0564 5.87025 38.4268 5.87025 37.6758L5.87025-2.3232-0.786794-2.3232-0.786794 37.6758C-0.786794 42.0855 2.82119 45.6769 7.25813 45.6769L29.1681 45.6769C33.6021 45.6769 37.2134 42.0855 37.2134 37.6758" fill="#FFFFFF" fill-rule="evenodd" transform="matrix(1 0 0 -1 987 577)"/></g></svg>