<svg width="251" height="253" xmlns="http://www.w3.org/2000/svg" xmlns:xlink="http://www.w3.org/1999/xlink" xml:space="preserve" overflow="hidden"><g transform="translate(-1149 -415)"><path d="M121.346-2.32309C104.809-2.32309 88.7683 0.927217 73.664 7.34023 59.0756 13.5384 45.9755 22.4061 34.7263 33.7017 23.4799 44.9978 14.6473 58.1522 8.47577 72.7981 2.08638 87.9612-1.15246 104.073-1.15246 120.677-1.15246 137.282 2.08638 153.39 8.47577 168.556 14.6473 183.202 23.4799 196.357 34.7263 207.652 45.9755 218.945 59.0756 227.816 73.664 234.011 88.7683 240.424 104.809 243.677 121.346 243.677 137.882 243.677 153.927 240.424 169.031 234.011 183.62 227.816 196.72 218.945 207.966 207.652 219.212 196.357 228.048 183.202 234.216 168.556 240.606 153.39 243.848 137.282 243.848 120.677 243.848 104.073 240.606 87.9612 234.216 72.7981 228.048 58.1522 219.212 44.9978 207.966 33.7017 196.72 22.4061 183.62 13.5384 169.031 7.34023 153.927 0.927217 137.882-2.32309 121.346-2.32309" fill="#2E2A26" fill-rule="evenodd" transform="matrix(1 0 0 -1 1153 662)"/><path d="M123.851 244.014C189.784 244.014 243.236 190.136 243.236 123.673 243.236 57.212 189.784 3.33386 123.851 3.33386 57.9197 3.33386 4.46841 57.212 4.46841 123.673 4.46841 190.136 57.9197 244.014 123.851 244.014M123.851 249.674C106.979 249.674 90.6073 246.343 75.197 239.771 60.3069 233.423 46.9425 224.34 35.4625 212.77 23.9858 201.2 14.9721 187.725 8.67803 172.72 2.15769 157.183-1.14959 140.682-1.14959 123.673-1.14959 106.665 2.15769 90.1643 8.67803 74.6279 14.9721 59.6203 23.9858 46.1477 35.4625 34.5775 46.9425 23.0074 60.3069 13.9217 75.197 7.57636 90.6073 1.00503 106.979-2.3263 123.851-2.3263 140.722-2.3263 157.094 1.00503 172.507 7.57636 187.397 13.9217 200.762 23.0074 212.239 34.5775 223.716 46.1477 232.729 59.6203 239.023 74.6279 245.544 90.1643 248.851 106.665 248.851 123.673 248.851 140.682 245.544 157.183 239.023 172.72 232.729 187.725 223.716 201.2 212.239 212.77 200.762 224.34 187.397 233.423 172.507 239.771 157.094 246.343 140.722 249.674 123.851 249.674" fill="#FFFFFF" fill-rule="evenodd" transform="matrix(1 0 0 -1 1151 665)"/><path d="M-1.10599-2.34008-1.10599 130.66 29.2005 130.66C43.5302 130.66 54.8952 127.219 63.2955 120.341 71.6926 113.456 75.894 104.034 75.894 92.0705 75.894 84.4122 74.0143 77.6808 70.2551 71.8785 66.4959 66.0732 61.0957 61.5588 54.0457 58.3298 46.9957 55.095 38.7729 53.4806 29.3809 53.4806L16.5145 53.4806 16.5145-2.34008ZM26.9107 68.3787C37.1293 68.3787 44.7058 70.3226 49.6406 74.2106 54.5722 78.0982 57.0396 84.0537 57.0396 92.0705 57.0396 99.7284 54.5433 105.59 49.5503 109.66 44.5576 113.727 37.2454 115.762 27.6148 115.762L16.5145 115.762 16.5145 68.3787" fill="#FFFFFF" fill-rule="evenodd" transform="matrix(1 0 0 -1 1208 596)"/><path d="M20.2961 1.58797C18.3162 1.58797 16.053 1.88304 13.7898 3.06841 11.5262 3.9558 9.54623 5.14153 7.84953 7.21139 6.15284 8.9898 4.73941 11.0629 3.88963 13.4307 3.03949 15.7986 2.47584 18.1668 2.47584 20.2399 2.47584 22.3127 3.03949 24.6805 3.88963 27.0487 4.73941 29.4165 6.15284 31.4896 7.84953 33.5628 9.54623 35.3379 11.5262 36.5233 13.7898 37.7061 16.053 38.5935 18.3162 38.8915 20.2961 38.8915 22.5597 38.8915 24.8229 38.5935 26.8029 37.7061 29.0664 36.5233 31.3296 35.3379 33.0263 33.5628 34.723 31.4896 36.1365 29.4165 36.9866 27.0487 37.8364 24.6805 38.1168 22.3127 38.1168 20.2399 38.1168 18.1668 37.8364 15.7986 36.9866 13.4307 36.1365 11.0629 34.723 8.9898 33.0263 7.21139 31.3296 5.14153 29.0664 3.9558 26.8029 3.06841 24.8229 1.88304 22.5597 1.58797 20.2961 1.58797M20.2961 42.7397C17.7497 42.7397 15.2032 42.4418 12.3763 41.2593 9.82949 40.0739 7.28301 38.2988 5.0198 36.2257 3.03949 33.8575 1.3428 31.4896 0.495885 28.5291-0.637156 25.8633-1.20368 22.9053-1.20368 20.2399-1.20368 17.5741-0.637156 14.6132 0.495885 11.9503 1.3428 9.28451 3.03949 6.6216 5.0198 4.25377 7.28301 2.18065 9.82949 0.402604 12.3763-0.779864 15.2032-1.66762 17.7497-2.2603 20.2961-2.2603 22.843-2.2603 25.6698-1.66762 28.2163-0.779864 31.0464 0.402604 33.5929 2.18065 35.5728 4.25377 37.8364 6.6216 39.2498 9.28451 40.38 11.9503 41.513 14.6132 41.7963 17.5741 41.7963 20.2399 41.7963 22.9053 41.513 25.8633 40.38 28.5291 39.2498 31.4896 37.8364 33.8575 35.5728 36.2257 33.5929 38.2988 31.0464 40.0739 28.2163 41.2593 25.6698 42.4418 22.843 42.7397 20.2961 42.7397" fill="#FFFFFF" fill-rule="evenodd" transform="matrix(1 0 0 -1 1310 615)"/><path d="M20.2337 38.8915C22.4827 38.8915 24.7312 38.5935 26.9798 37.7061 28.9472 36.5233 31.1958 35.3379 32.8815 33.5628 34.5672 31.4896 35.9715 29.4165 36.8161 27.0487 37.6604 24.6805 37.9389 22.3127 37.9389 20.2399 37.9389 18.1668 37.6604 15.7986 36.8161 13.4307 35.9715 11.0629 34.5672 8.9898 32.8815 7.21428 31.1958 5.14153 28.9472 3.9558 26.9798 3.06841 24.7312 1.88304 22.4827 1.58797 20.2337 1.58797 18.2695 1.58797 16.0209 1.88304 13.7724 3.06841 11.5235 3.9558 9.55349 5.14153 7.86779 7.21428 6.18209 8.9898 4.77781 11.0629 3.93318 13.4307 3.08891 15.7986 2.81069 18.1668 2.81069 20.2399 2.81069 22.3127 3.08891 24.6805 3.93318 27.0487 4.77781 29.4165 6.18209 31.4896 7.86779 33.5628 9.55349 35.3379 11.5235 36.5233 13.7724 37.7061 16.0209 38.5935 18.2695 38.8915 20.2337 38.8915M20.2337-2.2603C22.7669-2.2603 25.5726-1.66762 28.1026-0.779864 30.9144 0.402604 33.4443 2.18065 35.4115 4.25377 37.6604 6.6216 39.0646 9.28451 40.1875 11.9503 41.3132 14.6132 41.8732 17.5741 41.8732 20.2399 41.8732 22.9053 41.3132 25.8662 40.1875 28.5291 39.0646 31.4896 37.6604 33.8575 35.4115 36.2257 33.4443 38.2988 30.9144 40.0739 28.1026 41.2593 25.5726 42.4447 22.7669 42.7397 20.2337 42.7397 17.7038 42.7397 15.1766 42.4447 12.3652 41.2593 9.83492 40.0739 7.30494 38.2988 5.33781 36.2257 3.08891 33.8575 1.40321 31.4896 0.561781 28.5291-0.563919 25.8662-1.12677 22.9053-1.12677 20.2399-1.12677 17.5741-0.563919 14.6132 0.561781 11.9503 1.40321 9.28451 3.08891 6.6216 5.33781 4.25377 7.30494 2.18065 9.83492 0.402604 12.3652-0.779864 15.1766-1.66762 17.7038-2.2603 20.2337-2.2603" fill="#FFFFFF" fill-rule="evenodd" transform="matrix(1 0 0 -1 1247 615)"/><path d="M12.5707-2.29069C12.4798-2.29069 12.3857-2.28488 12.2915-2.26708 11.6775-2.17225 11.1515-1.7697 10.8928-1.19857L-1.01088 25.0519C-1.27208 25.6318-1.22807 26.3097-0.890386 26.8482-0.549456 27.3837 0.0382419 27.7092 0.667068 27.7092L35.9726 27.7092C36.7042 27.7092 37.3655 27.2743 37.6621 26.5967 37.959 25.9188 37.8327 25.126 37.3421 24.5785L13.9402-1.67524C13.5874-2.07161 13.0881-2.29069 12.5707-2.29069M3.55252 23.9602 13.0791 2.95011 31.8118 23.9602" fill="#FFFFFF" fill-rule="evenodd" transform="matrix(1 0 0 -1 1284 591)"/><path d="M11.2622-2.31549-1.2192 24.1061 2.2992 25.6847 14.7806-0.736847Z" fill="#FFFFFF" fill-rule="evenodd" transform="matrix(1 0 0 -1 1280 583)"/><path d="M5.94991-2.25754C5.24547-2.25754 4.57649-1.8624 4.26136-1.19357L-1.02825 10.1487C-1.45844 11.0657-1.04888 12.1531-0.117587 12.5741 0.813341 12.9979 1.91251 12.5942 2.33401 11.6772L7.62977 0.334949C8.05996-0.582089 7.65003-1.66944 6.71911-2.09042 6.47127-2.20302 6.20932-2.25754 5.94991-2.25754" fill="#FFFFFF" fill-rule="evenodd" transform="matrix(1 0 0 -1 1313 565)"/><path d="M13.141-1.85438 0.657221-1.85438C-0.315398-1.85438-1.10097-1.18199-1.10097-0.353492-1.10097 0.475295-0.315398 1.14536 0.657221 1.14536L13.141 1.14536C14.1136 1.14536 14.8992 0.475295 14.8992-0.353492 14.8992-1.18199 14.1136-1.85438 13.141-1.85438" fill="#FFFFFF" fill-rule="evenodd" transform="matrix(1 0 0 -1 1275 558)"/><path d="M7.88741-1.86157 0.675461-1.86157C-0.372299-1.86157-1.21857-1.18858-1.21857-0.359046-1.21857 0.465829-0.372299 1.13882 0.675461 1.13882L7.88741 1.13882C8.93517 1.13882 9.78143 0.465829 9.78143-0.359046 9.78143-1.18858 8.93517-1.86157 7.88741-1.86157" fill="#FFFFFF" fill-rule="evenodd" transform="matrix(1 0 0 -1 1306 553)"/></g></svg>