<svg width="585" height="513" xmlns="http://www.w3.org/2000/svg" xmlns:xlink="http://www.w3.org/1999/xlink" xml:space="preserve" overflow="hidden"><g transform="translate(-2388 -1617)"><path d="M23.6835-3.03075 559.123-3.03075C572.431-2.87404 583.257 8.02928 583.257 21.3831 583.257 25.9898 581.979 30.2758 579.757 33.9607L312.486 496.597C308.276 503.972 300.323 508.97 291.268 508.97 282.208 508.97 274.298 504.014 270.081 496.693L270.062 496.693 2.89498 34.2135 2.91421 34.2135C0.593198 30.4746-0.743346 26.0859-0.743346 21.3831-0.743346 7.94501 10.2212-3.03075 23.6835-3.03075" fill="#FDB724" fill-rule="evenodd" transform="matrix(1 0 0 -1 2389 2126)"/><path d="M524.257-3.03706-0.744096-3.03706 261.759 451.963ZM10.316 3.35386 513.196 3.35386 261.759 439.176" fill="#221F20" fill-rule="evenodd" transform="matrix(1 0 0 -1 2419 2096)"/><path d="M130.26 223.942-0.743534-3.05812 261.256-3.05812" fill="#221F20" fill-rule="evenodd" transform="matrix(1 0 0 -1 2550 1966)"/><path d="M78.2232 108.999C104.906 108.999 134.258 87.6165 134.258 53.0107 134.258 18.3812 105.182-3.00155 77.5735-3.00155L65.9256-3.00155 78.4395 17.8932C98.8138 19.8021 113.331 33.6514 113.331 53.0107 113.331 72.7012 98.1279 86.7072 77.634 88.2065L77.634 25.8954 60.7535-3.00155 54.271-3.00155C27.4925-3.00155-0.639394 19.3689-0.742023 53.0107-0.838006 86.6288 27.2939 108.999 54.3308 108.999L68.0062 108.999 55.5276 88.2065C35.8268 86.7671 20.1254 72.8394 20.2037 53.0107 20.2635 33.0792 36.0616 19.1094 55.744 17.7727L55.744 79.1922 73.1538 108.999" fill="#FFFFFF" fill-rule="evenodd" transform="matrix(1 0 0 -1 2614 1948)"/><path d="M8.90502 23.8552C9.1311 19.5503 10.0956 16.0545 11.7934 13.3732 15.0208 8.33891 20.7123 5.8285 28.8599 5.8285 32.5152 5.8285 35.8425 6.38164 38.8461 7.48195 44.6492 9.61614 47.5492 13.4403 47.5492 18.9486 47.5492 23.0834 46.3234 26.026 43.8594 27.7832 41.3674 29.5038 37.4632 30.999 32.1548 32.2762L22.3631 34.5985C15.964 36.1124 11.441 37.7785 8.78538 39.6089 4.19414 42.7762 1.89889 47.5126 1.89889 53.8114 1.89889 60.6267 4.1523 66.2209 8.66647 70.5982 13.1806 74.9696 19.5695 77.1523 27.8388 77.1523 35.4549 77.1523 41.9164 75.2376 47.2395 71.3947 52.5589 67.5578 55.2189 61.4173 55.2189 52.9843L45.7252 52.9843C45.2349 57.0459 44.1963 60.1654 42.6057 62.3354 39.6513 66.294 34.6358 68.2699 27.5643 68.2699 21.8493 68.2699 17.7418 66.9987 15.2425 64.4517 12.7439 61.904 11.4946 58.9427 11.4946 55.5686 11.4946 51.8474 12.97 49.1302 15.9244 47.4096 17.8607 46.3026 22.2369 44.9283 29.0632 43.2749L39.1984 40.8488C44.0884 39.6753 47.8605 38.0764 50.5154 36.046 55.1066 32.495 57.4026 27.345 57.4026 20.6021 57.4026 12.1997 54.471 6.19279 48.6143 2.57535 42.7554-1.03611 35.9379-2.84782 28.1853-2.84782 19.1335-2.84782 12.0547-0.440422 6.93861 4.38108 1.81448 9.16601-0.691439 15.6596-0.595283 23.8552" fill="#231F20" fill-rule="evenodd" transform="matrix(1 0 0 -1 2525 2066)"/><path d="M-0.672004 72.194 8.60567 72.194 8.60567 44.3146C10.8027 47.0639 12.7792 48.9931 14.5338 50.1132 17.525 52.0483 21.2516 53.0125 25.7172 53.0125 33.7268 53.0125 39.152 50.2508 42.0099 44.7221 43.5514 41.697 44.3284 37.5033 44.3284 32.1541L44.3284-2.80662 34.7892-2.80662 34.7892 31.5429C34.7892 35.5447 34.2729 38.4734 33.2418 40.3371 31.5611 43.3203 28.3992 44.8177 23.757 44.8177 19.9098 44.8177 16.4201 43.5115 13.2963 40.9056 10.1695 38.2822 8.60567 33.3522 8.60567 26.0973L8.60567-2.80662-0.672004-2.80662" fill="#231F20" fill-rule="evenodd" transform="matrix(1 0 0 -1 2590 2063)"/><path d="M36.4382 52.4601C40.0834 50.6279 42.8633 48.2717 44.771 45.3665 46.6118 42.5996 47.8408 39.3813 48.4527 35.6924 48.9976 33.1609 49.2697 29.1353 49.2697 23.6016L9.20118 23.6016C9.37069 18.0264 10.6785 13.5487 13.1312 10.1794 15.5772 6.8043 19.3741 5.12228 24.5092 5.12228 29.3113 5.12228 33.1379 6.71328 35.9966 9.90194 37.595 11.7527 38.7273 13.9039 39.3935 16.3392L48.501 16.3392C48.2586 14.3257 47.4594 12.0775 46.1093 9.60076 44.7524 7.12324 43.2387 5.10452 41.5733 3.53128 38.7816 0.80734 35.3304-1.03156 31.2124-1.98986 28.9961-2.5382 26.495-2.80904 23.7033-2.80904 16.8909-2.80904 11.1141-0.33226 6.37897 4.64054 1.63786 9.60076-0.730087 16.5619-0.730087 25.5063-0.730087 34.3123 1.65571 41.4607 6.4273 46.9575 11.1989 52.4483 17.4366 55.1907 25.1389 55.1907 29.0265 55.1907 32.793 54.2864 36.4382 52.4601M39.757 30.9313C39.3816 34.9273 38.5155 38.1093 37.1527 40.5024 34.6338 44.938 30.4377 47.1624 24.5516 47.1624 20.3369 47.1624 16.8002 45.6255 13.9423 42.5759 11.0903 39.5197 9.57589 35.6443 9.40638 30.9313" fill="#231F20" fill-rule="evenodd" transform="matrix(1 0 0 -1 2641 2065)"/><path d="M-0.752434-2.81576 8.24858-2.81576 8.24858 72.1849-0.752434 72.1849Z" fill="#231F20" fill-rule="evenodd" transform="matrix(1 0 0 -1 2701 2063)"/><path d="M6.75637 68.1816 16.2568 68.1816 16.2568 52.8751 25.186 52.8751 25.186 45.3484 16.2568 45.3484 16.2568 9.57101C16.2568 7.65474 16.9207 6.37698 18.2418 5.7318 18.9737 5.35225 20.1899 5.1658 21.892 5.1658 22.3469 5.1658 22.8328 5.17764 23.3549 5.19614 23.877 5.22573 24.4851 5.28048 25.186 5.37075L25.186-1.95105C24.1041-2.25884 22.9799-2.47562 21.8188-2.61398 20.6509-2.74641 19.3909-2.81892 18.0328-2.81892 13.6455-2.81892 10.6714-1.71651 9.10431 0.483138 7.53725 2.68278 6.75637 5.53944 6.75637 9.05828L6.75637 45.3484-0.814084 45.3484-0.814084 52.8751 6.75637 52.8751" fill="#231F20" fill-rule="evenodd" transform="matrix(1 0 0 -1 2718 2064)"/><path d="M36.3178 52.4601C39.963 50.6279 42.7428 48.2717 44.6498 45.3665 46.4907 42.5996 47.7204 39.3813 48.3315 35.6924 48.8764 33.1609 49.1493 29.1353 49.1493 23.6016L9.08 23.6016C9.24951 18.0264 10.558 13.5487 13.01 10.1794 15.4567 6.8043 19.2536 5.12228 24.3888 5.12228 29.1901 5.12228 33.0175 6.71328 35.8754 9.90194 37.4746 11.7527 38.6069 13.9039 39.2731 16.3392L48.3806 16.3392C48.1382 14.3257 47.339 12.0775 45.9881 9.60076 44.632 7.12324 43.1183 5.10452 41.4529 3.53128 38.6612 0.80734 35.21-1.03156 31.0919-1.98986 28.8756-2.5382 26.3746-2.80904 23.5829-2.80904 16.7704-2.80904 10.9937-0.33226 6.25853 4.64054 1.51668 9.60076-0.850529 16.5619-0.850529 25.5063-0.850529 34.3123 1.53527 41.4607 6.30686 46.9575 11.0784 52.4483 17.3154 55.1907 25.0185 55.1907 28.9061 55.1907 32.6725 54.2864 36.3178 52.4601M39.6359 30.9313C39.2604 34.9273 38.395 38.1093 37.0322 40.5024 34.5134 44.938 30.3165 47.1624 24.4312 47.1624 20.2164 47.1624 16.6797 45.6255 13.8218 42.5759 10.9692 39.5197 9.45545 35.6443 9.28594 30.9313" fill="#231F20" fill-rule="evenodd" transform="matrix(1 0 0 -1 2750 2065)"/><path d="M-0.910754 51.9647 7.95262 51.9647 7.95262 42.5014C8.67238 44.3434 10.4482 46.583 13.2786 49.2313 16.1209 51.8686 19.379 53.1931 23.0759 53.1931 23.2467 53.1931 23.5395 53.1747 23.9537 53.1392 24.3687 53.1089 25.0764 53.0364 26.089 52.9344L26.089 43.2177C25.5341 43.3197 25.0218 43.3921 24.5581 43.4224 24.0885 43.4586 23.5755 43.4764 23.0205 43.4764 18.3237 43.4764 14.7181 41.9833 12.1926 39.0031 9.67301 36.0177 8.41024 32.5799 8.41024 28.6965L8.41024-2.80726-0.910754-2.80726" fill="#231F20" fill-rule="evenodd" transform="matrix(1 0 0 -1 2809 2063)"/></g></svg>