<svg width="558" height="490" xmlns="http://www.w3.org/2000/svg" xmlns:xlink="http://www.w3.org/1999/xlink" xml:space="preserve" overflow="hidden"><g transform="translate(-1789 -1684)"><path d="M19.5857-4.8243 530.266-4.8243C542.954-4.67133 553.277 5.73738 553.277 18.4935 553.277 22.8919 552.071 26.9937 549.945 30.5013L295.041 472.35C291.009 479.405 283.434 484.177 274.797 484.177 266.159 484.177 258.603 479.442 254.581 472.447L254.572 472.447-0.237502 30.7508C-2.43969 27.1761-3.72243 22.9872-3.72243 18.4935-3.72243 5.65972 6.74412-4.8243 19.5857-4.8243" fill="#FDB724" fill-rule="evenodd" transform="matrix(1 0 0 -1 1793 2169)"/><path d="M497.276-4.81586-3.7257-4.81586 246.78 428.185ZM6.83378 1.2656 486.716 1.2656 246.78 416.022" fill="#221F20" fill-rule="evenodd" transform="matrix(1 0 0 -1 1821 2140)"/><path d="M151.777 265.221-3.71863-4.77873 307.281-4.77873" fill="#221F20" fill-rule="evenodd" transform="matrix(1 0 0 -1 1916 2095)"/><path d="M90.4441 128.298C122.261 128.298 157.271 102.907 157.271 61.8113 157.271 20.6879 122.596-4.7026 89.668-4.7026L75.7787-4.7026 90.7032 20.1044C114.999 22.3623 132.313 38.8114 132.313 61.8113 132.313 85.1952 114.184 101.826 89.7445 103.605L89.7445 29.6211 69.6113-4.7026 61.88-4.7026C29.949-4.7026-3.60363 21.8645-3.72846 61.8113-3.84387 101.739 29.7088 128.298 61.9565 128.298L78.2624 128.298 63.3862 103.605C39.8766 101.893 21.1625 85.3478 21.2485 61.8113 21.325 38.1422 40.164 21.5592 63.6347 19.9705L63.6347 92.8931 84.4015 128.298" fill="#FFFFFF" fill-rule="evenodd" transform="matrix(1 0 0 -1 1991 2074)"/></g></svg>