<svg width="253" height="254" xmlns="http://www.w3.org/2000/svg" xmlns:xlink="http://www.w3.org/1999/xlink" xml:space="preserve" overflow="hidden"><g transform="translate(-2604 -697)"><path d="M230.648 251.289 20.65 251.289C9.04986 251.289-0.350909 241.851-0.350909 230.205L-0.350909 19.3729C-0.350909 7.72748 9.04986-1.71091 20.65-1.71091L230.648-1.71091C242.245-1.71091 251.649 7.72748 251.649 19.3729L251.649 230.205C251.649 241.851 242.245 251.289 230.648 251.289" fill="#2E2A26" fill-rule="evenodd" transform="matrix(1 0 0 -1 2605 949)"/><path d="M73.7664 74.6901C74.5789 76.016 74.8447 77.6649 74.3602 79.2669L63.2111 115.759C60.954 123.152 53.9112 128.31 46.5903 128.31L27.64 128.31C20.3191 128.31 13.2738 123.152 11.0224 115.759L-0.112803 79.2669C-1.01269 76.2806 0.685887 73.1325 3.68406 72.2271 6.68223 71.3216 9.85232 73.0001 10.7707 75.9807L15.0543 90.022 15.0405 90.0249 21.1348 109.986C21.3796 110.803 22.2541 111.271 23.0851 111.015 23.9056 110.771 24.3731 109.898 24.1217 109.072L6.64414 51.8218C6.60279 51.6807 6.58212 51.5458 6.58212 51.4014 6.58212 50.6197 7.21759 49.9817 7.99996 49.9817L22.9132 49.9817 22.9132 4.60383C22.9132 1.12921 25.7442-1.68967 29.2349-1.68967 32.7292-1.68967 35.5533 1.12921 35.5533 4.60383L35.5533 49.9817 38.6759 49.9817 38.6759 4.60383C38.6759 1.12921 41.5032-1.68967 44.9951-1.68967 48.493-1.68967 51.32 1.12921 51.32 4.60383L51.32 49.9817 66.2274 49.9817C67.0102 49.9817 67.6543 50.6197 67.6543 51.4014 67.6543 51.5458 67.6304 51.6807 67.5862 51.8218L50.1118 109.072C49.8579 109.898 50.3247 110.771 51.1459 111.015 51.9762 111.271 52.8506 110.803 53.0987 109.986L63.2169 76.8244C63.2434 76.745 63.2641 76.6714 63.2909 76.601L63.477 75.9778C63.7752 75.0135 64.3098 74.1845 64.9982 73.5349L83.7961 51.1751 74.827 20.1912C74.8005 20.1089 74.7918 20.0267 74.7918 19.9415 74.7918 19.4828 75.1639 19.1035 75.6307 19.1035L83.0841 19.1035 83.0841 2.16387C83.0841 0.109349 84.7562-1.55722 86.8244-1.55722 88.8864-1.55722 90.5585 0.109349 90.5585 2.16387L90.5585 19.1035 92.4018 19.1035 92.4018 2.16387C92.4018 0.109349 94.0768-1.55722 96.1391-1.55722 98.207-1.55722 99.882 0.109349 99.882 2.16387L99.882 19.1035 107.463 19.1035C107.927 19.1035 108.302 19.4828 108.302 19.9415 108.302 20.0267 108.29 20.1089 108.269 20.1912L99.1641 51.1751C99.0165 51.663 99.2911 52.1806 99.7815 52.3246 100.266 52.4776 100.783 52.2011 100.931 51.7161L106.919 32.1073C106.928 32.0604 106.946 32.0193 106.96 31.9781L107.07 31.6108C107.613 29.8471 109.486 28.8536 111.259 29.3884 113.034 29.9265 114.036 31.7872 113.504 33.5534L106.913 55.1315C105.578 59.5026 101.409 62.5535 97.0815 62.5535L90.6234 62.5535C90.6234 62.5535 83.7134 62.6535 81.6013 65.2165 79.4178 67.8708 76.0943 71.886 73.7664 74.6901" fill="#FFFFFF" fill-rule="evenodd" transform="matrix(1 0 0 -1 2674 902)"/><path d="M8.61265-1.69798C13.5824-1.69798 17.6113 2.33162 17.6113 7.30214 17.6113 12.2723 13.5824 16.3022 8.61265 16.3022 3.64005 16.3022-0.3889 12.2723-0.3889 7.30214-0.3889 2.33162 3.64005-1.69798 8.61265-1.69798" fill="#FFFFFF" fill-rule="evenodd" transform="matrix(1 0 0 -1 2757 836)"/><path d="M12.1758-1.76653C19.0809-1.76653 24.6754 3.83115 24.6754 10.7339 24.6754 17.6391 19.0809 23.2339 12.1758 23.2339 5.26952 23.2339-0.324649 17.6391-0.324649 10.7339-0.324649 3.83115 5.26952-1.76653 12.1758-1.76653" fill="#FFFFFF" fill-rule="evenodd" transform="matrix(1 0 0 -1 2699 769)"/></g></svg>