<svg width="424" height="389" xmlns="http://www.w3.org/2000/svg" xmlns:xlink="http://www.w3.org/1999/xlink" xml:space="preserve" overflow="hidden"><g transform="translate(-1561 322)"><path d="M158 217.085 154.832 216.912C140.304 215.711 128.102 206.65 117.1 197.832L112.341 193.955 107.583 197.832 102.468 201.895 99.8168 203.835C66.0937 232.308 16.8516 211.036 1.45841 173.814L0.226329 170.628-1.00716 167.281C-15.7652 110.714 25.7577 55.8997 69.1478 24.5864L74.2741 20.8821 79.2053 17.3508 84.1364 14.1652 88.7224 11.3367 92.9505 8.69381 100.531 4.45815C109.045 0.97212 110.176-3.74819 118.159 1.27254L124.15 4.45815 131.732 8.69381C142.101 14.9261 151.318 21.1018 160.811 28.6492L166.284 33.0592 171.573 37.6519 177.046 42.419C196.874 60.9785 214.086 83.3019 222.716 109.352L223.937 113.056 224.985 117.119 226.046 121.009C237.406 165.688 214.916 208.151 168.749 216.369L165.236 216.739 161.711 217.085" fill="#FA96B8" fill-rule="evenodd" transform="matrix(1 0 0 -1 1660 -104)"/><path d="M178.644 316.244 180.773 316.071C191.021 315.157 198.852 306.268 198.817 296.06L198.817 153.85 198.817 154.024 198.471 152.078 197.938 150.134 197.233 148.352 196.515 146.407 195.463 144.637 194.225 143.051 192.628 141.453 191.032 140.042 104.836 54.4988 103.424 53.0749 101.828 51.6624 100.416 50.0652 99.1794 48.4793 96.704 45.1115C89.937 34.4056 86.4207 21.8822 85.3684 9.34743L85.1951 5.96826 85.1951-0.75598-4.18378-0.75598-4.18378 104.625-3.82448 108.341-3.12008 111.871C-1.4656 121.014 3.17263 129.417 9.08331 136.5L11.57 138.977 14.0453 141.453 16.7067 143.584 22.3632 147.473 22.5364 147.473 24.3173 148.352 26.0755 149.417 140.948 210.528 142.89 211.407 144.846 212.113 146.789 212.46 148.731 212.82 150.676 212.82C166.569 212.68 175.961 194.996 167.308 181.65L166.072 180.054 164.833 178.641 163.248 177.218 161.652 175.98 159.882 174.914 84.8472 135.076 83.9567 134.358 83.4242 133.479 83.0776 132.599 83.0776 131.535 83.2509 130.829 83.5988 130.122 83.9567 129.591 84.4893 129.058 85.3684 128.525 86.2588 128.167 87.1492 128.167 88.2016 128.525 88.3876 128.525 88.5609 128.7 163.954 168.907 165.55 169.787 166.962 170.84 168.385 171.906 170.86 174.394 172.097 175.805 173.162 177.218C181.906 190.042 178.089 208.248 164.487 215.828L162.542 216.894 160.588 217.773 158.646 218.491 158.646 296.06C158.379 306.106 166.627 315.272 176.69 316.071" fill="#FFFFFF" fill-rule="evenodd" transform="matrix(1 0 0 -1 1785 65)"/><path d="M178.644 316.244 180.773 316.071C191.021 315.157 198.852 306.269 198.818 296.06L198.818 153.851 198.818 154.024 198.471 152.079 197.939 150.135 197.233 148.353 196.516 146.407 195.463 144.637 194.225 143.051 192.629 141.454 191.033 140.043 104.836 54.4988 103.424 53.075 101.828 51.6625 100.417 50.0652 99.1795 48.4794 96.7042 45.1116C89.9372 34.4056 86.4208 21.8822 85.3685 9.34744L85.1953 5.96827 85.1953-0.755981-4.18378-0.755981-4.18378 104.625-3.82448 108.341-3.12009 111.871C-1.4656 121.014 3.17263 129.418 9.08333 136.5L11.57 138.977 14.0454 141.454 16.7067 143.584 22.3632 147.473 22.5365 147.473 24.3174 148.353 26.0755 149.417 140.948 210.528 142.891 211.407 144.846 212.114 146.789 212.46 148.732 212.82 150.676 212.82C166.569 212.681 175.962 194.996 167.309 181.65L166.072 180.054 164.833 178.642 163.249 177.218 161.652 175.98 159.883 174.914 84.8473 135.076 83.9569 134.359 83.4243 133.479 83.0778 132.599 83.0778 131.535 83.2511 130.829 83.599 130.122 83.9569 129.591 84.4894 129.058 85.3685 128.525 86.259 128.167 87.1494 128.167 88.2017 128.525 88.3878 128.525 88.561 128.7 163.954 168.908 165.551 169.787 166.962 170.84 168.385 171.906 170.861 174.394 172.098 175.805 173.163 177.218C181.907 190.042 178.089 208.249 164.487 215.828L162.543 216.894 160.589 217.774 158.646 218.491 158.646 296.06C158.379 306.107 166.627 315.272 176.69 316.071L178.644 316.244Z" stroke="#000000" stroke-width="0.36378" stroke-miterlimit="8" fill="none" fill-rule="evenodd" transform="matrix(1 0 0 -1 1785.5 65.5002)"/><path d="M16.1399 316.244 14.0234 316.071C3.85743 315.087-3.92803 306.256-3.91673 296.06L-3.91673 153.85-3.74306 154.024-3.57081 152.078-3.04274 150.134-2.341 148.352-1.45571 146.407-0.396756 144.637 0.833047 143.051 2.23652 141.453 3.82354 140.042 89.5116 54.4988 91.0972 53.0749 92.512 51.6624 93.9155 50.0652 95.1453 48.4793 97.6063 45.1115C104.553 33.8969 107.727 22.3923 108.865 9.34743L109.05 5.96826 109.05-0.75598 198.083-0.75598 198.083 100.899 197.911 104.625 197.555 108.341 196.853 111.871C195.3 120.898 190.62 129.614 184.72 136.488L182.248 138.965 179.787 141.453 177.143 143.584 174.336 145.528 171.519 147.473 169.574 148.352 167.815 149.417 53.6186 210.528 51.687 211.396 49.7428 212.113 47.9835 212.46 45.8797 212.82 42.1875 212.82C26.248 210.793 18.7167 192.785 28.6286 180.054L30.0433 178.63 31.4468 177.218 33.0338 175.98 34.7931 174.914 109.395 135.076 110.28 134.358 110.809 133.479 111.154 132.599 111.154 131.535 110.982 130.829 110.624 130.122 110.28 129.591 109.75 129.047 108.865 128.525 107.991 128.167 107.117 128.167 106.232 128.525 106.06 128.525 105.876 128.7 105.702 128.7 30.7451 168.907 29.1693 169.787 27.7546 170.84 26.3525 171.906 25.11 173.144 23.8802 174.394 21.775 177.218C12.747 189.359 16.8869 208.618 30.2156 215.828L32.1486 216.894 34.0914 217.773 36.1966 218.491 36.1966 296.06C36.15 306.175 28.181 315.283 18.0715 316.071ZM105.876 128.7 105.702 128.7" fill="#FFFFFF" fill-rule="evenodd" transform="matrix(1 0 0 -1 1565 65)"/><path d="M16.14 316.244 14.0235 316.071C3.85744 315.088-3.92804 306.256-3.91674 296.06L-3.91674 153.851-3.74307 154.024-3.57081 152.079-3.04274 150.135-2.34101 148.353-1.45572 146.407-0.396757 144.637 0.833048 143.051 2.23652 141.454 3.82355 140.043 89.5118 54.4988 91.0974 53.075 92.5121 51.6625 93.9156 50.0652 95.1454 48.4794 97.6064 45.1116C104.553 33.8969 107.727 22.3924 108.865 9.34744L109.05 5.96827 109.05-0.755981 198.083-0.755981 198.083 100.899 197.911 104.625 197.555 108.341 196.854 111.871C195.3 120.899 190.62 129.614 184.721 136.489L182.248 138.965 179.787 141.454 177.143 143.584 174.336 145.528 171.519 147.473 169.575 148.353 167.815 149.417 53.6187 210.528 51.6871 211.396 49.7429 212.114 47.9836 212.46 45.8798 212.82 42.1875 212.82C26.2481 210.794 18.7168 192.785 28.6286 180.054L30.0434 178.63 31.4469 177.218 33.0339 175.98 34.7932 174.914 109.395 135.076 110.28 134.359 110.81 133.479 111.154 132.599 111.154 131.535 110.982 130.829 110.625 130.122 110.28 129.591 109.751 129.047 108.865 128.525 107.991 128.167 107.117 128.167 106.232 128.525 106.06 128.525 105.876 128.7 105.703 128.7 30.7451 168.908 29.1694 169.787 27.7546 170.84 26.3526 171.906 25.1101 173.144 23.8803 174.394 21.775 177.218C12.7471 189.359 16.8869 208.618 30.2157 215.828L32.1486 216.894 34.0914 217.774 36.1967 218.491 36.1967 296.06C36.1501 306.175 28.181 315.284 18.0715 316.071L16.14 316.244ZM105.876 128.7 105.703 128.7 105.876 128.7Z" stroke="#000000" stroke-width="0.36378" stroke-miterlimit="8" fill="none" fill-rule="evenodd" transform="matrix(1 0 0 -1 1565.5 65.5002)"/></g></svg>