<?xml version="1.0" encoding="UTF-8"?>
<svg id="Layer_1" data-name="Layer 1" xmlns="http://www.w3.org/2000/svg" xmlns:xlink="http://www.w3.org/1999/xlink" viewBox="8 8 97 97">
  <defs>
    <style>
      .cls-1, .cls-2, .cls-3 {
        fill: none;
      }

      .cls-4 {
        fill: #ff9e18;
      }

      .cls-4, .cls-5, .cls-6, .cls-7, .cls-8, .cls-9, .cls-10 {
        fill-rule: evenodd;
      }

      .cls-11 {
        fill: url(#linear-gradient-5);
      }

      .cls-12 {
        fill: url(#linear-gradient-6);
      }

      .cls-13 {
        fill: url(#linear-gradient-4);
      }

      .cls-14 {
        fill: url(#linear-gradient-3);
      }

      .cls-15 {
        fill: url(#linear-gradient-2);
      }

      .cls-16, .cls-10 {
        fill: #231f20;
      }

      .cls-5 {
        fill: #00953b;
      }

      .cls-17 {
        fill: #2d2a26;
      }

      .cls-18 {
        fill: url(#linear-gradient);
      }

      .cls-6 {
        fill: #e1251b;
      }

      .cls-2 {
        opacity: .2;
        stroke-width: 2.52px;
      }

      .cls-2, .cls-3 {
        stroke: #ff9e18;
        stroke-miterlimit: 10;
      }

      .cls-7 {
        fill: #9d5918;
      }

      .cls-8 {
        fill: #9e28b5;
      }

      .cls-9 {
        fill: #0055b8;
      }

      .cls-19 {
        clip-path: url(#clippath-1);
      }

      .cls-20 {
        clip-path: url(#clippath-3);
      }

      .cls-21 {
        clip-path: url(#clippath-4);
      }

      .cls-22 {
        clip-path: url(#clippath-2);
      }

      .cls-23 {
        clip-path: url(#clippath-5);
      }

      .cls-24 {
        fill: #fff;
      }

      .cls-25 {
        clip-path: url(#clippath);
      }

      .cls-3 {
        stroke-width: 2.5px;
      }
    </style>
    <clipPath id="clippath">
      <rect class="cls-1" x="26.44" y="23.55" width="9.68" height="12.31" transform="translate(32.47 -13.42) rotate(48.06)"/>
    </clipPath>
    <clipPath id="clippath-1">
      <rect class="cls-1" x="16.54" y="60.11" width="9.68" height="12.31" transform="translate(-16.24 7.67) rotate(-14.82)"/>
    </clipPath>
    <clipPath id="clippath-2">
      <rect class="cls-1" x="52.76" y="86.67" width="9.68" height="12.31" transform="translate(-35.84 149.42) rotate(-89.38)"/>
    </clipPath>
    <clipPath id="clippath-3">
      <rect class="cls-1" x="87.54" y="59.49" width="9.68" height="12.31" transform="translate(163.05 154.23) rotate(-163.98)"/>
    </clipPath>
    <clipPath id="clippath-4">
      <rect class="cls-1" x="76.09" y="22.36" width="9.68" height="12.31" transform="translate(152.68 -18.54) rotate(127.34)"/>
    </clipPath>
    <linearGradient id="linear-gradient" x1="22.88" y1="41.53" x2="29.37" y2="32.22" gradientUnits="userSpaceOnUse">
      <stop offset="0" stop-color="#ff9e18" stop-opacity="0"/>
      <stop offset="1" stop-color="#ff9e18"/>
    </linearGradient>
    <linearGradient id="linear-gradient-2" x1="29.82" y1="79.53" x2="24.65" y2="69.81" xlink:href="#linear-gradient"/>
    <linearGradient id="linear-gradient-3" x1="76.22" y1="87.28" x2="60.91" y2="90.86" xlink:href="#linear-gradient"/>
    <linearGradient id="linear-gradient-4" x1="92.63" y1="49.52" x2="91.6" y2="61.93" xlink:href="#linear-gradient"/>
    <linearGradient id="linear-gradient-5" x1="66.1" y1="23.52" x2="77.62" y2="29.25" xlink:href="#linear-gradient"/>
    <clipPath id="clippath-5">
      <rect class="cls-1" x="52.2" y="68.27" width="9.68" height="12.31" transform="translate(114.07 148.85) rotate(-180)"/>
    </clipPath>
    <linearGradient id="linear-gradient-6" x1="66.41" y1="83.1" x2="60.2" y2="76.48" xlink:href="#linear-gradient"/>
  </defs>
  <rect y="0" width="113.39" height="113.39" style="fill:none"/>
  <path class="cls-2" d="M75.68,85.91h-8.2c-5.76,0-10.43-4.67-10.43-10.43v-9.24"/>
  <g>
    <g class="cls-25">
      <polyline class="cls-3" points="18.41 25.53 32.71 28.43 34.06 42.95"/>
    </g>
    <g class="cls-19">
      <polyline class="cls-3" points="11.81 75.81 20.9 64.41 34.44 69.83"/>
    </g>
    <g class="cls-22">
      <polyline class="cls-3" points="64.26 104.6 55.69 92.81 64.51 81.2"/>
    </g>
    <g class="cls-20">
      <polyline class="cls-3" points="105.5 62.35 91.85 67.48 83 55.89"/>
    </g>
    <g class="cls-21">
      <polyline class="cls-3" points="82.63 15.09 82.45 29.67 68.44 33.7"/>
    </g>
    <path class="cls-2" d="M41.52,89.55c-12.69-5.77-21.51-18.56-21.51-33.41,0-20.26,16.43-36.69,36.69-36.69,20.26,0,36.69,16.43,36.69,36.69,0,14.53-8.45,27.09-20.7,33.03h0c-4.83,2.34-10.26,3.66-15.99,3.66-5.41,0-10.55-1.17-15.18-3.28h0Z"/>
    <path class="cls-18" d="M23.36,44.1l-2.37-.86c2.2-6.08,5.95-11.54,10.87-15.8l1.65,1.9c-4.59,3.97-8.09,9.07-10.15,14.75Z"/>
    <path class="cls-15" d="M35.13,87.37c-7.59-5.25-13-13.04-15.24-21.94l2.44-.62c2.09,8.31,7.14,15.58,14.23,20.48l-1.43,2.07Z"/>
    <path class="cls-14" d="M56.69,94.09c-.54,0-1.08-.01-1.61-.03l.1-2.52c.5.02,1,.03,1.51.03,5.41,0,10.61-1.19,15.44-3.53,2.65-1.29,5.14-2.9,7.4-4.81l1.63,1.93c-2.42,2.04-5.09,3.78-7.93,5.16-5.18,2.51-10.75,3.79-16.54,3.79Z"/>
    <path class="cls-13" d="M93.08,66.95l-2.42-.72c.97-3.26,1.46-6.66,1.46-10.1,0-3.82-.61-7.58-1.8-11.18l2.39-.79c1.28,3.85,1.93,7.88,1.93,11.97,0,3.68-.53,7.32-1.56,10.81Z"/>
    <path class="cls-11" d="M81.04,30.39c-6.6-6.25-15.25-9.69-24.34-9.69-1.88,0-3.78.15-5.63.44l-.4-2.49c1.98-.32,4.01-.47,6.02-.47,9.74,0,19,3.68,26.07,10.38l-1.73,1.83Z"/>
    <g>
      <g>
        <path class="cls-10" d="M56.69,15.65h-4.82s-1.55,0-1.55,0h-3.41c-.39,0-.72.15-.99.36-.33.25-.55.59-.66.82-.2.4-.36.83-.47,1.27-.1.43-.16.88-.16,1.35s.05.91.16,1.35c.1.44.26.87.47,1.27.11.23.33.57.66.82.27.21.6.36.99.36h3.41s1.55,0,1.55,0h4.82"/>
        <path class="cls-4" d="M56.69,16.07h-5.07s-1.49,0-1.49,0h-3.29c-.72,0-1.13.73-1.24.95-.37.76-.56,1.58-.56,2.43s.19,1.67.56,2.43c.11.22.52.95,1.24.95h3.29s1.49,0,1.49,0h5.07"/>
        <path class="cls-10" d="M56.69,15.65h4.82s1.55,0,1.55,0h3.41c.39,0,.72.15.99.36.33.25.55.59.66.82.2.4.36.83.47,1.27.1.43.16.88.16,1.35s-.05.91-.16,1.35c-.1.44-.26.87-.47,1.27-.11.23-.33.57-.66.82-.27.21-.6.36-.99.36h-3.41s-1.55,0-1.55,0h-4.82"/>
        <path class="cls-6" d="M56.69,16.07h5.07s1.49,0,1.49,0h3.29c.72,0,1.13.73,1.24.95.37.76.56,1.58.56,2.43s-.19,1.67-.56,2.43c-.11.22-.52.95-1.24.95h-3.29s-1.49,0-1.49,0h-5.07"/>
      </g>
      <g>
        <path class="cls-24" d="M60.14,20.86h-.34l-1.32-1.79v1.79h-.36v-2.65h.34l1.31,1.79v-1.51s.02-.09.07-.15c.08-.1.18-.15.29-.16v2.68Z"/>
        <path class="cls-24" d="M62.08,18.28l-.1.32c-.17-.08-.34-.12-.5-.12-.11,0-.2.02-.27.06-.09.05-.13.13-.13.23,0,.07.02.14.07.19s.14.13.27.22l.17.11c.17.12.31.23.39.33.14.15.2.33.2.54,0,.22-.07.4-.22.53-.15.14-.37.2-.65.2-.23,0-.47-.06-.7-.17l.12-.35c.18.13.38.2.57.2.14,0,.25-.04.32-.11.05-.05.07-.12.07-.2s-.03-.16-.08-.22c-.05-.06-.15-.14-.29-.24l-.17-.11c-.16-.1-.29-.21-.37-.31-.12-.15-.19-.31-.19-.5,0-.27.11-.47.32-.59.15-.08.33-.13.55-.13.23,0,.43.04.61.1Z"/>
      </g>
      <g>
        <path class="cls-24" d="M64.15,18.21h.33v2.65h-.5v-2.25l-.65.38-.13-.25.96-.54Z"/>
        <path class="cls-24" d="M65.07,18.21h1.85v.26l-1.19,2.39h-.37l1.14-2.21h-1.43v-.44Z"/>
      </g>
      <g>
        <path class="cls-16" d="M48.39,18.29l-.1.33c-.19-.08-.35-.12-.47-.12-.23,0-.41.11-.53.32-.11.19-.16.43-.16.73s.05.54.16.73c.12.21.29.31.51.31.15,0,.32-.05.5-.16l.11.33c-.21.1-.44.15-.71.15-.45,0-.77-.17-.97-.52-.13-.23-.2-.51-.2-.83,0-.45.13-.8.38-1.05.22-.22.5-.33.85-.33.24,0,.45.04.63.12Z"/>
        <path class="cls-16" d="M50.47,18.29l-.1.33c-.19-.08-.35-.12-.47-.12-.23,0-.41.11-.53.32-.11.19-.16.43-.16.73s.05.54.16.73c.12.21.29.31.51.31.15,0,.32-.05.5-.16l.11.33c-.21.1-.44.15-.71.15-.45,0-.77-.17-.97-.52-.13-.23-.2-.51-.2-.83,0-.45.13-.8.38-1.05.22-.22.5-.33.85-.33.24,0,.45.04.63.12Z"/>
      </g>
      <g>
        <path class="cls-16" d="M52.35,18.21h.33v2.65h-.5v-2.25l-.65.38-.13-.25.96-.54Z"/>
        <path class="cls-16" d="M53.48,18.21h1.48v.42h-1.17v.68c.13-.05.27-.07.42-.07.26,0,.48.07.65.21.18.14.27.34.27.58s-.08.42-.24.59c-.19.19-.46.29-.79.29-.27,0-.51-.06-.72-.17l.11-.33c.17.12.37.18.58.18.18,0,.32-.05.41-.15.08-.09.12-.21.12-.37,0-.21-.08-.35-.23-.44-.1-.06-.21-.08-.35-.08-.18,0-.35.05-.53.15v-1.47Z"/>
      </g>
    </g>
    <g>
      <g>
        <path class="cls-10" d="M21.81,41.02h4.82s1.55,0,1.55,0h3.41c.39,0,.72.15.99.36.33.25.55.59.66.82.2.4.36.83.47,1.27.1.43.16.88.16,1.35,0,.46-.05.91-.16,1.35-.1.44-.26.87-.47,1.27-.11.23-.33.57-.66.82-.27.21-.6.36-.99.36h-3.41s-1.55,0-1.55,0h-4.82"/>
        <path class="cls-7" d="M21.81,41.44h5.07s1.49,0,1.49,0h3.29c.72,0,1.13.73,1.24.95.37.76.56,1.58.56,2.43s-.19,1.67-.56,2.43c-.11.22-.52.95-1.24.95h-3.29s-1.49,0-1.49,0h-5.07"/>
        <path class="cls-10" d="M21.81,41.02h-4.82s-1.55,0-1.55,0h-3.41c-.39,0-.72.15-.99.36-.33.25-.55.59-.66.82-.2.4-.36.83-.47,1.27-.1.43-.16.88-.16,1.35,0,.46.05.91.16,1.35.1.44.26.87.47,1.27.11.23.33.57.66.82.27.21.6.36.99.36h3.41s1.55,0,1.55,0h4.82"/>
        <path class="cls-4" d="M21.81,41.44h-5.07s-1.49,0-1.49,0h-3.29c-.72,0-1.13.73-1.24.95-.37.76-.56,1.58-.56,2.43s.19,1.67.56,2.43c.11.22.52.95,1.24.95h3.29s1.49,0,1.49,0h5.07"/>
      </g>
      <g>
        <path class="cls-16" d="M13.63,43.66l-.1.33c-.19-.08-.35-.12-.47-.12-.23,0-.41.11-.53.32-.11.19-.16.43-.16.73s.05.54.16.73c.12.21.29.31.51.31.15,0,.32-.05.5-.16l.11.33c-.21.1-.44.15-.71.15-.45,0-.77-.17-.97-.52-.13-.23-.2-.51-.2-.83,0-.45.13-.8.38-1.05.22-.22.5-.33.86-.33.24,0,.45.04.63.12Z"/>
        <path class="cls-16" d="M15.7,43.66l-.1.33c-.19-.08-.35-.12-.47-.12-.23,0-.41.11-.53.32-.11.19-.16.43-.16.73s.05.54.16.73c.12.21.29.31.51.31.15,0,.32-.05.5-.16l.11.33c-.21.1-.44.15-.71.15-.45,0-.77-.17-.97-.52-.13-.23-.2-.51-.2-.83,0-.45.13-.8.38-1.05.22-.22.5-.33.86-.33.24,0,.45.04.63.12Z"/>
      </g>
      <g>
        <path class="cls-16" d="M17.58,43.58h.33v2.65h-.5v-2.25l-.65.38-.13-.25.96-.54Z"/>
        <path class="cls-16" d="M18.5,43.58h1.85v.26l-1.19,2.39h-.37l1.14-2.21h-1.43v-.44Z"/>
      </g>
      <g>
        <path class="cls-24" d="M24.98,46.23v-1.87c0-.05.02-.11.07-.18.1-.14.22-.23.36-.26h0s-1.1-.01-1.1-.01l-.02-.33h1.93v.33h-.7v2.33h-.54Z"/>
        <path class="cls-24" d="M26.55,46.23v-1.89c0-.09.05-.19.16-.29.08-.08.17-.13.27-.16h0s-.49-.01-.49-.01l-.02-.31h1.65v.33h-1.03v.8h.96v.31h-.96v.88h1.04v.33h-1.58Z"/>
      </g>
      <path class="cls-24" d="M29.17,46.14l.1-.32c.15.1.31.16.48.16.24,0,.42-.13.51-.39.06-.16.09-.38.09-.67-.16.23-.35.34-.57.34-.21,0-.38-.07-.52-.21-.15-.15-.23-.35-.23-.61s.08-.48.25-.64c.17-.17.38-.25.65-.25.36,0,.63.14.79.43.12.21.18.49.18.83,0,.5-.11.87-.33,1.13-.19.23-.46.34-.78.34-.22,0-.43-.04-.61-.13ZM29.93,43.8c-.15,0-.26.08-.32.24-.04.09-.05.2-.05.33,0,.14.02.26.06.35.06.15.17.22.31.22.13,0,.23-.06.3-.17.06-.1.09-.24.09-.4s-.03-.29-.08-.39c-.07-.11-.16-.17-.3-.17Z"/>
    </g>
    <g>
      <g>
        <path class="cls-10" d="M35.12,82h4.82s1.55,0,1.55,0h3.41c.39,0,.72.15.99.36.33.25.55.59.66.82.2.4.36.83.47,1.27.1.43.16.88.16,1.35,0,.46-.05.91-.16,1.35-.1.44-.26.87-.47,1.27-.11.23-.33.57-.66.82-.27.21-.6.36-.99.36h-3.41s-1.55,0-1.55,0h-4.82"/>
        <path class="cls-8" d="M35.12,82.41h5.07s1.49,0,1.49,0h3.29c.72,0,1.13.73,1.24.95.37.76.56,1.58.56,2.43,0,.86-.19,1.67-.56,2.43-.11.22-.52.95-1.24.95h-3.29s-1.49,0-1.49,0h-5.07"/>
        <path class="cls-10" d="M35.12,82h-4.82s-1.55,0-1.55,0h-3.41c-.39,0-.72.15-.99.36-.33.25-.55.59-.66.82-.2.4-.36.83-.47,1.27-.1.43-.16.88-.16,1.35,0,.46.05.91.16,1.35.1.44.26.87.47,1.27.11.23.33.57.66.82.27.21.6.36.99.36h3.41s1.55,0,1.55,0h4.82"/>
        <path class="cls-4" d="M35.12,82.41h-5.07s-1.49,0-1.49,0h-3.29c-.72,0-1.13.73-1.24.95-.37.76-.56,1.58-.56,2.43,0,.86.19,1.67.56,2.43.11.22.52.95,1.24.95h3.29s1.49,0,1.49,0h5.07"/>
      </g>
      <g>
        <path class="cls-16" d="M27.13,84.63l-.1.33c-.19-.08-.35-.12-.47-.12-.23,0-.41.11-.53.32-.11.19-.16.43-.16.73s.05.54.16.73c.12.21.29.31.51.31.15,0,.32-.05.5-.16l.11.33c-.21.1-.44.15-.71.15-.45,0-.77-.17-.97-.52-.13-.23-.2-.51-.2-.83,0-.45.13-.8.38-1.05.22-.22.5-.33.86-.33.24,0,.45.04.63.12Z"/>
        <path class="cls-16" d="M29.21,84.63l-.1.33c-.19-.08-.35-.12-.47-.12-.23,0-.41.11-.53.32-.11.19-.16.43-.16.73s.05.54.16.73c.12.21.29.31.51.31.15,0,.32-.05.5-.16l.11.33c-.21.1-.44.15-.71.15-.45,0-.77-.17-.97-.52-.13-.23-.2-.51-.2-.83,0-.45.13-.8.38-1.05.22-.22.5-.33.85-.33.24,0,.45.04.63.12Z"/>
      </g>
      <g>
        <path class="cls-16" d="M30.57,86.77h1.31v.44h-1.9v-.27c.27-.23.54-.49.79-.77.14-.16.25-.29.32-.4.11-.18.17-.34.17-.5,0-.17-.07-.3-.2-.37-.08-.05-.18-.07-.28-.07-.17,0-.35.05-.53.15l-.11-.34c.18-.08.42-.13.73-.13s.54.07.71.2c.15.12.23.29.23.49,0,.19-.07.37-.21.56-.17.22-.51.55-1.03,1Z"/>
        <path class="cls-16" d="M32.31,87.11l.1-.32c.15.1.31.16.48.16.25,0,.42-.13.51-.39.06-.16.09-.38.09-.67-.16.23-.36.34-.57.34-.21,0-.38-.07-.52-.21-.15-.15-.23-.35-.23-.61s.08-.48.25-.64c.17-.17.38-.25.65-.25.36,0,.63.14.79.43.12.21.18.49.18.83,0,.5-.11.87-.33,1.13-.19.23-.46.34-.78.34-.22,0-.43-.04-.61-.13ZM33.07,84.78c-.15,0-.26.08-.32.24-.04.09-.05.2-.05.33,0,.14.02.26.06.35.06.15.17.22.31.22.13,0,.23-.06.3-.17.06-.1.09-.24.09-.4s-.03-.29-.08-.39c-.07-.11-.16-.17-.3-.17Z"/>
      </g>
      <g>
        <path class="cls-24" d="M39.56,87.2h-.34l-1.32-1.79v1.79h-.36v-2.65h.34l1.31,1.79v-1.51s.02-.09.07-.15c.09-.1.18-.15.29-.16v2.68Z"/>
        <path class="cls-24" d="M40.13,87.2v-1.89c0-.09.05-.19.16-.29.08-.08.17-.13.27-.16h0s-.49-.01-.49-.01l-.02-.31h1.65v.33h-1.03v.8h.96v.31h-.96v.88h1.04v.33h-1.58Z"/>
      </g>
      <path class="cls-24" d="M43.67,84.55h.33v2.65h-.5v-2.25l-.65.38-.13-.25.96-.54Z"/>
    </g>
    <g>
      <g>
        <path class="cls-10" d="M91.57,41.14h-9.79c-.39,0-.72.15-.99.36-.32.25-.54.59-.66.82-.2.4-.36.83-.47,1.27-.1.43-.16.88-.16,1.35s.06.91.16,1.35c.1.44.26.87.47,1.27.11.23.33.57.66.82.27.21.6.36.99.36h3.41s1.55,0,1.55,0h4.82"/>
        <path class="cls-4" d="M91.57,41.56h-9.86c-.72,0-1.13.73-1.24.95-.37.76-.56,1.58-.56,2.43s.19,1.67.56,2.43c.11.22.52.95,1.24.95h9.86"/>
        <path class="cls-10" d="M91.57,41.14h9.79c.39,0,.72.15.99.36.32.25.54.59.66.82.2.4.36.83.47,1.27.1.43.16.88.16,1.35s-.05.91-.16,1.35c-.1.44-.26.87-.47,1.27-.11.23-.33.57-.66.82-.27.21-.6.36-.99.36h-9.79"/>
        <path class="cls-5" d="M91.57,41.56h9.86c.72,0,1.13.73,1.24.95.37.76.56,1.58.56,2.43s-.19,1.67-.56,2.43c-.11.22-.52.95-1.24.95h-9.86"/>
      </g>
      <g>
        <g>
          <path class="cls-24" d="M93.32,46.35v-1.89c0-.09.05-.19.16-.29.08-.08.17-.13.27-.16h0s-.49-.01-.49-.01l-.02-.31h1.65v.33h-1.03v.8h.96v.31h-.96v.88h1.05v.33h-1.58Z"/>
          <path class="cls-24" d="M95.11,43.7h.55l.37,1.9.51-1.9h.4l.48,1.9.33-1.62c.03-.12.11-.21.24-.27.06-.02.13-.04.2-.05l-.63,2.68h-.4l-.51-1.92-.45,1.61c-.04.14-.12.24-.26.29-.07.03-.15.04-.23.04l-.59-2.67Z"/>
        </g>
        <path class="cls-24" d="M99.67,44.96c-.13-.04-.24-.09-.31-.15-.15-.12-.23-.28-.23-.48s.07-.34.21-.47c.16-.14.38-.21.67-.21.31,0,.54.08.69.23.12.12.18.26.18.43,0,.18-.07.34-.22.47-.08.07-.19.13-.32.17.14.04.26.08.34.14.18.12.27.29.27.53,0,.2-.07.37-.21.51-.17.17-.42.25-.75.25s-.59-.09-.76-.26c-.12-.13-.17-.28-.17-.46,0-.33.2-.57.61-.7ZM100.01,45.11c-.12,0-.21.04-.28.12-.08.09-.12.22-.12.38,0,.18.05.32.14.41.07.07.16.11.27.11.15,0,.26-.06.33-.19.05-.09.08-.21.08-.34,0-.17-.05-.3-.14-.39-.07-.07-.17-.11-.28-.11ZM100.01,43.93c-.15,0-.26.08-.33.22-.03.07-.04.15-.04.23,0,.16.04.29.13.37.06.06.14.09.24.09.11,0,.2-.04.26-.12.07-.08.11-.2.11-.35,0-.13-.03-.24-.1-.32-.07-.08-.16-.13-.28-.13Z"/>
      </g>
      <g>
        <g>
          <path class="cls-16" d="M84.48,43.78l-.1.33c-.19-.08-.35-.12-.47-.12-.23,0-.41.11-.53.32-.11.19-.16.43-.16.73s.05.54.16.73c.12.21.29.31.51.31.15,0,.32-.05.5-.16l.11.33c-.21.1-.44.15-.71.15-.45,0-.77-.17-.97-.52-.13-.23-.2-.51-.2-.83,0-.45.13-.8.38-1.05.22-.22.5-.33.86-.33.24,0,.45.04.63.12Z"/>
          <path class="cls-16" d="M86.56,43.78l-.1.33c-.19-.08-.35-.12-.47-.12-.23,0-.41.11-.53.32-.11.19-.16.43-.16.73s.05.54.16.73c.12.21.29.31.51.31.15,0,.32-.05.5-.16l.11.33c-.21.1-.44.15-.71.15-.45,0-.77-.17-.97-.52-.13-.23-.2-.51-.2-.83,0-.45.13-.8.38-1.05.22-.22.5-.33.86-.33.24,0,.45.04.63.12Z"/>
        </g>
        <path class="cls-16" d="M87.52,46.26l.1-.32c.15.1.31.16.48.16.25,0,.42-.13.51-.39.06-.16.09-.38.09-.67-.16.23-.36.34-.57.34-.21,0-.38-.07-.52-.21-.15-.15-.23-.35-.23-.61s.08-.48.25-.64c.17-.17.38-.25.65-.25.36,0,.63.14.79.43.12.21.18.49.18.83,0,.5-.11.87-.33,1.13-.2.23-.46.34-.78.34-.22,0-.43-.04-.61-.13ZM88.27,43.92c-.15,0-.26.08-.32.24-.04.09-.05.2-.05.33,0,.14.02.26.06.35.06.15.17.22.31.22.13,0,.23-.06.3-.17.06-.1.09-.24.09-.4s-.03-.29-.08-.39c-.07-.11-.16-.17-.3-.17Z"/>
      </g>
    </g>
    <g>
      <g>
        <path class="cls-10" d="M78.27,81.99h-9.79c-.39,0-.72.15-.99.36-.32.25-.54.59-.66.82-.2.4-.36.83-.47,1.27-.1.43-.16.88-.16,1.35s.05.91.16,1.35c.1.44.26.87.47,1.27.11.23.33.57.66.82.27.21.6.36.99.36h3.41s1.55,0,1.55,0h4.82"/>
        <path class="cls-4" d="M78.27,82.41h-9.86c-.72,0-1.13.73-1.24.95-.37.76-.56,1.58-.56,2.43s.19,1.67.56,2.43c.11.22.52.95,1.24.95h9.86"/>
        <path class="cls-10" d="M78.27,81.99h4.82s1.55,0,1.55,0h3.41c.39,0,.72.15.99.36.32.25.54.59.66.82.2.4.36.83.47,1.27.1.43.16.88.16,1.35s-.05.91-.16,1.35c-.1.44-.26.87-.47,1.27-.11.23-.33.57-.66.82-.27.21-.6.36-.99.36h-3.41s-1.55,0-1.55,0h-4.82"/>
        <path class="cls-9" d="M78.27,82.41h9.86c.72,0,1.13.73,1.24.95.37.76.56,1.58.56,2.43s-.19,1.67-.56,2.43c-.11.22-.52.95-1.24.95h-3.29s-1.49,0-1.49,0h-5.07"/>
      </g>
      <g>
        <g>
          <path class="cls-24" d="M79.47,87.2v-1.9c0-.09.05-.19.16-.29.08-.08.17-.13.27-.16h0s-.49-.01-.49-.01l-.02-.3h.71c.23,0,.41,0,.52.03.55.11.83.51.83,1.21,0,.63-.2,1.05-.61,1.26-.11.06-.23.1-.37.12-.11.02-.26.03-.45.03h-.56ZM80.01,86.91h.07c.16,0,.27,0,.33-.03.31-.08.47-.44.47-1.06,0-.34-.04-.58-.13-.74-.07-.11-.16-.19-.27-.22-.08-.02-.19-.03-.34-.03h-.12v2.06Z"/>
          <path class="cls-24" d="M82.3,87.2v-1.87c0-.05.02-.11.07-.18.1-.14.22-.23.36-.26h0s-1.1-.01-1.1-.01l-.02-.33h1.93v.33h-.7v2.33h-.54Z"/>
        </g>
        <g>
          <path class="cls-24" d="M85.43,84.55h.33v2.65h-.5v-2.25l-.65.38-.13-.25.96-.54Z"/>
          <path class="cls-24" d="M86.55,84.55h1.47v.42h-1.17v.68c.13-.05.27-.07.42-.07.26,0,.48.07.65.21.18.14.27.34.27.58s-.08.42-.24.59c-.19.19-.46.29-.79.29-.27,0-.51-.06-.72-.17l.11-.33c.17.12.37.18.57.18.18,0,.32-.05.41-.15.08-.09.12-.21.12-.37,0-.21-.08-.35-.23-.44-.1-.06-.21-.08-.35-.08-.17,0-.35.05-.53.15v-1.47Z"/>
        </g>
      </g>
      <g>
        <g>
          <path class="cls-16" d="M71.01,84.63l-.1.33c-.19-.08-.35-.12-.47-.12-.23,0-.41.11-.53.32-.11.19-.16.43-.16.73s.05.54.16.73c.12.21.29.31.51.31.15,0,.32-.05.5-.16l.11.33c-.21.1-.44.15-.71.15-.45,0-.77-.17-.97-.52-.13-.23-.2-.51-.2-.83,0-.45.13-.8.38-1.05.22-.22.5-.33.85-.33.24,0,.45.04.63.12Z"/>
          <path class="cls-16" d="M73.09,84.63l-.1.33c-.19-.08-.35-.12-.47-.12-.23,0-.41.11-.53.32-.11.19-.16.43-.16.73s.05.54.16.73c.12.21.29.31.51.31.15,0,.32-.05.5-.16l.11.33c-.21.1-.44.15-.71.15-.45,0-.77-.17-.97-.52-.13-.23-.2-.51-.2-.83,0-.45.13-.8.38-1.05.22-.22.5-.33.85-.33.24,0,.45.04.63.12Z"/>
        </g>
        <path class="cls-16" d="M75.11,84.55h.32v1.59h.33v.31h-.33v.75h-.48v-.75h-1.1v-.27l1.26-1.64ZM74.95,85.2l-.72.94h.72v-.94Z"/>
      </g>
    </g>
  </g>
  <g class="cls-23">
    <polyline class="cls-3" points="68.74 81.21 57.04 72.51 45.33 81.21"/>
  </g>
  <g>
    <path class="cls-10" d="M38.55,61.52c.1-.44.26-.87.47-1.27.11-.23.33-.57.66-.82.27-.21.6-.36.99-.36h3.24s1.55,0,1.55,0h7.13s3.24,0,3.24,0h1.55s3.07,0,3.07,0h.35s6.96,0,6.96,0h1.55s3.41,0,3.41,0c.39,0,.72.15.99.36.33.25.54.59.66.82.2.4.36.83.47,1.27.1.43.16.88.16,1.35s-.05.91-.16,1.35c-.1.44-.26.87-.47,1.27-.11.23-.33.57-.66.82-.27.21-.6.36-.99.36h-3.41s-1.55,0-1.55,0h-6.96s-.22,0-.22,0h-3.2s-1.14,0-1.14,0h-3.64s-7.13,0-7.13,0h-1.55s-3.24,0-3.24,0c-.39,0-.72-.15-.99-.36-.33-.25-.54-.59-.66-.82-.2-.4-.36-.83-.47-1.27-.1-.43-.16-.88-.16-1.35,0-.46.05-.91.16-1.35Z"/>
    <path class="cls-6" d="M62.65,59.49h5.1s1.55,0,1.55,0h3.41c.75,0,1.17.73,1.28.95.38.76.58,1.58.58,2.43s-.19,1.67-.58,2.43c-.11.22-.54.95-1.28.95h-3.41s-1.55,0-1.55,0h-5.1v-6.76Z"/>
    <polygon class="cls-8" points="50.73 62.87 50.73 59.49 55.83 59.49 57.38 59.49 62.65 59.49 62.65 62.87 62.65 66.25 57.38 66.25 55.83 66.25 50.73 66.25 50.73 62.87"/>
    <g>
      <path class="cls-24" d="M66.04,64.24h-.34l-1.32-1.8v1.8h-.36v-2.66h.34l1.32,1.8v-1.51s.02-.09.07-.15c.09-.1.18-.15.29-.16v2.69Z"/>
      <path class="cls-24" d="M67.98,61.65l-.1.32c-.17-.08-.34-.12-.5-.12-.11,0-.2.02-.27.06-.09.05-.13.13-.13.23,0,.07.02.14.07.2s.14.13.27.22l.17.11c.18.12.31.23.4.33.14.16.2.33.2.54,0,.23-.07.4-.22.54-.16.14-.37.2-.66.2-.23,0-.47-.06-.7-.17l.12-.35c.18.13.38.2.57.2.14,0,.25-.04.32-.11.05-.05.07-.12.07-.2s-.03-.16-.08-.22c-.06-.07-.15-.14-.3-.24l-.17-.11c-.16-.11-.29-.21-.37-.31-.12-.15-.19-.31-.19-.5,0-.27.11-.47.32-.59.15-.08.33-.13.55-.13s.43.04.61.1Z"/>
      <path class="cls-24" d="M69.95,63.8h1.32v.44h-1.91v-.27c.27-.24.54-.49.79-.77.14-.16.25-.29.32-.4.11-.18.17-.34.17-.5,0-.17-.07-.3-.2-.37-.08-.05-.18-.07-.29-.07-.17,0-.35.05-.53.15l-.11-.34c.18-.08.42-.13.73-.13s.54.07.71.2c.16.12.23.29.23.49,0,.19-.07.37-.21.56-.17.22-.51.56-1.03,1.01Z"/>
      <path class="cls-24" d="M72.68,61.58h.32v1.6h.33v.32h-.33v.75h-.48v-.75h-1.1v-.27l1.26-1.64ZM72.52,62.22l-.72.95h.72v-.95Z"/>
    </g>
    <g>
      <path class="cls-24" d="M55.31,64.24h-.34l-1.32-1.8v1.8h-.36v-2.66h.34l1.32,1.8v-1.51s.02-.09.07-.15c.09-.1.18-.15.29-.16v2.68Z"/>
      <path class="cls-24" d="M55.87,64.24v-1.9c0-.09.05-.19.16-.29.08-.08.17-.13.27-.16h0s-.49-.01-.49-.01l-.02-.31h1.65v.33h-1.03v.8h.96v.31h-.96v.88h1.05v.33h-1.59Z"/>
      <path class="cls-24" d="M60.16,61.67l-.11.33c-.14-.1-.3-.16-.47-.16-.27,0-.45.16-.54.47-.04.14-.06.33-.06.58.06-.11.14-.19.23-.24.1-.06.21-.08.34-.08.21,0,.39.07.53.21.15.15.22.35.22.6,0,.27-.08.49-.25.65-.16.16-.38.25-.64.25-.35,0-.61-.14-.78-.43-.13-.23-.2-.53-.2-.89,0-.49.13-.87.38-1.12.2-.2.45-.3.75-.3.19,0,.39.04.59.13ZM59.39,62.87c-.15,0-.26.08-.32.23-.04.09-.06.2-.06.34s.02.25.06.35c.06.15.17.22.31.22.13,0,.23-.05.29-.17.06-.11.09-.25.09-.42,0-.22-.05-.37-.15-.46-.06-.06-.14-.09-.23-.09Z"/>
    </g>
    <path class="cls-4" d="M50.73,66.25h-5.27s-1.55,0-1.55,0h-3.23c-.75,0-1.17-.73-1.28-.95-.38-.76-.58-1.58-.58-2.43,0-.86.19-1.67.58-2.43.11-.22.54-.95,1.28-.95h3.23s1.55,0,1.55,0h5.27v3.38s0,3.38,0,3.38Z"/>
    <g>
      <path class="cls-17" d="M43.33,61.66l-.1.33c-.19-.08-.35-.12-.48-.12-.23,0-.41.11-.53.32-.11.19-.16.43-.16.73s.05.54.16.73c.12.21.29.31.51.31.15,0,.32-.05.5-.16l.11.33c-.21.1-.45.15-.71.15-.45,0-.77-.17-.97-.52-.13-.23-.2-.51-.2-.83,0-.45.13-.8.38-1.05.22-.22.5-.33.86-.33.24,0,.45.04.63.12Z"/>
      <path class="cls-17" d="M45.41,61.66l-.1.33c-.19-.08-.35-.12-.48-.12-.23,0-.41.11-.53.32-.11.19-.16.43-.16.73s.05.54.16.73c.12.21.29.31.51.31.15,0,.32-.05.5-.16l.11.33c-.21.1-.44.15-.71.15-.45,0-.77-.17-.97-.52-.13-.23-.2-.51-.2-.83,0-.45.13-.8.38-1.05.22-.22.5-.33.86-.33.24,0,.45.04.63.12Z"/>
      <path class="cls-17" d="M47.3,61.58h.33v2.66h-.5v-2.25l-.65.38-.13-.25.96-.54Z"/>
    </g>
  </g>
  <path class="cls-12" d="M75.68,87.17h-8.21c-6.45,0-11.69-5.25-11.69-11.69v-1.48h2.52v1.48c0,5.06,4.12,9.17,9.17,9.17h8.21v2.52Z"/>
</svg>