<svg width="160" height="160" xmlns="http://www.w3.org/2000/svg" xmlns:xlink="http://www.w3.org/1999/xlink" xml:space="preserve" overflow="hidden"><g transform="translate(-3151 -1243)"><path d="M78.3047-1.22297C67.5728-1.22297 57.1614 0.877875 47.3601 5.02662 37.892 9.02875 29.39 14.7618 22.0895 22.0614 14.7894 29.3614 9.05651 37.8643 5.05326 47.3321 0.908219 57.1346-1.19541 67.5445-1.19541 78.2771-1.19541 89.0097 0.908219 99.4196 5.05326 109.222 9.05651 118.69 14.7894 127.19 22.0895 134.493 29.39 141.793 37.892 147.526 47.3601 151.528 57.1614 155.674 67.5728 157.778 78.3047 157.778 89.0369 157.778 99.448 155.674 109.249 151.528 118.718 147.526 127.22 141.793 134.52 134.493 141.82 127.19 147.553 118.69 151.556 109.222 155.701 99.4196 157.805 89.0097 157.805 78.2771 157.805 67.5445 155.701 57.1346 151.556 47.3321 147.553 37.8643 141.82 29.3614 134.52 22.0614 127.22 14.7618 118.718 9.02875 109.249 5.02662 99.448 0.877875 89.0369-1.22297 78.3047-1.22297" fill="#2E2A26" fill-rule="evenodd" transform="matrix(1 0 0 -1 3153 1401)"/><path d="M17.2851 2.06833C15.5828 2.06833 13.6348 2.31795 11.6872 3.31717 9.73918 4.0664 8.0368 5.06883 6.57358 6.81728 5.11322 8.31895 3.89847 10.0674 3.1656 12.0687 2.4356 14.0671 1.95049 16.068 1.95049 17.8165 1.95049 19.5682 2.4356 21.5694 3.1656 23.5675 3.89847 25.5688 5.11322 27.3172 6.57358 29.0689 8.0368 30.5674 9.73918 31.5666 11.6872 32.5687 13.6348 33.3182 15.5828 33.5679 17.2851 33.5679 19.2331 33.5679 21.1811 33.3182 22.8835 32.5687 24.8314 31.5666 26.7791 30.5674 28.2394 29.0689 29.6994 27.3172 30.9174 25.5688 31.6474 23.5675 32.3774 21.5694 32.6198 19.5682 32.6198 17.8165 32.6198 16.068 32.3774 14.0671 31.6474 12.0687 30.9174 10.0674 29.6994 8.31895 28.2394 6.81728 26.7791 5.06883 24.8314 4.0664 22.8835 3.31717 21.1811 2.31795 19.2331 2.06833 17.2851 2.06833M17.2851 36.818C15.0951 36.818 12.9048 36.5684 10.4692 35.5692 8.27918 34.5671 6.08882 33.0683 4.14085 31.317 2.4356 29.3185 0.975245 27.3172 0.245245 24.8196-0.727131 22.5687-1.21475 20.0678-1.21475 17.8165-1.21475 15.5684-0.727131 13.0679 0.245245 10.8166 0.975245 8.56858 2.4356 6.31767 4.14085 4.31924 6.08882 2.56793 8.27918 1.06911 10.4692 0.0670423 12.9048-0.682191 15.0951-1.1818 17.2851-1.1818 19.4755-1.1818 21.9111-0.682191 24.1014 0.0670423 26.5338 1.06911 28.727 2.56793 30.4294 4.31924 32.3774 6.31767 33.5954 8.56858 34.5678 10.8166 35.543 13.0679 35.7854 15.5684 35.7854 17.8165 35.7854 20.0678 35.543 22.5687 34.5678 24.8196 33.5954 27.3172 32.3774 29.3185 30.4294 31.317 28.727 33.0683 26.5338 34.5671 24.1014 35.5692 21.9111 36.5684 19.4755 36.818 17.2851 36.818" fill="#FFFFFF" fill-rule="evenodd" transform="matrix(1 0 0 -1 3241 1362)"/><path d="M17.2321 33.5679C19.1674 33.5679 21.1027 33.3182 23.0348 32.5687 24.7293 31.5666 26.6643 30.5674 28.1151 29.0689 29.5656 27.3172 30.7757 25.5688 31.5009 23.5675 32.2262 21.5694 32.467 19.5682 32.467 17.8197 32.467 16.068 32.2262 14.0671 31.5009 12.0687 30.7757 10.0674 29.5656 8.31895 28.1151 6.81728 26.6643 5.06883 24.7293 4.06961 23.0348 3.31717 21.1027 2.31795 19.1674 2.06833 17.2321 2.06833 15.5408 2.06833 13.6055 2.31795 11.6706 3.31717 9.73528 4.06961 8.04363 5.06883 6.59028 6.81728 5.13943 8.31895 3.93258 10.0674 3.20449 12.0687 2.47924 14.0671 2.23808 16.068 2.23808 17.8197 2.23808 19.5682 2.47924 21.5694 3.20449 23.5675 3.93258 25.5688 5.13943 27.3172 6.59028 29.0689 8.04363 30.5674 9.73528 31.5666 11.6706 32.5687 13.6055 33.3182 15.5408 33.5679 17.2321 33.5679M17.2321-1.1818C19.4082-1.1818 21.828-0.682191 24.0037 0.0670423 26.4206 1.06911 28.5996 2.56793 30.2912 4.31924 32.2262 6.31767 33.4362 8.56858 34.4023 10.8166 35.3712 13.0679 35.8528 15.5684 35.8528 17.8197 35.8528 20.0678 35.3712 22.5687 34.4023 24.8196 33.4362 27.3172 32.2262 29.3185 30.2912 31.317 28.5996 33.0683 26.4206 34.5671 24.0037 35.5692 21.828 36.5684 19.4082 36.818 17.2321 36.818 15.0564 36.818 12.8803 36.5684 10.4605 35.5692 8.28479 34.5671 6.10869 33.0683 4.41418 31.317 2.47924 29.3185 1.02838 27.3172 0.303137 24.8196-0.662911 22.5687-1.14772 20.0678-1.14772 17.8197-1.14772 15.5684-0.662911 13.0679 0.303137 10.8166 1.02838 8.56858 2.47924 6.31767 4.41418 4.31924 6.10869 2.56793 8.28479 1.06911 10.4605 0.0670423 12.8803-0.682191 15.0564-1.1818 17.2321-1.1818" fill="#FFFFFF" fill-rule="evenodd" transform="matrix(1 0 0 -1 3187 1362)"/><path d="M8.95966-0.459569C12.358 1.25543 13.8138 5.4167 12.1163 9.08871 11.1434 10.5565 9.92928 11.7822 7.99004 12.5163 6.04759 13.0055 4.10514 12.7607 2.64929 12.027 1.19307 11.2902-0.262783 9.82241-0.749022 7.86575-1.47695 5.90595-1.23526 3.94615-0.262783 2.47839 1.43512-0.948821 5.56135-2.17492 8.95966-0.459569" fill="#FFFFFF" fill-rule="evenodd" transform="matrix(1 0 0 -1 3217 1295)"/><path d="M22.223 27.833 13.7827 31.6226C13.0378 31.8753 12.5405 32.3802 12.0461 33.1374 11.796 34.1501 11.796 34.9073 12.0461 35.6649L13.5355 40.4673C13.5355 40.7196 13.5355 40.7196 13.7827 40.9722 14.0299 41.2245 14.28 41.2245 14.28 41.4772L15.0245 41.4772 15.769 41.4772 34.8838 31.1177C36.126 30.3605 37.8622 30.8654 38.6067 32.3802 38.8572 32.8851 38.8572 33.6452 38.6067 34.4028 38.3595 35.16 37.8622 35.6649 37.3678 36.1698L11.2987 50.0663C9.80936 50.8264 8.32037 51.0791 6.58382 50.3186 5.83932 50.0663 5.09483 49.5614 4.59752 48.8038 4.10022 48.2993 3.60254 47.5417 3.35535 46.7816L-1.11199 32.6325C-1.36211 31.3703-1.11199 29.8556-0.367495 28.5905 0.377002 27.328 1.61917 26.3182 2.61086 26.0659L16.5139 20.0014C16.7607 20.0014 17.0112 19.7487 17.2583 19.4964 17.2583 19.2438 17.5055 18.9915 17.5055 18.736L17.5055 3.07245C17.5055 0.797575 19.2446-1.22213 21.4785-1.22213 22.4702-1.22213 23.7124-0.717205 24.4569 0.0403653 25.2014 1.04986 25.6987 2.0626 25.6987 3.07245L25.6987 22.7812C25.6987 25.0532 24.2097 27.0758 22.223 27.833" fill="#FFFFFF" fill-rule="evenodd" transform="matrix(1 0 0 -1 3210 1349)"/></g></svg>