<svg width="251" height="251" xmlns="http://www.w3.org/2000/svg" xmlns:xlink="http://www.w3.org/1999/xlink" xml:space="preserve" overflow="hidden"><g transform="translate(-489 -1779)"><path d="M232.721 249.505 16.5816 249.505C7.23035 249.505-0.349029 241.926-0.349029 232.577L-0.349029 16.4319C-0.349029 7.08312 7.23035-0.495934 16.5816-0.495934L232.721-0.495934C242.07-0.495934 249.652 7.08312 249.652 16.4319L249.652 232.577C249.652 241.926 242.07 249.505 232.721 249.505" fill="#139F58" fill-rule="evenodd" transform="matrix(1 0 0 -1 490 2029)"/><path d="M-0.35068-0.485061 204.65-0.485061 204.65 234.515-0.35068 234.515Z" fill="#FFFFFF" fill-rule="evenodd" transform="matrix(1 0 0 -1 513 2028)"/><path d="M122.828 21.107C127.026 25.0046 132.726 27.4033 138.731 27.4033L155.523 27.4033 127.328-0.488592 101.233-0.488592ZM147.129 194.807C147.129 185.506 139.623 178.007 130.331 178.007 121.03 178.007 113.228 185.506 113.228 194.807 113.228 204.107 121.03 211.91 130.331 211.91 139.623 211.91 147.129 204.107 147.129 194.807M43.039 56.8027 43.039 27.4033 15.1498-0.488592-0.34883-0.488592-0.34883 239.512 216.651 239.512 216.651-0.488592 145.021-0.488592 173.224 27.4033 173.224 126.405 155.523 126.405C150.125 126.405 145.021 129.106 142.024 133.012L130.029 147.707 117.43 116.208 157.922 32.5031 142.024 32.5031C137.224 32.5031 133.019 35.2071 131.228 39.1072L98.2334 107.51 94.0316 68.8058C93.7382 64.3069 89.8327 61.0078 85.3375 61.0078L24.1478 61.0078 28.0418 71.2074C30.1449 76.0112 34.6447 79.6034 40.3416 79.6034L76.0342 79.6034 80.2328 123.707 94.0316 158.206 76.0342 158.206 64.939 136.903C63.4375 134.211 61.0367 132.704 57.7406 132.704 53.5417 132.704 49.9418 136.308 49.9418 140.508 49.9418 142.009 50.2352 143.209 50.8389 144.106L63.1387 167.508C66.1359 173.212 71.8332 176.807 78.4357 176.807L120.133 176.807C126.73 176.807 132.726 173.801 136.626 169.309L156.124 145.009 173.224 145.009 173.224 220.908 43.039 220.908 43.039 83.8031 40.3416 83.8031C32.8419 83.8031 26.8427 79.3042 24.1478 72.7059L18.1496 56.8027" fill="#139F58" fill-rule="evenodd" transform="matrix(1 0 0 -1 507 2028)"/></g></svg>