<svg width="734" height="335" xmlns="http://www.w3.org/2000/svg" xmlns:xlink="http://www.w3.org/1999/xlink" xml:space="preserve" overflow="hidden"><g transform="translate(-2111 -715)"><path d="M731.028 299.543 731.028 32.3461C731.028 13.8992 716.022-1.05546 697.525-1.05546L31.5254-1.05546C13.0226-1.05546-1.9728 13.8992-1.9728 32.3461L-1.9728 299.543C-1.9728 317.991 13.0226 332.945 31.5254 332.945L697.525 332.945C716.022 332.945 731.028 317.991 731.028 299.543" fill="#FDD209" fill-rule="evenodd" transform="matrix(1 0 0 -1 2113 1048)"/><path d="M634.925 261.947 16.1172 261.947C6.16304 261.947-1.96974 253.794-1.96974 243.826L-1.96974 36.5833-1.96974 33.6719-1.96974 16.1654-1.96974-1.05324C5.38882 1.25287 19.8324 8.06849 19.8324 16.1654L19.8324 36.5833 19.8324 209.719C19.8324 212.602 22.2675 215.056 25.161 215.056L626.118 215.056C629.011 215.056 631.446 212.602 631.446 209.719L631.446 36.5833 631.446 16.1654C631.446 8.06849 645.682 1.25287 653.031-1.05324L653.031 16.1654 653.031 33.6719 653.031 36.5833 653.031 243.826C653.031 253.794 644.88 261.947 634.925 261.947" fill="#2E2A26" fill-rule="evenodd" transform="matrix(1 0 0 -1 2152 1016)"/></g></svg>