<svg width="354" height="354" xmlns="http://www.w3.org/2000/svg" xmlns:xlink="http://www.w3.org/1999/xlink" xml:space="preserve" overflow="hidden"><g transform="translate(-292 -125)"><path d="M345.504 312.212 345.504 29.798C345.504 10.3195 329.699-5.48519 310.198-5.48519L27.8063-5.48519C8.30824-5.48519-7.49886 10.3195-7.49886 29.798L-7.49886 312.212C-7.49886 331.691 8.30824 347.515 27.8063 347.515L310.198 347.515C329.699 347.515 345.504 331.691 345.504 312.212" fill="#FFD100" fill-rule="evenodd" transform="matrix(1 0 0 -1 300 473)"/><path d="M242.897 277.538 12.0423 277.538C1.27969 277.538-7.51207 268.763-7.51207 258.028L-7.51207 35.0257-7.51207 31.8957-7.51207 13.0574-7.51207-5.46472C0.444472-2.9865 16.0596 4.34113 16.0596 13.0574L16.0596 35.0257 16.0596 221.342C16.0596 224.433 18.7045 227.086 21.828 227.086L233.37 227.086C236.493 227.086 239.138 224.433 239.138 221.342L239.138 35.0257 239.138 13.0574C239.138 4.34113 254.514-2.9865 262.49-5.46472L262.49 13.0574 262.49 31.8957 262.49 35.0257 262.49 258.028C262.49 268.763 253.657 277.538 242.897 277.538" fill="#2E2926" fill-rule="evenodd" transform="matrix(1 0 0 -1 342 445)"/><path d="M-3.10689-5.44117-3.10689 17.0744 21.366 17.0744 21.366 108.728-6.27953 95.7812-7.48966 118.697 48.04 145.561 48.04 17.0744 72.5104 17.0744 72.5104-5.44117" fill="#2E2926" fill-rule="evenodd" transform="matrix(1 0 0 -1 437 405)"/></g></svg>