<svg width="861" height="459" xmlns="http://www.w3.org/2000/svg" xmlns:xlink="http://www.w3.org/1999/xlink" xml:space="preserve" overflow="hidden"><g transform="translate(-880 -693)"><path d="M857.714 408.039 857.714 41.6419C857.714 16.3465 837.232-4.15943 811.967-4.15943L43.4599-4.15943C18.1949-4.15943-2.28724 16.3465-2.28724 41.6419L-2.28724 408.039C-2.28724 433.334 18.1949 453.841 43.4599 453.841L811.967 453.841C837.232 453.841 857.714 433.334 857.714 408.039" fill="#FDD209" fill-rule="evenodd" transform="matrix(1 0 0 -1 883 1147)"/><path d="M321.615 363.854 23.2273 363.854C9.30801 363.854-2.0629 352.444-2.0629 338.499L-2.0629 48.5154-2.0629 44.4384-2.0629 19.9491-2.0629-4.14674C8.22469-0.921851 28.4198 8.61478 28.4198 19.9491L28.4198 48.5154 28.4198 290.773C28.4198 294.812 31.8321 298.237 35.8755 298.237L309.296 298.237C313.347 298.237 316.752 294.812 316.752 290.773L316.752 48.5154 316.752 19.9491C316.752 8.61478 336.65-0.921851 346.938-4.14674L346.938 19.9491 346.938 44.4384 346.938 48.5154 346.938 338.499C346.938 352.444 335.534 363.854 321.615 363.854" fill="#2E2A26" fill-rule="evenodd" transform="matrix(1 0 0 -1 937 1111)"/><path d="M321.17 363.854 22.7881 363.854C8.86912 363.854-2.5079 352.444-2.5079 338.499L-2.5079 48.5154-2.5079 44.4384-2.5079 19.9491-2.5079-4.14674C7.78582-0.921851 27.9805 8.61478 27.9805 19.9491L27.9805 48.5154 27.9805 290.773C27.9805 294.812 31.3856 298.237 35.4298 298.237L308.844 298.237C312.901 298.237 316.307 294.812 316.307 290.773L316.307 48.5154 316.307 19.9491C316.307 8.61478 336.198-0.921851 346.492-4.14674L346.492 19.9491 346.492 44.4384 346.492 48.5154 346.492 338.499C346.492 352.444 335.083 363.854 321.17 363.854" fill="#2E2A26" fill-rule="evenodd" transform="matrix(1 0 0 -1 1340 1111)"/></g></svg>