<svg width="739" height="393" xmlns="http://www.w3.org/2000/svg" xmlns:xlink="http://www.w3.org/1999/xlink" xml:space="preserve" overflow="hidden"><g transform="translate(-1121 -91)"><path d="M737.142 351.545 737.142 37.9772C737.142 16.3151 719.56-1.23605 697.868-1.23605L38.4158-1.23605C16.7231-1.23605-0.857613 16.3151-0.857613 37.9772L-0.857613 351.545C-0.857613 373.202 16.7231 390.764 38.4158 390.764L697.868 390.764C719.56 390.764 737.142 373.202 737.142 351.545" fill="#FDD209" fill-rule="evenodd" transform="matrix(1 0 0 -1 1122 482)"/><path d="M4.20166-1.18915 4.20166 23.8558 31.4333 23.8558 31.4333 125.808 0.659164 111.402-0.668678 136.89 61.1004 166.811 61.1004 23.8558 88.3314 23.8558 88.3314-1.18915" fill="#2E2A26" fill-rule="evenodd" transform="matrix(1 0 0 -1 1276 406)"/><path d="M-0.795098-1.1332 105.205-1.1332 105.205 19.8668-0.795098 19.8668Z" fill="#2E2A26" fill-rule="evenodd" transform="matrix(1 0 0 -1 1384 345)"/><path d="M3.94479-1.18915 3.94479 23.8558 31.1764 23.8558 31.1764 125.808 0.402973 111.402-0.925548 136.89 60.8435 166.811 60.8435 23.8558 88.0752 23.8558 88.0752-1.18915" fill="#2E2A26" fill-rule="evenodd" transform="matrix(1 0 0 -1 1508 406)"/><path d="M53.2335-1.18957C35.6538-1.18957 22.2174 6.17704 12.9121 20.9218 3.60747 35.6605-1.04518 56.7331-1.04518 84.1437-1.04518 111.399 3.60747 132.327 12.9121 146.922 22.2174 161.511 35.7313 168.811 53.4551 168.811 71.179 168.811 84.6929 161.511 93.9982 146.922 103.303 132.327 107.955 111.399 107.955 84.1437 107.955 57.0332 103.264 36.0329 93.8874 21.1435 84.5045 6.2548 70.9573-1.18957 53.2335-1.18957M53.4551 23.477C60.838 23.477 66.5264 28.6602 70.514 39.0328 74.5022 49.3992 76.496 64.4387 76.496 84.1437 76.496 103.7 74.5349 118.622 70.6248 128.922 66.7093 139.217 60.9877 144.366 53.4551 144.366 46.0668 144.366 40.3839 139.144 36.3963 128.7 32.4081 118.255 30.4143 103.4 30.4143 84.1437 30.4143 64.1441 32.3693 49.033 36.2855 38.8104 40.1956 28.5879 45.9226 23.477 53.4551 23.477" fill="#2E2A26" fill-rule="evenodd" transform="matrix(1 0 0 -1 1606 409)"/><path d="M629.194 317.775 21.0689 317.775C9.00381 317.775-0.854466 307.882-0.854466 295.795L-0.854466 44.4294-0.854466 40.8878-0.854466 19.6621-0.854466-1.22544C8.06444 1.56769 25.5728 9.8416 25.5728 19.6621L25.5728 44.4294 25.5728 254.425C25.5728 257.927 28.5268 260.898 32.0343 260.898L618.518 260.898C622.025 260.898 624.979 257.927 624.979 254.425L624.979 44.4294 624.979 19.6621C624.979 9.8416 642.229 1.56769 651.146-1.22544L651.146 19.6621 651.146 40.8878 651.146 44.4294 651.146 295.795C651.146 307.882 641.26 317.775 629.194 317.775" fill="#2E2A26" fill-rule="evenodd" transform="matrix(1 0 0 -1 1163 455)"/></g></svg>