<svg width="733" height="336" xmlns="http://www.w3.org/2000/svg" xmlns:xlink="http://www.w3.org/1999/xlink" xml:space="preserve" overflow="hidden"><g transform="translate(-3590 -612)"><path d="M730.031 300.44 730.031 32.4429C730.031 13.9408 715.046-1.05862 696.573-1.05862L31.4824-1.05862C13.0048-1.05862-1.97011 13.9408-1.97011 32.4429L-1.97011 300.44C-1.97011 318.943 13.0048 333.942 31.4824 333.942L696.573 333.942C715.046 333.942 730.031 318.943 730.031 300.44" fill="#FDD209" fill-rule="evenodd" transform="matrix(1 0 0 -1 3592 946)"/><path d="M635.894 261.947 16.1418 261.947C6.17245 261.947-1.97275 253.794-1.97275 243.826L-1.97275 36.5833-1.97275 33.6719-1.97275 16.1654-1.97275-1.05324C5.39705 1.25287 19.8627 8.06849 19.8627 16.1654L19.8627 36.5833 19.8627 209.719C19.8627 212.602 22.3015 215.056 25.1994 215.056L627.073 215.056C629.971 215.056 632.41 212.602 632.41 209.719L632.41 36.5833 632.41 16.1654C632.41 8.06849 646.668 1.25287 654.028-1.05324L654.028 16.1654 654.028 33.6719 654.028 36.5833 654.028 243.826C654.028 253.794 645.864 261.947 635.894 261.947" fill="#2E2A26" fill-rule="evenodd" transform="matrix(1 0 0 -1 3630 913)"/></g></svg>