<svg width="355" height="354" xmlns="http://www.w3.org/2000/svg" xmlns:xlink="http://www.w3.org/1999/xlink" xml:space="preserve" overflow="hidden"><g transform="translate(-701 -119)"><path d="M348.497 313.675 348.497 31.2802C348.497 11.7822 332.645-4.02491 313.092-4.02491L29.8971-4.02491C10.3438-4.02491-5.50562 11.7822-5.50562 31.2802L-5.50562 313.675C-5.50562 333.173 10.3438 348.977 29.8971 348.977L313.092 348.977C332.645 348.977 348.497 333.173 348.497 313.675" fill="#FFD100" fill-rule="evenodd" transform="matrix(1 0 0 -1 707 468)"/><path d="M244.927 279.98 14.0336 279.98C3.27273 279.98-5.50013 271.175-5.50013 260.402L-5.50013 36.6111-5.50013 33.4725-5.50013 14.5678-5.50013-4.01963C2.45699-1.53512 18.0537 5.82077 18.0537 14.5678L18.0537 36.6111 18.0537 223.586C18.0537 226.688 20.7183 229.351 23.842 229.351L235.38 229.351C238.501 229.351 241.168 226.688 241.168 223.586L241.168 36.6111 241.168 14.5678C241.168 5.82077 256.565-1.53512 264.502-4.01963L264.502 14.5678 264.502 33.4725 264.502 36.6111 264.502 260.402C264.502 271.175 255.71 279.98 244.927 279.98" fill="#2E2926" fill-rule="evenodd" transform="matrix(1 0 0 -1 749 441)"/><path d="M-1.04699-3.97792-1.04699 18.5539 23.4258 18.5539 23.4258 110.175-4.23909 97.23-5.42974 120.162 50.0997 147.022 50.0997 18.5539 74.5724 18.5539 74.5724-3.97792" fill="#2E2926" fill-rule="evenodd" transform="matrix(1 0 0 -1 795 400)"/><path d="M43.269-3.96724C31.8559-3.96724 22.5265-0.658777 15.2614 5.97275 8.03526 12.5873 2.75397 21.6351-0.58004 33.0993-3.87506 44.5416-5.54206 57.6296-5.54206 72.322-5.54206 87.17-3.83606 100.277-0.441123 111.664 2.93432 123.067 8.2546 131.957 15.4783 138.392 22.7044 144.807 32.0338 148.035 43.4689 148.035 55.0014 148.035 64.3893 144.807 71.557 138.392 78.7222 131.957 84.001 123.067 87.396 111.664 90.7714 100.277 92.4579 87.17 92.4579 72.322 92.4579 57.6296 90.7714 44.5027 87.396 32.9802 84.001 21.4771 78.6832 12.4268 71.457 5.87308 64.2114-0.700102 54.8211-3.96724 43.269-3.96724M43.4689 18.0908C49.7202 18.0908 54.7236 22.4859 58.5158 31.298 62.2666 40.1076 64.1724 53.7887 64.1724 72.322 64.1724 90.7361 62.3251 104.318 58.6133 113.049 54.882 121.801 49.8201 126.176 43.4689 126.176 37.3541 126.176 32.3726 121.801 28.5195 113.049 24.6688 104.318 22.7434 90.7361 22.7434 72.322 22.7434 53.7887 24.5518 40.1076 28.2441 31.298 31.8754 22.4859 36.9568 18.0908 43.4689 18.0908" fill="#2E2926" fill-rule="evenodd" transform="matrix(1 0 0 -1 884 402)"/></g></svg>