<svg width="474" height="474" xmlns="http://www.w3.org/2000/svg" xmlns:xlink="http://www.w3.org/1999/xlink" xml:space="preserve" overflow="hidden"><g transform="translate(-279 -704)"><path d="M472.186 421.404 472.186 43.0081C472.186 16.8843 451.008-4.29401 424.89-4.29401L46.4846-4.29401C20.3656-4.29401-0.813737 16.8843-0.813737 43.0081L-0.813737 421.404C-0.813737 447.528 20.3656 468.706 46.4846 468.706L424.89 468.706C451.008 468.706 472.186 447.528 472.186 421.404" fill="#FDD209" fill-rule="evenodd" transform="matrix(1 0 0 -1 280 1173)"/><path d="M333.994 375.721 25.3449 375.721C10.9486 375.721-0.813403 363.938-0.813403 349.539L-0.813403 50.0999-0.813403 45.8892-0.813403 20.6013-0.813403-4.2795C9.82801-0.950273 30.716 8.89816 30.716 20.6013L30.716 50.0999 30.716 300.258C30.716 304.427 34.2448 307.97 38.4306 307.97L321.251 307.97C325.441 307.97 328.964 304.427 328.964 300.258L328.964 50.0999 328.964 20.6013C328.964 8.89816 349.553-0.950273 360.188-4.2795L360.188 20.6013 360.188 45.8892 360.188 50.0999 360.188 349.539C360.188 363.938 348.392 375.721 333.994 375.721" fill="#2E2A26" fill-rule="evenodd" transform="matrix(1 0 0 -1 336 1136)"/></g></svg>