<svg width="291" height="250" xmlns="http://www.w3.org/2000/svg" xmlns:xlink="http://www.w3.org/1999/xlink" xml:space="preserve" overflow="hidden"><g transform="translate(-3104 -248)"><path d="M268.363 246.683 19.7914 246.683C8.35106 246.683-0.922976 237.393-0.922976 225.93L-0.922976 18.4297C-0.922976 6.96924 8.35106-2.31719 19.7914-2.31719L268.363-2.31719C279.803-2.31719 289.077 6.96924 289.077 18.4297L289.077 225.93C289.077 237.393 279.803 246.683 268.363 246.683" fill="#2E2A26" fill-rule="evenodd" transform="matrix(1 0 0 -1 3105 495)"/><path d="M12.0342-2.43194C19.2147-2.43194 25.0372 3.38924 25.0372 10.5625 25.0372 17.7412 19.2147 23.5686 12.0342 23.5686 4.85359 23.5686-0.962617 17.7412-0.962617 10.5625-0.962617 3.38924 4.85359-2.43194 12.0342-2.43194" fill="#FFFFFF" fill-rule="evenodd" transform="matrix(1 0 0 -1 3261 320)"/><path d="M12.6059-2.34908C20.0608-2.34908 26.1046 3.47076 26.1046 10.6522 26.1046 17.8312 20.0608 23.6507 12.6059 23.6507 5.15072 23.6507-0.895968 17.8312-0.895968 10.6522-0.895968 3.47076 5.15072-2.34908 12.6059-2.34908" fill="#FFFFFF" fill-rule="evenodd" transform="matrix(1 0 0 -1 3201 314)"/><path d="M6.1844-2.26761C10.0465-2.26761 13.1841 0.864391 13.1841 4.73261 13.1841 8.59518 10.0465 11.7325 6.1844 11.7325 2.31628 11.7325-0.815642 8.59518-0.815642 4.73261-0.815642 0.864391 2.31628-2.26761 6.1844-2.26761" fill="#FFFFFF" fill-rule="evenodd" transform="matrix(1 0 0 -1 3160 379)"/><path d="M6.4369-2.26807C10.5809-2.26807 13.9387 0.867391 13.9387 4.72756 13.9387 8.59409 10.5809 11.732 6.4369 11.732 2.29289 11.732-1.06146 8.59409-1.06146 4.72756-1.06146 0.867391 2.29289-2.26807 6.4369-2.26807" fill="#FFFFFF" fill-rule="evenodd" transform="matrix(1 0 0 -1 3321 379)"/><path d="M198.956 41.6879 192.302 63.5204C191.681 65.574 190.399 67.3192 188.764 68.5541 187.109 69.8067 185.21 70.4254 183.154 70.4254L177.741 70.4254C172.654 70.4254 168.643 72.5316 168.643 72.5316L168.667 72.5139 161.731 76.5122 149.66 116.042C148.543 119.732 146.235 122.862 143.3 125.082 140.325 127.341 136.702 128.652 133.009 128.652L113.949 128.652C110.256 128.652 106.634 127.341 103.658 125.082 100.723 122.862 98.4154 119.732 97.2981 116.042L95.9569 111.662 95.9569 115.253C95.9569 120.353 93.9017 124.974 90.5703 128.312 87.2447 131.641 82.6461 133.706 77.5386 133.706L50.1312 133.706C45.024 133.706 40.4222 131.641 37.0966 128.312 33.7652 124.974 31.7099 120.353 31.7099 115.253L31.7099 83.9686 31.7099 79.6127 31.7099 75.726 26.9876 73.0069 27.023 73.0656C27.023 73.0656 22.4154 70.4402 15.8201 70.4402L8.85122 70.4402C6.14329 70.4402 3.70251 69.3461 1.93573 67.5746 0.165342 65.8055-0.925627 63.3533-0.925627 60.6458L-0.925627 39.7489C-0.925627 37.7922-0.134656 36.5544 0.876891 36.0207 1.26822 35.8064 1.69133 35.7009 2.11768 35.7067 2.54114 35.7067 2.96749 35.8122 3.35883 36.0207 4.38482 36.5663 5.18445 37.8131 5.18445 39.7489L5.18445 59.493C5.18445 59.766 5.29925 60.0065 5.47578 60.1794 5.65809 60.3526 5.9108 60.4553 6.18444 60.4553 6.46387 60.4553 6.71657 60.3526 6.89888 60.1794 7.0783 60.0065 7.18408 59.766 7.18408 59.493L7.18408 1.76542C7.18408 0.665183 7.63678-0.332051 8.36025-1.05342 9.08046-1.77802 10.0862-2.22388 11.192-2.22388 12.2945-2.22388 13.2942-1.77802 14.0205-1.05342 14.744-0.332051 15.1909 0.665183 15.1909 1.76542L15.1909 34.9997C15.1909 35.2727 15.3024 35.528 15.4848 35.7067 15.6642 35.8856 15.9169 35.9944 16.1905 35.9944 16.47 35.9944 16.7169 35.8856 16.8992 35.7009 17.0757 35.528 17.1902 35.2727 17.1902 34.9997L17.1902 1.76542C17.1902 0.665183 17.64-0.332051 18.3606-1.05342 19.0869-1.77802 20.0865-2.22388 21.1919-2.22388 22.2948-2.22388 23.2974-1.77802 24.0237-1.05342 24.7439-0.332051 25.197 0.665183 25.197 1.76542L25.197 63.506 39.8222 71.9334C41.951 72.8132 43.4507 74.902 43.4507 77.3423L43.4507 78.5333C43.4626 78.7854 43.4684 79.035 43.4684 79.2871L43.4684 110.339C43.4684 110.806 43.6536 111.225 43.9622 111.533 44.2651 111.835 44.6915 112.029 45.1561 112.029 45.6236 112.029 46.0471 111.835 46.3557 111.533 46.6586 111.225 46.8528 110.806 46.8528 110.339L46.8528 5.32938C46.8528 3.22039 47.7084 1.31344 49.0875-0.0590633 50.4752-1.44093 52.3835-2.29447 54.4976-2.29447 56.6058-2.29447 58.5174-1.44093 59.9022-0.0590633 61.2899 1.31344 62.1398 3.22039 62.1398 5.32938L62.1398 67.366C62.1398 67.8385 62.3311 68.2606 62.6398 68.5657 62.9426 68.8739 63.369 69.0587 63.8394 69.0587 64.3011 69.0587 64.7242 68.8739 65.0271 68.5657 65.3361 68.2549 65.53 67.8385 65.53 67.366L65.53 5.32938C65.53 3.22615 66.3798 1.31956 67.7646-0.0590633 69.1466-1.44093 71.061-2.29447 73.1693-2.29447 75.2776-2.29447 77.1946-1.44093 78.5794-0.0590633 79.9613 1.31344 80.8169 3.22039 80.8169 5.32938L80.8169 110.339C80.8169 110.806 81.0082 111.225 81.3111 111.533 81.6198 111.835 82.0462 112.029 82.5108 112.029 82.9783 112.029 83.4017 111.835 83.7046 111.533 84.0075 111.225 84.2014 110.806 84.2014 110.339L84.2014 76.2396C84.2014 74.1922 84.6718 72.5521 85.4306 71.3143 85.61 70.9476 85.8422 70.625 86.1274 70.3729L86.1274 70.3671C86.6068 69.842 87.136 69.4224 87.7064 69.1203 88.462 68.7213 89.2912 68.5188 90.1115 68.5131 90.7057 68.5131 91.3053 68.6157 91.8757 68.8268 94.084 69.3666 95.8717 72.5463 97.1775 76.8201L107.351 110.248 107.357 110.254C107.484 110.68 107.775 111.02 108.142 111.208 108.51 111.407 108.951 111.466 109.377 111.334L109.389 111.334 109.395 111.334C109.818 111.199 110.156 110.905 110.35 110.542 110.547 110.175 110.6 109.732 110.471 109.313L110.471 109.307 92.8963 51.5788C92.8725 51.5144 92.8609 51.447 92.849 51.3797 92.8374 51.3091 92.8317 51.2389 92.8317 51.1683 92.8317 50.793 92.9873 50.4527 93.2342 50.2002 93.4844 49.9539 93.8284 49.7983 94.2046 49.7983L109.254 49.7983 109.254 3.9947C109.254 2.25521 109.959 0.679948 111.1-0.452339 112.238-1.58751 113.814-2.29447 115.555-2.29447 117.298-2.29447 118.869-1.58751 120.012-0.452339 121.153 0.679948 121.859 2.25521 121.859 3.9947L121.859 49.7983 125.102 49.7983 125.102 3.9947C125.102 2.25521 125.805 0.685711 126.949-0.452339 128.09-1.58751 129.663-2.29447 131.403-2.29447 133.144-2.29447 134.717-1.58751 135.858-0.458101 136.999 0.679948 137.705 2.25521 137.705 3.9947L137.705 49.7983 152.753 49.7983C153.133 49.7983 153.477 49.9539 153.727 50.2063 153.971 50.4527 154.127 50.793 154.127 51.1683 154.127 51.2389 154.121 51.3091 154.112 51.3797 154.1 51.4413 154.083 51.5144 154.065 51.5788L136.487 109.301 136.487 109.307C136.352 109.732 136.411 110.175 136.611 110.542 136.802 110.905 137.14 111.199 137.564 111.334L137.569 111.334 137.575 111.334C138.008 111.466 138.448 111.407 138.816 111.208 139.184 111.02 139.475 110.68 139.604 110.254L139.61 110.248C139.61 110.248 148.816 80.1086 148.875 79.9354 149.269 78.6417 150.389 74.9341 152.318 73.5054L152.304 73.4733 171.078 62.6611C171.081 62.6406 171.084 62.6258 171.087 62.6201 171.196 62.4206 171.225 62.1742 171.154 61.9394L160.731 27.6665C160.719 27.6344 160.71 27.5991 160.704 27.561 160.698 27.5199 160.696 27.4788 160.696 27.4407 160.696 27.2325 160.784 27.0388 160.919 26.9008 161.057 26.7661 161.248 26.6811 161.46 26.6811L169.828 26.6811 169.828 1.20215C169.828 0.239855 170.222-0.639973 170.857-1.27058 171.486-1.90443 172.366-2.29447 173.333-2.29447 174.303-2.29447 175.177-1.90443 175.812-1.27058 176.447-0.639973 176.838 0.239855 176.838 1.20215L176.838 26.6811 178.643 26.6811 178.643 1.20215C178.643 0.239855 179.034-0.63421 179.67-1.27058 180.305-1.90443 181.178-2.29447 182.149-2.29447 183.116-2.29447 183.992-1.90443 184.627-1.27346 185.259-0.639973 185.653 0.239855 185.653 1.20215L185.653 26.6811 194.022 26.6811C194.233 26.6811 194.425 26.7661 194.563 26.9069 194.698 27.0388 194.786 27.2325 194.786 27.4407 194.786 27.4788 194.783 27.5199 194.777 27.561 194.772 27.593 194.76 27.6344 194.751 27.6665L184.977 59.7688 184.977 59.7746C184.901 60.0123 184.933 60.2586 185.045 60.461 185.151 60.6663 185.339 60.8277 185.574 60.9011L185.577 60.9011 185.58 60.9011C185.821 60.9746 186.068 60.9422 186.271 60.8338 186.474 60.7279 186.638 60.5403 186.709 60.3054L186.712 60.2997 192.369 41.7084C193.002 39.356 194.239 38.2266 195.48 37.9392 195.939 37.8333 196.4 37.8423 196.83 37.9478 197.262 38.0595 197.662 38.2557 198.003 38.5403 198.841 39.2209 199.308 40.3737 198.956 41.6879" fill="#FFFFFF" fill-rule="evenodd" transform="matrix(1 0 0 -1 3150 454)"/></g></svg>