<svg width="246" height="579" xmlns="http://www.w3.org/2000/svg" xmlns:xlink="http://www.w3.org/1999/xlink" xml:space="preserve" overflow="hidden"><g transform="translate(-714 -1743)"><path d="M45.0361-2.26774C32.7481-2.26774 21.1968 2.51714 12.5075 11.2093 3.82113 19.8986-0.963752 31.447-0.963752 43.7321-0.963752 56.0205 3.82113 67.5719 12.5104 76.2611 21.1968 84.9475 32.7481 89.7324 45.0361 89.7324 57.3245 89.7324 68.8758 84.9475 77.5622 76.2611 86.2483 67.5719 91.0364 56.0205 91.0364 43.7321 91.0364 31.447 86.2483 19.8986 77.5622 11.2093 68.8758 2.51714 57.3245-2.26774 45.0361-2.26774M45.0361 70.1315C30.4789 70.1315 18.6367 58.2897 18.6367 43.7321 18.6367 29.1746 30.4789 17.3328 45.0361 17.3328 59.5937 17.3328 71.4355 29.1746 71.4355 43.7321 71.4355 58.2897 59.5937 70.1315 45.0361 70.1315" fill="#6E6E70" fill-rule="evenodd" transform="matrix(1 0 0 -1 792 1833)"/><path d="M242.787 292.462 204.329 419.533C202.119 426.844 198.73 433.743 194.252 440.041 189.935 446.113 184.72 451.476 178.748 455.982 166.651 465.106 152.063 470.127 137.663 470.127L131.236 470.127 111.839 470.127 105.412 470.127C91.0116 470.127 76.4205 465.106 64.3269 455.982 58.3549 451.476 53.1374 446.113 48.8235 440.041 44.3453 433.743 40.9498 426.844 38.7458 419.536L0.296529 292.491 0.284639 292.462C-1.95716 284.954-1.16197 277.013 2.53256 270.102 6.22746 263.192 12.3843 258.135 19.8674 255.854 22.1889 255.151 24.551 254.739 26.9106 254.615 28.3954 254.536 29.4107 253.079 28.9795 251.654L12.4164 196.963C11.9909 195.571 11.7768 194.126 11.7768 192.669 11.7768 184.581 18.3268 178.005 26.3763 178.005L65.8823 178.005C67.1474 178.005 68.1742 176.976 68.1742 175.704L68.1742 29.7608C68.1742 12.3195 82.3193-1.87292 99.7097-1.87292 107.246-1.87292 114.383 0.767165 120.064 5.59998 120.912 6.32125 122.163 6.32125 123.011 5.59998 128.692 0.767165 135.826-1.87292 143.365-1.87292 160.756-1.87292 174.901 12.3195 174.901 29.7608L174.901 175.704C174.901 176.976 175.928 178.005 177.19 178.005L216.698 178.005C224.748 178.005 231.298 184.581 231.298 192.669 231.298 194.126 231.084 195.571 230.659 196.963L214.093 251.654C213.664 253.079 214.68 254.536 216.161 254.615 218.521 254.739 220.886 255.151 223.205 255.854 230.688 258.135 236.845 263.192 240.539 270.102 244.234 277.013 245.032 284.954 242.787 292.462M217.573 274.47C212.37 272.889 206.838 275.821 205.204 281.013L170.974 394.06C170.605 395.269 169.328 395.958 168.116 395.59L153.942 391.269C152.73 390.901 152.046 389.618 152.415 388.405L186.642 275.374C186.651 275.347 186.66 275.315 186.669 275.285L209.341 200.421C209.787 198.947 208.687 197.457 207.149 197.457L157.795 197.457C156.533 197.457 155.506 196.427 155.506 195.156L155.506 29.7608C155.506 23.0446 150.059 17.579 143.365 17.579 136.677 17.579 131.236 23.0446 131.236 29.7608L131.236 195.697C131.236 196.963 130.209 197.993 128.941 197.993L114.13 197.993C112.866 197.993 111.839 196.963 111.839 195.697L111.839 29.7608C111.839 23.0446 106.398 17.579 99.7097 17.579 93.0131 17.579 87.5693 23.0446 87.5693 29.7608L87.5693 195.156C87.5693 196.427 86.5421 197.457 85.2774 197.457L35.9257 197.457C34.388 197.457 33.2876 198.947 33.7337 200.421L56.4035 275.285C56.4154 275.315 56.424 275.347 56.4298 275.374L90.6592 388.405C91.026 389.618 90.3454 390.901 89.1305 391.269L74.9591 395.59C73.7441 395.958 72.4705 395.269 72.1008 394.06L37.8685 281.013C36.2338 275.821 30.705 272.886 25.5018 274.47 20.2814 276.059 17.3057 281.613 18.8607 286.858L57.3075 413.891C60.4504 424.292 67.0825 433.719 75.9863 440.436 84.7402 447.038 95.1904 450.675 105.412 450.675L108.079 450.675 108.079 450.755 138.514 450.755 138.514 450.67C148.463 450.469 158.578 446.858 167.089 440.436 175.989 433.719 182.625 424.292 185.77 413.885L224.214 286.858C225.769 281.613 222.794 276.059 217.573 274.47" fill="#6E6E70" fill-rule="evenodd" transform="matrix(1 0 0 -1 715 2320)"/></g></svg>