<svg width="251" height="251" xmlns="http://www.w3.org/2000/svg" xmlns:xlink="http://www.w3.org/1999/xlink" xml:space="preserve" overflow="hidden"><g transform="translate(-1051 -1779)"><path d="M232.102 249.505 15.9598 249.505C6.60812 249.505-0.970573 241.927-0.970573 232.578L-0.970573 16.4326C-0.970573 7.08385 6.60812-0.494851 15.9598-0.494851L232.102-0.494851C241.451-0.494851 249.03 7.08385 249.03 16.4326L249.03 232.578C249.03 241.927 241.451 249.505 232.102 249.505" fill="#E32626" fill-rule="evenodd" transform="matrix(1 0 0 -1 1052 2029)"/><path d="M72.9261-0.274864C64.6403-0.696201 54.1836-0.51971 47.7525 1.17432 41.3243 2.86799 35.6929 5.89041 30.6126 10.7772 28.9776 12.3504 27.2229 14.0115 26.0682 16.047 24.911 18.0795 23.3232 21.3023 22.3124 23.7855 20.9293 27.1877 20.5573 30.1895 18.7145 34.4075 19.4292 33.9424 19.9771 33.2383 20.6275 32.6817 30.6478 24.1479 38.6552 21.0962 50.7907 21.1139 58.1387 21.1197 65.4781 21.1873 72.8294 21.1873ZM-1.04175 63.7587C5.69114 61.5286 11.4013 58.9247 16.6838 53.6961 25.9805 44.5026 33.0414 36.137 41.4765 32.5461 45.2356 30.9435 50.5357 30.2336 54.5646 30.4014 58.5931 30.5725 62.8648 31.6209 67.585 33.5327 69.7645 34.4166 70.5351 35.4828 72.9261 36.7348 59.3517 39.1384 45.8654 49.4426 35.6638 59.8408 22.2653 73.4914 14.9349 72.7402-1.04175 63.7587M14.8791 153.382C20.1645 147.791 21.5152 146.3 24.3718 138.848 26.5341 133.204 27.4776 127.256 29.1827 121.686 31.1137 115.379 33.8472 109.553 37.0937 105.211 39.543 101.929 43.4542 98.1441 46.8061 96.0114 50.158 93.8816 53.9109 92.279 57.9837 91.0888 62.8737 89.6664 67.2595 89.9756 72.9261 89.5778 70.8721 91.2714 68.5019 92.8121 66.4889 94.8183 64.4821 96.8215 62.5043 98.9658 60.6057 101.219 53.8261 109.246 48.2741 118.979 44.8107 128.373 37.7145 147.632 32.7105 152.698 14.8791 153.382M72.9261 106.622C57.8636 115.088 43.6654 133.699 46.5921 157.229 47.0345 160.778 47.723 164.039 48.1716 166.531 54.166 152.477 60.9895 136.803 72.9261 132.403ZM72.9582 49.6545C67.4267 52.1616 61.3356 54.1674 56.5686 56.6447 51.8073 59.1221 47.436 61.6791 43.4776 64.4863 35.0454 70.4661 29.4143 78.0013 24.8819 88.0078 22.075 94.2114 21.0026 101.644 19.5141 110.433 28.4417 99.4078 38.7987 89.2979 51.3066 82.7731 58.8744 78.8201 65.1238 74.7608 72.9261 74.9319" fill="#FFFFFF" fill-rule="evenodd" transform="matrix(1 0 0 -1 1208 2008)"/><path d="M19.7725 134.864 77.3501 134.864 77.3501 101.71 19.7725 101.71ZM65.0882 172.894 61.8085 172.894 61.8085 190.684 72.1025 190.684 79.7307 192.7 79.7307 204.247 72.1058 206.262 60.5285 206.262 60.5285 215.506 37.5213 215.506 37.5213 208.547 26.8222 208.412 1.56883 185.157C0.0857951 183.793-0.903372 179.923-0.900488 177.913L-0.888953 172.574-0.888953 157.389 7.16786 157.389 7.16786 170.676 28.3254 191.315 36.6053 191.315 36.203 184.67 36.203 172.894 32.888 172.894C22.465 172.894 13.9298 163.533 13.9298 152.103L13.9298-0.49382 84.0994-0.49382 84.0994 152.103C84.0994 163.533 75.5642 172.894 65.0882 172.894" fill="#FFFFFF" fill-rule="evenodd" transform="matrix(1 0 0 -1 1072 2012)"/></g></svg>