<svg width="251" height="251" xmlns="http://www.w3.org/2000/svg" xmlns:xlink="http://www.w3.org/1999/xlink" xml:space="preserve" overflow="hidden"><g transform="translate(-1606 -1780)"><path d="M231.491 249.507 15.3463 249.507C5.99458 249.507-1.58455 241.927-1.58455 232.579L-1.58455 16.434C-1.58455 7.08528 5.99458-0.493768 15.3463-0.493768L231.491-0.493768C240.839-0.493768 248.416 7.08528 248.416 16.434L248.416 232.579C248.416 241.927 240.839 249.507 231.491 249.507" fill="#E32626" fill-rule="evenodd" transform="matrix(1 0 0 -1 1608 2030)"/><path d="M3.05622 182.491 8.67937 182.491 8.67937 42.7732 2.54355 42.7732C0.295728 42.7732-1.54412 44.9704-1.54412 47.6571L-1.54412 176.998C-1.54412 180.018 0.52454 182.491 3.05622 182.491M33.6159 177.642 36.1713 177.642C38.281 177.642 40.0068 175.77 40.0068 173.476L40.0068 54.6769C40.0068 52.3859 38.281 50.5107 36.1713 50.5107L33.6159 50.5107C31.5033 50.5107 29.7801 52.3859 29.7801 54.6769L29.7801 173.476C29.7801 175.77 31.5033 177.642 33.6159 177.642M107.462 114.282 101.771 114.282 101.771 111.314 107.462 111.314ZM121.037 99.7289 121.037 111.314 109.39 111.314C109.574 108.234 110.837 105.864 113.182 103.523 115.523 101.179 117.961 99.9167 121.037 99.7289M135.451 111.314 123.783 111.314 123.783 99.7289C126.86 99.9167 129.315 101.179 131.657 103.523 134.001 105.864 135.264 108.234 135.451 111.314M123.783 125.787 123.783 114.282 135.451 114.282C135.264 117.358 134.001 119.655 131.657 121.996 129.315 124.34 126.86 125.602 123.783 125.787M109.39 114.282 121.037 114.282 121.04 125.787C117.964 125.602 115.523 124.34 113.182 121.996 110.837 119.655 109.574 117.358 109.39 114.282M111.781 123.396C117.641 129.256 127.2 129.256 133.06 123.396 138.921 117.537 138.921 107.979 133.06 102.12 127.2 96.2631 117.641 96.2631 111.781 102.12 105.92 107.979 105.92 117.537 111.781 123.396M98.0026 182.491 91.6146 182.491 91.6146 42.7732 97.7476 42.7732C99.9979 42.7732 101.838 44.9704 101.838 47.6571L101.838 177.912C101.838 180.431 100.115 182.491 98.0026 182.491M17.2415 177.642 19.7998 177.642C21.9094 177.642 23.6327 175.345 23.6327 172.535L23.6327 21.8131 13.4089 21.8131 13.4089 172.535C13.4089 175.345 15.1347 177.642 17.2415 177.642M48.4901 177.642 51.048 177.642C53.1577 177.642 54.8839 175.77 54.8839 173.476L54.8839 54.6769C54.8839 52.3859 53.1577 50.5107 51.048 50.5107L48.4901 50.5107C46.3801 50.5107 44.6571 52.3859 44.6571 54.6769L44.6571 173.476C44.6571 175.77 46.3801 177.642 48.4901 177.642M64.372 177.642 66.9299 177.642C69.04 177.642 70.7629 175.77 70.7629 173.476L70.7629 54.6769C70.7629 52.3859 69.04 50.5107 66.9299 50.5107L64.372 50.5107C62.2652 50.5107 60.5394 52.3859 60.5394 54.6769L60.5394 173.476C60.5394 175.77 62.2652 177.642 64.372 177.642M79.2458 177.642 81.8041 177.642C83.9138 177.642 85.6396 175.77 85.6396 173.476L85.6396 54.6769C85.6396 52.3859 83.9138 50.5107 81.8041 50.5107L79.2458 50.5107C77.139 50.5107 75.4132 52.3859 75.4132 54.6769L75.4132 173.476C75.4132 175.77 77.139 177.642 79.2458 177.642M13.4089 12.4875 15.1232-0.509355 21.6691-0.509355 23.6561 12.4875" fill="#FFFFFF" fill-rule="evenodd" transform="matrix(1 0 0 -1 1631 1984)"/><path d="M72.3203-0.272694C64.0342-0.693671 53.5771-0.517179 47.1457 1.17685 40.7173 2.87053 35.086 5.89295 30.0051 10.7798 28.3705 12.3526 26.6153 14.0141 25.4609 16.0496 24.3033 18.0792 22.7126 21.3049 21.7046 23.7881 20.3218 27.1845 19.9494 30.1921 18.1065 34.4072 18.8213 33.945 19.3692 33.2409 20.0199 32.681 30.0403 24.1505 38.048 21.0987 50.184 21.1161 57.5327 21.1194 64.8724 21.1899 72.2235 21.1899ZM-1.65046 63.7584C5.07981 61.5284 10.7931 58.9244 16.0762 53.6959 25.3699 44.5053 32.434 36.1393 40.8698 32.5487 44.629 30.9461 49.9265 30.2362 53.958 30.404 57.9867 30.5722 62.2585 31.6235 66.9761 33.5353 69.159 34.4192 69.9263 35.4854 72.3203 36.7317 58.7457 39.1411 45.2589 49.4452 35.0565 59.8434 21.6578 73.4941 14.3268 72.7429-1.65046 63.7584M14.271 153.382C19.557 147.794 20.9078 146.303 23.7644 138.847 25.9268 133.204 26.87 127.259 28.5755 121.689 30.5062 115.382 33.2398 109.556 36.4864 105.213 38.9359 101.932 42.8473 98.1465 46.1993 96.0141 49.5484 93.8843 53.3044 92.2789 57.3773 91.0948 62.2675 89.6687 66.6538 89.9754 72.3203 89.5805 70.2662 91.2742 67.8959 92.8178 65.8832 94.8152 63.8759 96.8239 61.8984 98.9686 59.9998 101.222 53.2195 109.249 47.6645 118.982 44.2042 128.375 37.1077 147.632 32.1002 152.698 14.271 153.382M72.3203 106.624C57.2571 115.088 43.0555 133.698 45.9795 157.232 46.4281 160.781 47.1166 164.039 47.5648 166.534 53.5594 152.477 60.3836 136.803 72.3203 132.405ZM72.3494 49.6572C66.8207 52.1642 60.7293 54.17 55.9621 56.6474 51.201 59.1248 46.8295 61.6818 42.8681 64.489 34.4385 70.4687 28.8068 78.004 24.2713 88.0076 21.4672 94.2141 20.3948 101.646 18.9066 110.436 27.8341 99.4105 38.1887 89.3006 50.6999 82.7758 58.268 78.8228 64.5177 74.7635 72.3203 74.9313" fill="#FFFFFF" fill-rule="evenodd" transform="matrix(1 0 0 -1 1760 2010)"/></g></svg>