<svg width="426" height="426" xmlns="http://www.w3.org/2000/svg" xmlns:xlink="http://www.w3.org/1999/xlink" xml:space="preserve" overflow="hidden"><g transform="translate(-2350 327)"><path d="M388.481-0.782508 26.6492-0.782508C9.20298-0.782508-4.92895 13.3622-4.92895 30.7957L-4.92895 392.651C-4.92895 410.085 9.20298 424.217 26.6492 424.217L388.481 424.217C405.928 424.217 420.072 410.085 420.072 392.651L420.072 30.8084C420.072 13.3622 405.928-0.782508 388.481-0.782508" fill="#03964D" fill-rule="evenodd" transform="matrix(1 0 0 -1 2355 98)"/><path d="M254.418 187.252 23.735 187.252C7.9008 187.252-4.92313 174.409-4.92313 158.58L-4.92313 27.9226C-4.92313 12.0921 7.9008-0.749382 23.735-0.749382L254.418-0.749382C270.241-0.749382 283.077 12.0921 283.077 27.9226L283.077 158.58C283.077 174.409 270.241 187.252 254.418 187.252" fill="#FFFFFF" fill-rule="evenodd" transform="matrix(1 0 0 -1 2424 4.00013)"/><path d="M-4.9182-0.902166-4.9182 24.7585C-4.9182 30.4779 0.162667 35.0993 6.44161 35.0993L73.7122 35.0993C79.9911 35.0993 85.0833 30.4779 85.0833 24.7585L85.0833-0.902166" stroke="#FFFFFF" stroke-width="3.21086" stroke-miterlimit="8" fill="none" fill-rule="evenodd" transform="matrix(1 0 0 -1 2523.5 -183.5)"/><path d="M-4.94736-0.74896 134.054-0.74896 134.054 35.2508-4.94736 35.2508Z" fill="#03964D" fill-rule="evenodd" transform="matrix(1 0 0 -1 2498 -71.0002)"/><path d="M-4.93057-0.745878 31.0709-0.745878 31.0709 137.256-4.93057 137.256Z" fill="#03964D" fill-rule="evenodd" transform="matrix(1 0 0 -1 2550 -19.9999)"/></g></svg>