<svg width="250" height="250" xmlns="http://www.w3.org/2000/svg" xmlns:xlink="http://www.w3.org/1999/xlink" xml:space="preserve" overflow="hidden"><g transform="translate(-1606 -430)"><path d="M230.56 246.687 15.2783 246.687C5.96702 246.687-1.57964 239.137-1.57964 229.826L-1.57964 14.5498C-1.57964 5.23615 5.96702-2.3133 15.2783-2.3133L230.56-2.3133C239.871-2.3133 247.421 5.23615 247.421 14.5498L247.421 229.826C247.421 239.137 239.871 246.687 230.56 246.687" fill="#2E2A26" fill-rule="evenodd" transform="matrix(1 0 0 -1 1608 677)"/><path d="M150.305 105.092 108.532 105.092 108.532 118.277C108.532 125.118 102.948 130.684 96.0868 130.684L63.742 130.684C56.8777 130.684 51.2944 125.118 51.2944 118.277L51.2944 105.092 9.52343 105.092C3.38658 105.092-1.58718 100.134-1.58718 94.0174L-1.58718 8.75726C-1.58718 2.64365 3.38658-2.3168 9.52343-2.3168L150.305-2.3168C156.439-2.3168 161.413 2.64365 161.413 8.75726L161.413 94.0174C161.413 100.134 156.439 105.092 150.305 105.092M57.7877 118.277C57.7877 121.552 60.4585 124.214 63.742 124.214L96.0868 124.214C99.3704 124.214 102.041 121.552 102.041 118.277L102.041 105.092 57.7877 105.092" fill="#FFFFFF" fill-rule="evenodd" transform="matrix(1 0 0 -1 1651 619)"/><path d="M27.4602-2.30467 48.3721-2.30467 48.3721 26.739 77.4146 26.739 77.4146 47.6518 48.3721 47.6518 48.3721 76.6958 27.4602 76.6958 27.4602 47.6518-1.5855 47.6518-1.5855 26.739 27.4602 26.739" fill="#139F58" fill-rule="evenodd" transform="matrix(1 0 0 -1 1693 605)"/></g></svg>