<svg width="251" height="251" xmlns="http://www.w3.org/2000/svg" xmlns:xlink="http://www.w3.org/1999/xlink" xml:space="preserve" overflow="hidden"><g transform="translate(-2599 -1578)"><path d="M228.815 249.505 20.4842 249.505C8.97794 249.505-0.350469 240.177-0.350469 228.67L-0.350469 16.1676C-0.350469 6.96617 7.11045-0.495212 16.3179-0.495212L232.981-0.495212C242.186-0.495212 249.649 6.96617 249.649 16.1676L249.649 228.67C249.649 240.177 240.322 249.505 228.815 249.505" fill="#2E2A26" fill-rule="evenodd" transform="matrix(1 0 0 -1 2600 1828)"/><path d="M93.9964 68.7575 129.669 32.9312 133.254 36.5373C136.451 39.7485 136.451 44.9559 133.254 48.1641L88.5648 93.0483C85.3674 96.2595 80.1857 96.2566 76.9883 93.0454L2.04748 17.7812C-1.14666 14.5729-1.14666 9.37173 2.04748 6.16057L8.72704-0.544847 78.7117 69.7422C82.2641 73.31 89.4397 73.3306 93.9964 68.7575" fill="#FFFFFF" fill-rule="evenodd" transform="matrix(1 0 0 -1 2655 1715)"/><path d="M136.254 91.4596 91.5841 136.128C88.386 139.324 83.2155 139.324 80.0231 136.128L2.04451 58.1496C-1.14529 54.9573-1.15105 49.784 2.04451 46.5885L46.7096 1.92019C49.902-1.27244 55.0869-1.27532 58.2796 1.91694L136.259 79.8956C139.452 83.0882 139.443 88.267 136.254 91.4596" fill="#FFFFFF" fill-rule="evenodd" transform="matrix(1 0 0 -1 2656 1786)"/><path d="M24.8022 8.27302C24.6131 8.08852 24.4128 7.91252 24.1973 7.73369 20.6605 4.82917 17.0914 5.78105 14.3716 5.50696 11.4544 5.21304 7.87625 4.40529 2.09763-0.42601 2.09763-0.42601 0.546137 6.41564 0.18941 7.89233-0.284658 9.8393-1.23967 12.2966 1.70541 15.1809 1.97667 15.4436 2.28378 15.7117 2.62276 15.983L4.69649 6.95497C4.69649 6.95497 9.46324 10.3064 14.1003 10.4884 16.994 10.595 17.3069 10.6208 18.472 10.6124 20.9879 10.6382 22.5633 11.3333 23.5335 12.2852 25.7133 14.4139 24.867 17.8173 24.867 17.8173 24.867 17.8173 24.3596 16.5336 23.2709 15.4695 22.5071 14.7223 21.4569 14.082 20.0973 14.0735 16.7434 14.0417 15.8583 14.0303 15.8583 14.0303 15.8583 14.0303 11.8173 14.2233 6.30991 11.3333L5.30419 15.7578C4.90582 17.3039 4.19816 21.633 7.51337 24.8722 7.69952 25.0598 7.89979 25.2387 8.11528 25.4143 11.655 28.3188 15.2241 27.367 17.9381 27.6439 20.8582 27.9325 24.4393 28.7431 30.2179 33.574 30.2179 33.574 31.7665 26.7327 32.1232 25.2557 32.5984 23.3091 33.5508 20.8515 30.6072 17.97 30.3327 17.7047 30.0288 17.4366 29.6899 17.1626L27.619 26.1934C27.619 26.1934 22.8523 22.8445 18.2123 22.6628 15.3157 22.5505 15.009 22.53 13.8407 22.5389 11.3218 22.5102 9.74934 21.815 8.77912 20.866 6.60217 18.7345 7.44564 15.3282 7.44564 15.3282 7.44564 15.3282 7.95303 16.6115 9.04168 17.6789 9.80548 18.4257 10.8557 19.0631 12.2185 19.0777 15.5692 19.1067 16.4544 19.1152 16.4544 19.1152 16.4544 19.1152 20.4982 18.9247 26.0027 21.8179L27.0055 17.3903C27.4097 15.8445 28.1145 11.5178 24.8022 8.27302" fill="#2E2A26" fill-rule="evenodd" transform="matrix(1 0 0 -1 2702 1765)"/></g></svg>