<svg width="432" height="432" xmlns="http://www.w3.org/2000/svg" xmlns:xlink="http://www.w3.org/1999/xlink" xml:space="preserve" overflow="hidden"><g transform="translate(-3253 -1409)"><path d="M-8.02532-3.57377 422.977-3.57377 422.977 427.429-8.02532 427.429Z" fill="#0569A8" fill-rule="evenodd" transform="matrix(1 0 0 -1 3262 1837)"/><path d="M164.47 220.843C231.487 220.843 286.155 166.257 286.155 99.2954 286.155 94.8687 285.91 90.5027 285.434 86.1772 285.001 86.1165 284.589 86.0331 284.156 85.9724L284.156-2.91993C286.672-3.35223 289.208-3.57723 291.825-3.57723 316.686-3.57723 336.969 16.6828 336.969 41.5161 336.969 64.2486 320.004 83.1308 298.091 86.1999 298.504 90.5027 298.752 94.8889 298.752 99.2954 298.752 173.176 238.435 233.423 164.47 233.423 90.5266 233.423 30.189 173.176 30.189 99.2954 30.189 94.8889 30.4371 90.5027 30.8496 86.1999 8.93674 83.1308-8.03067 64.2486-8.03067 41.5161-8.03067 16.6828 12.2548-3.57723 37.1162-3.57723 39.7332-3.57723 42.2894-3.35223 44.785-2.91993L44.785 85.9724C44.3724 86.0331 43.9396 86.1165 43.5271 86.1772 43.031 90.5027 42.8058 94.8687 42.8058 99.2954 42.8058 166.257 97.4538 220.843 164.47 220.843" fill="#FFFFFF" fill-rule="evenodd" transform="matrix(1 0 0 -1 3304 1735)"/><path d="M-4.679 114.521 18.975 114.521C20.7349 114.521 22.1479 112.563 22.1479 110.172L22.1479 0.888092C22.1479-1.50293 20.7349-3.48152 18.975-3.48152L-4.679-3.48152C-6.41885-3.48152-7.85197-1.50293-7.85197 0.888092L-7.85197 110.172C-7.85197 112.563-6.41885 114.521-4.679 114.521" fill="#FFFFFF" fill-rule="evenodd" transform="matrix(1 0 0 -1 3349 1749)"/><path d="M-4.92539 114.521 18.7261 114.521C20.486 114.521 21.899 112.563 21.899 110.172L21.899 0.888092C21.899-1.50293 20.486-3.48152 18.7261-3.48152L-4.92539-3.48152C-6.66776-3.48152-8.10088-1.50293-8.10088 0.888092L-8.10088 110.172C-8.10088 112.563-6.66776 114.521-4.92539 114.521" fill="#FFFFFF" fill-rule="evenodd" transform="matrix(1 0 0 -1 3575 1749)"/></g></svg>