<svg width="740" height="739" xmlns="http://www.w3.org/2000/svg" xmlns:xlink="http://www.w3.org/1999/xlink" xml:space="preserve" overflow="hidden"><g transform="translate(-2433 -1326)"><path d="M672.981 731.514 44.8308 731.514C17.6237 731.514-4.43122 709.489-4.43122 682.308L-4.43122 42.7102C-4.43122 15.54 17.6237-6.48631 44.8308-6.48631L685.297-6.48631C712.514-6.48631 734.57 15.54 734.57 42.7102L734.57 670.008C734.57 703.979 706.998 731.514 672.981 731.514" fill="#129748" fill-rule="evenodd" transform="matrix(1 0 0 -1 2438 2058)"/><path d="M331.234-6.35144 44.8925-6.35144C17.644-6.35144-4.43631 15.6728-4.43631 42.8505L-4.43631 328.458C-4.43631 355.626 17.644 377.65 44.8925 377.65L331.234 377.65C358.473 377.65 380.564 355.626 380.564 328.458L380.564 42.8505C380.564 15.6728 358.473-6.35144 331.234-6.35144" fill="#FFFFFF" fill-rule="evenodd" transform="matrix(1 0 0 -1 2615 1981)"/><path d="M96.6692-6.33659 169.469-6.33659 169.469 94.3919 270.569 94.3919 270.569 166.926 169.469 166.926 169.469 267.665 96.6692 267.665 96.6692 166.926-4.43071 166.926-4.43071 94.3919 96.6692 94.3919" fill="#129748" fill-rule="evenodd" transform="matrix(1 0 0 -1 2670 1926)"/><path d="M-2.03863 19.3182C2.12815 15.9752 7.27461 13.2207 13.4097 11.0357 19.5447 8.85195 25.5033 7.75499 31.2956 7.75499 38.9309 7.75499 44.9202 9.5663 49.2647 13.1902 53.608 16.8128 55.7745 21.6176 55.7745 27.6007 55.7745 32.3114 54.525 36.3395 52.0451 39.6723 49.5563 43.0166 45.2437 46.2363 39.1087 49.3429 35.8678 50.947 32.3572 52.7075 28.6073 54.6014 24.837 56.4966 21.3365 58.3194 18.097 60.0366 11.2738 63.8359 6.29494 68.1742 3.17049 73.0616 0.0447629 77.9579-1.5181 83.735-1.5181 90.4134-1.5181 100.869 2.06549 109.297 9.24289 115.684 16.4203 122.071 26.0865 125.261 38.2428 125.261 44.6081 125.261 50.7432 124.453 56.6391 122.848 62.5465 121.234 67.1712 119.163 70.536 116.636L67.2338 100.238C63.4098 103.582 59.0768 106.202 54.213 108.096 49.3479 109.99 44.3165 110.943 39.1087 110.943 32.1602 110.943 26.6595 109.327 22.618 106.108 18.5664 102.888 16.5341 98.5713 16.5341 93.1666 16.5341 89.7194 17.1186 86.7895 18.2748 84.3668 19.4309 81.9542 21.1703 79.7908 23.4826 77.8956 25.7949 76.0017 28.7748 74.1586 32.4198 72.3777 36.0661 70.5969 40.3787 68.5479 45.3576 66.2485 55.8896 61.4145 63.4098 56.2691 67.9308 50.8122 72.4417 45.3465 74.7028 38.8131 74.7028 31.2246 74.7028 23.8535 72.9622 17.2997 69.4937 11.5543 66.015 5.79749 61.0041 1.31559 54.4726-1.90538 47.9308-5.12508 40.2022-6.73938 31.2956-6.73938 24.7014-6.73938 18.3259-5.93223 12.2011-4.32683 6.06601-2.71253 0.565291-0.413108-4.29851 2.57779" fill="#FFFFFF" fill-rule="evenodd" transform="matrix(1 0 0 -1 2652 1538)"/><path d="M69.8847 46.7536 43.8459 46.7536 43.8459 61.942 87.5909 61.942 87.5909 4.8251C82.3836 0.79698 76.7377-2.14308 70.666-3.976 64.5931-5.81783 57.1569-6.73938 48.355-6.73938 37.9392-6.73938 28.7741-4.08913 20.8481 1.20119 12.9209 6.49151 6.71366 14.1423 2.26602 24.1433-2.18162 34.1545-4.41055 45.8334-4.41055 59.1774-4.41055 72.4095-2.21231 83.9943 2.1829 93.9432 6.57811 103.892 12.9427 111.605 21.274 117.072 29.6066 122.528 39.617 125.261 51.3128 125.261 57.9063 125.261 64.0406 124.484 69.7069 122.932 75.3835 121.379 80.9245 118.936 86.3722 115.602L82.0396 99.8958C77.1751 103.695 72.2799 106.46 67.3642 108.178 62.437 109.907 57.208 110.766 51.6568 110.766 40.2001 110.766 31.1693 106.222 24.5771 97.1426 17.9837 88.0517 14.6818 75.4017 14.6818 59.1774 14.6818 49.6212 16.1601 40.9663 19.1077 33.2024 22.0553 25.4373 26.3163 19.2572 31.8675 14.6596 37.4187 10.0633 43.7833 7.75499 50.9586 7.75499 59.6454 7.75499 65.9473 9.307 69.8847 12.4136" fill="#FFFFFF" fill-rule="evenodd" transform="matrix(1 0 0 -1 2747 1538)"/><path d="M64.7904-6.74681 64.7904 52.8483 13.1442 52.8483 13.1442-6.74681-4.53332-6.74681-4.53332 121.253 13.1442 121.253 13.1442 68.0522 64.7904 68.0522 64.7904 121.253 82.4679 121.253 82.4679-6.74681" fill="#FFFFFF" fill-rule="evenodd" transform="matrix(1 0 0 -1 2867 1536)"/></g></svg>