<svg width="740" height="740" xmlns="http://www.w3.org/2000/svg" xmlns:xlink="http://www.w3.org/1999/xlink" xml:space="preserve" overflow="hidden"><g transform="translate(-1493 -1174)"><path d="M672.981 732.505 44.8308 732.505C17.6237 732.505-4.43122 710.45-4.43122 683.233L-4.43122 42.7681C-4.43122 15.5611 17.6237-6.4951 44.8308-6.4951L685.297-6.4951C712.514-6.4951 734.57 15.5611 734.57 42.7681L734.57 670.916C734.57 704.933 706.998 732.505 672.981 732.505" fill="#129748" fill-rule="evenodd" transform="matrix(1 0 0 -1 1498 1907)"/><path d="M331.234-6.35144 44.8925-6.35144C17.644-6.35144-4.43631 15.6728-4.43631 42.8505L-4.43631 328.458C-4.43631 355.626 17.644 377.65 44.8925 377.65L331.234 377.65C358.473 377.65 380.564 355.626 380.564 328.458L380.564 42.8505C380.564 15.6728 358.473-6.35144 331.234-6.35144" fill="#FFFFFF" fill-rule="evenodd" transform="matrix(1 0 0 -1 1675 1829)"/><path d="M96.6692-6.35971 169.469-6.35971 169.469 94.7364 270.569 94.7364 270.569 167.535 169.469 167.535 169.469 268.642 96.6692 268.642 96.6692 167.535-4.43071 167.535-4.43071 94.7364 96.6692 94.7364" fill="#129748" fill-rule="evenodd" transform="matrix(1 0 0 -1 1730 1775)"/></g></svg>