<svg xmlns="http://www.w3.org/2000/svg" viewBox="0 0 72.14 72.14"><defs><style>.cls-1{fill:#93d500;}.cls-2{fill:#fff;}.cls-3{fill:#373737;fill-rule:evenodd;}</style></defs><title>PublicBus (4)</title><g id="Layer_2" data-name="Layer 2"><g id="PublicBus"><g id="PublicBus-2" data-name="PublicBus"><rect class="cls-1" x="1.23" y="1.23" width="69.68" height="69.68" rx="5.86"/><path class="cls-2" d="M65.1,72.14H7a7.05,7.05,0,0,1-7-7V7A7.05,7.05,0,0,1,7,0H65.1a7.05,7.05,0,0,1,7,7V65.1A7.05,7.05,0,0,1,65.1,72.14ZM7,2.46A4.58,4.58,0,0,0,2.46,7V65.1A4.58,4.58,0,0,0,7,69.68H65.1a4.58,4.58,0,0,0,4.58-4.58V7A4.58,4.58,0,0,0,65.1,2.46Z"/><path class="cls-3" d="M55.13,25.9h-2c0-.21,0-.42,0-.62l-.37-7a2.71,2.71,0,0,0-2.67-2.53H22.1a2.71,2.71,0,0,0-2.68,2.53l-.37,7,0,.62H17a1.28,1.28,0,0,0-1.27,1.28V31a5.87,5.87,0,0,0,.16,1.26l.32,1.29a.86.86,0,0,0,.79.61h1.91V50a2.54,2.54,0,0,0,2.54,2.54h.64v3.17a.63.63,0,0,0,.63.63h3.81a.64.64,0,0,0,.64-.63V52.59H45v3.17a.63.63,0,0,0,.63.63h3.82a.63.63,0,0,0,.64-.63V52.59h.63A2.55,2.55,0,0,0,53.23,50V34.16h1.9a.85.85,0,0,0,.79-.61l.33-1.29A6.58,6.58,0,0,0,56.4,31V27.18a1.28,1.28,0,0,0-1.27-1.28M24.64,18.29a.64.64,0,0,1,.63-.64h21.6a.64.64,0,0,1,.64.64v1.27a.64.64,0,0,1-.64.63H25.27a.64.64,0,0,1-.63-.63Zm5.08,29.84a.64.64,0,0,1-.64.64H24a.81.81,0,0,1-.76-.62l-.38-1.93a.5.5,0,0,1,.5-.63h5.72a.64.64,0,0,1,.64.64Zm19.57-1.91-.39,1.93a.81.81,0,0,1-.75.62H43.06a.64.64,0,0,1-.64-.64v-1.9a.64.64,0,0,1,.64-.64h5.72A.5.5,0,0,1,49.29,46.22Zm1.39-6.9c0,1.19-1.26,3.18-14.61,3.18h0c-13.35,0-14.61-2-14.61-3.18V23.37a1.27,1.27,0,0,1,1.27-1.27H49.41a1.27,1.27,0,0,1,1.27,1.27Z"/></g></g></g></svg>