<svg width="251" height="250" xmlns="http://www.w3.org/2000/svg" xmlns:xlink="http://www.w3.org/1999/xlink" xml:space="preserve" overflow="hidden"><g transform="translate(-2604 -1148)"><path d="M232.721 247.9 16.5766 247.9C7.22868 247.9-0.350795 240.351-0.350795 231.04L-0.350795 15.7667C-0.350795 6.44983 7.22868-1.09962 16.5766-1.09962L232.721-1.09962C242.073-1.09962 249.649 6.44983 249.649 15.7667L249.649 231.04C249.649 240.351 242.073 247.9 232.721 247.9" fill="#2E2A26" fill-rule="evenodd" transform="matrix(1 0 0 -1 2605 1396)"/><path d="M157.65 77.8997C157.65 34.2709 122.279-1.10168 78.6488-1.10168 35.0177-1.10168-0.350055 34.2709-0.350055 77.8997-0.350055 121.529 35.0177 156.898 78.6488 156.898 122.279 156.898 157.65 121.529 157.65 77.8997" fill="#FFFFFF" fill-rule="evenodd" transform="matrix(1 0 0 -1 2651 1350)"/><path d="M10.6489 89.3553C7.53305 89.3553 4.92344 90.4569 2.81174 92.6622 0.703297 94.8621-0.351106 97.52-0.351106 100.624-0.351106 103.728 0.703297 106.383 2.81174 108.589 4.92344 110.792 7.53305 111.896 10.6489 111.896 13.7618 111.896 16.3743 110.792 18.486 108.589 20.5945 106.383 21.6489 103.728 21.6489 100.624 21.6489 97.52 20.5945 94.8621 18.486 92.6622 16.3743 90.4569 13.7618 89.3553 10.6489 89.3553M0.552875 79.4375 20.294 79.4375 20.294-1.1041 0.552875-1.1041" fill="#2E2A26" fill-rule="evenodd" transform="matrix(1 0 0 -1 2719 1326)"/></g></svg>