<svg width="251" height="251" xmlns="http://www.w3.org/2000/svg" xmlns:xlink="http://www.w3.org/1999/xlink" xml:space="preserve" overflow="hidden"><g transform="translate(-750 -880)"><path d="M225.794 245.29 15.8411 245.29C6.7476 245.29-0.623555 237.919-0.623555 228.822L-0.623555 14.7542C-0.623555 5.66072 6.7476-1.71045 15.8411-1.71045L229.909-1.71045C239.005-1.71045 246.376 5.66072 246.376 14.7542L246.376 224.707C246.376 236.076 237.162 245.29 225.794 245.29" fill="#FFFFFF" fill-rule="evenodd" transform="matrix(1 0 0 -1 752 1127)"/><path d="M225.794 245.29 15.8411 245.29C6.74761 245.29-0.623556 237.919-0.623556 228.822L-0.623556 14.7542C-0.623556 5.66072 6.74761-1.71045 15.8411-1.71045L229.909-1.71045C239.005-1.71045 246.377 5.66072 246.377 14.7542L246.377 224.707C246.377 236.076 237.163 245.29 225.794 245.29Z" stroke="#2E2A26" stroke-width="2.93478" stroke-miterlimit="8" fill="none" fill-rule="evenodd" transform="matrix(1 0 0 -1 752.5 1127.5)"/><path d="M10.5861-1.68496C4.40289-1.68496-0.626879 3.08573-0.626879 8.95173L-0.626879 134.678C-0.626879 140.542 4.40289 145.315 10.5861 145.315L113.157 145.315C119.34 145.315 124.373 140.542 124.373 134.678L124.373 8.95173C124.373 3.08573 119.34-1.68496 113.157-1.68496" fill="#0E4B87" fill-rule="evenodd" transform="matrix(1 0 0 -1 818 1096)"/><path d="M116.571 145.626C121.439 145.626 125.397 141.896 125.397 137.309L125.397 11.3139C125.397 6.72787 121.439 2.99799 116.571 2.99799L13.1561 2.99799C8.29138 2.99799 4.33886 6.72787 4.33886 11.3139L4.33886 137.309C4.33886 141.896 8.29138 145.626 13.1561 145.626ZM116.571 150.312 13.1561 150.312C5.55223 150.312-0.632055 144.48-0.632055 137.309L-0.632055 11.3139C-0.632055 4.14334 5.55223-1.68856 13.1561-1.68856L116.571-1.68856C124.178-1.68856 130.368 4.14334 130.368 11.3139L130.368 137.309C130.368 144.48 124.178 150.312 116.571 150.312" fill="#0E4B87" fill-rule="evenodd" transform="matrix(1 0 0 -1 815 1098)"/><path d="M-0.704223 4.40585C-0.704223 4.87306-0.322488 5.25778 0.144744 5.25778L5.44066 5.25778C5.91427 5.25778 6.29601 4.87306 6.29601 4.40585L6.29601-0.889795C6.29601-1.36038 5.91427-1.74209 5.44066-1.74209L0.144744-1.74209C-0.322488-1.74209-0.704223-1.36038-0.704223-0.889795" fill="#FFFFFF" fill-rule="evenodd" transform="matrix(1 0 0 -1 921 1033)"/><path d="M-0.704223 3.76291C-0.704223 4.16337-0.322488 4.49313 0.144744 4.49313L5.44066 4.49313C5.91427 4.49313 6.29601 4.16337 6.29601 3.76291L6.29601-0.776173C6.29601-1.17953 5.91427-1.50671 5.44066-1.50671L0.144744-1.50671C-0.322488-1.50671-0.704223-1.17953-0.704223-0.776173" fill="#FFFFFF" fill-rule="evenodd" transform="matrix(1 0 0 -1 921 1021)"/><path d="M-0.704223 4.37623C-0.704223 4.84064-0.322488 5.22552 0.144744 5.22552L5.44066 5.22552C5.91427 5.22552 6.29601 4.84064 6.29601 4.37623L6.29601-0.921687C6.29601-1.39247 5.91427-1.77435 5.44066-1.77435L0.144744-1.77435C-0.322488-1.77435-0.704223-1.39247-0.704223-0.921687" fill="#FFFFFF" fill-rule="evenodd" transform="matrix(1 0 0 -1 921 1010)"/><path d="M21.0398 3.712C12.0343 3.712 4.70368 11.0497 4.70368 20.0985 4.70368 25.5824 7.40093 30.6184 11.9343 33.6851L10.9355 39.35C3.86604 35.6009-0.646806 28.1597-0.646806 20.0985-0.646806 8.10458 9.07837-1.65026 21.0398-1.65026 28.5294-1.65026 35.3431 2.11964 39.3534 8.44869L36.377 14.4959C34.0794 8.06598 28.0298 3.712 21.0398 3.712" fill="#FFFFFF" fill-rule="evenodd" transform="matrix(1 0 0 -1 877 1080)"/><path d="M6.33269-1.7695C10.1947-1.7695 13.3327 1.36298 13.3327 5.23074 13.3327 9.0951 10.1947 12.231 6.33269 12.231 2.47028 12.231-0.667369 9.0951-0.667369 5.23074-0.667369 1.36298 2.47028-1.7695 6.33269-1.7695" fill="#FFFFFF" fill-rule="evenodd" transform="matrix(1 0 0 -1 885 1025)"/><path d="M38.8938 4.39574 29.5058 23.3079C29.5058 23.3079 28.2342 25.7955 25.0712 25.7955L11.1095 25.7955 10.2171 30.6202 18.9143 30.6202C19.7623 30.6202 20.5477 30.9419 21.1318 31.4614 21.7956 32.0454 22.2196 32.9073 22.2196 33.8692 22.2404 35.6543 20.7879 37.115 18.9765 37.1386L17.3315 37.1386C17.2008 37.1477 17.0971 37.1683 16.9519 37.1683L9.01349 37.1683 7.76552 43.9077C7.34152 46.1887 5.12436 47.697 2.83005 47.2749 0.512072 46.8528-1.01759 44.6664-0.596872 42.3796L3.07316 22.5261C3.07316 22.5261 3.737 18.4952 8.18952 18.4952L22.4329 18.4952 31.2783 0.686551C32.3042-1.39955 34.8446-2.2437 36.958-1.21949 39.0536-0.19564 39.9402 2.30964 38.8938 4.39574" fill="#FFFFFF" fill-rule="evenodd" transform="matrix(1 0 0 -1 889 1075)"/><path d="M15.3901 6.21742C15.3901 1.79717 11.8115-1.78416 7.38998-1.78416 2.97144-1.78416-0.610104 1.79717-0.610104 6.21742-0.610104 10.6313 2.97144 14.216 7.38998 14.216 11.8115 14.216 15.3901 10.6313 15.3901 6.21742" fill="#FFFFFF" fill-rule="evenodd" transform="matrix(1 0 0 -1 842 996)"/><path d="M21.4594-1.61829C20.5507-1.85118 19.5543-1.76055 18.6579-1.29478L3.50009 6.63734-0.330873 15.9705C-1.14518 17.9487-0.18502 20.2055 1.817 21.0103 3.8041 21.8241 5.76994 20.5382 6.58388 18.56L8.20654 14.6088C8.94177 12.8212 10.6129 11.6716 12.3326 10.7702L22.1674 5.62707C24.0325 4.64985 24.9318 2.37191 24.0205 0.478394 23.4949-0.613963 22.5407-1.34307 21.4594-1.61829" fill="#FFFFFF" fill-rule="evenodd" transform="matrix(1 0 0 -1 842 1029)"/><path d="M8.71684-1.63023C7.79853-1.63023 7.05334-0.901068 7.05334-0.00537203L7.05334 44.0059C7.05334 44.5337 6.8535 45.0355 6.49261 45.4234 6.07829 45.8699 5.50586 46.1149 4.88291 46.1149 4.33463 46.0827 3.75304 45.899 3.34165 45.4993 2.93319 45.1025 2.70699 44.5774 2.7037 44.0144 2.7037 43.1191 1.95851 42.3899 1.04349 42.3899L1.04019 42.3899C0.122247 42.3957-0.620017 43.1277-0.620017 44.0205-0.617089 45.4584-0.0387968 46.8032 1.00469 47.8125 2.04196 48.816 3.41632 49.3704 4.87705 49.3704L4.89206 49.3704C6.43332 49.3643 7.91492 48.7286 8.95219 47.6141 9.87343 46.6281 10.38 45.3446 10.38 44.0059L10.38-0.00537203C10.38-0.901068 9.63479-1.63023 8.71684-1.63023" fill="#FFFFFF" fill-rule="evenodd" transform="matrix(1 0 0 -1 859 1080)"/><path d="M18.4503 68.8377C19.6079 72.6289 20.1182 76.7374 17.4812 79.4098 15.7675 81.1484 13.6893 81.7768 11.2343 81.0251 8.79133 80.2791 7.14139 78.6844 6.08719 76.5229 5.32172 74.9548 4.69279 73.3223 4.05154 71.6983 1.74245 65.8217-0.831123 51.7082-0.590888 45.4267-0.469652 42.3523 0.460326 39.6914 2.31953 37.5241 3.31628 36.0646 3.54421 33.8418 3.72028 33.0662L3.72028 3.23884C3.72028 0.533978 6.00512-1.66251 8.82191-1.66251 8.84318-1.66251 8.86743-1.65385 8.86743-1.65385L8.90063-1.65674C8.94614-1.65962 8.98568-1.63907 9.03156-1.64195 9.34118-1.63042 9.6452-1.60085 9.93692-1.53631 10.9001-1.3719 11.7294-0.934191 12.3919-0.249863 12.4284-0.214889 12.4586-0.176671 12.4982-0.141336 12.6772 0.055525 12.872 0.234719 13.0178 0.46367 13.5796 1.25364 13.9172 2.20514 13.9172 3.23884L13.9172 4.04035C13.9172 4.06414 13.9202 4.08758 13.9202 4.11102L13.9172 38.4316C13.9172 40.0235 13.6221 46.5368 14.476 51.0066" fill="#FFFFFF" fill-rule="evenodd" transform="matrix(1 0 0 -1 832 1080)"/><path d="M0.19095-1.82361C-0.591176-1.82361-0.85103-1.31121-0.388131-0.692488L18.5409 24.7104C19.0034 25.332 19.7617 25.332 20.2242 24.7104L39.1532-0.692488C39.6161-1.31121 39.3563-1.82361 38.5742-1.82361" fill="#0E4B87" fill-rule="evenodd" transform="matrix(1 0 0 -1 841 937)"/><path d="M37.5676 25.1766C38.3302 25.1766 38.5832 24.667 38.1322 24.0458L19.6764-1.35749C19.2255-1.97874 18.4861-1.97874 18.0348-1.35749L-0.420594 24.0458C-0.87192 24.667-0.618563 25.1766 0.14401 25.1766" fill="#0E4B87" fill-rule="evenodd" transform="matrix(1 0 0 -1 880 937)"/></g></svg>