<svg width="251" height="251" xmlns="http://www.w3.org/2000/svg" xmlns:xlink="http://www.w3.org/1999/xlink" xml:space="preserve" overflow="hidden"><g transform="translate(-489 -880)"><path d="M228.82 248.289 16.3195 248.289C7.11196 248.289-0.349029 240.828-0.349029 231.623L-0.349029 14.9549C-0.349029 5.75016 7.11196-1.71086 16.3195-1.71086L232.983-1.71086C242.187-1.71086 249.652 5.75016 249.652 14.9549L249.652 227.454C249.652 238.961 240.323 248.289 228.82 248.289" fill="#2E2A26" fill-rule="evenodd" transform="matrix(1 0 0 -1 490 1129)"/><path d="M10.5029-1.68679C4.5193-1.68679-0.351017 2.88964-0.351017 8.51589L-0.351017 129.11C-0.351017 134.737 4.5193 139.313 10.5029 139.313L109.792 139.313C115.78 139.313 120.649 134.737 120.649 129.11L120.649 8.51589C120.649 2.88964 115.78-1.68679 109.792-1.68679" fill="#0E4B87" fill-rule="evenodd" transform="matrix(1 0 0 -1 554 1092)"/><path d="M111.49 138.848C116.133 138.848 119.909 135.289 119.909 130.915L119.909 10.7226C119.909 6.34592 116.133 2.78936 111.49 2.78936L12.8088 2.78936C8.16931 2.78936 4.39275 6.34592 4.39275 10.7226L4.39275 130.915C4.39275 135.289 8.16931 138.848 12.8088 138.848ZM111.49 143.319 12.8088 143.319C5.55444 143.319-0.348866 137.756-0.348866 130.915L-0.348866 10.7226C-0.348866 3.88208 5.55444-1.68117 12.8088-1.68117L111.49-1.68117C118.745-1.68117 124.651 3.88208 124.651 10.7226L124.651 130.915C124.651 137.756 118.745 143.319 111.49 143.319" fill="#FFFFFF" fill-rule="evenodd" transform="matrix(1 0 0 -1 552 1094)"/><path d="M-0.428348 3.71176C-0.428348 4.11311-0.0461599 4.44103 0.422089 4.44103L5.72069 4.44103C6.18894 4.44103 6.57152 4.11311 6.57152 3.71176L6.57152-0.827182C6.57152-1.22853 6.18894-1.55914 5.72069-1.55914L0.422089-1.55914C-0.0461599-1.55914-0.428348-1.22853-0.428348-0.827182" fill="#FFFFFF" fill-rule="evenodd" transform="matrix(1 0 0 -1 653 1031)"/><path d="M-0.428348 4.31477C-0.428348 4.78302-0.0461599 5.16521 0.422089 5.16521L5.72069 5.16521C6.18894 5.16521 6.57152 4.78302 6.57152 4.31477L6.57152-0.980701C6.57152-1.44934 6.18894-1.83466 5.72069-1.83466L0.422089-1.83466C-0.0461599-1.83466-0.428348-1.44934-0.428348-0.980701" fill="#FFFFFF" fill-rule="evenodd" transform="matrix(1 0 0 -1 653 1021)"/><path d="M-0.428348 4.29873C-0.428348 4.76737-0.0461599 5.14956 0.422089 5.14956L5.72069 5.14956C6.18894 5.14956 6.57152 4.76737 6.57152 4.29873L6.57152-0.99674C6.57152-1.46499 6.18894-1.85031 5.72069-1.85031L0.422089-1.85031C-0.0461599-1.85031-0.428348-1.46499-0.428348-0.99674" fill="#FFFFFF" fill-rule="evenodd" transform="matrix(1 0 0 -1 653 1010)"/><path d="M20.2421 3.45733C11.6871 3.45733 4.72169 10.436 4.72169 19.0516 4.72169 24.2671 7.28399 29.059 11.591 31.9732L10.6418 37.3595C3.92658 33.7949-0.362519 26.719-0.362519 19.0516-0.362519 7.63669 8.87707-1.64067 20.2421-1.64067 27.3559-1.64067 33.8262 1.94423 37.638 7.96664L34.8104 13.718C32.6296 7.59875 26.8815 3.45733 20.2421 3.45733" fill="#FFFFFF" fill-rule="evenodd" transform="matrix(1 0 0 -1 611 1077)"/><path d="M6.13763-1.71496C9.72606-1.71496 12.6366 1.19462 12.6366 4.78653 12.6366 8.37515 9.72606 11.2851 6.13763 11.2851 2.54956 11.2851-0.363859 8.37515-0.363859 4.78653-0.363859 1.19462 2.54956-1.71496 6.13763-1.71496" fill="#FFFFFF" fill-rule="evenodd" transform="matrix(1 0 0 -1 619 1024)"/><path d="M37.202 4.1445 28.283 22.2865C28.283 22.2865 27.0787 24.6723 24.0735 24.6723L10.8093 24.6723 9.96027 29.2993 18.2243 29.2993C19.0264 29.2993 19.7723 29.6064 20.3278 30.1085 20.9622 30.6665 21.3618 31.4934 21.3618 32.4175 21.3824 34.1272 20.0046 35.5328 18.283 35.5505L16.7202 35.5505C16.5968 35.5592 16.4969 35.5799 16.3588 35.5799L8.81763 35.5799 7.63386 42.0439C7.22846 44.2347 5.12495 45.6787 2.94209 45.2741 0.741926 44.8695-0.71235 42.7729-0.312713 40.5821L3.17437 21.5364C3.17437 21.5364 3.80305 17.6681 8.0335 17.6681L21.5645 17.6681 29.9692 0.586219C30.9448-1.4157 33.3535-2.22198 35.3661-1.24168 37.3549-0.261025 38.1978 2.14548 37.202 4.1445" fill="#FFFFFF" fill-rule="evenodd" transform="matrix(1 0 0 -1 623 1072)"/><path d="M14.6828 5.75695C14.6828 1.61404 11.3234-1.74457 7.18295-1.74457 3.03819-1.74457-0.317299 1.61404-0.317299 5.75695-0.317299 9.89731 3.03819 13.2556 7.18295 13.2556 11.3234 13.2556 14.6828 9.89731 14.6828 5.75695" fill="#FFFFFF" fill-rule="evenodd" transform="matrix(1 0 0 -1 578 996)"/><path d="M19.9934-1.62041C19.1568-1.8439 18.2411-1.75643 17.4159-1.30982L3.47309 6.27666-0.0522647 15.203C-0.801511 17.0958 0.0823347 19.2544 1.9252 20.0242 3.75303 20.8029 5.56046 19.5742 6.31006 17.6814L7.80319 13.9021C8.47869 12.1905 10.0162 11.0915 11.5992 10.2309L20.6438 5.30746C22.361 4.37457 23.189 2.19526 22.3525 0.383975 21.8685-0.660467 20.9878-1.358 19.9934-1.62041" fill="#FFFFFF" fill-rule="evenodd" transform="matrix(1 0 0 -1 578 1028)"/><path d="M8.16854-1.63692C7.3344-1.63692 6.65577-0.937996 6.65577-0.0725125L6.65577 42.2084C6.65577 42.7171 6.47492 43.1995 6.14966 43.5711 5.77095 44.0007 5.25061 44.2377 4.68514 44.2377 4.18494 44.2082 3.65626 44.0298 3.2831 43.6468 2.91272 43.267 2.70618 42.7612 2.70341 42.2202 2.70063 41.3605 2.02478 40.6616 1.19341 40.6616L1.18786 40.6616C0.35372 40.6616-0.321785 41.3662-0.319008 42.2289-0.316231 43.6059 0.209663 44.8982 1.15697 45.8688 2.10115 46.8338 3.34802 47.3629 4.67681 47.3629L4.69382 47.3629C6.09343 47.36 7.43923 46.7462 8.38063 45.6789 9.22033 44.7287 9.68096 43.4978 9.68096 42.2084L9.68096-0.0725125C9.68096-0.937996 9.00268-1.63692 8.16854-1.63692" fill="#FFFFFF" fill-rule="evenodd" transform="matrix(1 0 0 -1 594 1077)"/><path d="M17.7873 66.2767C18.8894 69.9292 19.3714 73.8917 16.8664 76.4668 15.2404 78.1439 13.2648 78.7493 10.9346 78.0257 8.61286 77.3054 7.04718 75.7668 6.04382 73.6851 5.31589 72.1733 4.7192 70.5966 4.11141 69.0316 1.91873 63.368-0.529038 49.7642-0.300934 43.711-0.185588 40.7494 0.699099 38.1834 2.467 36.0959 3.41268 34.6903 3.62674 32.5467 3.79495 31.7995L3.79495 3.04784C3.79495 0.443382 5.96619-1.67347 8.63984-1.67347 8.66092-1.67347 8.68569-1.66477 8.68569-1.66477L8.71526-1.66767C8.76074-1.67057 8.79623-1.65316 8.84207-1.6557 9.13376-1.6412 9.42323-1.61474 9.6994-1.55274 10.6144-1.39613 11.4015-0.970871 12.0307-0.312506 12.0695-0.279878 12.0965-0.241449 12.1357-0.209183 12.3047-0.0170392 12.4884 0.154078 12.6274 0.375587 13.1624 1.13764 13.4825 2.05304 13.4825 3.04784L13.4825 3.82149C13.4825 3.84506 13.4844 3.86572 13.4844 3.88929L13.4825 36.9729C13.4825 38.5053 13.2023 44.783 14.0153 49.0881" fill="#FFFFFF" fill-rule="evenodd" transform="matrix(1 0 0 -1 568 1077)"/><path d="M0.43733-1.757C-0.304388-1.757-0.553201-1.28754-0.112602-0.710137L17.8688 22.81C18.3098 23.3874 19.0286 23.3874 19.4692 22.81L37.451-0.710137C37.8919-1.28754 37.6435-1.757 36.9007-1.757" fill="#FFFFFF" fill-rule="evenodd" transform="matrix(1 0 0 -1 577 939)"/><path d="M36.86 23.2431C37.6028 23.2431 37.8512 22.7709 37.4103 22.196L19.4289-1.32592C18.9879-1.90086 18.2691-1.90086 17.8281-1.32592L-0.153284 22.196C-0.594246 22.7709-0.345796 23.2431 0.396649 23.2431" fill="#FFFFFF" fill-rule="evenodd" transform="matrix(1 0 0 -1 614 939)"/></g></svg>