<svg width="207" height="318" xmlns="http://www.w3.org/2000/svg" xmlns:xlink="http://www.w3.org/1999/xlink" xml:space="preserve" overflow="hidden"><g transform="translate(-156 -773)"><path d="M203.395 233.949C203.395 237.001 202.699 239.885 201.235 242.531 196.986 250.233 190.341 254.084 181.69 254.098 127.678 254.154 73.6816 254.125 19.6699 254.125 18.4709 254.125 17.3009 254.056 16.1036 253.915 5.40494 252.628-2.55024 243.736-2.55024 232.983-2.55024 166.808-2.55024 86.4624-2.53656 20.2893-2.53656 18.651-2.4117 17.0264-2.0354 15.4293 0.179594 6.00668 8.91472-0.854413 18.736-0.854413 73.0676-0.854413 127.385-0.854413 181.717-0.868166 183.947-0.868166 186.133-0.546687 188.28 0.097991 197.405 2.81423 203.492 11.1314 203.45 20.303 203.311 53.3621 203.395 86.4349 203.395 119.494 203.395 152.918 203.395 200.526 203.395 233.949M195.607 20.2051C195.635 13.0913 189.895 6.63588 182.052 6.62213 127.692 6.58087 73.319 6.59462 18.9446 6.60838 11.4222 6.62213 5.29205 12.7268 5.29205 20.3581 5.37586 86.4917 5.36218 166.808 5.29205 232.94 5.29205 240.193 10.9074 246.229 18.3888 246.648 18.7787 246.676 19.1824 246.676 19.5724 246.676 73.514 246.676 127.442 246.69 181.383 246.662 187.221 246.662 191.679 244.142 194.381 238.821 195.272 237.085 195.565 235.223 195.565 233.277 195.565 200.091 195.565 152.722 195.565 119.537 195.565 86.4212 195.51 53.3191 195.607 20.2051" fill="#FFFFFF" fill-rule="evenodd" transform="matrix(1 0 0 -1 159 1090)"/><path d="M57.5339 41.8692C58.1868 41.8692 58.9777 42.0936 59.3237 41.334 59.6578 40.59 59.0748 40.0548 58.6726 39.5058 49.1339 26.3597 39.5815 13.2118 30.0309 0.0656014 28.9195-1.4674 27.9616-1.49502 26.8655 0.00863176 17.216 13.2964 7.58187 26.5841-2.05399 39.858-2.35911 40.3086-2.804 40.7574-2.44263 41.3617-2.09661 41.9538-1.49831 41.8692-0.957961 41.8692 8.85859 41.8692 47.8435 41.8968 57.5339 41.8692" fill="#FFFFFF" fill-rule="evenodd" transform="matrix(1 0 0 -1 264 815)"/><path d="M-0.660008-1.08229C-1.27226-1.08229-1.99367-1.25145-2.36887-0.576532-2.77135 0.169162-2.20173 0.71635-1.79925 1.23765 7.7018 14.3253 17.2029 27.4146 26.7039 40.4902 28.0649 42.3734 28.9125 42.3734 30.3024 40.4625 39.8307 27.3456 49.3744 14.2269 58.8755 1.10991 59.2217 0.645578 59.7077 0.182971 59.3888-0.491951 59.0699-1.22384 58.3468-1.08229 57.7362-1.08229 47.9572-1.08229 9.03547-1.08229-0.660008-1.08229" fill="#FFFFFF" fill-rule="evenodd" transform="matrix(1 0 0 -1 198 815)"/><path d="M187.427 224.798C187.427 226.735 187.107 228.602 186.23 230.317 183.518 235.613 179.082 238.138 173.24 238.138 119.401 238.138 65.5481 238.138 11.709 238.138 11.3061 238.138 10.9167 238.138 10.541 238.109 3.05832 237.691-2.54604 231.682-2.54604 224.462-2.47603 158.629-2.47603 78.6753-2.54604 12.8422-2.54604 5.25905 3.58768-0.84713 11.0841-0.84713 65.3808-0.874512 119.652-0.874512 173.921-0.818037 181.739-0.818037 187.468 5.60646 187.454 12.6881 187.343 45.6543 187.427 78.6051 187.427 111.558 187.427 144.592 187.399 191.763 187.427 224.798M69.4295 101.327C72.9625 100.239 75.4095 97.0469 75.4095 93.3384 75.4369 70.0192 75.4369 46.7274 75.4095 23.4219 75.4095 21.6506 74.3662 20.5074 72.8089 20.5074 71.1679 20.5074 70.2218 21.6797 70.2218 23.6443 70.1945 46.5186 70.1945 69.3928 70.1945 92.2653 70.1945 92.8934 70.2492 93.5334 70.0545 94.1615 69.6242 95.5272 68.1915 96.5729 66.8288 96.5027 65.1861 96.4479 63.8661 95.3047 63.5451 93.7439 63.5178 93.5334 63.5178 93.3384 63.4905 93.1433 63.3231 91.4712 62.2251 90.4821 60.6661 90.607 59.1788 90.7046 58.1764 91.9453 58.3028 93.5899 58.5247 96.7543 60.0138 99.1382 62.7801 100.713 63.1148 100.908 63.4614 101.062 63.7688 101.228 56.7301 104.587 49.985 108.407 43.0726 111.962 42.7243 112.157 42.364 112.311 42.0293 112.506 41.6536 112.701 41.488 112.658 41.3906 112.213 40.069 106.163 38.7063 100.141 38.7063 93.8826 38.7336 72.0129 38.7336 50.157 38.7063 28.2719 38.7063 24.3409 35.9792 21.079 32.3216 20.5639 28.1772 19.9649 24.6032 22.152 23.4488 26.0146 23.2115 26.8361 23.1278 27.7003 23.1278 28.5782 23.1278 43.7855 23.1842 58.9928 23.1005 74.2001 23.0868 77.5321 22.2945 80.669 20.2078 83.4569 17.5371 86.9977 16.5774 91.1512 16.5774 95.5563 16.5501 103.918 17.9264 112.129 19.4565 120.325 20.9728 128.41 23.1415 136.299 26.6062 143.798 28.6229 148.174 31.8349 151.06 36.7442 151.59 41.196 152.078 45.4377 148.802 46.6057 144.216 47.5653 140.509 47.0513 136.871 45.979 133.316 45.3113 131.072 45.5623 129.135 46.3137 126.946 47.3707 123.837 49.22 122.012 52.1127 120.618 57.1894 118.234 62.0851 115.446 67.0508 112.826 71.5709 110.442 71.7792 104.936 67.4675 102.176 67.3428 102.107 67.2455 102.024 66.9945 101.856 67.9132 101.661 68.6782 101.55 69.4295 101.327M119.819 60.3876C115.479 60.3876 112.518 62.9238 111.723 67.2313 109.888 77.3935 108.025 87.5128 106.16 97.6459 105.438 101.479 107.606 104.895 111.25 105.662 115.021 106.456 118.4 104.226 119.193 100.364 119.819 97.2557 120.417 94.1341 120.917 90.9972 121.071 90.0782 121.39 89.8129 122.336 89.8129 127.148 89.8266 131.919 89.7855 136.704 89.7291 139.235 89.7017 141.306 87.9869 141.711 85.6457 142.155 83.0667 140.876 80.7529 138.47 79.8048 137.732 79.5258 136.94 79.4557 136.147 79.4557 132.182 79.4557 128.219 79.4283 124.269 79.4831 123.199 79.4985 123.031 79.1767 123.253 78.1876 123.672 76.4454 123.977 74.7032 124.242 72.9319 124.367 72.1378 124.686 71.9291 125.451 71.9291 132.044 71.9838 138.623 71.9838 145.187 71.9564 146.202 71.9564 147.259 71.9154 148.261 71.6638 150.611 71.0922 152.351 69.6991 153.449 67.4829 158.22 57.7674 163.032 48.0383 167.83 38.3074 169.485 34.9206 168.15 31.0187 164.854 29.374 161.516 27.7277 157.62 28.9975 155.938 32.3279 151.488 41.3194 147.064 50.3093 142.641 59.3145 142.252 60.136 141.794 60.4286 140.862 60.4149 137.329 60.3602 133.81 60.3876 130.278 60.3876 126.8 60.3876 123.323 60.3876 119.819 60.3876M149.151 36.7603C149.47 36.1203 149.081 35.7985 148.804 35.3946 143.644 27.9228 136.661 23.1292 127.773 21.2056 109.415 17.2746 91.5157 28.5235 87.134 46.7684 83.6436 61.3357 90.6397 77.0871 103.768 84.251 104.005 84.3759 104.256 84.4734 104.575 84.6275 105.062 81.867 105.521 79.1767 106.063 76.4865 106.189 75.7899 105.813 75.5247 105.368 75.1909 99.7207 70.9947 96.2304 65.4892 95.0897 58.5187 93.0167 45.7519 100.904 33.4009 113.394 29.8464 126.132 26.2097 139.318 32.6633 144.339 44.9852 144.409 45.1529 144.492 45.3326 144.687 45.7519 146.217 42.6423 147.663 39.6748 149.151 36.7603M44.3106 153.555C37.6202 153.709 32.1969 159.382 32.3489 166.101 32.4889 172.847 38.1359 178.269 44.8383 178.144 51.7234 177.99 57.2167 172.414 57.0648 165.697 56.8837 158.727 51.293 153.402 44.3106 153.555M110.723 108.003C104.84 107.947 100.069 112.701 100.069 118.61 100.069 124.549 104.743 129.204 110.736 129.204 116.592 129.204 121.293 124.479 121.293 118.61 121.293 112.785 116.592 108.03 110.723 108.003M166.857 132.69C166.843 131.295 166.468 130.877 165.117 130.877 162.711 130.848 160.305 130.848 157.872 130.877 156.647 130.877 156.23 131.295 156.23 132.493 156.203 135.003 156.23 137.497 156.203 140.008 156.203 141.108 156.758 141.582 157.815 141.582 160.278 141.582 162.74 141.609 165.201 141.582 166.468 141.582 166.843 141.135 166.857 139.84 166.884 138.64 166.857 137.442 166.857 136.258 166.857 135.058 166.857 133.888 166.857 132.69M157.677 113.202C156.704 113.175 156.23 113.676 156.203 114.652 156.203 117.217 156.23 119.796 156.203 122.36 156.203 123.335 156.704 123.809 157.663 123.809 160.237 123.809 162.808 123.809 165.395 123.809 166.355 123.809 166.843 123.335 166.857 122.36 166.857 119.796 166.857 117.217 166.857 114.652 166.843 113.676 166.37 113.175 165.395 113.202 164.075 113.202 162.767 113.202 161.475 113.202 160.208 113.202 158.942 113.202 157.677 113.202M166.857 97.0469C166.884 95.9602 166.37 95.4296 165.298 95.4296 162.795 95.4023 160.305 95.4023 157.801 95.4296 156.758 95.4296 156.19 95.8763 156.203 97.0058 156.23 99.5147 156.23 102.01 156.203 104.519 156.19 105.592 156.661 106.134 157.774 106.134 160.25 106.107 162.767 106.134 165.243 106.107 166.468 106.107 166.843 105.689 166.857 104.449 166.884 103.194 166.857 101.981 166.857 100.755 166.857 99.5147 166.843 98.2739 166.857 97.0469" fill="#0E4B87" fill-rule="evenodd" transform="matrix(1 0 0 -1 167 1082)"/><path d="M48.0588 81.0711C48.9662 80.8748 49.7469 80.7629 50.4864 80.5373 54.0405 79.4576 56.4818 76.2323 56.4818 72.5006 56.5092 49.0501 56.4955 25.5996 56.4955 2.14736 56.4955 0.366791 55.4495-0.783521 53.8881-0.783521 52.2429-0.783521 51.2671 0.394343 51.2671 2.37295 51.2671 25.3878 51.2671 48.4044 51.2671 71.4209 51.2671 72.0667 51.3219 72.697 51.1267 73.3289 50.6953 74.7031 49.2589 75.7553 47.8774 75.6984 46.2458 75.6296 44.9088 74.4792 44.6006 72.8933 44.5595 72.697 44.5595 72.5006 44.5458 72.3043 44.3781 70.6219 43.2619 69.6404 41.7142 69.7523 40.2231 69.8642 39.2044 71.0989 39.3311 72.7676 39.5674 75.9516 41.0602 78.3349 43.8337 79.9208 44.1692 80.1171 44.503 80.2859 44.8112 80.4392 37.7681 83.8057 30.9921 87.6631 24.0756 91.2397 23.7264 91.4085 23.3652 91.6048 23.0159 91.7856 22.653 91.9819 22.4869 91.9543 22.3893 91.4911 21.0643 85.4055 19.6844 79.3457 19.6844 73.0482 19.7255 51.0563 19.6981 29.0213 19.6981 7.0293 19.6981 3.07381 16.9641-0.208365 13.2833-0.726694 9.1283-1.3294 5.54512 0.871344 4.40151 4.75623 4.14985 5.5983 4.06596 6.45414 4.06596 7.35132 4.07966 22.6532 4.10876 37.9551 4.03857 53.257 4.02488 56.596 3.23052 59.7508 1.13847 62.556-1.52538 66.1326-2.50121 70.3137-2.50121 74.7307-2.51491 83.1462-1.13505 91.4085 0.398892 99.6552 1.91913 107.79 4.09336 115.729 7.56697 123.274 9.58883 127.678 12.8091 130.581 17.7173 131.129 22.1942 131.606 26.433 128.323 27.6177 123.695 28.5662 119.979 28.0646 116.304 26.9894 112.727 26.3064 110.468 26.558 108.532 27.325 106.302 28.3847 103.203 30.2388 101.351 33.1389 99.9497 38.2286 97.5509 43.1232 94.7595 48.1153 92.1093 52.6333 89.7243 52.8558 84.1708 48.5331 81.3932 48.4081 81.3226 48.2968 81.2244 48.0588 81.0711" fill="#FFFFFF" fill-rule="evenodd" transform="matrix(1 0 0 -1 186 1061)"/><path d="M21.4801 31.2696C18.0321 31.2696 14.5842 31.2696 11.1075 31.2696 6.80439 31.2834 3.86621 33.8475 3.08043 38.2024 1.25995 48.4468-0.58933 58.6929-2.43691 68.9512-3.15495 72.813-1.00254 76.2647 2.61134 77.0398 6.34884 77.8287 9.70023 75.5743 10.4877 71.6849 11.1075 68.5429 11.7002 65.387 12.1981 62.2294 12.3488 61.2847 12.6672 61.0027 13.6037 61.0027 18.3776 61.0321 23.1075 60.9889 27.8526 60.9335 30.3623 60.9041 32.4182 59.1566 32.8179 56.8036 33.2599 54.1962 31.9915 51.857 29.6054 50.9002 28.8738 50.6043 28.088 50.5334 27.3005 50.5334 23.37 50.5472 19.4394 50.504 15.5224 50.5611 14.4589 50.5749 14.2946 50.2514 14.5148 49.2652 14.928 47.5177 15.2328 45.727 15.4936 43.9518 15.6189 43.1352 15.9221 42.9379 16.6943 42.9518 23.2328 42.9794 29.7561 42.9794 36.2658 42.9518 37.2734 42.9518 38.3217 42.9085 39.3141 42.6697 41.646 42.1057 43.3564 40.6835 44.4605 38.4567 49.1904 28.6051 53.9626 18.769 58.7213 8.93293 60.364 5.52274 59.0397 1.56235 55.7696-0.0865091 52.4605-1.73537 48.5977-0.467149 46.9279 2.91536 42.5147 11.9763 38.1286 21.0667 33.7425 30.1692 33.3564 31.0152 32.9009 31.3111 31.9762 31.2973 28.4741 31.2263 24.9839 31.2696 21.4801 31.2696" fill="#FDFDFF" fill-rule="evenodd" transform="matrix(1 0 0 -1 276 1053)"/><path d="M55.8472 24.4752C57.3768 21.3772 58.809 18.4174 60.2959 15.5139 60.6305 14.8741 60.2549 14.5551 59.9767 14.1508 54.8042 6.70437 47.8239 1.92431 38.9403 0.00682379 20.5857-3.91174 2.69207 7.30145-1.67465 25.4903-5.17758 40.0096 1.80268 55.7111 14.9421 62.8522 15.1913 62.9784 15.4423 63.0757 15.7342 63.2275 16.2344 60.4758 16.6936 57.7958 17.2211 55.114 17.361 54.418 16.9855 54.1553 16.5263 53.8073 10.8946 49.6396 7.39167 44.1499 6.265 37.2033 4.20796 24.4752 12.0913 12.1651 24.5632 8.62185 37.3134 4.99501 50.4802 11.4281 55.499 23.711 55.5826 23.8781 55.6663 24.059 55.8472 24.4752" fill="#FDFDFF" fill-rule="evenodd" transform="matrix(1 0 0 -1 256 1061)"/><path d="M21.5762 11.4154C21.4136 4.32992 15.9694-1.09596 9.18651-0.941135 2.67401-0.784569-2.56784 4.98228-2.41855 11.8259-2.29746 18.6835 3.18824 24.1947 9.71401 24.0537 16.3874 23.9128 21.7105 18.2295 21.5762 11.4154" fill="#FFFFFF" fill-rule="evenodd" transform="matrix(1 0 0 -1 202 928)"/><path d="M18.4625 9.66442C18.4625 3.89391 13.8004-0.815399 8.01042-0.856084 2.19341-0.896769-2.53787 3.81084-2.53787 9.66442-2.53787 15.5604 2.09716 20.1578 8.01042 20.1442 13.8004 20.1442 18.4625 15.4638 18.4625 9.66442" fill="#FFFFFF" fill-rule="evenodd" transform="matrix(1 0 0 -1 270 973)"/><path d="M8.28789 4.2033C8.28789 3.10069 8.28789 1.98374 8.28789 0.881132 8.27379-0.415869 7.872-0.806243 6.49391-0.81899 4.01089-0.831737 1.51378-0.831737-0.983339-0.806243-2.24688-0.806243-2.69273-0.403122-2.69273 0.712235-2.70682 3.03536-2.69273 5.37124-2.70682 7.69437-2.70682 8.73324-2.13233 9.1746-1.04149 9.1746 1.49968 9.16186 4.02499 9.1746 6.56616 9.16186 7.872 9.14752 8.27379 8.75873 8.28789 7.52547 8.30199 6.42286 8.28789 5.3075 8.28789 4.2033" fill="#FDFDFF" fill-rule="evenodd" transform="matrix(1 0 0 -1 326 950)"/><path d="M2.72178-0.896257C1.41469-0.896257 0.107601-0.896257-1.20125-0.896257-2.2067-0.924653-2.70943-0.404647-2.70943 0.608745-2.70943 3.26734-2.70943 5.94192-2.70943 8.60229-2.70943 9.61391-2.2067 10.1055-1.20125 10.1055 1.44291 10.1055 4.10119 10.1055 6.75946 10.1055 7.77902 10.1055 8.28175 9.61391 8.28175 8.60229 8.29586 5.94192 8.29586 3.26734 8.28175 0.608745 8.28175-0.404647 7.79314-0.924653 6.75946-0.896257 5.42239-0.896257 4.07296-0.896257 2.72178-0.896257" fill="#FDFDFF" fill-rule="evenodd" transform="matrix(1 0 0 -1 326 968)"/><path d="M8.28789 4.61364C8.28789 3.35394 8.27379 2.08194 8.28789 0.822233 8.31785-0.295161 7.78565-0.8521 6.68071-0.8521 4.09724-0.866156 1.52788-0.866156-1.05559-0.8521-2.13233-0.8521-2.72092-0.379492-2.70682 0.77831-2.67687 3.33988-2.67687 5.90145-2.70682 8.47708-2.72092 9.59447-2.23278 10.1374-1.09789 10.1374 1.46972 10.1233 4.06905 10.1514 6.62432 10.1233 7.872 10.1233 8.27379 9.69462 8.28789 8.4068 8.30199 7.1471 8.28789 5.87334 8.28789 4.61364" fill="#FAFAFD" fill-rule="evenodd" transform="matrix(1 0 0 -1 326 986)"/></g></svg>