<svg width="560" height="559" xmlns="http://www.w3.org/2000/svg" xmlns:xlink="http://www.w3.org/1999/xlink" xml:space="preserve" overflow="hidden"><g transform="translate(-1231 -1471)"><path d="M472.326 72.8643C361.999-34.5275 185.353-32.2714 77.8126 77.8426-29.7873 187.974-27.5234 364.295 82.819 471.656 193.11 579.047 369.774 576.822 477.327 466.708 584.898 356.546 582.668 180.225 472.326 72.8643Z" stroke="#2E2926" stroke-width="1.46739" stroke-miterlimit="8" fill="#FFFFFF" fill-rule="evenodd" transform="matrix(1 0 0 -1 1233.5 2022.5)"/><path d="M192.567-6.15504 96.9156 100.772-1.43515-3.67425 99.0195 268.847Z" fill="#2E2926" fill-rule="evenodd" transform="matrix(1 0 0 -1 1412 1952)"/><path d="M-1.43512-3.56374 96.9137 100.956 192.567-6.04627 96.199 47.0724Z" fill="#FFD100" fill-rule="evenodd" transform="matrix(1 0 0 -1 1412 1952)"/><path d="M51.5048-6.44891C45.7243 5.06754 39.9533 16.7691 34.2016 28.7034 28.4498 40.6377 22.6789 52.7131 16.8849 64.9432L16.8849-6.44891-1.43938-6.44891-1.43938 93.553 20.6944 93.553C25.763 82.6738 30.8258 71.9988 35.8866 61.5546 40.9667 51.1276 46.0352 40.8552 51.098 30.7849L51.098 93.553 69.5623 93.553 69.5623-6.44891" fill="#2E2926" fill-rule="evenodd" transform="matrix(1 0 0 -1 1476 1628)"/></g></svg>