<svg width="636" height="560" xmlns="http://www.w3.org/2000/svg" xmlns:xlink="http://www.w3.org/1999/xlink" xml:space="preserve" overflow="hidden"><g transform="translate(-2355 -960)"><path d="M627.881 34.5203C629.84 30.8434 630.862 26.7459 630.862 22.5798 630.835 8.54338 619.469-2.81003 605.446-2.82376L605.46-2.82376 21.2496-2.78256 21.2358-2.78256C7.21207-2.76883-4.13959 8.58458-4.13959 22.6073L-4.13959 22.6227C-4.13959 27.0394-2.99171 31.3738-0.807641 35.2189L291.275 543.662C295.839 551.423 304.18 556.176 313.165 556.176 322.333 556.176 330.772 551.241 335.279 543.257L627.881 34.5203" fill="#2E2E2E" fill-rule="evenodd" transform="matrix(1 0 0 -1 2360 1517)"/><path d="M243.645 429.196 491.864-2.80546-4.13643-2.79174" fill="#FDB724" fill-rule="evenodd" transform="matrix(1 0 0 -1 2429 1466)"/><path d="M5.2224 1.03845C-4.32914 7.56017-7.16323 20.8309-0.420055 30.7883 6.32484 40.7474 19.6483 42.9638 29.1999 36.4421 39.1149 29.681 41.949 16.4119 35.2041 6.45284 28.4592-3.50627 15.1374-5.73643 5.2224 1.03845" fill="#2E2E2E" fill-rule="evenodd" transform="matrix(1 0 0 -1 2644 1243)"/><path d="M5.2224 1.03845C-4.32914 7.56017-7.16323 20.8309-0.420055 30.7883 6.32484 40.7474 19.6483 42.9638 29.1999 36.4421 39.1149 29.681 41.949 16.4119 35.2041 6.45284 28.4592-3.50627 15.1374-5.73643 5.2224 1.03845Z" stroke="#241F21" stroke-width="0.231693" stroke-miterlimit="8" fill="none" fill-rule="evenodd" transform="matrix(1 0 0 -1 2644.5 1243.5)"/><path d="M0.164322 0.931607C5.51777-4.02551 14.0124-3.73158 19.0423 1.5607L61.3631 46.2194C66.3931 51.5254 66.125 59.9116 60.7715 64.867 55.4181 69.8104 46.9235 69.5302 41.9073 64.2242L-0.427238 19.5792C-5.45722 14.2732-5.18912 5.887 0.164322 0.931607" fill="#2E2E2E" fill-rule="evenodd" transform="matrix(1 0 0 -1 2522 1438)"/><path d="M6.98015-2.51324C14.1796-3.72237 21.0837 1.38358 22.3354 8.82658L32.7565 71.4331C33.9926 78.8744 29.1136 85.9374 21.9142 87.1327 14.7148 88.3436 7.81058 83.2359 6.55889 75.7946L-3.86213 13.1881C-5.09829 5.74505-0.219263-1.31621 6.98015-2.51324" fill="#2E2E2E" fill-rule="evenodd" transform="matrix(1 0 0 -1 2564 1394)"/><path d="M47.4872 43.9306C51.4239 39.5151 50.5519 32.2502 45.5171 27.7781L14.7902 0.588395C9.7692-3.86831 2.38619-3.9112-1.57986 0.518062-5.53208 4.9336-4.64633 12.2002 0.374676 16.6569L31.1033 43.8603C36.1381 48.317 43.5211 48.3444 47.4872 43.9306" fill="#2E2E2E" fill-rule="evenodd" transform="matrix(1 0 0 -1 2553 1295)"/><path d="M61.7657 19.0898C62.935 12.4334 58.3827 6.00334 51.6441 4.77849L10.5148-2.62247C3.77617-3.83177-2.69922 0.613291-3.86848 7.26966-5.03774 13.9243-0.485483 20.3405 6.25315 21.5654L47.3824 28.9802C54.1211 30.1912 60.5964 25.7444 61.7657 19.0898" fill="#2E2E2E" fill-rule="evenodd" transform="matrix(1 0 0 -1 2584 1269)"/><path d="M72.1264 97.9253C83.1212 90.4356 86.2574 75.6809 79.1072 65.1326L39.7392 7.10543C32.5908-3.4292 17.748-5.91662 6.75324 1.57308-4.22783 9.0765-7.37775 23.8312-0.213873 34.3658L39.1541 92.3912C46.2889 102.928 61.1453 105.415 72.1264 97.9253" fill="#241F21" fill-rule="evenodd" transform="matrix(1 0 0 -1 2575 1342)"/><path d="M72.1264 97.9253C83.1212 90.4356 86.2574 75.6809 79.1072 65.1326L39.7392 7.10543C32.5908-3.4292 17.748-5.91662 6.75324 1.57308-4.22783 9.0765-7.37775 23.8312-0.213873 34.3658L39.1541 92.3912C46.2889 102.928 61.1453 105.415 72.1264 97.9253" fill="#2E2E2E" fill-rule="evenodd" transform="matrix(1 0 0 -1 2575 1342)"/><path d="M17.2844-2.51261C24.4516-1.65317 29.6458 5.00965 28.8409 12.3054L22.0216 73.6299C21.2304 80.9118 14.6873 86.1653 7.5355 85.3058 0.368334 84.4325-4.81222 77.7697-3.9937 70.4878L2.79832 9.16505C3.6049 1.89699 10.1326-3.37204 17.2844-2.51261" fill="#241F21" fill-rule="evenodd" transform="matrix(1 0 0 -1 2634 1459)"/><path d="M17.2844-2.51261C24.4516-1.65317 29.6458 5.00965 28.8409 12.3054L22.0216 73.6299C21.2304 80.9118 14.6873 86.1653 7.5355 85.3058 0.368334 84.4325-4.81222 77.7697-3.9937 70.4878L2.79832 9.16505C3.6049 1.89699 10.1326-3.37204 17.2844-2.51261" fill="#2E2E2E" fill-rule="evenodd" transform="matrix(1 0 0 -1 2634 1459)"/><path d="M52.3105-0.434057C58.2866 3.65946 59.7353 12.0575 55.5141 18.2475L20.0731 70.3138C15.8673 76.4901 7.53597 78.2092 1.55987 74.1156-4.41622 70.0204-5.86663 61.6224-1.65908 55.4323L33.7956 3.36609C38.0031-2.81022 46.3327-4.52929 52.3105-0.434057" fill="#2E2E2E" fill-rule="evenodd" transform="matrix(1 0 0 -1 2598 1397)"/><path d="M0.307587 52.7001C5.20677 55.9693 12.2488 54.1136 15.9655 48.5991L38.6381 14.9053C42.3548 9.39257 41.379 2.20271 36.4799-1.06819 31.5807-4.33739 24.5386-2.49527 20.822 3.03277L-1.85065 36.7266C-5.56562 42.2393-4.57793 49.4292 0.307587 52.7001" fill="#2E2E2E" fill-rule="evenodd" transform="matrix(1 0 0 -1 2644 1350)"/><path d="M6.39118 64.1086C13.02 65.0229 19.2026 60.1664 20.1225 53.3121L25.7904 11.4619C26.724 4.60585 22.0579-1.75593 15.4291-2.67191 8.81395-3.58617 2.61768 1.27028 1.69782 8.12635L-3.97012 49.9748C-4.91734 56.8309-0.23766 63.1926 6.39118 64.1086" fill="#2E2E2E" fill-rule="evenodd" transform="matrix(1 0 0 -1 2638 1316)"/><path d="M-4.1659 46.1042 123.211 46.1042 123.211-2.89729 212.836-2.89729" stroke="#2E2E2E" stroke-width="3.61867" stroke-miterlimit="8" fill="none" fill-rule="evenodd" transform="matrix(1 0 0 -1 2590 1209)"/></g></svg>