<svg width="201" height="579" xmlns="http://www.w3.org/2000/svg" xmlns:xlink="http://www.w3.org/1999/xlink" xml:space="preserve" overflow="hidden"><g transform="translate(-349 -1743)"><path d="M45.4645-2.26774C33.1761-2.26774 21.6247 2.51714 12.9354 11.2093 4.24896 19.8986-0.535941 31.447-0.535941 43.7321-0.535941 56.0205 4.24896 67.5719 12.9354 76.2611 21.6247 84.9475 33.1761 89.7324 45.4645 89.7324 57.7526 89.7324 69.3068 84.9475 77.9932 76.2611 86.6796 67.5719 91.4645 56.0205 91.4645 43.7321 91.4645 31.447 86.6796 19.8986 77.9932 11.2093 69.3039 2.51714 57.7526-2.26774 45.4645-2.26774M45.4645 70.1315C30.9069 70.1315 19.065 58.2897 19.065 43.7321 19.065 29.1746 30.9069 17.3328 45.4645 17.3328 60.0217 17.3328 71.864 29.1746 71.864 43.7321 71.864 58.2897 60.0217 70.1315 45.4645 70.1315" fill="#6E6E70" fill-rule="evenodd" transform="matrix(1 0 0 -1 404 1833)"/><path d="M193.926 426.577C190.371 435.071 185.279 442.694 178.793 449.233 172.295 455.785 164.717 460.927 156.269 464.521 147.513 468.241 138.205 470.127 128.601 470.127L109.165 470.127 89.7598 470.127 70.3276 470.127C60.7202 470.127 51.4124 468.241 42.6623 464.521 34.2088 460.927 26.6303 455.785 20.1323 449.233 13.6461 442.694 8.55473 435.071 4.99873 426.577 1.32557 417.797-0.536068 408.47-0.536068 398.854L-0.533184 278.474-0.533184 278.442C-0.49497 266.937 6.09105 256.45 17.4339 251.276 17.4898 251.249 17.5453 251.226 17.6012 251.205 23.8231 248.86 30.1539 248.542 35.9439 249.984 37.3827 250.343 38.7717 249.236 38.7717 247.75L38.7717 33.4045C38.7717 23.9775 42.433 15.1156 49.0868 8.45503 55.7373 1.7945 64.5783-1.87291 73.9863-1.87291 83.2091-1.87291 91.6153 1.70597 97.896 7.55127 98.7828 8.37553 100.145 8.37553 101.029 7.55127 107.31 1.70597 115.716-1.87291 124.939-1.87291 134.347-1.87291 143.191 1.7945 149.839 8.45503 156.492 15.1156 160.154 23.9775 160.154 33.4045L160.154 247.753C160.154 249.239 161.548 250.34 162.99 249.984 165.292 249.41 167.676 249.115 170.108 249.115 177.93 249.115 185.291 252.165 190.831 257.701 196.369 263.237 199.432 270.601 199.461 278.442L199.464 398.854C199.464 408.47 197.599 417.797 193.926 426.577M180.052 278.489C180.026 273.017 175.566 268.567 170.108 268.567 164.649 268.567 160.189 273.017 160.159 278.489L160.168 380.218C160.168 381.487 159.14 382.516 157.875 382.516L143.041 382.516C141.776 382.516 140.748 381.487 140.748 380.218L140.748 33.4045C140.748 24.6778 133.657 17.5818 124.939 17.5818 116.242 17.5818 109.165 24.6778 109.165 33.4045L109.165 195.693C109.165 196.962 108.141 197.992 106.875 197.992L92.0529 197.992C90.7876 197.992 89.7598 196.962 89.7598 195.693L89.7598 33.4045C89.7598 24.6778 82.6835 17.5818 73.9863 17.5818 65.2683 17.5818 58.1772 24.6778 58.1772 33.4045L58.1657 380.218C58.1657 381.487 57.1408 382.516 55.8754 382.516L41.0501 382.516C39.7847 382.516 38.7598 381.487 38.7598 380.218L38.7656 278.489C38.7364 273.017 34.2791 268.567 28.8179 268.567 23.3591 268.567 18.9019 273.017 18.8727 278.489L18.8698 398.854C18.8698 412.729 24.2049 425.75 33.8945 435.521 43.5902 445.292 56.5272 450.676 70.3276 450.676L85.3346 450.676 85.3346 450.749 115.787 450.749 115.787 450.676 128.601 450.676C142.398 450.676 155.338 445.292 165.031 435.521 174.72 425.75 180.058 412.729 180.058 398.854" fill="#6E6E70" fill-rule="evenodd" transform="matrix(1 0 0 -1 350 2320)"/></g></svg>