<svg width="251" height="251" xmlns="http://www.w3.org/2000/svg" xmlns:xlink="http://www.w3.org/1999/xlink" xml:space="preserve" overflow="hidden"><g transform="translate(-1224 -1329)"><path d="M228.004 248.896 19.6722 248.896C8.16584 248.896-1.16222 239.568-1.16222 228.065L-1.16222 15.562C-1.16222 6.36016 6.30196-1.10412 15.5066-1.10412L232.169-1.10412C241.377-1.10412 248.838 6.36016 248.838 15.562L248.838 228.065C248.838 239.568 239.51 248.896 228.004 248.896" fill="#0E4B87" fill-rule="evenodd" transform="matrix(1 0 0 -1 1226 1578)"/><path d="M9.43633-1.12262C15.2416-1.06231 19.89 3.68633 19.8297 9.486 19.7694 15.2772 15.0206 19.9366 9.22095 19.8763 3.41886 19.816-1.23233 15.0561-1.16923 9.26486-1.10895 3.46802 3.63706-1.18293 9.43633-1.12262" fill="#FFFFFF" fill-rule="evenodd" transform="matrix(1 0 0 -1 1372 1430)"/><path d="M62.0946 7.90872 45.7705 39.8357C45.1015 41.1443 43.7489 41.9679 42.2716 41.9679L17.278 41.9679 15.5169 50.5583 32.5838 50.5583C35.2687 50.5703 37.447 52.7378 37.447 55.408 37.447 58.0814 35.2687 60.249 32.5838 60.2577L13.5603 60.2577 11.1244 71.9566C10.4317 75.3125 7.13412 77.4801 3.75694 76.7947 0.382672 76.1123-1.79888 72.8362-1.11204 69.4836L6.46217 32.5892C6.8354 30.7744 8.44567 29.4688 10.3045 29.4688L34.6232 29.4688C36.0943 29.4688 37.447 28.6455 38.116 27.3395L50.9386 2.33257C52.0484 0.15057 54.2801-1.10238 56.5889-1.07891 57.5094-1.06988 58.4419-0.852509 59.3239-0.417047 62.3995 1.12115 63.6456 4.85291 62.0946 7.90872" fill="#FFFFFF" fill-rule="evenodd" transform="matrix(1 0 0 -1 1380 1511)"/><path d="M58.8394 29.5663C56.764 17.6926 46.473 8.57949 34.0217 8.45041 19.9777 8.30077 8.43121 19.6369 8.28455 33.7129 8.18499 43.3987 13.5019 51.892 21.4037 56.3061L19.4422 65.9417C7.16343 60.3972-1.35009 47.9538-1.20091 33.6131-0.998905 14.2917 14.8456-1.26165 34.1213-1.05612 47.4859-0.915136 59.0328 6.76761 64.7973 17.8982" fill="#FFFFFF" fill-rule="evenodd" transform="matrix(1 0 0 -1 1359 1520)"/><path d="M9.42035-1.15582C15.2156-1.15582 19.9189 3.54809 19.9189 9.34134 19.9189 15.1342 15.2156 19.8441 9.42035 19.8441 3.62223 19.8441-1.08105 15.1342-1.08105 9.34134-1.08105 3.54809 3.62223-1.15582 9.42035-1.15582" fill="#FFFFFF" fill-rule="evenodd" transform="matrix(1 0 0 -1 1287 1408)"/><path d="M1.90448 5.00346C0.250729 5.00346-1.09544 3.66259-1.09544 1.99912-1.09544 0.344494 0.250729-0.996735 1.90448-0.996735 3.56423-0.996735 4.9044 0.344494 4.9044 1.99912 4.9044 3.66259 3.56423 5.00346 1.90448 5.00346" fill="#FFFFFF" fill-rule="evenodd" transform="matrix(1 0 0 -1 1309 1520)"/><path d="M1.87658 5.00346C0.220006 5.00346-1.12334 3.66259-1.12334 1.99912-1.12334 0.344494 0.220006-0.996735 1.87658-0.996735 3.53634-0.996735 4.8765 0.344494 4.8765 1.99912 4.8765 3.66259 3.53634 5.00346 1.87658 5.00346" fill="#FFFFFF" fill-rule="evenodd" transform="matrix(1 0 0 -1 1335 1520)"/><path d="M77.5889 56.4581 72.0144 56.4581 72.0144 67.1815C72.0144 69.0749 70.4618 70.6103 68.5483 70.6103L59.4013 70.6103C59.5342 70.9622 59.6409 71.3227 59.6911 71.6861 59.9841 73.5968 59.2063 75.5898 57.5056 76.7884L46.0192 84.9563 41.9178 90.8002 42.4707 96.3537C43.0473 102.113 38.7592 107.291 32.9509 107.86L32.8387 107.865C28.9318 108.247 25.3238 106.427 23.1859 103.461 22.9372 103.165 22.7095 102.851 22.5262 102.494 22.4938 102.438 22.4612 102.382 22.4347 102.326L2.31579 63.0871C0.973084 60.4788 2.02314 57.2962 4.65519 55.9717 5.43002 55.5758 6.25497 55.3941 7.06829 55.3941 9.02027 55.3941 10.8949 56.4553 11.8353 58.2925L19.51 73.2568 18.9123 64.4588C18.327 59.0017 17.5609 54.7932 19.0336 48.6712L15.8279 37.7132-0.357645 8.02222C-1.99591 5.04182-0.884126 1.29931 2.12953-0.330316 5.14028-1.95995 8.9255-0.860693 10.5638 2.11971L26.7493 31.8107 28.8196 37.7104 29.8279 34.4367 29.8279 5.07096C29.8279 1.67425 32.6106-1.08342 36.0502-1.08342 39.4807-1.08342 42.2696 1.67425 42.2696 5.07096L42.2696 35.4507 38.4161 55.5758 40.4331 75.8917 51.3073 68.1631C52.691 67.1902 54.3678 66.9822 55.8731 67.4071 55.8702 67.328 55.826 67.2607 55.826 67.1815L55.826 56.4581 50.0503 56.4581C48.7816 56.4581 47.7523 55.438 47.7523 54.1808L47.7523 9.20315C47.7523 7.94594 48.7816 6.9262 50.0503 6.9262L77.5889 6.9262C78.8575 6.9262 79.8869 7.94594 79.8869 9.20315L79.8869 54.1808C79.8869 55.438 78.8575 56.4581 77.5889 56.4581M53.1434 10.0354 51.7982 10.0354 51.7982 52.9178 53.1434 52.9178ZM58.1621 67.1815C58.1621 67.7997 58.6679 68.3009 59.292 68.3009L68.5483 68.3009C69.1724 68.3009 69.6782 67.7997 69.6782 67.1815L69.6782 56.4581 58.1621 56.4581ZM58.804 10.0354 57.4559 10.0354 57.4559 52.9178 58.804 52.9178ZM64.4613 10.0354 63.1132 10.0354 63.1132 52.9178 64.4613 52.9178ZM70.1158 10.0354 68.7676 10.0354 68.7676 52.9178 70.1158 52.9178ZM75.7731 10.0354 74.4249 10.0354 74.4249 52.9178 75.7731 52.9178Z" fill="#FFFFFF" fill-rule="evenodd" transform="matrix(1 0 0 -1 1260 1520)"/></g></svg>