<svg width="251" height="251" xmlns="http://www.w3.org/2000/svg" xmlns:xlink="http://www.w3.org/1999/xlink" xml:space="preserve" overflow="hidden"><g transform="translate(-3574 -698)"><path d="M16.0561 248.29C6.4428 248.29-1.42427 240.423-1.42427 230.81L-1.42427 15.7708C-1.42427 6.15737 6.4428-1.70944 16.0561-1.70944L231.096-1.70944C240.709-1.70944 248.576 6.15737 248.576 15.7708L248.576 230.81C248.576 240.423 240.709 248.29 231.096 248.29" fill="#2E2A26" fill-rule="evenodd" transform="matrix(1 0 0 -1 3576 947)"/><path d="M12.53-1.80331C20.2612-1.80331 26.53 4.46471 26.53 12.1927 26.53 19.9292 20.2612 26.1973 12.53 26.1973 4.79605 26.1973-1.46987 19.9292-1.46987 12.1927-1.46987 4.46471 4.79605-1.80331 12.53-1.80331" fill="#FFFFFF" fill-rule="evenodd" transform="matrix(1 0 0 -1 3733 763)"/><path d="M12.642-1.80331C20.3731-1.80331 26.6419 4.46471 26.6419 12.1927 26.6419 19.9292 20.3731 26.1973 12.642 26.1973 4.90796 26.1973-1.35796 19.9292-1.35796 12.1927-1.35796 4.46471 4.90796-1.80331 12.642-1.80331" fill="#FFFFFF" fill-rule="evenodd" transform="matrix(1 0 0 -1 3631 763)"/><path d="M1.16546 17.3173C-0.278696 17.3173-1.4608 16.157-1.4608 14.7391L-1.4608 0.895655C-1.4608-0.522258-0.278696-1.6826 1.16546-1.6826L111.91-1.6826C113.354-1.6826 114.539-0.522258 114.539 0.895655L114.539 14.7391C114.539 16.157 113.354 17.3173 111.91 17.3173" fill="#FFFFFF" fill-rule="evenodd" transform="matrix(1 0 0 -1 3673 832)"/><path d="M46.9973 40.2462 18.0394 40.2462C7.20792 40.2462-1.48185 31.5263-1.48185 20.7657L-1.48185-1.75372 11.0665-1.75372 11.0665 15.604C11.0665 16.5437 11.8374 17.313 12.7889 17.313 13.7404 17.313 14.5145 16.5437 14.5145 15.604L14.5145-1.75372 50.5251-1.75372 50.5251 15.604C50.5251 16.5437 51.2963 17.313 52.2475 17.313 53.199 17.313 53.976 16.5437 53.976 15.604L53.976-1.75372 66.5182-1.75372 66.5182 20.7657C66.5182 31.5263 57.8288 40.2462 46.9973 40.2462" fill="#FFFFFF" fill-rule="evenodd" transform="matrix(1 0 0 -1 3713 809)"/><path d="M-1.40776 6.58071C-1.40776 2.02341 2.4042-1.68732 7.09103-1.68732 11.7928-1.68732 15.5928 2.02341 15.5928 6.58071L15.5928 130.313-1.40776 130.313" fill="#FFFFFF" fill-rule="evenodd" transform="matrix(1 0 0 -1 3637 913)"/><path d="M26.6496 6.70725C26.6496 2.06045 22.8731-1.72748 18.2548-1.72748L7.04468-1.72748C2.42634-1.72748-1.35019 2.06045-1.35019 6.70725L-1.35019 66.8374C-1.35019 71.4727 2.42634 75.2725 7.04468 75.2725L18.2548 75.2725C22.8731 75.2725 26.6496 71.4727 26.6496 66.8374" fill="#FFFFFF" fill-rule="evenodd" transform="matrix(1 0 0 -1 3631 844)"/></g></svg>