<svg width="500" height="500" xmlns="http://www.w3.org/2000/svg" xmlns:xlink="http://www.w3.org/1999/xlink" xml:space="preserve" overflow="hidden"><g transform="translate(-3276 -1528)"><path d="M-1.46629 465.429-1.46629 32.2963C-1.46629 14.1067 13.2774-0.637704 31.4665-0.637704L464.601-0.637704C482.79-0.637704 497.534 14.1067 497.534 32.2963L497.534 465.429C497.534 483.619 482.79 498.363 464.601 498.363L31.4665 498.363C13.2774 498.363-1.46629 483.619-1.46629 465.429" fill="#2E2926" fill-rule="evenodd" transform="matrix(1 0 0 -1 3278 2027)"/><path d="M26.594 13.3059C26.594 21.0366 20.3283 27.3044 12.5941 27.3044 4.8656 27.3044-1.4062 21.0366-1.4062 13.3059-1.4062 5.5727 4.8656-0.695463 12.5941-0.695463 20.3283-0.695463 26.594 5.5727 26.594 13.3059" fill="#FFFFFF" fill-rule="evenodd" transform="matrix(1 0 0 -1 3459 1747)"/><path d="M5.1322 112.174C4.40084 111.464 3.87295 110.573 3.60467 109.589L-1.2024 92.041C-2.0279 89.0203-0.246563 85.8998 2.77591 85.0745 3.277 84.9359 3.78461 84.8712 4.27701 84.8712 6.77486 84.8712 9.06019 86.5275 9.75027 89.05L14.1439 105.101 17.2612 108.113 14.0023 79.069 14.091 79.0599C14.0852 78.9424 14.0526 78.8302 14.0497 78.7122L13.3596 8.00628C13.3126 3.30903 17.0871-0.539445 21.7906-0.586841L21.8764-0.586841C26.5415-0.586841 30.3424 3.17046 30.3899 7.83805L30.9793 67.9859 46.0135 61.662 46.0135 45.6932C46.0135 40.996 49.8263 37.1859 54.5298 37.1859 59.2305 37.1859 63.0433 40.996 63.0433 45.6932L63.0433 67.3141C63.0433 70.7353 60.9908 73.8265 57.8326 75.1525L46.1695 80.0592 48.4371 100.248C48.7057 100.044 48.9414 99.8027 49.2452 99.6468L67.346 90.4465C68.1715 90.0254 69.0502 89.8278 69.9145 89.8278 71.9815 89.8278 73.9779 90.9625 74.9775 92.9278 76.399 95.7216 75.2871 99.1399 72.4949 100.557L56.1812 108.85 49.3042 124.238C47.2282 129.586 42.3299 133.63 36.2317 134.313 30.7526 134.926 25.6125 132.686 22.2978 128.776" fill="#FFFFFF" fill-rule="evenodd" transform="matrix(1 0 0 -1 3428 1884)"/><path d="M260.919 130.359 260.919 300.193C270.504 294.702 275.75 290.073 275.912 289.926L275.932 289.908 281.099 295.596 286.477 301.47C285.056 302.777 250.907 334.362 188.15 334.362 127.406 334.362 98.7885 304.628 95.5903 301.19L-1.46761 208.979 9.31174 197.632 106.561 290.02 106.991 290.464C107.241 290.741 132.398 318.706 188.15 318.706 215.456 318.706 236.7 311.996 251.522 305.057L251.522 194.921 123.793 194.921 123.793 185.525 159.142 185.525 159.142 130.359 119.456 130.359 119.456 88.984 84.9254 88.984 84.9254 52.2376 41.0332 52.2376 41.0332 8.75799 8.01751 8.75799 8.01751-0.638423 286.532-0.638423 286.532 8.75799 223.767 8.75799 223.767 90.9675 163.564 90.9675 163.564 8.75799 76.2494 8.75799 157.897 96.2115 228.224 96.2115 260.878 130.359M223.222 185.525 251.522 185.525 251.522 130.359 223.222 130.359ZM168.536 185.525 213.832 185.525 213.832 130.359 168.536 130.359Z" fill="#FFFFFF" fill-rule="evenodd" transform="matrix(1 0 0 -1 3383 1945)"/></g></svg>