<svg width="584" height="585" xmlns="http://www.w3.org/2000/svg" xmlns:xlink="http://www.w3.org/1999/xlink" xml:space="preserve" overflow="hidden"><g transform="translate(-1584 -347)"><path d="M-4.76254 80.2112 14.0107 99.0602C19.7297 104.807 24.4756 107.589 28.2226 107.416 32.1664 107.416 37.0728 104.449 42.9764 98.5291L96.8913 44.3797C102.068 39.164 104.841 34.4051 105.198 30.1029 105.557 25.7901 103.499 21.3894 99.0357 16.8899L78.6493-3.5783" fill="#2E2A26" fill-rule="evenodd" transform="matrix(1 0 0 -1 1941 789)"/><path d="M-4.55745 82.3792 15.9511 102.725C24.411 111.116 32.6866 111.3 40.8007 103.266L100.177 44.355 103.415 41.1481C107.932 36.6636 109.892 32.3887 109.357 28.2843 108.812 24.1694 105.933 19.525 100.724 14.3647L82.3615-3.84345" fill="#2E2A26" fill-rule="evenodd" transform="matrix(1 0 0 -1 1726 577)"/><path d="M5.98538 307.314 92.2556 220.593C87.9711 215.565 86.0994 211.524 86.6285 208.485 86.8009 202.196 90.9131 193.4 98.9546 182.094 106.81 170.963 117.709 158.397 131.648 144.386 143.974 131.995 156.386 120.59 168.885 110.175 181.568 99.9452 192.01 92.8536 200.236 88.9111 207.735 86.3794 214.347 87.467 220.049 92.1361L303.387 8.38097C289.264-2.56511 267.936-6.06161 239.344-2.12065 223.632 0.0288214 207.464 4.78588 190.852 12.149 174.241 19.5136 157.272 29.7422 139.947 42.8636 122.621 56.3186 104.864 72.2083 86.6285 90.5312 60.3754 116.909 40.1061 141.952 25.8102 165.661 11.5263 189.718 1.97144 214.391-2.85587 239.719-4.99815 254.434-5.18411 267.9-3.39862 280.12-1.78549 292.5 1.34252 301.568 5.98538 307.314" fill="#2E2A26" fill-rule="evenodd" transform="matrix(1 0 0 -1 1710 807)"/><path d="M-4.63963 288.292C-4.63963 449.56 125.864 580.298 286.866 580.298 447.869 580.298 578.362 449.56 578.362 288.292 578.362 127.023 447.869-3.70162 286.866-3.70162 125.864-3.70162-4.63963 127.023-4.63963 288.292M286.866 560.819C136.597 560.819 14.7914 438.816 14.7914 288.292 14.7914 137.779 136.597 15.7637 286.866 15.7637 437.124 15.7637 558.931 137.779 558.931 288.292 558.931 438.816 437.124 560.819 286.866 560.819" fill="#2E2A26" fill-rule="evenodd" transform="matrix(1 0 0 -1 1589 928)"/></g></svg>