<svg width="905" height="189" xmlns="http://www.w3.org/2000/svg" xmlns:xlink="http://www.w3.org/1999/xlink" xml:space="preserve" overflow="hidden"><g transform="translate(-339 -616)"><path d="M-1.83415-6.29518-1.83415 137.707 29.3174 137.707C39.3524 137.707 48.1848 136.092 55.818 132.863 63.4494 129.606 69.4231 124.791 73.721 118.379 78.0189 111.966 80.1678 103.969 80.1678 94.3859 80.1678 85.0395 78.0189 77.206 73.721 70.8526 69.4231 64.5138 63.4494 59.6842 55.818 56.3675 48.1848 53.0799 39.3524 51.4361 29.3174 51.4361L22.8705 51.4361 22.8705-6.29518ZM28.6077 73.1929C45.8138 73.1929 54.3787 80.2427 54.3787 94.3859 54.3787 101.496 52.2006 106.914 47.8445 110.604 43.4866 114.306 37.2617 116.143 29.1409 116.143L22.8705 116.143 22.8705 73.1929" fill="#0E4B87" fill-rule="evenodd" transform="matrix(1 0 0 -1 341 756)"/><path d="M-1.91783-6.23862-1.91783 97.4205 20.7086 97.4205 20.7086 81.1672C22.8474 85.8081 25.812 89.89 29.6169 93.4562 33.4235 96.9935 38.8221 98.763 45.8288 98.763 48.203 98.763 50.282 98.5712 52.0821 98.1877L49.9434 76.908C49.1031 77.1721 48.232 77.3639 47.3627 77.4815 46.4626 77.6299 45.3561 77.6878 44.0432 77.6878 38.9398 77.6878 34.5445 76.4954 30.8574 74.1071 27.1847 71.7206 24.0571 67.579 21.4167 61.6407L21.4167-6.23862" fill="#0E4B87" fill-rule="evenodd" transform="matrix(1 0 0 -1 439 756)"/><path d="M11.0266 110.594C7.342 110.594 4.26187 112.014 1.7699 114.87-0.720265 117.711-1.9744 121.142-1.9744 125.151-1.9744 129.162-0.720265 132.594 1.7699 135.449 4.26187 138.305 7.342 139.711 11.0266 139.711 14.8288 139.711 17.9397 138.305 20.3864 135.449 22.8042 132.594 24.0275 129.162 24.0275 125.151 24.0275 121.142 22.8042 117.711 20.3864 114.87 17.9397 112.014 14.8288 110.594 11.0266 110.594M-0.720265 97.78 22.5979 97.78 22.5979-6.29063-0.720265-6.29063" fill="#0E4B87" fill-rule="evenodd" transform="matrix(1 0 0 -1 504 756)"/><path d="M-2.17739-6.23862-2.17739 97.4205 20.4551 97.4205 20.4551 81.1672C22.5945 85.8081 25.5599 89.89 29.3676 93.4562 33.1735 96.9935 38.5735 98.763 45.5821 98.763 47.9569 98.763 50.0383 98.5712 51.8226 98.1877L49.6832 76.908C48.8427 77.1721 47.9877 77.3639 47.1019 77.4815 46.2161 77.6299 45.1093 77.6878 43.7978 77.6878 38.6912 77.6878 34.2948 76.4954 30.6066 74.1071 26.933 71.7206 23.7756 67.579 21.1634 61.6407L21.1634-6.23862" fill="#0E4B87" fill-rule="evenodd" transform="matrix(1 0 0 -1 673 756)"/><path d="M10.7678 110.594C7.08321 110.594 4.00308 112.014 1.51111 114.87-0.979054 117.711-2.23137 121.142-2.23137 125.151-2.23137 129.162-0.979054 132.594 1.51111 135.449 4.00308 138.305 7.08321 139.711 10.7678 139.711 14.5555 139.711 17.6809 138.305 20.1131 135.449 22.5454 132.594 23.7688 129.162 23.7688 125.151 23.7688 121.142 22.5454 117.711 20.1131 114.87 17.6809 112.014 14.5555 110.594 10.7678 110.594M-0.979054 97.78 22.3391 97.78 22.3391-6.29063-0.979054-6.29063" fill="#0E4B87" fill-rule="evenodd" transform="matrix(1 0 0 -1 738 756)"/><path d="M54.8691-2.78106C52.725-3.68092 50.3122-4.47577 47.6783-5.2 45.0425-5.89165 41.5586-6.26101 37.2411-6.26101 28.6062-6.26101 22.0259-3.489 17.4708 2.07131 12.8993 7.61532 10.6364 15.6688 10.6364 26.2408L10.6364 82.7528-2.31592 82.7528-2.31592 99.785 10.6364 99.785 10.6364 119.339 34.1886 130.739 34.1886 99.785 55.5985 99.785 55.5985 82.7528 34.1886 82.7528 34.1886 30.9013C34.1886 24.5751 34.9928 20.1808 36.616 17.7329 38.2391 15.285 40.9188 14.061 44.6404 14.061 47.0367 14.061 49.1369 14.3398 50.9977 14.9156 52.8585 15.5203 54.7485 16.2428 56.6842 17.1571" fill="#0E4B87" fill-rule="evenodd" transform="matrix(1 0 0 -1 777 758)"/><path d="M18.6029-6.20794C10.4592-6.20794 3.45965-4.17602-2.39584-0.0488529L1.36306 20.4802C3.75708 18.6673 6.12008 17.2379 8.45205 16.221 10.7859 15.1896 13.3131 14.6595 16.0921 14.6595 19.5554 14.6595 22.8399 16.5014 25.9455 20.1853 29.0822 23.8402 32.1277 30.6923 35.1001 40.7723 32.6039 47.3457 29.8249 54.8166 26.7776 63.2175 23.7158 71.5877 20.6101 80.298 17.4296 89.4063 14.2638 98.4839 11.2019 107.399 8.27506 116.08 5.3464 124.789 2.74619 132.688 0.4726 139.792L25.7813 139.792C29.126 127.796 32.7225 115.344 36.5562 102.448 40.3772 89.5529 43.9737 77.7196 47.3311 66.8724 48.9825 73.4604 50.8693 80.9765 52.964 89.5094 55.0606 98.0261 57.1408 106.633 59.1772 115.402 61.2135 124.186 62.9963 132.29 64.5564 139.792L88.6043 139.792C86.4639 131.774 84.0717 123.198 81.4404 113.958 78.8092 104.746 76.0758 95.4044 73.2657 85.9269 70.4575 76.4512 67.6931 67.2995 65.0181 58.4571 62.312 49.6292 59.7574 41.6137 57.378 34.378 54.9858 27.0519 52.1466 20.3174 48.8475 14.1873 45.563 8.05712 41.4902 3.13383 36.6456-0.624232 31.7864-4.33706 25.7813-6.20794 18.6029-6.20794" fill="#0E4B87" fill-rule="evenodd" transform="matrix(1 0 0 -1 837 798)"/><path d="M43.8636-6.28123C34.0527-6.28123 25.709-4.03444 18.7614 0.399269 11.8448 4.86383 6.53023 11.1469 2.90881 19.2176-0.758185 27.2882-2.55523 36.7636-2.55523 47.6129L-2.55523 139.719 22.5177 139.719 22.5177 52.0774C22.5177 39.2917 24.2546 30.0378 27.7139 24.3609 31.1877 18.6713 36.5751 15.8165 43.8636 15.8165 51.3907 15.8165 56.8238 18.6713 60.1627 24.3609 63.5035 30.0378 65.1802 39.2917 65.1802 52.0774L65.1802 139.719 90.4464 139.719 90.4464 47.6129C90.4464 31.2047 86.4386 18.1232 78.3482 8.35199 70.287-1.40289 58.783-6.28123 43.8636-6.28123" fill="#0E4B87" fill-rule="evenodd" transform="matrix(1 0 0 -1 981 758)"/><path d="M-0.331392 23.6274C3.10567 20.9422 7.14576 18.4607 11.778 16.2153 16.4084 13.9699 21.0986 12.84 25.8486 12.84 29.0502 12.84 32.0147 13.5878 34.7582 15.071 37.4854 16.5379 38.8435 19.2537 38.8435 23.2471 38.8435 26.3287 37.4854 29.1472 34.7582 31.7296 32.0147 34.285 27.1615 37.1611 20.1552 40.3761 13.9601 43.2072 8.90232 46.9808 4.92018 51.7365 0.936228 56.4923-1.03945 62.9798-1.03945 71.1848-1.03945 77.5985 0.554131 83.0877 3.75397 87.6524 6.9701 92.2027 11.1587 95.697 16.3215 98.1334 21.4825 100.584 26.9695 101.788 32.7952 101.788 38.4886 101.788 43.474 101.172 47.7513 99.8652 52.0286 98.602 55.8785 96.9873 59.3301 95.0644L56.3059 75.2215C53.327 77.4075 49.9207 79.3303 46.0563 81.0045 42.2063 82.6624 38.0178 83.4986 33.5032 83.4986 30.6565 83.4986 27.9873 82.648 25.4955 80.9017 23.0019 79.1681 21.7488 76.629 21.7488 73.3131 21.7488 69.981 23.0019 67.2364 25.4955 65.1225 27.9873 63.0087 32.3098 60.6011 38.4886 57.8853 42.6482 56.1102 46.5271 53.8792 50.1561 51.2662 53.7688 48.6243 56.7188 45.3228 58.977 41.3582 61.2333 37.3666 62.3543 32.3621 62.3543 26.3287 62.3543 16.0531 59.1526 8.06981 52.7366 2.35895 46.3352-3.35011 37.7226-6.21184 26.9116-6.21184 20.8632-6.21184 15.5247-5.56669 10.8925-4.27458 6.24756-3.01311 1.74751-1.14794-2.64752 1.30292" fill="#0E4B87" fill-rule="evenodd" transform="matrix(1 0 0 -1 1093 758)"/><path d="M40.9312-6.21184C32.3079-6.21184 24.683-3.95201 18.115 0.538828 11.5178 5.03147 6.37967 11.2992 2.71534 19.4014-0.932539 27.4875-2.7647 36.853-2.7647 47.5088-2.7647 64.6972 0.720432 78.04 7.65962 87.5353 14.6299 97.0468 24.1016 101.788 36.0911 101.788 48.1995 101.788 57.2543 97.7226 63.2408 89.5752 69.2273 81.4153 72.2371 70.4207 72.2371 56.5499 72.2371 54.2451 72.1767 51.8681 72.0432 49.4316 71.939 46.9952 71.7598 45.0724 71.5221 43.6631L20.9894 43.6631C21.4667 35.1932 24.0431 28.1344 28.7186 22.483 33.3813 16.8316 39.3385 14.0131 46.5154 14.0131 55.6159 14.0131 63.3011 17.1398 69.54 23.4363L71.1637 3.22576C68.037 0.392858 64.1203-1.86698 59.3845-3.61502 54.6322-5.33242 48.4811-6.21184 40.9312-6.21184M36.0911 84.2771C31.9952 84.2771 28.6143 82.3831 25.9337 78.6113 23.2239 74.8088 21.5709 68.9394 20.9894 60.9831L49.196 60.9831C48.8541 76.5118 44.4748 84.2771 36.0911 84.2771" fill="#0E4B87" fill-rule="evenodd" transform="matrix(1 0 0 -1 1171 758)"/><path d="M69.62 97.7593C61.9155 97.7593 54.8666 91.6674 49.4082 86.6819 43.9626 91.6674 36.9137 97.7593 29.2092 97.7593 11.9247 97.7593-2.08546 82.6399-2.08546 63.9964-2.08546 19.5997 48.1737-6.24227 49.4082-6.24227 50.6573-6.24227 100.915 19.5997 100.915 63.9964 100.915 82.6399 86.9045 97.7593 69.62 97.7593" fill="#F29DC2" fill-rule="evenodd" transform="matrix(1 0 0 -1 550 756)"/></g></svg>