<svg width="1033" height="603" xmlns="http://www.w3.org/2000/svg" xmlns:xlink="http://www.w3.org/1999/xlink" xml:space="preserve" overflow="hidden"><g transform="translate(-771 -967)"><path d="M-5.96543 133.092C-5.94649 139.551-0.77882 144.732 5.56536 144.732 8.93867 144.694 11.9664 143.221 14.0685 140.905 15.9196 138.845 17.037 136.078 17.037 133.054L17.037-4.26803" stroke="#0E4B87" stroke-width="1.70233" stroke-miterlimit="8" fill="none" fill-rule="evenodd" transform="matrix(1 0 0 -1 1157 1267)"/><path d="M18.0458-4.53721C31.2831-4.53721 42.0279 6.21552 42.0279 19.4737 42.0279 32.7126 31.2831 43.4653 18.0458 43.4653 4.77014 43.4653-5.97462 32.7126-5.97462 19.4737-5.97462 6.21552 4.77014-4.53721 18.0458-4.53721" fill="#0E4B87" fill-rule="evenodd" transform="matrix(1 0 0 -1 1101 1011)"/><path d="M93.7406 176.239 55.8907 196.124 50.2007 210.009 51.0438 213.951C54.5176 225.698 56.028 238.425 48.141 246.7 43.0195 252.074 36.7803 254.034 29.4425 251.701 22.1241 249.387 17.1784 244.444 14.0203 237.758 11.7245 232.894 9.84068 227.836 7.93758 222.813 1.03104 204.616-6.6801 160.924-5.97427 141.47-5.60087 131.94-2.81369 123.704 2.7366 116.998 5.71891 112.486 6.40788 105.603 6.93786 103.193L6.93786 10.8273C6.93786 2.45342 13.7842-4.3314 22.2011-4.3314 22.2806-4.3314 22.3577-4.31214 22.3577-4.31214L22.4565-4.3314C22.5938-4.3314 22.7118-4.27121 22.8492-4.27121 23.7718-4.23269 24.6728-4.15564 25.5569-3.95821 28.4404-3.44779 30.9144-2.07541 32.8946 0.0216691 33.0126 0.139645 33.1114 0.257621 33.2295 0.375597 33.7594 0.98233 34.3279 1.53128 34.7784 2.23914 36.4647 4.69015 37.4668 7.63232 37.4668 10.8273L37.4668 13.3192C37.4668 13.3963 37.4861 13.4565 37.4861 13.4565L37.4668 119.82C37.4668 124.744 36.5827 144.903 39.1531 158.747L43.0003 176.574 82.7918 155.668C85.4802 154.257 88.4601 153.983 91.1895 154.688 94.2681 155.473 97.0168 157.493 98.626 160.532 101.647 166.199 99.4499 173.239 93.7406 176.239" fill="#0E4B87" fill-rule="evenodd" transform="matrix(1 0 0 -1 1070 1272)"/><path d="M65.3744 194.631C65.3744 194.631 61.1308 225.314 50.3701 239.158 37.7047 255.43 16.0024 255.018 6.57746 222.197-2.73177 189.809-6.26643 130.659-6.26643 70.7238L15.9253 70.7238 15.9253 10.8273C15.9253 2.45527 22.7776-4.32801 31.1827-4.32801 31.2622-4.32801 31.3225-4.30876 31.3997-4.30876L31.4382-4.30876C31.5757-4.32801 31.6745-4.27024 31.812-4.27024 32.774-4.22932 33.6781-4.15229 34.5606-3.95491 37.4274-3.4446 39.9229-2.07254 41.8855 0.0240713 42.0229 0.14202 42.1218 0.25997 42.2014 0.377919 42.7704 0.984515 43.3201 1.53334 43.771 2.24104 45.4611 4.69149 46.481 7.65226 46.481 10.8273L46.481 13.3162 46.481 13.4751 46.481 70.7238 85.5022 70.7238C85.5022 70.7238 142.394 157.891 65.3744 194.631" fill="#0E4B87" fill-rule="evenodd" transform="matrix(1 0 0 -1 1285 1272)"/><path d="M18.1678-4.53721C31.6893-4.53721 42.6667 6.19628 42.6667 19.4544 42.6667 32.7126 31.6893 43.4653 18.1678 43.4653 4.62436 43.4653-6.33347 32.7126-6.33347 19.4544-6.33347 6.19628 4.62436-4.53721 18.1678-4.53721" fill="#0E4B87" fill-rule="evenodd" transform="matrix(1 0 0 -1 1306 1011)"/><path d="M11.5628-4.37897C21.5026-4.37897 29.5544 3.6827 29.5544 13.6221 29.5544 23.5615 21.5026 31.6232 11.5628 31.6232 1.6253 31.6232-6.44573 23.5615-6.44573 13.6221-6.44573 3.6827 1.6253-4.37897 11.5628-4.37897" fill="#0E4B87" fill-rule="evenodd" transform="matrix(1 0 0 -1 1486 1151)"/><path d="M45.657 11.8825C35.1736 20.0058 29.9525 23.5556 24.2378 27.9386 16.1376 34.143-6.54455 28.3053-6.54455 28.3053-5.20419 27.2006 28.2976 1.89511 34.6413-2.54507 38.9576-5.55201 44.4739-4.30924 47.4716-0.159513 50.6047 4.16401 50.0531 8.46849 45.657 11.8825" fill="#0E4B87" fill-rule="evenodd" transform="matrix(1 0 0 -1 1544 1219)"/><path d="M9.54263 27.828C0.705003 27.828-6.45974 20.66-6.45974 11.8281-6.45974 2.99368 0.705003-4.17433 9.54263-4.17433 18.3779-4.17433 25.5426 2.99368 25.5426 11.8281 25.5426 20.66 18.3779 27.828 9.54263 27.828" fill="#0E4B87" fill-rule="evenodd" transform="matrix(1 0 0 -1 1551 1272)"/><path d="M9.6693 27.828C0.812546 27.828-6.34981 20.66-6.34981 11.8281-6.34981 2.99368 0.812546-4.17433 9.6693-4.17433 18.4878-4.17433 25.6502 2.99368 25.6502 11.8281 25.6502 20.66 18.4878 27.828 9.6693 27.828" fill="#0E4B87" fill-rule="evenodd" transform="matrix(1 0 0 -1 1452 1272)"/><path d="M161.591 12.3485C164.966 8.15988 163.887 5.17114 163.887 4.75832L162.179-0.963252 170.46-3.42087 171.913 1.73096C174.287 10.4413 170.01 16.7712 163.258 22.1403 130.563 48.0178 97.9056 73.9338 65.2271 99.8089 65.2078 99.8282 65.1885 99.8499 65.1692 99.8692L23.327 133.098C21.5416 134.534 18.2043 135.695 15.908 135.695L8.46964 135.695 7.80219 135.695-2.265 135.695C-4.56132 135.695-6.42632 133.827-6.42632 131.625-6.42632 129.402-4.54204 127.613-2.265 127.613L-0.773472 127.613 8.46964 127.613 13.1008 127.613C15.3972 127.613 18.7344 126.454 20.5199 125.018L27.604 119.395 58.1044 40.5242C58.3983 39.7179 58.7309 38.8536 59.1236 37.9096L59.3019 37.4775 59.2802 37.5161C61.7549 31.7559 66.2487 24.3227 73.9208 20.0569 70.7811 12.7009 67.2872 4.50242 64.9138-1.35676L72.6461-4.30687C75.3545 1.88788 91.0938 6.68483 114.606 11.9936L151.463 20.5856C154.957 18.0893 158.882 15.7114 161.591 12.3485" fill="#0E4B87" fill-rule="evenodd" transform="matrix(1 0 0 -1 1400 1240)"/><path d="M17.6971-4.53721C31.2298-4.53721 42.1789 6.21552 42.1789 19.4737 42.1789 32.7126 31.2298 43.4653 17.6971 43.4653 4.14495 43.4653-6.82367 32.7126-6.82367 19.4737-6.82367 6.21552 4.14495-4.53721 17.6971-4.53721" fill="#0E4B87" fill-rule="evenodd" transform="matrix(1 0 0 -1 1748 1011)"/><path d="M126.262 0.58988 105.125 87.6802 118.532 107.211C119.617 108.82 120.13 111.35 119.716 113.252L97.9274 212.128 104.374 213.539 103.152 219.089 91.3206 216.52C94.2596 227.52 95.0876 239.012 87.7134 246.7 82.5665 252.074 76.2962 254.034 68.922 251.701 61.5672 249.387 56.5969 244.444 53.4425 237.758 51.1159 232.913 49.2421 227.836 47.3102 222.813 40.3693 204.616 32.6199 160.924 33.351 141.47 33.7044 131.94 36.5055 123.704 42.1051 116.998 42.4998 116.37 42.875 115.703 43.1897 115.017L27.8288 76.6988-1.65109 50.655C-7.94071 45.0861-8.47332 35.4578-2.83251 29.1641-2.79378 29.1232-2.71388 29.0847-2.71388 29.0847L-2.65578 29.0052C-2.57589 28.8897-2.4379 28.8487-2.36043 28.7332-1.70919 28.0662-1.03859 27.4571-0.309881 26.9274 1.99728 25.1048 4.67969 24.1634 7.59694 24.1032 7.7543 24.0839 7.91408 24.1032 8.07144 24.0839 8.88004 24.0839 9.68864 24.0262 10.5166 24.1634 13.4726 24.5342 16.3729 25.7501 18.7575 27.8881L20.6313 29.5349C20.6919 29.5758 20.7306 29.6144 20.7887 29.6722L46.3055 52.2248 46.3055 10.8273C46.3055 2.45342 53.1858-4.3314 61.6664-4.3314 61.7245-4.3314 61.8044-4.31214 61.8044-4.31214L61.9012-4.31214C62.0392-4.3314 62.1579-4.27121 62.2959-4.27121 63.2231-4.23269 64.1309-4.13397 65.017-3.93895 67.9173-3.44779 70.4012-2.07541 72.413 0.0409304 72.5098 0.139645 72.6091 0.257621 72.7277 0.375597 73.2603 0.98233 73.851 1.53128 74.2844 2.23914 75.9815 4.69015 76.9862 7.63232 76.9862 10.8273L76.9862 13.3192C76.9862 13.3963 77.0055 13.4565 77.0055 13.4565L76.9862 100.564C77.5987 99.7788 78.3274 99.0733 79.0972 98.6231L99.5639 86.4258 120.701-0.741563ZM105.992 148.943 100.392 147.766 88.2266 202.813 89.8632 210.382 92.3471 210.91ZM77.1242 144.256 77.4195 142.922 77.0661 142.845C77.0854 143.314 77.1048 143.786 77.1242 144.256M81.0679 104.82 76.9281 123.605C76.8676 126.94 76.7901 131.724 76.8893 136.98L78.6615 137.353 80.2012 130.373C80.8718 127.412 82.6464 124.961 84.9342 123.331 87.5367 121.489 90.8679 120.685 94.2403 121.39 100.549 122.743 104.554 128.94 103.174 135.234L101.634 142.197 107.214 143.394 114.116 112.036C114.216 111.663 114.036 110.743 113.802 110.428L101.201 92.0525 82.0145 103.506C81.6998 103.701 81.1478 104.447 81.0679 104.82" fill="#0E4B87" fill-rule="evenodd" transform="matrix(1 0 0 -1 1677 1272)"/><path d="M18.2911-4.14347-6.62566 21.9637-4.56142 23.8591 20.3769-2.24575Z" fill="#FFFFFF" fill-rule="evenodd" transform="matrix(1 0 0 -1 1701 1224)"/><path d="M25.7443-4.31127-6.8133 14.174-5.37089 16.6887 27.1867-1.79657Z" fill="#FFFFFF" fill-rule="evenodd" transform="matrix(1 0 0 -1 1694 1224)"/><path d="M19.0127-4.26949-6.86334 22.7673-4.71963 24.7328 21.1365-2.30645Z" fill="#FFFFFF" fill-rule="evenodd" transform="matrix(1 0 0 -1 1685 1239)"/><path d="M-6.42603 28.5678 9.11497-4.20326 11.5762-2.95545-3.96485 29.7964Z" fill="#FFFFFF" fill-rule="evenodd" transform="matrix(1 0 0 -1 1694 1238)"/><path d="M72.3381-4.26199C29.2816-4.26199-5.73073 30.492-5.73073 73.1963-5.73073 101.902 10.5172 128.429 35.9686 141.74L39.5476 121.614C23.2031 110.698 13.5069 92.7514 13.5069 73.1963 13.5069 40.9952 39.9026 14.8037 72.3381 14.8037 97.5142 14.8037 119.309 30.2944 127.61 53.2677L138.272 31.6901C123.833 9.14834 99.3061-4.26199 72.3381-4.26199" fill="#0E4B87" fill-rule="evenodd" transform="matrix(1 0 0 -1 777 1272)"/><path d="M43.2254 19.5577C43.2254 6.29962 32.2524-4.45302 18.7169-4.45302 5.19846-4.45302-5.77445 6.29962-5.77445 19.5577-5.77445 32.8158 5.19846 43.5468 18.7169 43.5468 32.2524 43.5468 43.2254 32.8158 43.2254 19.5577" fill="#0E4B87" fill-rule="evenodd" transform="matrix(1 0 0 -1 808 1073)"/><path d="M134.702 17.3211 101.352 84.8524C101.352 84.8524 96.8544 93.7642 85.6082 93.7642L36.0223 93.7642 32.8932 110.982 63.7403 110.982C66.771 110.982 69.5279 112.098 71.622 113.997 73.9874 116.092 75.4764 119.168 75.5148 122.556 75.5724 129 70.4092 134.209 63.9732 134.269L57.7534 134.269C57.422 134.269 57.1674 134.308 56.8144 134.308L28.6089 134.308 24.2094 158.398C22.7037 166.547 14.8388 171.932 6.64492 170.465-1.55136 168.976-6.98833 161.161-5.50181 153.014L7.48544 82.0918C7.48544 82.0918 9.87252 67.6756 25.6767 67.6756L76.2184 67.6756 107.632 4.06155C111.29-3.36178 120.327-6.39892 127.817-2.75579 135.288 0.906574 138.379 9.89776 134.702 17.3211" fill="#0E4B87" fill-rule="evenodd" transform="matrix(1 0 0 -1 822 1253)"/><path d="M-5.68869 143.085 28.8908 143.085C37.235 143.085 44.8384 142.166 51.7346 140.304 58.6091 138.461 64.5455 135.679 69.5222 131.974 74.4797 128.271 78.3571 123.646 81.1402 118.081 83.9232 112.535 85.3135 106.125 85.3135 98.8535 85.3135 91.7024 83.9232 85.3912 81.1402 79.9028 78.3571 74.4168 74.4797 69.85 69.5222 66.2047 64.5455 62.5786 58.6091 59.7971 51.7346 57.8747 44.8384 55.9546 37.235 54.9945 28.8908 54.9945L21.7397 54.9945 21.7397-3.91477-5.68869-3.91477ZM28.0874 77.2175C47.1692 77.2175 56.7089 84.4311 56.7089 98.8535 56.7089 106.125 54.2794 111.632 49.4423 115.415 44.6219 119.178 37.6872 121.06 28.6936 121.06L21.7397 121.06 21.7397 77.2175" fill="#0E4B87" fill-rule="evenodd" transform="matrix(1 0 0 -1 786 1523)"/><path d="M-5.77248 102.708 19.3958 102.708 19.3958 86.008C20.5657 88.384 22.0112 90.6829 23.6317 92.8636 25.293 95.0442 27.206 96.9692 29.373 98.6215 31.5593 100.291 34.1363 101.608 37.104 102.609 40.0718 103.61 43.4902 104.102 47.3162 104.102 49.9315 104.102 52.276 103.907 54.2273 103.514L51.8469 81.625C50.9479 81.9 49.9723 82.0785 48.9966 82.216 48.0185 82.3535 46.7696 82.4114 45.3241 82.4114 39.6427 82.4114 34.762 81.1932 30.6627 78.7375 26.5803 76.2819 23.0851 72.0774 20.1965 66.1047L20.1965-3.89816-5.77248-3.89816" fill="#0E4B87" fill-rule="evenodd" transform="matrix(1 0 0 -1 895 1523)"/><path d="M8.64415 116.15C4.40989 116.15 0.923838 117.587-1.78031 120.544-4.50612 123.461-5.85579 126.989-5.85579 131.107-5.85579 135.225-4.50612 138.752-1.78031 141.689 0.923838 144.605 4.40989 146.064 8.64415 146.064 12.876 146.064 16.3645 144.605 19.0686 141.689 21.792 138.752 23.1441 135.225 23.1441 131.107 23.1441 126.989 21.792 123.461 19.0686 120.544 16.3645 117.587 12.876 116.15 8.64415 116.15M-4.6625 102.986 21.3806 102.986 21.3806-3.93884-4.6625-3.93884" fill="#0E4B87" fill-rule="evenodd" transform="matrix(1 0 0 -1 968 1523)"/><path d="M-6.06015 102.708 19.0698 102.708 19.0698 86.008C20.2612 88.384 21.6852 90.6829 23.3249 92.8636 25.0053 95.0442 26.9183 96.9692 29.0854 98.6215 31.2716 100.291 33.8486 101.608 36.8164 102.609 39.7841 103.61 43.1618 104.102 47.0093 104.102 49.6462 104.102 51.95 103.907 53.9397 103.514L51.54 81.625C50.6219 81.9 49.6846 82.0785 48.6682 82.216 47.6925 82.3535 46.4819 82.4114 45.0172 82.4114 39.3358 82.4114 34.4551 81.1932 30.3751 78.7375 26.2543 76.2819 22.7783 72.0774 19.8705 66.1047L19.8705-3.89816-6.06015-3.89816" fill="#0E4B87" fill-rule="evenodd" transform="matrix(1 0 0 -1 1156 1523)"/><path d="M8.64368 116.15C4.26584 116.15 0.657049 117.587-2.14039 120.544-4.95773 123.461-6.35645 126.989-6.35645 131.107-6.35645 135.225-4.95773 138.752-2.14039 141.689 0.657049 144.605 4.26584 146.064 8.64368 146.064 13.0215 146.064 16.6303 144.605 19.4277 141.689 22.2451 138.752 23.6438 135.225 23.6438 131.107 23.6438 126.989 22.2451 123.461 19.4277 120.544 16.6303 117.587 13.0215 116.15 8.64368 116.15M-5.11951 102.986 21.7996 102.986 21.7996-3.93884-5.11951-3.93884" fill="#0E4B87" fill-rule="evenodd" transform="matrix(1 0 0 -1 1229 1523)"/><path d="M8.19366 88.4431-6.29326 88.4431-6.29326 104.459 8.19366 104.459 8.19366 124.425 34.5654 136.105 34.5654 104.459 58.5178 104.459 58.5178 88.4431 34.5654 88.4431 34.5654 34.0586C34.5654 27.5927 35.4401 23.1199 37.165 20.6184 38.912 18.1194 41.9282 16.8698 46.2334 16.8698 48.9134 16.8698 51.2548 17.1624 53.2795 17.7476 55.2847 18.3352 57.4263 19.0955 59.7092 20.0332L57.704-0.340562C55.2847-1.12242 52.6046-1.92346 49.6468-2.7245 46.7109-3.50395 42.8005-3.89488 37.9788-3.89488 28.316-3.89488 20.9337-1.10323 15.8318 4.50406 10.7324 10.1113 8.19366 18.3736 8.19366 29.3123" fill="#0E4B87" fill-rule="evenodd" transform="matrix(1 0 0 -1 1274 1525)"/><path d="M-2.11939 23.5539C0.511161 21.7081 3.14412 20.2551 5.73609 19.1756 8.32806 18.1154 11.137 17.607 14.2185 17.607 18.0498 17.607 21.7219 19.5106 25.2374 23.3563 28.7721 27.202 32.0705 34.2887 35.0965 44.6114 27.6919 62.3533 21.0347 79.2519 15.2022 95.2661 12.0195 103.883 8.93808 112.321 5.95309 120.603 2.92712 128.885-0.0771563 137.403-3.1393 146.138L25.5508 146.138C27.2796 140.444 28.9867 134.774 30.6383 129.14 32.2875 123.528 34.0356 117.856 35.8994 112.165 38.0405 105.668 40.143 99.2492 42.2841 92.8902 44.4228 86.5313 46.6024 80.1145 48.8424 73.6182 50.8653 80.1145 52.652 86.4927 54.3422 92.7938 55.9914 99.0733 57.7395 105.531 59.6033 112.165 62.8053 123.685 65.5949 135.008 67.9892 146.138L94.6781 146.138C92.1464 137.521 89.593 129.022 86.9986 120.603 84.4066 112.184 81.7954 103.685 79.1455 95.0709 76.081 85.6686 72.9586 76.1314 69.7759 66.4737 66.5763 56.7992 63.3164 47.262 59.9963 37.8597 58.0336 32.1682 55.7744 26.79 53.221 21.7659 50.7279 16.7419 47.7429 12.3275 44.3842 8.55891 40.9869 4.79029 37.0592 1.76865 32.6395-0.48915 28.1838-2.72767 22.9588-3.865 16.9889-3.865 7.95434-3.865 0.197713-1.74455-6.322 2.49394" fill="#0E4B87" fill-rule="evenodd" transform="matrix(1 0 0 -1 1341 1566)"/><path d="M-6.48288 145.094 21.2995 145.094 21.2995 55.6757C21.2995 42.6132 23.1985 33.1879 26.9579 27.3613 30.7366 21.5539 36.7075 18.661 44.9307 18.661 53.25 18.661 59.281 21.5539 62.9803 27.3613 66.6821 33.1879 68.5402 42.6132 68.5402 55.6757L68.5402 145.094 96.5197 145.094 96.5197 51.0999C96.5197 42.7885 95.3635 35.2405 93.0535 28.4368 90.7435 21.6523 87.3951 15.8641 83.0299 11.0338 78.6647 6.22273 73.2803 2.52798 66.8575-0.0528164 60.4372-2.61441 53.1346-3.90601 44.9307-3.90601 36.7075-3.90601 29.4434-2.61441 23.0999-0.0528164 16.7372 2.52798 11.3721 6.22273 7.00689 11.0338 2.64171 15.8641-0.687469 21.6523-3.01669 28.4368-5.32668 35.2405-6.48288 42.7885-6.48288 51.0999" fill="#0E4B87" fill-rule="evenodd" transform="matrix(1 0 0 -1 1503 1525)"/><path d="M-4.05259 26.7836C-0.184098 24.0272 4.3142 21.4845 9.44231 19.1579 14.5728 16.8481 19.8802 15.6956 25.345 15.6956 27.0818 15.6956 28.8574 15.8709 30.6524 16.2046 32.4498 16.536 34.0073 17.0834 35.3493 17.8853 36.6913 18.6681 37.7765 19.763 38.6437 21.1508 39.5109 22.541 39.9663 24.2817 39.9663 26.3922 39.9663 30.3443 38.3482 33.4729 35.1507 35.7803 31.9556 38.0877 27.8909 40.239 22.959 42.2127 19.2092 43.7974 15.6387 45.5573 12.245 47.4733 8.85126 49.3726 5.87177 51.6199 3.34768 54.2011 0.821176 56.763-1.19179 59.7955-2.65005 63.2962-4.11072 66.7969-4.86165 70.9027-4.86165 75.6543-4.86165 80.5429-3.79582 84.9248-1.64477 88.8168 0.506271 92.7089 3.28713 96.0127 6.74139 98.7115 10.2126 101.41 14.2579 103.504 18.8556 104.949 23.4507 106.397 28.2058 107.12 33.1595 107.12 39.5521 107.12 45.155 106.455 49.9488 105.146 54.762 103.816 59.0835 102.174 62.952 100.198L59.5583 79.8201C56.0846 82.0507 52.2185 84.0436 47.9552 85.7651 43.6749 87.4674 39.0192 88.327 33.9492 88.327 30.7517 88.327 27.7528 87.4266 24.9502 85.6475 22.1499 83.8683 20.7474 81.268 20.7474 77.8465 20.7474 76.1249 21.0841 74.5979 21.7551 73.2893 22.4067 71.9783 23.4725 70.7082 24.9502 69.5341 26.4109 68.3408 28.3439 67.1475 30.7517 65.9757 33.1595 64.7824 36.0784 63.4523 39.5521 62.0044 43.0233 60.5566 46.3783 58.9143 49.6533 57.0559 52.9089 55.2191 55.7891 53.0293 58.255 50.5251 60.721 48.0232 62.6734 45.0507 64.1535 41.6268 65.6141 38.2053 66.3433 34.1764 66.3433 29.5616 66.3433 18.8626 62.7533 10.6294 55.5517 4.82129 48.3501-0.986827 38.6825-3.88008 26.5489-3.88008 19.7421-3.88008 13.7444-3.21499 8.55573-1.90402 3.34768-0.595458-1.72229 1.32057-6.65661 3.82486" fill="#0E4B87" fill-rule="evenodd" transform="matrix(1 0 0 -1 1629 1525)"/><path d="M75.0773 5.81911C71.6234 2.92396 67.2849 0.57855 62.0426-1.20031 56.8003-2.97917 50.0081-3.87941 41.6469-3.87941 34.4812-3.87941 27.9036-2.54946 21.9358 0.0888231 15.968 2.7103 10.8631 6.48408 6.6234 11.3525 2.36447 16.2402-0.9159 22.0665-3.23216 28.8723-5.56771 35.6565-6.72464 43.144-6.72464 51.3181-6.72464 68.9939-2.87785 82.7207 4.81812 92.4768 12.5141 102.233 22.9963 107.123 36.2672 107.123 49.5381 107.123 59.5094 102.917 66.2244 94.5486 72.9177 86.18 76.2752 74.8586 76.2752 60.6253 76.2752 58.2391 76.1981 55.8145 76.08 53.2938 75.9426 50.79 75.7449 48.8143 75.4702 47.3691L19.5617 47.3691C19.6774 42.8919 20.5427 38.7845 22.1334 35.1091 23.7218 31.4146 25.8236 28.2073 28.4146 25.509 31.0056 22.7915 33.951 20.679 37.2675 19.1738 40.5864 17.6494 44.1006 16.9052 47.81 16.9052 57.9018 16.9052 66.3811 20.1316 73.2913 26.6037ZM50.7939 65.1817C50.401 81.1363 45.5516 89.1135 36.2672 89.1135 31.7504 89.1135 28.0024 87.1978 25.0185 83.3857 22.0346 79.5519 20.2872 73.4903 19.7569 65.1817" fill="#0E4B87" fill-rule="evenodd" transform="matrix(1 0 0 -1 1717 1525)"/><path d="M73.4089 103.099C64.8795 103.099 57.0747 96.841 51.0369 91.7083 44.9968 96.841 37.2136 103.099 28.6842 103.099 9.54535 103.099-5.96314 87.537-5.96314 68.3543-5.96314 22.6753 49.6647-3.9032 51.0369-3.9032 52.4091-3.9032 108.037 22.6753 108.037 68.3543 108.037 87.537 92.5454 103.099 73.4089 103.099" fill="#F29DC2" fill-rule="evenodd" transform="matrix(1 0 0 -1 1020 1524)"/></g></svg>