<svg width="904" height="189" xmlns="http://www.w3.org/2000/svg" xmlns:xlink="http://www.w3.org/1999/xlink" xml:space="preserve" overflow="hidden"><g transform="translate(-302 -288)"><path d="M-1.81179-6.29518-1.81179 137.707 28.9598 137.707C38.8725 137.707 47.5971 136.092 55.1372 132.863 62.6756 129.606 68.5765 124.791 72.8219 118.379 77.0674 111.966 79.1901 103.969 79.1901 94.3859 79.1901 85.0395 77.0674 77.206 72.8219 70.8526 68.5765 64.5138 62.6756 59.6842 55.1372 56.3675 47.5971 53.0799 38.8725 51.4361 28.9598 51.4361L22.5916 51.4361 22.5916-6.29518ZM28.2588 73.1929C45.2551 73.1929 53.7155 80.2427 53.7155 94.3859 53.7155 101.496 51.564 106.914 47.261 110.604 42.9562 114.306 36.8073 116.143 28.7855 116.143L22.5916 116.143 22.5916 73.1929" fill="#FFFFFF" fill-rule="evenodd" transform="matrix(1 0 0 -1 304 428)"/><path d="M-1.91783-6.23862-1.91783 97.4205 20.7086 97.4205 20.7086 81.1672C22.8474 85.8081 25.812 89.89 29.6169 93.4562 33.4235 96.9935 38.8221 98.763 45.8288 98.763 48.203 98.763 50.282 98.5712 52.0821 98.1877L49.9434 76.908C49.1031 77.1721 48.232 77.3639 47.3627 77.4815 46.4626 77.6299 45.3561 77.6878 44.0432 77.6878 38.9398 77.6878 34.5445 76.4954 30.8574 74.1071 27.1847 71.7206 24.0571 67.579 21.4167 61.6407L21.4167-6.23862" fill="#FFFFFF" fill-rule="evenodd" transform="matrix(1 0 0 -1 401 428)"/><path d="M11.0264 110.594C7.3419 110.594 4.26181 112.015 1.76987 114.87-0.720255 117.711-1.97437 121.143-1.97437 125.152-1.97437 129.163-0.720255 132.594 1.76987 135.45 4.26181 138.305 7.3419 139.711 11.0264 139.711 14.8286 139.711 17.9394 138.305 20.3861 135.45 22.8039 132.594 24.0272 129.163 24.0272 125.152 24.0272 121.143 22.8039 117.711 20.3861 114.87 17.9394 112.015 14.8286 110.594 11.0264 110.594M-0.720255 97.7803 22.5976 97.7803 22.5976-6.29065-0.720255-6.29065" fill="#FFFFFF" fill-rule="evenodd" transform="matrix(1 0 0 -1 467 428)"/><path d="M-2.17739-6.23862-2.17739 97.4205 20.4551 97.4205 20.4551 81.1672C22.5945 85.8081 25.5599 89.89 29.3676 93.4562 33.1735 96.9935 38.5735 98.763 45.5821 98.763 47.9569 98.763 50.0383 98.5712 51.8226 98.1877L49.6832 76.908C48.8427 77.1721 47.9877 77.3639 47.1019 77.4815 46.2161 77.6299 45.1093 77.6878 43.7978 77.6878 38.6912 77.6878 34.2948 76.4954 30.6066 74.1071 26.933 71.7206 23.7756 67.579 21.1634 61.6407L21.1634-6.23862" fill="#FFFFFF" fill-rule="evenodd" transform="matrix(1 0 0 -1 635 428)"/><path d="M10.7678 110.594C7.08321 110.594 4.00308 112.015 1.51111 114.87-0.979054 117.711-2.23137 121.143-2.23137 125.152-2.23137 129.163-0.979054 132.594 1.51111 135.45 4.00308 138.305 7.08321 139.711 10.7678 139.711 14.5555 139.711 17.6809 138.305 20.1131 135.45 22.5454 132.594 23.7688 129.163 23.7688 125.152 23.7688 121.143 22.5454 117.711 20.1131 114.87 17.6809 112.015 14.5555 110.594 10.7678 110.594M-0.979054 97.7803 22.3391 97.7803 22.3391-6.29065-0.979054-6.29065" fill="#FFFFFF" fill-rule="evenodd" transform="matrix(1 0 0 -1 701 428)"/><path d="M53.9388-2.78107C51.831-3.68093 49.4592-4.47578 46.8699-5.20002 44.2788-5.89166 40.8539-6.26102 36.6097-6.26102 28.1212-6.26102 21.6524-3.48901 17.1746 2.07132 12.6806 7.61534 10.4561 15.6689 10.4561 26.2409L10.4561 82.7531-2.27665 82.7531-2.27665 99.7853 10.4561 99.7853 10.4561 119.34 33.6089 130.739 33.6089 99.7853 54.6557 99.7853 54.6557 82.7531 33.6089 82.7531 33.6089 30.9014C33.6089 24.5751 34.3995 20.1808 35.9951 17.7329 37.5908 15.285 40.225 14.061 43.8834 14.061 46.2391 14.061 48.3038 14.3399 50.133 14.9156 51.9622 15.5204 53.8202 16.2428 55.7231 17.1572" fill="#FFFFFF" fill-rule="evenodd" transform="matrix(1 0 0 -1 740 430)"/><path d="M18.3985-6.20794C10.3443-6.20794 3.42163-4.17602-2.36952-0.0488529L1.34808 20.4802C3.71579 18.6673 6.05282 17.2379 8.35917 16.221 10.6673 15.1896 13.1668 14.6595 15.9153 14.6595 19.3405 14.6595 22.5889 16.5014 25.6604 20.1853 28.7626 23.8402 31.7746 30.6923 34.7144 40.7723 32.2456 47.3457 29.4971 54.8166 26.4833 63.2175 23.4551 71.5877 20.3836 80.298 17.2381 89.4063 14.107 98.4839 11.0788 107.399 8.18412 116.08 5.28765 124.789 2.71601 132.688 0.467406 139.792L25.498 139.792C28.8059 127.796 32.3629 115.344 36.1545 102.448 39.9335 89.5529 43.4904 77.7196 46.811 66.8724 48.4442 73.4604 50.3102 80.9765 52.382 89.5094 54.4555 98.0261 56.5128 106.633 58.5268 115.402 60.5408 124.186 62.304 132.29 63.847 139.792L87.6306 139.792C85.5137 131.774 83.1478 123.198 80.5455 113.958 77.9432 104.746 75.2398 95.4044 72.4606 85.9269 69.6832 76.4512 66.9492 67.2995 64.3036 58.4571 61.6272 49.6292 59.1007 41.6137 56.7475 34.378 54.3815 27.0519 51.5735 20.3174 48.3107 14.1873 45.0623 8.05712 41.0343 3.13383 36.2429-0.624232 31.4371-4.33706 25.498-6.20794 18.3985-6.20794" fill="#FFFFFF" fill-rule="evenodd" transform="matrix(1 0 0 -1 800 470)"/><path d="M43.3921-6.28123C33.6867-6.28123 25.4327-4.03444 18.5598 0.399269 11.7175 4.86383 6.46004 11.1469 2.87754 19.2176-0.750035 27.2882-2.52776 36.7636-2.52776 47.6129L-2.52776 139.719 22.2757 139.719 22.2757 52.0774C22.2757 39.2917 23.9939 30.0378 27.416 24.3609 30.8524 18.6713 36.182 15.8165 43.3921 15.8165 50.8383 15.8165 56.213 18.6713 59.516 24.3609 62.8209 30.0378 64.4796 39.2917 64.4796 52.0774L64.4796 139.719 89.4742 139.719 89.4742 47.6129C89.4742 31.2047 85.5094 18.1232 77.5061 8.35199 69.5315-1.40289 58.1512-6.28123 43.3921-6.28123" fill="#FFFFFF" fill-rule="evenodd" transform="matrix(1 0 0 -1 944 430)"/><path d="M-0.331392 23.6274C3.10567 20.9422 7.14576 18.4607 11.778 16.2153 16.4084 13.9699 21.0986 12.84 25.8486 12.84 29.0502 12.84 32.0147 13.5878 34.7582 15.071 37.4854 16.5379 38.8435 19.2537 38.8435 23.2471 38.8435 26.3287 37.4854 29.1472 34.7582 31.7296 32.0147 34.285 27.1615 37.1611 20.1552 40.3761 13.9601 43.2072 8.90232 46.9808 4.92018 51.7365 0.936228 56.4923-1.03945 62.9798-1.03945 71.1848-1.03945 77.5985 0.554131 83.0877 3.75397 87.6524 6.9701 92.2027 11.1587 95.697 16.3215 98.1334 21.4825 100.584 26.9695 101.788 32.7952 101.788 38.4886 101.788 43.474 101.172 47.7513 99.8652 52.0286 98.602 55.8785 96.9873 59.3301 95.0644L56.3059 75.2215C53.327 77.4075 49.9207 79.3303 46.0563 81.0045 42.2063 82.6624 38.0178 83.4986 33.5032 83.4986 30.6565 83.4986 27.9873 82.648 25.4955 80.9017 23.0019 79.1681 21.7488 76.629 21.7488 73.3131 21.7488 69.981 23.0019 67.2364 25.4955 65.1225 27.9873 63.0087 32.3098 60.6011 38.4886 57.8853 42.6482 56.1102 46.5271 53.8792 50.1561 51.2662 53.7688 48.6243 56.7188 45.3228 58.977 41.3582 61.2333 37.3666 62.3543 32.3621 62.3543 26.3287 62.3543 16.0531 59.1526 8.06981 52.7366 2.35895 46.3352-3.35011 37.7226-6.21184 26.9116-6.21184 20.8632-6.21184 15.5247-5.56669 10.8925-4.27458 6.24756-3.01311 1.74751-1.14794-2.64752 1.30292" fill="#FFFFFF" fill-rule="evenodd" transform="matrix(1 0 0 -1 1056 430)"/><path d="M40.3854-6.21184C31.8771-6.21184 24.3539-3.95201 17.8735 0.538828 11.3642 5.03147 6.2946 11.2992 2.67913 19.4014-0.920105 27.4875-2.72784 36.853-2.72784 47.5088-2.72784 64.6972 0.710826 78.04 7.55749 87.5353 14.4348 97.0468 23.7802 101.788 35.6099 101.788 47.5568 101.788 56.4908 97.7226 62.3976 89.5752 68.3043 81.4153 71.2739 70.4207 71.2739 56.5499 71.2739 54.2451 71.2143 51.8681 71.0826 49.4316 70.9798 46.9952 70.803 45.0724 70.5685 43.6631L20.7096 43.6631C21.1805 35.1932 23.7225 28.1344 28.3356 22.483 32.9362 16.8316 38.814 14.0131 45.8952 14.0131 54.8743 14.0131 62.4571 17.1398 68.6128 23.4363L70.2148 3.22576C67.1298 0.392858 63.2653-1.86698 58.5927-3.61502 53.9037-5.33242 47.8346-6.21184 40.3854-6.21184M35.6099 84.2771C31.5686 84.2771 28.2328 82.3831 25.5879 78.6113 22.9142 74.8088 21.2833 68.9394 20.7096 60.9831L48.5401 60.9831C48.2027 76.5118 43.8818 84.2771 35.6099 84.2771" fill="#FFFFFF" fill-rule="evenodd" transform="matrix(1 0 0 -1 1134 430)"/><path d="M68.9441 98.6994C61.3144 98.6994 54.3339 92.5488 48.9285 87.5154 43.5358 92.5488 36.5553 98.6994 28.9256 98.6994 11.809 98.6994-2.06521 83.4345-2.06521 64.6118-2.06521 19.7881 47.706-6.30229 48.9285-6.30229 50.1655-6.30229 99.9349 19.7881 99.9349 64.6118 99.9349 83.4345 86.0607 98.6994 68.9441 98.6994" fill="#F29DC2" fill-rule="evenodd" transform="matrix(1 0 0 -1 513 429)"/></g></svg>