<svg width="1055" height="575" xmlns="http://www.w3.org/2000/svg" xmlns:xlink="http://www.w3.org/1999/xlink" xml:space="preserve" overflow="hidden"><g transform="translate(-2088 -154)"><path d="M-1.22057-3.57914 1052.78-3.57914 1052.78 570.422-1.22057 570.422Z" fill="#0E4B87" fill-rule="evenodd" transform="matrix(1 0 0 -1 2090 725)"/><path d="M976.779 0.811569C976.779-1.47321 975.057-3.34784 972.946-3.34784L2.6143-3.34784C0.501705-3.34784-1.22078-1.47321-1.22078 0.811569L-1.22078 143.494C-1.22078 145.786 0.501705 147.653 2.6143 147.653L972.946 147.653C975.057 147.653 976.779 145.786 976.779 143.494" fill="#FFFFFF" fill-rule="evenodd" transform="matrix(1 0 0 -1 2128 675)"/><path d="M31.9325 14.2261C31.9325 4.28516 24.5522-3.77821 15.4401-3.77821 6.32046-3.77821-1.06843 4.28516-1.06843 14.2261-1.06843 24.1595 6.32046 32.2219 15.4401 32.2219 24.5522 32.2219 31.9325 24.1595 31.9325 14.2261" fill="#FFFFFF" fill-rule="evenodd" transform="matrix(1 0 0 -1 2484 266)"/><path d="M44.7998-3.48655C42.9129-4.01227 40.8456-3.81293 38.9828-2.73804L7.47516 15.5117-0.496092 36.9772C-2.18609 41.5211-0.189171 46.7108 3.97742 48.5733 8.10444 50.4358 12.8685 48.2313 14.5585 43.6865L20.2973 28.2217 46.5767 13.012C50.5386 10.7118 52.0559 5.32364 49.9644 0.986945 48.8409-1.32993 46.9386-2.8895 44.7998-3.48655" fill="#FFFFFF" fill-rule="evenodd" transform="matrix(1 0 0 -1 2484 344)"/><path d="M19.2176-3.59824C17.2087-3.59824 15.5887-1.87961 15.5887 0.224589L15.5887 103.785C15.5887 105.018 15.16 106.211 14.3744 107.122 13.4664 108.151 12.1955 108.747 10.8589 108.747L10.8509 108.747C9.57099 108.747 8.37959 108.23 7.48852 107.302 6.59845 106.376 6.10419 105.137 6.09623 103.817 6.09623 101.705 4.47621 100.002 2.46733 100.002L2.45838 100.002C0.458461 100.01-1.16157 101.721-1.15361 103.832-1.15361 107.209 0.109394 110.373 2.38579 112.744 4.64626 115.115 7.65062 116.403 10.834 116.403L10.8748 116.403C14.2361 116.403 17.4682 114.903 19.7277 112.28 21.7366 109.957 22.8465 106.942 22.8465 103.785L22.8465 0.224589C22.8465-1.87961 21.2264-3.59824 19.2176-3.59824" fill="#FFFFFF" fill-rule="evenodd" transform="matrix(1 0 0 -1 2519 464)"/><path d="M38.9434 162.792C41.366 171.74 42.4466 181.448 36.91 187.761 33.3113 191.862 28.943 193.353 23.7878 191.577 18.6559 189.808 15.1927 186.048 12.9681 180.948 11.3638 177.244 10.0453 173.381 8.69452 169.542 3.84938 155.67-1.56043 122.341-1.04354 107.508-0.805572 100.251 1.14887 93.9693 5.06457 88.845 7.15359 85.4026 7.6383 80.1517 8.00403 78.3199L8.00403 7.87825C8.00403 1.49385 12.8014-3.68593 18.7115-3.68593 18.7593-3.68593 18.8149-3.67035 18.8149-3.67035L18.8861-3.67814C18.9816-3.68593 19.0694-3.63821 19.164-3.646 19.8077-3.61484 20.4436-3.54278 21.0551-3.39281 23.0807-3.00425 24.8284-1.96518 26.2181-0.354473 26.2893-0.275593 26.3615-0.180158 26.4405-0.101278 26.814 0.367132 27.2266 0.787825 27.5211 1.33511 28.7119 3.19902 29.419 5.44369 29.419 7.87825L29.419 9.77429C29.419 9.83759 29.419 9.8853 29.419 9.8853L29.419 90.9952C29.419 94.7542 28.7997 110.134 30.5873 120.683" fill="#FFFFFF" fill-rule="evenodd" transform="matrix(1 0 0 -1 2462 465)"/><path d="M49.2617 148.264C49.2617 148.264 46.2718 171.691 38.6685 182.277 29.7469 194.705 14.4283 194.395 7.78493 169.324 1.22109 144.579-1.27409 99.4079-1.27409 53.6324L14.3645 53.6324 14.3645 7.89772C14.3645 1.50447 19.2007-3.68853 25.1491-3.68853 25.1972-3.68853 25.2453-3.67293 25.3013-3.67293L25.317-3.67293C25.4132-3.68073 25.5015-3.64173 25.5967-3.64173 26.2524-3.61735 26.8924-3.54617 27.5079-3.40285 29.5466-3.00601 31.2977-1.96566 32.6965-0.369535 32.777-0.281783 32.8408-0.187205 32.9282-0.0994528 33.3041 0.369535 33.7036 0.781972 34.0236 1.33774 35.2152 3.20394 35.9269 5.45918 35.9269 7.89772L35.9269 9.78733 35.9269 9.89848 35.9269 53.6324 63.4613 53.6324C63.4613 53.6324 103.58 120.214 49.2617 148.264" fill="#FFFFFF" fill-rule="evenodd" transform="matrix(1 0 0 -1 2612 465)"/><path d="M15.7441-3.7774C25.1301-3.7774 32.7411 4.2766 32.7411 14.2155 32.7411 24.1544 25.1301 32.2236 15.7441 32.2236 6.3502 32.2236-1.25988 24.1544-1.25988 14.2155-1.25988 4.2766 6.3502-3.7774 15.7441-3.7774" fill="#FFFFFF" fill-rule="evenodd" transform="matrix(1 0 0 -1 2627 266)"/><path d="M11.1185-3.79801C18.0197-3.79801 23.6224 2.46931 23.6224 10.2024 23.6224 17.9365 18.0197 24.2028 11.1185 24.2028 4.21628 24.2028-1.3787 17.9365-1.3787 10.2024-1.3787 2.46931 4.21628-3.79801 11.1185-3.79801" fill="#FFFFFF" fill-rule="evenodd" transform="matrix(1 0 0 -1 2752 373)"/><path d="M20.0074 21.1704C23.984 17.7982 27.621 15.0525 34.9254 8.78266 37.9759 6.14806 38.3562 2.81485 36.1773-0.509577 34.0859-3.70832 30.2513-4.66804 27.2485-2.34328 22.8274 1.06982-0.504854 20.5994-1.44063 21.448-1.44063 21.448 14.3664 25.9563 20.0074 21.1704" fill="#FFFFFF" fill-rule="evenodd" transform="matrix(1 0 0 -1 2793 424)"/><path d="M9.59916 14.8084C12.5118 14.8084 14.8753 12.1304 14.8753 8.85175 14.8753 5.56609 12.5118 2.88815 9.59916 2.88815 6.69503 2.88815 4.32299 5.56609 4.32299 8.85175 4.32299 12.1304 6.69503 14.8084 9.59916 14.8084M9.59916 21.3478C3.52725 21.3478-1.40084 15.7488-1.40084 8.85175-1.40084 1.94669 3.52725-3.65228 9.59916-3.65228 15.6711-3.65228 20.6001 1.94669 20.6001 8.85175 20.6001 15.7488 15.6711 21.3478 9.59916 21.3478" fill="#FFFFFF" fill-rule="evenodd" transform="matrix(1 0 0 -1 2798 465)"/><path d="M9.68167 14.8084C12.5943 14.8084 14.9503 12.1304 14.9503 8.85175 14.9503 5.56609 12.5943 2.88815 9.68167 2.88815 6.76901 2.88815 4.39791 5.56609 4.39791 8.85175 4.39791 12.1304 6.76901 14.8084 9.68167 14.8084M9.68167 21.3478C3.60976 21.3478-1.32592 15.7488-1.32592 8.85175-1.32592 1.94669 3.60976-3.65228 9.68167-3.65228 15.7536-3.65228 20.6741 1.94669 20.6741 8.85175 20.6741 15.7488 15.7536 21.3478 9.68167 21.3478" fill="#FFFFFF" fill-rule="evenodd" transform="matrix(1 0 0 -1 2729 465)"/><path d="M64.8508 15.1958C67.2968 13.3193 70.0354 11.5048 71.9342 8.96602 74.2938 5.78725 73.5338 3.53219 73.5338 3.22428L72.3385-1.11349 78.1324-2.97447 79.1372 0.937268C80.7999 7.5301 77.8156 12.3171 73.0985 16.3635 49.3682 36.6861 25.6622 57.033 1.95622 77.3798L-1.39939 72.4427 2.64523 34.8958C2.64523 34.8958 3.1836 24.0679 11.851 17.7432 9.40504 11.5764 6.34194 3.81588 4.37114-1.39719L9.77724-3.6203C11.6683 1.0554 22.6788 4.67569 39.1109 8.67361" fill="#FFFFFF" fill-rule="evenodd" transform="matrix(1 0 0 -1 2736 440)"/><path d="M-1.39466 64.3992 8.47933 18.0574C8.47933 18.0574 12.4849-3.60151 30.2183-3.60151 52.3347-3.60151 56.6054-0.841599 56.6054-0.841599L12.4849 57.818" fill="#FFFFFF" fill-rule="evenodd" transform="matrix(1 0 0 -1 2726 424)"/><path d="M48.5574 1.816 19.4032 27.2743C18.1561 28.3692 15.8276 29.265 14.2336 29.265L9.05624 29.265 8.59016 29.265 1.5659 29.265C-0.0281009 29.2562-1.33043 27.8257-1.33043 26.1324-1.33043 24.4459-0.0203489 23.0635 1.57365 23.0635L2.61629 23.0635 9.05624 23.0635 12.2762 23.0635C13.8702 23.0635 16.1987 22.1766 17.4536 21.0817L45.0612-3.03452C46.3083-4.12157 48.1233-3.92142 49.0787-2.59499 50.0409-1.2607 49.8045 0.721102 48.5574 1.816" fill="#FFFFFF" fill-rule="evenodd" transform="matrix(1 0 0 -1 2692 367)"/><path d="M21.6402-3.67499-1.35983 60.3249 17.1556 46.0528" fill="#FFFFFF" fill-rule="evenodd" transform="matrix(1 0 0 -1 2715 409)"/><path d="M36.2023 49.4024 1.98774 16.553C-2.39523 12.3262-2.75982 5.03231 1.1708 0.261393 1.202 0.222668 1.24977 0.19072 1.24977 0.19072L1.28974 0.135537C1.3531 0.0493743 1.43987 0.0174262 1.49543-0.0697049 1.94874-0.574097 2.42447-1.0388 2.93335-1.43379 4.54479-2.81337 6.41847-3.53075 8.45104-3.57819 8.55438-3.59368 8.66551-3.57819 8.77665-3.59368 9.34889-3.58593 9.90456-3.63337 10.4836-3.523 12.5484-3.24709 14.5576-2.33221 16.2324-0.716412L17.5348 0.538277C17.5747 0.577002 17.6147 0.60895 17.6537 0.63993L50.447 32.134" fill="#FFFFFF" fill-rule="evenodd" transform="matrix(1 0 0 -1 2886 443)"/><path d="M18.1912-3.68166 30.0681 29.1659C31.5814 33.3841 28.3894 38.7541 22.9362 41.135 22.8965 41.1507 22.8413 41.1664 22.8413 41.1664L22.7785 41.1909C22.6914 41.2311 22.6053 41.2389 22.5104 41.2782 21.9115 41.5185 21.3048 41.7344 20.7059 41.8776 18.7437 42.4456 16.8918 42.4613 15.2285 41.9502 15.1337 41.9335 15.0553 41.8943 14.9605 41.8776 14.5038 41.7177 14.0307 41.6068 13.6127 41.3665 12.0762 40.6239 10.8938 39.4094 10.3191 37.8114L9.86918 36.5567C9.8537 36.5086 9.83822 36.4851 9.82177 36.4448L-1.55778 4.95597" fill="#FFFFFF" fill-rule="evenodd" transform="matrix(1 0 0 -1 2910 413)"/><path d="M31.4452 14.2261C31.4452 4.28516 24.058-3.77821 14.9404-3.77821 5.83045-3.77821-1.5558 4.28516-1.5558 14.2261-1.5558 24.1595 5.83045 32.2219 14.9404 32.2219 24.058 32.2219 31.4452 24.1595 31.4452 14.2261" fill="#FFFFFF" fill-rule="evenodd" transform="matrix(1 0 0 -1 2936 266)"/><path d="M38.4384 162.792C40.8697 171.74 41.9414 181.448 36.4051 187.761 32.8075 191.862 28.4385 193.353 23.2835 191.577 18.1518 189.808 14.6888 186.048 12.4731 180.948 10.8601 177.244 9.54158 173.381 8.19968 169.542 3.35477 155.67-2.0548 122.341-1.5467 107.508-1.29217 100.251 0.6534 93.9693 4.56112 88.845 6.65102 85.4026 7.13473 80.1517 7.50044 78.3199L7.50044 7.87825C7.50044 1.49385 12.2985-3.68593 18.2162-3.68593 18.263-3.68593 18.3108-3.67035 18.3108-3.67035L18.383-3.67814C18.4776-3.68593 18.5653-3.63821 18.6609-3.646 19.3036-3.61484 19.9472-3.54278 20.5587-3.39281 22.5842-3.00425 24.324-1.96518 25.7137-0.354473 25.7937-0.275593 25.8571-0.180158 25.9361-0.101278 26.3174 0.367132 26.7231 0.787825 27.0244 1.33511 28.2161 3.19902 28.9154 5.44369 28.9154 7.87825L28.9154 9.77429C28.9154 9.83759 28.9232 9.8853 28.9232 9.8853L28.9154 90.9952C28.9154 94.7542 28.2951 110.134 30.0905 120.683" fill="#FFFFFF" fill-rule="evenodd" transform="matrix(1 0 0 -1 2914 465)"/><path d="M1.38085-3.57656C0.0126238-3.57656-1.20606-2.59199-1.51389-1.1562-1.8625 0.489054-0.84968 2.12785 0.747719 2.48864L39.8116 11.3645C41.409 11.6875 42.9909 10.6651 43.3473 9.01983 43.7027 7.36627 42.6908 5.72747 41.0847 5.36668L2.02175-3.5092C1.80812-3.54611 1.59449-3.57656 1.38085-3.57656" fill="#FFFFFF" fill-rule="evenodd" transform="matrix(1 0 0 -1 2921 309)"/><path d="M33.4497-3.66424C32.9361-3.66424 32.4059-3.51513 31.9311-3.20152L16.9924 6.44344C15.6 7.35253 14.3746 9.17743 14.0338 10.8859L-1.51378 87.4607C-1.87013 89.1923-0.849619 90.8931 0.747664 91.2692 2.34495 91.6213 3.92669 90.5641 4.27528 88.8325L19.8316 12.2491 34.9761 2.26742C36.3763 1.36603 36.8346-0.592589 35.9966-2.10484 35.4432-3.10821 34.4547-3.66424 33.4497-3.66424" fill="#FFFFFF" fill-rule="evenodd" transform="matrix(1 0 0 -1 2927 397)"/><path d="M6.72291-3.69241C6.1406-3.69241 5.5434-3.50266 5.00969-3.13187 3.63575-2.13083 3.28061-0.127792 4.226 1.33891L14.2454 16.944-1.56739 94.4081C-1.93047 96.1507-0.904721 97.8624 0.744014 98.2399 2.37589 98.5952 3.99188 97.5313 4.34703 95.7886L20.2322 18.7099C20.5884 16.9905 20.1836 14.7832 19.2551 13.3242L9.22776-2.28863C8.64544-3.19479 7.69211-3.69241 6.72291-3.69241" fill="#FFFFFF" fill-rule="evenodd" transform="matrix(1 0 0 -1 2953 397)"/><path d="M15.6013-3.61186C14.3179-3.61186 13.1474-2.6103 12.8358-1.13139L-1.46901 66.387C-1.83369 68.1373-0.899125 69.8779 0.636103 70.3074 2.1704 70.6969 3.69723 69.6475 4.06938 67.9138L18.3742 0.395353C18.7389-1.35396 17.8044-3.09547 16.2775-3.52498 16.0499-3.58063 15.8214-3.61186 15.6013-3.61186" fill="#FFFFFF" fill-rule="evenodd" transform="matrix(1 0 0 -1 2959 465)"/><path d="M1.39911-3.54202C-0.00198879-3.54202-1.26587-2.54131-1.56518-1.09286-1.91322 0.582734-0.868107 2.22109 0.775628 2.57669L27.7058 8.39192C29.3337 8.74101 30.9535 7.6798 31.3016 6.00421 31.6496 4.33606 30.6055 2.69863 28.9608 2.34211L2.03056-3.47313C1.82074-3.51874 1.60993-3.54202 1.39911-3.54202" fill="#FFFFFF" fill-rule="evenodd" transform="matrix(1 0 0 -1 2937 359)"/><path d="M14.8787 76.251C14.4095 78.4969 13.1576 80.3632 11.5258 81.5973 9.66682 83.0053 7.31584 83.6141 4.91624 83.0761 0.432502 82.0478-2.4115 77.3346-1.42646 72.5417L12.8828 3.2849C13.3431 1.03897 14.6118-0.827295 16.2278-2.06144 18.0778-3.4694 20.4457-4.07821 22.8363-3.53251 27.3131-2.51199 30.165 2.20126 29.187 6.99414" fill="#FFFFFF" fill-rule="evenodd" transform="matrix(1 0 0 -1 2932 369)"/><path d="M15.974-3.46794-1.54741 16.073-0.0689246 17.533 17.4525-2.00795Z" fill="#0E4B87" fill-rule="evenodd" transform="matrix(1 0 0 -1 2903 428)"/><path d="M20.4783-3.66333-1.52819 10.3839-0.53501 12.3375 21.4724-1.70876Z" fill="#0E4B87" fill-rule="evenodd" transform="matrix(1 0 0 -1 2898 428)"/><path d="M15.9857-3.6176-1.53576 16.8538-0.0572754 18.3834 17.4641-2.08802Z" fill="#0E4B87" fill-rule="evenodd" transform="matrix(1 0 0 -1 2892 440)"/><path d="M9.65872-3.59516-1.53137 21.4487 0.278255 22.405 11.4683-2.63011Z" fill="#0E4B87" fill-rule="evenodd" transform="matrix(1 0 0 -1 2897 439)"/><path d="M53.3377-3.62112C23.4435-3.62112-0.876879 22.7928-0.876879 55.2634-0.876879 77.0863 10.4025 97.2474 28.0776 107.38L30.5601 92.0703C19.2149 83.7756 12.4834 70.121 12.4834 55.2634 12.4834 30.796 30.8118 10.8799 53.3377 10.8799 70.8065 10.8799 85.9342 22.6665 91.721 40.121L99.1232 23.7112C89.1039 6.58235 72.0599-3.62112 53.3377-3.62112" fill="#FFFFFF" fill-rule="evenodd" transform="matrix(1 0 0 -1 2258 465)"/><path d="M32.1529 14.2853C32.1529 4.34641 24.7666-3.71524 15.6577-3.71524 6.54024-3.71524-0.847054 4.34641-0.847054 14.2853-0.847054 24.2242 6.54024 32.2858 15.6577 32.2858 24.7666 32.2858 32.1529 24.2242 32.1529 14.2853" fill="#FFFFFF" fill-rule="evenodd" transform="matrix(1 0 0 -1 2280 313)"/><path d="M21.2072 51.0457 56.8065 51.0457 78.9275 2.71543C81.496-2.92864 87.873-5.24964 93.1369-2.47122 98.4087 0.315928 100.58 7.14328 97.988 12.7951L74.5148 64.1005C74.5148 64.1005 71.3342 70.8813 63.4226 70.8813L28.5067 70.8813 26.2652 84.1096 41.8971 84.1096C41.8971 84.1096 58.103 101.704 43.1457 101.704L23.2672 101.704 20.1744 120C19.1083 126.189 13.5739 130.286 7.8042 129.173 2.03062 128.029-1.80217 122.101-0.742932 115.896L8.4007 62.0014C8.4007 62.0014 10.0721 51.0457 21.2072 51.0457" fill="#FFFFFF" fill-rule="evenodd" transform="matrix(1 0 0 -1 2289 450)"/><path d="M5.20055 14.2478 35.0217 14.2478C39.5327 14.2241 43.1426 10.174 43.1038 5.20737 43.0796 2.56422 42.0292 0.20127 40.3784-1.43849 38.9168-2.88389 36.9809-3.76 34.8724-3.75211L-0.897148-3.75211" fill="#FFFFFF" fill-rule="evenodd" transform="matrix(1 0 0 -1 2302 363)"/><path d="M-0.984178-3.36617-0.984178 73.6348 15.7312 73.6348C21.1159 73.6348 25.8552 72.7714 29.951 71.0445 34.0459 69.3031 37.2514 66.7284 39.5575 63.3 41.8637 59.8706 43.0168 55.5944 43.0168 50.4702 43.0168 45.4725 41.8637 41.2838 39.5575 37.8865 37.2514 34.497 34.0459 31.9145 29.951 30.141 25.8552 28.383 21.1159 27.504 15.7312 27.504L12.272 27.504 12.272-3.36617ZM15.3504 39.1378C24.583 39.1378 29.1787 42.9075 29.1787 50.4702 29.1787 54.272 28.01 57.1695 25.6726 59.1424 23.3342 61.122 19.9941 62.104 15.6365 62.104L12.272 62.104 12.272 39.1378" fill="#0E4B87" fill-rule="evenodd" transform="matrix(1 0 0 -1 2375 637)"/><path d="M-1.02996-3.32727-1.02996 51.9577 11.1214 51.9577 11.1214 43.2892C12.27 45.7644 13.8621 47.9414 15.9055 49.8434 17.9498 51.73 20.8491 52.6737 24.612 52.6737 25.887 52.6737 27.0035 52.5714 27.9703 52.3669L26.8217 41.0177C26.3704 41.1586 25.9026 41.2608 25.4357 41.3236 24.9524 41.4027 24.3581 41.4336 23.653 41.4336 20.9123 41.4336 18.5519 40.7977 16.5717 39.5239 14.5993 38.2511 12.9197 36.0422 11.5017 32.8751L11.5017-3.32727" fill="#0E4B87" fill-rule="evenodd" transform="matrix(1 0 0 -1 2428 637)"/><path d="M5.9374 59.0845C3.95339 59.0845 2.29486 59.8434 0.953024 61.369-0.387836 62.8868-1.06314 64.72-1.06314 66.8619-1.06314 69.0047-0.387836 70.8379 0.953024 72.3635 2.29486 73.8891 3.95339 74.6403 5.9374 74.6403 7.98474 74.6403 9.65984 73.8891 10.9773 72.3635 12.2792 70.8379 12.9379 69.0047 12.9379 66.8619 12.9379 64.72 12.2792 62.8868 10.9773 61.369 9.65984 59.8434 7.98474 59.0845 5.9374 59.0845M-0.387836 52.2388 12.1681 52.2388 12.1681-3.36076-0.387836-3.36076" fill="#0E4B87" fill-rule="evenodd" transform="matrix(1 0 0 -1 2463 637)"/><path d="M-1.16933-3.32727-1.16933 51.9577 10.9851 51.9577 10.9851 43.2892C12.134 45.7644 13.7265 47.9414 15.7714 49.8434 17.8153 51.73 20.7153 52.6737 24.4792 52.6737 25.7545 52.6737 26.8723 52.5714 27.8305 52.3669L26.6816 41.0177C26.2302 41.1586 25.7711 41.2608 25.2954 41.3236 24.8196 41.4027 24.2253 41.4336 23.5209 41.4336 20.7785 41.4336 18.4175 40.7977 16.4368 39.5239 14.4639 38.2511 12.7683 36.0422 11.3655 32.8751L11.3655-3.32727" fill="#0E4B87" fill-rule="evenodd" transform="matrix(1 0 0 -1 2553 637)"/><path d="M5.7979 59.0845C3.81395 59.0845 2.15545 59.8434 0.813655 61.369-0.52717 62.8868-1.20148 64.72-1.20148 66.8619-1.20148 69.0047-0.52717 70.8379 0.813655 72.3635 2.15545 73.8891 3.81395 74.6403 5.7979 74.6403 7.8374 74.6403 9.52025 73.8891 10.8299 72.3635 12.1395 70.8379 12.7983 69.0047 12.7983 66.8619 12.7983 64.72 12.1395 62.8868 10.8299 61.369 9.52025 59.8434 7.8374 59.0845 5.7979 59.0845M-0.52717 52.2388 12.0285 52.2388 12.0285-3.36076-0.52717-3.36076" fill="#0E4B87" fill-rule="evenodd" transform="matrix(1 0 0 -1 2588 637)"/><path d="M28.8294-1.50218C27.7029-1.98824 26.4351-2.41757 25.0512-2.80876 23.6663-3.18235 21.8358-3.38186 19.5673-3.38186 15.0303-3.38186 11.5729-1.88457 9.17955 1.11881 6.77757 4.11339 5.58859 8.46345 5.58859 14.1739L5.58859 44.6986-1.21683 44.6986-1.21683 53.8985 5.58859 53.8985 5.58859 64.4607 17.9634 70.618 17.9634 53.8985 29.2126 53.8985 29.2126 44.6986 17.9634 44.6986 17.9634 16.6912C17.9634 13.2741 18.386 10.9006 19.2388 9.57834 20.0917 8.25611 21.4996 7.595 23.455 7.595 24.7141 7.595 25.8176 7.74561 26.7953 8.05661 27.773 8.38325 28.766 8.77347 29.7831 9.26735" fill="#0E4B87" fill-rule="evenodd" transform="matrix(1 0 0 -1 2609 639)"/><path d="M10.0169-3.31658C5.63187-3.31658 1.86288-2.23103-1.29006-0.0260996L0.733951 10.9415C2.02303 9.97294 3.29541 9.20928 4.55108 8.66603 5.80774 8.11504 7.16855 7.83181 8.66494 7.83181 10.5298 7.83181 12.2983 8.81586 13.9706 10.784 15.6596 12.7366 17.2994 16.3973 18.9 21.7825 17.5559 25.2944 16.0595 29.2857 14.4186 33.7738 12.77 38.2455 11.0977 42.899 9.38514 47.7651 7.68044 52.6148 6.03176 57.3775 4.45578 62.0155 2.87882 66.668 1.47871 70.8884 0.254476 74.6835L13.8822 74.6835C15.6832 68.2746 17.6197 61.6221 19.684 54.7327 21.7414 47.8434 23.678 41.5215 25.4859 35.7265 26.3751 39.246 27.391 43.2615 28.5189 47.8202 29.6479 52.3703 30.768 56.9686 31.8645 61.653 32.961 66.3461 33.9209 70.6757 34.761 74.6835L47.7097 74.6835C46.5572 70.4002 45.2691 65.8183 43.8523 60.8816 42.4355 55.9604 40.9637 50.9696 39.4506 45.9063 37.9385 40.8439 36.4499 35.9546 35.0095 31.2306 33.5524 26.5143 32.1769 22.232 30.8957 18.3664 29.6076 14.4524 28.0788 10.8545 26.3024 7.57951 24.5338 4.3045 22.3408 1.67424 19.7322-0.333495 17.1157-2.31706 13.8822-3.31658 10.0169-3.31658" fill="#0E4B87" fill-rule="evenodd" transform="matrix(1 0 0 -1 2641 660)"/><path d="M23.5825-3.35573C18.3079-3.35573 13.822-2.15538 10.0868 0.213308 6.36818 2.59848 3.51087 5.95518 1.56387 10.2669-0.407626 14.5786-1.37378 19.6408-1.37378 25.437L-1.37378 74.6443 12.1063 74.6443 12.1063 27.8222C12.1063 20.9915 13.0401 16.0476 14.8999 13.0147 16.7675 9.97507 19.664 8.44991 23.5825 8.44991 27.6294 8.44991 30.5504 9.97507 32.3455 13.0147 34.1416 16.0476 35.0431 20.9915 35.0431 27.8222L35.0431 74.6443 48.627 74.6443 48.627 25.437C48.627 16.671 46.4723 9.68225 42.1227 4.46202 37.7887-0.749488 31.6038-3.35573 23.5825-3.35573" fill="#0E4B87" fill-rule="evenodd" transform="matrix(1 0 0 -1 2718 639)"/><path d="M-0.178442 12.9076C1.67229 11.4407 3.84773 10.0851 6.34202 8.85839 8.83534 7.63172 11.3608 7.01445 13.9185 7.01445 15.6425 7.01445 17.2387 7.42301 18.716 8.23324 20.1845 9.03461 20.9158 10.5182 20.9158 12.6998 20.9158 14.3833 20.1845 15.923 18.716 17.3338 17.2387 18.7298 14.6255 20.301 10.8528 22.0574 7.51701 23.604 4.79357 25.6655 2.64933 28.2636 0.504124 30.8616-0.559705 34.4058-0.559705 38.8881-0.559705 42.3919 0.298379 45.3906 2.02137 47.8843 3.75314 50.3701 6.00854 52.2791 8.78853 53.6101 11.5676 54.949 14.5221 55.6066 17.659 55.6066 20.7247 55.6066 23.4091 55.2699 25.7123 54.5562 28.0155 53.866 30.0885 52.9839 31.947 51.9335L30.3186 41.0933C28.7146 42.2875 26.8804 43.338 24.7996 44.2526 22.7265 45.1583 20.4711 45.6151 18.0402 45.6151 16.5074 45.6151 15.0701 45.1504 13.7284 44.1964 12.3857 43.2494 11.7109 41.8622 11.7109 40.0508 11.7109 38.2305 12.3857 36.7311 13.7284 35.5763 15.0701 34.4215 17.3976 33.1062 20.7247 31.6226 22.9645 30.6529 25.0531 29.4341 27.0072 28.0066 28.9525 26.5633 30.541 24.7598 31.7569 22.5939 32.9719 20.4133 33.5755 17.6794 33.5755 14.3833 33.5755 8.76978 31.8515 4.40852 28.3967 1.28869 24.9498-1.83016 20.3122-3.39352 14.4909-3.39352 11.2341-3.39352 8.35949-3.04107 5.8652-2.3352 3.36408-1.64606 0.940967-0.627116-1.42559 0.711782" fill="#0E4B87" fill-rule="evenodd" transform="matrix(1 0 0 -1 2778 639)"/><path d="M21.8299-3.39352C17.2308-3.39352 13.1643-2.15897 9.66133 0.294361 6.1428 2.74868 3.40248 6.17272 1.44818 10.599-0.497353 15.0163-1.47451 20.1327-1.47451 25.954-1.47451 35.344 0.38423 42.6331 4.08512 47.8203 7.80259 53.0164 12.8541 55.6066 19.2485 55.6066 25.7063 55.6066 30.5355 53.3856 33.7283 48.9348 36.9212 44.477 38.5263 38.4707 38.5263 30.8931 38.5263 29.634 38.4942 28.3354 38.423 27.0044 38.3674 25.6734 38.2718 24.6229 38.145 23.8531L11.1943 23.8531C11.4489 19.226 12.8229 15.3698 15.3165 12.2824 17.8033 9.19508 20.9805 7.65535 24.8082 7.65535 29.6618 7.65535 33.7605 9.36343 37.0879 12.8032L37.9539 1.76223C36.2863 0.214618 34.1974-1.01993 31.6716-1.97488 29.1371-2.91309 25.8565-3.39352 21.8299-3.39352M19.2485 46.0404C17.0641 46.0404 15.2609 45.0057 13.8313 42.9452 12.386 40.8679 11.5045 37.6614 11.1943 33.3149L26.2378 33.3149C26.0555 41.7982 23.7198 46.0404 19.2485 46.0404" fill="#0E4B87" fill-rule="evenodd" transform="matrix(1 0 0 -1 2820 639)"/><path d="M36.4997 52.6398C32.4605 52.6398 28.7649 49.3595 25.9033 46.675 23.0483 49.3595 19.3528 52.6398 15.3135 52.6398 6.25179 52.6398-1.09335 44.4985-1.09335 34.4597-1.09335 10.5537 25.2561-3.36123 25.9033-3.36123 26.5581-3.36123 52.9066 10.5537 52.9066 34.4597 52.9066 44.4985 45.5615 52.6398 36.4997 52.6398" fill="#F29DC2" fill-rule="evenodd" transform="matrix(1 0 0 -1 2488 638)"/></g></svg>