<svg width="452" height="251" xmlns="http://www.w3.org/2000/svg" xmlns:xlink="http://www.w3.org/1999/xlink" xml:space="preserve" overflow="hidden"><g transform="translate(-1050 -880)"><path d="M449.919 231.091 449.919 15.4869C449.919 5.98838 442.222-1.71086 432.727-1.71086L16.1102-1.71086C6.61822-1.71086-1.08133 5.98838-1.08133 15.4869L-1.08133 226.793C-1.08133 238.664 8.53986 248.289 20.4096 248.289L432.727 248.289C442.222 248.289 449.919 240.589 449.919 231.091" fill="#0E4B87" fill-rule="evenodd" transform="matrix(1 0 0 -1 1052 1129)"/><path d="M25.1398 71.8925C25.1398 71.8925 23.5902 83.2438 19.6432 88.3704 15.0113 94.3904 7.06202 94.2408 3.61421 82.0986 0.207025 70.1057-1.08751 48.2141-1.08751 26.0385L7.02995 26.0385 7.02995 3.87464C7.02995 0.775072 9.53741-1.73825 12.6253-1.73825 12.6488-1.73825 12.6777-1.72926 12.7037-1.72926L12.7126-1.73537C12.7647-1.73825 12.8085-1.71487 12.8577-1.71775 13.1972-1.703 13.5311-1.67063 13.8504-1.59474 14.9065-1.41023 15.8152-0.906348 16.5435-0.126961 16.5841-0.0859592 16.619-0.0420805 16.6597 0.00179831 16.8571 0.227666 17.0659 0.429796 17.2312 0.695946 17.8494 1.59834 18.2211 2.69423 18.2211 3.87464L18.2211 4.79142 18.2211 4.87342 18.2211 26.0385 32.5087 26.0385C32.5087 26.0385 53.3295 58.2973 25.1398 71.8925" fill="#FFFFFF" fill-rule="evenodd" transform="matrix(1 0 0 -1 1275 1026)"/><path d="M7.90107-1.83934C12.8725-1.83934 16.9001 2.18777 16.9001 7.15786 16.9001 12.1279 12.8725 16.1609 7.90107 16.1609 2.92716 16.1609-1.10049 12.1279-1.10049 7.15786-1.10049 2.18777 2.92716-1.83934 7.90107-1.83934" fill="#FFFFFF" fill-rule="evenodd" transform="matrix(1 0 0 -1 1283 930)"/><path d="M5.77341-1.84685C9.64279-1.84685 12.7752 1.28621 12.7752 5.15168 12.7752 9.0202 9.64279 12.1532 5.77341 12.1532 1.90744 12.1532-1.22532 9.0202-1.22532 5.15168-1.22532 1.28621 1.90744-1.84685 5.77341-1.84685" fill="#FFFFFF" fill-rule="evenodd" transform="matrix(1 0 0 -1 1349 982)"/><path d="M17.4904 4.27454C13.748 7.29115 11.8811 8.61766 9.84088 10.2438 6.94796 12.545-1.15619 10.3749-1.15619 10.3749-0.675782 9.96452 11.2901 0.565391 13.5547-1.08114 15.095-2.19835 17.0669-1.73546 18.1355-0.199655 19.2523 1.4033 19.059 3.00625 17.4904 4.27454" fill="#FFFFFF" fill-rule="evenodd" transform="matrix(1 0 0 -1 1371 1007)"/><path d="M4.40212 9.43887C1.36417 9.43887-1.09804 6.97637-1.09804 3.9402-1.09804 0.901371 1.36417-1.56113 4.40212-1.56113 7.44007-1.56113 9.90229 0.901371 9.90229 3.9402 9.90229 6.97637 7.44007 9.43887 4.40212 9.43887M4.40212 1.31718C2.94802 1.31718 1.76171 2.49421 1.76171 3.9402 1.76171 5.3862 2.94802 6.56022 4.40212 6.56022 5.85622 6.56022 7.04287 5.3862 7.04287 3.9402 7.04287 2.49421 5.85622 1.31718 4.40212 1.31718" fill="#FFFFFF" fill-rule="evenodd" transform="matrix(1 0 0 -1 1374 1026)"/><path d="M4.84613 9.43887C1.5291 9.43887-1.15696 6.97637-1.15696 3.9402-1.15696 0.901371 1.5291-1.56113 4.84613-1.56113 8.15701-1.56113 10.8431 0.901371 10.8431 3.9402 10.8431 6.97637 8.15701 9.43887 4.84613 9.43887M4.84613 1.31718C3.25368 1.31718 1.96531 2.49421 1.96531 3.9402 1.96531 5.3862 3.25368 6.56022 4.84613 6.56022 6.42917 6.56022 7.7208 5.3862 7.7208 3.9402 7.7208 2.49421 6.42917 1.31718 4.84613 1.31718" fill="#FFFFFF" fill-rule="evenodd" transform="matrix(1 0 0 -1 1337 1026)"/><path d="M61.7173 4.44963C62.9838 2.88665 62.5774 1.78094 62.5774 1.62743L61.9369-0.495651 65.0395-1.41563 65.5791 0.507237C66.4691 3.73892 64.873 6.09227 62.3433 8.08284 50.1116 17.6903 37.8889 27.3035 25.6634 36.9229 25.6513 36.9345 25.6426 36.9464 25.6277 36.958L9.96747 49.2993C9.29416 49.8301 8.0455 50.2635 7.18829 50.2635L4.40656 50.2635 4.15421 50.2635 0.381628 50.2635C-0.472665 50.2577-1.17547 49.5676-1.17256 48.7479-1.17256 47.925-0.472665 47.2556 0.384541 47.2556L0.944965 47.2556 4.40656 47.2556 6.13554 47.2556C6.99274 47.2556 8.24432 46.8283 8.91472 46.2972L11.5632 44.2067 22.9614 14.9713C23.0859 14.6175 23.2374 14.2254 23.4151 13.8065L23.4271 13.783 23.4271 13.7859C24.3495 11.6418 26.0282 8.8732 28.8963 7.29537 27.7248 4.57056 26.4197 1.52135 25.5268-0.643007L28.4247-1.73713C29.4359 0.562993 35.3322 2.3443 44.1322 4.30807L57.924 7.50754C59.232 6.58466 60.7003 5.69727 61.7173 4.44963" fill="#FFFFFF" fill-rule="evenodd" transform="matrix(1 0 0 -1 1317 1015)"/><path d="M16.7186 7.16193C16.7186 2.19104 12.6916-1.83964 7.71811-1.83964 2.74499-1.83964-1.28201 2.19104-1.28201 7.16193-1.28201 12.1299 2.74499 16.1606 7.71811 16.1606 12.6916 16.1606 16.7186 12.1299 16.7186 7.16193" fill="#FFFFFF" fill-rule="evenodd" transform="matrix(1 0 0 -1 1447 930)"/><path d="M29.6873 0.207744 21.985 32.1289 26.7739 39.1541C27.2589 39.8584 27.4695 40.937 27.2823 41.7783L19.402 77.7704 21.2661 78.1794C22.1106 78.3667 22.6422 79.1995 22.4582 80.0469 22.277 80.8915 21.4354 81.4233 20.597 81.2364L-0.040897 76.7123C-0.885026 76.5225-1.41705 75.6897-1.23301 74.848-1.07229 74.1175-0.426549 73.6176 0.295248 73.6176 0.403589 73.6176 0.520181 73.6263 0.634262 73.6499L2.16826 73.989 10.046 37.9941C10.23 37.1613 10.87 36.264 11.6061 35.8227L18.9314 31.4306 26.6455-0.528508C26.8177-1.24754 27.4577-1.72653 28.1676-1.72653 28.2846-1.72653 28.4134-1.71218 28.5328-1.67989 29.3745-1.48111 29.8889-0.636506 29.6873 0.207744M16.3455 77.0983 21.1344 55.2361 9.99322 52.8749 5.22154 74.661ZM13.105 38.6633 10.6623 49.815 21.8038 52.1792 24.2232 41.1415C24.2232 41.0801 24.1967 40.9398 24.1881 40.9165L19.8401 34.5367 13.2452 38.4907C13.1986 38.5258 13.1197 38.6428 13.105 38.6633" fill="#FFFFFF" fill-rule="evenodd" transform="matrix(1 0 0 -1 1439 1026)"/><path d="M0.811457 5.17093-1.21648 3.18893 6.78377-1.82968" fill="#FFFFFF" fill-rule="evenodd" transform="matrix(1 0 0 -1 1428 1006)"/><path d="M0.62401 8.0259C-1.67165 5.99397-1.86667 2.48226 0.196097 0.184528 0.210742 0.16714 0.236816 0.149752 0.236816 0.149752L0.257176 0.123847C0.289323 0.0833925 0.335758 0.0660043 0.365047 0.02555 0.603293-0.214336 0.850825-0.442867 1.11836-0.630589 1.96204-1.29524 2.94252-1.63911 4.00731-1.66537 4.06267-1.67104 4.12089-1.66537 4.17911-1.67104 4.47558-1.6682 4.76955-1.69127 5.07209-1.63911 6.15437-1.50639 7.20736-1.06104 8.08605-0.283534L8.76685 0.32044C8.78721 0.337828 8.80757 0.352023 8.82793 0.366572L9.7677 1.19908 2.09313 9.32647" fill="#FFFFFF" fill-rule="evenodd" transform="matrix(1 0 0 -1 1420 1016)"/><path d="M3.22584-1.67072 7.75223 2.28099-1.24806 7.32956" fill="#FFFFFF" fill-rule="evenodd" transform="matrix(1 0 0 -1 1428 1012)"/><path d="M0.811229 7.20283-1.19252 5.24164 4.80768-1.7971" fill="#FFFFFF" fill-rule="evenodd" transform="matrix(1 0 0 -1 1425 1011)"/><path d="M-1.89864-0.913857-1.12175-1.34051 0.101977-0.780651-0.706164-0.340479Z" fill="#0E4B87" fill-rule="evenodd" transform="matrix(1 0 0 -1 1429 999)"/><path d="M-0.980645-0.116467-0.241368-0.711038-0.655543-1.73081-0.710616-1.68857-0.593726-1.86583 0.0196691-1.05846-0.779177 0.134627" fill="#0E4B87" fill-rule="evenodd" transform="matrix(1 0 0 -1 1438 1009)"/><path d="M-1.67075-3.66752-1.0247-3.15804-0.898966-3.57875-0.670235-3.25221-1.31629-2.66708" fill="#0E4B87" fill-rule="evenodd" transform="matrix(1 0 0 -1 1427 1002)"/><path d="M-1.0497-1.07471-0.0493695-1.79119-0.794728-0.790777" fill="#0E4B87" fill-rule="evenodd" transform="matrix(1 0 0 -1 1437 1009)"/><path d="M-1.68353-0.96921-0.488315-2.25986-0.394223-2.31221 0.317019-1.04847-0.952504-0.311654" fill="#0E4B87" fill-rule="evenodd" transform="matrix(1 0 0 -1 1437 1009)"/><path d="M0.325304-1.99212 0.832858-1.42607-1.16754 0.00800219" fill="#0E4B87" fill-rule="evenodd" transform="matrix(1 0 0 -1 1436 1008)"/><path d="M-2.12557-1.17779-1.5024-1.52368-0.125251-0.884632-0.783593-0.523322Z" fill="#0E4B87" fill-rule="evenodd" transform="matrix(1 0 0 -1 1423 1005)"/><path d="M-1.2666-0.272102-0.0598451-1.09422 0.733832-0.616764 0.58203-0.512575 0.617791-0.560018-0.363084-0.867005-0.954602-0.0939566" fill="#0E4B87" fill-rule="evenodd" transform="matrix(1 0 0 -1 1431 1014)"/><path d="M-2.56928-1.78592-2.10275-2.45003-1.78131-2.2524-2.12061-2.11823-1.56925-1.45" fill="#0E4B87" fill-rule="evenodd" transform="matrix(1 0 0 -1 1426 1002)"/><path d="M-1.22516-0.440701-0.225131-1.22481-0.891702-0.224513" fill="#0E4B87" fill-rule="evenodd" transform="matrix(1 0 0 -1 1432 1013)"/><path d="M28.6559 49.8586 23.2332 74.8296 24.1058 78.9562C25.371 83.2938 25.9286 87.9968 23.0484 91.0554 21.1763 93.0454 18.9054 93.7655 16.2274 92.9049 13.5607 92.0504 11.761 90.2243 10.6053 87.7542 9.77035 85.9572 9.08258 84.0868 8.38062 82.2283 5.86434 75.5026 3.0533 59.3469 3.31614 52.1587 3.44312 48.6408 4.46006 45.594 6.49394 43.1121 6.64434 42.8839 6.77132 42.6381 6.89582 42.3837L1.31418 28.218-1.24572 25.9146 6.37583 17.6876 8.0252 19.1656 8.0252 3.87041C8.0252 0.773651 10.5184-1.73739 13.5927-1.73739 13.6125-1.73739 13.6444-1.72841 13.6444-1.72841L13.6792-1.73128C13.731-1.73452 13.7714-1.71403 13.8236-1.71691 14.1588-1.70218 14.494-1.66696 14.8089-1.59402 15.8631-1.40968 16.7648-0.906246 17.4926-0.12469 17.5331-0.0837253 17.565-0.0370116 17.6054 0.00107801 17.8019 0.226741 18.0126 0.431203 18.1744 0.694597 18.7926 1.59617 19.1537 2.68783 19.1537 3.87041L19.1537 4.78923C19.1537 4.81546 19.1598 4.83918 19.1598 4.86829L19.1537 44.1542C19.1537 45.3953 19.0094 49.2467 19.2059 53.1918L20.3239 48.0555C20.5608 46.9609 21.2021 46.0565 22.0371 45.4567 22.9817 44.769 24.1895 44.4761 25.4114 44.7395 27.7025 45.2343 29.1557 47.5258 28.6559 49.8586" fill="#FFFFFF" fill-rule="evenodd" transform="matrix(1 0 0 -1 1431 1026)"/><path d="M-1.16051-1.44203-1.47748-2.0267-1.28242-2.14409-0.477806-1.39056-0.589024-1.14406" fill="#0E4B87" fill-rule="evenodd" transform="matrix(1 0 0 -1 1427 1002)"/><path d="M-0.922614-1.36294 0.0776854-2.49129-0.420195-0.491226" fill="#0E4B87" fill-rule="evenodd" transform="matrix(1 0 0 -1 1427 1003)"/><path d="M-0.80874-0.610886-0.431049-2.07869 0.191292-1.49961 0.170322-1.40596-0.489997-0.0786245" fill="#0E4B87" fill-rule="evenodd" transform="matrix(1 0 0 -1 1432 1014)"/><path d="M-0.180426-1.68889 0.153569-1.2569-0.846707 0.311177" fill="#0E4B87" fill-rule="evenodd" transform="matrix(1 0 0 -1 1431 1013)"/><path d="M8.1847-1.8282C13.156-1.777 17.144 2.29713 17.0898 7.26566 17.039 12.2283 12.9701 16.2218 7.99585 16.1706 3.02458 16.1197-0.960459 12.0423-0.909288 7.07669-0.858486 2.10816 3.21343-1.87941 8.1847-1.8282" fill="#FFFFFF" fill-rule="evenodd" transform="matrix(1 0 0 -1 1097 953)"/><path d="M50.5414 5.6403 37.279 31.8357C36.7369 32.9119 35.6378 33.588 34.4365 33.588L14.1294 33.588 12.6993 40.6362 26.5657 40.6362C28.7488 40.642 30.5156 42.421 30.5156 44.6145 30.5156 46.8079 28.7488 48.5869 26.5657 48.5927L26.5657 48.5956 11.108 48.5956 9.1271 58.1928C8.57053 60.9451 5.88914 62.7242 3.14658 62.1624 0.400788 61.6007-1.37218 58.9134-0.812369 56.164L5.34408 25.8904C5.64593 24.3998 6.95299 23.3294 8.468 23.3294L28.2214 23.3294C29.4198 23.3294 30.5185 22.6561 31.0607 21.5829L41.478 1.06532C42.3778-0.725254 44.1914-1.75447 46.0669-1.73389 46.817-1.72812 47.5761-1.55159 48.291-1.18986 50.7936 0.0714785 51.8013 3.13242 50.5414 5.6403" fill="#FFFFFF" fill-rule="evenodd" transform="matrix(1 0 0 -1 1104 1019)"/><path d="M49.1256 23.4241C47.3953 13.6774 38.8224 6.19566 28.4451 6.08999 16.7393 5.96953 7.12295 15.2726 6.99521 26.8286 6.91492 34.7774 11.3412 41.7539 17.9283 45.3731L16.2933 53.2837C6.05872 48.7304-1.03065 38.5199-0.908753 26.7464-0.739411 10.887 12.4678-1.88225 28.5254-1.71491 39.6607-1.60022 49.2858 4.70941 54.0894 13.848" fill="#FFFFFF" fill-rule="evenodd" transform="matrix(1 0 0 -1 1086 1026)"/><path d="M16.041 7.16193C16.041 2.19104 12.2377-1.83964 7.54091-1.83964 2.84373-1.83964-0.959534 2.19104-0.959534 7.16193-0.959534 12.1299 2.84373 16.1606 7.54091 16.1606 12.2377 16.1606 16.041 12.1299 16.041 7.16193" fill="#FFFFFF" fill-rule="evenodd" transform="matrix(1 0 0 -1 1207 930)"/><path d="M22.841-1.65785C21.862-1.92242 20.7855-1.8155 19.8176-1.28928L3.46086 7.66305-0.673383 18.1937C-1.55569 20.423-0.519146 22.9702 1.64507 23.8766 3.78896 24.7952 6.25885 23.7073 7.138 21.4784L8.72278 17.4507C9.62471 15.156 11.275 13.2628 13.3881 12.1096L23.7633 6.43252C25.8217 5.306 26.6128 2.66358 25.5219 0.535709 24.9397-0.599936 23.9519-1.3608 22.841-1.65785" fill="#FFFFFF" fill-rule="evenodd" transform="matrix(1 0 0 -1 1206 968)"/><path d="M9.95997-1.71969C8.8739-1.71969 7.99314-0.873373 7.99314 0.160894L7.99314 51.0748C7.99314 51.6863 7.75996 52.2678 7.33352 52.7144 6.84266 53.2289 6.16758 53.5139 5.4311 53.5168L5.42508 53.5168C4.73795 53.5168 4.09339 53.2639 3.60856 52.8057 3.12372 52.3472 2.85701 51.7361 2.85701 51.0867 2.85399 50.0496 1.97323 49.2094 0.890178 49.2094L0.887164 49.2094C-0.199282 49.2123-1.07665 50.0582-1.07364 51.0986-1.07062 52.7556-0.389524 54.3129 0.844219 55.4796 2.07156 56.643 3.69445 57.2808 5.42206 57.2808 5.42809 57.2808 5.43412 57.2808 5.43412 57.2808 7.26608 57.2779 9.0148 56.5373 10.2391 55.2501 11.3256 54.1073 11.9268 52.6293 11.9268 51.0748L11.9268 0.160894C11.9268-0.873373 11.0464-1.71969 9.95997-1.71969" fill="#FFFFFF" fill-rule="evenodd" transform="matrix(1 0 0 -1 1223 1026)"/><path d="M19.9704 78.9544C21.2425 83.2919 21.8042 87.9948 18.9052 91.0562 17.0164 93.0433 14.7317 93.7663 12.0282 92.9061 9.34184 92.0516 7.52879 90.2251 6.36749 87.749 5.52635 85.9581 4.831 84.0849 4.12958 82.2265 1.59152 75.5009-1.24027 59.3484-0.975491 52.1575-0.844353 48.6397 0.180091 45.593 2.22612 43.1111 3.31738 41.4431 3.57358 38.8998 3.76582 38.0101L3.76582 3.87032C3.76582 0.773633 6.2803-1.73735 9.37686-1.73735 9.40009-1.73735 9.42903-1.72837 9.42903-1.72837L9.46119-1.73448C9.51372-1.73448 9.55445-1.71399 9.60662-1.71687 9.95001-1.70214 10.282-1.66692 10.605-1.59398 11.6644-1.40641 12.5753-0.903351 13.306-0.124687 13.3435-0.0837234 13.3785-0.0370108 13.4221 0.00107798 13.6201 0.229251 13.8327 0.431194 13.9928 0.694581 14.6156 1.59901 14.9793 2.68777 14.9793 3.87032L14.9793 4.78912C14.9793 4.81536 14.985 4.84195 14.985 4.86818L14.9793 44.1532C14.9793 45.9706 14.6592 53.431 15.5993 58.5435" fill="#FFFFFF" fill-rule="evenodd" transform="matrix(1 0 0 -1 1195 1026)"/><path d="M-0.995078-1.61993-0.995078 40.3804 8.88406 40.3804C13.9148 40.3804 17.8582 39.2658 20.7172 37.037 23.5787 34.8078 25.0051 31.7091 25.0051 27.7405 25.0051 23.8103 23.5642 20.741 20.6904 18.5295 17.8112 16.3184 13.8794 15.2158 8.88406 15.2158L6.83854 15.2158 6.83854-1.61993ZM8.65429 21.5634C14.1033 21.5634 16.8295 23.6217 16.8295 27.7405 16.8295 29.7807 16.1373 31.3493 14.7579 32.4461 13.3786 33.543 11.4011 34.0885 8.82508 34.0885L6.83854 34.0885 6.83854 21.5634" fill="#FFFFFF" fill-rule="evenodd" transform="matrix(1 0 0 -1 1184 1096)"/><path d="M-1.01249-1.62394-1.01249 28.9753 6.11247 28.9753 6.11247 24.1793C7.04735 26.0085 8.15139 27.3302 9.4246 28.1498 10.6946 28.9662 12.2267 29.376 14.0239 29.376 14.7728 29.376 15.4251 29.3198 15.9873 29.2039L15.3146 22.9233C14.6415 23.0775 14.0239 23.1548 13.462 23.1548 11.7403 23.1548 10.3101 22.7716 9.17103 22.0114 8.02908 21.2483 7.08526 20.0692 6.33672 18.4718L6.33672-1.62394" fill="#FFFFFF" fill-rule="evenodd" transform="matrix(1 0 0 -1 1215 1096)"/><path d="M2.99346 32.7877C1.86104 32.7877 0.910961 33.2069 0.145656 34.0457-0.622444 34.8846-1.00667 35.8928-1.00667 37.0767-1.00667 38.2574-0.622444 39.2689 0.145656 40.1045 0.910961 40.9433 1.86104 41.3658 2.99346 41.3658 4.12587 41.3658 5.07595 40.9433 5.84405 40.1045 6.60936 39.2689 6.99358 38.2574 6.99358 37.0767 6.99358 35.8928 6.60936 34.8846 5.84405 34.0457 5.07595 33.2069 4.12587 32.7877 2.99346 32.7877M-0.676584 29.0132 6.50143 29.0132 6.50143-1.63455-0.676584-1.63455" fill="#FFFFFF" fill-rule="evenodd" transform="matrix(1 0 0 -1 1236 1096)"/><path d="M-1.09403-1.62394-1.09403 28.9753 6.03129 28.9753 6.03129 24.1793C6.96617 26.0085 8.07021 27.3302 9.34306 28.1498 10.6131 28.9662 12.1484 29.376 13.9427 29.376 14.6913 29.376 15.344 29.3198 15.9062 29.2039L15.2359 22.9233C14.5604 23.0775 13.9427 23.1548 13.3805 23.1548 11.6588 23.1548 10.2286 22.7716 9.08985 22.0114 7.9479 21.2483 7.00694 20.0692 6.25553 18.4718L6.25553-1.62394" fill="#FFFFFF" fill-rule="evenodd" transform="matrix(1 0 0 -1 1289 1096)"/><path d="M2.91417 32.7877C1.78175 32.7877 0.831322 33.2069 0.0632224 34.0457-0.702083 34.8846-1.08596 35.8928-1.08596 37.0767-1.08596 38.2574-0.702083 39.2689 0.0632224 40.1045 0.831322 40.9433 1.78175 41.3658 2.91417 41.3658 4.04623 41.3658 4.99666 40.9433 5.76197 40.1045 6.53007 39.2689 6.91394 38.2574 6.91394 37.0767 6.91394 35.8928 6.53007 34.8846 5.76197 34.0457 4.99666 33.2069 4.04623 32.7877 2.91417 32.7877M-0.758669 29.0132 6.41899 29.0132 6.41899-1.63455-0.758669-1.63455" fill="#FFFFFF" fill-rule="evenodd" transform="matrix(1 0 0 -1 1310 1096)"/><path d="M16.3429-0.595704C15.317-1.00992 14.4026-1.28306 13.5992-1.41547 12.7929-1.54465 11.9153-1.61248 10.9638-1.61248 8.33131-1.61248 6.31722-0.804255 4.9268 0.817966 3.53638 2.4373 2.84415 4.79125 2.84415 7.87982L2.84415 24.7721-1.10744 24.7721-1.10744 29.3479 2.84415 29.3479 2.84415 35.0549 10.032 38.3874 10.032 29.3479 16.5622 29.3479 16.5622 24.7721 10.032 24.7721 10.032 9.23468C10.032 7.42736 10.2688 6.15477 10.7445 5.42015 11.2202 4.68842 12.0436 4.32111 13.2144 4.32111 13.7643 4.32111 14.2942 4.37668 14.8042 4.48853 15.317 4.60327 16.0124 4.84718 16.8924 5.22315" fill="#FFFFFF" fill-rule="evenodd" transform="matrix(1 0 0 -1 1324 1097)"/><path d="M0.0207688 6.10307C0.866657 5.5101 1.64073 5.08447 2.34018 4.82405 3.03963 4.56363 3.77675 4.43359 4.54801 4.43359 5.76351 4.43359 6.84173 5.0557 7.77914 6.29706 8.71937 7.54126 9.57406 9.4399 10.3481 12.0008 8.28393 16.9694 6.44607 21.6976 4.8261 26.1859 2.76471 31.8228 1.07012 36.5687-0.254506 40.426L7.69607 40.426C8.1748 38.8315 8.65354 37.2459 9.13228 35.6716 9.61137 34.0945 10.0901 32.5085 10.5688 30.9144 11.9681 26.539 13.1635 22.9389 14.1583 20.1205 14.7089 21.9377 15.2249 23.7376 15.7037 25.5176 16.1828 27.2972 16.6615 29.0971 17.1402 30.9144 18.0234 34.1407 18.7975 37.3123 19.4596 40.426L26.8597 40.426C26.1602 38.0531 25.452 35.6716 24.7324 33.2784 24.0154 30.8852 23.2874 28.5037 22.5531 26.1308 20.6727 20.1958 18.9063 14.8541 17.2522 10.1082 16.257 7.2144 15.1876 4.93419 14.0467 3.26719 12.9055 1.59771 11.6094 0.373759 10.1531-0.404669 8.6993-1.1831 7.08814-1.57391 5.32209-1.57391 2.81892-1.57391 0.665657-0.980585-1.14052 0.20571" fill="#FFFFFF" fill-rule="evenodd" transform="matrix(1 0 0 -1 1343 1108)"/><path d="M21.886 28.4125C19.4147 28.4125 17.1643 26.6553 15.413 25.218 13.6645 26.6553 11.4112 28.4125 8.93956 28.4125 3.40146 28.4125-1.08722 24.0503-1.08722 18.6747-1.08722 5.86441 15.0185-1.58778 15.413-1.58778 15.8133-1.58778 31.9128 5.86441 31.9128 18.6747 31.9128 24.0503 27.427 28.4125 21.886 28.4125" fill="#F29DC2" fill-rule="evenodd" transform="matrix(1 0 0 -1 1250 1096)"/></g></svg>