<svg width="164" height="164" xmlns="http://www.w3.org/2000/svg" xmlns:xlink="http://www.w3.org/1999/xlink" xml:space="preserve" overflow="hidden"><g transform="translate(-2611 -1542)"><path d="M151.365 162.183 10.44 162.183C4.34206 162.183-0.59781 157.24-0.59781 151.145L-0.59781 10.2205C-0.59781 4.11933 4.34206-0.817296 10.44-0.817296L151.365-0.817296C157.46-0.817296 162.402 4.11933 162.402 10.2205L162.402 151.145C162.402 157.24 157.46 162.183 151.365 162.183" fill="#2E2A26" fill-rule="evenodd" transform="matrix(1 0 0 -1 2612 1705)"/><path d="M4.82558-0.903245C1.87738-0.903245-0.619713 1.72358-0.619713 5.09696-0.619713 8.47338 1.87738 11.0968 4.82558 11.0968 7.88629 11.0968 10.3806 8.47338 10.3806 5.09696 10.3806 1.72358 7.88629-0.903245 4.82558-0.903245" fill="#FFFFFF" fill-rule="evenodd" transform="matrix(1 0 0 -1 2736 1600)"/><path d="M20.085 49.3962C20.7896 52.9445 18.3215 56.3737 14.7998 57.0816 12.9207 57.4371 11.1568 56.9649 9.74836 55.9015L1.48391 49.9936C0.897717 49.638 0.458959 48.7055 0.340587 47.9948L-0.629075 41.8883 4.07322 41.8883C4.07322 41.8883 4.40494 41.7749 4.42231 41.7692L4.93337 44.9913C4.97094 45.227 5.0085 45.2621 5.12687 45.3815L8.73794 47.6482 1.8245 8.6704 0.819747 3.04179C0.586192 1.26765 1.76106-0.506489 3.52176-0.742564 5.28565-1.09811 7.25404 0.189576 7.49078 1.96407L11.5753 25.3262 18.5583 18.4128C18.6738 18.2962 18.7922 18.0601 18.7922 17.9406L18.7922 14.8674 18.7922 7.41777 18.7922 2.70413C18.7922 0.813386 20.2006-0.605569 22.08-0.605569 23.8435-0.605569 25.3707 0.813386 25.3707 2.70413L25.3707 21.0171C25.3707 21.9611 24.9 22.7884 24.3142 23.38L16.9127 30.9487" fill="#FFFFFF" fill-rule="evenodd" transform="matrix(1 0 0 -1 2720 1659)"/><path d="M-0.638683 2.11948-0.641791 2.11948 0.908685 11.1695 6.32273 10.3646 4.76914 1.31427 4.76293 1.31427C4.52866-0.0155685 3.22488-0.965245 1.76298-0.814991 0.259902-0.661479-0.825159 0.600653-0.660827 2.00435-0.660827 2.04562-0.641791 2.08111-0.638683 2.11948" fill="#FFFFFF" fill-rule="evenodd" transform="matrix(1 0 0 -1 2719 1622)"/><path d="M6.27716-0.231443 6.27149-0.237037-0.64143 5.39837 2.54517 9.2025 9.45809 3.5671 9.45525 3.5615C10.4684 2.72733 10.6648 1.25231 9.86492 0.195783 9.03956-0.897805 7.4693-1.12261 6.36115-0.308358 6.32925-0.282487 6.30622-0.251371 6.27716-0.231443" fill="#FFFFFF" fill-rule="evenodd" transform="matrix(1 0 0 -1 2739 1624)"/><path d="M2.40048 3.07759 1.49288 10.172-0.599953-0.827988" fill="#FFFFFF" fill-rule="evenodd" transform="matrix(1 0 0 -1 2739 1618)"/><path d="M70.1218 32.3864 65.977 37.2512C65.2615 38.0905 64.3264 39.6127 63.8984 40.6323L57.4199 56.0182C56.4582 58.3085 53.6469 60.1852 51.1728 60.1852L19.6738 60.1852C17.1998 60.1852 14.3884 58.3085 13.4296 56.0182L7.35277 41.5808 1.51634 41.5808C1.51634 41.5808-0.574069 41.5808-0.574069 39.3703L-0.574069 39.2756-0.574069 36.9704-0.574069 36.8789C-0.574069 34.6651 1.51634 34.6651 1.51634 34.6651L2.67131 34.6651 0.727755 32.3864C0.0122372 31.5442-0.574069 29.9542-0.574069 28.8489L-0.574069 10.1589 0.551755 7.89794 0.551755 0.526868C0.551755-0.209005 1.14994-0.814613 1.88273-0.814613L10.4661-0.814613C11.2017-0.814613 11.7999-0.209005 11.7999 0.526868L11.7999 6.76583 59.0496 6.76583 59.0496 0.526868C59.0496-0.209005 59.6478-0.814613 60.3835-0.814613L68.9668-0.814613C69.6971-0.814613 70.2978-0.209005 70.2978 0.526868L70.3007 7.89794 71.4207 10.1589 71.4265 28.8547C71.4207 29.96 70.8373 31.5471 70.1218 32.3864" fill="#FFFFFF" fill-rule="evenodd" transform="matrix(1 0 0 -1 2638 1659)"/><path d="M2.93903 0.421806C2.93903 0.421806 1.40847 0.502554 0.42916 3.19099 0.159602 3.93543-0.175783 4.85554-0.496458 6.1794-0.70019 7.03328-0.319572 8.21016-0.319572 8.21016L11.0504 4.99119C13.785 4.02468 14.8305 2.72385 16.1364 0.897798 17.3194-0.760737 14.7945-0.893548 13.5904-0.743384 10.6279-0.377181 2.93903 0.421806 2.93903 0.421806" fill="#2E2A26" fill-rule="evenodd" transform="matrix(1 0 0 -1 2639 1637)"/><path d="M2.23609-0.743738C1.03162-0.893902-1.49355-0.758258-0.307095 0.897444 0.995944 2.7235 2.04117 4.02433 4.77597 4.99083L16.1469 8.21016C16.1469 8.21016 16.5276 7.03293 16.3239 6.18223 16.0035 4.85519 15.6677 3.93225 15.3982 3.19063 14.4188 0.502554 12.8881 0.421451 12.8881 0.421451 12.8881 0.421451 5.19855-0.377535 2.23609-0.743738" fill="#2E2A26" fill-rule="evenodd" transform="matrix(1 0 0 -1 2692 1637)"/><path d="M23.731-0.828187C18.8073-0.79585 13.3574-0.60578 10.799-0.509129 9.98628-0.476792 4.9366-0.199052 1.63584 0.00610811 0.726562 0.0614404-0.0513332 0.199052-0.384461 0.720038-0.618511 1.07395-0.662306 1.65063-0.352512 2.35306 0.910716 5.25297 4.3346 14.7816 5.08881 15.6393 6.11511 16.8156 7.82849 17.1695 9.37818 17.1695L36.8411 17.1695C38.534 17.1695 39.9024 17.0732 41.0253 16.2713 41.5867 15.8674 46.0513 5.20626 46.9605 2.94411 47.4312 1.77926 47.9517 0.362893 46.3086 0.102401 45.9166 0.0380858 44.9664-0.0319777 44.4492-0.0614404 38.4493-0.398105 29.7424-0.869148 23.731-0.828187" fill="#2E2A26" fill-rule="evenodd" transform="matrix(1 0 0 -1 2650 1620)"/><path d="M8.49804-0.815826 8.49804 20.4278 8.49804 20.422C8.4951 20.422 8.36642 22.1986 7.23141 23.4244 5.53055 25.2574 3.69475 27.2902 3.69475 27.2902 3.53886 27.4418 1.49055 29.5367 0.484594 32.2147L-0.632399 35.1846 6.0964 35.1846C6.28502 35.1846 7.2884 35.1697 8.33333 34.8069 10.1842 34.1697 11.2861 32.7295 11.2861 30.9561L19.6621 30.9561 19.9827 30.8607C22.0071 30.2331 23.6753 28.6113 24.9389 26.0282 27.7899 20.1987 28.1969 9.635 25.8103 3.41858L25.7085 3.1537 25.5408 2.91878C24.6875 1.74016 21.3604-0.301048 20.9409-0.530122L20.4379-0.815826" fill="#2E2A26" fill-rule="evenodd" transform="matrix(1 0 0 -1 2701 1650)"/><path d="M16.4162 26.8949 5.98799 26.8949 5.98799 29.1219C5.98799 31.186 2.95678 31.1742 2.95678 31.1742L-0.644095 31.1742C0.242377 28.8355 2.18626 26.8949 2.18626 26.8949 2.18626 26.8949 4.04748 24.8485 5.76581 23.0016 7.55409 21.0788 7.65172 18.4571 7.65172 18.4571L7.65172-0.826176 16.9556-0.826176C17.9124-0.295618 20.4741 1.43406 20.9069 2.03048 23.8375 9.61849 22.3144 25.0838 16.4162 26.8949" fill="#FFFFFF" fill-rule="evenodd" transform="matrix(1 0 0 -1 2704 1648)"/><path d="M3.90841-0.817983C1.50069-0.817983-0.543455 1.14878-0.543455 3.68181-0.543455 6.21237 1.50069 8.18195 3.90841 8.18195 6.41827 8.18195 8.45684 6.21237 8.45684 3.68181 8.45684 1.14878 6.41827-0.817983 3.90841-0.817983" fill="#FFFFFF" fill-rule="evenodd" transform="matrix(1 0 0 -1 2658 1614)"/><path d="M1.1036-0.195992C2.22928-0.27313 3.40374-0.353022 4.16084-0.414024 5.59669-0.526188 7.02934-0.58719 8.22161-0.638352 8.52894-0.65134 8.80742-0.663934 9.01646-0.673773 10.197-0.728084 11.7023-0.779246 13.2222-0.820964 14.3243-0.853235 15.4351-0.881965 16.4447-0.90125L16.4447 0.502575C16.4447 1.93237 15.2207 3.09928 13.7182 3.09928L2.17408 3.09928C0.674481 3.09928-0.555182 1.93237-0.555182 0.502575L-0.555182-0.083828C-0.0594711-0.115706 0.514942-0.157423 1.1036-0.195992" fill="#FFFFFF" fill-rule="evenodd" transform="matrix(1 0 0 -1 2654 1619)"/></g></svg>