<svg width="256" height="256" xmlns="http://www.w3.org/2000/svg" xmlns:xlink="http://www.w3.org/1999/xlink" xml:space="preserve" overflow="hidden"><g transform="translate(-489 -428)"><path d="M233.396 252.673 20.8966 252.673C9.16096 252.673-0.353431 243.158-0.353431 231.422L-0.353431 18.9238C-0.353431 7.18812 9.16096-2.327 20.8966-2.327L233.396-2.327C245.132-2.327 254.647 7.18812 254.647 18.9238L254.647 231.422C254.647 243.158 245.132 252.673 233.396 252.673" fill="#2E2A26" fill-rule="evenodd" transform="matrix(1 0 0 -1 490 681)"/><path d="M120.427 104.207 101.028 104.207 101.028 128.404C101.028 147.301 84.6004 162.683 64.4108 162.683 44.2241 162.683 27.7995 147.301 27.7995 128.404L27.7995 104.207 5.87103 104.207-0.351952 7.99531C-0.351952 2.32264 4.29122-2.31651 9.96825-2.31651L116.33-2.31651C121.999-2.31651 126.648 2.32264 126.648 7.99531ZM59.3944 104.207 72.532 117.341C74.7905 119.596 78.4532 119.596 80.7088 117.341L93.8464 104.207ZM66.1702 115.206 55.1706 104.207 49.4904 104.207 49.4904 129.05 66.1702 129.05ZM32.7835 128.404C32.7835 144.559 46.9733 157.707 64.4108 157.707 81.8544 157.707 96.0436 144.559 96.0436 128.404L96.0436 106.236 82.8205 119.455C79.4019 122.872 73.8389 122.872 70.4203 119.455L69.16 118.195 69.16 132.033 46.5006 132.033 46.5006 104.207 32.7835 104.207" fill="#FFFFFF" fill-rule="evenodd" transform="matrix(1 0 0 -1 554 636)"/><path d="M10.208 4.1274C13.0656 9.74875 18.8216 21.0506 18.8363 21.0859 19.2272 21.8583 19.7264 22.1901 20.5876 22.2283 24.3877 22.3956 27.9781 23.3152 31.2295 25.3799 33.0712 26.5515 34.519 28.1143 35.6922 29.944 38.5645 34.4403 40.6398 39.2806 41.8482 44.488 42.5459 47.4752 42.9079 50.4941 42.4495 53.5578 42.0729 56.0628 41.139 58.3097 39.1744 59.984 38.8039 60.298 38.4273 60.5714 38.0449 60.8151 37.6363 61.0117 37.2074 61.188 36.7462 61.3348 34.2914 62.1219 31.9036 61.7256 29.595 60.712 26.7726 59.4759 24.4228 57.5636 22.2776 55.3845 18.5385 51.5867 15.5641 47.243 13.3049 42.4055 12.3854 40.4378 11.8428 38.3701 11.831 36.1762 11.822 32.3081 12.952 28.7602 14.8316 25.4355 15.2605 24.6746 15.243 24.0728 14.7964 23.3325 14.7818 23.3004 8.32262 12.3894 5.10882 6.96747 3.28762 3.89517 1.46929 0.823244-0.346537-2.24905L6.95941-2.24905C8.04238-0.125488 9.12535 2.00096 10.208 4.1274" fill="#2E2A26" fill-rule="evenodd" transform="matrix(1 0 0 -1 593 636)"/><path d="M17.6563 16.6397C20.3425 21.9072 25.4118 31.6663 25.9018 32.0704 26.3932 32.4745 26.6548 32.5129 26.9626 32.619 29.0141 33.324 31.0595 34.0406 33.0988 34.7807 34.9089 35.4354 36.1256 36.7538 37.0839 38.3848 39.3584 42.2513 41.2977 46.283 43.1255 50.3707 45.2298 55.0835 47.2694 59.8234 49.3292 64.554 49.7672 65.5595 51.2014 68.4234 51.6214 69.4351 51.7654 69.7773 51.6333 70.1723 51.3129 70.3552L50.9604 70.5587C50.6076 70.7593 50.1609 70.6384 49.9614 70.2813 48.4712 67.6329 41.73 55.5937 38.7205 50.2382 38.3943 49.6541 38.0801 49.0643 37.751 48.4831 37.3981 47.861 36.9017 47.6575 36.4225 47.9287 35.9289 48.209 35.8229 48.7279 36.1346 49.3532 37.9978 53.0959 39.8577 56.8386 41.7209 60.5842 43.061 63.2797 46.5377 70.0778 47.3986 71.8091 47.5721 72.157 47.4426 72.5789 47.1077 72.7733 46.752 72.9772 46.3024 72.8501 46.1025 72.4934 45.2153 70.8919 43.3139 67.4323 42.4321 65.8278 39.6229 60.72 36.8133 55.6147 34.004 50.5065 33.71 49.9728 33.1399 49.7338 32.6817 49.934L32.6463 49.955C32.2318 50.2411 32.1289 50.8484 32.4259 51.3853 35.2441 56.4877 38.0624 61.5869 40.8806 66.6893 41.765 68.2934 43.6754 71.7442 44.5569 73.3516 44.7539 73.7115 44.6186 74.1598 44.2603 74.3543 43.9193 74.5371 43.4932 74.4224 43.2933 74.0889 42.2881 72.4373 38.3972 65.872 36.8309 63.2975 34.6593 59.726 32.4905 56.1542 30.3188 52.5799 29.9573 51.9839 29.464 51.7981 28.9647 52.0697 28.4823 52.3322 28.3885 52.8656 28.7258 53.4942 29.0405 54.0841 29.3731 54.662 29.6899 55.2519 32.6139 60.6548 39.1967 72.7853 40.6425 75.4572 40.8337 75.8143 40.6984 76.2626 40.3427 76.4541L39.9844 76.646C39.6582 76.8198 39.2556 76.7228 39.0409 76.419 38.412 75.5224 36.7577 72.7824 36.1404 71.8768 33.2427 67.6123 30.3217 63.3594 27.4652 59.0652 24.9861 55.3402 22.6109 51.5476 20.5569 47.563 19.6891 45.8788 19.2219 44.1447 19.6307 42.2571 20.09 40.1308 20.5709 38.0103 21.0681 35.8928 21.1414 35.5741 21.2886 35.35 21.2792 34.6247 21.2734 33.899 15.5431 24.5734 12.5228 19.4917 9.32211 14.1061 6.13116 8.718 2.93623 3.33244 1.85165 1.50997 0.764545-0.30996-0.320395-2.13279 0.123756-2.19145 0.564659-2.26821 1.02613-2.26821L8.00554-2.26821C8.37284-1.54546 8.7423-0.820164 9.10996-0.0974058 11.9582 5.48261 14.8118 11.0597 17.6563 16.6397" fill="#2E2A26" fill-rule="evenodd" transform="matrix(1 0 0 -1 563 636)"/><path d="M45.0857 89.7244C26.5666 89.7244 10.1971 80.3874 0.329206 66.1757L-0.340011 55.7657C7.56597 73.0666 24.9328 85.1357 45.0857 85.1357 72.6558 85.1357 95.0926 62.6005 95.0926 34.8988 95.0926 20.5749 89.0639 7.17349 78.6906-2.27573L85.2031-2.27573C94.4061 7.73076 99.66 20.9169 99.66 34.8988 99.66 65.1292 75.1817 89.7244 45.0857 89.7244" fill="#2E2A26" fill-rule="evenodd" transform="matrix(1 0 0 -1 557 636)"/></g></svg>