<svg width="251" height="251" xmlns="http://www.w3.org/2000/svg" xmlns:xlink="http://www.w3.org/1999/xlink" xml:space="preserve" overflow="hidden"><g transform="translate(-489 -1330)"><path d="M228.817 248.897 20.4858 248.897C8.97906 248.897-0.349027 239.569-0.349027 228.065L-0.349027 15.5631C-0.349027 6.35834 7.11518-1.10304 16.3205-1.10304L232.983-1.10304C242.19-1.10304 249.652 6.35834 249.652 15.5631L249.652 228.065C249.652 239.569 240.324 248.897 228.817 248.897" fill="#0E4B87" fill-rule="evenodd" transform="matrix(1 0 0 -1 490 1579)"/><path d="M18.4935 31.7151 37.4944 31.7151 37.4944 53.501 56.2663 53.501 56.2663 75.4158 75.3228 75.4158 75.3228 96.9399 101.608 96.9399 101.608 86.0354 84.7453 86.0354 84.7366 64.1997 65.821 64.1997 65.821 42.5434 46.8229 42.5434 46.8229 20.7254 27.9369 20.7254 27.9369-1.06008-0.392949-1.06008-0.392949 9.93251 18.4935 9.93251" fill="#FFFFFF" fill-rule="evenodd" transform="matrix(1 0 0 -1 604 1535)"/><path d="M-0.393502 3.70442 4.59427-1.13837 27.0923 20.7025 27.0923 1.07866 33.6065 7.40386 33.6065 31.8616 8.39568 31.8616 1.88149 25.5396 22.1042 25.5396" fill="#FFFFFF" fill-rule="evenodd" transform="matrix(1 0 0 -1 633 1431)"/><path d="M32.7211 27.9672 27.8798 32.9568 6.04392 10.454 6.04392 30.6722-0.279246 24.1553-0.279246-1.04361 24.1903-1.04361 30.5124 5.47034 10.8852 5.47034" fill="#FFFFFF" fill-rule="evenodd" transform="matrix(1 0 0 -1 539 1526)"/><path d="M3.58786 7.92121 81.7689 7.92121C83.9233 7.92121 85.6796 6.18791 85.6796 4.06178L85.6796 2.77746C85.6796 0.65422 83.9233-1.07908 81.7689-1.07908L3.58786-1.07908C1.43565-1.07908-0.320697 0.65422-0.320697 2.77746L-0.320697 4.06178C-0.320697 6.18791 1.43565 7.92121 3.58786 7.92121" fill="#FFFFFF" fill-rule="evenodd" transform="matrix(1 0 0 -1 543 1474)"/><path d="M8.79263-1.20604C13.7646-1.15558 17.7507 2.91599 17.6973 7.88683 17.6466 12.8544 13.5763 16.8465 8.60365 16.7931 3.63168 16.7401-0.351125 12.6653-0.301431 7.70059-0.248109 2.72685 3.81957-1.25905 8.79263-1.20604" fill="#FFFFFF" fill-rule="evenodd" transform="matrix(1 0 0 -1 562 1392)"/><path d="M52.1197 6.34728 38.6042 32.9572C38.0477 34.0428 36.9264 34.7314 35.7021 34.7314L15.0057 34.7314 13.549 41.8876 27.6816 41.8876C29.9066 41.8995 31.708 43.7034 31.708 45.9307 31.708 48.1583 29.9066 49.965 27.6816 49.9708L11.9268 49.9708 9.9079 59.7195C9.33767 62.5151 6.60611 64.3219 3.80987 63.7539 1.01363 63.1802-0.793557 60.4522-0.222239 57.657L6.04961 26.913C6.35858 25.4007 7.68912 24.3118 9.23432 24.3118L29.3681 24.3118C30.5895 24.3118 31.708 23.629 32.2645 22.5376L42.8806 1.70126C43.8018-0.117415 45.6472-1.16187 47.5574-1.14128 48.3228-1.12971 49.0997-0.95594 49.8297-0.58816 52.3787 0.691846 53.4029 3.79919 52.1197 6.34728" fill="#FFFFFF" fill-rule="evenodd" transform="matrix(1 0 0 -1 568 1459)"/><path d="M49.7271 24.4721C47.9961 14.5466 39.4258 6.93176 29.0458 6.82538 17.3433 6.69874 7.72109 16.1705 7.59773 27.9347 7.51501 36.033 11.9445 43.1323 18.5302 46.8159L16.8959 54.8733C6.66262 50.2348-0.431947 39.8375-0.306067 27.8551-0.139187 11.7027 13.067-1.29351 29.1318-1.12562 40.2656-1.00478 49.8853 5.41392 54.6925 14.7203" fill="#FFFFFF" fill-rule="evenodd" transform="matrix(1 0 0 -1 551 1466)"/></g></svg>