<svg width="257" height="257" xmlns="http://www.w3.org/2000/svg" xmlns:xlink="http://www.w3.org/1999/xlink" xml:space="preserve" overflow="hidden"><g transform="translate(-3080 -1147)"><path d="M232.92 255.466 19.5871 255.466C7.806 255.466-1.74914 245.916-1.74914 234.135L-1.74914 16.5351C-1.74914 7.10688 5.89608-0.533889 15.3198-0.533889L237.187-0.533889C246.611-0.533889 254.252 7.10688 254.252 16.5351L254.252 234.135C254.252 245.916 244.701 255.466 232.92 255.466" fill="#2E2A26" fill-rule="evenodd" transform="matrix(1 0 0 -1 3082 1403)"/><path d="M95.3628 70.1616 132.083 33.5882 135.778 37.273C139.069 40.5465 139.069 45.8606 135.778 49.1386L89.7729 94.9593C86.4818 98.2372 81.1507 98.2372 77.8596 94.9593L0.714666 18.1237C-2.57647 14.8458-2.57647 9.53612 0.714666 6.26262L7.58748-0.582634 79.6318 71.1683C83.2858 74.8121 90.6752 74.8304 95.3628 70.1616" fill="#FFFFFF" fill-rule="evenodd" transform="matrix(1 0 0 -1 3138 1288)"/><path d="M137.81 93.4083 92.1783 139.039C88.9139 142.304 83.6306 142.304 80.3661 139.039L0.704995 59.378C-2.55499 56.1181-2.5594 50.8303 0.704995 47.5659L46.3359 1.93446C49.5959-1.32552 54.893-1.32994 58.153 1.93004L137.814 81.5912C141.079 84.8556 141.07 90.1483 137.81 93.4083" fill="#FFFFFF" fill-rule="evenodd" transform="matrix(1 0 0 -1 3139 1360)"/><path d="M42.2507 21.0022C42.2507 9.1263 32.4042-0.497798 20.2551-0.497798 8.1055-0.497798-1.74989 9.1263-1.74989 21.0022-1.74989 32.8775 8.1055 42.5022 20.2551 42.5022 32.4042 42.5022 42.2507 32.8775 42.2507 21.0022" fill="#2E2A26" fill-rule="evenodd" transform="matrix(1 0 0 -1 3182 1316)"/><path d="M5.76636 7.5022-1.77576 7.5022-1.77576 11.4166 5.76636 11.4166 5.76636 19.4572 9.68238 19.4572 9.68238 11.4166 17.2245 11.4166 17.2245 7.5022 9.68238 7.5022 9.68238-0.542776 5.76636-0.542776" fill="#2E2A26" fill-rule="evenodd" transform="matrix(1 0 0 -1 3218 1279)"/><path d="M4.9039-0.749766 4.9039 2.11018C2.61252 2.17537 0.645569 2.72059-0.994947 3.74583L-0.606749 6.70169C-0.153011 6.35778 0.382905 6.03035 0.998729 5.72115 1.61254 5.41195 2.25508 5.16569 2.92661 4.98262 3.59588 4.80155 4.25506 4.68966 4.9039 4.64495L4.9039 12.8979 2.99014 13.8947C1.78092 14.5375 0.893865 15.29 0.333498 16.1567-0.229138 17.0253-0.510204 18.0566-0.510204 19.2569-0.510204 20.927-0.00126038 22.3042 1.0131 23.3824 2.02947 24.4646 3.43379 25.1214 5.22807 25.3574L5.22807 28.2501 7.33468 28.2501 7.33468 25.3902C8.32837 25.325 9.2729 25.1621 10.17 24.8936 11.0674 24.6252 11.7634 24.2977 12.2603 23.9131L11.677 21.0247C10.4022 22.1149 8.95478 22.7352 7.33468 22.8839L7.33468 15.2129 7.82144 14.9851C9.09619 14.4071 10.1065 13.8132 10.8496 13.2031 11.597 12.5927 12.141 11.9296 12.4881 11.2135 12.833 10.4975 13.0054 9.69601 13.0054 8.81912 13.0054 7.06559 12.4718 5.60501 11.4019 4.43541 10.3324 3.2698 8.86832 2.53552 7.01026 2.23631L7.01026-0.749766ZM5.22807 22.7577C4.42748 22.5422 3.80535 22.1738 3.36397 21.6491 2.92056 21.1263 2.69874 20.4977 2.69874 19.7714 2.69874 19.2122 2.78091 18.7319 2.943 18.3251 3.10534 17.9182 3.368 17.5481 3.73754 17.2186 4.10306 16.885 4.60192 16.5493 5.22807 16.2054ZM7.01026 4.87073C7.85421 5.10675 8.50482 5.5136 8.97091 6.09129 9.43499 6.66897 9.66715 7.36279 9.66715 8.1765 9.66715 8.97172 9.46801 9.6513 9.06746 10.2187 8.66716 10.7842 7.98353 11.3254 7.01026 11.8379" fill="#FFFFFF" fill-rule="evenodd" transform="matrix(1 0 0 -1 3196 1309)"/></g></svg>