<svg width="393" height="399" xmlns="http://www.w3.org/2000/svg" xmlns:xlink="http://www.w3.org/1999/xlink" xml:space="preserve" overflow="hidden"><g transform="translate(-3959 -977)"><path d="M348.337 385.5 29.1678 385.5C11.5435 385.5-2.74879 370.984-2.74879 353.076L-2.74879 22.4392C-2.74879 8.10809 8.67982-3.50003 22.7876-3.50003L354.717-3.50003C368.825-3.50003 380.253 8.10809 380.253 22.4392L380.253 353.076C380.253 370.984 365.961 385.5 348.337 385.5" fill="#008DA7" fill-rule="evenodd" transform="matrix(1 0 0 -1 3966 1367)"/><path d="M359.067-3.49558 27.4279-3.49558C10.7972-3.49558-2.74627 10.2518-2.74627 27.1434L-2.74627 357.375C-2.74627 377.853 13.6444 394.505 33.8162 394.505L352.693 394.505C372.851 394.505 389.255 377.853 389.255 357.375L389.255 27.1434C389.255 10.2518 375.712-3.49558 359.067-3.49558M33.8162 385.01C18.8012 385.01 6.59 372.609 6.59 357.375L6.59 27.1434C6.59 15.4804 15.9384 5.98546 27.4279 5.98546L359.067 5.98546C370.557 5.98546 379.905 15.4804 379.905 27.1434L379.905 357.375C379.905 372.609 367.694 385.01 352.693 385.01" fill="#FFFFFF" fill-rule="evenodd" transform="matrix(1 0 0 -1 3962 1372)"/><path d="M124.956 91.6363 172.693 43.8667 177.492 48.6769C181.778 52.9568 181.778 59.8964 177.492 64.1763L117.693 124.024C113.415 128.3 106.481 128.3 102.199 124.015L1.913 23.6616C-2.36451 19.3903-2.36451 12.4512 1.9173 8.17082L10.8572-0.770771 104.511 92.9503C109.265 97.7035 118.866 97.7298 124.956 91.6363" fill="#FFFFFF" fill-rule="evenodd" transform="matrix(1 0 0 -1 4025 1204)"/><path d="M182.47 122.999 122.377 183.093C118.08 187.39 111.121 187.39 106.823 183.093L1.92049 78.1883C-2.37307 73.8953-2.38171 66.9321 1.91563 62.6342L62.0125 2.53727C66.3055-1.75632 73.2779-1.76065 77.5709 2.53727L182.474 107.441C186.776 111.739 186.767 118.706 182.47 122.999" fill="#FFFFFF" fill-rule="evenodd" transform="matrix(1 0 0 -1 4025 1299)"/><path d="M32.2362 11.1496C31.986 10.9014 31.7185 10.658 31.4339 10.4188 26.718 6.49749 21.9543 7.7797 18.334 7.40603 14.4419 7.01048 9.67387 5.91458 1.96458-0.620283 1.96458-0.620283-0.0995475 8.64073-0.577376 10.6366-1.20856 13.2667-2.48384 16.5928 1.44747 20.4886 1.80692 20.8537 2.21426 21.2103 2.66572 21.5839L5.42668 9.37097C5.42668 9.37097 11.7816 13.8971 17.9745 14.1453 21.8316 14.2927 22.2432 14.3231 23.8037 14.3103 27.1566 14.3493 29.2514 15.2888 30.5487 16.5752 33.4544 19.4583 32.3282 24.0624 32.3282 24.0624 32.3282 24.0624 31.6486 22.3275 30.1979 20.8841 29.1771 19.8752 27.7786 19.0147 25.9641 18.9971 21.4942 18.9496 20.3104 18.9405 20.3104 18.9405 20.3104 18.9405 14.9241 19.2016 7.58337 15.2839L6.2419 21.2711C5.71187 23.3668 4.76483 29.2232 9.18743 33.6101 9.4371 33.8577 9.70454 34.0969 9.98919 34.3403 14.7051 38.2622 19.4688 36.9794 23.0891 37.3494 26.9811 37.7449 31.754 38.8403 39.4585 45.3794 39.4585 45.3794 41.5275 36.1189 42.0047 34.123 42.6316 31.4882 43.9069 28.1668 39.9804 24.2668 39.6167 23.9103 39.2088 23.5451 38.7573 23.1752L35.9964 35.3882C35.9964 35.3882 29.6415 30.8626 23.4529 30.6143 19.592 30.4665 19.1798 30.4318 17.6242 30.4494 14.267 30.4099 12.1717 29.4709 10.8744 28.1796 7.96864 25.3014 9.09541 20.693 9.09541 20.693 9.09541 20.693 9.77449 22.4273 11.2252 23.8713 12.2465 24.8839 13.6445 25.745 15.4589 25.7626 19.9294 25.8058 21.1127 25.8234 21.1127 25.8234 21.1127 25.8234 26.499 25.5581 33.8402 29.4709L35.1812 23.4843C35.7117 21.3886 36.6582 15.5364 32.2362 11.1496" fill="#008DA7" fill-rule="evenodd" transform="matrix(1 0 0 -1 4087 1271)"/><path d="M22.0451 55.658 22.0451 62.6562C22.0451 69.2418 22.5688 74.7062 23.621 79.0489 24.6684 83.391 26.407 87.611 28.8281 91.7078 31.2493 95.8095 35.0437 101.076 40.2114 107.509 49.2573 118.758 53.7775 129.607 53.7775 140.058 53.7775 147.296 51.6385 153.12 47.3598 157.541 43.0768 161.963 37.4644 164.176 30.5229 164.176 25.0337 164.176 20.0244 163.33 15.5036 161.647 10.9834 159.956 6.45825 157.265 1.93748 153.562L-1.45216 171.892C5.00555 176.068 10.9834 179.004 16.4721 180.691 21.9613 182.382 27.8597 183.228 34.1542 183.228 42.2316 183.228 49.42 181.576 55.7145 178.281 62.0182 174.99 67.0626 170.24 70.8565 164.058 74.6509 157.862 76.5484 150.991 76.5484 143.441 76.5484 136.039 74.933 128.564 71.7066 121.014 68.471 113.455 63.3871 105.252 56.4451 96.4142 51.92 90.7879 48.6098 86.1692 46.5146 82.5453 44.4106 78.9305 42.9579 75.631 42.1527 72.6645 41.3426 69.6803 40.9378 65.7846 40.9378 60.9648L40.9378 55.658ZM31.4914-0.772019C27.2917-0.772019 23.7394 0.840882 20.8345 4.057 17.9248 7.26451 16.4721 11.1295 16.4721 15.6298 16.4721 20.1295 17.9248 23.9859 20.8345 27.202 23.7394 30.4186 27.2917 32.031 31.4914 32.031 35.6906 32.031 39.2429 30.4186 42.1527 27.202 45.0575 23.9859 46.5146 20.1295 46.5146 15.6298 46.5146 11.1295 45.0575 7.26451 42.1527 4.057 39.2429 0.840882 35.6906-0.772019 31.4914-0.772019" fill="#FFFFFF" fill-rule="evenodd" transform="matrix(1 0 0 -1 4213 1231)"/></g></svg>