<svg width="393" height="399" xmlns="http://www.w3.org/2000/svg" xmlns:xlink="http://www.w3.org/1999/xlink" xml:space="preserve" overflow="hidden"><g transform="translate(-3982 -413)"><path d="M348.337 384.509 29.1678 384.509C11.5435 384.509-2.74879 370.031-2.74879 352.169L-2.74879 22.3815C-2.74879 8.08724 8.67982-3.49103 22.7876-3.49103L354.717-3.49103C368.825-3.49103 380.253 8.08724 380.253 22.3815L380.253 352.169C380.253 370.031 365.961 384.509 348.337 384.509" fill="#008DA7" fill-rule="evenodd" transform="matrix(1 0 0 -1 3989 803)"/><path d="M359.067-3.49558 27.4279-3.49558C10.7972-3.49558-2.74627 10.2518-2.74627 27.1434L-2.74627 357.375C-2.74627 377.853 13.6444 394.505 33.8162 394.505L352.693 394.505C372.851 394.505 389.255 377.853 389.255 357.375L389.255 27.1434C389.255 10.2518 375.712-3.49558 359.067-3.49558M33.8162 385.01C18.8012 385.01 6.59 372.609 6.59 357.375L6.59 27.1434C6.59 15.4804 15.9384 5.98546 27.4279 5.98546L359.067 5.98546C370.557 5.98546 379.905 15.4804 379.905 27.1434L379.905 357.375C379.905 372.609 367.694 385.01 352.693 385.01" fill="#FFFFFF" fill-rule="evenodd" transform="matrix(1 0 0 -1 3985 808)"/><path d="M164.435 119.876 227.646 56.065 234.006 62.4884C239.67 68.208 239.67 77.4712 234.006 83.1908L154.811 163.143C149.146 168.863 139.962 168.863 134.297 163.143L1.5006 29.0658C-4.16368 23.3601-4.16368 14.0969 1.5006 8.37733L13.3381-3.56799 137.349 121.627C143.667 127.983 156.371 128.025 164.435 119.876" fill="#FFFFFF" fill-rule="evenodd" transform="matrix(1 0 0 -1 4057 631)"/><path d="M239.007 161.888 159.959 242.225C154.305 247.972 145.153 247.972 139.499 242.225L1.49259 101.982C-4.15941 96.235-4.15941 86.9272 1.49259 81.1819L80.5423 0.843158C86.196-4.90216 95.362-4.90216 101.016 0.843158L239.021 141.086C244.675 146.833 244.661 156.141 239.007 161.888" fill="#FFFFFF" fill-rule="evenodd" transform="matrix(1 0 0 -1 4058 759)"/><path d="M72.2849 34.584C72.2849 13.5968 55.4996-3.416 34.7789-3.416 14.0704-3.416-2.715 13.5968-2.715 34.584-2.715 55.5695 14.0704 72.584 34.7789 72.584 55.4996 72.584 72.2849 55.5695 72.2849 34.584" fill="#008DA7" fill-rule="evenodd" transform="matrix(1 0 0 -1 4134 681)"/><path d="M10.2899 10.5654-2.81064 10.5654-2.81064 17.4068 10.2899 17.4068 10.2899 31.4852 17.0906 31.4852 17.0906 17.4068 30.1894 17.4068 30.1894 10.5654 17.0906 10.5654 17.0906-3.51482 10.2899-3.51482" fill="#008DA7" fill-rule="evenodd" transform="matrix(1 0 0 -1 4196 616)"/><path d="M7.33694-3.50783 7.33694 1.52207C5.23638 1.59463 3.33722 1.89727 1.60943 2.41584-0.088333 2.93617-1.55643 3.5981-2.77895 4.40515L-2.08819 9.5961C-1.13773 8.83153 0.199632 8.08111 1.89739 7.30415 3.59515 6.53958 5.40951 6.07765 7.33694 5.97677L7.33694 20.493C5.03498 21.5461 3.20649 22.6275 1.84086 23.7071 0.459331 24.8185-0.491131 25.999-1.0812 27.2822-1.65713 28.5653-1.92919 30.036-1.92919 31.6643-1.92919 34.5916-1.0812 36.9845 0.646597 38.9154 2.35849 40.8179 4.77528 41.986 7.91287 42.4179L7.91287 47.492 11.5098 47.492 11.5098 42.4763C13.4672 42.3471 15.2074 42.0303 16.6755 41.4958 18.1577 40.9772 19.2654 40.4445 19.9562 39.8675L18.9492 34.7792C17.9846 35.6429 16.8769 36.365 15.6102 36.9703 14.3594 37.5313 12.992 37.9207 11.5098 38.0658L11.5098 24.5584C14.9053 23.0593 17.3945 21.4452 18.9351 19.7143 20.4738 17.971 21.2229 15.8507 21.2229 13.3287 21.2229 10.2439 20.3166 7.66343 18.474 5.61749 16.6472 3.55562 14.128 2.25832 10.948 1.72383L10.948-3.50783ZM7.91287 26.3034 7.91287 37.834C6.51721 37.4747 5.46604 36.811 4.70285 35.9031 3.95555 35.0093 3.56688 33.8996 3.56688 32.5882 3.56688 31.0891 3.92728 29.8626 4.61805 28.9547 5.32294 28.0609 6.41651 27.1813 7.91287 26.3034M10.948 6.38029C12.4302 6.79798 13.5538 7.52007 14.3594 8.54305 15.1208 9.5961 15.5095 10.8067 15.5095 12.1748 15.5095 13.6898 15.1367 14.9286 14.3877 15.9091 13.6686 16.8896 12.5026 17.8117 10.948 18.6329" fill="#FFFFFF" fill-rule="evenodd" transform="matrix(1 0 0 -1 4160 669)"/></g></svg>