<svg width="251" height="251" xmlns="http://www.w3.org/2000/svg" xmlns:xlink="http://www.w3.org/1999/xlink" xml:space="preserve" overflow="hidden"><g transform="translate(-3104 -1596)"><path d="M228.263 249.505 19.9317 249.505C8.42536 249.505-0.902704 240.177-0.902704 228.67L-0.902704 16.1676C-0.902704 6.96617 6.55859-0.495212 15.7657-0.495212L232.429-0.495212C241.633-0.495212 249.098 6.96617 249.098 16.1676L249.098 228.67C249.098 240.177 239.77 249.505 228.263 249.505" fill="#2E2A26" fill-rule="evenodd" transform="matrix(1 0 0 -1 3105 1846)"/><path d="M83.7615 61.568 115.761 29.4729 118.978 32.7047C121.851 35.5802 121.851 40.2428 118.978 43.1183L78.893 83.3286C76.0256 86.2012 71.3773 86.2012 68.5071 83.3224L1.28234 15.8976C-1.585 13.0278-1.585 8.36564 1.28522 5.48976L7.27789-0.517861 70.0568 62.4508C73.2437 65.6444 79.6795 65.6621 83.7615 61.568" fill="#FFFFFF" fill-rule="evenodd" transform="matrix(1 0 0 -1 3138 1748)"/><path d="M121.972 82.2187 81.8029 122.388C78.9303 125.26 74.2787 125.26 71.4058 122.388L1.28375 52.2648C-1.58627 49.3951-1.59205 44.7406 1.2805 41.8677L41.4521 1.69604C44.3218-1.17401 48.9824-1.1769 51.8521 1.69604L121.975 71.8187C124.85 74.6916 124.844 79.349 121.972 82.2187" fill="#FFFFFF" fill-rule="evenodd" transform="matrix(1 0 0 -1 3138 1812)"/><path d="M21.2465 7.5139C21.0816 7.34662 20.9053 7.18258 20.7177 7.02142 17.6095 4.37876 14.4698 5.24286 12.0837 4.99104 9.5185 4.72447 6.37593 3.98593 1.29483-0.418019 1.29483-0.418019-0.0656106 5.82312-0.380541 7.16819-0.796548 8.94064-1.63707 11.1822 0.954013 13.8076 1.19092 14.0536 1.45939 14.2939 1.75694 14.5458L3.57666 6.31525C3.57666 6.31525 7.7651 9.36549 11.8468 9.53277 14.3889 9.63206 14.6602 9.65256 15.6887 9.64393 17.8986 9.67019 19.2792 10.3033 20.1343 11.1703 22.0494 13.1133 21.3071 16.216 21.3071 16.216 21.3071 16.216 20.8592 15.0469 19.9031 14.0741 19.2303 13.3942 18.3085 12.8143 17.1127 12.8025 14.1666 12.7704 13.3863 12.7643 13.3863 12.7643 13.3863 12.7643 9.83626 12.9402 4.99811 10.3001L4.11396 14.3349C3.76463 15.7473 3.14044 19.694 6.05532 22.6504 6.21988 22.8173 6.39614 22.9784 6.58375 23.1425 9.69192 25.7855 12.8317 24.921 15.2177 25.1703 17.7829 25.4369 20.9287 26.1751 26.0066 30.5819 26.0066 30.5819 27.3702 24.3411 27.6848 22.9961 28.098 21.2204 28.9385 18.9821 26.3506 16.3538 26.1109 16.1135 25.842 15.8674 25.5445 15.6181L23.7248 23.8486C23.7248 23.8486 19.5363 20.7988 15.4575 20.6315 12.9129 20.5318 12.6412 20.5085 11.6159 20.5203 9.40324 20.4937 8.02222 19.8609 7.16716 18.9907 5.25204 17.051 5.99468 13.9453 5.99468 13.9453 5.99468 13.9453 6.44225 15.1141 7.39839 16.0872 8.07152 16.7697 8.9929 17.3499 10.1888 17.3618 13.1352 17.3909 13.9151 17.4028 13.9151 17.4028 13.9151 17.4028 17.4652 17.224 22.3037 19.8609L23.1875 15.8264C23.5372 14.4141 24.161 10.4703 21.2465 7.5139" fill="#2E2A26" fill-rule="evenodd" transform="matrix(1 0 0 -1 3180 1793)"/><path d="M14.6968 37.2061 14.6968 41.8842C14.6968 46.2865 15.0459 49.9394 15.7474 52.8423 16.4457 55.745 17.6047 58.5659 19.2188 61.3046 20.833 64.0464 23.3626 67.5673 26.8077 71.8674 32.8383 79.3867 35.8518 86.6391 35.8518 93.6254 35.8518 98.4643 34.4258 102.357 31.5734 105.313 28.718 108.268 24.9764 109.748 20.3487 109.748 16.6892 109.748 13.3496 109.182 10.3358 108.058 7.32227 106.927 4.30552 105.128 1.29166 102.653L-0.968112 114.906C3.33705 117.698 7.32227 119.66 10.9814 120.788 14.6409 121.918 18.5732 122.484 22.7695 122.484 28.1545 122.484 32.9468 121.38 37.1432 119.177 41.3456 116.977 44.7086 113.802 47.2379 109.669 49.7675 105.527 51.0325 100.934 51.0325 95.8868 51.0325 90.9393 49.9556 85.9421 47.8046 80.895 45.6475 75.8421 42.2583 70.3588 37.6303 64.4507 34.6135 60.6896 32.4067 57.6021 31.0098 55.1796 29.6072 52.7632 28.6388 50.5576 28.1019 48.5745 27.5618 46.5796 27.292 43.9755 27.292 40.7536L27.292 37.2061ZM20.9944-0.516077C18.1945-0.516077 15.8263 0.56211 13.8897 2.71201 11.9499 4.85616 10.9814 7.43978 10.9814 10.4481 10.9814 13.4561 11.9499 16.034 13.8897 18.1839 15.8263 20.3342 18.1945 21.412 20.9944 21.412 23.7939 21.412 26.1621 20.3342 28.1019 18.1839 30.0385 16.034 31.0098 13.4561 31.0098 10.4481 31.0098 7.43978 30.0385 4.85616 28.1019 2.71201 26.1621 0.56211 23.7939-0.516077 20.9944-0.516077" fill="#FFFFFF" fill-rule="evenodd" transform="matrix(1 0 0 -1 3264 1766)"/></g></svg>