<svg width="369" height="251" xmlns="http://www.w3.org/2000/svg" xmlns:xlink="http://www.w3.org/1999/xlink" xml:space="preserve" overflow="hidden"><g transform="translate(-2604 -248)"><path d="M347.14 247.681 20.0296 247.681C8.73968 247.681-0.4153 238.353-0.4153 226.847L-0.4153 18.518C-0.4153 7.00896 8.73968-2.31899 20.0296-2.31899L347.14-2.31899C358.43-2.31899 367.585 7.00896 367.585 18.518L367.585 226.847C367.585 238.353 358.43 247.681 347.14 247.681" fill="#2E2A26" fill-rule="evenodd" transform="matrix(1 0 0 -1 2605 496)"/><path d="M1.18894-2.30976C0.361263-2.30976-0.311267-1.54835-0.311267-0.608626L-0.311267 161.989C-0.311267 162.929 0.361263 163.691 1.18894 163.691 2.01662 163.691 2.68915 162.929 2.68915 161.989L2.68915-0.608626C2.68915-1.54835 2.01662-2.30976 1.18894-2.30976" fill="#FFFFFF" fill-rule="evenodd" transform="matrix(1 0 0 -1 2726 454)"/><path d="M1.45451-2.30976C0.350942-2.30976-0.545766-1.54835-0.545766-0.608626L-0.545766 161.989C-0.545766 162.929 0.350942 163.691 1.45451 163.691 2.55809 163.691 3.4548 162.929 3.4548 161.989L3.4548-0.608626C3.4548-1.54835 2.55809-2.30976 1.45451-2.30976" fill="#FFFFFF" fill-rule="evenodd" transform="matrix(1 0 0 -1 2825 454)"/><path d="M12.1152-2.36347C19.0234-2.29022 24.5564 3.36443 24.4848 10.265 24.4133 17.1628 18.7606 22.7088 11.8525 22.6352 4.94724 22.5619-0.585742 16.8983-0.514176 10.0034-0.442243 3.10282 5.21039-2.43419 12.1152-2.36347" fill="#FFFFFF" fill-rule="evenodd" transform="matrix(1 0 0 -1 2858 350)"/><path d="M70.7104 8.10866 52.3473 44.9478C51.5985 46.4554 50.0727 47.4092 48.4096 47.4092L20.2951 47.4092 18.3177 57.318 37.5139 57.318C40.5341 57.3299 42.9836 59.8318 42.9836 62.914 42.9836 65.9992 40.5341 68.4982 37.5139 68.51L16.1128 68.51 13.3723 82.0088C12.5945 85.8784 8.88099 88.3803 5.0863 87.5902 1.28516 86.8-1.17002 83.0235-0.395132 79.1539L8.12971 36.5845C8.54629 34.4879 10.355 32.9831 12.4547 32.9831L39.8032 32.9831C41.466 32.9831 42.9836 32.0354 43.7377 30.5249L58.1606 1.67558C59.41-0.843876 61.9206-2.29032 64.5156-2.26382 65.5554-2.25236 66.6039-2.00461 67.594-1.49692 71.0601 0.276041 72.455 4.57992 70.7104 8.10866" fill="#FFFFFF" fill-rule="evenodd" transform="matrix(1 0 0 -1 2868 443)"/><path d="M68.6194 33.3946C66.2283 19.5707 54.3807 8.96415 40.0443 8.81156 23.871 8.64094 10.5757 21.8332 10.4078 38.2219 10.2897 49.4955 16.4112 59.3881 25.5106 64.521L23.2548 75.7415C9.11318 69.2837-0.6911 54.8015-0.516967 38.1072-0.284187 15.6131 17.9621-2.49157 40.1594-2.25637 55.5454-2.09476 68.8406 6.85171 75.4808 19.8117" fill="#FFFFFF" fill-rule="evenodd" transform="matrix(1 0 0 -1 2843 454)"/><path d="M11.6039-2.39791C18.2338-2.39791 23.6084 3.1977 23.6084 10.1021 23.6084 17.0066 18.2338 22.6022 11.6039 22.6022 4.97689 22.6022-0.39169 17.0066-0.39169 10.1021-0.39169 3.1977 4.97689-2.39791 11.6039-2.39791" fill="#FFFFFF" fill-rule="evenodd" transform="matrix(1 0 0 -1 2764 322)"/><path d="M58.6004 108.296C58.6004 117.913 51.0617 125.703 41.6621 125.703L16.5414 125.703C7.13895 125.703-0.399761 117.913-0.399761 108.296L-0.396888 74.2462C-0.388267 71.1779 2.04586 68.695 5.04424 68.695 8.04586 68.695 10.4771 71.1779 10.4886 74.2462L10.4857 103.674C10.4857 104.522 11.1585 105.21 11.9806 105.21 12.8114 105.21 13.4784 104.522 13.4784 103.674L13.4784 4.92856C13.4784 0.936228 16.6409-2.29686 20.5462-2.29686 24.44-2.29686 27.6025 0.936228 27.6025 4.92856L27.6025 63.2727C27.6025 64.12 28.2782 64.8027 29.1061 64.8027 29.9282 64.8027 30.5952 64.12 30.5952 63.2727L30.5952 4.92856C30.5952 0.936228 33.7606-2.29686 37.6601-2.29686 41.5568-2.29686 44.7222 0.936228 44.7222 4.92856L44.7222 103.674C44.7222 104.522 45.3921 105.21 46.2229 105.21 47.045 105.21 47.712 104.522 47.712 103.674L47.7149 74.2462C47.7235 71.1779 50.1576 68.695 53.156 68.695 56.1576 68.695 58.5885 71.1779 58.6004 74.2462" fill="#FFFFFF" fill-rule="evenodd" transform="matrix(1 0 0 -1 2747 453)"/><path d="M12.2067-2.39791C19.1124-2.39791 24.7075 3.20094 24.7075 10.1021 24.7075 17.0066 19.1124 22.6025 12.2067 22.6025 5.30168 22.6025-0.29301 17.0066-0.29301 10.1021-0.29301 3.20094 5.30168-2.39791 12.2067-2.39791" fill="#FFFFFF" fill-rule="evenodd" transform="matrix(1 0 0 -1 2661 322)"/><path d="M60.7702 113.344C58.6002 120.625 51.836 125.703 44.8047 125.703L26.6014 125.703C19.5702 125.703 12.7991 120.625 10.6385 113.344L-0.0573144 77.4107C-0.919553 74.4715 0.70904 71.3738 3.5899 70.4791 6.46968 69.588 9.51455 71.2412 10.3977 74.1742L14.5114 87.9987 14.4998 88.0045 20.3513 107.66C20.5888 108.463 21.4316 108.925 22.2275 108.678 23.0166 108.431 23.4628 107.575 23.2217 106.76L6.43399 50.3884C6.39398 50.2529 6.37343 50.1178 6.37343 49.9734 6.37343 49.2087 6.98334 48.5762 7.7378 48.5762L22.0599 48.5762 22.0599 3.89598C22.0599 0.474626 24.7814-2.29692 28.1338-2.29692 31.4897-2.29692 34.2055 0.474626 34.2055 3.89598L34.2055 48.5762 37.201 48.5762 37.201 3.89598C37.201 0.474626 39.9225-2.29692 43.2724-2.29692 46.6305-2.29692 49.3498 0.474626 49.3498 3.89598L49.3498 48.5762 63.6683 48.5762C64.4196 48.5762 65.0363 49.2087 65.0363 49.9734 65.0363 50.1178 65.0158 50.2529 64.9743 50.3884L48.187 106.76C47.9437 107.575 48.3896 108.431 49.1822 108.678 49.9781 108.925 50.8144 108.463 51.0549 107.66L60.776 75.0039C60.8001 74.9306 60.8232 74.8569 60.847 74.7865L61.0258 74.1742 61.0294 74.1742C61.9125 71.2412 64.9538 69.588 67.8372 70.4791 70.7166 71.3738 72.3462 74.4715 71.48 77.4107" fill="#FFFFFF" fill-rule="evenodd" transform="matrix(1 0 0 -1 2638 453)"/></g></svg>