<svg width="251" height="250" xmlns="http://www.w3.org/2000/svg" xmlns:xlink="http://www.w3.org/1999/xlink" xml:space="preserve" overflow="hidden"><g transform="translate(-3574 -1148)"><path d="M231.646 247.902 15.5059 247.902C6.15759 247.902-1.42426 240.353-1.42426 231.039L-1.42426 15.7641C-1.42426 6.45291 6.15759-1.09861 15.5059-1.09861L231.646-1.09861C240.994-1.09861 248.576 6.45291 248.576 15.7641L248.576 231.039C248.576 240.353 240.994 247.902 231.646 247.902" fill="#2E2A26" fill-rule="evenodd" transform="matrix(1 0 0 -1 3576 1396)"/><path d="M92.7694 165.895 9.365 165.895C3.39877 165.895-1.42874 161.073-1.42874 155.114L-1.42874 9.68204C-1.42874 3.72584 3.39877-1.10524 9.365-1.10524L92.7694-1.10524C98.7295-1.10524 103.572 3.72584 103.572 9.68204L103.572 155.114C103.572 161.073 98.7295 165.895 92.7694 165.895" fill="#FFFFFF" fill-rule="evenodd" transform="matrix(1 0 0 -1 3649 1355)"/><path d="M62.579 30.9177C62.579 13.2438 48.2559-1.08228 30.5815-1.08228 12.9071-1.08228-1.42168 13.2438-1.42168 30.9177-1.42168 48.5919 12.9071 62.9177 30.5815 62.9177 48.2559 62.9177 62.579 48.5919 62.579 30.9177" fill="#2E2A26" fill-rule="evenodd" transform="matrix(1 0 0 -1 3669 1317)"/><path d="M9.6494 10.5281-1.46325 10.5281-1.46325 16.2001 9.6494 16.2001 9.6494 27.8626 15.4243 27.8626 15.4243 16.2001 26.537 16.2001 26.537 10.5281 15.4243 10.5281 15.4243-1.13726 9.6494-1.13726" fill="#2E2A26" fill-rule="evenodd" transform="matrix(1 0 0 -1 3708 1255)"/><path d="M7.00563-1.08587 7.00563 3.05614C3.73221 3.15055 0.922248 3.94017-1.42136 5.42502L-0.866791 9.70593C-0.218588 9.20784 0.547011 8.73363 1.42677 8.28583 2.30364 7.83803 3.22157 7.48137 4.18091 7.21624 5.13701 6.95399 6.0787 6.79194 7.00563 6.72719L7.00563 18.6797 4.27166 20.1233C2.5442 21.0544 1.27696 22.1443 0.476429 23.3994-0.327342 24.6575-0.728868 26.151-0.728868 27.8894-0.728868 30.3082-0.00180056 32.3027 1.44729 33.8642 2.89927 35.4315 4.90545 36.3828 7.46874 36.7247L7.46874 40.9141 10.4782 40.9141 10.4782 36.7721C11.8978 36.6776 13.2471 36.4418 14.5287 36.053 15.8107 35.6641 16.805 35.1899 17.5148 34.6329L16.6815 30.4496C14.8604 32.0285 12.7926 32.927 10.4782 33.1422L10.4782 22.0325 11.1736 21.7026C12.9947 20.8656 14.438 20.0054 15.4996 19.1218 16.5673 18.2377 17.3445 17.2774 17.8403 16.2403 18.333 15.2033 18.5793 14.0425 18.5793 12.7726 18.5793 10.2329 17.8169 8.11763 16.2886 6.42372 14.7607 4.73559 12.6691 3.67214 10.0147 3.23881L10.0147-1.08587ZM7.46874 32.9596C6.32502 32.6474 5.43626 32.1139 4.8057 31.3539 4.17227 30.5968 3.85537 29.6864 3.85537 28.6345 3.85537 27.8246 3.97276 27.1291 4.20431 26.5398 4.43623 25.9506 4.81146 25.4145 5.33939 24.9374 5.86155 24.4542 6.57422 23.968 7.46874 23.4699ZM10.0147 7.05419C11.2204 7.39601 12.1498 7.98524 12.8157 8.82189 13.4787 9.65854 13.8103 10.6634 13.8103 11.8419 13.8103 12.9936 13.5258 13.9778 12.9536 14.7996 12.3818 15.6185 11.4051 16.4024 10.0147 17.1446" fill="#FFFFFF" fill-rule="evenodd" transform="matrix(1 0 0 -1 3692 1307)"/></g></svg>