<svg width="498" height="498" xmlns="http://www.w3.org/2000/svg" xmlns:xlink="http://www.w3.org/1999/xlink" xml:space="preserve" overflow="hidden"><g transform="translate(-3276 -699)"><path d="M-1.46378 462.44-1.46378 31.0476C-1.46378 12.9296 13.2237-1.75746 31.3389-1.75746L462.734-1.75746C480.852-1.75746 495.537 12.9296 495.537 31.0476L495.537 462.44C495.537 480.556 480.852 495.243 462.734 495.243L31.3389 495.243C13.2237 495.243-1.46378 480.556-1.46378 462.44" fill="#2D2A26" fill-rule="evenodd" transform="matrix(1 0 0 -1 3278 1195)"/><path d="M270.465-1.73982 270.465 200.471C270.465 217.475 256.684 231.261 239.684 231.261L29.2471 231.261C12.2473 231.261-1.53461 217.475-1.53461 200.471L-1.53461 171.027" stroke="#FFFFFF" stroke-width="10.3836" stroke-miterlimit="8" fill="none" fill-rule="evenodd" transform="matrix(1 0 0 -1 3452 1079)"/><path d="M-1.46824-1.47618 403.532-1.47618 403.532 8.52448-1.46824 8.52448Z" fill="#FFFFFF" fill-rule="evenodd" transform="matrix(1 0 0 -1 3324 1083)"/><path d="M12.5615-1.82005C4.82638-1.82005-1.43843 4.4484-1.43843 12.1801-1.43843 19.9121 4.82638 26.1802 12.5615 26.1802 20.2937 26.1802 26.5618 19.9121 26.5618 12.1801 26.5618 4.4484 20.2937-1.82005 12.5615-1.82005" fill="#FFFFFF" fill-rule="evenodd" transform="matrix(1 0 0 -1 3469 932)"/><path d="M75.0125 86.6785C74.1633 86.6785 73.3022 86.8712 72.4916 87.2776L55.7259 95.7678 55.7259 74.2531 55.661 74.2531 56.3313 6.71808C56.3753 2.12785 52.67-1.63178 48.0539-1.67844L47.9688-1.67844C43.3938-1.67844 39.6623 1.9936 39.6154 6.55727L39.0425 64.573 36.777 53.6624C36.2806 51.2765 34.7583 49.224 32.6079 48.0546L10.9616 36.2552C9.68929 35.5563 8.31159 35.229 6.95375 35.229 4.00104 35.229 1.13635 36.79-0.382752 39.55-2.59809 43.576-1.11723 48.6335 2.93142 50.8378L21.1928 60.7929 24.46 76.5131 24.46 105.948 19.9467 101.603 15.6308 85.9154C14.9547 83.4508 12.7098 81.8341 10.2625 81.8341 9.77478 81.8341 9.28092 81.8955 8.78742 82.033 5.81992 82.8395 4.07463 85.8891 4.88523 88.8447L9.60415 105.995C9.86858 106.95 10.3859 107.822 11.1027 108.512L28.9055 125.662C28.9466 125.697 28.9939 125.723 29.0318 125.755 31.8615 128.579 35.7723 130.322 40.0944 130.322 46.2116 130.322 51.4976 126.814 54.0629 121.721 54.2011 121.501 54.3446 121.285 54.4536 121.04L61.5347 105.264 77.5453 97.1623C80.2866 95.7767 81.3764 92.4378 79.9811 89.7073 78.9995 87.7837 77.0457 86.6785 75.0125 86.6785" fill="#FFFFFF" fill-rule="evenodd" transform="matrix(1 0 0 -1 3437 1066)"/></g></svg>