<svg width="498" height="498" xmlns="http://www.w3.org/2000/svg" xmlns:xlink="http://www.w3.org/1999/xlink" xml:space="preserve" overflow="hidden"><g transform="translate(-2677 -699)"><path d="M-0.801437 462.44-0.801437 31.0476C-0.801437 12.9296 13.8857-1.75746 32.0009-1.75746L463.396-1.75746C481.514-1.75746 496.199 12.9296 496.199 31.0476L496.199 462.44C496.199 480.556 481.514 495.243 463.396 495.243L32.0009 495.243C13.8857 495.243-0.801437 480.556-0.801437 462.44" fill="#2D2A26" fill-rule="evenodd" transform="matrix(1 0 0 -1 2678 1195)"/><path d="M13.2055-1.82005C5.47037-1.82005-0.794451 4.4484-0.794451 12.1801-0.794451 19.9121 5.47037 26.1802 13.2055 26.1802 20.9314 26.1802 27.2054 19.9121 27.2054 12.1801 27.2054 4.4484 20.9314-1.82005 13.2055-1.82005" fill="#FFFFFF" fill-rule="evenodd" transform="matrix(1 0 0 -1 2895 932)"/><path d="M75.649 86.6785C74.7998 86.6785 73.939 86.8712 73.1281 87.2776L56.3619 95.7678 56.3619 74.2531 56.2944 74.2531 56.9672 6.71808C57.0083 2.12785 53.303-1.63178 48.69-1.67844L48.6016-1.67844C44.0268-1.67844 40.2952 1.9936 40.2483 6.55727L39.6779 64.573 37.4098 53.6624C36.9159 51.2765 35.3939 49.224 33.2431 48.0546L11.5937 36.2552C10.3242 35.5563 8.94606 35.229 7.58565 35.229 4.63249 35.229 1.76771 36.79 0.251448 39.55-1.96396 43.576-0.483054 48.6335 3.56609 50.8378L21.8276 60.7929 25.095 76.5131 25.095 105.948 20.5819 101.603 16.2655 85.9154C15.5869 83.4508 13.3419 81.8341 10.897 81.8341 10.4093 81.8341 9.91578 81.8955 9.42226 82.033 6.45143 82.8395 4.70608 85.8891 5.51995 88.8447L10.2361 105.995C10.5035 106.95 11.0175 107.822 11.7376 108.512L29.541 125.662C29.5821 125.697 29.629 125.723 29.6644 125.755 32.4938 128.579 36.4076 130.322 40.727 130.322 46.8447 130.322 52.1338 126.814 54.6988 121.721 54.8369 121.501 54.978 121.285 55.0866 121.04L62.1711 105.264 78.179 97.1623C80.9233 95.7767 82.0106 92.4378 80.6149 89.7073 79.6336 87.7837 77.6823 86.6785 75.649 86.6785" fill="#FFFFFF" fill-rule="evenodd" transform="matrix(1 0 0 -1 2862 1066)"/><path d="M236.112-1.73759 236.112 196.136C236.112 212.774 222.598 226.263 205.925 226.263L29.2997 226.263C12.6268 226.263-0.888 212.774-0.888 196.136L-0.888 167.323" stroke="#FFFFFF" stroke-width="10.1782" stroke-miterlimit="8" fill="none" fill-rule="evenodd" transform="matrix(1 0 0 -1 2884 1077)"/><path d="M-0.503575 123.191-0.656086 123.035-0.656086 111.205 137.47-1.80955 140.344 8.5291" fill="#FFFFFF" fill-rule="evenodd" transform="matrix(1 0 0 -1 2725 966)"/><path d="M34.7166 74.3179 24.1171 74.3179 20.251 65.6615 34.7166 65.6615C50.8874 65.6615 64.256 52.7253 64.5177 36.8222 64.653 28.8824 61.6717 21.3968 56.1267 15.7427 50.5874 10.0857 43.1754 6.97111 35.2721 6.97111L2.12184 6.97111 0.437147 6.97111-0.844694 6.97111-0.844694-1.68239 0.622691-1.68239 2.12184-1.68239 35.2721-1.68239C45.5066-1.68239 55.0975 2.34941 62.2803 9.67286 69.4573 16.9963 73.3205 26.6909 73.1502 36.9667 72.8061 57.5624 55.565 74.3179 34.7166 74.3179" fill="#FFFFFF" fill-rule="evenodd" transform="matrix(1 0 0 -1 2927 1046)"/><path d="M102.994 8.8498 102.994 45.274 71.1488 45.274 71.1488 81.6979 39.6835 81.6979 39.6835 118.34-0.80196 118.34-0.80196 107.447 31.5339 107.447 31.5339 71.2436 63.3787 71.2436 63.3787 34.7637 95.0353 34.7637 95.0353-1.66049 400.198-1.66049 400.198 8.8498" fill="#FFFFFF" fill-rule="evenodd" transform="matrix(1 0 0 -1 2725 1081)"/></g></svg>