<svg width="160" height="160" xmlns="http://www.w3.org/2000/svg" xmlns:xlink="http://www.w3.org/1999/xlink" xml:space="preserve" overflow="hidden"><g transform="translate(-2883 -1244)"><path d="M78.6029-1.22189C67.8707-1.22189 57.4596 0.878597 47.6584 5.02735 38.19 9.02949 29.688 14.7625 22.3879 22.0622 15.0878 29.3622 9.35199 37.8651 5.34839 47.3333 1.20336 57.1358-0.897004 67.5457-0.897004 78.2784-0.897004 89.011 1.20336 99.4209 5.34839 109.223 9.35199 118.691 15.0878 127.191 22.3879 134.494 29.688 141.794 38.19 147.527 47.6584 151.529 57.4596 155.675 67.8707 157.779 78.6029 157.779 89.3351 157.779 99.7462 155.675 109.547 151.529 119.016 147.527 127.518 141.794 134.818 134.494 142.115 127.191 147.851 118.691 151.855 109.223 156 99.4209 158.103 89.011 158.103 78.2784 158.103 67.5457 156 57.1358 151.855 47.3333 147.851 37.8651 142.115 29.3622 134.818 22.0622 127.518 14.7625 119.016 9.02949 109.547 5.02735 99.7462 0.878597 89.3351-1.22189 78.6029-1.22189" fill="#2E2A26" fill-rule="evenodd" transform="matrix(1 0 0 -1 2884 1402)"/><path d="M7.55384-1.27122C12.2459-1.27122 16.0538 2.31326 16.0538 6.72886 16.0538 11.1506 12.2459 14.7293 7.55384 14.7293 2.85873 14.7293-0.946459 11.1506-0.946459 6.72886-0.946459 2.31326 2.85873-1.27122 7.55384-1.27122" fill="#FFFFFF" fill-rule="evenodd" transform="matrix(1 0 0 -1 2959 1288)"/><path d="M25.0933 23.6933 17.9003 32.7922 12.7116 16.8654 0.818654 7.16552C-1.21594 5.49298-1.49055 2.50679 0.205683 0.499228 1.89302-1.51128 4.91748-1.78679 6.94911-0.111307L21.109 11.3272" fill="#FFFFFF" fill-rule="evenodd" transform="matrix(1 0 0 -1 2939 1367)"/><path d="M11.9511 4.96838-0.938253 17.7399-0.938253 7.36333 6.79733-0.217121C7.48195-0.876579 8.35948-1.22397 9.24294-1.25709 10.2441-1.29904 11.2546-0.933251 12.0114-0.175168 13.4351 1.25783 13.4077 3.55967 11.9511 4.96838" fill="#FFFFFF" fill-rule="evenodd" transform="matrix(1 0 0 -1 2974 1323)"/><path d="M40.0884 4.02861 36.8041 32.6255C36.3201 36.7849 31.2238 45.7359 31.2238 45.7359L31.2238 77.928C29.0759 80.9239 26.9017 81.7758 24.6029 81.7758 22.3823 81.6245 19.7212 80.9177 16.7615 79.0653 14.2338 77.4829 5.06173 71.1411 5.06173 71.1411 5.06173 71.1411 4.13138 70.5207 3.43273 68.9383L-0.709681 56.0652C-0.988001 55.1685-0.912548 54.239-0.559132 53.4465-0.161938 52.544 0.586181 51.8106 1.57738 51.4781 3.43843 50.8574 5.43578 51.9024 6.03869 53.8147L9.77252 65.6636 16.7615 70.4463 16.7615 46.119C16.7615 44.887 17.1704 44.1091 17.9936 42.7641L27.8438 29.8672 30.9544 2.9183C31.2498 0.341185 33.5429-1.49669 36.0649-1.19087 38.584-0.88504 40.3899 1.45149 40.0884 4.02861" fill="#FFFFFF" fill-rule="evenodd" transform="matrix(1 0 0 -1 2939 1373)"/></g></svg>