<svg width="502" height="442" xmlns="http://www.w3.org/2000/svg" xmlns:xlink="http://www.w3.org/1999/xlink" xml:space="preserve" overflow="hidden"><g transform="translate(-1053 -1430)"><path d="M497.484 27.23C499.029 24.3296 499.825 21.0975 499.825 17.8112 499.813 6.72693 490.848-2.21658 479.785-2.22742L18.8443-2.20575C7.78252-2.19492-1.17666 6.77162-1.17666 17.8329-1.17666 21.329-0.279254 24.748 1.45456 27.7811L231.906 428.903C235.508 435.012 242.076 438.774 249.176 438.774 256.407 438.774 263.063 434.881 266.62 428.573L497.484 27.23" fill="#2E2E2E" fill-rule="evenodd" transform="matrix(1 0 0 -1 1055 1869)"/><path d="M194.652 338.786 390.823-2.21421-1.17818-2.21421" fill="#FDB724" fill-rule="evenodd" transform="matrix(1 0 0 -1 1109 1829)"/><path d="M32.7236-2.21731C29.5035-2.316 26.4128-0.928835 24.3609 1.56023 22.5667 3.85054 21.4254 6.5708 21.018 9.456L21.018 9.44518 1.39491 112.682 1.38546 112.704C0.141649 118.089-0.648888 123.562-0.965912 129.08-1.61345 137.194-0.725783 145.355 1.68225 153.14 3.73819 159.715 8.02139 165.342 13.8034 169.064 19.5584 172.356 26.108 173.987 32.7236 173.754 34.8214 173.766 36.907 173.612 38.9724 173.315L38.9859 173.315C45.6974 172.5 51.8962 169.262 56.4101 164.208 60.6987 158.955 63.5317 152.667 64.6217 145.961L64.6217 145.95C66.3984 134.916 66.2135 123.639 64.0726 112.672L64.0807 112.704 45.7675 9.04769 45.7675 9.03687C45.4923 5.16064 43.4013 1.64811 40.1407-0.444813L40.1272-0.444813C37.8648-1.68867 35.3017-2.29437 32.7236-2.21731" fill="#2E2E2E" fill-rule="evenodd" transform="matrix(1 0 0 -1 1272 1737)"/><path d="M28.3222-2.02421C12.4099-2.36314-0.777134 10.1519-1.17245 25.9731-0.777134 41.7944 12.422 54.3107 28.3357 53.9611 44.2562 54.3215 57.4432 41.7944 57.829 25.9731L57.829 25.9624C57.4432 10.1304 44.244-2.38458 28.3357-2.02421" fill="#2E2E2E" fill-rule="evenodd" transform="matrix(1 0 0 -1 1276 1805)"/></g></svg>