<svg width="491" height="433" xmlns="http://www.w3.org/2000/svg" xmlns:xlink="http://www.w3.org/1999/xlink" xml:space="preserve" overflow="hidden"><g transform="translate(-3236 -720)"><path d="M479.683 24.5435C481.146 21.7979 481.971 18.6593 481.971 15.3128 481.971 4.47214 473.208-4.3251 462.385-4.3251L11.5547-4.30228C0.731505-4.30228-8.03137 4.49242-8.03137 15.3559-8.03137 18.8849-7.10244 22.2111-5.45465 25.081L219.94 418.013C223.342 423.816 229.629 427.678 236.826 427.678 244.143 427.678 250.534 423.672 253.896 417.684" fill="#FDB724" fill-rule="evenodd" transform="matrix(1 0 0 -1 3245 1148)"/><path d="M20.9634-4.12205C36.9911-4.12205 49.9647 8.19128 49.9647 23.3893 49.9647 38.5697 36.9911 50.8805 20.9634 50.8805 4.95849 50.8805-8.03538 38.5697-8.03538 23.3893-8.03538 8.19128 4.95849-4.12205 20.9634-4.12205" fill="#221F20" fill-rule="evenodd" transform="matrix(1 0 0 -1 3461 1085)"/><path d="M25.2836-4.33192C37.8226-4.33192 38.132 6.84215 38.132 6.84215L56.1671 108.636C56.1671 108.636 69.1195 168.668 25.2836 168.668-21.01 168.668-5.57714 108.636-5.57714 108.636L13.7564 7.15212C13.7564 7.15212 14.9967-4.33192 25.2836-4.33192" fill="#221F20" fill-rule="evenodd" transform="matrix(1 0 0 -1 3457 1019)"/></g></svg>