<svg width="390" height="951" xmlns="http://www.w3.org/2000/svg" xmlns:xlink="http://www.w3.org/1999/xlink" xml:space="preserve" overflow="hidden"><g transform="translate(-3746 -1401)"><path d="M-0.252213 660.29C3.6892 655.296 9.19321 651.383 14.4767 647.668 18.661 644.731 23.7769 644.118 28.8789 645.503 34.9357 647.153 41 648.878 47.041 650.626 49.4663 651.323 51.203 652.791 52.3775 655.121 54.5832 659.457 57.8657 662.893 62.3078 666.473 64.9993 656.052 64.923 646.184 65.8099 636.452 68.2511 610.472 70.2362 584.463 72.4959 558.484 72.8217 554.662 72.3973 551.234 70.2902 547.896 68.0082 544.302 66.3563 540.306 64.0435 536.757 50.8391 516.612 47.5566 494.281 49.7549 470.889 51.1648 456.163 49.4515 441.679 47.5343 427.202 43.228 394.76 42.0005 362.348 46.8214 329.845 48.9442 315.551 49.5734 301.135 50.1644 286.718 53.0597 217.627 50.2397 148.535 50.0201 79.4208 49.9894 68.145 49.0271 56.8535 48.4584 45.5861 48.0573 37.7007 43.645 32.0322 37.361 28.1271 28.7346 22.7317 19.7824 17.7981 10.6935 13.2269 5.29648 10.525 5.32719 5.73543 4.56124 1.11865 4.21317-1.03782 6.12292-1.02296 7.60921-1.03782 23.9286-1.08335 40.4844 1.30819 56.5013-0.477565 68.6978-1.83965 79.4844-0.455266 91.0601-0.235995 93.8801-0.174674 94.9559 3.78986 95.6837 6.13588 97.2761 11.0853 98.9736 15.9743 98.2831 21.3018 96.6386 34.1283 98.5874 46.7206 100.535 59.3509 103.233 76.9075 104.295 94.6536 105.804 112.332 107.326 130.228 108.736 148.141 109.259 166.084 109.647 179.175 108.934 192.358 107.964 205.458 107.251 214.819 109.473 223.484 112.709 231.891 117.666 244.734 121.282 258.014 123.564 271.386 125.664 283.699 124.155 296.525 123.328 309.103 123.041 313.446 123.215 317.48 125.073 321.529 132.084 336.868 134.464 353.282 136.185 369.862 136.572 373.495 137.86 377.037 138.807 380.601 139.346 382.757 140.407 384.181 143.076 383.9 145.311 383.666 146.744 383.204 147.457 380.669 153.491 359.124 159.767 337.67 165.725 316.11 166.536 313.174 166.415 309.791 165.953 306.727 163.36 289.321 167.582 272.498 169.955 255.517 170.713 250.213 171.388 244.854 171.456 239.519 171.812 211.171 174.504 182.914 173.813 154.543 173.2 130.297 172.35 106.05 171.706 81.7891 171.578 77.3999 169.842 73.4874 168.257 69.5824 160.919 51.5789 157.008 32.8879 156.432 13.4768 156.379 11.2822 156.287 9.14063 157.121 6.93863 158.88 2.37482 160.942 1.58042 166.772 0.649451 182.333-1.83965 199.76-0.334481 216.256-0.0771166 221.569 0.0213696 223.418 2.14811 224.268 7.16534 228.3 31.0789 228.513 57.5801 226.663 81.6302 225.654 94.6536 229.096 106.959 231.371 119.46 234.956 139.264 240.126 158.872 242.384 178.82 244.719 199.563 245.765 220.51 245.515 241.464 245.492 243.462 244.59 245.059 243.567 246.58 235.57 258.257 238.033 270.887 240.246 283.449 240.581 285.258 241.051 287.029 241.035 288.89 240.959 313.121 241.369 337.36 236.729 361.357 235.001 370.393 237.737 379.451 239.398 388.297 242.717 406.103 246.887 423.721 244.689 442.087 244.166 446.317 244.166 450.609 242.567 454.566 236.472 469.595 239.709 485.32 238.935 500.751 238.822 502.893 240.307 504.051 241.786 505.201 251.617 512.821 261.404 520.487 271.258 528.032 272.713 529.114 274.464 529.924 276.208 530.461 299.646 537.643 320.643 550.841 344.081 558.053 346.203 558.703 347.401 560.338 348.629 561.957 357.817 574.065 367.201 585.969 377.351 597.328 382.058 602.572 385.181 608.989 384.416 616.572 383.256 627.704 380.899 638.313 374.182 647.682 352.495 677.96 331.301 708.555 311.577 740.173 305.171 750.465 298.706 760.877 287.131 766.826 282.938 768.982 278.694 769.641 274.403 770.269 265.807 771.525 258.008 774.574 250.586 778.949 240.368 784.981 230.074 790.891 219.749 796.71 216.861 798.345 214.928 800.372 213.997 803.695 211.806 811.558 207.962 818.383 200.336 822.372 199.359 822.878 197.942 823.499 198.214 824.695 199.427 829.803 198.677 835.917 202.96 839.678 216.642 851.65 220.993 867.55 223.017 884.623 224.381 896.208 225.155 907.695 222.258 919.274 219.06 931.942 210.82 939.6 199.139 944.088 176.694 952.722 154.65 948.575 132.918 941.273 127.476 939.426 123.132 935.976 122.07 929.225 119.994 915.929 114.604 903.065 114.93 889.511 115.263 876.835 112.231 864.061 115.863 851.469 116.9 847.882 115.665 845.566 112.383 843.213 106.425 838.937 100.368 836.129 92.8945 837.302 83.3811 838.786 79.1279 831.649 77.8548 824.09 76.468 816.09 75.9292 807.932 75.1335 799.85 74.9287 797.905 74.4438 796.286 72.9203 794.977 61.7624 785.192 54.1514 772.577 45.8209 760.56 43.6152 757.396 41.1889 754.914 37.4448 753.757 26.0366 750.237 20.2673 740.626 16.2198 730.993 8.78372 713.3 3.3253 694.767-3.43605 676.756-5.84651 670.264-3.73852 664.695-0.252213 660.29M234.205 561.881C235.767 564.81 237.086 567.89 238.639 570.819 248.888 590.048 261.38 608.089 269.044 628.711 270.394 632.313 271.053 635.718 270.659 639.479 270.219 643.71 269.969 647.955 269.62 652.192 269.741 652.207 269.848 652.207 269.969 652.223 269.703 655.167 269.348 658.111 269.143 661.047 268.893 664.755 271.705 666.904 274.138 668.516 276.208 669.9 277.534 666.873 278.671 665.534 289.692 652.57 303.436 642.755 316.671 632.358 325.327 625.57 325.767 624.163 320.264 614.56 312.987 601.876 305.21 589.472 298.304 576.615 295.219 570.879 291.338 568.578 284.947 568.034 274.441 567.134 264.511 565.445 258.235 554.45 254.884 548.517 246.387 548.616 239.67 547.564 239.034 547.473 238.117 548.472 237.465 549.107 233.818 552.702 231.371 556.599 234.205 561.881M97.5711 786.615C100.437 787.016 102.597 789.074 104.257 791.284 107.501 795.552 110.556 799.963 113.429 804.467 114.861 806.684 115.802 809.136 119.167 808.575 122.631 808.009 124.974 805.965 126.073 802.855 128.195 796.793 121.395 785.903 115.066 784.602 111.443 783.853 107.699 782.982 105.318 779.827 103.544 777.443 101.445 776.527 97.344 777.481 96.2291 777.882 92.2877 775.71 91.8326 779.948 91.4007 783.724 93.4929 786.062 97.5711 786.615" fill="#2E2A26" fill-rule="evenodd" transform="matrix(1 0 0 -1 3751 2350)"/></g></svg>