<svg width="160" height="251" xmlns="http://www.w3.org/2000/svg" xmlns:xlink="http://www.w3.org/1999/xlink" xml:space="preserve" overflow="hidden"><g transform="translate(-1654 -1330)"><path d="M55.9103-1.16574C24.2067-1.16574-1.58993 24.6287-1.58993 56.336-1.58993 88.0404 24.2067 113.835 55.9103 113.835 87.6139 113.835 113.411 88.0404 113.411 56.336 113.411 24.6287 87.6139-1.16574 55.9103-1.16574" fill="#E32626" fill-rule="evenodd" transform="matrix(1 0 0 -1 1678 1466)"/><path d="M61.4199 114.031C89.749 114.031 112.711 90.8834 112.711 62.3324 112.711 33.7784 89.749 10.6313 61.4199 10.6313 33.0908 10.6313 10.1289 33.7784 10.1289 62.3324 10.1289 90.8834 33.0908 114.031 61.4199 114.031M61.4199 125.832C52.9197 125.832 44.668 124.152 36.8932 120.835 29.3907 117.639 22.6542 113.06 16.8744 107.231 11.0884 101.406 6.5487 94.6161 3.37509 87.0508 0.0872682 79.2172-1.58016 70.9-1.58016 62.3324-1.58016 53.7647 0.0872682 45.4475 3.37509 37.611 6.5487 30.0486 11.0884 23.2589 16.8744 17.43 22.6542 11.6014 29.3907 7.02564 36.8932 3.82684 44.668 0.512924 52.9197-1.16774 61.4199-1.16774 69.9201-1.16774 78.1718 0.512924 85.9466 3.82684 93.4495 7.02564 100.186 11.6014 105.966 17.43 111.751 23.2589 116.291 30.0486 119.465 37.611 122.753 45.4475 124.42 53.7647 124.42 62.3324 124.42 70.9 122.753 79.2172 119.465 87.0508 116.291 94.6161 111.751 101.406 105.966 107.231 100.186 113.06 93.4495 117.639 85.9466 120.835 78.1718 124.152 69.9201 125.832 61.4199 125.832" fill="#FFFFFF" fill-rule="evenodd" transform="matrix(1 0 0 -1 1673 1472)"/><path d="M77.9135 232.325C112.617 232.325 140.853 204.065 140.853 169.328 140.853 134.594 112.617 106.334 77.9135 106.334 43.2096 106.334 14.9736 134.594 14.9736 169.328 14.9736 204.065 43.2096 232.325 77.9135 232.325M77.9135 248.897C34.0071 248.897-1.58676 213.273-1.58676 169.328-1.58676 135.085 46.6843 65.6432 68.0002 7.28776 71.9213-3.4542 87.2188-4.08946 91.3339 6.58212 114.668 67.1014 157.413 136.855 157.413 169.328 157.413 213.273 121.82 248.897 77.9135 248.897" fill="#E32626" fill-rule="evenodd" transform="matrix(1 0 0 -1 1656 1579)"/></g></svg>