<svg width="300" height="424" xmlns="http://www.w3.org/2000/svg" xmlns:xlink="http://www.w3.org/1999/xlink" xml:space="preserve" overflow="hidden"><defs><clipPath id="clip0"><rect x="755" y="1410" width="300" height="424"/></clipPath></defs><g clip-path="url(#clip0)" transform="translate(-755 -1410)"><path d="M10.7114 0.00172255C4.80639 0.00172255 0.00136225 4.79793 0.00136225 10.7104L0.00136225 394.273C0.00136225 400.185 4.80639 405.002 10.7114 405.002L271.273 405.002C277.196 405.002 282.002 400.185 282.002 394.273L282.002 10.7104C282.002 4.79793 277.196 0.00172255 271.273 0.00172255" fill="#129748" fill-rule="evenodd" transform="matrix(1 0 0 -1 765 1824)"/><path d="M280.276 405.995C281.225 405.995 282.007 405.213 282.007 404.261L282.007 19.7377C282.007 18.7881 281.225 18.0031 280.276 18.0031L19.725 18.0031C18.7759 18.0031 17.9939 18.7881 17.9939 19.7377L17.9939 404.261C17.9939 405.213 18.7759 405.995 19.725 405.995ZM280.276 424.001 19.725 424.001C8.83015 424.001 0.000363067 415.165 0.000363067 404.261L0.000363067 19.7377C0.000363067 8.83374 8.83015 0.000817611 19.725 0.000817611L280.276 0.000817611C291.173 0.000817611 300.001 8.83374 300.001 19.7377L300.001 404.261C300.001 415.165 291.173 424.001 280.276 424.001" fill="#FFFFFF" fill-rule="evenodd" transform="matrix(1 0 0 -1 755 1834)"/><path d="M0.00597868 0.0343985 195.006 0.0343985 195.006 38.0346 0.00597868 38.0346Z" fill="#FFFFFF" fill-rule="evenodd" transform="matrix(1 0 0 -1 809 1776)"/><path d="M845.994 1691.02 845.994 1498.02 886.965 1498.02C900.709 1498.02 912.714 1499.76 922.979 1503.23 933.417 1506.7 941.594 1512 947.509 1519.12 953.424 1526.24 956.382 1535.35 956.382 1546.47 956.382 1557.06 953.511 1566 947.77 1573.29 942.029 1580.41 934.113 1585.28 924.022 1587.88 938.81 1590.83 949.336 1596.82 955.599 1605.85 961.862 1614.88 964.994 1625.04 964.994 1636.32 964.994 1647.61 962.123 1657.34 956.382 1665.5 950.815 1673.66 942.899 1680 932.634 1684.51 922.544 1688.85 910.626 1691.02 896.882 1691.02ZM872.09 1578.24 885.921 1578.24C900.361 1578.24 911.148 1575.9 918.281 1571.21 925.588 1566.52 929.242 1558.88 929.242 1548.29 929.242 1538.22 925.588 1530.84 918.281 1526.15 911.148 1521.46 900.883 1519.12 887.487 1519.12L872.09 1519.12ZM872.09 1669.4 891.923 1669.4C906.364 1669.4 917.498 1666.63 925.327 1661.07 933.156 1655.51 937.07 1647 937.07 1635.54 937.07 1611.58 921.152 1599.6 889.314 1599.6L872.09 1599.6Z" fill="#FFFFFF" fill-rule="evenodd"/></g></svg>