<svg width="300" height="424" xmlns="http://www.w3.org/2000/svg" xmlns:xlink="http://www.w3.org/1999/xlink" xml:space="preserve" overflow="hidden"><defs><clipPath id="clip0"><rect x="2966" y="1410" width="300" height="424"/></clipPath></defs><g clip-path="url(#clip0)" transform="translate(-2966 -1410)"><path d="M10.7114 0.00172255C4.80639 0.00172255 0.00136225 4.79793 0.00136225 10.7104L0.00136225 394.273C0.00136225 400.185 4.80639 405.002 10.7114 405.002L271.273 405.002C277.196 405.002 282.002 400.185 282.002 394.273L282.002 10.7104C282.002 4.79793 277.196 0.00172255 271.273 0.00172255" fill="#8DC63F" fill-rule="evenodd" transform="matrix(1 0 0 -1 2976 1824)"/><path d="M280.276 405.995C281.225 405.995 282.007 405.213 282.007 404.261L282.007 19.7377C282.007 18.7881 281.225 18.0031 280.276 18.0031L19.725 18.0031C18.7759 18.0031 17.9939 18.7881 17.9939 19.7377L17.9939 404.261C17.9939 405.213 18.7759 405.995 19.725 405.995ZM280.276 424.001 19.725 424.001C8.83015 424.001 0.000363067 415.165 0.000363067 404.261L0.000363067 19.7377C0.000363067 8.83374 8.83015 0.000817611 19.725 0.000817611L280.276 0.000817611C291.173 0.000817611 300.001 8.83374 300.001 19.7377L300.001 404.261C300.001 415.165 291.173 424.001 280.276 424.001" fill="#FFFFFF" fill-rule="evenodd" transform="matrix(1 0 0 -1 2966 1834)"/><path d="M0.00597868 0.0343985 195.006 0.0343985 195.006 38.0346 0.00597868 38.0346Z" fill="#2E2A26" fill-rule="evenodd" transform="matrix(1 0 0 -1 3020 1776)"/><path d="M3155.38 1691.04 3155.38 1601.18 3077.62 1601.18 3077.62 1691.04 3051 1691.04 3051 1498.04 3077.62 1498.04 3077.62 1578.26 3155.38 1578.26 3155.38 1498.04 3182 1498.04 3182 1691.04Z" fill="#2E2A26" fill-rule="evenodd"/></g></svg>