<svg width="300" height="426" xmlns="http://www.w3.org/2000/svg" xmlns:xlink="http://www.w3.org/1999/xlink" xml:space="preserve" overflow="hidden"><defs><clipPath id="clip0"><rect x="387" y="906" width="300" height="426"/></clipPath></defs><g clip-path="url(#clip0)" transform="translate(-387 -906)"><path d="M300.001 18.2741C300.001 8.2165 291.771 0.000181438 281.707 0.000181438L18.2859 0.000181438C8.22302 0.000181438 0.000453834 8.2165 0.000453834 18.2741L0.000453834 407.737C0.000453834 417.784 8.22302 426 18.2859 426L281.707 426C291.771 426 300.001 417.784 300.001 407.737" fill="#E32626" fill-rule="evenodd" transform="matrix(1 0 0 -1 387 1332)"/><path d="M232.597 0.0340979 3.429 0.0340979C1.53217 0.0340979 0.00381181 1.56942 0.00381181 3.45665L0.00381181 62.5935C0.00381181 64.499 1.53217 66.0342 3.429 66.0342L232.597 66.0342C234.475 66.0342 236.004 64.499 236.004 62.5935L236.004 3.45665C236.004 1.56942 234.475 0.0340979 232.597 0.0340979" fill="#FFFFFF" fill-rule="evenodd" transform="matrix(1 0 0 -1 419 1294)"/><path d="M457.994 1173.01C462.149 1158.39 466.391 1143.95 470.719 1129.68 475.047 1115.24 479.635 1100.36 484.482 1085.04 489.33 1069.55 494.611 1053.11 500.324 1035.7 506.037 1018.13 512.357 998.896 519.282 978.013L550.705 978.013C559.881 1004.99 568.018 1029.53 575.117 1051.63 582.388 1073.56 588.967 1094.35 594.854 1114.02 600.913 1133.68 606.626 1153.35 611.994 1173.01L584.466 1173.01C582.388 1165.36 579.964 1156.92 577.194 1147.69 574.597 1138.29 571.827 1128.55 568.884 1118.45L499.805 1118.45C496.688 1128.55 493.745 1138.21 490.975 1147.43 488.378 1156.65 485.954 1165.18 483.704 1173.01ZM506.297 1096.53 562.132 1096.53C557.457 1080.86 552.696 1065.29 547.849 1049.8 543.001 1034.14 538.5 1019.87 534.344 1006.99 529.843 1020.91 525.169 1035.62 520.321 1051.11 515.473 1066.42 510.799 1081.56 506.297 1096.53Z" fill="#FFFFFF" fill-rule="evenodd"/></g></svg>