<svg width="300" height="426" xmlns="http://www.w3.org/2000/svg" xmlns:xlink="http://www.w3.org/1999/xlink" xml:space="preserve" overflow="hidden"><defs><clipPath id="clip0"><rect x="1492" y="906" width="300" height="426"/></clipPath></defs><g clip-path="url(#clip0)" transform="translate(-1492 -906)"><path d="M300.001 18.2741C300.001 8.2165 291.771 0.000181438 281.707 0.000181438L18.2859 0.000181438C8.22302 0.000181438 0.000453834 8.2165 0.000453834 18.2741L0.000453834 407.737C0.000453834 417.784 8.22302 426 18.2859 426L281.707 426C291.771 426 300.001 417.784 300.001 407.737" fill="#F99D1E" fill-rule="evenodd" transform="matrix(1 0 0 -1 1492 1332)"/><path d="M232.597 0.0340979 3.429 0.0340979C1.53217 0.0340979 0.00381182 1.56942 0.00381182 3.45665L0.00381182 62.5935C0.00381182 64.499 1.53217 66.0342 3.429 66.0342L232.597 66.0342C234.476 66.0342 236.004 64.499 236.004 62.5935L236.004 3.45665C236.004 1.56942 234.476 0.0340979 232.597 0.0340979" fill="#2E2A26" fill-rule="evenodd" transform="matrix(1 0 0 -1 1524 1294)"/><path d="M1573.99 1173.04 1573.99 980.038 1617.15 980.038C1635.86 980.038 1652.24 984.032 1666.28 992.019 1680.32 999.833 1691.24 1011.03 1699.03 1025.62 1707.01 1040.03 1710.99 1057.13 1710.99 1076.93 1710.99 1097.24 1707.09 1114.61 1699.29 1129.02 1691.67 1143.26 1680.75 1154.2 1666.54 1161.84 1652.33 1169.31 1635.34 1173.04 1615.59 1173.04ZM1600.51 1150.12 1612.99 1150.12C1635.17 1150.12 1652.24 1143.95 1664.2 1131.63 1676.33 1119.12 1682.4 1100.63 1682.4 1076.15 1682.4 1053.05 1676.5 1035.08 1664.72 1022.23 1653.11 1009.38 1637.34 1002.96 1617.41 1002.96L1600.51 1002.96Z" fill="#2E2A26" fill-rule="evenodd"/></g></svg>