<?xml version="1.0" encoding="UTF-8" standalone="no"?>
<!-- Created with Inkscape (http://www.inkscape.org/) -->

<svg
   width="62.441616mm"
   height="37.570827mm"
   viewBox="0 0 62.441616 37.570827"
   version="1.1"
   id="svg1"
   xmlns="http://www.w3.org/2000/svg"
   xmlns:svg="http://www.w3.org/2000/svg">
  <defs
     id="defs1">
    <clipPath
       id="clip0">
      <rect
         x="587"
         y="71"
         width="236"
         height="169"
         id="rect1" />
    </clipPath>
  </defs>
  <g
     id="layer1"
     transform="translate(-73.818796,-129.64557)">
    <g
       clip-path="url(#clip0)"
       transform="matrix(0.26458333,0,0,0.26458333,-81.49167,110.33125)"
       id="g2">
      <path
         d="m 233.087,96.2073 c -1.94,8.2627 -4.852,16.2287 -8.617,23.7797 -2.129,4.241 -6.184,10.623 -12.193,15.369 -4.977,3.883 -11.073,6.645 -18.382,6.645 h -59.893 -28.7 -63.1826 c -7.3103,0 -13.4196,-2.762 -18.3752,-6.645 C 17.7143,130.61 13.6452,124.228 11.5299,119.987 7.76549,112.436 4.85143,104.47 2.91427,96.2073 1.02302,88.0831 2.09615e-4,79.6479 2.09615e-4,70.9962 2.09615e-4,62.343 1.02302,53.9094 2.91427,45.8064 4.85143,37.5317 7.76549,29.5568 11.5299,22.004 13.6452,17.7646 17.7143,11.381 23.7442,6.65905 28.6998,2.76299 34.8091,0.00105687 42.1194,0.00105687 h 63.1826 28.7 59.893 c 7.309,0 13.405,2.76193313 18.382,6.65799313 6.009,4.72195 10.064,11.10555 12.193,15.34495 3.765,7.5528 6.677,15.5277 8.617,23.8024 1.896,8.103 2.913,16.5366 2.913,25.1898 0,8.6517 -1.017,17.0869 -2.913,25.2111"
         fill="#ffffff"
         fill-rule="evenodd"
         transform="matrix(1,0,0,-1,587,215)"
         id="path1" />
      <path
         d="m 210.309,108.348 c -2.089,4.153 -9.961,17.654 -23.811,17.654 H 126.534 97.7876 34.5102 c -13.8618,0 -21.7161,-13.501 -23.8055,-17.654 C 3.59754,94.1971 0.0014716,78.9499 0.0014716,62.9966 0.0014716,47.0533 3.59754,31.8078 10.7047,17.6803 12.7732,13.5371 20.6484,0.002321 34.5102,0.002321 h 63.2774 28.7464 59.964 c 13.877,0 21.722,13.534779 23.811,17.677979 7.105,14.1275 10.693,29.373 10.693,45.3163 0,15.9533 -3.588,31.2005 -10.693,45.3514"
         fill="#688071"
         fill-rule="evenodd"
         transform="matrix(-1,0,0,1,816,81)"
         id="path2" />
      <path
         d="m 16.40625,-30.15625 h 2.8125 q 4.335937,0 6.367187,-0.625 5.46875,-1.71875 5.46875,-8.320312 0,-4.609375 -2.96875,-6.484375 Q 26.09375,-46.875 19.921875,-46.875 H 16.40625 Z m 0,24.140625 h 3.515625 q 4.882812,0 6.992187,-0.7421875 2.65625,-0.8984375 4.101563,-3.3203125 1.40625,-2.34375 1.40625,-5.625 0,-5.429687 -3.671875,-7.5 -2.421875,-1.367187 -9.53125,-1.367187 h -2.8125 z M 4.3359375,-52.8125 H 21.601562 q 8.867188,0 13.046875,1.835938 6.71875,2.929687 6.71875,10.234375 0,4.726562 -2.851562,8.125 -1.757813,2.148437 -4.414063,3.4375 -1.445312,0.703125 -4.257812,1.328125 5,0.78125 7.695312,2.304687 5.9375,3.398438 5.9375,10.429687 0,5.5468755 -3.789062,9.4531255 -3.4375,3.515625 -9.179688,4.765625 Q 26.289062,0 19.140625,0 H 5.9375 v -37.773437 q -0.039063,-2.65625 3.1640625,-5.742188 2.4218755,-2.265625 5.3906255,-3.125 V -46.875 H 4.8046875 Z m 58.0468745,24.648438 h 4.570313 q 3.90625,0 6.171875,-0.976563 4.921875,-2.109375 4.921875,-9.140625 0,-6.09375 -4.453125,-7.773437 -1.953125,-0.742188 -6.71875,-0.742188 H 62.382812 Z M 51.679687,0 v -37.773437 q -0.03906,-2.65625 3.164063,-5.742188 2.382812,-2.304687 5.390625,-3.125 V -46.875 h -9.6875 l -0.46875,-5.9375 h 17.03125 q 6.289062,0 9.023437,0.390625 6.132813,0.820313 9.375,4.296875 3.4375,3.671875 3.4375,9.492188 0,8.828125 -7.304687,12.929687 -5.273438,2.96875 -12.851563,2.96875 h -6.40625 V 0 Z"
         id="text2"
         style="font-size:80px;font-family:LTA-Identity, LTA-Identity_MSFontService, sans-serif;fill:#ffffff"
         transform="translate(660.126,171)"
         aria-label="BP" />
    </g>
  </g>
</svg>
