<svg width="386" height="231" xmlns="http://www.w3.org/2000/svg" xmlns:xlink="http://www.w3.org/1999/xlink" xml:space="preserve" overflow="hidden"><g transform="translate(-2603 -1690)"><path d="M59.7611 85.3962 56.4485 74.5276C50.1171 77.2788 44.8793 78.651 40.7203 78.651 33.0932 78.651 27.2445 75.0949 23.17 67.9827 19.6215 61.6978 17.8436 53.5803 17.8436 43.6282 17.8436 33.7202 19.5736 25.6475 23.0448 19.4067 26.8947 12.4688 32.4895 8.99789 39.811 8.99789 44.7469 8.99789 50.2902 10.7224 56.4485 14.1711L60.0223 3.30251C53.1282-0.0605505 45.3321-1.74049 36.6232-1.74049 21.8079-1.74049 11.1258 4.06644 4.5888 15.6762 0.208787 23.4412-1.9776 32.6522-1.9776 43.3018-1.9776 58.2714 2.22209 69.9668 10.6292 78.3915 17.8179 85.6334 27.2702 89.2601 38.9641 89.2601 47.0214 89.2601 53.9566 87.9694 59.7611 85.3962" fill="#2E2A26" fill-rule="evenodd" transform="matrix(1 0 0 -1 2698 1849)"/><path d="M59.7412 84.4352 56.4235 73.6876C50.1011 76.406 44.8601 77.7652 40.6998 77.7652 33.0725 77.7652 27.2238 74.2484 23.1495 67.2109 19.597 60.9981 17.8226 52.9693 17.8226 43.1281 17.8226 33.3275 19.5522 25.3434 23.0191 19.1713 26.8774 12.3083 32.4652 8.87731 39.7863 8.87731 44.7292 8.87731 50.2727 10.5816 56.4235 13.9908L59.9984 3.24316C53.1131-0.0802469 45.3146-1.744 36.6031-1.744 21.7852-1.744 11.1052 3.9973 4.56263 15.4799 0.186277 23.1635-2.0019 32.2693-2.0019 42.8049-2.0019 57.6077 2.19916 69.1755 10.6054 77.5089 17.8002 84.6728 27.2463 88.2565 38.9437 88.2565 47.0035 88.2565 53.9332 86.9826 59.7412 84.4352" fill="#2E2A26" fill-rule="evenodd" transform="matrix(1 0 0 -1 2697 1848)"/><path d="M378.178 154.084C375.021 167.47 370.258 180.38 364.11 192.604 360.672 199.456 354.039 209.811 344.211 217.466 336.12 223.771 326.152 228.253 314.232 228.253L216.538 228.253 169.717 228.253 66.6244 228.253C54.705 228.253 44.7328 223.771 36.6454 217.466 26.8221 209.811 20.189 199.456 16.7461 192.604 10.5989 180.38 5.83921 167.47 2.67502 154.084-0.426326 140.944-2.07014 127.274-2.07014 113.255-2.07014 99.2318-0.426326 85.5631 2.67502 72.4223 5.83921 59.0402 10.5989 46.1303 16.7461 33.902 20.189 27.0546 26.8221 16.6957 36.6454 9.03999 44.7328 2.73613 54.705-1.74729 66.6244-1.74729L169.717-1.74729 216.538-1.74729 314.232-1.74729C326.148-1.74729 336.12 2.73613 344.211 9.03999 354.039 16.6957 360.672 27.0546 364.11 33.902 370.258 46.1303 375.021 59.0402 378.178 72.4223 381.28 85.5631 382.93 99.2318 382.93 113.255 382.93 127.274 381.28 140.944 378.178 154.084" fill="#FFFFFF" fill-rule="evenodd" transform="matrix(1 0 0 -1 2606 1919)"/><path d="M341.45 173.664C338.046 180.373 325.185 202.261 302.55 202.261L204.602 202.261 157.648 202.261 54.2981 202.261C31.6635 202.261 18.8023 180.373 15.3985 173.664 3.80212 150.775-2.076 126.078-2.076 100.261-2.076 74.4475 3.80212 49.7538 15.3985 26.865 18.795 20.156 31.6447-1.73936 54.2981-1.73936L157.648-1.73936 204.602-1.73936 302.55-1.73936C325.204-1.73936 338.05 20.156 341.45 26.865 353.046 49.7538 358.924 74.4475 358.924 100.261 358.924 126.078 353.046 150.775 341.45 173.664" fill="#8DC63F" fill-rule="evenodd" transform="matrix(1 0 0 -1 2618 1906)"/><path d="M60.7219 85.3976 57.3558 74.528C50.9265 77.2786 45.5982 78.656 41.3742 78.656 33.6232 78.656 27.6807 75.0959 23.5432 67.9829 19.9339 61.698 18.129 53.5791 18.129 43.6265 18.129 33.7182 19.8888 25.6439 23.4122 19.4033 27.3291 12.4653 33.009 8.99404 40.4493 8.99404 45.4672 8.99404 51.1026 10.7165 57.3558 14.1654L60.9877 3.29944C53.9855-0.0638101 46.0626-1.74202 37.2142-1.74202 22.158-1.74202 11.3029 4.06015 4.6566 15.6727 0.208257 23.4388-2.01269 32.6489-2.01269 43.2997-2.01269 58.2714 2.25635 69.9692 10.7972 78.3926 18.1064 85.635 27.7033 89.2585 39.5919 89.2585 47.7773 89.2585 54.8204 87.9741 60.7219 85.3976" fill="#2E2A26" fill-rule="evenodd" transform="matrix(1 0 0 -1 2698 1849)"/><path d="M18.1325-1.73192 0.603364-1.73192 0.603364 61.2114C0.559072 64.116 2.31493 67.3048 5.8637 70.7777 8.50268 73.2913 11.4883 75.0296 14.8233 75.9857L14.8233 76.3768-1.27814 76.3768-2.05822 86.2685 23.9746 86.2685C30.1221 86.2685 34.6245 86.095 37.4809 85.7479 43.9267 84.9694 48.9918 82.9057 52.6694 79.5661 57.0425 75.6164 59.2255 70.3903 59.2255 63.88 59.2255 57.1517 57.278 51.534 53.3834 47.0202 51.0902 44.3294 48.3843 42.2481 45.2704 40.7718 43.7979 40.0739 41.5263 39.2769 38.4526 38.3651L64.9423-1.73192 44.7511-1.73192 21.4422 36.2761C21.1842 36.7116 21.0558 37.2318 21.0558 37.8449 21.0558 38.6234 21.2691 39.2288 21.7035 39.6643 21.9204 39.8823 23.1759 40.3359 25.4692 41.0337 36.2036 44.3294 41.5706 51.1393 41.5706 61.4661 41.5706 67.7222 39.686 71.9256 35.9202 74.0998 33.4978 75.5317 29.342 76.244 23.4557 76.244L18.1325 76.244" fill="#2E2A26" fill-rule="evenodd" transform="matrix(1 0 0 -1 2769 1848)"/><path d="M-2.14664-1.73403-2.14664 72.0784C-2.19072 74.1699-1.03651 76.6632 1.31416 79.5742 5.57745 84.5731 10.3856 87.1331 15.7372 87.266L15.7372 9.21216 47.8523 9.21216 47.8523-1.73403" fill="#2E2A26" fill-rule="evenodd" transform="matrix(1 0 0 -1 2849 1848)"/></g></svg>