<svg width="363" height="216" xmlns="http://www.w3.org/2000/svg" xmlns:xlink="http://www.w3.org/1999/xlink" xml:space="preserve" overflow="hidden"><g transform="translate(-2604 -1221)"><path d="M355.944 135.525C352.968 148.036 348.501 160.093 342.726 171.527 339.46 177.929 333.24 187.61 324.023 194.776 316.389 200.674 307.038 204.839 295.827 204.839L203.957 204.839 159.934 204.839 63.0183 204.839C51.8052 204.839 42.4342 200.674 34.8328 194.776 25.5835 187.61 19.3418 177.929 16.0972 171.527 10.323 160.093 5.85314 148.036 2.88174 135.525-0.0192116 123.224-1.58816 110.456-1.58816 97.355-1.58816 84.2396-0.0192116 71.4692 2.88174 59.2016 5.85314 46.6592 10.323 34.6003 16.0972 23.1677 19.3418 16.7644 25.5835 7.0828 34.8328-0.0468637 42.4342-5.94529 51.8052-10.163 63.0183-10.163L159.934-10.163 203.957-10.163 295.827-10.163C307.038-10.163 316.389-5.94529 324.023-0.0468637 333.24 7.0828 339.46 16.7644 342.726 23.1677 348.501 34.6003 352.968 46.6592 355.944 59.2016 358.851 71.4692 360.412 84.2396 360.412 97.355 360.412 110.456 358.851 123.224 355.944 135.525" fill="#FFFFFF" fill-rule="evenodd" transform="matrix(1 0 0 -1 2606 1426)"/><path d="M320.063 154.093C316.868 160.388 304.828 180.869 283.646 180.869L191.936 180.869 147.97 180.869 51.1922 180.869C29.9918 180.869 17.9793 160.388 14.7838 154.093 3.91392 132.66-1.58603 109.533-1.58603 85.3685-1.58603 61.1875 3.91392 38.0768 14.7838 16.6608 17.9473 10.383 29.9918-10.1324 51.1922-10.1324L147.97-10.1324 191.936-10.1324 283.646-10.1324C304.87-10.1324 316.868 10.383 320.063 16.6608 330.929 38.0768 336.416 61.1875 336.416 85.3685 336.416 109.533 330.929 132.66 320.063 154.093" fill="#2059A8" fill-rule="evenodd" transform="matrix(1 0 0 -1 2618 1414)"/><path d="M0.885682-10.0886 0.885682 46.402C0.853669 49.0896 2.43509 51.9485 5.66623 55.0146 8.08425 57.2877 10.8352 58.8546 13.7889 59.6983L13.7889 60.0261-0.808852 60.0261-1.52167 68.9136 19.8179 68.9136C26.8244 68.9136 32.019 68.6366 35.4828 68.0001 52.1186 64.8304 60.4782 52.8091 60.4782 31.9532 60.4782 13.197 54.4129 0.640713 42.246-5.78333 38.9935-7.55533 35.2587-8.7268 31.0821-9.32945 27.7976-9.84752 23.3158-10.0886 17.6987-10.0886ZM17.0542-1.51191 19.1243-1.51191C23.8515-1.51191 27.2256-1.25394 29.1549-0.769701 38.5368 1.72548 43.249 12.2158 43.249 30.695 43.249 40.754 41.8917 48.0746 39.2517 52.6209 37.2904 55.9957 34.5053 58.1484 30.9946 59.0449 28.6982 59.6645 25.243 59.9394 20.6396 59.9394L17.0542 59.9394" fill="#FFFFFF" fill-rule="evenodd" transform="matrix(1 0 0 -1 2696 1358)"/><path d="M19.2843-10.0886 19.2843 45.5413C19.2843 47.0575 19.9543 48.8993 21.2795 50.9842 24.1432 55.1182 27.7965 57.7529 32.2095 58.8715L32.2095 59.2331-1.00295 59.2331-1.59404 68.9136 56.4061 68.9136 56.4061 59.2331 35.4402 59.2331 35.4402-10.0886" fill="#FFFFFF" fill-rule="evenodd" transform="matrix(1 0 0 -1 2762 1358)"/><path d="M-1.65463-10.1083-1.65463 56.2431C-1.66738 58.1075-0.647834 60.3682 1.46134 62.9911 5.28675 67.4595 9.63255 69.7541 14.4371 69.8939L14.4371-0.290262 43.3475-0.290262 43.3475-10.1083" fill="#FFFFFF" fill-rule="evenodd" transform="matrix(1 0 0 -1 2831 1358)"/></g></svg>