<svg width="363" height="216" xmlns="http://www.w3.org/2000/svg" xmlns:xlink="http://www.w3.org/1999/xlink" xml:space="preserve" overflow="hidden"><g transform="translate(-2604 -516)"><path d="M355.944 133.545C352.968 146.056 348.501 158.114 342.726 169.549 339.46 175.953 333.24 185.633 324.023 192.8 316.389 198.699 307.038 202.864 295.827 202.864L203.957 202.864 159.934 202.864 63.0183 202.864C51.8052 202.864 42.4342 198.699 34.8328 192.8 25.5835 185.633 19.3418 175.953 16.0972 169.549 10.323 158.114 5.85314 146.056 2.88174 133.545-0.0192116 121.242-1.58816 108.473-1.58816 95.3731-1.58816 82.2545-0.0192116 69.4831 2.88174 57.2166 5.85314 44.6903 10.323 32.6112 16.0972 21.1777 19.3418 14.776 25.5835 5.09364 34.8328-2.03873 42.4342-7.93764 51.8052-12.1365 63.0183-12.1365L159.934-12.1365 203.957-12.1365 295.827-12.1365C307.038-12.1365 316.389-7.93764 324.023-2.03873 333.24 5.09364 339.46 14.776 342.726 21.1777 348.501 32.6112 352.968 44.6903 355.944 57.2166 358.851 69.4831 360.412 82.2545 360.412 95.3731 360.412 108.473 358.851 121.242 355.944 133.545" fill="#FFFFFF" fill-rule="evenodd" transform="matrix(1 0 0 -1 2606 719)"/><path d="M320.063 152.925C316.868 159.252 304.828 179.839 283.646 179.839L191.936 179.839 147.97 179.839 51.1922 179.839C29.9918 179.839 17.9793 159.252 14.7838 152.925 3.91392 131.365-1.58603 108.136-1.58603 83.8474-1.58603 59.5592 3.91392 36.3128 14.7838 14.7889 17.9473 8.47675 29.9918-12.1612 51.1922-12.1612L147.97-12.1612 191.936-12.1612 283.646-12.1612C304.87-12.1612 316.868 8.47675 320.063 14.7889 330.929 36.3128 336.416 59.5592 336.416 83.8474 336.416 108.136 330.929 131.365 320.063 152.925" fill="#129748" fill-rule="evenodd" transform="matrix(1 0 0 -1 2618 708)"/><path d="M0.877009-12.0389 0.877009 44.2273C0.877009 46.8772 2.42191 49.785 5.65468 52.8661 8.07233 55.1378 10.7887 56.6698 13.8081 57.5151L13.8081 57.8236-0.808726 57.8236-1.50223 66.9632 48.0456 66.9632 48.0456 57.2552 17.075 57.2552 17.075 33.4182 45.9822 33.4182 45.9822 24.0884 17.075 24.0884 17.075-2.12588 48.5001-2.12588 48.5001-12.0389" fill="#FFFFFF" fill-rule="evenodd" transform="matrix(1 0 0 -1 2683 651)"/><path d="M-1.59477 68.0623 15.0667 68.0623 26.215 11.0015 41.7597 68.0623 53.7548 68.0623 68.2406 11.1227 78.1971 59.5093C78.9602 63.1801 81.3674 65.8475 85.4743 67.5437 87.2877 68.2175 89.2769 68.6681 91.4054 68.8934L72.3261-11.399 60.1767-11.399 44.8828 46.0253 31.1944-2.11911C30.0433-6.29144 27.4433-9.18422 23.4263-10.7932 21.3814-11.6243 19.0279-12.0749 16.3549-12.1089" fill="#FFFFFF" fill-rule="evenodd" transform="matrix(1 0 0 -1 2739 652)"/><path d="M-1.70393-12.0651-1.70393 54.2751C-1.73866 56.1557-0.662038 58.3985 1.51292 61.0203 5.38747 65.5037 9.84157 67.8164 14.7732 67.9371L14.7732-2.23428 44.2958-2.23428 44.2958-12.0651" fill="#FFFFFF" fill-rule="evenodd" transform="matrix(1 0 0 -1 2843 651)"/></g></svg>