<svg width="397" height="237" xmlns="http://www.w3.org/2000/svg" xmlns:xlink="http://www.w3.org/1999/xlink" xml:space="preserve" overflow="hidden"><g transform="translate(-2603 -1935)"><path d="M388.991 157.304C385.74 171.04 380.845 184.281 374.522 196.83 370.981 203.86 364.161 214.486 354.053 222.341 345.732 228.81 335.478 233.409 323.215 233.409L222.726 233.409 174.564 233.409 68.5322 233.409C56.2698 233.409 46.0165 228.81 37.6951 222.341 27.5864 214.486 20.7673 203.86 17.2259 196.83 10.9024 184.281 6.00811 171.04 2.75649 157.304-0.433831 143.82-2.1261 129.794-2.1261 115.409-2.1261 101.016-0.433831 86.9895 2.75649 73.5093 6.00811 59.7766 10.9024 46.5327 17.2259 33.9836 20.7673 26.957 27.5864 16.3316 37.6913 8.46896 46.0165 2.00372 56.2735-2.59134 68.5322-2.59134L174.564-2.59134 222.726-2.59134 323.215-2.59134C335.474-2.59134 345.732 2.00372 354.056 8.46896 364.161 16.3316 370.981 26.957 374.522 33.9836 380.845 46.5327 385.74 59.7766 388.991 73.5093 392.182 86.9895 393.874 101.016 393.874 115.409 393.874 129.794 392.182 143.82 388.991 157.304" fill="#FFFFFF" fill-rule="evenodd" transform="matrix(1 0 0 -1 2606 2169)"/><path d="M349.966 177.971C346.477 184.874 333.294 207.412 310.097 207.412L209.708 207.412 161.585 207.412 55.6534 207.412C32.4569 207.412 19.2743 184.874 15.7851 177.971 3.90115 154.408-2.12454 128.984-2.12454 102.41-2.12454 75.8356 3.90115 50.4162 15.7851 26.8566 19.2701 19.9497 32.434-2.5879 55.6534-2.5879L161.585-2.5879 209.708-2.5879 310.097-2.5879C333.317-2.5879 346.481 19.9497 349.966 26.8566 361.85 50.4162 367.875 75.8356 367.875 102.41 367.875 128.984 361.85 154.408 349.966 177.971" fill="#0CACBA" fill-rule="evenodd" transform="matrix(1 0 0 -1 2619 2156)"/><path d="M1.65381 15.9573C7.03489 11.0505 12.5763 8.60273 18.2706 8.60273 22.8461 8.60273 25.9854 10.0855 27.6927 13.0539 28.9029 15.1682 29.5064 18.4315 29.5064 22.8365L29.5064 75.6761C29.4609 77.6103 30.5605 79.9429 32.8023 82.693 37.6488 88.3622 43.0304 91.2614 48.9535 91.3997L48.9535 26.483C48.9535 17.0794 46.0815 9.79393 40.3417 4.61527 34.9564-0.191402 27.6008-2.60062 18.2706-2.60062 13.6074-2.60062 9.41408-1.94599 5.69055-0.643335 3.35685 0.122742 0.778841 1.44797-2.04721 3.33613" fill="#FFFFFF" fill-rule="evenodd" transform="matrix(1 0 0 -1 2703 2098)"/><path d="M18.6756-2.59497 0.622055-2.59497 0.622055 62.4936C0.580119 65.5004 2.38291 68.7976 6.03789 72.3851 8.75909 74.9909 11.833 76.7865 15.2676 77.7683L15.2676 78.1774-1.31354 78.1774-2.11825 88.4052 24.6949 88.4052C31.0212 88.4052 35.6594 88.2256 38.6005 87.8663 45.2423 87.0604 50.4563 84.9322 54.2441 81.4745 58.7453 77.386 60.9959 71.9841 60.9959 65.2555 60.9959 58.2986 58.9918 52.4833 54.9803 47.8221 52.6161 45.0409 49.8343 42.8859 46.6234 41.3614 45.1053 40.6395 42.7676 39.8144 39.6023 38.8668L66.8823-2.59497 46.0884-2.59497 22.0874 36.7156C21.8181 37.1589 21.6853 37.6974 21.6853 38.3278 21.6853 39.1379 21.9094 39.7684 22.3534 40.2154 22.5734 40.441 23.8678 40.9068 26.2321 41.6292 37.2837 45.0409 42.8132 52.0823 42.8132 62.7647 42.8132 69.2254 40.8739 73.5733 36.9953 75.816 34.4977 77.2983 30.2207 78.0394 24.1595 78.0394L18.6756 78.0394" fill="#FFFFFF" fill-rule="evenodd" transform="matrix(1 0 0 -1 2770 2096)"/><path d="M-2.18785-2.59692-2.18785 73.7101C-2.23332 75.8588-1.05796 78.4468 1.34194 81.4516 5.68841 86.6121 10.594 89.2653 16.0513 89.4028L16.0513 8.72241 48.8111 8.72241 48.8111-2.59692" fill="#FFFFFF" fill-rule="evenodd" transform="matrix(1 0 0 -1 2852 2096)"/></g></svg>