<svg width="363" height="216" xmlns="http://www.w3.org/2000/svg" xmlns:xlink="http://www.w3.org/1999/xlink" xml:space="preserve" overflow="hidden"><g transform="translate(-2604 -750)"><path d="M355.942 134.183C352.981 146.695 348.498 158.753 342.726 170.188 339.473 176.59 333.252 186.272 324.013 193.439 316.386 199.338 307.027 203.519 295.814 203.519L203.962 203.519 159.938 203.519 63.0078 203.519C51.807 203.519 42.4207 199.338 34.8212 193.439 25.5715 186.272 19.351 176.59 16.0978 170.188 10.3021 158.753 5.83413 146.695 2.86476 134.183-0.0405593 121.883-1.58822 109.112-1.58822 96.0099-1.58822 82.8935-0.0405593 70.1221 2.86476 57.8556 5.83413 45.3442 10.3021 33.2503 16.0978 21.8168 19.351 15.413 25.5715 5.7306 34.8212-1.39963 42.4207-7.29853 51.807-11.4804 63.0078-11.4804L159.938-11.4804 203.962-11.4804 295.814-11.4804C307.027-11.4804 316.386-7.29853 324.013-1.39963 333.252 5.7306 339.473 15.413 342.726 21.8168 348.498 33.2503 352.981 45.3442 355.942 57.8556 358.841 70.1221 360.412 82.8935 360.412 96.0099 360.412 109.112 358.841 121.883 355.942 134.183" fill="#FFFFFF" fill-rule="evenodd" transform="matrix(1 0 0 -1 2606 954)"/><path d="M320.056 153.578C316.865 159.908 304.832 180.495 283.651 180.495L191.944 180.495 147.983 180.495 51.2106 180.495C30.0093 180.495 17.9996 159.908 14.8043 153.578 3.93288 132.035-1.58594 108.787-1.58594 84.4961-1.58594 60.2034 3.93288 36.9568 14.8043 15.4458 17.957 9.09883 30.0093-11.5048 51.2106-11.5048L147.983-11.5048 191.944-11.5048 283.651-11.5048C304.866-11.5048 316.865 9.09883 320.056 15.4458 330.929 36.9568 336.416 60.2034 336.416 84.4961 336.416 108.787 330.929 132.035 320.056 153.578" fill="#904199" fill-rule="evenodd" transform="matrix(1 0 0 -1 2618 942)"/><path d="M58.4969-11.4319 48.354-11.4319 9.11902 42.1897 9.11902-11.4319-1.50506-11.4319-1.50506 67.8595 8.65674 67.8595 47.7377 14.2909 47.7377 59.3609C47.7166 60.6398 48.4005 62.1775 49.8443 63.9379 52.3774 66.9263 55.2778 68.4639 58.4969 68.5679" fill="#FFFFFF" fill-rule="evenodd" transform="matrix(1 0 0 -1 2696 886)"/><path d="M0.818836-11.5322 0.818836 45.461C0.782586 48.1274 2.36482 51.0912 5.59538 54.2112 7.97513 56.5117 10.6811 58.0974 13.7219 58.8999L13.7219 59.2487-0.88494 59.2487-1.59716 68.4697 47.9232 68.4697 47.9232 58.6902 16.9717 58.6902 16.9717 34.5323 45.8527 34.5323 45.8527 25.0695 16.9717 25.0695 16.9717-1.44232 48.403-1.44232 48.403-11.5322" fill="#FFFFFF" fill-rule="evenodd" transform="matrix(1 0 0 -1 2771 886)"/><path d="M-1.65266-11.4149-1.65266 54.942C-1.72701 56.8056-0.654268 59.1013 1.45511 61.6872 5.28088 66.1557 9.60584 68.4662 14.4321 68.5869L14.4321-1.54811 43.3452-1.54811 43.3452-11.4149" fill="#FFFFFF" fill-rule="evenodd" transform="matrix(1 0 0 -1 2833 886)"/></g></svg>