<svg width="363" height="217" xmlns="http://www.w3.org/2000/svg" xmlns:xlink="http://www.w3.org/1999/xlink" xml:space="preserve" overflow="hidden"><g transform="translate(-2604 -280)"><path d="M355.944 133.506C352.968 146.091 348.501 158.19 342.726 169.676 339.46 176.11 333.24 185.837 324.023 193.035 316.389 198.964 307.038 203.146 295.827 203.146L203.957 203.146 159.934 203.146 63.0183 203.146C51.8052 203.146 42.4342 198.964 34.8328 193.035 25.5835 185.837 19.3418 176.11 16.0972 169.676 10.323 158.19 5.85314 146.091 2.88174 133.506-0.0192116 121.146-1.58816 108.316-1.58816 95.1553-1.58816 81.9756-0.0192116 69.147 2.88174 56.8213 5.85314 44.2367 10.323 32.1208 16.0972 20.6148 19.3418 14.1834 25.5835 4.45599 34.8328-2.70955 42.4342-8.63589 51.8052-12.8543 63.0183-12.8543L159.934-12.8543 203.957-12.8543 295.827-12.8543C307.038-12.8543 316.389-8.63589 324.023-2.70955 333.24 4.45599 339.46 14.1834 342.726 20.6148 348.501 32.1208 352.968 44.2367 355.944 56.8213 358.851 69.147 360.412 81.9756 360.412 95.1553 360.412 108.316 358.851 121.146 355.944 133.506" fill="#FFFFFF" fill-rule="evenodd" transform="matrix(1 0 0 -1 2606 484)"/><path d="M320.063 152.267C316.868 158.56 304.828 179.181 283.646 179.181L191.936 179.181 147.97 179.181 51.1922 179.181C29.9918 179.181 17.9793 158.56 14.7838 152.267 3.91392 130.707-1.58603 107.479-1.58603 83.1886-1.58603 58.8831 3.91392 35.6535 14.7838 14.1295 17.9473 7.81721 29.9918-12.8209 51.1922-12.8209L147.97-12.8209 191.936-12.8209 283.646-12.8209C304.87-12.8209 316.868 7.81721 320.063 14.1295 330.929 35.6535 336.416 58.8831 336.416 83.1886 336.416 107.479 330.929 130.707 320.063 152.267" fill="#E32626" fill-rule="evenodd" transform="matrix(1 0 0 -1 2618 472)"/><path d="M59.4698-12.9007 49.1526-12.9007 9.26789 41.3848 9.26789-12.9007-1.53213-12.9007-1.53213 67.3838 8.79795 67.3838 48.5454 13.1477 48.5454 58.7941C48.511 60.1065 49.2278 61.6616 50.6762 63.4122 53.2405 66.4387 56.1996 68.0132 59.4698 68.1012" fill="#FFFFFF" fill-rule="evenodd" transform="matrix(1 0 0 -1 2697 416)"/><path d="M43.8129 66.0133 40.853 56.4269C35.6331 58.8342 30.5154 60.0175 25.4758 60.0175 22.1292 60.0175 19.3693 59.4076 17.2613 58.188 14.6079 56.6901 13.2997 54.3705 13.2997 51.1993 13.2997 49.0552 14.0059 47.0866 15.5271 45.379 17.0005 43.6351 19.7778 41.4225 23.8786 38.7028L29.0289 35.339C34.3814 31.819 38.4321 28.5601 41.1225 25.5451 45.2623 20.891 47.3725 15.488 47.3725 9.40448 47.3725 2.60843 45.0841-2.76036 40.5553-6.71688 35.8265-10.7761 29.155-12.8517 20.5515-12.8517 13.417-12.8517 6.28909-11.1762-0.901857-7.77822L2.71426 2.76678C8.37749-1.27747 14.1863-3.28247 20.1994-3.28247 24.5349-3.28247 27.7772-2.11414 29.9895 0.151927 31.4563 1.73753 32.2169 3.70616 32.2169 6.07707 32.2169 8.56781 31.352 10.7996 29.6874 12.7683 28.0054 14.739 25.0129 17.11 20.6775 19.881L15.5271 23.1228C10.5007 26.294 6.69765 29.3968 4.09204 32.4631 0.286856 36.8904-1.62769 41.9104-1.62769 47.5745-1.62769 55.6608 1.70592 61.6202 8.30795 65.2986 12.8368 67.8599 18.4522 69.1502 25.1216 69.1502 32.1474 69.1502 38.3648 68.0889 43.8129 66.0133" fill="#FFFFFF" fill-rule="evenodd" transform="matrix(1 0 0 -1 2771 417)"/><path d="M-1.65462-12.8812-1.65462 54.3023C-1.6886 56.2068-0.647829 58.5123 1.46133 61.1332 5.28671 65.6564 9.61123 67.9985 14.437 68.1207L14.437-2.9061 43.3451-2.9061 43.3451-12.8812" fill="#FFFFFF" fill-rule="evenodd" transform="matrix(1 0 0 -1 2832 416)"/></g></svg>