<?xml version="1.0" encoding="UTF-8" standalone="no"?>
<!-- Created with Inkscape (http://www.inkscape.org/) -->

<svg
   width="62.706192mm"
   height="37.306244mm"
   viewBox="0 0 62.706192 37.306244"
   version="1.1"
   id="svg1"
   xmlns="http://www.w3.org/2000/svg"
   xmlns:svg="http://www.w3.org/2000/svg">
  <defs
     id="defs1">
    <clipPath
       id="clip0-2">
      <rect
         x="925"
         y="369"
         width="237"
         height="169"
         id="rect1-3" />
    </clipPath>
  </defs>
  <g
     id="layer1"
     transform="translate(-73.818804,-129.91015)">
    <g
       clip-path="url(#clip0-2)"
       transform="matrix(0.26458333,0,0,0.26458333,-170.92083,31.75)"
       id="g2">
      <path
         d="m 234.075,95.5298 c -1.948,8.2052 -4.873,16.1142 -8.654,23.6122 -2.138,4.211 -6.21,10.548 -12.244,15.261 -4.998,3.856 -11.12,6.598 -18.46,6.598 H 134.57 105.748 42.2978 c -7.3412,0 -13.4764,-2.742 -18.453,-6.598 C 17.7894,129.69 13.703,123.353 11.5787,119.142 7.7984,111.644 4.87198,103.735 2.92662,95.5298 1.02736,87.4628 2.10503e-4,79.087 2.10503e-4,70.4962 2.10503e-4,61.904 1.02736,53.5297 2.92662,45.4838 4.87198,37.2674 7.7984,29.3486 11.5787,21.8491 13.703,17.6395 17.7894,11.3008 23.8448,6.61216 28.8214,2.74353 34.9566,0.00104943 42.2978,0.00104943 h 63.4502 28.822 60.147 c 7.34,0 13.462,2.74248057 18.46,6.61111057 6.034,4.68864 10.106,11.02734 12.244,15.23694 3.781,7.4995 6.706,15.4183 8.654,23.6347 1.903,8.0459 2.925,16.4202 2.925,25.0124 0,8.5908 -1.022,16.9666 -2.925,25.0336"
         fill="#ffffff"
         fill-rule="evenodd"
         transform="matrix(1,0,0,-1,925,512)"
         id="path1" />
      <path
         d="m 210.309,107.488 c -2.089,4.12 -9.961,17.514 -23.811,17.514 H 126.534 97.7876 34.5102 c -13.8618,0 -21.7161,-13.394 -23.8055,-17.514 C 3.59754,93.4495 0.0014716,78.3233 0.0014716,62.4967 0.0014716,46.6798 3.59754,31.5554 10.7047,17.54 12.7732,13.4297 20.6484,0.00230258 34.5102,0.00230258 h 63.2774 28.7464 59.964 c 13.877,0 21.722,13.42739742 23.811,17.53769742 7.105,14.0154 10.693,29.1398 10.693,44.9567 0,15.8266 -3.588,30.9528 -10.693,44.9913"
         fill="#688071"
         fill-rule="evenodd"
         transform="matrix(-1,0,0,1,1154,379)"
         id="path2" />
      <path
         d="m 16.640625,-28.164062 h 4.570312 q 3.90625,0 6.171875,-0.976563 4.921875,-2.109375 4.921875,-9.140625 0,-6.09375 -4.453125,-7.773437 -1.953125,-0.742188 -6.71875,-0.742188 H 16.640625 Z M 5.9375,0 v -37.773437 q -0.039063,-2.65625 3.1640625,-5.742188 2.3828125,-2.304687 5.3906255,-3.125 V -46.875 H 4.8046875 l -0.46875,-5.9375 H 21.367187 q 6.289063,0 9.023438,0.390625 6.132812,0.820313 9.375,4.296875 3.4375,3.671875 3.4375,9.492188 0,8.828125 -7.304688,12.929687 -5.273437,2.96875 -12.851562,2.96875 h -6.40625 V 0 Z m 72.148437,-5.859375 v -15.195312 q -0.03906,-1.992188 2.148438,-4.6875 3.632812,-4.296875 8.242187,-4.414063 v 27.5 q -8.203125,3.4375 -15.742187,3.4375 -11.5625,0 -18.046875,-7.3046875 -6.367188,-7.1875005 -6.367188,-19.5703125 0,-13.90625 8.125,-21.367187 6.601563,-6.09375 17.421875,-6.09375 8.242188,0 15,2.734375 l -2.070312,6.796875 q -5.390625,-2.96875 -11.757813,-2.96875 -8.007812,0 -11.757812,6.484375 -3.125,5.390625 -3.125,14.765625 0,20.273437 13.671875,20.273437 1.914062,0 4.257812,-0.390625 z"
         id="text2"
         style="font-size:80px;font-family:LTA-Identity, LTA-Identity_MSFontService, sans-serif;fill:#ffffff"
         transform="translate(997.442,469)"
         aria-label="PG" />
    </g>
  </g>
</svg>
