<?xml version="1.0" encoding="UTF-8" standalone="no"?>
<!-- Created with Inkscape (http://www.inkscape.org/) -->

<svg
   width="62.7062mm"
   height="37.570827mm"
   viewBox="0 0 62.7062 37.570827"
   version="1.1"
   id="svg1"
   xmlns="http://www.w3.org/2000/svg"
   xmlns:svg="http://www.w3.org/2000/svg">
  <defs
     id="defs1" />
  <g
     id="layer1"
     transform="translate(-73.818796,-129.64557)">
    <g
       transform="matrix(0.26458333,0,0,0.26458333,-54.768753,57.94375)"
       id="g2">
      <path
         d="m 234.075,96.2073 c -1.948,8.2627 -4.873,16.2287 -8.654,23.7797 -2.138,4.241 -6.21,10.623 -12.244,15.369 -4.998,3.883 -11.12,6.645 -18.46,6.645 H 134.57 105.748 42.2978 c -7.3412,0 -13.4764,-2.762 -18.453,-6.645 C 17.7894,130.61 13.703,124.228 11.5787,119.987 7.7984,112.436 4.87198,104.47 2.92662,96.2073 1.02736,88.0831 2.10503e-4,79.6479 2.10503e-4,70.9962 2.10503e-4,62.343 1.02736,53.9094 2.92662,45.8064 4.87198,37.5317 7.7984,29.5568 11.5787,22.004 13.703,17.7646 17.7894,11.381 23.8448,6.65905 28.8214,2.76299 34.9566,0.00105687 42.2978,0.00105687 h 63.4502 28.822 60.147 c 7.34,0 13.462,2.76193313 18.46,6.65799313 6.034,4.72195 10.106,11.10555 12.244,15.34495 3.781,7.5528 6.706,15.5277 8.654,23.8024 1.903,8.103 2.925,16.5366 2.925,25.1898 0,8.6517 -1.022,17.0869 -2.925,25.2111"
         fill="#ffffff"
         fill-rule="evenodd"
         transform="matrix(1,0,0,-1,486,413)"
         id="path1" />
      <path
         d="m 210.309,108.348 c -2.089,4.153 -9.961,17.654 -23.811,17.654 H 126.534 97.7876 34.5102 c -13.8618,0 -21.7161,-13.501 -23.8055,-17.654 C 3.59754,94.1971 0.0014716,78.9499 0.0014716,62.9966 0.0014716,47.0533 3.59754,31.8078 10.7047,17.6803 12.7732,13.5371 20.6484,0.002321 34.5102,0.002321 h 63.2774 28.7464 59.964 c 13.877,0 21.722,13.534779 23.811,17.677979 7.105,14.1275 10.693,29.373 10.693,45.3163 0,15.9533 -3.588,31.2005 -10.693,45.3514"
         fill="#87cefa"
         fill-rule="evenodd"
         transform="matrix(-1,0,0,1,715,279)"
         id="path2" />
      <path
         d="M 16.484375,0 H 5.9375 v -37.773437 q -0.039063,-2.617188 3.1640625,-5.742188 2.3828125,-2.265625 5.3906255,-3.125 V -46.875 H 4.8046875 l -0.46875,-5.9375 H 20 q 5.546875,0 8.125,0.3125 5.820312,0.703125 9.140625,3.710938 3.945312,3.554687 3.945312,9.414062 0,6.054688 -3.515625,10.117188 -2.070312,2.421875 -4.882812,3.75 -1.328125,0.625 -4.101563,1.445312 L 44.648437,0 H 32.5 L 18.476562,-22.8125 q -0.234375,-0.390625 -0.234375,-0.9375 0,-0.703125 0.390625,-1.09375 0.195313,-0.195312 2.265625,-0.820312 9.6875,-2.96875 9.6875,-12.265625 0,-5.625 -3.398437,-7.578125 -2.1875,-1.289063 -7.5,-1.289063 h -3.203125 z m 44.335937,0 v -37.1875 q 0,-1.523437 1.328125,-3.632812 Q 65,-44.960937 69.375,-46.09375 v -0.234375 H 47.382812 L 46.992187,-52.8125 h 38.398438 v 6.484375 H 71.523437 V 0 Z m 59.257818,-51.289062 -1.91407,6.328125 q -5.11718,-2.382813 -10,-2.382813 -3.28125,0 -5.35156,1.210938 -2.57812,1.484375 -2.57812,4.609375 0,2.148437 1.44531,3.867187 1.44531,1.71875 5.42969,4.375 l 3.35937,2.226563 q 5.23438,3.515625 7.85156,6.484375 4.0625,4.609375 4.0625,10.664062 0,6.71875 -4.41406,10.625 -4.60937,4.0625 -13.00781,4.0625 -6.953128,0 -13.945315,-3.359375 l 2.34375,-6.953125 q 5.507812,3.984375 11.367185,3.984375 4.21875,0 6.36719,-2.265625 1.44531,-1.5625 1.44531,-3.90625 0,-2.460938 -1.64062,-4.414062 -1.64063,-1.953125 -5.85938,-4.6875 l -3.35937,-2.148438 q -4.882815,-3.125 -7.421878,-6.171875 -3.710937,-4.375 -3.710937,-9.960937 0,-8.046875 6.445312,-11.71875 4.414063,-2.539063 10.937503,-2.539063 6.83594,0 12.14844,2.070313 z M 130.39062,0 v -44.257812 q -0.0391,-1.875 2.07032,-4.492188 3.82812,-4.492187 8.63281,-4.609375 V -6.5625 H 160.3125 V 0 Z"
         id="text2"
         style="font-size:80px;font-family:LTA-Identity, LTA-Identity_MSFontService, sans-serif"
         transform="translate(524.091,369)"
         aria-label="RTSL" />
    </g>
  </g>
</svg>
