<svg width="565" height="564" xmlns="http://www.w3.org/2000/svg" xmlns:xlink="http://www.w3.org/1999/xlink" xml:space="preserve" overflow="hidden"><g transform="translate(-3733 -273)"><path d="M-30.9524-20.8067 533.053-20.8067 533.053 542.199-30.9524 542.199Z" fill="#084250" fill-rule="evenodd" transform="matrix(1 0 0 -1 3764 816)"/><path d="M-16.8874-6.72006 518.927-6.72006 518.927 528.139-16.8874 528.139ZM-30.9515-20.8061 533.049-20.8061 533.049 542.194-30.9515 542.194Z" fill="#FFFFFF" fill-rule="evenodd" transform="matrix(1 0 0 -1 3764 816)"/><path d="M-30.9048-20.8116 504.1-20.8116 504.1 514.188-30.9048 514.188Z" fill="#0D68A7" fill-rule="evenodd" transform="matrix(1 0 0 -1 3778 802)"/><path d="M-30.9048-20.8116 504.1-20.8116 504.1 514.189-30.9048 514.189Z" stroke="#FFFFFF" stroke-width="0.63481" stroke-miterlimit="8" fill="none" fill-rule="evenodd" transform="matrix(1 0 0 -1 3778.5 802.5)"/><path d="M257.412 19.7655 213.491 165.846 90.0544 165.846 67.6712 394.695 68.855 402.427C77.1001 432.323 115.88 440.728 137.074 418.945L139.029 416.864 140.73 414.654C158.951 388.454 139.796 355.758 108.829 354.695L105.981 354.778 103.05 354.909 112.777 258.469 217.991 258.469 217.991 228.02 115.713 228.02 118.555 196.805 236.854 196.805 279.076 58.5823 332.338 74.2497 342.069 44.9065ZM238.591 36.7521 235.957 33.5664C65.7155-138.927-163.108 144.151 64.7403 255.45L68.855 256.894 72.8081 219.866 66.1797 216.68C-102.279 103.635 128.495-84.0204 221.731 78.7545L224.276 84.5678 238.591 36.7521" fill="#FFFFFF" fill-rule="evenodd" transform="matrix(1 0 0 -1 3860 761)"/></g></svg>