<svg width="168" height="168" xmlns="http://www.w3.org/2000/svg" xmlns:xlink="http://www.w3.org/1999/xlink" xml:space="preserve" overflow="hidden"><g transform="translate(-3165 -1679)"><path d="M54.74 18.043 58.452 24.2904 55.9259 26.8504 52.0272 20.2898 38.4604 42.2155 40.7625 42.2155 35.0922 47.9612 26.9276 34.6334C24.4624 35.6314 21.7321 36.1863 18.868 36.1863 13.3433 36.1863 8.3373 34.1255 4.71547 30.7948 1.08791 27.4616-1.15588 22.8556-1.15588 17.7773-1.15588 12.6989 1.08791 8.09256 4.71547 4.75933 8.3373 1.42863 13.3433-0.632209 18.868-0.632209 24.3894-0.632209 29.3957 1.42863 33.0204 4.75933 36.6451 8.09256 38.8918 12.6989 38.8918 17.7773 38.8918 22.8556 36.6451 27.4616 33.0204 30.7948 32.1053 31.6336 31.1061 32.3895 30.0336 33.0568L35.0106 41.182 50.8441 15.5921C51.1704 15.0606 51.7707 14.7627 52.3885 14.7627L52.3885 14.7569 62.0652 14.7569C62.7618 10.8857 64.7752 7.41939 67.6686 4.75933 71.2905 1.42863 76.2964-0.632209 81.8208-0.632209 82.22-0.632209 82.6193-0.620246 83.0156-0.599584L79.6793 2.78114C75.9845 3.21796 72.6746 4.78289 70.1743 7.08299 67.9337 9.14093 66.34 11.7923 65.6842 14.7569L67.8607 14.7569 62.0391 20.6559C61.8935 19.8026 61.8116 18.9286 61.7973 18.043ZM59.2419 25.6222 67.0859 38.8232 70.5793 33.0123C69.5332 32.3568 68.5602 31.613 67.6686 30.7948 65.1773 28.5067 63.3417 25.6193 62.4323 22.3919L65.4452 19.3389C65.8416 22.894 67.5724 26.0826 70.1743 28.4744 70.8329 29.0794 71.547 29.6315 72.3104 30.1307L79.5773 18.043 66.7217 18.043 69.9647 14.7569 82.5931 14.7569C83.578 14.7569 84.3765 15.4949 84.3765 16.4012 84.3765 16.7351 84.2656 17.0479 84.0792 17.3078L75.4164 31.7192C75.5884 31.7841 75.7602 31.8461 75.9323 31.9081L62.5167 45.5016 39.6259 45.5016 42.866 42.2155 65.0549 42.2155 56.7183 28.1819ZM77.5611 32.3924C78.9187 32.7259 80.3465 32.9031 81.8208 32.9031 86.3724 32.9031 90.4893 31.2084 93.4676 28.4712 96.4423 25.7371 98.2811 21.958 98.2811 17.7773 98.2811 15.9024 97.9112 14.1102 97.235 12.4535L99.8634 9.79344C101.131 12.2084 101.845 14.9189 101.845 17.7773 101.845 22.8556 99.598 27.4616 95.9733 30.7948 92.3486 34.1255 87.3426 36.1863 81.8208 36.1863 79.3967 36.1863 77.0742 35.7909 74.9241 35.0644ZM96.5532 11.0129C95.7547 9.55419 94.7086 8.2256 93.4676 7.08299 90.5101 4.36347 86.4278 2.67456 81.9113 2.65426L84.9328-0.410718C89.2104 0.206265 93.0419 2.06664 95.9733 4.75933 97.171 5.86062 98.217 7.10075 99.0824 8.45ZM71.0397 39.0001 69.1021 42.2213 72.8667 48.5518 79.9676 48.5518C80.9497 48.5518 81.7481 49.2898 81.7481 50.1964 81.7481 51.1027 80.9497 51.8379 79.9676 51.8379L67.1646 51.8379C66.1797 51.8379 65.3812 51.1027 65.3812 50.1964 65.3812 49.2898 66.1797 48.5518 67.1646 48.5518L68.8195 48.5518 67.0072 45.5016 64.6235 45.5016ZM38.411 46.7331 42.9129 54.0847 52.1699 54.0847C52.7001 54.0847 53.1752 54.2975 53.5015 54.6368L50.8062 57.3679 41.884 57.3679C41.1556 57.3679 40.5321 56.9695 40.2555 56.3909L35.8992 49.2782ZM53.6968 56.574C53.5745 56.76 53.4171 56.9191 53.2278 57.0492ZM30.5144 28.4712C33.4866 25.7371 35.3279 21.958 35.3279 17.7773 35.3279 13.5994 33.4866 9.817 30.5144 7.08299 27.5365 4.34607 23.4192 2.65426 18.868 2.65426 14.3167 2.65426 10.1965 4.34607 7.21863 7.08299 4.24646 9.817 2.40478 13.5994 2.40478 17.7773 2.40478 21.958 4.24646 25.7371 7.21863 28.4712 10.1965 31.2084 14.3167 32.9031 18.868 32.9031 21.0971 32.9031 23.2271 32.4928 25.1675 31.7576L16.808 18.1079C16.3272 17.3194 16.6302 16.3214 17.4838 15.8817 18.3378 15.4387 19.4185 15.7164 19.8993 16.5045L28.2796 30.1927C29.0781 29.679 29.8268 29.103 30.5144 28.4712" fill="#241F1F" fill-rule="evenodd" transform="matrix(1 0 0 -1 3199 1809)"/><path d="M6.60452-0.576262C3.19742-1.30455-0.270259 0.857061-1.02047 4.43196-1.76784 8.00686 0.531663 11.404 3.9416 12.1323 7.48153 12.8899 10.9464 10.7251 11.6966 7.15016 12.4464 3.57848 10.1445 0.181356 6.60452-0.576262" fill="#241F1F" fill-rule="evenodd" transform="matrix(1 0 0 -1 3260 1717)"/><path d="M4.99306 2.81775C5.7165 0.315582 8.22582-1.17056 10.6076-0.473373 12.9893 0.223809 14.3613 2.84749 13.6552 5.35583L9.4382 20.3438 0.611518 29.3549C-1.05852 28.1467-1.481 25.8774-0.934155 23.7118 0.782075 16.8931 3.14074 9.22915 4.99306 2.81775Z" stroke="#FFFFFF" stroke-width="4.15171" stroke-miterlimit="8" fill="none" fill-rule="evenodd" transform="matrix(1 0 0 -1 3254 1786)"/><path d="M17.4945-0.68352 33.0921 6.24019C36.0922 7.57291 36.1008 11.3453 35.5178 14.0967L30.7957 36.4007C29.9362 40.4523 25.7671 43.0357 21.5309 42.1383 17.583 41.3027 14.9126 37.7334 15.26 33.973L10.0991 29.0413C9.88728 28.8382 9.69896 28.6208 9.53703 28.3881L-0.581583 18.6664C-0.805325 18.4514-1.00557 18.222-1.18232 17.9836L4.64978 12.1545C4.84713 12.2987 5.03834 12.4605 5.22088 12.6343L15.6164 22.6208C15.7342 22.7122 15.8459 22.809 15.9579 22.9153L17.2827 24.1833 20.1089 10.8362C20.1324 10.7333 20.1559 10.6332 20.1826 10.5303L10.5527 6.25464Z" stroke="#FFFFFF" stroke-width="4.15171" stroke-miterlimit="8" fill="none" fill-rule="evenodd" transform="matrix(1 0 0 -1 3245 1762)"/><path d="M-1.01792 4.37435C-1.57449 2.98923-1.29641 1.48439-0.114531 0.459804 1.10271-0.599993 2.97498-0.875674 4.7066-0.403125Z" stroke="#FFFFFF" stroke-width="4.15171" stroke-miterlimit="8" fill="none" fill-rule="evenodd" transform="matrix(1 0 0 -1 3244 1750)"/><path d="M14.5845 2.79615C15.3212 0.290872 17.8752-1.1969 20.2997-0.498949 22.7245 0.198998 24.1207 2.82556 23.402 5.33665L19.1097 20.3411 10.1243 29.3621C8.42435 28.1525 7.99429 25.8811 8.5513 23.7128 10.2983 16.8865 12.6993 9.21421 14.5845 2.79615ZM18.4821 23.1067 34.0902 30.0662C37.0919 31.4058 37.101 35.1977 36.5176 37.9633L31.7923 60.3826C30.9318 64.4552 26.7603 67.0523 22.5212 66.1499 18.5707 65.31 15.8985 61.7193 16.2461 57.9423L11.0818 52.9855C10.8698 52.7811 10.681 52.5625 10.5189 52.3286L0.393529 42.5566C0.169637 42.3406-0.0303828 42.11-0.20436 41.8703L5.62877 36.0111C5.82626 36.156 6.0176 36.3158 6.20315 36.4933L16.6027 46.5315C16.7203 46.6234 16.8353 46.7211 16.9445 46.8275L18.2702 48.1021 21.1012 34.686C21.1218 34.5825 21.1453 34.4819 21.1717 34.3784L11.5353 30.0807ZM-0.934994 40.4624C-1.43595 38.963-1.1824 37.3333-0.121893 36.2239 0.974057 35.0793 2.65922 34.7779 4.21742 35.2896L-0.934994 40.4624" fill="#241F1F" fill-rule="evenodd" transform="matrix(1 0 0 -1 3244 1786)"/><path d="M82.3315 166.346C105.385 166.346 126.261 156.996 141.373 141.885 156.485 126.776 165.832 105.9 165.832 82.8472 165.832 59.7913 156.485 38.9151 141.373 23.8067 126.261 8.69217 105.385-0.654246 82.3315-0.654246 59.2781-0.654246 38.3986 8.69217 23.29 23.8067 8.17803 38.9151-1.16855 59.7942-1.16855 82.8472-1.16855 105.897 8.17803 126.776 23.29 141.885 38.3986 156.996 59.2781 166.346 82.3315 166.346ZM40.9997 135.749 42.4724 134.276C72.9021 103.847 103.332 73.418 133.761 42.9889L135.234 41.5162 135.237 41.522C135.249 41.5339 135.26 41.5484 135.27 41.5632L135.275 41.569C135.358 41.6753 135.481 41.8312 135.614 42.0081L135.626 42.02C135.638 42.0406 135.655 42.058 135.667 42.0757L135.685 42.0996C135.794 42.241 135.906 42.3882 135.994 42.5061L136.003 42.5176C136.032 42.556 136.059 42.5943 136.088 42.6327L136.156 42.7209C144.516 53.9147 149.468 67.8036 149.468 82.8472 149.468 101.382 141.95 118.166 129.799 130.314 117.651 142.465 100.866 149.98 82.3315 149.98 67.2876 149.98 53.4013 145.028 42.2073 136.671L42.1336 136.615C42.0894 136.583 42.0453 136.55 42.0012 136.515L41.9925 136.509C41.8598 136.409 41.7126 136.297 41.5947 136.209L41.5741 136.191C41.5506 136.173 41.5238 136.155 41.5032 136.138L41.4916 136.129C41.3325 136.008 41.1618 135.875 41.0525 135.787L41.0439 135.784C41.0319 135.772 41.0175 135.764 41.0055 135.752ZM123.66 29.9427 29.4285 124.175C20.512 112.781 15.1947 98.433 15.1947 82.8472 15.1947 64.3099 22.7124 47.5252 34.8608 35.3774 47.0088 23.2263 63.7938 15.7088 82.3315 15.7088 97.9172 15.7088 112.266 21.0288 123.66 29.9427" fill="#EF3928" fill-rule="evenodd" transform="matrix(1 0 0 -1 3167 1846)"/></g></svg>