<svg width="168" height="168" xmlns="http://www.w3.org/2000/svg" xmlns:xlink="http://www.w3.org/1999/xlink" xml:space="preserve" overflow="hidden"><g transform="translate(-3124 -1431)"><path d="M5.38162 11.1157C3.90334 10.3967 2.37816 10.2994 1.16148 11.001L1.15534 11.0039 1.15246 11.0068C-0.0613392 11.7051-0.745813 13.0757-0.869213 14.714-0.992974 16.3495-0.557826 18.2563 0.461848 20.0365L0.470869 20.0542 17.6336 50.0048C18.8618 52.1472 19.9053 53.6415 20.79 54.5493 21.6831 55.4687 22.4238 55.79 23.0293 55.5805 23.4406 55.4391 24.9131 54.1014 26.2619 52.725 27.5081 51.4608 28.6541 50.1549 28.7775 49.7247 28.9626 49.0854 28.1136 47.6649 27.2025 46.1474 26.9673 45.7551 26.7262 45.3546 26.4704 44.9095L9.30769 14.9615 9.3048 14.9586C8.27935 13.1727 6.85376 11.8317 5.38162 11.1157ZM18.5418-0.654906C16.7813-0.654906 15.3265 0.801084 15.3265 2.56933 15.3265 4.33758 16.7813 5.79357 18.5418 5.79357 20.3051 5.79357 21.7596 4.33758 21.7596 2.56933 21.7596 0.801084 20.3051-0.654906 18.5418-0.654906ZM9.18754 11.2514 64.7782 11.2514 65.09 11.7905 65.8275 13.3054 68.1962 12.0883 65.3689 6.71876 9.18754 6.71876ZM55.7354-0.654906C53.972-0.654906 52.5205 0.801084 52.5205 2.56933 52.5205 4.33758 53.972 5.79357 55.7354 5.79357 57.4987 5.79357 58.9506 4.33758 58.9506 2.56933 58.9506 0.801084 57.4987-0.654906 55.7354-0.654906ZM52.2235 98.516C52.882 98.1505 53.4961 97.7294 54.0547 97.2666 54.6276 96.7919 55.1476 96.2734 55.6062 95.7223 55.8238 95.634 56.041 95.5247 56.2499 95.401 56.4556 95.2801 56.6583 95.1387 56.8492 94.9856L67.1499 86.6336 79.1608 92.7781 79.1698 92.781C80.3512 93.3853 81.6678 93.462 82.8314 93.0994 83.9983 92.7369 85.018 91.9322 85.6058 90.7772L85.6087 90.7711 85.6115 90.7682C86.1964 89.61 86.2495 88.3074 85.8616 87.1463 85.4705 85.9852 84.6391 84.9598 83.4575 84.3555L83.4517 84.3555 69.1661 77.0379C68.9016 76.9026 68.6281 76.7962 68.3579 76.7137 68.0757 76.6283 67.7907 76.5694 67.5056 76.5372 66.8002 76.378 66.0566 76.3838 65.3396 76.5516 64.649 76.7137 63.9819 77.0322 63.3912 77.5094L56.4115 83.1738 47.3568 66.7675 31.0582 83.1119 34.7667 89.8281 28.5101 89.386 26.7526 87.4292 20.0727 94.1281 22.7854 97.1486C23.3085 97.7351 23.9461 98.1653 24.631 98.4364 25.3421 98.7164 26.1063 98.8224 26.8496 98.7548L26.9319 98.7606 42.9367 99.8923C43.172 99.9101 43.404 99.9072 43.6306 99.8923 43.8626 99.8746 44.0888 99.842 44.3122 99.795 45.6082 100.057 46.9779 100.087 48.3414 99.8659 49.6581 99.6535 50.9776 99.2085 52.2235 98.516ZM46.5987 65.3973 42.2992 57.6082C42.0668 57.1867 41.8027 56.7858 41.5115 56.4145 41.2265 56.0462 40.918 55.7043 40.5856 55.3891L50.9805 45.0242C51.2919 44.7149 51.5564 44.373 51.7739 44.0166 52.0002 43.6453 52.1766 43.2531 52.3058 42.8526 52.7348 42.0479 52.9437 41.1256 52.9112 40.1942 52.8791 39.2983 52.6204 38.3905 52.1149 37.5685L51.7887 37.0409 22.2034 66.7085C22.3827 67.2744 22.6208 67.8287 22.9174 68.365L30.3027 81.7417ZM25.7477 86.3065 19.0736 78.8623 19.0678 78.8594 19.0678 78.8565C18.1831 77.8719 16.9812 77.327 15.7645 77.2503 14.545 77.1707 13.3045 77.5568 12.3407 78.423L12.3378 78.423 12.335 78.4292 12.3321 78.4292C11.3709 79.2983 10.8567 80.4919 10.8065 81.7178 10.7567 82.9408 11.1681 84.1963 12.0557 85.1866L12.0586 85.1924 19.0678 93.005ZM50.9776 35.7235 39.4278 16.9863 39.4249 16.9834C38.6668 15.7543 37.4884 14.9322 36.2039 14.608 34.9197 14.2838 33.5208 14.4488 32.3308 15.1884L32.3276 15.1884 32.3247 15.1884C31.1347 15.9283 30.3644 17.1072 30.0793 18.4068 29.7943 19.7033 29.9971 21.1296 30.7555 22.3616L41.5995 39.9583 26.8496 54.6669C24.5014 56.2438 22.8763 58.5338 22.168 61.0032 21.7949 62.2939 21.6744 63.6377 21.8274 64.9551ZM53.1818 99.5504C51.0451 100.738 49.5553 102.704 48.9173 104.929 48.2942 107.11 48.4883 109.544 49.6902 111.728L49.6963 111.733C50.9101 113.932 52.8878 115.397 55.0859 116.013 57.2872 116.629 59.7116 116.402 61.8278 115.229L61.8307 115.226 61.8336 115.226C64.0407 114 65.5659 112.019 66.2301 109.797 66.8825 107.599 66.6916 105.153 65.4836 102.96 64.2759 100.771 62.3095 99.3116 60.1027 98.6987 57.8721 98.0828 55.3886 98.3274 53.1818 99.5504" fill="#241F1F" fill-rule="evenodd" transform="matrix(1 0 0 -1 3165 1573)"/><path d="M82.6082 166.346C105.662 166.346 126.538 156.996 141.65 141.885 156.762 126.776 166.108 105.9 166.108 82.8472 166.108 59.7913 156.762 38.9151 141.65 23.8067 126.538 8.69217 105.662-0.654246 82.6082-0.654246 59.5547-0.654246 38.6753 8.69217 23.5666 23.8067 8.45507 38.9151-0.891873 59.7942-0.891873 82.8472-0.891873 105.897 8.45507 126.776 23.5666 141.885 38.6753 156.996 59.5547 166.346 82.6082 166.346ZM41.2764 135.749 42.7495 134.276C73.1788 103.847 103.608 73.418 134.038 42.9889L135.511 41.5162 135.514 41.522C135.526 41.5339 135.538 41.5484 135.546 41.5632L135.552 41.569C135.634 41.6753 135.758 41.8312 135.891 42.0081L135.903 42.02C135.914 42.0406 135.932 42.058 135.944 42.0757L135.961 42.0996C136.071 42.241 136.182 42.3882 136.271 42.5061L136.28 42.5176C136.309 42.556 136.336 42.5943 136.365 42.6327L136.433 42.7209C144.793 53.9147 149.745 67.8036 149.745 82.8472 149.745 101.382 142.227 118.166 130.076 130.314 117.928 142.465 101.143 149.98 82.6082 149.98 67.5642 149.98 53.678 145.028 42.484 136.671L42.4106 136.615C42.3665 136.583 42.3224 136.55 42.2779 136.515L42.2692 136.509C42.1365 136.409 41.9893 136.297 41.8714 136.209L41.8507 136.191C41.8272 136.173 41.8008 136.155 41.7802 136.138L41.7683 136.129C41.6091 136.008 41.4384 135.875 41.3296 135.787L41.3205 135.784C41.309 135.772 41.2941 135.764 41.2822 135.752ZM123.937 29.9427 29.7056 124.175C20.7887 112.781 15.4718 98.433 15.4718 82.8472 15.4718 64.3099 22.9894 47.5252 35.1375 35.3774 47.2859 23.2263 64.0705 15.7088 82.6082 15.7088 98.1942 15.7088 112.543 21.0288 123.937 29.9427" fill="#EF3928" fill-rule="evenodd" transform="matrix(1 0 0 -1 3125 1598)"/></g></svg>