<svg width="379" height="379" xmlns="http://www.w3.org/2000/svg" xmlns:xlink="http://www.w3.org/1999/xlink" xml:space="preserve" overflow="hidden"><g transform="translate(-2150 -1082)"><path d="M-1.97233-8.45889 357.03-8.45889 357.03 350.541-1.97233 350.541Z" fill="#090C0D" fill-rule="evenodd" transform="matrix(1 0 0 -1 2162 1443)"/><path d="M-1.97289-8.46131 376.029-8.46131 376.029 369.54-1.97289 369.54Z" fill="#FFFFFF" fill-rule="evenodd" transform="matrix(1 0 0 -1 2152 1452)"/><path d="M-1.97233-8.45889 357.03-8.45889 357.03 350.541-1.97233 350.541Z" fill="#084D55" fill-rule="evenodd" transform="matrix(1 0 0 -1 2162 1443)"/><path d="M-1.97233-8.45889 357.03-8.45889 357.03 350.541-1.97233 350.541Z" fill="#090C0D" fill-rule="evenodd" transform="matrix(1 0 0 -1 2162 1443)"/><path d="M-1.97233-8.45889 357.03-8.45889 357.03 350.541-1.97233 350.541Z" fill="#084250" fill-rule="evenodd" transform="matrix(1 0 0 -1 2162 1443)"/><path d="M-1.86005-8.38167 97.1399-8.38167 97.1399 90.62-1.86005 90.62Z" fill="#084250" fill-rule="evenodd" transform="matrix(1 0 0 -1 2190 1373)"/><path d="M73.1553 2.68252 62.1543-8.32231 12.5287 41.3091 12.5287-3.29055-1.84623 11.091-1.84623 66.6793 53.7618 66.6793 68.1383 52.2993 23.5281 52.3123 73.1553 2.68252" fill="#FFFFFF" fill-rule="evenodd" transform="matrix(1 0 0 -1 2202 1361)"/><path d="M265.538 60.5823 236.719 60.5692C230.833 60.5692 225.506 62.9808 221.644 66.8321L190.828 97.695 190.828 146.746C190.828 158.766 181.093 168.521 169.08 168.521 157.08 168.521 147.345 158.766 147.345 146.746L147.345 141.27 102.678 186.03C98.0309 190.655 91.6377 193.546 84.5807 193.546L31.2839 193.546C14.3576 193.88-1.97026 186.67-1.97026 158.819-1.97026 131.555 11.7071 124.479 30.1655 124.479 38.555 124.479 50.4339 124.479 55.4552 124.412 62.6054 124.319 68.8121 122.187 73.3396 117.67L191.626-0.862212C196.274-5.48576 202.666-8.37671 209.724-8.37671L265.085-8.44379C275.912-8.44379 300.031-6.0862 300.031 25.9498 300.031 47.3906 288.738 60.5823 265.538 60.5823ZM264.753 5.77371 213.76 5.8277C207.941 5.7868 202.6 8.2131 198.738 12.0513L79.8652 131.169C75.2183 135.793 68.8252 138.684 61.7666 138.684L31.2839 138.698C18.7919 138.698 12.3464 145.28 12.3464 158.819 12.3464 174.025 20.8161 179.394 31.2839 179.394L80.4914 179.381C86.3646 179.381 91.6917 176.956 95.5668 173.118L214.532 53.9071C219.167 49.2819 225.558 46.404 232.617 46.404L266.764 46.4302C277.604 46.4302 285.728 42.3269 285.728 25.9498 285.728 9.14567 275.58 5.77371 264.753 5.77371" fill="#FFFFFF" fill-rule="evenodd" transform="matrix(1 0 0 -1 2190 1373)"/><path d="M17.4756-8.4788C28.247-8.4788 36.9765 0.0161717 36.9765 10.5148 36.9765 21.0118 28.247 29.5214 17.4756 29.5214 6.71741 29.5214-2.02536 21.0118-2.02536 10.5148-2.02536 0.0161717 6.71741-8.4788 17.4756-8.4788" fill="#FFFFFF" fill-rule="evenodd" transform="matrix(1 0 0 -1 2342 1192)"/></g></svg>