<svg width="370" height="371" xmlns="http://www.w3.org/2000/svg" xmlns:xlink="http://www.w3.org/1999/xlink" xml:space="preserve" overflow="hidden"><defs><clipPath id="clip0"><rect x="1623" y="1475" width="370" height="371"/></clipPath></defs><g clip-path="url(#clip0)" transform="translate(-1623 -1475)"><path d="M0.00070448 0.00147941 370.001 0.00147941 370.001 370.002 0.00070448 370.002Z" fill="#F5762F" fill-rule="evenodd" transform="matrix(1 0 0 -1 1623 1846)"/><g><g><g><path d="M285.241 89.5354C285.241 86.3797 282.65 83.8 279.506 83.8L234.317 83.8042C231.164 83.8042 229.475 86.2294 230.575 89.1869L237.35 107.482C238.45 110.44 241.926 112.865 245.079 112.865L279.506 112.865C282.655 112.865 285.241 110.28 285.241 107.121ZM203.319 107.499 192.96 79.5221C191.866 76.5596 188.385 74.1388 185.232 74.1388L119.249 74.1388C116.091 74.1388 112.616 76.5596 111.52 79.5221L101.161 107.499C100.061 110.461 101.75 112.882 104.904 112.882L199.573 112.882C202.726 112.882 204.415 110.457 203.315 107.499ZM70.1425 83.8042 24.9622 83.8C21.8084 83.7957 19.2263 86.3797 19.2263 89.5354L19.2263 107.121C19.2263 110.28 21.8042 112.865 24.9622 112.865L59.3797 112.865C62.5335 112.865 66.009 110.44 67.1088 107.482L73.8844 89.1869C74.9795 86.2294 73.2958 83.8042 70.1425 83.8042ZM49.3611 160.602 69.9916 212.033C72.6897 218.766 80.8314 224.269 88.0791 224.269L216.398 224.269C223.645 224.269 231.786 218.766 234.485 212.033L255.116 160.602C257.1 155.658 254.381 151.267 249.076 150.847 249.076 150.847 198.143 146.783 152.254 146.783L152.24 146.801 152.236 146.801 152.227 146.783C106.334 146.783 55.4014 150.847 55.4014 150.847 50.0954 151.267 47.3762 155.658 49.3611 160.602ZM307.109 104.278C307.088 109.012 304.583 115.81 301.494 119.4L283.669 140.226C280.58 143.821 276.568 150.335 274.72 154.698L246.855 220.924C242.721 230.744 230.631 238.781 219.98 238.781L193.008 238.801 185.489 250.865C182.985 254.886 177.065 258.171 172.335 258.171L132.121 258.171C127.386 258.171 121.47 254.886 118.966 250.865L111.443 238.801 84.4749 238.781C73.8244 238.781 61.7302 230.744 57.6009 220.924L29.7313 154.698C27.8967 150.335 23.8751 143.821 20.7945 140.226L2.95603 119.4C-0.123959 115.806-2.64639 108.991-2.64639 104.253L-2.64164 49.9072 2.19592 40.2374 2.19592 2.37175C2.19592-0.783898 4.77376-3.36839 7.93128-3.36839L44.8538-3.36839C48.0118-3.36839 50.5897-0.783898 50.5897 2.37175L50.5897 35.3916 253.865 35.3916 253.865 2.37175C253.865-0.783898 256.443-3.36839 259.597-3.36839L296.528-3.36839C299.672-3.36839 302.264-0.783898 302.264 2.37175L302.264 40.2374 307.088 49.9072 307.109 104.278" fill="#FFFFFF" fill-rule="evenodd" transform="matrix(1.00252 0 0 -1 1654.93 1788.62)"/></g></g></g></g></svg>