<svg width="399" height="200" xmlns="http://www.w3.org/2000/svg" xmlns:xlink="http://www.w3.org/1999/xlink" xml:space="preserve" overflow="hidden"><g transform="translate(-3866 -1516)"><path d="M-1.62846 58.4701C-4.32096 69.8328-5.75127 81.6625-5.75127 93.7984-5.75127 105.926-4.32096 117.756-1.62846 129.126 1.11757 140.704 5.24883 151.875 10.5878 162.45 13.578 168.38 19.3377 177.341 27.867 183.967 34.8889 189.422 43.5477 193.295 53.897 193.295L332.601 193.295C342.951 193.295 351.611 189.422 358.64 183.967 367.168 177.341 372.928 168.38 375.912 162.45 381.251 151.875 385.381 140.704 388.127 129.119 390.827 117.756 392.25 105.926 392.25 93.7984 392.25 81.6625 390.827 69.8403 388.127 58.4701 385.381 46.8931 381.251 35.7135 375.912 25.1381 372.928 19.2157 367.168 10.2551 358.64 3.62913 351.611-1.82631 342.951-5.70628 332.601-5.70628L53.897-5.70628C43.5477-5.70628 34.8889-1.82631 27.867 3.62913 19.3377 10.2486 13.578 19.2157 10.5878 25.1381 5.24883 35.7135 1.11757 46.8847-1.62846 58.4701" fill="#FFFFFF" fill-rule="evenodd" transform="matrix(1 0 0 -1 3872 1710)"/><path d="M-5.74704 73.8041C-5.74704 52.3563-0.648466 32.0986 8.40941 14.1788 11.9483 7.17522 20.7687-5.69628 34.0224-5.69628L312.477-5.69628C325.738-5.69628 334.559 7.17522 338.098 14.1788 347.156 32.0986 352.254 52.3563 352.254 73.8041 352.254 95.2528 347.156 115.51 338.098 133.43 334.559 140.434 325.738 153.304 312.477 153.304L34.0224 153.304C20.7687 153.304 11.9483 140.434 8.40941 133.43-0.648466 115.51-5.74704 95.2528-5.74704 73.8041" fill="#136FB8" fill-rule="evenodd" transform="matrix(1 0 0 -1 3892 1690)"/></g></svg>