<svg width="168" height="168" xmlns="http://www.w3.org/2000/svg" xmlns:xlink="http://www.w3.org/1999/xlink" xml:space="preserve" overflow="hidden"><g transform="translate(-3067 -705)"><path d="M51.0163-1.39724C51.7618-1.39724 52.4129-0.731533 52.4129 0.0306963L52.4129 5.17547C52.4129 5.93474 51.7618 6.6034 51.0163 6.6034L0.809146 6.6034C0.063661 6.6034-0.587417 5.93474-0.587417 5.17547L-0.587417 0.0306963C-0.587417-0.731533 0.063661-1.39724 0.809146-1.39724L51.0163-1.39724" fill="#241F1F" fill-rule="evenodd" transform="matrix(1 0 0 -1 3100 819)"/><path d="M39.3974-1.36719C43.7779-1.36719 47.4127 2.20871 47.4127 6.63307L-0.587773 6.63307C-0.587773 2.20871 2.95551-1.36719 7.3363-1.36719L39.3974-1.36719" fill="#241F1F" fill-rule="evenodd" transform="matrix(1 0 0 -1 3102 829)"/><path d="M23.3669 10.5279C11.9024 10.5279-0.587773 8.54594-0.587773-1.47175L47.4127-1.47175C47.4127 8.54594 34.831 10.5279 23.3669 10.5279" fill="#241F1F" fill-rule="evenodd" transform="matrix(1 0 0 -1 3102 809)"/><path d="M7.79383 92.8245 12.6717 75.2586 1.41517 75.2586-0.646936 69.871 2.26063 69.871 4.34642 52.2463 45.6101 11.3654 52.538 69.871 55.3535 69.871 53.3835 75.2586 19.706 75.2586 14.5495 94.591ZM4.63127 49.8417 7.73154 23.6753 33.0513-1.40926 44.0969-1.40926 45.3846 9.46643ZM8.0164 21.271 10.7014-1.40926 30.9061-1.40926 8.0164 21.271" fill="#241F1F" fill-rule="evenodd" transform="matrix(1 0 0 -1 3148 829)"/><path d="M82.8845 165.597C105.938 165.597 126.814 156.25 141.926 141.139 157.038 126.027 166.385 105.151 166.385 82.0982 166.385 59.0423 157.038 38.1661 141.926 23.0577 126.814 7.94643 105.938-1.40325 82.8845-1.40325 59.8311-1.40325 38.9516 7.94643 23.8429 23.0577 8.73138 38.1661-0.615558 59.0452-0.615558 82.0982-0.615558 105.148 8.73138 126.027 23.8429 141.139 38.9516 156.25 59.8311 165.597 82.8845 165.597ZM41.5527 135 43.0258 133.527C73.4554 103.098 103.885 72.669 134.314 42.2402L135.787 40.7672 135.79 40.773C135.802 40.7849 135.811 40.8026 135.823 40.8142L135.829 40.8204C135.911 40.9263 136.035 41.0826 136.167 41.2591L136.179 41.271C136.191 41.2916 136.208 41.3093 136.22 41.3299L136.238 41.3506C136.347 41.492 136.459 41.6392 136.547 41.76L136.556 41.7686C136.586 41.807 136.615 41.8453 136.641 41.8837L136.709 41.9719C145.069 53.1686 150.021 67.0546 150.021 82.0982 150.021 100.633 142.504 117.417 130.352 129.565 118.204 141.716 101.419 149.233 82.8845 149.233 67.8405 149.233 53.9543 144.279 42.7607 135.922L42.6869 135.866C42.6428 135.834 42.5987 135.801 42.5545 135.769L42.5455 135.76C42.4131 135.66 42.2656 135.551 42.148 135.46L42.1274 135.445C42.1035 135.424 42.08 135.406 42.0565 135.389L42.045 135.38C41.8858 135.259 41.7148 135.124 41.6059 135.041L41.5969 135.035C41.5853 135.026 41.5733 135.012 41.5589 135.003ZM124.213 29.1966 29.9819 123.426C21.0653 112.032 15.7481 97.684 15.7481 82.0982 15.7481 63.5609 23.2657 46.7795 35.4138 34.6284 47.5622 22.4773 64.3468 14.963 82.8845 14.963 98.4706 14.963 112.819 20.2798 124.213 29.1966" fill="#EF3928" fill-rule="evenodd" transform="matrix(1 0 0 -1 3068 871)"/></g></svg>