<svg width="756" height="319" xmlns="http://www.w3.org/2000/svg" xmlns:xlink="http://www.w3.org/1999/xlink" xml:space="preserve" overflow="hidden"><g transform="translate(-1561 -1921)"><path d="M-7.1844-6.18615 747.818-6.18615 747.818 311.816-7.1844 311.816Z" fill="#FFFFFF" fill-rule="evenodd" transform="matrix(1 0 0 -1 1569 2233)"/><path d="M-7.18344-6.16832 731.819-6.16832 731.819 294.834-7.18344 294.834Z" fill="#00A3C9" fill-rule="evenodd" transform="matrix(1 0 0 -1 1577 2225)"/><path d="M210.911 100.536C210.911 93.0783 203.024 80.6937 119.629 80.6937 36.2319 80.6937 28.3288 93.0783 28.3288 100.536L28.3288 200.199C28.3288 204.569 31.9161 208.14 36.2684 208.14L202.969 208.14C207.34 208.14 210.911 204.569 210.911 200.199ZM202.188 57.4293 199.788 45.3781C199.361 43.2387 197.221 41.4897 195.045 41.4897L163.28 41.4897C161.085 41.4897 159.3 43.2752 159.3 45.4512L159.3 57.354C159.3 59.5482 161.085 61.3155 163.28 61.3155L199.007 61.3155C201.183 61.3155 202.633 59.5665 202.188 57.4293ZM79.9399 45.4512C79.9399 43.2752 78.1542 41.4897 75.9598 41.4897L44.2104 41.4897C42.0342 41.4897 39.8969 43.2387 39.4676 45.3781L37.0494 57.4293C36.6224 59.5665 38.0541 61.3155 40.2485 61.3155L75.9598 61.3155C78.1542 61.3155 79.9399 59.5482 79.9399 57.354ZM48.1722 231.962C48.1722 234.138 49.9579 235.923 52.1523 235.923L187.085 235.923C189.28 235.923 191.065 234.138 191.065 231.962L191.065 224.02C191.065 221.826 189.28 220.043 187.085 220.043L52.1523 220.043C49.9579 220.043 48.1722 221.826 48.1722 224.02ZM238.698 184.335 226.144 184.335C226.087 185.675 226.014 186.995 225.957 188.278L223.65 231.98C223.187 240.702 215.672 247.826 206.949 247.826L206.931 247.826 32.3089 247.826C23.5655 247.826 16.0528 240.702 15.587 231.98L13.299 188.278C13.2259 186.995 13.1711 185.675 13.0957 184.335L0.559451 184.335C-3.81112 184.335-7.38247 180.764-7.38247 176.393L-7.38247 152.478C-7.38247 150.284-6.95318 146.77-6.41428 144.667L-4.38656 136.596C-3.84765 134.477-1.63497 132.746 0.559451 132.746L12.4632 132.746 12.4632 132.766 12.4632 33.5301C12.4632 24.8079 19.6059 17.6681 28.3288 17.6681L32.3454 17.6681 32.3089 17.6498 32.3089-2.19424C32.3089-4.37022 34.0946-6.17402 36.2684-6.17402L60.0942-6.17402C62.2704-6.17402 64.056-4.37022 64.056-2.19424L64.056 17.6498 63.9989 17.6681 175.184 17.6681 175.127 17.6498 175.127-2.19424C175.127-4.37022 176.912-6.17402 179.088-6.17402L202.969-6.17402C205.145-6.17402 206.931-4.37022 206.931-2.19424L206.931 17.6498 206.894 17.6681 210.911 17.6681C219.634 17.6681 226.795 24.8079 226.795 33.5301L226.795 132.746 238.698 132.746C240.872 132.746 243.087 134.477 243.626 136.596L245.654 144.667C246.193 146.77 246.62 150.284 246.62 152.478L246.62 176.393C246.62 180.764 243.048 184.335 238.698 184.335" fill="#FFFFFF" fill-rule="evenodd" transform="matrix(1 0 0 -1 2010 2202)"/></g></svg>