<svg width="263" height="373" xmlns="http://www.w3.org/2000/svg" xmlns:xlink="http://www.w3.org/1999/xlink" xml:space="preserve" overflow="hidden"><g transform="translate(-2698 -1550)"><path d="M49.9861-0.792655C78.9816-0.792655 102.487 22.7124 102.487 51.7079 102.487 80.7029 78.9816 104.208 49.9861 104.208 20.9911 104.208-2.51397 80.7029-2.51397 51.7079-2.51397 22.7124 20.9911-0.792655 49.9861-0.792655" fill="#FFFFFF" fill-rule="evenodd" transform="matrix(1 0 0 -1 2779 1655)"/><path d="M128.396 9.19179 72.7801 9.19179 72.7801 49.0821 30.2496 6.55221C11.0343-12.5345-15.0081 11.9384 4.23874 31.0599L74.6605 101.15C80.3738 106.784 86.6254 110.368 96.5468 110.368L159.694 110.368C169.616 110.368 176.307 106.891 182.187 101.15L253.327 30.374C271.648 12.1728 244.901-12.5345 227.327 5.85286L183.679 49.2992 183.679 9.19179 128.396 9.19179" fill="#FFFFFF" fill-rule="evenodd" transform="matrix(1 0 0 -1 2701 1774)"/><path d="M46.4649 136.544 4.61911 94.5744 35.3401 63.8214 3.85836 32.2498C-14.7196 13.6148 10.9128-13.0387 30.1266 6.23006L79.9155 58.1507C90.5993 69.0845 93.5549 89.2835 82.1001 100.771 82.0621 100.81 46.4649 136.544 46.4649 136.544" fill="#FFFFFF" fill-rule="evenodd" transform="matrix(1 0 0 -1 2838 1922)"/><path d="M40.4913 136.544 82.3369 94.5744 51.6164 63.8214 83.0976 32.2498C101.676 13.6148 76.0436-13.0387 56.8295 6.23006L7.04079 58.1507C-3.64299 69.0845-6.59858 89.2835 4.85619 100.771 4.89414 100.81 40.4913 136.544 40.4913 136.544" fill="#FFFFFF" fill-rule="evenodd" transform="matrix(1 0 0 -1 2733 1922)"/></g></svg>