<svg width="167" height="168" xmlns="http://www.w3.org/2000/svg" xmlns:xlink="http://www.w3.org/1999/xlink" xml:space="preserve" overflow="hidden"><g transform="translate(-3062 -456)"><path d="M-0.340762-2.19892 4.65972-2.19892 4.65972 12.8008-0.340762 12.8008Z" fill="#241F1F" fill-rule="evenodd" transform="matrix(1 0 0 -1 3189 559)"/><path d="M-0.418804-2.19892 5.58139-2.19892 5.58139 12.8008-0.418804 12.8008Z" fill="#241F1F" fill-rule="evenodd" transform="matrix(1 0 0 -1 3197 559)"/><path d="M42.7029 17.7122 27.0455 17.7122C23.1295 17.7122 19.9962 20.8752 19.9962 24.7342 19.9962 25.7232 20.1927 26.5141 20.4856 27.4024L20.5853 27.5002C22.0539 31.753 19.7033 33.5328 16.5729 33.5328L15.3008 33.5328C9.72301 33.5328 5.22118 38.082 5.22118 43.7179 5.22118 49.3564 9.72301 53.9055 15.3008 53.9055L15.3008 59.6389C6.58972 59.6389-0.359498 52.5195-0.359498 43.7179-0.359498 35.2153 6.2968 28.1932 14.7117 27.8972 14.5181 26.9079 14.322 25.821 14.322 24.7342 14.322 17.7122 19.9962 11.9755 27.0455 11.9755L42.5064 11.9755C46.1263 11.9755 48.9663 9.01135 48.9663 5.45124L48.9663-2.36128 54.6409-2.36128 54.6409 5.64686C54.6409 12.2718 49.2595 17.7122 42.7029 17.7122" fill="#241F1F" fill-rule="evenodd" transform="matrix(1 0 0 -1 3139 541)"/><path d="M20.4774 29.9427 15.1905 29.9427C16.3662 32.2069 16.9527 34.7658 16.9527 37.2281 16.9527 46.875 9.21776 54.6526-0.376198 54.6526L-0.376198 48.9415C6.08613 48.9415 11.3731 43.7261 11.3731 37.2281L11.2733 37.2281C11.2733 35.4561 10.8831 33.7812 10.0008 32.1067L9.41432 31.1246C7.74897 28.2678 8.14172 25.3165 12.5459 24.429 13.6249 24.2317 15.5836 24.2317 15.5836 24.2317L19.108 24.2317C28.5054 24.2317 36.0441 16.554 36.0441 7.20207L36.0441-2.34748 41.6241-2.34748 41.6241 8.57906C41.6241 20.3928 32.1295 29.9427 20.4774 29.9427" fill="#241F1F" fill-rule="evenodd" transform="matrix(1 0 0 -1 3161 541)"/><path d="M-0.328823 12.8008 49.3086 12.8008 64.9511-2.19892-0.328823-2.19892ZM51.436 12.8008 74.5853 12.8008 90.2278-2.19892 67.0781-2.19892ZM76.7127 12.8008 96.6715 12.8008 96.6715-2.19892 92.3548-2.19892 76.7127 12.8008" fill="#241F1F" fill-rule="evenodd" transform="matrix(1 0 0 -1 3089 559)"/><path d="M82.6633 164.689C105.579 164.689 126.33 155.339 141.351 140.228 156.373 125.119 165.664 104.243 165.664 81.1901 165.664 58.1342 156.373 37.258 141.351 22.1492 126.33 7.03504 105.579-2.31174 82.6633-2.31174 59.7483-2.31174 38.9942 7.03504 23.9749 22.1492 8.95342 37.258-0.336135 58.1371-0.336135 81.1901-0.336135 104.24 8.95342 125.119 23.9749 140.228 38.9942 155.339 59.7483 164.689 82.6633 164.689ZM41.579 134.092 43.0433 132.619C73.2904 102.19 103.538 71.7609 133.785 41.3318L135.249 39.8591 135.252 39.8649C135.264 39.8768 135.276 39.8913 135.284 39.9061L135.29 39.9119C135.372 40.0178 135.495 40.1741 135.627 40.3509L135.639 40.3625C135.65 40.3831 135.668 40.4008 135.68 40.4186L135.7 40.4421C135.806 40.5835 135.917 40.7307 136.005 40.8486L136.014 40.8605C136.043 40.8988 136.069 40.9368 136.098 40.9755L136.166 41.0638C144.476 52.2572 149.398 66.1461 149.398 81.1901 149.398 99.7242 141.926 116.509 129.847 128.657 117.771 140.808 101.087 148.322 82.6633 148.322 67.7091 148.322 53.9071 143.371 42.7801 135.014L42.7071 134.958C42.6622 134.925 42.6187 134.893 42.5741 134.86L42.5662 134.852C42.4346 134.751 42.2883 134.643 42.1704 134.551L42.1499 134.536C42.1269 134.516 42.1006 134.498 42.0802 134.481L42.0686 134.472C41.9098 134.351 41.7404 134.218 41.6319 134.13L41.6225 134.127C41.611 134.115 41.5963 134.106 41.5848 134.095ZM123.745 28.2852 30.0771 122.518C21.2139 111.124 15.9281 96.7755 15.9281 81.1901 15.9281 62.6528 23.4018 45.8681 35.4768 33.7199 47.5518 21.5691 64.2367 14.0545 82.6633 14.0545 98.1561 14.0545 112.419 19.3717 123.745 28.2852" fill="#EF3928" fill-rule="evenodd" transform="matrix(1 0 0 -1 3063 621)"/></g></svg>