<svg width="472" height="472" xmlns="http://www.w3.org/2000/svg" xmlns:xlink="http://www.w3.org/1999/xlink" xml:space="preserve" overflow="hidden"><g transform="translate(-1515 -374)"><path d="M-1.02534-1.28877 469.975-1.28877 469.975 469.711-1.02534 469.711Z" fill="#084250" fill-rule="evenodd" transform="matrix(1 0 0 -1 1517 844)"/><path d="M10.7474 10.4866 458.199 10.4866 458.199 457.936 10.7474 457.936ZM-1.02534-1.28877 469.975-1.28877 469.975 469.711-1.02534 469.711Z" fill="#FFFFFF" fill-rule="evenodd" transform="matrix(1 0 0 -1 1517 844)"/><path d="M-0.939911-1.34293-0.939911 292.657 94.1911 292.657C130.233 292.657 153.755 291.149 164.698 288.206 181.522 283.826 195.68 274.244 207.034 259.46 218.38 244.669 224.06 225.578 224.06 202.23 224.06 184.164 220.78 168.969 214.213 156.711 207.646 144.395 199.371 134.741 189.25 127.691 179.202 120.707 168.936 116.053 158.541 113.795 144.384 110.989 123.868 109.546 96.9949 109.546L58.3506 109.546 58.3506-1.34293ZM58.3506 242.895 58.3506 159.517 90.7669 159.517C114.158 159.517 129.823 161.025 137.687 164.106 145.552 167.186 151.708 171.978 156.221 178.551 160.668 185.117 162.917 192.721 162.917 201.415 162.917 212.086 159.774 220.917 153.482 227.902 147.261 234.813 139.259 239.201 129.686 240.911 122.571 242.274 108.348 242.895 87.0037 242.895" fill="#FFFFFF" fill-rule="evenodd" transform="matrix(1 0 0 -1 1564 714)"/><path d="M57.217 115.524C66.2937 115.524 74.8874 113.44 82.5539 109.732L90.8145 124.103C91.6457 126.08 93.5843 127.462 95.8702 127.462L105.736 127.448 100.116 137.294 83.9641 137.294C80.9341 137.294 78.4822 139.755 78.4822 142.789 78.4822 145.816 80.9341 148.277 83.9641 148.277L115.826 148.277C118.856 148.277 121.316 145.816 121.316 142.789 121.316 139.755 118.856 137.294 115.826 137.294L112.738 137.294 118.35 127.427 184.8 127.333 163.355 164.819 142.986 164.819C139.948 164.819 137.497 167.28 137.497 170.307 137.497 173.341 139.948 175.802 142.986 175.802L165.821 175.802C167.941 176.069 170.117 175.063 171.253 173.094L207.325 110.211C214.724 113.627 222.955 115.524 231.642 115.524 263.837 115.524 289.926 89.3964 289.926 57.1808 289.926 24.9643 263.837-1.1564 231.642-1.1564 199.448-1.1564 173.351 24.9643 173.351 57.1808 173.351 76.7854 183.014 94.1242 197.827 104.702L193.082 112.947 159.239 54.0387C158.415 52.069 156.469 50.6798 154.183 50.6798L115.153 50.7375C111.949 21.5547 87.2268-1.1564 57.217-1.1564 25.0225-1.1564-1.07454 24.9643-1.07454 57.1808-1.07454 89.3964 25.0225 115.524 57.217 115.524ZM9.21794 57.1808C9.21794 30.6477 30.7078 9.1383 57.217 9.1383 81.5486 9.1383 101.65 27.2594 104.789 50.7518L59.4158 50.8095C57.9762 50.8095 56.6309 50.6291 55.3432 51.3819 53.1808 52.6192 52.1897 55.1169 52.7536 57.4341 52.9277 58.2377 53.2749 58.9763 53.7518 59.6127L77.4041 100.77C71.2703 103.63 64.4279 105.23 57.217 105.23 30.7078 105.23 9.21794 83.7211 9.21794 57.1808ZM104.998 61.7344C103.74 75.2361 96.8825 87.1307 86.7712 95.0433L67.6613 61.778ZM115.327 61.7122 143.16 61.6766 111.978 116.451 99.0813 116.48 91.9352 104.043C105.1 94.2549 114.003 79.0439 115.327 61.7122ZM153.387 65.8685 182.392 116.364 124.607 116.444ZM202.992 95.7313C191.245 86.9716 183.643 72.9704 183.643 57.1808 183.643 30.6477 205.133 9.1383 231.642 9.1383 258.151 9.1383 279.647 30.6477 279.647 57.1808 279.647 83.7211 258.151 105.23 231.642 105.23 224.828 105.23 218.347 103.804 212.482 101.241L234.108 63.6677C235.628 61.0393 234.731 57.6804 232.098 56.1595 229.479 54.6467 226.116 55.5444 224.611 58.1728" fill="#FFFFFF" fill-rule="evenodd" transform="matrix(1 0 0 -1 1650 797)"/><path d="M57.217 115.524C66.2937 115.524 74.8874 113.44 82.5539 109.732L90.8145 124.103C91.6457 126.08 93.5843 127.462 95.8702 127.462L105.736 127.448 100.116 137.294 83.9641 137.294C80.9341 137.294 78.4822 139.755 78.4822 142.789 78.4822 145.816 80.9341 148.277 83.9641 148.277L115.826 148.277C118.856 148.277 121.316 145.816 121.316 142.789 121.316 139.755 118.856 137.294 115.826 137.294L112.738 137.294 118.35 127.427 184.8 127.333 163.355 164.819 142.986 164.819C139.948 164.819 137.497 167.28 137.497 170.307 137.497 173.341 139.948 175.802 142.986 175.802L165.821 175.802C167.941 176.069 170.117 175.063 171.253 173.094L207.325 110.211C214.724 113.627 222.955 115.524 231.642 115.524 263.837 115.524 289.926 89.3964 289.926 57.1808 289.926 24.9643 263.837-1.1564 231.642-1.1564 199.448-1.1564 173.351 24.9643 173.351 57.1808 173.351 76.7854 183.014 94.1242 197.827 104.702L193.082 112.947 159.239 54.0387C158.415 52.069 156.469 50.6798 154.183 50.6798L115.153 50.7375C111.949 21.5547 87.2268-1.1564 57.217-1.1564 25.0225-1.1564-1.07454 24.9643-1.07454 57.1808-1.07454 89.3964 25.0225 115.524 57.217 115.524ZM9.21794 57.1808C9.21794 30.6477 30.7078 9.1383 57.217 9.1383 81.5486 9.1383 101.65 27.2594 104.789 50.7518L59.4158 50.8095C57.9762 50.8095 56.6309 50.6291 55.3432 51.3819 53.1808 52.6192 52.1897 55.1169 52.7536 57.4341 52.9277 58.2377 53.2749 58.9763 53.7518 59.6127L77.4041 100.77C71.2703 103.63 64.4279 105.23 57.217 105.23 30.7078 105.23 9.21794 83.7211 9.21794 57.1808ZM104.998 61.7344C103.74 75.2361 96.8825 87.1307 86.7712 95.0433L67.6613 61.778ZM115.327 61.7122 143.16 61.6766 111.978 116.451 99.0813 116.48 91.9352 104.043C105.1 94.2549 114.003 79.0439 115.327 61.7122ZM153.387 65.8685 182.392 116.364 124.607 116.444ZM202.992 95.7313C191.245 86.9716 183.643 72.9704 183.643 57.1808 183.643 30.6477 205.133 9.1383 231.642 9.1383 258.151 9.1383 279.647 30.6477 279.647 57.1808 279.647 83.7211 258.151 105.23 231.642 105.23 224.828 105.23 218.347 103.804 212.482 101.241L234.108 63.6677C235.628 61.0393 234.731 57.6804 232.098 56.1595 229.479 54.6467 226.116 55.5444 224.611 58.1728Z" stroke="#FFFFFF" stroke-width="0.415387" stroke-miterlimit="8" fill="none" fill-rule="evenodd" transform="matrix(1 0 0 -1 1650.5 797.5)"/></g></svg>