<?xml version="1.0" encoding="UTF-8" standalone="no"?>
<!-- Created with Inkscape (http://www.inkscape.org/) -->

<svg
   width="39.952084mm"
   height="45.779137mm"
   viewBox="0 0 39.952084 45.779137"
   version="1.1"
   id="svg1"
   xmlns="http://www.w3.org/2000/svg"
   xmlns:svg="http://www.w3.org/2000/svg">
  <defs
     id="defs1">
    <clipPath
       id="clip0">
      <rect
         x="-121"
         y="54"
         width="156"
         height="201"
         id="rect1" />
    </clipPath>
  </defs>
  <g
     id="layer1"
     transform="translate(-85.195833,-125.67709)">
    <g
       clip-path="url(#clip0)"
       transform="matrix(0.26458333,0,0,0.26458333,116.41667,111.38958)"
       id="g3">
      <path
         d="M 2.87504e-4,0.0235352 H 151 V 65.0235 H 2.87504e-4 Z"
         fill="#034750"
         fill-rule="evenodd"
         transform="matrix(-1,0,0,1,33,162)"
         id="path1" />
      <path
         d="M 19.896973,-9.2387695 25.92334,-29.43457 q 0.622558,-2.1167 2.540039,-3.28711 1.568848,-0.946289 3.536133,-0.946289 h 3.710449 V 0 H 29.285156 V -27.915527 L 20.71875,0 H 16.933594 L 8.3173828,-27.791016 V 0 H 3.7851563 V -33.667969 H 12.152344 Z M 49.879395,0 h -6.723633 v -24.080566 q -0.0249,-1.668457 2.01709,-3.660645 1.519043,-1.444336 3.436523,-1.992187 v -0.149414 h -6.175781 l -0.298828,-3.785157 h 9.985839 q 3.536133,0 5.179688,0.199219 3.710449,0.448242 5.827148,2.365723 2.515137,2.266113 2.515137,6.001465 0,3.859863 -2.241211,6.449707 -1.319824,1.543945 -3.112793,2.390625 -0.846679,0.398437 -2.614746,0.921386 L 67.833984,0 H 60.089355 L 51.149414,-14.542969 Q 51,-14.791992 51,-15.140625 q 0,-0.448242 0.249023,-0.697266 0.124512,-0.124511 1.444336,-0.522949 6.175782,-1.892578 6.175782,-7.819336 0,-3.585937 -2.166504,-4.831054 -1.394532,-0.821778 -4.78125,-0.821778 h -2.041992 z m 28.26416,0 v -23.707031 q 0,-0.971192 0.846679,-2.315918 1.817871,-2.639649 4.606934,-3.361817 v -0.149414 h -14.02002 l -0.249023,-4.133789 h 24.479004 v 4.133789 H 84.966797 V 0 Z"
         id="text1"
         style="font-size:51px;font-family:LTA-Identity, LTA-Identity_MSFontService, sans-serif;fill:#ffffff"
         transform="translate(-89.6826,211)"
         aria-label="MRT" />
      <path
         d="M 2.87504e-4,4.31827e-4 H 151 V 108.001 H 2.87504e-4 Z"
         fill="#ed1161"
         fill-rule="evenodd"
         transform="matrix(1,0,0,-1,-118,162)"
         id="path2" />
      <path
         d="m 23.7932,31.666 c 0,2.0479 -1.6778,3.7047 -3.7427,3.7047 h -8.731 c -2.06553,0 -3.73922,-1.6568 -3.73922,-3.7047 v -3.085 c 0,-2.0444 1.67369,-3.7011 3.73922,-3.7011 h 8.731 c 2.0649,0 3.7427,1.6567 3.7427,3.7011 v 3.085 h 48.6426 c 0,2.0479 -1.6776,3.7047 -3.7429,3.7047 h -8.7265 c -2.0695,0 -3.7433,-1.6568 -3.7433,-3.7047 v -3.085 c 0,-2.0444 1.6738,-3.7011 3.7433,-3.7011 h 8.7265 c 2.0653,0 3.7429,1.6567 3.7429,3.7011 v 3.085 z m 44.4173,15.1259 c 2.5355,0 4.5675,1.3991 4.526,4.6061 -0.206,15.673 -4.3323,30.713 -14.2877,32.508 -5.6222,1.0163 -10.5818,1.3877 -18.4426,1.3877 -7.8611,0 -12.816,-0.3714 -18.4389,-1.3877 C 11.612,82.111 7.48162,67.071 7.27966,51.398 7.23814,48.191 9.2621,46.7919 11.8059,46.7919 Z M 39.9854,90.0024 h 0.0456 c 29.0864,0 36.0818,-3.3785 39.4623,-43.5537 C 79.7816,43.054 80.1404,30.0293 79.959,27.2509 79.4027,18.6008 75.8861,13.8591 65.6464,13.8591 L 77.3124,0.0023002 H 67.0646 L 59.1088,9.58284 H 20.9037 L 12.9517,0.0023002 H 2.69983 L 14.3658,13.8591 C 4.13011,13.8591 0.618151,18.6008 0.0573505,27.2509 -0.123848,30.0293 0.230491,43.054 0.522978,46.4487 3.89932,86.6239 10.8948,90.0024 39.9854,90.0024 h 0.0456"
         fill="#ffffff"
         fill-rule="evenodd"
         transform="matrix(1,0,0,-1,-83,153)"
         id="path3" />
    </g>
  </g>
</svg>
