<svg width="640" height="168" xmlns="http://www.w3.org/2000/svg" xmlns:xlink="http://www.w3.org/1999/xlink" xml:space="preserve" overflow="hidden"><g transform="translate(-3895 -1781)"><path d="M352.204 165.187 584.411 165.187C593.091 165.187 600.348 161.927 606.235 157.349 613.383 151.794 618.217 144.275 620.717 139.302 625.189 130.421 628.653 121.057 630.954 111.332 633.213 101.792 634.419 91.8684 634.419 81.6819 634.419 71.5048 633.213 61.5812 630.954 52.0416 628.653 42.3269 625.2 32.9517 620.717 24.0713 618.217 19.0993 613.383 11.5787 606.235 6.02455 600.348 1.44751 593.081-1.81276 584.411-1.81276L45.4254-1.81276C36.7446-1.81276 29.4878 1.44751 23.601 6.02455 16.4424 11.5787 11.6201 19.0993 9.12088 24.0713 4.63648 32.9517 1.17224 42.3269-1.11841 52.0416-3.38753 61.5812-4.58265 71.5048-4.58265 81.6819-4.58265 91.8684-3.38753 101.792-1.11841 111.332 1.18436 121.057 4.63648 130.421 9.12088 139.302 11.6201 144.275 16.4424 151.794 23.601 157.349 29.4878 161.927 36.7446 165.187 45.4254 165.187L352.204 165.187" fill="#FFFFFF" fill-rule="evenodd" transform="matrix(1 0 0 -1 3900 1947)"/><path d="M-4.41638 64.6965C-4.41638 46.7528-0.140031 29.8133 7.45937 14.8182 10.4323 8.96384 17.8352-1.80349 28.9663-1.80349L298.583-1.80349 298.583 131.197 261.275 131.197C250.154 131.197 28.9663 131.197 28.9663 131.197 17.8352 131.197 10.4323 120.439 7.45937 114.574-0.140031 99.5797-4.41638 82.6403-4.41638 64.6965" fill="#F99D28" fill-rule="evenodd" transform="matrix(1 0 0 -1 3916 1930)"/><path d="M298.249 64.6965C298.249 46.7528 293.972 29.8133 286.373 14.8182 283.4 8.96384 275.997-1.80349 264.866-1.80349 253.735-1.80349 32.5574-1.80349 32.5574-1.80349L-4.75165-1.80349-4.75165 131.197 264.866 131.197C275.997 131.197 283.4 120.439 286.373 114.574 293.972 99.5797 298.249 82.6403 298.249 64.6965" fill="#136FB8" fill-rule="evenodd" transform="matrix(1 0 0 -1 4219 1930)"/></g></svg>