<svg width="325" height="325" xmlns="http://www.w3.org/2000/svg" xmlns:xlink="http://www.w3.org/1999/xlink" xml:space="preserve" overflow="hidden"><g transform="translate(-3697 -934)"><path d="M-18.7675-10.6606 305.236-10.6606 305.236 313.34-18.7675 313.34Z" fill="#084250" fill-rule="evenodd" transform="matrix(1 0 0 -1 3716 1248)"/><path d="M-10.6516-2.55423 296.207-2.55423 296.207 305.263-10.6516 305.263ZM-18.7091-10.6606 304.294-10.6606 304.294 313.34-18.7091 313.34Z" fill="#FFFFFF" fill-rule="evenodd" transform="matrix(1 0 0 -1 3717 1248)"/><path d="M16.7717 140.002 90.425 140.002 90.425 153.021C90.425 159.286 85.4027 164.328 79.212 164.328L-7.35906 164.328C-13.5736 164.328-18.575 159.286-18.575 153.021L-18.575 0.633971C-18.575-5.63062-13.5736-10.6723-7.35906-10.6723L5.55581-10.6723 5.55581 128.696C5.55581 134.937 10.5811 140.002 16.7717 140.002" fill="#FFFFFF" fill-rule="evenodd" transform="matrix(1 0 0 -1 3749 1183)"/><path d="M-18.7815 152.195C-18.7815 158.399-13.7101 163.435-7.46267 163.435L79.9026 163.435C86.1501 163.435 91.2185 158.399 91.2185 152.195L91.2185 0.675068C91.2185-5.52899 86.1501-10.5651 79.9026-10.5651L-7.46267-10.5651C-13.7101-10.5651-18.7815-5.52899-18.7815 0.675068ZM3.04703 142.221C5.59475 144.727 5.59475 148.814 3.04703 151.344 0.52338 153.85-3.59147 153.85-6.13918 151.344-8.66284 148.814-8.66284 144.727-6.13918 142.221-3.59147 139.691 0.52338 139.691 3.04703 142.221L76.9368 134.604 76.9368 140.955 62.4326 155.358 47.9314 140.955 47.9314 134.604 59.7886 146.406 60.2549 146.941 60.1797 146.284 60.1797 123.098 64.6885 123.098 64.6885 146.284 64.6133 146.941 65.0314 146.43 76.9368 134.604 3.04703 142.221" fill="#FFFFFF" fill-rule="evenodd" transform="matrix(1 0 0 -1 3781 1215)"/><path d="M21.3112-10.7195C21.2125 4.74527 21.6524 16.8252 36.6908 34.2604 50.9033 51.5042 55.0961 57.3498 55.0961 68.3563 55.0961 87.3045 38.5942 95.4884 21.9696 95.4884 9.53782 95.4884-1.38264 91.371-10.4267 87.0862L-18.8093 108.298C-7.84095 113.608 9.58571 119.28 33.2552 119.28 73.2799 119.28 99.191 101.699 99.191 75.4189 99.191 59.8824 90.8053 47.9012 66.675 31.6082 41.7605 14.5109 37.861 8.47091 37.9598-10.7195L21.3112-10.7195" fill="#FFFFFF" fill-rule="evenodd" transform="matrix(1 0 0 -1 3889 1087)"/><path d="M-18.6745 4.09285C-18.6745-3.90468-11.2903-10.4203-2.18494-10.4203 6.91749-10.4203 14.3284-3.90468 14.3284 4.09285 14.3284 12.1139 6.91749 18.5825-2.18494 18.5825-11.2903 18.5825-18.6745 12.1139-18.6745 4.09285" fill="#FFFFFF" fill-rule="evenodd" transform="matrix(1 0 0 -1 3922 1128)"/></g></svg>