<svg width="190" height="190" xmlns="http://www.w3.org/2000/svg" xmlns:xlink="http://www.w3.org/1999/xlink" xml:space="preserve" overflow="hidden"><g transform="translate(-4127 -949)"><path d="M-3.99084-6.21886 185.011-6.21886 185.011 182.783-3.99084 182.783Z" fill="#084250" fill-rule="evenodd" transform="matrix(1 0 0 -1 4131 1132)"/><path d="M0.724018-1.48997 180.282-1.48997 180.282 178.063 0.724018 178.063ZM-3.99084-6.21868 185.011-6.21868 185.011 182.781-3.99084 182.781Z" fill="#FFFFFF" fill-rule="evenodd" transform="matrix(1 0 0 -1 4131 1132)"/><path d="M136.359 38.9428C136.359 37.4109 135.107 36.1487 133.571 36.1487L111.536 36.1627C110.001 36.1627 109.174 37.3395 109.716 38.7722L113.015 47.6627C113.556 49.0954 115.249 50.2705 116.786 50.2705L133.571 50.2705C135.107 50.2705 136.359 49.0101 136.359 47.4782ZM96.4284 47.6627 91.3792 34.0789C90.8396 32.6461 89.1454 31.4693 87.6103 31.4693L55.4325 31.4693C53.8956 31.4693 52.2032 32.6461 51.6775 34.0789L46.6266 47.6627C46.0869 49.1094 46.9113 50.2705 48.4482 50.2705L94.5946 50.2705C96.1297 50.2705 96.9558 49.1094 96.4284 47.6627ZM31.5053 36.1627 9.47133 36.1487C7.9344 36.1487 6.68215 37.4109 6.68215 38.9428L6.68215 47.4782C6.68215 49.0101 7.9344 50.2705 9.47133 50.2705L26.2571 50.2705C27.7922 50.2705 29.4864 49.0954 30.0121 47.6627L33.3269 38.7722C33.8526 37.3395 33.0423 36.1627 31.5053 36.1627ZM21.3633 73.4534 31.4197 98.4241C32.7436 101.685 36.7117 104.364 40.2396 104.364L102.801 104.364C106.329 104.364 110.313 101.685 111.621 98.4241L121.679 73.4534C122.645 71.0441 121.323 68.9167 118.735 68.7044 118.735 68.7044 93.8977 66.7337 71.5354 66.7337L71.5214 66.7477 71.5214 66.7337C49.1451 66.7337 24.3079 68.7044 24.3079 68.7044 21.7336 68.9167 20.3958 71.0441 21.3633 73.4534ZM147.014 46.1029C147.014 48.4008 145.79 51.7032 144.297 53.4476L135.59 63.5567C134.097 65.301 132.134 68.4624 131.238 70.5758L117.654 102.734C115.633 107.513 109.744 111.411 104.551 111.411L91.3932 111.427 87.7378 117.281C86.5152 119.238 83.6265 120.825 81.3211 120.825L61.72 120.825C59.4006 120.825 56.5276 119.238 55.305 117.281L51.6339 111.427 38.4896 111.411C33.2972 111.411 27.394 107.513 25.389 102.734L11.8047 70.5758C10.907 68.4624 8.94389 65.301 7.43665 63.5567L-1.254 53.4476C-2.76298 51.6893-3.98554 48.3852-3.98554 46.089L-3.98554 19.7012-1.62426 15.0079C-1.62426 10.3006-1.62426-3.38247-1.62426-3.38247-1.62426-4.91268-0.373753-6.17479 1.17715-6.17479L19.1732-6.17479C20.7084-6.17479 21.9746-4.91268 21.9746-3.38247L21.9746 12.6542 121.066 12.6542 121.066-3.38247C121.066-4.91268 122.319-6.17479 123.87-6.17479L141.864-6.17479C143.401-6.17479 144.667-4.91268 144.667-3.38247 144.667-3.38247 144.667 10.3006 144.667 15.0079L147.014 19.7012 147.014 46.1029" fill="#FFFFFF" fill-rule="evenodd" transform="matrix(1 0 0 -1 4150 1113)"/></g></svg>