<svg width="260" height="315" xmlns="http://www.w3.org/2000/svg" xmlns:xlink="http://www.w3.org/1999/xlink" xml:space="preserve" overflow="hidden"><g transform="translate(-2236 -1136)"><path d="M198.113 22.6246 167.527 124.375 81.5872 124.375 66.0036 283.799 66.8365 289.171C72.567 309.999 99.5699 315.852 114.344 300.692L115.68 299.234 116.896 297.7C129.576 279.392 116.184 256.657 94.6723 255.922L92.6997 255.988 90.6492 256.075 97.4117 188.877 170.65 188.877 170.65 167.687 99.4609 167.687 101.444 145.95 183.812 145.95 213.181 49.657 250.278 60.5642 257.05 40.12ZM185.017 34.4416 183.177 32.2276 181.258 29.9907C138.311-17.673 60.9405-16.1818 20.0964 33.3784L18.3096 35.5924 16.5228 37.9827C-21.3948 90.9628 1.7949 161.449 61.1477 185.654L63.9652 186.806 66.8365 187.803 69.5759 162.009 64.9837 159.772C-52.3104 81.0529 108.348-49.6826 173.27 63.7109L175.055 67.7769 185.017 34.4416" fill="#FFFFFF" fill-rule="evenodd" transform="matrix(1 0 0 -1 2238 1446)"/></g></svg>