<svg width="943" height="167" xmlns="http://www.w3.org/2000/svg" xmlns:xlink="http://www.w3.org/1999/xlink" xml:space="preserve" overflow="hidden"><g transform="translate(-3880 -2092)"><path d="M937.617 81.8599C937.617 71.7452 936.423 61.8809 934.164 52.3864 931.861 42.7299 928.398 33.4122 923.924 24.5836 921.413 19.6414 916.589 12.1779 909.441 6.64493 903.543 2.0953 896.285-1.13473 887.613-1.13473L45.6222-1.13473C36.9495-1.13473 29.6915 2.0953 23.8038 6.64493 16.6455 12.1779 11.8212 19.6414 9.31074 24.5836 4.83776 33.4122 1.37299 42.7299-0.928786 52.3864-3.18748 61.8809-4.38279 71.7452-4.38279 81.8599-4.38279 91.9747-3.18748 101.85-0.928786 111.332 1.37299 120.989 4.83776 130.308 9.31074 139.135 11.8212 144.078 16.6455 151.542 23.8038 157.075 29.6915 161.625 36.9495 164.865 45.6222 164.865L887.613 164.865C896.285 164.865 903.543 161.625 909.441 157.075 916.589 151.542 921.413 144.078 923.924 139.135 928.398 130.308 931.861 120.989 934.164 111.332 936.423 101.85 937.617 91.9747 937.617 81.8599" fill="#FFFFFF" fill-rule="evenodd" transform="matrix(1 0 0 -1 3885 2257)"/><path d="M-4.0488 65.8558C-4.0488 47.7771 0.227551 30.7103 7.82831 15.6024 10.7999 9.69456 18.2028-1.14427 29.3339-1.14427L298.951-1.14427 298.951 132.856 261.642 132.856C250.522 132.856 29.3339 132.856 29.3339 132.856 18.2028 132.856 10.7999 122.018 7.82831 116.109 0.227551 101.001-4.0488 83.9344-4.0488 65.8558" fill="#EF3928" fill-rule="evenodd" transform="matrix(1 0 0 -1 3901 2241)"/><path d="M298.616-1.14427C287.485-1.14427 32.9249-1.14427 32.9249-1.14427L-4.38406-1.14427-4.38406 132.856 298.616 132.856 298.616-1.14427" fill="#6E2B87" fill-rule="evenodd" transform="matrix(1 0 0 -1 4204 2241)"/><path d="M298.282 65.8558C298.282 47.7771 294.005 30.7103 286.405 15.6024 283.432 9.69456 276.031-1.14427 264.899-1.14427 253.767-1.14427 32.5897-1.14427 32.5897-1.14427L-4.71934-1.14427-4.71934 132.856 264.899 132.856C276.031 132.856 283.432 122.018 286.405 116.109 294.005 101.001 298.282 83.9344 298.282 65.8558" fill="#F99D28" fill-rule="evenodd" transform="matrix(1 0 0 -1 4507 2241)"/></g></svg>