<svg width="370" height="372" xmlns="http://www.w3.org/2000/svg" xmlns:xlink="http://www.w3.org/1999/xlink" xml:space="preserve" overflow="hidden"><defs><clipPath id="clip0"><rect x="1653" y="137" width="370" height="372"/></clipPath></defs><g clip-path="url(#clip0)" transform="translate(-1653 -137)"><path d="M0.00070448 0.00148341 370.001 0.00148341 370.001 371.002 0.00070448 371.002Z" fill="#ED1161" fill-rule="evenodd" transform="matrix(1 0 0 -1 1653 509)"/><path d="M80.8969 109.072C80.8969 116.126 75.1926 121.832 68.1716 121.832L38.4862 121.832C31.4635 121.832 25.773 116.126 25.773 109.072L25.773 98.4458C25.773 91.4039 31.4635 85.6974 38.4862 85.6974L68.1716 85.6974C75.1926 85.6974 80.8969 91.4039 80.8969 98.4458L80.8969 109.072 246.282 109.072C246.282 116.126 240.578 121.832 233.556 121.832L203.886 121.832C196.85 121.832 191.159 116.126 191.159 109.072L191.159 98.4458C191.159 91.4039 196.85 85.6974 203.886 85.6974L233.556 85.6974C240.578 85.6974 246.282 91.4039 246.282 98.4458L246.282 109.072ZM231.916 161.172C240.536 161.172 247.445 165.991 247.304 177.038 246.604 231.023 232.574 282.827 198.726 289.01 179.611 292.51 162.748 293.79 136.021 293.79 109.293 293.79 92.4469 292.51 73.3288 289.01 39.4809 282.827 25.4375 231.023 24.7509 177.038 24.6097 165.991 31.4912 161.172 40.1399 161.172ZM135.951 310.008 136.106 310.008C234.999 310.008 258.784 298.371 270.277 159.99 271.258 148.297 272.478 103.434 271.861 93.8644 269.969 64.0693 258.013 47.7368 223.198 47.7368L262.863 0.00792291 228.02 0.00792291 200.97 33.0076 71.0728 33.0076 44.0358 0.00792291 9.17942 0.00792291 48.8437 47.7368C14.0424 47.7368 2.10172 64.0693 0.194992 93.8644-0.421084 103.434 0.78367 148.297 1.77813 159.99 13.2577 298.371 37.0423 310.008 135.951 310.008L136.106 310.008" fill="#FFFFFF" fill-rule="evenodd" transform="matrix(1 0 0 -1 1702 478)"/></g></svg>