<svg width="236" height="268" xmlns="http://www.w3.org/2000/svg" xmlns:xlink="http://www.w3.org/1999/xlink" xml:space="preserve" overflow="hidden"><g transform="translate(-1450 -44)"><path d="M66.5005 87.7505C66.5005 93.8261 61.5721 98.7411 55.5063 98.7411L29.8591 98.7411C23.7918 98.7411 18.8753 93.8261 18.8753 87.7505L18.8753 78.5984C18.8753 72.5332 23.7918 67.6183 29.8591 67.6183L55.5063 67.6183C61.5721 67.6183 66.5005 72.5332 66.5005 78.5984L66.5005 87.7505 209.388 87.7505C209.388 93.8261 204.46 98.7411 198.393 98.7411L172.759 98.7411C166.68 98.7411 161.763 93.8261 161.763 87.7505L161.763 78.5984C161.763 72.5332 166.68 67.6183 172.759 67.6183L198.393 67.6183C204.46 67.6183 209.388 72.5332 209.388 78.5984L209.388 87.7505ZM196.976 132.624C204.424 132.624 210.393 136.775 210.271 146.289 209.666 192.786 197.545 237.405 168.301 242.73 151.786 245.745 137.217 246.847 114.126 246.847 91.0342 246.847 76.4793 245.745 59.962 242.73 30.7184 237.405 18.5854 192.786 17.9922 146.289 17.8703 136.775 23.8156 132.624 31.2878 132.624ZM114.065 260.816 114.199 260.816C199.64 260.816 220.189 250.793 230.119 131.606 230.966 121.535 232.02 82.895 231.487 74.6525 229.853 48.9901 219.523 34.923 189.444 34.923L223.713-6.18562 193.61-6.18562 170.24 22.2367 58.0129 22.2367 34.6537-6.18562 4.53893-6.18562 38.8076 34.923C8.74037 34.923-1.57591 48.9901-3.22319 74.6525-3.75543 82.895-2.71473 121.535-1.85541 131.606 8.06243 250.793 28.6117 260.816 114.065 260.816L114.199 260.816" fill="#2E2A26" fill-rule="evenodd" transform="matrix(1 0 0 -1 1454 305)"/></g></svg>