<svg width="370" height="372" xmlns="http://www.w3.org/2000/svg" xmlns:xlink="http://www.w3.org/1999/xlink" xml:space="preserve" overflow="hidden"><defs><clipPath id="clip0"><rect x="2281" y="137" width="370" height="372"/></clipPath></defs><g clip-path="url(#clip0)" transform="translate(-2281 -137)"><path d="M0.00070448 0.00148341 370.001 0.00148341 370.001 371.002 0.00070448 371.002Z" fill="#00A3C9" fill-rule="evenodd" transform="matrix(1 0 0 -1 2281 509)"/><path d="M264.757 129.822C264.757 120.749 255.193 105.683 154.07 105.683 52.9434 105.683 43.3602 120.749 43.3602 129.822L43.3602 251.065C43.3602 256.381 47.7101 260.726 52.9877 260.726L255.127 260.726C260.427 260.726 264.757 256.381 264.757 251.065ZM254.18 77.3807 251.269 62.72C250.752 60.1174 248.157 57.9896 245.518 57.9896L207 57.9896C204.339 57.9896 202.174 60.1617 202.174 62.809L202.174 77.2892C202.174 79.9585 204.339 82.1084 207 82.1084L250.322 82.1084C252.961 82.1084 254.719 79.9807 254.18 77.3807ZM105.943 62.809C105.943 60.1617 103.778 57.9896 101.117 57.9896L62.618 57.9896C59.9792 57.9896 57.3875 60.1174 56.867 62.72L53.9347 77.3807C53.4168 79.9807 55.1529 82.1084 57.8139 82.1084L101.117 82.1084C103.778 82.1084 105.943 79.9585 105.943 77.2892ZM67.422 289.706C67.422 292.353 69.5873 294.525 72.2483 294.525L235.866 294.525C238.527 294.525 240.692 292.353 240.692 289.706L240.692 280.044C240.692 277.375 238.527 275.206 235.866 275.206L72.2483 275.206C69.5873 275.206 67.422 277.375 67.422 280.044ZM298.451 231.766 283.228 231.766C283.159 233.396 283.071 235.002 283.002 236.563L280.204 289.728C279.643 300.339 270.53 309.005 259.953 309.005L259.931 309.005 48.1864 309.005C37.5842 309.005 28.4745 300.339 27.9096 289.728L25.1352 236.563C25.0466 235.002 24.9802 233.396 24.8888 231.766L9.68746 231.766C4.38772 231.766 0.0571603 227.422 0.0571603 222.104L0.0571603 193.011C0.0571603 190.342 0.577713 186.067 1.23117 183.508L3.68996 173.69C4.34342 171.112 7.02651 169.006 9.68746 169.006L24.1218 169.006 24.1218 169.03 24.1218 48.3065C24.1218 37.6956 32.7829 29.0099 43.3602 29.0099L48.2307 29.0099 48.1864 28.9875 48.1864 4.8466C48.1864 2.19947 50.3517 0.00498109 52.9877 0.00498109L81.8785 0.00498109C84.5174 0.00498109 86.6825 2.19947 86.6825 4.8466L86.6825 28.9875 86.6133 29.0099 221.435 29.0099 221.366 28.9875 221.366 4.8466C221.366 2.19947 223.53 0.00498109 226.169 0.00498109L255.127 0.00498109C257.765 0.00498109 259.931 2.19947 259.931 4.8466L259.931 28.9875 259.886 29.0099 264.757 29.0099C275.334 29.0099 284.018 37.6956 284.018 48.3065L284.018 169.006 298.451 169.006C301.087 169.006 303.773 171.112 304.427 173.69L306.886 183.508C307.539 186.067 308.057 190.342 308.057 193.011L308.057 222.104C308.057 227.422 303.726 231.766 298.451 231.766" fill="#FFFFFF" fill-rule="evenodd" transform="matrix(1 0 0 -1 2312 478)"/></g></svg>