<svg width="272" height="272" xmlns="http://www.w3.org/2000/svg" xmlns:xlink="http://www.w3.org/1999/xlink" xml:space="preserve" overflow="hidden"><g transform="translate(-1696 -1497)"><path d="M-15.2858-10.0153 255.717-10.0153 255.717 260.987-15.2858 260.987Z" fill="#084250" fill-rule="evenodd" transform="matrix(1 0 0 -1 1712 1758)"/><path d="M-8.5258-3.23479 248.938-3.23479 248.938 254.229-8.5258 254.229ZM-15.2863-10.0153 255.716-10.0153 255.716 260.987-15.2863 260.987Z" fill="#FFFFFF" fill-rule="evenodd" transform="matrix(1 0 0 -1 1712 1758)"/><path d="M117.662 127.03 1.78929 127.03C-7.60073 127.03-15.2741 119.327-15.2741 109.904L-15.2741 7.15929C-15.2741-2.26347-7.60073-9.96981 1.78929-9.96981L117.662-9.96981C127.052-9.96981 134.726-2.26347 134.726 7.15929L134.726 109.904C134.726 119.327 127.052 127.03 117.662 127.03" fill="#FFFFFF" fill-rule="evenodd" transform="matrix(1 0 0 -1 1772 1731)"/><path d="M-15.2385-9.95938 97.7616-9.95938 97.7616 91.0432-15.2385 91.0432Z" fill="#084D55" fill-rule="evenodd" transform="matrix(1 0 0 -1 1791 1713)"/><path d="M-8.17177-10.08C-11.4755-10.08-14.2103-7.20073-14.2103-3.61931-14.2103-0.040411-11.4755 2.92222-8.17177 2.92222-4.84944 2.92222-2.21023-0.040411-2.21023-3.61931-2.21023-7.20073-4.84944-10.08-8.17177-10.08" fill="#FFFFFF" fill-rule="evenodd" transform="matrix(1 0 0 -1 1841 1635)"/><path d="M-2.26001 47.2907C-2.62629 47.3712-3.05238 47.2078-3.23428 46.7581L-8.28752 29.8931C-9.24186 26.599-12.1622 25.7799-15.1871 26.6819L-8.28752 49.7054C-7.13135 53.4493-3.60056 56.0273 0.0323926 56.0273L9.51096 56.0273C13.2261 56.0273 16.7569 53.4493 17.9131 49.7054L24.8127 26.6819C21.728 25.7799 18.8874 26.599 17.9131 29.8931L12.7801 46.7581C12.6979 47.2078 12.2519 47.3712 11.8059 47.2907 11.4595 47.1048 11.1954 46.6751 11.2776 46.3083L20.0435 17.2268C20.1258 17.1439 19.7794 16.2443 19.4156 16.2443L11.9055 16.2443 11.9055-6.77915C11.9055-8.56063 10.4852-9.97274 8.72108-9.97274 7.03667-9.97274 5.61389-8.56063 5.61389-6.77915L5.61389 16.2443 4.0117 16.2443 4.0117-6.77915C4.0117-8.56063 2.61134-9.97274 0.824765-9.97274-0.941877-9.97274-2.33974-8.56063-2.33974-6.77915L-2.33974 16.2443-9.79004 16.2443C-10.1339 16.2443-10.4778 16.5911-10.4778 16.9604-10.4778 17.0408-1.73176 46.3083-1.73176 46.3083-1.54986 46.6751-1.81399 47.1048-2.26001 47.2907" fill="#FFFFFF" fill-rule="evenodd" transform="matrix(1 0 0 -1 1827 1703)"/><path d="M-8.89571-10.08C-12.4747-10.08-15.4374-7.20073-15.4374-3.61931-15.4374-0.040411-12.4747 2.92222-8.89571 2.92222-5.31672 2.92222-2.43483-0.040411-2.43483-3.61931-2.43483-7.20073-5.31672-10.08-8.89571-10.08" fill="#FFFFFF" fill-rule="evenodd" transform="matrix(1 0 0 -1 1878 1635)"/><path d="M-6.30202 56.0303 6.83719 56.0303C11.8063 56.0303 15.7175 52.0213 15.7175 47.1106L15.7175 23.132C12.519 23.132 10.0332 24.7296 10.0332 28.1257L10.0332 44.6966C10.0332 45.1463 9.6881 45.5155 9.24046 45.5155 8.79282 45.5155 8.44521 45.1463 8.44521 44.6966L8.44521-6.22447C8.44521-8.27166 6.83719-9.9697 4.71901-9.9697 2.66085-9.9697 1.07284-8.27166 1.07284-6.22447L1.07284 23.8504C1.07284 24.28 0.705226 24.6467 0.277589 24.6467-0.170054 24.6467-0.537672 24.28-0.537672 23.8504L-0.537672-6.22447C-0.537672-8.27166-2.22821-9.9697-4.26387-9.9697-6.30202-9.9697-7.99256-8.27166-7.99256-6.22447L-7.99256 44.6966C-7.99256 45.1463-8.33767 45.5155-8.70529 45.5155-9.13293 45.5155-9.49804 45.1463-9.49804 44.6966L-9.49804 28.1257C-9.49804 24.7296-12.0864 23.132-15.2849 23.132L-15.2849 47.1106C-15.2849 52.0213-11.2711 56.0303-6.30202 56.0303" fill="#FFFFFF" fill-rule="evenodd" transform="matrix(1 0 0 -1 1869 1703)"/><path d="M-8.89319-10.08C-12.4949-10.08-15.3541-7.20073-15.3541-3.61931-15.3541-0.040411-12.4949 2.92222-8.89319 2.92222-5.31419 2.92222-2.35148-0.040411-2.35148-3.61931-2.35148-7.20073-5.31419-10.08-8.89319-10.08" fill="#FFFFFF" fill-rule="evenodd" transform="matrix(1 0 0 -1 1803 1635)"/><path d="M-6.31953 56.0303 6.91972 56.0303C11.8088 56.0303 15.8001 52.0213 15.8001 47.1106L15.8001 23.132C12.6015 23.132 10.1157 24.7296 10.1157 28.1257L10.1157 44.6966C10.1157 45.1463 9.75062 45.5155 9.32299 45.5155 8.87534 45.5155 8.50773 45.1463 8.50773 44.6966L8.50773-6.22447C8.50773-8.27166 6.81718-9.9697 4.77903-9.9697 2.74338-9.9697 1.05284-8.27166 1.05284-6.22447L1.05284 23.8504C1.05284 24.28 0.68522 24.6467 0.257583 24.6467-0.190061 24.6467-0.455146 24.28-0.455146 23.8504L-0.455146-6.22447C-0.455146-8.27166-2.14569-9.9697-4.18134-9.9697-6.21949-9.9697-7.91004-8.27166-7.91004-6.22447L-7.91004 44.6966C-7.91004 45.1463-8.27765 45.5155-8.7253 45.5155-9.15293 45.5155-9.51805 45.1463-9.51805 44.6966L-9.51805 28.1257C-9.51805 24.7296-12.0038 23.132-15.2024 23.132L-15.2024 47.1106C-15.2024 52.0213-11.2911 56.0303-6.31953 56.0303" fill="#FFFFFF" fill-rule="evenodd" transform="matrix(1 0 0 -1 1794 1703)"/><path d="M8.57432 17.7449 8.57432 59.8953 24.6096 59.8953 24.6096 17.6221 48.8449 37.882 48.8449 18.6642 16.7742-10.1049-15.1551 18.5415-15.1551 38.2277 8.57432 17.7449" fill="#FFFFFF" fill-rule="evenodd" transform="matrix(1 0 0 -1 1853 1584)"/><path d="M25.6016 32.048 25.6016-10.1049 9.30807-10.1049 9.30807 32.1482-15.3136 11.9109-15.3136 31.1287 17.2709 59.8953 49.6867 31.2314 49.6867 11.5627 25.6016 32.048" fill="#FFFFFF" fill-rule="evenodd" transform="matrix(1 0 0 -1 1777 1584)"/></g></svg>