<svg width="697" height="697" xmlns="http://www.w3.org/2000/svg" xmlns:xlink="http://www.w3.org/1999/xlink" xml:space="preserve" overflow="hidden"><g transform="translate(-2360 24)"><path d="M691.523-12.2412-4.4794-12.2412-4.4794 674.75C-4.4794 679.66 0.43934 683.761 5.34312 683.761L682.508 683.761C687.426 683.761 691.523 679.66 691.523 674.75" fill="#084D55" fill-rule="evenodd" transform="matrix(1 0 0 -1 2365 660)"/><path d="M271.522 85.3959C237.115 60.7808 150.305-12.2532 91.3487-12.2532 61.8621-12.2532 44.6515 4.97623 44.6515 25.4844 44.6515 40.2576 50.394 59.1339 55.3137 76.3633L118.367 292.187C120.833 300.397 123.287 311.063 123.287 317.624 123.287 323.378 118.367 330.749 112.639 330.749 88.8804 330.749 39.7486 295.467 9.43929 274.133L-4.4803 283.152C29.1014 307.782 115.914 380.816 174.885 380.816 203.549 380.816 219.922 361.116 219.922 337.325 219.922 327.468 214.194 306.958 209.276 292.187L145.4 76.3633C142.949 68.1683 141.303 57.5002 141.303 50.9239 141.303 45.187 145.4 37.8013 153.594 37.8013 176.515 37.8013 225.662 73.0808 255.956 94.4153ZM156.046 468.608C156.046 494.063 181.435 513.747 212.55 513.747 243.681 513.747 268.247 494.063 268.247 468.608 268.247 443.169 243.681 423.483 212.55 423.483 181.435 423.483 156.046 443.169 156.046 468.608" fill="#FFFFFF" fill-rule="evenodd" transform="matrix(1 0 0 -1 2576 575)"/></g></svg>