<svg width="198" height="539" xmlns="http://www.w3.org/2000/svg" xmlns:xlink="http://www.w3.org/1999/xlink" xml:space="preserve" overflow="hidden"><g transform="translate(-2406 -1484)"><path d="M53.3833 15.2519 53.2534 137.718C53.2387 146.641 46.0356 153.86 37.1672 153.855L-0.61731 153.619-0.452572-1.14605 37.332-0.910313C46.2052-0.900465 53.3882 6.33834 53.3833 15.2519" fill="#FFFFFF" fill-rule="evenodd" transform="matrix(1 0 0 -1 2549 1639)"/><path d="M53.3827 15.7695 53.2535 138.235C53.2431 147.154 46.0412 154.378 37.1632 154.372L-0.617254 154.137-0.448244-0.627802 37.328-0.38776C46.2059-0.382221 53.3876 6.85658 53.3827 15.7695" fill="#FFFFFF" fill-rule="evenodd" transform="matrix(1 0 0 -1 2550 2022)"/><path d="M91.9199 267.82C92.0045 187.55 100.878 173.63 109.146 162.335 116.278 152.565 125.331 153.803 125.331 153.803L125.497-0.88649C125.497-0.88649 76.941 5.33125 39.7356 77.8309-1.41014 157.982-1.21019 237.881-0.259811 267.996 0.694268 298.11 0.519004 377.023 39.3234 458.296 73.719 530.354 124.923 537.113 124.923 537.113L125.089 382.424C125.089 382.424 117.475 382.429 108.91 373.876 100.665 365.638 91.8243 359.169 91.9199 267.82" fill="#FFFFFF" fill-rule="evenodd" transform="matrix(1 0 0 -1 2407 2022)"/></g></svg>