<svg width="370" height="371" xmlns="http://www.w3.org/2000/svg" xmlns:xlink="http://www.w3.org/1999/xlink" xml:space="preserve" overflow="hidden"><defs><clipPath id="clip0"><rect x="1653" y="779" width="370" height="371"/></clipPath></defs><g clip-path="url(#clip0)" transform="translate(-1653 -779)"><path d="M0.00070448 0.00147941 370.001 0.00147941 370.001 370.002 0.00070448 370.002Z" fill="#5AB331" fill-rule="evenodd" transform="matrix(1 0 0 -1 1653 1150)"/><path d="M80.8969 108.72C80.8969 115.751 75.1926 121.439 68.1716 121.439L38.4862 121.439C31.4635 121.439 25.773 115.751 25.773 108.72L25.773 98.1283C25.773 91.109 31.4635 85.4209 38.4862 85.4209L68.1716 85.4209C75.1926 85.4209 80.8969 91.109 80.8969 98.1283L80.8969 108.72 246.282 108.72C246.282 115.751 240.578 121.439 233.556 121.439L203.886 121.439C196.85 121.439 191.159 115.751 191.159 108.72L191.159 98.1283C191.159 91.109 196.85 85.4209 203.886 85.4209L233.556 85.4209C240.578 85.4209 246.282 91.109 246.282 98.1283L246.282 108.72ZM231.916 160.652C240.536 160.652 247.445 165.456 247.304 176.466 246.604 230.277 232.574 281.915 198.726 288.077 179.611 291.567 162.748 292.842 136.021 292.842 109.293 292.842 92.4469 291.567 73.3288 288.077 39.4809 281.915 25.4375 230.277 24.7509 176.466 24.6097 165.456 31.4912 160.652 40.1399 160.652ZM135.951 309.008 136.106 309.008C234.999 309.008 258.784 297.409 270.277 159.474 271.258 147.819 272.478 103.101 271.861 93.5616 269.969 63.8626 258.013 47.5828 223.198 47.5828L262.863 0.00789735 228.02 0.00789735 200.97 32.9011 71.0728 32.9011 44.0358 0.00789735 9.17942 0.00789735 48.8437 47.5828C14.0424 47.5828 2.10172 63.8626 0.194992 93.5616-0.421084 103.101 0.78367 147.819 1.77813 159.474 13.2577 297.409 37.0423 309.008 135.951 309.008L136.106 309.008" fill="#FFFFFF" fill-rule="evenodd" transform="matrix(1 0 0 -1 1702 1120)"/></g></svg>