<svg width="183" height="183" xmlns="http://www.w3.org/2000/svg" xmlns:xlink="http://www.w3.org/1999/xlink" xml:space="preserve" overflow="hidden"><g transform="translate(-3649 -1536)"><path d="M-4.74892-5.99004 177.253-5.99004 177.253 176.011-4.74892 176.011Z" fill="#084250" fill-rule="evenodd" transform="matrix(1 0 0 -1 3654 1713)"/><path d="M-0.208818-1.44994 172.701-1.44994 172.701 171.455-0.208818 171.455ZM-4.74892-5.99004 177.253-5.99004 177.253 176.011-4.74892 176.011Z" fill="#FFFFFF" fill-rule="evenodd" transform="matrix(1 0 0 -1 3654 1713)"/><path d="M103.43 10.5155 101.495-0.598816C101.055-3.09866 102.73-5.47537 105.228-5.92912 107.712-6.36937 110.102-4.69269 110.54-2.19285L116.362 30.8905 126.396 20.8337C126.56 20.6836 126.656 20.4626 126.656 20.2164L126.656 0.0337361C126.656-2.49478 128.715-4.55606 131.255-4.55606 133.795-4.55606 135.853-2.49478 135.853 0.0337361L135.853 24.5987C135.853 25.8891 135.332 27.058 134.494 27.9099L124.075 38.3512 126.039 49.727 133.63 48.2156C137.912 47.4599 140.548 50.2769 141.249 54.2881L127.315 56.9128 128.592 64.1391C129.484 69.1944 126.108 74.017 121.055 74.9093 118.475 75.363 115.977 74.7035 114.014 73.2883L97.7469 61.8855C97.0053 61.3626 96.4576 60.5529 96.2789 59.5644L95.0149 51.8692 100.287 51.8692C100.287 51.8692 101.343 51.9654 102.127 51.3885L102.661 55.0016C102.703 55.1939 102.813 55.3457 102.95 55.4554L108.934 59.6454 106.492 45.8794C108.702 42.2393 109.95 34.6132 110.156 29.5714 110.431 22.5644 110.239 14.2248 103.43 10.5155ZM125.943 76.0783C121.551 76.0783 117.981 79.6492 117.981 84.0467 117.981 88.4425 121.551 92.0017 125.943 92.0017 130.335 92.0017 133.904 88.4425 133.904 84.0467 133.904 79.6492 130.335 76.0783 125.943 76.0783ZM60.5344 30.4502C60.5344 32.7324 62.1944 34.5862 64.2539 34.5862L75.4413 34.5862C77.4856 34.5862 79.1608 32.7324 79.1608 30.4502L79.1608 27.979C79.1608 25.6968 77.4856 23.843 75.4413 23.843L64.2539 23.843C62.1944 23.843 60.5344 25.6968 60.5344 27.979ZM57.8294 80.4471C66.669 80.4471 69.6487 75.9399 71.0897 70.1559 71.0897 70.1559 74.3846 55.7725 74.8362 53.8479 75.4278 51.321 73.8621 49.4386 71.2127 49.4386 70.9936 49.4386 14.2867 49.4386 14.0676 49.4386 11.4048 49.4386 9.83907 51.321 10.4306 53.8479 10.8823 55.7725 14.1772 70.1559 14.1772 70.1559 15.6333 75.9399 18.5978 80.4471 27.4375 80.4471ZM24.7477 27.979C24.7477 25.6968 23.0724 23.843 21.0129 23.843L9.83907 23.843C7.78126 23.843 6.10602 25.6968 6.10602 27.979L6.10602 30.4502C6.10602 32.7324 7.78126 34.5862 9.83907 34.5862L21.0129 34.5862C23.0724 34.5862 24.7477 32.7324 24.7477 30.4502ZM71.7065 8.96368 71.7065-0.956418C71.7065-3.70422 73.7121-5.92912 76.1828-5.92912L78.4193-5.92912C80.89-5.92912 82.8956-3.70422 82.8956-0.956418L82.8956 11.4365C85.9831 12.6173 90.0195 15.9572 90.0195 26.7004 90.0195 37.4437 87.4528 45.564 82.2214 49.6308L76.2789 73.3844C74.548 80.3374 71.1167 85.0082 60.5192 85.7352L53.0666 86.1063 32.2003 86.1063 24.7611 85.7352C14.1502 85.0082 10.7188 80.3374 9.00313 73.3844L3.05891 49.6308C-2.17073 45.564-4.75268 37.4437-4.75268 26.7004-4.75268 15.9572-0.716273 12.6173 2.38645 11.4365L2.38645-0.956418C2.38645-3.70422 4.39033-5.92912 6.84757-5.92912L9.08403-5.92912C11.5548-5.92912 13.5603-3.70422 13.5603-0.956418L13.5603 8.96368ZM107.357 18.6088C106.244 14.046 102.141 10.6539 97.2261 10.6539L85.4624 10.6808C88.5499 11.8616 92.106 15.9977 92.106 26.7409 92.106 37.4859 89.9235 45.8254 84.8573 50.0424 84.8573 50.0424 99.5586 50.0424 100.26 50.0424 100.946 50.0424 101.316 49.7405 101.495 49.5887 106.189 45.2333 108.4 36.634 108.235 26.7409 108.139 21.4393 107.357 18.6088 107.357 18.6088" fill="#FFFFFF" fill-rule="evenodd" transform="matrix(1 0 0 -1 3672 1671)"/></g></svg>