<svg width="168" height="167" xmlns="http://www.w3.org/2000/svg" xmlns:xlink="http://www.w3.org/1999/xlink" xml:space="preserve" overflow="hidden"><g transform="translate(-3078 -940)"><path d="M45.7781 70.5104 45.7781 78.3001C45.7781 78.3001 41.3563 77.0065 35.1814 76.3362 24.2993 75.6985 14.3749 78.6014 14.3749 78.6014L14.3749 70.5104C9.56899 69.3499 5.54571 67.4806 2.83515 65.2749L61.0766 7.48334 61.0766 59.2243C61.0766 64.1173 54.8367 68.3134 45.7781 70.5104ZM1.7073 64.2619C0.022652 62.5848-0.923615 60.7568-0.923615 58.9259L-0.923615 43.6714 44.4987-1.39907 61.0766-1.39907 61.0766 5.3483ZM-0.923615 41.5363-0.923615-1.39907 42.3471-1.39907ZM44.8735 36.6525C46.6828 39.6496 48.998 45.5407 43.1626 50.3361 37.6245 45.1419 40.1422 39.3484 42.0526 36.4516 38.8328 37.2518 31.2834 40.3465 33.9019 50.6345 33.9019 50.6345 34.8066 47.5398 37.7257 46.4412 37.7257 46.4412 34.2026 49.536 36.8211 56.2271 36.8211 56.2271 38.8328 54.8306 40.7461 52.5331 40.7461 52.5331 39.0352 57.0273 43.3621 62.2215 47.5907 57.0273 46.0788 52.2319 46.0788 52.2319 47.891 54.5293 49.9056 55.9288 49.9056 55.9288 52.5215 49.2376 48.998 46.14 48.998 46.14 51.9172 47.2385 52.8218 50.4365 52.8218 50.4365 55.1371 41.545 48.8968 37.9515 44.8735 36.6525" fill="#241F1F" fill-rule="evenodd" transform="matrix(1 0 0 -1 3151 1068)"/><path d="M50.0393-1.57924-0.904354-1.57924-0.904354 0.772537 1.5608 2.42096 46.6884 2.42096ZM48.7951 2.42096 64.6309 2.42096 67.0961 0.772537 67.0961-1.57924 52.146-1.57924 48.7951 2.42096" fill="#241F1F" fill-rule="evenodd" transform="matrix(1 0 0 -1 3148 1073)"/><path d="M32.1507-1.59988-0.849639-1.59988-0.849639 0.75168 1.62145 2.40025 32.1507 2.40025 32.1507-1.59988" fill="#241F1F" fill-rule="evenodd" transform="matrix(1 0 0 -1 3114 1060)"/><path d="M-0.879424 3.53982C-0.879424 0.77079 1.4282-1.4048 4.23689-1.4048L32.3275-1.4048 32.3275 32.0379-0.879424 64.7758ZM32.3275 34.1492 32.3275 45.7168C32.3275 48.8104 33.9174 51.3838 36.0943 53.41L9.53419 79.595 7.95014 79.595 6.04308 79.595C5.44114 79.595 4.83884 79.101 4.83884 78.5072L4.83884 74.1535 4.23689 74.1535C1.4282 74.1535-0.879424 71.9779-0.879424 69.2089L-0.879424 66.8872ZM37.2421 54.3894C37.4052 54.5183 37.5683 54.641 37.7344 54.7638 40.6589 56.9132 44.5415 58.4422 47.8753 59.2202L47.9761 69.7029C47.9761 69.7029 54.095 67.9251 62.02 67.5273L62.1208 67.5273 62.1208 68.9134C62.1208 71.6824 59.8132 73.858 57.0045 73.858L56.4022 73.858 56.4022 78.2092C56.4022 78.8026 55.8003 79.297 55.198 79.297L44.1646 79.297C43.5626 79.297 43.0616 78.8026 43.0616 78.2092L43.0616 73.858 25.5058 73.858 25.5058 78.5072C25.5058 79.101 25.0015 79.595 24.3016 79.595L11.6754 79.595ZM18.4825 17.0899C20.2887 20.1572 22.3945 25.9908 16.6763 30.7397 11.1594 25.593 13.7664 19.8589 15.6738 16.9904 12.3636 17.7827 4.73797 20.8472 7.44615 31.0348 7.44615 31.0348 8.35071 27.9675 11.1594 26.8797 11.1594 26.8797 7.64789 29.947 10.2548 36.5732 10.2548 36.5732 12.3636 35.19 14.1698 32.8155 14.1698 32.8155 12.4616 37.3656 16.7772 42.5062 21.0894 37.3656 19.485 32.6166 19.485 32.6166 21.2912 34.8916 23.397 36.2749 23.397 36.2749 26.0069 29.6487 22.4954 26.5846 22.4954 26.5846 25.3041 27.6723 26.3066 30.8359 26.3066 30.8359 28.5134 22.0345 22.4954 18.476 18.4825 17.0899" fill="#241F1F" fill-rule="evenodd" transform="matrix(1 0 0 -1 3114 1054)"/><path d="M82.6078 164.605C105.661 164.605 126.538 155.312 141.649 140.291 156.761 125.273 166.108 104.522 166.108 81.6066 166.108 58.6888 156.761 37.9376 141.649 22.9197 126.538 7.89884 105.661-1.39484 82.6078-1.39484 59.5544-1.39484 38.6778 7.89884 23.5663 22.9197 8.45471 37.9376-0.892234 58.6916-0.892234 81.6066-0.892234 104.519 8.45471 125.273 23.5663 140.291 38.6778 155.312 59.5544 164.605 82.6078 164.605ZM41.2761 134.191 42.7488 132.728C73.1784 102.481 103.608 72.2338 134.038 41.9869L135.51 40.5231 135.513 40.5288C135.525 40.5407 135.537 40.5554 135.549 40.5698L135.552 40.5759C135.634 40.6813 135.758 40.8366 135.893 41.0124L135.902 41.0239C135.917 41.0415 135.932 41.062 135.947 41.0796L135.964 41.1029C136.07 41.2435 136.182 41.3898 136.27 41.5099L136.279 41.5189C136.309 41.5566 136.338 41.598 136.368 41.6328L136.432 41.7209 136.432 41.7238C144.793 52.8473 149.744 66.653 149.744 81.6066 149.744 100.03 142.227 116.714 130.076 128.789 117.927 140.868 101.143 148.337 82.6078 148.337 67.5668 148.337 53.6776 143.415 42.4837 135.108 42.416 135.055 42.3455 135.006 42.2775 134.956L42.2688 134.947C42.1361 134.848 41.9889 134.739 41.871 134.648L41.8504 134.634C41.8269 134.613 41.8034 134.596 41.7799 134.578L41.7679 134.569C41.6088 134.449 41.4381 134.317 41.3289 134.23L41.3202 134.227C41.3086 134.215 41.2967 134.206 41.2818 134.194ZM123.94 29.0189 29.7052 122.687C20.7883 111.362 15.4714 97.0991 15.4714 81.6066 15.4714 63.1807 22.9887 46.4993 35.1371 34.421 47.2884 22.343 64.0731 14.8734 82.6078 14.8734 98.1939 14.8734 112.542 20.1584 123.94 29.0189" fill="#EF3928" fill-rule="evenodd" transform="matrix(1 0 0 -1 3079 1105)"/></g></svg>