<svg width="168" height="168" xmlns="http://www.w3.org/2000/svg" xmlns:xlink="http://www.w3.org/1999/xlink" xml:space="preserve" overflow="hidden"><g transform="translate(-3061 -1206)"><path d="M92.8058 85.0907C93.3319 85.5331 92.7029 87.1264 91.4096 88.6527 90.1166 90.1758 88.641 91.0548 88.1148 90.6124 88.0795 90.583 88.0531 90.5481 88.0297 90.5099 87.4772 89.8712 80.8725 83.0753 76.2108 78.453L77.4128 83.4676 69.3712 80.0815 69.6032 88.3305 62.2404 83.4414 60.724 91.3361 54.3547 85.158 51.1566 92.3524 46.0658 85.158 41.3247 91.3361 37.7301 83.4414 31.6516 88.3305 29.7119 80.0815 22.5638 83.4737 22.3668 75.2248 14.4572 76.9677 16.0093 69.0849 7.69087 69.1025 10.9214 61.9285 2.55316 60.2238 7.3235 54.072-0.730041 50.715 5.3748 45.8525-2.00861 40.9929 5.1572 37.636-1.23273 31.4841 6.68585 29.7765 1.56257 22.6026 9.88965 22.6202 6.26255 14.7374 14.6275 16.4803 12.6525 8.23419 20.6941 11.6235 20.4592 3.37172 27.8278 8.26081 29.3417 0.369001 35.7078 6.5442 38.9087-0.64737 43.9995 6.5442 48.7435 0.369001 52.3381 8.26081 58.4137 3.37172 60.3534 11.6207 67.5019 8.23132 67.7018 16.4774 75.6081 14.7374 74.0564 22.6173 82.3773 22.5997 79.1472 29.7736 87.5151 31.4813 82.7418 37.6327 90.7954 40.9897 84.6905 45.8497 92.0739 50.7092 84.9081 54.0691 91.3009 60.2209 83.3798 61.9257 88.5028 69.1025 80.1757 69.0849 83.8028 76.9648 79.1266 75.9923C85.2051 80.0377 92.9353 84.9411 92.9353 84.9411L92.8058 85.0907" fill="#241F1F" fill-rule="evenodd" transform="matrix(1 0 0 -1 3100 1338)"/><path d="M81.487 166.346C104.54 166.346 125.417 156.996 140.529 141.885 155.638 126.776 164.987 105.9 164.987 82.8472 164.987 59.7913 155.638 38.9151 140.529 23.8038 125.417 8.69253 104.54-0.654246 81.487-0.654246 58.4339-0.654246 37.5574 8.69253 22.4455 23.8038 7.3339 38.9151-2.01304 59.7942-2.01304 82.8472-2.01304 105.897 7.3339 126.776 22.4455 141.885 37.5574 156.996 58.4339 166.346 81.487 166.346ZM40.1556 135.749 41.6283 134.276C72.058 103.847 102.487 73.4151 132.917 42.986L134.39 41.5162 134.393 41.522C134.404 41.5339 134.416 41.5484 134.428 41.5632L134.431 41.5694C134.514 41.6753 134.637 41.8316 134.773 42.0081L134.782 42.02C134.793 42.0377 134.811 42.0583 134.826 42.0757L134.843 42.0996C134.949 42.241 135.062 42.3882 135.15 42.5061L135.158 42.5176C135.209 42.5856 135.262 42.6533 135.312 42.7209 143.672 53.9147 148.624 67.8036 148.624 82.8472 148.624 101.382 141.106 118.166 128.955 130.314 116.807 142.465 100.022 149.98 81.487 149.98 66.4463 149.98 52.5568 145.028 41.3632 136.671L41.2894 136.615C41.2453 136.583 41.2012 136.55 41.1571 136.518L41.148 136.509C41.0157 136.409 40.8685 136.297 40.7502 136.209L40.7299 136.191C40.7061 136.173 40.6826 136.155 40.659 136.138L40.6475 136.129C40.4883 136.008 40.3173 135.875 40.2084 135.787L40.1997 135.781C40.1878 135.772 40.173 135.764 40.1614 135.752ZM122.819 29.9427 28.5844 124.175C19.6679 112.781 14.3506 98.433 14.3506 82.8472 14.3506 64.3099 21.8682 47.5256 34.0163 35.3774 46.1647 23.2263 62.9526 15.7091 81.487 15.7091 97.0731 15.7091 111.422 21.0259 122.819 29.9427" fill="#EF3928" fill-rule="evenodd" transform="matrix(1 0 0 -1 3064 1373)"/><path d="M-0.81061 93.3453C30.8187 62.0486 61.354 31.8319 92.9833 0.535194 92.9215 0.454093 92.7099 0.174349 92.5157-0.0786 92.3276-0.322974 92.1543-0.541268 92.0629-0.654881 60.704 30.3739 29.3452 61.4055-2.0166 92.4343-1.89311 92.5275-1.63133 92.7283-1.42263 92.8884-1.23126 93.0338-0.972732 93.226-0.81061 93.3453" fill="#FFFFFF" fill-rule="evenodd" transform="matrix(1 0 0 -1 3106 1330)"/><path d="M91.7914-0.644877C60.1621 30.9844 29.6264 61.5229-2.00287 93.1523-1.94113 93.2346-1.72954 93.5169-1.53528 93.7729-1.34428 94.0199-1.17349 94.2405-1.0825 94.355 30.2764 62.9965 61.6356 31.6344 92.9974 0.275499 92.8739 0.18162 92.6121-0.0213033 92.403-0.183064 92.212-0.327133 91.9531-0.524279 91.7914-0.644877" fill="#FFFFFF" fill-rule="evenodd" transform="matrix(1 0 0 -1 3094 1343)"/></g></svg>