<svg width="468" height="468" xmlns="http://www.w3.org/2000/svg" xmlns:xlink="http://www.w3.org/1999/xlink" xml:space="preserve" overflow="hidden"><g transform="translate(-1121 -883)"><path d="M-2.47949-10.5248 464.522-10.5248 464.522 456.475-2.47949 456.475Z" fill="#FFFFFF" fill-rule="evenodd" transform="matrix(1 0 0 -1 1124 1340)"/><path d="M-2.48703-10.5332 442.514-10.5332 442.514 433.467-2.48703 433.467Z" fill="#084250" fill-rule="evenodd" transform="matrix(1 0 0 -1 1135 1328)"/><path d="M22.8687-10.7632C9.20523-10.7632-2.36428 0.832616-2.36428 15.7302-2.36428 30.6413 9.20523 42.2388 22.8687 42.2388 37.0644 42.2388 48.6356 30.6413 48.6356 15.7302 48.6356 0.832616 37.0644-10.7632 22.8687-10.7632" fill="#FFFFFF" fill-rule="evenodd" transform="matrix(1 0 0 -1 1237 972)"/><path d="M112.727 56.006C105.596 56.006 98.6704 62.5831 98.6704 70.2077L98.6704 111.71 69.9636 131.318 67.7291 131.262 61.529 131.373 57.5652 4.03277C57.5787-2.42101 51.2978-10.6234 42.9861-10.5406 34.661-10.4443 28.2842-2.95827 28.3936 3.68812L30.6972 133.134 33.1523 210.125 18.9302 195.153 21.8113 163.119C21.8113 156.884 17.5595 152.811 11.1119 152.811 4.7216 152.811 1.40267 157.312 0.909296 163.365L-2.38269 202.983C-2.38269 205.514-0.900877 208.474 0.552313 210.358L40.5445 253.031C46.3051 258.423 55.5631 260.461 65.3414 260.461 77.2464 260.461 87.6562 257.254 92.9772 249.755L148.166 192.732C153.722 186.993 157.603 180.154 151.581 172.958 146.206 166.545 136.975 168.128 131.435 173.838L95.6529 210.73 93.9101 152.688 117.569 135.143C122.753 131.304 127.32 126.832 127.443 120.172L127.403 69.5471C127.403 61.882 120.216 56.006 112.727 56.006" fill="#FFFFFF" fill-rule="evenodd" transform="matrix(1 0 0 -1 1194 1249)"/><path d="M57.8439 93.5417 118.575 93.5417 118.575 162.671 178.562 162.671 178.562 232.224 239.471 232.224 239.471 300.529 323.487 300.529 323.487 265.917 269.589 265.917 269.562 196.625 209.106 196.625 209.106 127.907 148.389 127.907 148.389 58.67 88.0311 58.67 88.0311-10.4723-2.51532-10.4723-2.51532 24.4146 57.8439 24.4146C57.8439 43.0508 57.8439 74.8919 57.8439 93.5417" fill="#FFFFFF" fill-rule="evenodd" transform="matrix(1 0 0 -1 1219 1293)"/></g></svg>