<svg width="213" height="180" xmlns="http://www.w3.org/2000/svg" xmlns:xlink="http://www.w3.org/1999/xlink" xml:space="preserve" overflow="hidden"><g transform="translate(-1986 -1037)"><path d="M195.222 61.279C195.222 59.1192 193.449 57.3536 191.297 57.3536L160.369 57.3565C158.211 57.3565 157.055 59.0163 157.808 61.0405L162.445 73.5616C163.198 75.5862 165.577 77.246 167.735 77.246L191.297 77.246C193.452 77.246 195.222 75.4771 195.222 73.3145ZM139.154 73.5735 132.064 54.4258C131.315 52.3982 128.933 50.7414 126.775 50.7414L81.6152 50.7414C79.4541 50.7414 77.0754 52.3982 76.3255 54.4258L69.2359 73.5735C68.4831 75.6007 69.6388 77.2575 71.7973 77.2575L136.59 77.2575C138.748 77.2575 139.904 75.5978 139.151 73.5735ZM48.0063 57.3565 17.0844 57.3536C14.9259 57.3507 13.1587 59.1192 13.1587 61.279L13.1587 73.3145C13.1587 75.4771 14.923 77.246 17.0844 77.246L40.6401 77.246C42.7986 77.246 45.1773 75.5862 45.93 73.5616L50.5673 61.0405C51.3168 59.0163 50.1644 57.3565 48.0063 57.3565ZM33.7833 109.918 47.903 145.118C49.7496 149.726 55.3219 153.492 60.2823 153.492L148.105 153.492C153.065 153.492 158.637 149.726 160.484 145.118L174.604 109.918C175.962 106.534 174.101 103.529 170.47 103.241 170.47 103.241 135.611 100.46 104.204 100.46L104.195 100.472 104.192 100.472 104.186 100.46C72.7764 100.46 37.9173 103.241 37.9173 103.241 34.2858 103.529 32.4248 106.534 33.7833 109.918ZM210.189 71.3693C210.174 74.609 208.46 79.2616 206.346 81.7187L194.146 95.9725C192.032 98.4328 189.286 102.891 188.021 105.877L168.95 151.203C166.121 157.924 157.846 163.424 150.557 163.424L132.097 163.438 126.951 171.695C125.237 174.447 121.185 176.695 117.948 176.695L90.425 176.695C87.1846 176.695 83.1354 174.447 81.4213 171.695L76.2725 163.438 57.8155 163.424C50.5262 163.424 42.2488 157.924 39.4227 151.203L20.3484 105.877C19.0928 102.891 16.3404 98.4328 14.232 95.9725L2.02314 81.7187C-0.084839 79.2587-1.81122 74.5945-1.81122 71.3516L-1.80797 34.157 1.50291 27.5389 1.50291 1.62325C1.50291-0.536508 3.26721-2.30536 5.42825-2.30536L30.6984-2.30536C32.8598-2.30536 34.6241-0.536508 34.6241 1.62325L34.6241 24.2224 173.748 24.2224 173.748 1.62325C173.748-0.536508 175.512-2.30536 177.671-2.30536L202.947-2.30536C205.099-2.30536 206.873-0.536508 206.873 1.62325L206.873 27.5389 210.174 34.157 210.189 71.3693" fill="#2E2A26" fill-rule="evenodd" transform="matrix(1 0 0 -1 1988 1214)"/></g></svg>