<?xml version="1.0" encoding="UTF-8" standalone="no"?>
<!-- Created with Inkscape (http://www.inkscape.org/) -->

<svg
   width="39.952084mm"
   height="45.779137mm"
   viewBox="0 0 39.952084 45.779137"
   version="1.1"
   id="svg1"
   xmlns="http://www.w3.org/2000/svg"
   xmlns:svg="http://www.w3.org/2000/svg">
  <defs
     id="defs1">
    <clipPath
       id="clip0-97">
      <rect
         x="64"
         y="54"
         width="151"
         height="201"
         id="rect1-8" />
    </clipPath>
  </defs>
  <g
     id="layer1"
     transform="translate(-85.195833,-125.67709)">
    <g
       clip-path="url(#clip0-97)"
       transform="matrix(0.26458333,0,0,0.26458333,68.2625,111.38958)"
       id="g3">
      <path
         d="M 2.87504e-4,0.0235352 H 151 V 65.0235 H 2.87504e-4 Z"
         fill="#034750"
         fill-rule="evenodd"
         transform="matrix(-1,0,0,1,215,162)"
         id="path1" />
      <path
         d="m 10.458984,-19.224609 h 1.792969 q 2.76416,0 4.059082,-0.398438 3.486328,-1.095703 3.486328,-5.304199 0,-2.938477 -1.892578,-4.133789 -1.270019,-0.821777 -5.20459,-0.821777 h -2.241211 z m 0,15.3896481 h 2.241211 q 3.112793,0 4.45752,-0.4731446 1.693359,-0.5727539 2.614746,-2.1166992 0.896484,-1.4941406 0.896484,-3.5859373 0,-3.461426 -2.34082,-4.78125 -1.543945,-0.871582 -6.076172,-0.871582 H 10.458984 Z M 2.7641602,-33.667969 H 13.770996 q 5.652832,0 8.317383,1.17041 4.283203,1.867676 4.283203,6.524414 0,3.013184 -1.817871,5.179688 -1.120606,1.369629 -2.813965,2.191406 -0.921387,0.448242 -2.714355,0.84668 3.1875,0.498047 4.905761,1.469238 3.785157,2.166504 3.785157,6.648926 0,3.5361328 -2.415528,6.0263672 -2.191406,2.2412109 -5.852051,3.03808589 Q 16.759277,0 12.202148,0 H 3.7851563 v -24.080566 q -0.024902,-1.69336 2.0170898,-3.660645 1.5439453,-1.444336 3.4365234,-1.992187 v -0.149414 H 3.0629883 Z M 48.459961,-4.3330078 q -2.614746,4.68164061 -8.068359,4.68164061 -7.819336,0 -7.819336,-8.91503911 V -25.201172 h 6.375 v 15.3149415 q 0,2.2910157 0.273925,3.3369141 0.747071,2.8637695 3.660645,2.8637695 2.564941,0 3.810059,-2.1914062 1.270019,-2.1914063 1.270019,-7.2963869 v -12.027832 h 6.375 V 0 H 52.494141 Q 50.526855,0 49.40625,-1.5439453 48.55957,-2.7392578 48.459961,-4.3330078 Z m 27.019043,-20.2954102 -1.070801,3.93457 q -2.34082,-1.394531 -5.254394,-1.394531 -3.61084,0 -3.61084,2.490234 0,0.921387 0.547851,1.543946 0.622559,0.722168 2.340821,1.643554 l 2.564941,1.369629 q 3.013184,1.643555 4.283203,3.486328 1.27002,1.8427739 1.27002,4.382813 0,3.4116211 -2.340821,5.4536133 -2.515136,2.21630858 -6.922851,2.21630858 -2.589844,0 -5.378906,-0.79687501 -1.294922,-0.37353515 -2.390625,-0.92138667 l 1.270019,-4.2333985 q 3.112793,2.1166992 6.225586,2.1166992 1.294922,0 2.241211,-0.3984375 1.543945,-0.6474609 1.543945,-2.1914062 0,-1.3447266 -1.344726,-2.4902344 -0.697266,-0.5976562 -2.888672,-1.8427738 l -2.091797,-1.17041 q -2.689453,-1.49414 -3.785156,-3.287109 -1.020996,-1.668457 -1.020996,-3.785156 0,-4.03418 3.1875,-5.876954 2.291015,-1.319824 5.627929,-1.319824 4.059082,0 6.997559,1.070801 z"
         id="text1"
         style="font-size:51px;font-family:LTA-Identity, LTA-Identity_MSFontService, sans-serif;fill:#ffffff"
         transform="translate(101.277,211)"
         aria-label="Bus" />
      <path
         d="M 2.87504e-4,4.31827e-4 H 151 V 108.001 H 2.87504e-4 Z"
         fill="#00a3c9"
         fill-rule="evenodd"
         transform="matrix(1,0,0,-1,64,162)"
         id="path2" />
      <path
         d="m 77.364,37.8121 c 0,-2.6425 -2.7945,-7.0307 -32.3437,-7.0307 -29.5498,0 -32.3501,4.3882 -32.3501,7.0307 v 35.3136 c 0,1.5485 1.2711,2.8138 2.8132,2.8138 H 74.55 c 1.5488,0 2.814,-1.2653 2.814,-2.8138 z M 74.2733,22.5381 73.4229,18.268 C 73.2716,17.5099 72.5133,16.8902 71.7423,16.8902 H 60.4871 c -0.7778,0 -1.4102,0.6326 -1.4102,1.4037 v 4.2175 c 0,0.7775 0.6324,1.4037 1.4102,1.4037 h 12.659 c 0.771,0 1.2848,-0.6197 1.1272,-1.377 z M 30.9574,18.2939 c 0,-0.7711 -0.6327,-1.4037 -1.4103,-1.4037 H 18.2975 c -0.7711,0 -1.5284,0.6197 -1.6805,1.3778 l -0.8569,4.2701 c -0.1513,0.7573 0.356,1.377 1.1336,1.377 h 12.6534 c 0.7776,0 1.4103,-0.6262 1.4103,-1.4037 z M 19.7012,84.3804 c 0,0.771 0.6328,1.4035 1.4103,1.4035 h 47.8104 c 0.7777,0 1.4102,-0.6325 1.4102,-1.4035 v -2.8141 c 0,-0.7774 -0.6325,-1.4092 -1.4102,-1.4092 H 21.1115 c -0.7775,0 -1.4103,0.6318 -1.4103,1.4092 z M 87.2098,67.5047 h -4.4483 c -0.0202,0.4748 -0.046,0.9425 -0.0662,1.3971 l -0.8175,15.4849 c -0.164,3.0905 -2.8268,5.6148 -5.9176,5.6148 H 75.9538 14.0804 c -3.098,0 -5.75994,-2.5243 -5.92499,-5.6148 L 7.34471,68.9018 C 7.31882,68.4472 7.2994,67.9795 7.27269,67.5047 H 2.83075 c -1.54862,0 -2.8140473,-1.2654 -2.8140473,-2.8141 v -8.4738 c 0,-0.7775 0.1521093,-2.0226 0.3430553,-2.7677 L 1.07823,50.5893 C 1.26918,49.8384 2.0532,49.2251 2.83075,49.2251 h 4.21782 v 0.0071 -35.1624 c 0,-3.0905 2.53084,-5.62032 5.62163,-5.62032 h 1.4232 L 14.0804,8.44297 V 1.41163 c 0,-0.771008 0.6328,-1.4101792 1.403,-1.4101792 h 8.4421 c 0.7711,0 1.4038,0.6391712 1.4038,1.4101792 V 8.44297 L 25.3091,8.44948 H 64.705 L 64.6848,8.44297 V 1.41163 c 0,-0.771008 0.6325,-1.4101792 1.4035,-1.4101792 H 74.55 c 0.771,0 1.4038,0.6391712 1.4038,1.4101792 v 7.03134 l -0.0131,0.00651 h 1.4233 c 3.0908,0 5.6282,2.52982 5.6282,5.62032 v 35.1553 h 4.2176 c 0.7702,0 1.5551,0.6133 1.7461,1.3642 l 0.7186,2.8598 c 0.1909,0.7451 0.3422,1.9902 0.3422,2.7677 v 8.4738 c 0,1.5487 -1.2656,2.8141 -2.8069,2.8141"
         fill="#ffffff"
         fill-rule="evenodd"
         transform="matrix(1,0,0,-1,95,153)"
         id="path3" />
    </g>
  </g>
</svg>
