<?xml version="1.0" encoding="UTF-8" standalone="no"?>
<!-- Created with Inkscape (http://www.inkscape.org/) -->

<svg
   width="39.952084mm"
   height="45.514553mm"
   viewBox="0 0 39.952084 45.514553"
   version="1.1"
   id="svg1"
   xmlns="http://www.w3.org/2000/svg"
   xmlns:svg="http://www.w3.org/2000/svg">
  <defs
     id="defs1">
    <clipPath
       id="clip0-7">
      <rect
         x="65"
         y="445"
         width="151"
         height="200"
         id="rect1-97" />
    </clipPath>
  </defs>
  <g
     clip-path="url(#clip0-7)"
     transform="matrix(0.26458333,0,0,0.26458333,-17.197916,-117.73958)"
     id="g6">
    <path
       d="M 2.87504e-4,0.0235352 H 151 V 65.0235 H 2.87504e-4 Z"
       fill="#4c8d7f"
       fill-rule="evenodd"
       transform="matrix(-1,0,0,1,216,552)"
       id="path1" />
    <path
       d="m 9.6870117,0 v -23.707031 q 0,-0.971192 0.8466793,-2.315918 1.817872,-2.639649 4.606934,-3.361817 V -29.53418 H 1.1206055 L 0.87158203,-33.667969 H 25.350586 v 4.133789 H 16.510254 V 0 Z"
       id="text1"
       style="font-size:51px;font-family:LTA-Identity, LTA-Identity_MSFontService, sans-serif;fill:#ffffff"
       transform="translate(97.7895,601)"
       aria-label="T" />
    <path
       d="m 16.535156,-13.870605 q -4.582031,1.245117 -6.6240232,2.888671 -2.0419922,1.6435551 -2.0419922,3.9843754 0,1.6186524 0.9960938,2.6147461 1.0209961,1.0209961 2.6894536,1.0209961 2.838867,0 4.059082,-2.5400391 0.622558,-1.2949218 0.796875,-3.0131836 0.124511,-1.0957029 0.124511,-3.4863279 z M 23.682129,0.09960937 H 20.71875 Q 18.626953,0.07470703 17.605957,-1.6435547 17.008301,-2.7143555 17.008301,-3.984375 14.34375,0.44824219 9.0893555,0.44824219 q -3.4116211,0 -5.4785157,-2.06689449 -1.9174804,-1.9174805 -1.9174804,-4.7314454 0,-4.6816403 5.2294922,-7.4208983 3.2871094,-1.693359 9.6123044,-2.689453 0,-3.013184 -1.17041,-4.108887 -1.070801,-0.996094 -3.436523,-0.996094 -2.6396488,0 -5.3291019,1.195313 -1.2202149,0.522949 -2.1416016,1.294922 L 3.1875,-23.358398 q 4.3579102,-2.291016 9.761719,-2.291016 3.436523,0 5.52832,0.921387 4.283203,1.867675 4.283203,7.844238 v 7.6450195 q -0.0249,5.5283203 0.921387,9.33837887 z M 38.548828,-16.833984 42.109863,-23.05957 q 1.369629,-2.365723 4.432617,-2.365723 0.547852,0 1.59375,0.124512 L 40.740234,-13.571777 48.908203,0 H 41.562012 L 36.208008,-9.637207 30.729492,0 h -4.68164 l 7.844238,-12.949219 -7.495606,-12.251953 h 7.346192 z M 53.041992,0 v -20.145996 q -0.0249,-1.045899 1.17041,-2.515137 2.465332,-2.863769 5.503418,-2.938476 V 0 Z m 4.133789,-35.660156 q 1.568848,0 2.465332,0.896484 0.697266,0.722168 0.697266,1.743164 0,1.59375 -1.519043,2.664551 -1.369629,0.946289 -3.237305,0.946289 -1.543945,0 -2.440429,-0.896484 -0.722168,-0.747071 -0.722168,-1.817871 0,-1.543946 1.469238,-2.564942 1.369629,-0.971191 3.287109,-0.971191 z"
       id="text2"
       style="font-size:51px;font-family:LTA-Identity, LTA-Identity_MSFontService, sans-serif;fill:#ffffff"
       transform="translate(120.243,601)"
       aria-label="axi" />
    <path
       d="M 2.87504e-4,4.31827e-4 H 151 V 108.001 H 2.87504e-4 Z"
       fill="#f68344"
       fill-rule="evenodd"
       transform="matrix(1,0,0,-1,65,553)"
       id="path2" />
    <path
       d="m 82.4882,25.8925 c 0,-0.9126 -0.7492,-1.6586 -1.6585,-1.6586 l -13.0681,0.0012 c -0.9119,0 -1.4003,0.7014 -1.0822,1.5567 l 1.9593,5.2906 c 0.3182,0.8554 1.3234,1.5568 2.2352,1.5568 h 9.9558 c 0.9106,0 1.6585,-0.7475 1.6585,-1.6612 z M 58.7975,31.0874 55.8017,22.9968 C 55.4852,22.1401 54.4787,21.44 53.5669,21.44 H 34.4853 c -0.9131,0 -1.9182,0.7001 -2.2351,1.5568 l -2.9956,8.0906 c -0.3181,0.8566 0.1702,1.5566 1.0823,1.5566 h 27.3772 c 0.9118,0 1.4003,-0.7013 1.0821,-1.5566 z M 20.2844,24.2351 7.21876,24.2339 c -0.91204,-0.0012 -1.65875,0.746 -1.65875,1.6586 v 5.0855 c 0,0.9137 0.74548,1.6612 1.65875,1.6612 h 9.95314 c 0.912,0 1.9171,-0.7014 2.2351,-1.5568 l 1.9595,-5.2906 c 0.3167,-0.8553 -0.1703,-1.5567 -1.0821,-1.5567 z m -6.0098,22.2091 5.9661,14.8733 c 0.7803,1.947 3.1348,3.5383 5.2307,3.5383 h 37.1082 c 2.0958,0 4.4501,-1.5913 5.2305,-3.5383 l 5.9662,-14.8733 c 0.5738,-1.4298 -0.2125,-2.6996 -1.7467,-2.8212 0,0 -14.7292,-1.1751 -27.9997,-1.1751 l -0.0038,0.0051 h -0.0013 l -0.0025,-0.0051 c -13.2717,0 -28.0009,1.1751 -28.0009,1.1751 -1.5344,0.1216 -2.3208,1.3914 -1.7468,2.8212 z M 88.8122,30.156 c -0.0063,1.3689 -0.7305,3.3348 -1.6238,4.373 l -5.1549,6.0228 c -0.8932,1.0395 -2.0535,2.9233 -2.588,4.185 l -8.0582,19.1518 c -1.1953,2.8398 -4.6918,5.1638 -7.7717,5.1638 l -7.8,0.0059 -2.1743,3.4889 C 52.917,73.71 51.2049,74.6599 49.8372,74.6599 H 38.2077 c -1.3691,0 -3.0801,-0.9499 -3.8043,-2.1127 l -2.1756,-3.4889 -7.7987,-0.0059 c -3.08,0 -6.5775,-2.324 -7.7716,-5.1638 L 8.59792,44.7368 C 8.06738,43.4751 6.90439,41.5913 6.01352,40.5518 L 0.854848,34.529 C -0.0358475,33.4896 -0.765304,31.5188 -0.765304,30.1486 L -0.763931,14.4325 0.635032,11.6362 V 0.68588 c 0,-0.912574 0.745478,-1.659976 1.658598,-1.659976 H 12.9712 c 0.9132,0 1.6587,0.747402 1.6587,1.659976 V 10.2348 H 73.4146 V 0.68588 c 0,-0.912574 0.7454,-1.659976 1.6577,-1.659976 h 10.68 c 0.9093,0 1.6588,0.747402 1.6588,1.659976 V 11.6362 l 1.3948,2.7963 0.0063,15.7235"
       fill="#ffffff"
       fill-rule="evenodd"
       transform="matrix(1,0,0,-1.01241,95.8451,535.717)"
       id="path3" />
  </g>
</svg>
