<?xml version="1.0" encoding="UTF-8" standalone="no"?>
<!-- Created with Inkscape (http://www.inkscape.org/) -->

<svg
   width="39.952084mm"
   height="45.514469mm"
   viewBox="0 0 39.952084 45.514469"
   version="1.1"
   id="svg1"
   xmlns="http://www.w3.org/2000/svg"
   xmlns:svg="http://www.w3.org/2000/svg">
  <defs
     id="defs1">
    <clipPath
       id="clip0-3">
      <rect
         x="64"
         y="241"
         width="151"
         height="201"
         id="rect1-61" />
    </clipPath>
  </defs>
  <g
     id="layer1"
     transform="translate(-85.195833,-125.67709)">
    <g
       clip-path="url(#clip0-3)"
       transform="matrix(0.26458333,0,0,0.26458333,68.2625,61.9125)"
       id="g6">
      <path
         d="M 2.87504e-4,0.0231731 H 151 V 64.0232 H 2.87504e-4 Z"
         fill="#498b7d"
         fill-rule="evenodd"
         transform="matrix(-1,0,0,1,215,349)"
         id="path1" />
      <path
         d="m 9.6870117,0 v -23.707031 q 0,-0.971192 0.8466793,-2.315918 1.817872,-2.639649 4.606934,-3.361817 V -29.53418 H 1.1206055 L 0.87158203,-33.667969 H 25.350586 v 4.133789 H 16.510254 V 0 Z"
         id="text1"
         style="font-size:51px;font-family:LTA-Identity, LTA-Identity_MSFontService, sans-serif;fill:#ffffff"
         transform="translate(97.5507,398)"
         aria-label="T" />
      <path
         d="m 16.535156,-13.870605 q -4.582031,1.245117 -6.6240232,2.888671 -2.0419922,1.6435551 -2.0419922,3.9843754 0,1.6186524 0.9960938,2.6147461 1.0209961,1.0209961 2.6894536,1.0209961 2.838867,0 4.059082,-2.5400391 0.622558,-1.2949218 0.796875,-3.0131836 0.124511,-1.0957029 0.124511,-3.4863279 z M 23.682129,0.09960937 H 20.71875 Q 18.626953,0.07470703 17.605957,-1.6435547 17.008301,-2.7143555 17.008301,-3.984375 14.34375,0.44824219 9.0893555,0.44824219 q -3.4116211,0 -5.4785157,-2.06689449 -1.9174804,-1.9174805 -1.9174804,-4.7314454 0,-4.6816403 5.2294922,-7.4208983 3.2871094,-1.693359 9.6123044,-2.689453 0,-3.013184 -1.17041,-4.108887 -1.070801,-0.996094 -3.436523,-0.996094 -2.6396488,0 -5.3291019,1.195313 -1.2202149,0.522949 -2.1416016,1.294922 L 3.1875,-23.358398 q 4.3579102,-2.291016 9.761719,-2.291016 3.436523,0 5.52832,0.921387 4.283203,1.867675 4.283203,7.844238 v 7.6450195 q -0.0249,5.5283203 0.921387,9.33837887 z M 38.548828,-16.833984 42.109863,-23.05957 q 1.369629,-2.365723 4.432617,-2.365723 0.547852,0 1.59375,0.124512 L 40.740234,-13.571777 48.908203,0 H 41.562012 L 36.208008,-9.637207 30.729492,0 h -4.68164 l 7.844238,-12.949219 -7.495606,-12.251953 h 7.346192 z M 53.041992,0 v -20.145996 q -0.0249,-1.045899 1.17041,-2.515137 2.465332,-2.863769 5.503418,-2.938476 V 0 Z m 4.133789,-35.660156 q 1.568848,0 2.465332,0.896484 0.697266,0.722168 0.697266,1.743164 0,1.59375 -1.519043,2.664551 -1.369629,0.946289 -3.237305,0.946289 -1.543945,0 -2.440429,-0.896484 -0.722168,-0.747071 -0.722168,-1.817871 0,-1.543946 1.469238,-2.564942 1.369629,-0.971191 3.287109,-0.971191 z"
         id="text2"
         style="font-size:51px;font-family:LTA-Identity, LTA-Identity_MSFontService, sans-serif;fill:#ffffff"
         transform="translate(120.004,398)"
         aria-label="axi" />
      <path
         d="M 2.87504e-4,4.31827e-4 H 151 V 108.001 H 2.87504e-4 Z"
         fill="#fcc80f"
         fill-rule="evenodd"
         transform="matrix(1,0,0,-1,64,349)"
         id="path2" />
      <g
         id="g5">
        <g
           id="g4">
          <g
             id="g3">
            <path
               d="m 82.4271,25.8734 c 0,-0.912 -0.7486,-1.6574 -1.6573,-1.6574 l -13.0584,0.0012 c -0.9112,0 -1.3993,0.7008 -1.0814,1.5555 l 1.9579,5.2866 c 0.3179,0.8549 1.3224,1.5557 2.2335,1.5557 h 9.9484 c 0.9099,0 1.6573,-0.7469 1.6573,-1.66 z m -23.6732,5.191 -2.9935,-8.0846 c -0.3163,-0.8561 -1.322,-1.5557 -2.2332,-1.5557 H 34.4598 c -0.9125,0 -1.9169,0.6996 -2.2335,1.5557 l -2.9934,8.0846 c -0.3178,0.8559 0.1701,1.5554 1.0815,1.5554 h 27.3569 c 0.9112,0 1.3993,-0.7007 1.0813,-1.5554 z M 20.2693,24.2172 7.21341,24.216 C 6.30205,24.2147 5.5559,24.9614 5.5559,25.8734 v 5.0816 c 0,0.9131 0.74492,1.66 1.65751,1.66 h 9.94579 c 0.9113,0 1.9157,-0.7008 2.2335,-1.5557 l 1.9579,-5.2866 c 0.3165,-0.8547 -0.1701,-1.5555 -1.0813,-1.5555 z m -6.0052,22.1926 5.9616,14.8622 c 0.7797,1.9456 3.1324,3.5357 5.2268,3.5357 h 37.0807 c 2.0942,0 4.4469,-1.5901 5.2267,-3.5357 l 5.9618,-14.8622 c 0.5734,-1.4288 -0.2124,-2.6976 -1.7455,-2.8192 0,0 -14.7182,-1.1742 -27.979,-1.1742 l -0.0038,0.0051 h -0.0012 l -0.0026,-0.0051 c -13.2618,0 -27.9801,1.1742 -27.9801,1.1742 -1.5333,0.1216 -2.319,1.3904 -1.7454,2.8192 z M 88.7465,30.1337 c -0.0064,1.3679 -0.7301,3.3323 -1.6226,4.3697 l -5.1511,6.0183 c -0.8926,1.0388 -2.052,2.9212 -2.5862,4.1819 l -8.0522,19.1377 c -1.1944,2.8377 -4.6883,5.1599 -7.7659,5.1599 l -7.7942,0.006 -2.1728,3.4862 c -0.7237,1.162 -2.4345,2.1112 -3.8012,2.1112 H 38.1794 c -1.3681,0 -3.0778,-0.9492 -3.8015,-2.1112 l -2.174,-3.4862 -7.7929,-0.006 c -3.0777,0 -6.5726,-2.3222 -7.7659,-5.1599 L 8.59155,44.7036 C 8.0614,43.4429 6.89928,41.5605 6.00907,40.5217 L 0.854215,34.5034 C -0.0358209,33.4648 -0.764737,31.4955 -0.764737,30.1262 L -0.763365,14.4218 0.634562,11.6275 V 0.685372 c 0,-0.911898 0.744928,-1.658746 1.657368,-1.658746 H 12.9615 c 0.9126,0 1.6576,0.746848 1.6576,1.658746 V 10.2272 H 73.3603 V 0.685372 c 0,-0.911898 0.7448,-1.658746 1.6563,-1.658746 h 10.6721 c 0.9087,0 1.6577,0.746848 1.6577,1.658746 V 11.6275 l 1.3937,2.7943 0.0064,15.7119"
               fill="#ffffff"
               fill-rule="evenodd"
               transform="matrix(1.01186,0,0,-1,94.8545,331.733)"
               id="path3" />
          </g>
        </g>
      </g>
    </g>
  </g>
</svg>
