<?xml version="1.0" encoding="UTF-8"?>
<svg id="Layer_1" data-name="Layer 1" xmlns="http://www.w3.org/2000/svg" viewBox="0 0 460.82 141.73">
  <defs>
    <style>
      .cls-1 {
        fill: #ff9e18;
      }

      .cls-1, .cls-2, .cls-3 {
        fill-rule: evenodd;
      }

      .cls-2, .cls-4 {
        fill: #fff;
      }

      .cls-5 {
        fill: #231f20;
      }

      .cls-6 {
        fill: #2d2a26;
      }

      .cls-3 {
        fill: #0055b8;
      }
    </style>
  </defs>
  <g>
    <path class="cls-2" d="M457.88,45.71c-1.95-8.25-4.9-16.2-8.7-23.74-2.13-4.22-6.23-10.6-12.31-15.32C431.87,2.76,425.71,0,418.33,0h-60.42s-28.96,0-28.96,0h-57.26s-6.5,0-6.5,0h-129.98s-28.96,0-28.96,0h-63.76c-7.38,0-13.54,2.76-18.55,6.65-6.08,4.72-10.18,11.1-12.31,15.32-3.8,7.53-6.75,15.49-8.7,23.74C1.02,53.8,0,62.23,0,70.87c0,8.64,1.02,17.07,2.93,25.16,1.96,8.25,4.9,16.2,8.7,23.74,2.13,4.22,6.23,10.6,12.31,15.32,5.01,3.89,11.17,6.65,18.55,6.65h63.76s28.96,0,28.96,0h129.98s4.08,0,4.08,0h59.68s28.96,0,28.96,0h60.42c7.37,0,13.54-2.76,18.55-6.65,6.08-4.72,10.18-11.1,12.31-15.32,3.8-7.54,6.75-15.49,8.7-23.74,1.92-8.1,2.94-16.52,2.94-25.16,0-8.64-1.02-17.06-2.94-25.16Z"/>
    <path class="cls-1" d="M230.39,7.74h-95.18s-28.96,0-28.96,0h-63.75c-13.96,0-21.89,13.55-23.99,17.7-7.15,14.17-10.78,29.46-10.78,45.44,0,15.98,3.63,31.27,10.78,45.43,2.1,4.15,10.02,17.71,23.99,17.71h63.75s28.96,0,28.96,0h95.18V7.74Z"/>
    <path class="cls-3" d="M230.43,134.02h98.51s28.96,0,28.96,0h60.41c13.97,0,21.89-13.55,23.99-17.71,7.15-14.17,10.78-29.45,10.78-45.43,0-15.98-3.63-31.27-10.78-45.44-2.1-4.15-10.03-17.7-23.99-17.7h-60.41s-28.96,0-28.96,0h-98.51v63.14s0,63.14,0,63.14Z"/>
    <g>
      <path class="cls-6" d="M73.35,48.3l-1.88,6.1c-3.58-1.54-6.54-2.32-8.9-2.32-4.31,0-7.62,2-9.93,5.99-2.01,3.53-3.02,8.09-3.02,13.68s.98,10.1,2.94,13.6c2.18,3.9,5.34,5.85,9.49,5.85,2.79,0,5.93-.97,9.41-2.9l2.02,6.1c-3.9,1.89-8.31,2.83-13.24,2.83-8.38,0-14.43-3.26-18.13-9.78-2.48-4.36-3.71-9.54-3.71-15.52,0-8.41,2.38-14.98,7.13-19.71,4.07-4.07,9.41-6.1,16.03-6.1,4.56,0,8.48.72,11.77,2.17Z"/>
      <path class="cls-6" d="M112.29,48.3l-1.88,6.1c-3.58-1.54-6.54-2.32-8.9-2.32-4.31,0-7.62,2-9.93,5.99-2.01,3.53-3.02,8.09-3.02,13.68s.98,10.1,2.94,13.6c2.18,3.9,5.34,5.85,9.49,5.85,2.79,0,5.93-.97,9.41-2.9l2.02,6.1c-3.9,1.89-8.31,2.83-13.24,2.83-8.38,0-14.43-3.26-18.13-9.78-2.48-4.36-3.71-9.54-3.71-15.52,0-8.41,2.38-14.98,7.13-19.71,4.07-4.07,9.41-6.1,16.03-6.1,4.56,0,8.48.72,11.77,2.17Z"/>
      <path class="cls-6" d="M147.55,46.79h6.1v49.71h-9.41v-42.1l-12.21,7.13-2.46-4.67,17.98-10.07Z"/>
      <path class="cls-6" d="M183.99,46.13c5.78,0,10.07,2.45,12.87,7.35,2.43,4.22,3.64,10.09,3.64,17.61,0,6.72-.9,12.15-2.68,16.29-2.82,6.57-7.73,9.85-14.74,9.85s-11.96-3.49-14.71-10.48c-1.57-4-2.35-8.96-2.35-14.89,0-6.23.89-11.42,2.68-15.59,2.92-6.77,8.02-10.15,15.3-10.15ZM183.37,50.94c-2.65,0-4.57,1.62-5.77,4.85-1.05,2.87-1.58,8.35-1.58,16.44,0,6.52.38,11.24,1.14,14.16,1.03,3.92,3.05,5.88,6.07,5.88,2.08,0,3.69-.96,4.82-2.87,1.64-2.87,2.46-8.7,2.46-17.5,0-6.84-.42-11.91-1.25-15.22-.96-3.82-2.92-5.74-5.88-5.74Z"/>
    </g>
    <g>
      <path class="cls-4" d="M259.66,96.5v-35.55c-.02-1.67.97-3.47,2.98-5.41,1.52-1.42,3.21-2.4,5.07-2.94v-.22h-9.12l-.44-5.59h13.31c4.36,0,7.61.2,9.74.59,10.39,1.99,15.59,9.55,15.59,22.69,0,11.77-3.79,19.67-11.36,23.72-2.03,1.1-4.35,1.85-6.95,2.24-2.06.32-4.84.48-8.35.48h-10.48ZM269.73,91.09h1.29c2.97,0,5.05-.16,6.25-.48,5.86-1.57,8.79-8.16,8.79-19.78,0-6.32-.83-10.92-2.5-13.79-1.23-2.13-2.94-3.48-5.15-4.04-1.42-.37-3.57-.55-6.43-.55h-2.24v38.64Z"/>
      <path class="cls-4" d="M312.68,96.5v-35c0-.96.42-2.1,1.25-3.42,1.79-2.6,4.06-4.25,6.8-4.96v-.22h-20.7l-.37-6.1h36.14v6.1h-13.05v43.61h-10.07Z"/>
      <path class="cls-4" d="M361.62,88.3h24.56v8.2h-35.63v-5.04c5.1-4.39,10.01-9.18,14.74-14.38,2.65-2.92,4.64-5.43,5.99-7.54,2.08-3.28,3.12-6.38,3.12-9.3,0-3.24-1.23-5.55-3.68-6.95-1.52-.88-3.3-1.32-5.33-1.32-3.24,0-6.53.93-9.89,2.79l-2.02-6.32c3.38-1.57,7.94-2.35,13.68-2.35s10.15,1.26,13.31,3.79c2.89,2.3,4.34,5.36,4.34,9.16,0,3.48-1.32,6.97-3.97,10.48-3.09,4.12-9.5,10.38-19.23,18.79Z"/>
      <path class="cls-4" d="M425.27,48.59l-2.06,6.18c-2.62-1.94-5.54-2.9-8.75-2.9-5.1,0-8.48,2.94-10.15,8.82-.76,2.6-1.14,6.2-1.14,10.81,1.18-2.08,2.59-3.59,4.23-4.52,1.84-1.05,3.97-1.58,6.4-1.58,3.97,0,7.26,1.31,9.85,3.93,2.77,2.75,4.15,6.46,4.15,11.14,0,5-1.53,9.06-4.6,12.17-3.06,3.06-7.06,4.6-11.99,4.6-6.59,0-11.42-2.68-14.49-8.05-2.48-4.36-3.71-9.88-3.71-16.55,0-9.17,2.39-16.15,7.17-20.96,3.73-3.7,8.38-5.55,13.97-5.55,3.55,0,7.26.82,11.1,2.46ZM410.93,71.06c-2.82,0-4.8,1.42-5.96,4.26-.69,1.67-1.03,3.79-1.03,6.36s.37,4.76,1.1,6.47c1.18,2.75,3.14,4.12,5.88,4.12,2.43,0,4.24-1.03,5.44-3.09,1.1-1.96,1.65-4.58,1.65-7.87,0-4.07-.92-6.95-2.76-8.64-1.13-1.08-2.57-1.62-4.34-1.62Z"/>
    </g>
  </g>
</svg>