<?xml version="1.0" encoding="UTF-8"?>
<svg id="Layer_1" data-name="Layer 1" xmlns="http://www.w3.org/2000/svg" viewBox="0 0 460.82 141.73">
  <defs>
    <style>
      .cls-1 {
        fill: #ff9e18;
      }

      .cls-1, .cls-2, .cls-3 {
        fill-rule: evenodd;
      }

      .cls-2, .cls-4 {
        fill: #fff;
      }

      .cls-5 {
        fill: #231f20;
      }

      .cls-6 {
        fill: #2d2a26;
      }

      .cls-3 {
        fill: #e1251b;
      }
    </style>
  </defs>
  <g>
    <path class="cls-2" d="M457.88,45.71c-1.95-8.25-4.9-16.2-8.7-23.74-2.13-4.22-6.23-10.6-12.31-15.32C431.87,2.76,425.71,0,418.33,0h-60.42s-28.96,0-28.96,0h-57.26s-6.5,0-6.5,0h-129.98s-28.96,0-28.96,0h-63.76c-7.38,0-13.54,2.76-18.55,6.65-6.08,4.72-10.18,11.1-12.31,15.32-3.8,7.53-6.75,15.49-8.7,23.74C1.02,53.8,0,62.23,0,70.87c0,8.64,1.02,17.07,2.93,25.16,1.96,8.25,4.9,16.2,8.7,23.74,2.13,4.22,6.23,10.6,12.31,15.32,5.01,3.89,11.17,6.65,18.55,6.65h63.76s28.96,0,28.96,0h129.98s4.08,0,4.08,0h59.68s28.96,0,28.96,0h60.42c7.37,0,13.54-2.76,18.55-6.65,6.08-4.72,10.18-11.1,12.31-15.32,3.8-7.54,6.75-15.49,8.7-23.74,1.92-8.1,2.94-16.52,2.94-25.16,0-8.64-1.02-17.06-2.94-25.16Z"/>
    <path class="cls-1" d="M230.39,7.74h-95.18s-28.96,0-28.96,0h-63.75c-13.96,0-21.89,13.55-23.99,17.7-7.15,14.17-10.78,29.46-10.78,45.44,0,15.98,3.63,31.27,10.78,45.43,2.1,4.15,10.02,17.71,23.99,17.71h63.75s28.96,0,28.96,0h95.18V7.74Z"/>
    <path class="cls-3" d="M230.43,134.02h98.51s28.96,0,28.96,0h60.41c13.97,0,21.89-13.55,23.99-17.71,7.15-14.17,10.78-29.45,10.78-45.43,0-15.98-3.63-31.27-10.78-45.44-2.1-4.15-10.03-17.7-23.99-17.7h-60.41s-28.96,0-28.96,0h-98.51v63.14s0,63.14,0,63.14Z"/>
    <g>
      <path class="cls-6" d="M74.14,48.3l-1.88,6.1c-3.58-1.54-6.54-2.32-8.9-2.32-4.31,0-7.62,2-9.93,5.99-2.01,3.53-3.02,8.09-3.02,13.68s.98,10.1,2.94,13.6c2.18,3.9,5.34,5.85,9.49,5.85,2.79,0,5.93-.97,9.41-2.9l2.02,6.1c-3.9,1.89-8.31,2.83-13.24,2.83-8.38,0-14.43-3.26-18.13-9.78-2.48-4.36-3.71-9.54-3.71-15.52,0-8.41,2.38-14.98,7.13-19.71,4.07-4.07,9.41-6.1,16.03-6.1,4.56,0,8.48.72,11.77,2.17Z"/>
      <path class="cls-6" d="M113.08,48.3l-1.88,6.1c-3.58-1.54-6.54-2.32-8.9-2.32-4.31,0-7.62,2-9.93,5.99-2.01,3.53-3.02,8.09-3.02,13.68s.98,10.1,2.94,13.6c2.18,3.9,5.34,5.85,9.49,5.85,2.79,0,5.93-.97,9.41-2.9l2.02,6.1c-3.9,1.89-8.31,2.83-13.24,2.83-8.38,0-14.43-3.26-18.13-9.78-2.48-4.36-3.71-9.54-3.71-15.52,0-8.41,2.38-14.98,7.13-19.71,4.07-4.07,9.41-6.1,16.03-6.1,4.56,0,8.48.72,11.77,2.17Z"/>
      <path class="cls-6" d="M148.34,46.79h6.1v49.71h-9.41v-42.1l-12.21,7.13-2.46-4.67,17.98-10.07Z"/>
      <path class="cls-6" d="M169.49,46.79h27.65v7.9h-21.99v12.8c2.5-.91,5.13-1.36,7.91-1.36,4.88,0,8.96,1.31,12.24,3.93,3.38,2.7,5.07,6.3,5.07,10.81s-1.52,7.95-4.56,10.99c-3.6,3.58-8.55,5.37-14.85,5.37-4.98,0-9.5-1.05-13.57-3.16l2.1-6.25c3.26,2.21,6.85,3.31,10.77,3.31,3.43,0,5.99-.93,7.68-2.79,1.52-1.69,2.28-3.98,2.28-6.88,0-3.87-1.42-6.64-4.27-8.31-1.81-1.05-4.02-1.58-6.62-1.58-3.29,0-6.57.96-9.85,2.87v-27.65Z"/>
    </g>
    <g>
      <path class="cls-4" d="M298.93,96.5h-6.4l-24.71-33.61v33.61h-6.69v-49.71h6.4l24.63,33.61v-28.27c-.02-.81.42-1.76,1.32-2.87,1.59-1.89,3.41-2.86,5.44-2.9v50.15Z"/>
      <path class="cls-4" d="M335.22,48.22l-1.8,5.96c-3.21-1.49-6.35-2.24-9.41-2.24-2.06,0-3.74.38-5.04,1.14-1.62.93-2.43,2.38-2.43,4.34,0,1.35.45,2.56,1.36,3.64.91,1.08,2.61,2.45,5.11,4.12l3.16,2.1c3.28,2.21,5.75,4.24,7.39,6.1,2.55,2.89,3.82,6.24,3.82,10.04,0,4.22-1.38,7.55-4.15,10-2.89,2.55-6.97,3.82-12.24,3.82-4.36,0-8.74-1.05-13.13-3.16l2.21-6.54c3.46,2.5,7.02,3.75,10.7,3.75,2.65,0,4.65-.71,5.99-2.13.91-.98,1.36-2.21,1.36-3.68,0-1.54-.52-2.93-1.54-4.15-1.03-1.23-2.87-2.7-5.52-4.41l-3.16-2.02c-3.06-1.96-5.39-3.9-6.99-5.81-2.33-2.74-3.49-5.87-3.49-9.38,0-5.05,2.02-8.73,6.07-11.03,2.77-1.59,6.2-2.39,10.29-2.39s8.1.65,11.44,1.95Z"/>
      <path class="cls-4" d="M374.09,46.79h6.1v49.71h-9.41v-42.1l-12.21,7.13-2.46-4.67,17.98-10.07Z"/>
      <path class="cls-4" d="M391.33,46.79h34.71v4.89l-22.28,44.82h-6.91l21.29-41.51h-26.8v-8.2Z"/>
    </g>
  </g>
</svg>