<?xml version="1.0" encoding="UTF-8"?>
<svg id="Layer_1" data-name="Layer 1" xmlns="http://www.w3.org/2000/svg" viewBox="0 0 238.13 141.73">
  <defs>
    <style>
      .cls-1 {
        fill: #ff9e18;
      }

      .cls-1, .cls-2 {
        fill-rule: evenodd;
      }

      .cls-2 {
        fill: #fff;
      }

      .cls-3 {
        fill: #231f20;
      }
    </style>
  </defs>
  <g>
    <path class="cls-2" d="M235.19,45.71c-1.96-8.25-4.9-16.2-8.7-23.74-2.13-4.22-6.23-10.6-12.31-15.32-5-3.89-11.17-6.65-18.54-6.65H42.49c-7.37,0-13.54,2.76-18.54,6.65-6.08,4.72-10.18,11.1-12.31,15.32-3.8,7.53-6.75,15.49-8.7,23.74-1.92,8.1-2.94,16.52-2.94,25.16s1.02,17.06,2.94,25.16c1.96,8.25,4.9,16.2,8.7,23.74,2.13,4.22,6.23,10.6,12.31,15.32,5,3.89,11.17,6.65,18.54,6.65h153.15c7.37,0,13.54-2.76,18.54-6.65,6.08-4.72,10.18-11.1,12.31-15.32,3.8-7.54,6.74-15.49,8.7-23.74,1.92-8.1,2.94-16.52,2.94-25.16s-1.02-17.06-2.94-25.16Z"/>
    <path class="cls-1" d="M219.61,25.44c-2.1-4.15-10.03-17.7-23.99-17.7H42.5c-13.96,0-21.89,13.55-23.99,17.7-7.15,14.17-10.78,29.46-10.78,45.44s3.63,31.27,10.78,45.43c2.1,4.15,10.02,17.71,23.99,17.71h153.12c13.97,0,21.89-13.55,23.99-17.71,7.15-14.17,10.78-29.45,10.78-45.43s-3.63-31.27-10.78-45.44Z"/>
  </g>
  <g>
    <path class="cls-3" d="M75.08,48.34l-1.88,6.1c-3.58-1.54-6.54-2.32-8.9-2.32-4.31,0-7.62,2-9.93,5.99-2.01,3.53-3.02,8.09-3.02,13.68s.98,10.1,2.94,13.6c2.18,3.9,5.34,5.85,9.49,5.85,2.79,0,5.93-.97,9.41-2.91l2.02,6.1c-3.9,1.89-8.31,2.83-13.24,2.83-8.38,0-14.43-3.26-18.13-9.78-2.48-4.36-3.71-9.54-3.71-15.52,0-8.41,2.38-14.98,7.13-19.71,4.07-4.07,9.41-6.1,16.03-6.1,4.56,0,8.48.72,11.77,2.17Z"/>
    <path class="cls-3" d="M114.02,48.34l-1.88,6.1c-3.58-1.54-6.54-2.32-8.9-2.32-4.31,0-7.62,2-9.93,5.99-2.01,3.53-3.02,8.09-3.02,13.68s.98,10.1,2.94,13.6c2.18,3.9,5.34,5.85,9.49,5.85,2.79,0,5.93-.97,9.41-2.91l2.02,6.1c-3.9,1.89-8.31,2.83-13.24,2.83-8.38,0-14.43-3.26-18.13-9.78-2.48-4.36-3.71-9.54-3.71-15.52,0-8.41,2.38-14.98,7.13-19.71,4.07-4.07,9.41-6.1,16.03-6.1,4.56,0,8.48.72,11.77,2.17Z"/>
    <path class="cls-3" d="M149.29,46.84h6.1v49.71h-9.41v-42.1l-12.21,7.13-2.46-4.67,17.98-10.08Z"/>
    <path class="cls-3" d="M175.03,70.55c-2.52-.69-4.47-1.61-5.85-2.76-2.82-2.28-4.23-5.26-4.23-8.93s1.32-6.46,3.97-8.79c2.99-2.6,7.19-3.9,12.61-3.9,5.74,0,10.06,1.46,12.98,4.38,2.23,2.23,3.35,4.9,3.35,8.02,0,3.41-1.39,6.32-4.15,8.75-1.52,1.32-3.53,2.4-6.03,3.24,2.67.66,4.79,1.51,6.36,2.54,3.36,2.23,5.04,5.53,5.04,9.89,0,3.82-1.29,7-3.86,9.52-3.21,3.19-7.92,4.78-14.12,4.78s-11.14-1.65-14.23-4.96c-2.18-2.38-3.27-5.26-3.27-8.64,0-6.23,3.81-10.6,11.44-13.13ZM181.28,73.2c-2.16,0-3.93.79-5.33,2.35-1.52,1.72-2.28,4.12-2.28,7.21,0,3.36.89,5.93,2.68,7.72,1.37,1.37,3.06,2.06,5.07,2.06,2.77,0,4.82-1.18,6.14-3.53,1-1.76,1.51-3.87,1.51-6.32,0-3.16-.87-5.63-2.61-7.39-1.37-1.4-3.1-2.1-5.18-2.1ZM181.28,51.14c-2.87,0-4.9,1.41-6.1,4.23-.54,1.3-.81,2.75-.81,4.34,0,3.04.83,5.33,2.5,6.88,1.2,1.1,2.7,1.65,4.49,1.65,2.03,0,3.68-.72,4.93-2.17,1.4-1.57,2.1-3.73,2.1-6.47,0-2.5-.62-4.52-1.88-6.07-1.27-1.59-3.02-2.39-5.22-2.39Z"/>
  </g>
</svg>