<?xml version="1.0" encoding="UTF-8"?>
<svg id="Layer_1" data-name="Layer 1" xmlns="http://www.w3.org/2000/svg" viewBox="0 0 460.82 141.73">
  <defs>
    <style>
      .cls-1 {
        fill: #ff9e18;
      }

      .cls-1, .cls-2, .cls-3 {
        fill-rule: evenodd;
      }

      .cls-2, .cls-4 {
        fill: #fff;
      }

      .cls-5 {
        fill: #231f20;
      }

      .cls-6 {
        fill: #2d2a26;
      }

      .cls-3 {
        fill: #0055b8;
      }
    </style>
  </defs>
  <g>
    <path class="cls-2" d="M457.88,45.71c-1.95-8.25-4.9-16.2-8.7-23.74-2.13-4.22-6.23-10.6-12.31-15.32C431.87,2.76,425.71,0,418.33,0h-60.42s-28.96,0-28.96,0h-57.26s-6.5,0-6.5,0h-129.98s-28.96,0-28.96,0h-63.76c-7.38,0-13.54,2.76-18.55,6.65-6.08,4.72-10.18,11.1-12.31,15.32-3.8,7.53-6.75,15.49-8.7,23.74C1.02,53.8,0,62.23,0,70.87c0,8.64,1.02,17.07,2.93,25.16,1.96,8.25,4.9,16.2,8.7,23.74,2.13,4.22,6.23,10.6,12.31,15.32,5.01,3.89,11.17,6.65,18.55,6.65h63.76s28.96,0,28.96,0h129.98s4.08,0,4.08,0h59.68s28.96,0,28.96,0h60.42c7.37,0,13.54-2.76,18.55-6.65,6.08-4.72,10.18-11.1,12.31-15.32,3.8-7.54,6.75-15.49,8.7-23.74,1.92-8.1,2.94-16.52,2.94-25.16,0-8.64-1.02-17.06-2.94-25.16Z"/>
    <path class="cls-1" d="M230.39,7.74h-95.18s-28.96,0-28.96,0h-63.75c-13.96,0-21.89,13.55-23.99,17.7-7.15,14.17-10.78,29.46-10.78,45.44,0,15.98,3.63,31.27,10.78,45.43,2.1,4.15,10.02,17.71,23.99,17.71h63.75s28.96,0,28.96,0h95.18V7.74Z"/>
    <path class="cls-3" d="M230.43,134.02h98.51s28.96,0,28.96,0h60.41c13.97,0,21.89-13.55,23.99-17.71,7.15-14.17,10.78-29.45,10.78-45.43,0-15.98-3.63-31.27-10.78-45.44-2.1-4.15-10.03-17.7-23.99-17.7h-60.41s-28.96,0-28.96,0h-98.51v63.14s0,63.14,0,63.14Z"/>
    <g>
      <path class="cls-6" d="M73.59,48.3l-1.88,6.1c-3.58-1.54-6.54-2.32-8.9-2.32-4.31,0-7.62,2-9.93,5.99-2.01,3.53-3.02,8.09-3.02,13.68s.98,10.1,2.94,13.6c2.18,3.9,5.34,5.85,9.49,5.85,2.79,0,5.93-.97,9.41-2.9l2.02,6.1c-3.9,1.89-8.31,2.83-13.24,2.83-8.38,0-14.43-3.26-18.13-9.78-2.48-4.36-3.71-9.54-3.71-15.52,0-8.41,2.38-14.98,7.13-19.71,4.07-4.07,9.41-6.1,16.03-6.1,4.56,0,8.48.72,11.77,2.17Z"/>
      <path class="cls-6" d="M112.52,48.3l-1.88,6.1c-3.58-1.54-6.54-2.32-8.9-2.32-4.31,0-7.62,2-9.93,5.99-2.01,3.53-3.02,8.09-3.02,13.68s.98,10.1,2.94,13.6c2.18,3.9,5.34,5.85,9.49,5.85,2.79,0,5.93-.97,9.41-2.9l2.02,6.1c-3.9,1.89-8.31,2.83-13.24,2.83-8.38,0-14.43-3.26-18.13-9.78-2.48-4.36-3.71-9.54-3.71-15.52,0-8.41,2.38-14.98,7.13-19.71,4.07-4.07,9.41-6.1,16.03-6.1,4.56,0,8.48.72,11.77,2.17Z"/>
      <path class="cls-6" d="M147.79,46.79h6.1v49.71h-9.41v-42.1l-12.21,7.13-2.46-4.67,17.98-10.07Z"/>
      <path class="cls-6" d="M167.79,94.7l1.95-6.03c2.89,1.94,5.88,2.9,8.97,2.9,4.58,0,7.78-2.44,9.6-7.32,1.1-2.94,1.64-7.12,1.62-12.54-3.06,4.27-6.65,6.4-10.77,6.4-3.85,0-7.1-1.31-9.74-3.93-2.84-2.84-4.27-6.63-4.27-11.36s1.53-8.93,4.6-12.02c3.09-3.11,7.12-4.67,12.1-4.67,6.81,0,11.75,2.66,14.82,7.98,2.28,3.97,3.42,9.13,3.42,15.48,0,9.29-2.08,16.37-6.25,21.25-3.65,4.27-8.53,6.4-14.63,6.4-4.19,0-7.99-.85-11.4-2.54ZM181.95,51.02c-2.79,0-4.79,1.48-5.99,4.45-.69,1.69-1.03,3.75-1.03,6.18,0,2.67.38,4.89,1.14,6.66,1.15,2.72,3.09,4.08,5.81,4.08,2.48,0,4.33-1.09,5.55-3.27,1.1-1.91,1.65-4.44,1.65-7.57s-.53-5.53-1.58-7.32c-1.23-2.13-3.08-3.2-5.55-3.2Z"/>
    </g>
    <g>
      <path class="cls-4" d="M279.77,96.5v-35.55c-.02-1.67.97-3.47,2.98-5.41,1.52-1.42,3.21-2.4,5.07-2.94v-.22h-9.12l-.44-5.59h13.31c4.36,0,7.61.2,9.74.59,10.39,1.99,15.59,9.55,15.59,22.69,0,11.77-3.79,19.67-11.36,23.72-2.03,1.1-4.35,1.85-6.95,2.24-2.06.32-4.84.48-8.35.48h-10.48ZM289.85,91.1h1.29c2.97,0,5.05-.16,6.25-.48,5.86-1.57,8.79-8.16,8.79-19.78,0-6.32-.83-10.92-2.5-13.79-1.23-2.13-2.94-3.48-5.15-4.04-1.42-.37-3.57-.55-6.43-.55h-2.24v38.64Z"/>
      <path class="cls-4" d="M332.79,96.5v-35c0-.96.42-2.1,1.25-3.42,1.79-2.6,4.06-4.25,6.8-4.96v-.22h-20.7l-.37-6.1h36.14v6.1h-13.05v43.61h-10.07Z"/>
      <path class="cls-4" d="M374.13,94.7l1.95-6.03c2.89,1.94,5.88,2.9,8.97,2.9,4.58,0,7.78-2.44,9.6-7.32,1.1-2.94,1.64-7.12,1.62-12.54-3.06,4.27-6.65,6.4-10.77,6.4-3.85,0-7.1-1.31-9.74-3.93-2.84-2.84-4.27-6.63-4.27-11.36s1.53-8.93,4.6-12.02c3.09-3.11,7.12-4.67,12.1-4.67,6.81,0,11.75,2.66,14.82,7.98,2.28,3.97,3.42,9.13,3.42,15.48,0,9.29-2.08,16.37-6.25,21.25-3.65,4.27-8.53,6.4-14.63,6.4-4.19,0-7.99-.85-11.4-2.54ZM388.28,51.02c-2.79,0-4.79,1.48-5.99,4.45-.69,1.69-1.03,3.75-1.03,6.18,0,2.67.38,4.89,1.14,6.66,1.15,2.72,3.09,4.08,5.81,4.08,2.48,0,4.33-1.09,5.55-3.27,1.1-1.91,1.65-4.44,1.65-7.57s-.53-5.53-1.58-7.32c-1.23-2.13-3.08-3.2-5.55-3.2Z"/>
    </g>
  </g>
</svg>