<?xml version="1.0" encoding="UTF-8"?>
<svg id="Layer_1" data-name="Layer 1" xmlns="http://www.w3.org/2000/svg" viewBox="0 0 460.82 141.73">
  <defs>
    <style>
      .cls-1 {
        fill: #ff9e18;
      }

      .cls-1, .cls-2, .cls-3 {
        fill-rule: evenodd;
      }

      .cls-2, .cls-4 {
        fill: #fff;
      }

      .cls-5 {
        fill: #231f20;
      }

      .cls-3 {
        fill: #00953b;
      }

      .cls-6 {
        fill: #2d2a26;
      }
    </style>
  </defs>
  <g>
    <path class="cls-2" d="M457.88,45.71c-1.95-8.25-4.9-16.2-8.7-23.74-2.13-4.22-6.23-10.6-12.31-15.32C431.87,2.76,425.71,0,418.33,0h-60.42s-28.96,0-28.96,0h-57.26s-6.5,0-6.5,0h-129.98s-28.96,0-28.96,0h-63.76c-7.38,0-13.54,2.76-18.55,6.65-6.08,4.72-10.18,11.1-12.31,15.32-3.8,7.53-6.75,15.49-8.7,23.74C1.02,53.8,0,62.23,0,70.87c0,8.64,1.02,17.07,2.93,25.16,1.96,8.25,4.9,16.2,8.7,23.74,2.13,4.22,6.23,10.6,12.31,15.32,5.01,3.89,11.17,6.65,18.55,6.65h63.76s28.96,0,28.96,0h129.98s4.08,0,4.08,0h59.68s28.96,0,28.96,0h60.42c7.37,0,13.54-2.76,18.55-6.65,6.08-4.72,10.18-11.1,12.31-15.32,3.8-7.54,6.75-15.49,8.7-23.74,1.92-8.1,2.94-16.52,2.94-25.16,0-8.64-1.02-17.06-2.94-25.16Z"/>
    <path class="cls-1" d="M230.39,7.74h-95.18s-28.96,0-28.96,0h-63.75c-13.96,0-21.89,13.55-23.99,17.7-7.15,14.17-10.78,29.46-10.78,45.44,0,15.98,3.63,31.27,10.78,45.43,2.1,4.15,10.02,17.71,23.99,17.71h63.75s28.96,0,28.96,0h95.18V7.74Z"/>
    <path class="cls-3" d="M230.43,134.02h98.51s28.96,0,28.96,0h60.41c13.97,0,21.89-13.55,23.99-17.71,7.15-14.17,10.78-29.45,10.78-45.43,0-15.98-3.63-31.27-10.78-45.44-2.1-4.15-10.03-17.7-23.99-17.7h-60.41s-28.96,0-28.96,0h-98.51v63.14s0,63.14,0,63.14Z"/>
    <g>
      <path class="cls-6" d="M72.13,48.29l-1.88,6.1c-3.58-1.54-6.54-2.32-8.9-2.32-4.31,0-7.62,2-9.93,5.99-2.01,3.53-3.02,8.09-3.02,13.68s.98,10.1,2.94,13.6c2.18,3.9,5.34,5.85,9.49,5.85,2.79,0,5.93-.97,9.41-2.9l2.02,6.1c-3.9,1.89-8.31,2.83-13.24,2.83-8.38,0-14.43-3.26-18.13-9.78-2.48-4.36-3.71-9.54-3.71-15.52,0-8.41,2.38-14.98,7.13-19.71,4.07-4.07,9.41-6.1,16.03-6.1,4.56,0,8.48.72,11.77,2.17Z"/>
      <path class="cls-6" d="M111.07,48.29l-1.88,6.1c-3.58-1.54-6.54-2.32-8.9-2.32-4.31,0-7.62,2-9.93,5.99-2.01,3.53-3.02,8.09-3.02,13.68s.98,10.1,2.94,13.6c2.18,3.9,5.34,5.85,9.49,5.85,2.79,0,5.93-.97,9.41-2.9l2.02,6.1c-3.9,1.89-8.31,2.83-13.24,2.83-8.38,0-14.43-3.26-18.13-9.78-2.48-4.36-3.71-9.54-3.71-15.52,0-8.41,2.38-14.98,7.13-19.71,4.07-4.07,9.41-6.1,16.03-6.1,4.56,0,8.48.72,11.77,2.17Z"/>
      <path class="cls-6" d="M136.63,88.3h24.56v8.2h-35.63v-5.04c5.1-4.39,10.01-9.18,14.74-14.38,2.65-2.92,4.64-5.43,5.99-7.54,2.08-3.28,3.12-6.38,3.12-9.3,0-3.24-1.23-5.55-3.68-6.95-1.52-.88-3.3-1.32-5.33-1.32-3.24,0-6.53.93-9.89,2.79l-2.02-6.32c3.38-1.57,7.94-2.35,13.68-2.35s10.15,1.26,13.31,3.79c2.89,2.3,4.34,5.36,4.34,9.16,0,3.48-1.32,6.97-3.97,10.48-3.09,4.12-9.5,10.38-19.23,18.79Z"/>
      <path class="cls-6" d="M176.86,88.3h24.56v8.2h-35.63v-5.04c5.1-4.39,10.01-9.18,14.74-14.38,2.65-2.92,4.64-5.43,5.99-7.54,2.08-3.28,3.12-6.38,3.12-9.3,0-3.24-1.23-5.55-3.68-6.95-1.52-.88-3.3-1.32-5.33-1.32-3.24,0-6.53.93-9.89,2.79l-2.02-6.32c3.38-1.57,7.94-2.35,13.68-2.35s10.15,1.26,13.31,3.79c2.89,2.3,4.34,5.36,4.34,9.16,0,3.48-1.32,6.97-3.97,10.48-3.09,4.12-9.5,10.38-19.23,18.79Z"/>
    </g>
    <g>
      <path class="cls-4" d="M252.16,96.5v-35.41c-.02-1.67.97-3.48,2.98-5.44,1.5-1.42,3.19-2.39,5.07-2.9v-.22h-9.12l-.44-5.74h30.89v6.1h-19.3v15h18.02v5.88h-18.02v16.47h19.6v6.25h-29.67Z"/>
      <path class="cls-4" d="M285.73,46.79h10.33l6.91,35.7,9.63-35.7h7.46l8.97,35.63,6.18-30.3c.47-2.28,1.97-3.95,4.52-5,1.13-.44,2.35-.72,3.68-.85l-11.84,50.23h-7.54l-9.49-35.92-8.49,30.11c-.74,2.62-2.34,4.44-4.82,5.44-1.27.51-2.73.78-4.38.81l-11.14-50.15Z"/>
      <path class="cls-4" d="M370.08,88.3h24.56v8.2h-35.63v-5.04c5.1-4.39,10.01-9.18,14.74-14.38,2.65-2.92,4.64-5.43,5.99-7.54,2.08-3.28,3.12-6.38,3.12-9.3,0-3.24-1.23-5.55-3.68-6.95-1.52-.88-3.3-1.32-5.33-1.32-3.24,0-6.53.93-9.89,2.79l-2.02-6.32c3.38-1.57,7.94-2.35,13.68-2.35s10.15,1.26,13.31,3.79c2.89,2.3,4.34,5.36,4.34,9.16,0,3.48-1.32,6.97-3.97,10.48-3.09,4.12-9.5,10.38-19.23,18.79Z"/>
      <path class="cls-4" d="M419.06,46.79h6.1v49.71h-9.41v-42.1l-12.21,7.13-2.46-4.67,17.98-10.07Z"/>
    </g>
  </g>
</svg>