<?xml version="1.0" encoding="UTF-8"?>
<svg id="Layer_1" data-name="Layer 1" xmlns="http://www.w3.org/2000/svg" viewBox="0 0 238.13 141.73">
  <defs>
    <style>
      .cls-1 {
        fill: #ff9e18;
      }

      .cls-1, .cls-2 {
        fill-rule: evenodd;
      }

      .cls-2 {
        fill: #fff;
      }

      .cls-3 {
        fill: #231f20;
      }
    </style>
  </defs>
  <g>
    <path class="cls-2" d="M235.19,45.71c-1.96-8.25-4.9-16.2-8.7-23.74-2.13-4.22-6.23-10.6-12.31-15.32-5-3.89-11.17-6.65-18.54-6.65H42.49c-7.37,0-13.54,2.76-18.54,6.65-6.08,4.72-10.18,11.1-12.31,15.32-3.8,7.53-6.75,15.49-8.7,23.74-1.92,8.1-2.94,16.52-2.94,25.16s1.02,17.06,2.94,25.16c1.96,8.25,4.9,16.2,8.7,23.74,2.13,4.22,6.23,10.6,12.31,15.32,5,3.89,11.17,6.65,18.54,6.65h153.15c7.37,0,13.54-2.76,18.54-6.65,6.08-4.72,10.18-11.1,12.31-15.32,3.8-7.54,6.74-15.49,8.7-23.74,1.92-8.1,2.94-16.52,2.94-25.16s-1.02-17.06-2.94-25.16Z"/>
    <path class="cls-1" d="M219.61,25.44c-2.1-4.15-10.03-17.7-23.99-17.7H42.5c-13.96,0-21.89,13.55-23.99,17.7-7.15,14.17-10.78,29.46-10.78,45.44s3.63,31.27,10.78,45.43c2.1,4.15,10.02,17.71,23.99,17.71h153.12c13.97,0,21.89-13.55,23.99-17.71,7.15-14.17,10.78-29.45,10.78-45.43s-3.63-31.27-10.78-45.44Z"/>
  </g>
  <g>
    <path class="cls-3" d="M75.83,48.34l-1.88,6.1c-3.58-1.54-6.54-2.32-8.9-2.32-4.31,0-7.62,2-9.93,5.99-2.01,3.53-3.02,8.09-3.02,13.68s.98,10.1,2.94,13.6c2.18,3.9,5.34,5.85,9.49,5.85,2.79,0,5.93-.97,9.41-2.91l2.02,6.1c-3.9,1.89-8.31,2.83-13.24,2.83-8.38,0-14.43-3.26-18.13-9.78-2.48-4.36-3.71-9.54-3.71-15.52,0-8.41,2.38-14.98,7.13-19.71,4.07-4.07,9.41-6.1,16.03-6.1,4.56,0,8.48.72,11.77,2.17Z"/>
    <path class="cls-3" d="M114.77,48.34l-1.88,6.1c-3.58-1.54-6.54-2.32-8.9-2.32-4.31,0-7.62,2-9.93,5.99-2.01,3.53-3.02,8.09-3.02,13.68s.98,10.1,2.94,13.6c2.18,3.9,5.34,5.85,9.49,5.85,2.79,0,5.93-.97,9.41-2.91l2.02,6.1c-3.9,1.89-8.31,2.83-13.24,2.83-8.38,0-14.43-3.26-18.13-9.78-2.48-4.36-3.71-9.54-3.71-15.52,0-8.41,2.38-14.98,7.13-19.71,4.07-4.07,9.41-6.1,16.03-6.1,4.56,0,8.48.72,11.77,2.17Z"/>
    <path class="cls-3" d="M150.48,69.67c3.65.69,6.52,1.79,8.6,3.31,3.26,2.38,4.89,5.5,4.89,9.38,0,4.56-1.95,8.25-5.85,11.07-3.55,2.57-8.1,3.86-13.64,3.86-5.15,0-9.72-.97-13.71-2.9l1.95-6.51c3.53,2.21,7.27,3.31,11.21,3.31,3.43,0,6.02-.96,7.76-2.87,1.42-1.54,2.13-3.57,2.13-6.07s-.83-4.74-2.5-6.43c-1.45-1.45-3.31-2.35-5.59-2.72-1.47-.22-3.35-.33-5.63-.33h-2.43v-4.89h1.88c1.99,0,3.44-.07,4.38-.22,2.06-.29,3.81-1.13,5.26-2.5,1.52-1.42,2.28-3.32,2.28-5.7s-.72-4.22-2.17-5.52c-1.42-1.25-3.43-1.88-6.03-1.88-3.29,0-6.37.89-9.27,2.68l-2.06-6.18c3.5-1.59,7.78-2.39,12.83-2.39,4.61,0,8.33.82,11.18,2.46,3.58,2.08,5.37,5.12,5.37,9.12,0,5.56-3.62,9.54-10.85,11.91Z"/>
    <path class="cls-3" d="M182.73,46.84h6.1v49.71h-9.41v-42.1l-12.21,7.13-2.46-4.67,17.98-10.08Z"/>
  </g>
</svg>