<?xml version="1.0" encoding="UTF-8"?>
<svg id="Layer_1" data-name="Layer 1" xmlns="http://www.w3.org/2000/svg" viewBox="0 0 683.46 141.73">
  <defs>
    <style>
      .cls-1 {
        fill: #ff9e18;
      }

      .cls-1, .cls-2, .cls-3, .cls-4 {
        fill-rule: evenodd;
      }

      .cls-2, .cls-5 {
        fill: #fff;
      }

      .cls-6 {
        fill: #231f20;
      }

      .cls-7 {
        fill: #2d2a26;
      }

      .cls-3 {
        fill: #e1251b;
      }

      .cls-4 {
        fill: #9d5918;
      }
    </style>
  </defs>
  <g>
    <path class="cls-2" d="M2.93,45.71c1.95-8.25,4.9-16.2,8.7-23.74,2.13-4.22,6.23-10.6,12.31-15.32C28.95,2.76,35.11,0,42.49,0h60.42s28.96,0,28.96,0h133.26s60.42,0,60.42,0h7.59s21.37,0,21.37,0h57.26s6.5,0,6.5,0h129.98s28.96,0,28.96,0h63.76c7.38,0,13.54,2.76,18.55,6.65,6.08,4.72,10.18,11.1,12.31,15.32,3.8,7.53,6.75,15.49,8.7,23.74,1.92,8.1,2.93,16.52,2.93,25.16,0,8.64-1.02,17.07-2.93,25.16-1.96,8.25-4.9,16.2-8.7,23.74-2.13,4.22-6.23,10.6-12.31,15.32-5.01,3.89-11.17,6.65-18.55,6.65h-63.76s-28.96,0-28.96,0h-129.98s-4.08,0-4.08,0h-59.68s-21.37,0-21.37,0h-7.59s-60.42,0-60.42,0h-133.26s-28.96,0-28.96,0h-60.42c-7.37,0-13.54-2.76-18.55-6.65-6.08-4.72-10.18-11.1-12.31-15.32-3.8-7.54-6.75-15.49-8.7-23.74C1.02,87.93,0,79.51,0,70.87s1.02-17.06,2.93-25.16Z"/>
    <path class="cls-3" d="M453.08,7.74h95.18s28.96,0,28.96,0h63.75c13.96,0,21.89,13.55,23.99,17.7,7.15,14.17,10.78,29.46,10.78,45.44,0,15.98-3.63,31.27-10.78,45.43-2.1,4.15-10.02,17.71-23.99,17.71h-63.75s-28.96,0-28.96,0h-95.18V7.74Z"/>
    <polygon class="cls-4" points="230.38 70.88 230.38 7.74 325.56 7.74 354.52 7.74 453.03 7.74 453.03 70.88 453.03 134.02 354.52 134.02 325.56 134.02 230.38 134.02 230.38 70.88"/>
    <g>
      <path class="cls-5" d="M516,96.58h-6.4l-24.71-33.61v33.61h-6.69v-49.71h6.4l24.63,33.61v-28.27c-.02-.81.42-1.77,1.32-2.87,1.59-1.89,3.41-2.85,5.44-2.9v50.15Z"/>
      <path class="cls-5" d="M552.29,48.3l-1.8,5.96c-3.21-1.49-6.35-2.24-9.41-2.24-2.06,0-3.74.38-5.04,1.14-1.62.93-2.43,2.38-2.43,4.34,0,1.35.45,2.56,1.36,3.64.91,1.08,2.61,2.45,5.11,4.12l3.16,2.1c3.28,2.21,5.75,4.24,7.39,6.1,2.55,2.89,3.82,6.24,3.82,10.04,0,4.22-1.38,7.55-4.15,10-2.89,2.55-6.97,3.82-12.24,3.82-4.36,0-8.74-1.05-13.13-3.16l2.21-6.54c3.46,2.5,7.02,3.75,10.7,3.75,2.65,0,4.65-.71,5.99-2.13.91-.98,1.36-2.21,1.36-3.68,0-1.54-.51-2.93-1.54-4.15-1.03-1.23-2.87-2.7-5.52-4.41l-3.16-2.02c-3.06-1.96-5.39-3.9-6.99-5.81-2.33-2.74-3.49-5.87-3.49-9.38,0-5.05,2.02-8.73,6.07-11.03,2.77-1.59,6.2-2.39,10.29-2.39s8.1.65,11.44,1.95Z"/>
      <path class="cls-5" d="M588.98,88.38h24.56v8.2h-35.63v-5.04c5.1-4.39,10.01-9.18,14.74-14.38,2.65-2.92,4.65-5.43,5.99-7.54,2.08-3.28,3.12-6.38,3.12-9.3,0-3.24-1.23-5.55-3.68-6.95-1.52-.88-3.3-1.32-5.33-1.32-3.24,0-6.53.93-9.89,2.79l-2.02-6.32c3.38-1.57,7.94-2.35,13.68-2.35s10.15,1.26,13.31,3.79c2.89,2.3,4.34,5.36,4.34,9.16,0,3.48-1.32,6.97-3.97,10.48-3.09,4.12-9.5,10.38-19.23,18.79Z"/>
      <path class="cls-5" d="M619.39,46.87h34.71v4.89l-22.28,44.82h-6.91l21.29-41.51h-26.8v-8.2Z"/>
    </g>
    <g>
      <path class="cls-5" d="M268.08,96.58v-35c0-.96.42-2.1,1.25-3.42,1.79-2.6,4.06-4.25,6.8-4.96v-.22h-20.7l-.37-6.1h36.14v6.1h-13.05v43.61h-10.07Z"/>
      <path class="cls-5" d="M297.53,96.58v-35.41c-.02-1.67.97-3.48,2.98-5.44,1.5-1.42,3.19-2.39,5.07-2.9v-.22h-9.12l-.44-5.74h30.89v6.1h-19.3v15h18.02v5.88h-18.02v16.47h19.6v6.25h-29.67Z"/>
      <path class="cls-5" d="M361.77,88.38h24.56v8.2h-35.63v-5.04c5.1-4.39,10.01-9.18,14.74-14.38,2.65-2.92,4.65-5.43,5.99-7.54,2.08-3.28,3.12-6.38,3.12-9.3,0-3.24-1.23-5.55-3.68-6.95-1.52-.88-3.3-1.32-5.33-1.32-3.24,0-6.53.93-9.89,2.79l-2.02-6.32c3.38-1.57,7.94-2.35,13.68-2.35s10.15,1.26,13.31,3.79c2.89,2.3,4.34,5.36,4.34,9.16,0,3.48-1.32,6.97-3.97,10.48-3.09,4.12-9.5,10.38-19.23,18.79Z"/>
      <path class="cls-5" d="M410.34,46.2c5.78,0,10.07,2.45,12.87,7.35,2.43,4.22,3.64,10.09,3.64,17.61,0,6.72-.9,12.15-2.68,16.29-2.82,6.57-7.73,9.85-14.74,9.85s-11.96-3.49-14.71-10.48c-1.57-4-2.35-8.96-2.35-14.89,0-6.23.89-11.42,2.68-15.59,2.92-6.77,8.02-10.15,15.3-10.15ZM409.71,51.02c-2.65,0-4.57,1.62-5.77,4.85-1.05,2.87-1.58,8.35-1.58,16.44,0,6.52.38,11.24,1.14,14.16,1.03,3.92,3.05,5.88,6.07,5.88,2.08,0,3.69-.96,4.82-2.87,1.64-2.87,2.46-8.7,2.46-17.5,0-6.84-.42-11.91-1.25-15.22-.96-3.82-2.92-5.74-5.88-5.74Z"/>
    </g>
    <path class="cls-1" d="M230.39,134.02h-98.51s-28.96,0-28.96,0h-60.41c-13.97,0-21.89-13.55-23.99-17.71-7.15-14.17-10.78-29.45-10.78-45.43,0-15.98,3.63-31.27,10.78-45.44,2.1-4.15,10.03-17.7,23.99-17.7h60.41s28.96,0,28.96,0h98.51v63.14s0,63.14,0,63.14Z"/>
    <g>
      <path class="cls-7" d="M68.25,48.37l-1.88,6.1c-3.58-1.54-6.54-2.32-8.9-2.32-4.31,0-7.62,2-9.93,5.99-2.01,3.53-3.01,8.09-3.01,13.68s.98,10.1,2.94,13.6c2.18,3.9,5.34,5.85,9.49,5.85,2.79,0,5.93-.97,9.41-2.9l2.02,6.1c-3.9,1.89-8.31,2.83-13.24,2.83-8.38,0-14.43-3.26-18.13-9.78-2.48-4.36-3.71-9.54-3.71-15.52,0-8.41,2.38-14.98,7.13-19.71,4.07-4.07,9.41-6.1,16.03-6.1,4.56,0,8.48.72,11.77,2.17Z"/>
      <path class="cls-7" d="M107.19,48.37l-1.88,6.1c-3.58-1.54-6.54-2.32-8.9-2.32-4.31,0-7.62,2-9.93,5.99-2.01,3.53-3.01,8.09-3.01,13.68s.98,10.1,2.94,13.6c2.18,3.9,5.34,5.85,9.49,5.85,2.79,0,5.93-.97,9.41-2.9l2.02,6.1c-3.9,1.89-8.31,2.83-13.24,2.83-8.38,0-14.43-3.26-18.13-9.78-2.48-4.36-3.71-9.54-3.71-15.52,0-8.41,2.38-14.98,7.13-19.71,4.07-4.07,9.41-6.1,16.03-6.1,4.56,0,8.48.72,11.77,2.17Z"/>
      <path class="cls-7" d="M150.43,69.7c3.65.69,6.52,1.79,8.6,3.31,3.26,2.38,4.89,5.5,4.89,9.38,0,4.56-1.95,8.25-5.85,11.07-3.55,2.57-8.1,3.86-13.64,3.86-5.15,0-9.72-.97-13.71-2.9l1.95-6.51c3.53,2.21,7.27,3.31,11.21,3.31,3.43,0,6.02-.96,7.76-2.87,1.42-1.54,2.13-3.57,2.13-6.07s-.83-4.74-2.5-6.43c-1.45-1.45-3.31-2.35-5.59-2.72-1.47-.22-3.35-.33-5.63-.33h-2.43v-4.89h1.88c1.99,0,3.44-.07,4.38-.22,2.06-.29,3.81-1.13,5.26-2.5,1.52-1.42,2.28-3.32,2.28-5.7s-.72-4.22-2.17-5.52c-1.42-1.25-3.43-1.88-6.03-1.88-3.28,0-6.37.9-9.27,2.68l-2.06-6.18c3.5-1.59,7.78-2.39,12.83-2.39,4.61,0,8.33.82,11.18,2.46,3.58,2.08,5.37,5.12,5.37,9.12,0,5.56-3.62,9.54-10.85,11.91Z"/>
      <path class="cls-7" d="M190.65,69.7c3.65.69,6.52,1.79,8.6,3.31,3.26,2.38,4.89,5.5,4.89,9.38,0,4.56-1.95,8.25-5.85,11.07-3.55,2.57-8.1,3.86-13.64,3.86-5.15,0-9.72-.97-13.71-2.9l1.95-6.51c3.53,2.21,7.27,3.31,11.21,3.31,3.43,0,6.02-.96,7.76-2.87,1.42-1.54,2.13-3.57,2.13-6.07s-.83-4.74-2.5-6.43c-1.45-1.45-3.31-2.35-5.59-2.72-1.47-.22-3.35-.33-5.63-.33h-2.43v-4.89h1.88c1.99,0,3.44-.07,4.38-.22,2.06-.29,3.81-1.13,5.26-2.5,1.52-1.42,2.28-3.32,2.28-5.7s-.72-4.22-2.17-5.52c-1.42-1.25-3.43-1.88-6.03-1.88-3.28,0-6.37.9-9.27,2.68l-2.06-6.18c3.51-1.59,7.78-2.39,12.83-2.39,4.61,0,8.33.82,11.18,2.46,3.58,2.08,5.37,5.12,5.37,9.12,0,5.56-3.62,9.54-10.85,11.91Z"/>
    </g>
  </g>
</svg>