<?xml version="1.0" encoding="UTF-8"?>
<svg id="Layer_1" data-name="Layer 1" xmlns="http://www.w3.org/2000/svg" viewBox="0 0 238.13 141.73">
  <defs>
    <style>
      .cls-1 {
        fill: #ff9e18;
      }

      .cls-1, .cls-2 {
        fill-rule: evenodd;
      }

      .cls-2 {
        fill: #fff;
      }

      .cls-3 {
        fill: #231f20;
      }
    </style>
  </defs>
  <g>
    <path class="cls-2" d="M235.19,45.71c-1.96-8.25-4.9-16.2-8.7-23.74-2.13-4.22-6.23-10.6-12.31-15.32-5-3.89-11.17-6.65-18.54-6.65H42.49c-7.37,0-13.54,2.76-18.54,6.65-6.08,4.72-10.18,11.1-12.31,15.32-3.8,7.53-6.75,15.49-8.7,23.74-1.92,8.1-2.94,16.52-2.94,25.16s1.02,17.06,2.94,25.16c1.96,8.25,4.9,16.2,8.7,23.74,2.13,4.22,6.23,10.6,12.31,15.32,5,3.89,11.17,6.65,18.54,6.65h153.15c7.37,0,13.54-2.76,18.54-6.65,6.08-4.72,10.18-11.1,12.31-15.32,3.8-7.54,6.74-15.49,8.7-23.74,1.92-8.1,2.94-16.52,2.94-25.16s-1.02-17.06-2.94-25.16Z"/>
    <path class="cls-1" d="M219.61,25.44c-2.1-4.15-10.03-17.7-23.99-17.7H42.5c-13.96,0-21.89,13.55-23.99,17.7-7.15,14.17-10.78,29.46-10.78,45.44s3.63,31.27,10.78,45.43c2.1,4.15,10.02,17.71,23.99,17.71h153.12c13.97,0,21.89-13.55,23.99-17.71,7.15-14.17,10.78-29.45,10.78-45.43s-3.63-31.27-10.78-45.44Z"/>
  </g>
  <g>
    <path class="cls-3" d="M92.18,48.34l-1.88,6.1c-3.58-1.54-6.54-2.32-8.9-2.32-4.31,0-7.62,2-9.93,5.99-2.01,3.53-3.02,8.09-3.02,13.68s.98,10.1,2.94,13.6c2.18,3.9,5.34,5.85,9.49,5.85,2.79,0,5.93-.97,9.41-2.9l2.02,6.1c-3.9,1.89-8.31,2.83-13.24,2.83-8.38,0-14.43-3.26-18.13-9.78-2.48-4.36-3.71-9.54-3.71-15.52,0-8.41,2.38-14.98,7.13-19.71,4.07-4.07,9.41-6.1,16.03-6.1,4.56,0,8.48.72,11.77,2.17Z"/>
    <path class="cls-3" d="M131.12,48.34l-1.88,6.1c-3.58-1.54-6.54-2.32-8.9-2.32-4.31,0-7.62,2-9.93,5.99-2.01,3.53-3.02,8.09-3.02,13.68s.98,10.1,2.94,13.6c2.18,3.9,5.34,5.85,9.49,5.85,2.79,0,5.93-.97,9.41-2.9l2.02,6.1c-3.9,1.89-8.31,2.83-13.24,2.83-8.38,0-14.43-3.26-18.13-9.78-2.48-4.36-3.71-9.54-3.71-15.52,0-8.41,2.38-14.98,7.13-19.71,4.07-4.07,9.41-6.1,16.03-6.1,4.56,0,8.48.72,11.77,2.17Z"/>
    <path class="cls-3" d="M151.31,46.84h27.65v7.91h-21.99v12.79c2.5-.91,5.13-1.36,7.91-1.36,4.88,0,8.96,1.31,12.24,3.93,3.38,2.7,5.07,6.3,5.07,10.81s-1.52,7.96-4.56,10.99c-3.6,3.58-8.56,5.37-14.85,5.37-4.98,0-9.5-1.05-13.57-3.16l2.1-6.25c3.26,2.21,6.85,3.31,10.77,3.31,3.43,0,5.99-.93,7.68-2.79,1.52-1.69,2.28-3.98,2.28-6.88,0-3.87-1.42-6.64-4.27-8.31-1.81-1.05-4.02-1.58-6.62-1.58-3.28,0-6.57.96-9.85,2.87v-27.65Z"/>
  </g>
</svg>