<?xml version="1.0" encoding="UTF-8"?>
<svg id="Layer_1" data-name="Layer 1" xmlns="http://www.w3.org/2000/svg" viewBox="0 0 460.82 141.73">
  <defs>
    <style>
      .cls-1 {
        fill: #ff9e18;
      }

      .cls-1, .cls-2, .cls-3 {
        fill-rule: evenodd;
      }

      .cls-2, .cls-4 {
        fill: #fff;
      }

      .cls-5 {
        fill: #231f20;
      }

      .cls-3 {
        fill: #00953b;
      }

      .cls-6 {
        fill: #2d2a26;
      }
    </style>
  </defs>
  <g>
    <path class="cls-2" d="M457.88,45.71c-1.95-8.25-4.9-16.2-8.7-23.74-2.13-4.22-6.23-10.6-12.31-15.32C431.87,2.76,425.71,0,418.33,0h-60.42s-28.96,0-28.96,0h-57.26s-6.5,0-6.5,0h-129.98s-28.96,0-28.96,0h-63.76c-7.38,0-13.54,2.76-18.55,6.65-6.08,4.72-10.18,11.1-12.31,15.32-3.8,7.53-6.75,15.49-8.7,23.74C1.02,53.8,0,62.23,0,70.87c0,8.64,1.02,17.07,2.93,25.16,1.96,8.25,4.9,16.2,8.7,23.74,2.13,4.22,6.23,10.6,12.31,15.32,5.01,3.89,11.17,6.65,18.55,6.65h63.76s28.96,0,28.96,0h129.98s4.08,0,4.08,0h59.68s28.96,0,28.96,0h60.42c7.37,0,13.54-2.76,18.55-6.65,6.08-4.72,10.18-11.1,12.31-15.32,3.8-7.54,6.75-15.49,8.7-23.74,1.92-8.1,2.94-16.52,2.94-25.16,0-8.64-1.02-17.06-2.94-25.16Z"/>
    <path class="cls-1" d="M230.39,7.74h-95.18s-28.96,0-28.96,0h-63.75c-13.96,0-21.89,13.55-23.99,17.7-7.15,14.17-10.78,29.46-10.78,45.44,0,15.98,3.63,31.27,10.78,45.43,2.1,4.15,10.02,17.71,23.99,17.71h63.75s28.96,0,28.96,0h95.18V7.74Z"/>
    <path class="cls-3" d="M230.43,134.02h98.51s28.96,0,28.96,0h60.41c13.97,0,21.89-13.55,23.99-17.71,7.15-14.17,10.78-29.45,10.78-45.43,0-15.98-3.63-31.27-10.78-45.44-2.1-4.15-10.03-17.7-23.99-17.7h-60.41s-28.96,0-28.96,0h-98.51v63.14s0,63.14,0,63.14Z"/>
    <g>
      <path class="cls-6" d="M92.25,48.3l-1.88,6.1c-3.58-1.54-6.54-2.32-8.9-2.32-4.31,0-7.62,2-9.93,5.99-2.01,3.53-3.02,8.09-3.02,13.68s.98,10.1,2.94,13.6c2.18,3.9,5.34,5.85,9.49,5.85,2.79,0,5.93-.97,9.41-2.9l2.02,6.1c-3.9,1.89-8.31,2.83-13.24,2.83-8.38,0-14.43-3.26-18.13-9.78-2.48-4.36-3.71-9.54-3.71-15.52,0-8.41,2.38-14.98,7.13-19.71,4.07-4.07,9.41-6.1,16.03-6.1,4.56,0,8.48.72,11.77,2.17Z"/>
      <path class="cls-6" d="M131.18,48.3l-1.88,6.1c-3.58-1.54-6.54-2.32-8.9-2.32-4.31,0-7.62,2-9.93,5.99-2.01,3.53-3.02,8.09-3.02,13.68s.98,10.1,2.94,13.6c2.18,3.9,5.34,5.85,9.49,5.85,2.79,0,5.93-.97,9.41-2.9l2.02,6.1c-3.9,1.89-8.31,2.83-13.24,2.83-8.38,0-14.43-3.26-18.13-9.78-2.48-4.36-3.71-9.54-3.71-15.52,0-8.41,2.38-14.98,7.13-19.71,4.07-4.07,9.41-6.1,16.03-6.1,4.56,0,8.48.72,11.77,2.17Z"/>
      <path class="cls-6" d="M149.13,94.7l1.95-6.03c2.89,1.94,5.88,2.9,8.97,2.9,4.58,0,7.78-2.44,9.6-7.32,1.1-2.94,1.64-7.12,1.62-12.54-3.06,4.27-6.65,6.4-10.77,6.4-3.85,0-7.1-1.31-9.74-3.93-2.84-2.84-4.27-6.63-4.27-11.36s1.53-8.93,4.6-12.02c3.09-3.11,7.12-4.67,12.1-4.67,6.81,0,11.75,2.66,14.82,7.98,2.28,3.97,3.42,9.13,3.42,15.48,0,9.29-2.08,16.37-6.25,21.25-3.65,4.27-8.53,6.4-14.63,6.4-4.19,0-7.99-.85-11.4-2.54ZM163.29,51.02c-2.79,0-4.79,1.48-5.99,4.45-.69,1.69-1.03,3.75-1.03,6.18,0,2.67.38,4.89,1.14,6.66,1.15,2.72,3.09,4.08,5.81,4.08,2.48,0,4.33-1.09,5.55-3.27,1.1-1.91,1.65-4.44,1.65-7.57s-.53-5.53-1.58-7.32c-1.23-2.13-3.08-3.2-5.55-3.2Z"/>
    </g>
    <g>
      <path class="cls-4" d="M271.79,96.5v-35.41c-.02-1.67.97-3.48,2.98-5.44,1.5-1.42,3.19-2.39,5.07-2.9v-.22h-9.12l-.44-5.74h30.89v6.1h-19.3v15h18.02v5.88h-18.02v16.47h19.6v6.25h-29.67Z"/>
      <path class="cls-4" d="M305.36,46.79h10.33l6.91,35.7,9.63-35.7h7.46l8.97,35.63,6.18-30.3c.47-2.28,1.97-3.95,4.52-5,1.13-.44,2.35-.72,3.68-.85l-11.84,50.23h-7.54l-9.49-35.92-8.49,30.11c-.74,2.62-2.34,4.44-4.82,5.44-1.27.51-2.73.78-4.38.81l-11.14-50.15Z"/>
      <path class="cls-4" d="M390.97,70.51c-2.52-.69-4.47-1.6-5.85-2.76-2.82-2.28-4.23-5.26-4.23-8.93s1.32-6.46,3.97-8.79c2.99-2.6,7.19-3.9,12.61-3.9,5.74,0,10.06,1.46,12.98,4.38,2.23,2.23,3.35,4.9,3.35,8.02,0,3.41-1.39,6.32-4.15,8.75-1.52,1.32-3.53,2.4-6.03,3.24,2.67.66,4.79,1.51,6.36,2.54,3.36,2.23,5.04,5.53,5.04,9.89,0,3.82-1.29,7-3.86,9.52-3.21,3.19-7.92,4.78-14.12,4.78s-11.14-1.65-14.23-4.96c-2.18-2.38-3.27-5.26-3.27-8.64,0-6.23,3.81-10.6,11.44-13.13ZM397.22,73.15c-2.16,0-3.93.78-5.33,2.35-1.52,1.72-2.28,4.12-2.28,7.21,0,3.36.89,5.93,2.68,7.72,1.37,1.37,3.06,2.06,5.07,2.06,2.77,0,4.82-1.18,6.14-3.53,1-1.76,1.51-3.87,1.51-6.32,0-3.16-.87-5.63-2.61-7.39-1.37-1.4-3.1-2.1-5.18-2.1ZM397.22,51.09c-2.87,0-4.9,1.41-6.1,4.23-.54,1.3-.81,2.75-.81,4.34,0,3.04.83,5.33,2.5,6.88,1.2,1.1,2.7,1.65,4.49,1.65,2.03,0,3.68-.72,4.93-2.17,1.4-1.57,2.1-3.73,2.1-6.47,0-2.5-.62-4.52-1.88-6.07-1.27-1.59-3.02-2.39-5.22-2.39Z"/>
    </g>
  </g>
</svg>