<svg width="201" height="201" xmlns="http://www.w3.org/2000/svg" xmlns:xlink="http://www.w3.org/1999/xlink" xml:space="preserve" overflow="hidden"><g transform="translate(-1755 -1421)"><path d="M6.28315 72.548 16.201 72.548 16.201 12.3686 6.28315 12.3686ZM20.1577-0.451847 20.1577 28.8079 18.6561 68.1716 21.2083 68.1716 23.1629 28.8079 23.1629-0.302193ZM-0.837178 69.8312 2.1684 69.8312 2.1684-0.451487-0.837178-0.451487Z" fill="#221F20" fill-rule="evenodd" transform="matrix(1 0 0 -1 1793 1592)"/><path d="M-0.895064-0.407603 66.105-0.407603 66.105 12.5925-0.895064 12.5925Z" fill="#221F20" fill-rule="evenodd" transform="matrix(1 0 0 -1 1821 1592)"/><path d="M15.9307 30.4822 15.9307 12.3686 6.38263 12.3686 6.01403 12.7448 6.01403 40.4362ZM6.01403 72.548 15.9307 72.548 15.9307 33.0289 6.01403 42.9828ZM2.72499 46.281 3.56207 68.1716 1.00737 68.1716 0.0535299 48.9658ZM2.06072 16.7101 2.06072 28.8111 2.63159 43.8317-0.0664633 46.5367-0.947371 28.8111-0.947371 19.7324ZM2.06072-0.451847 2.06072 14.1663-0.947371 17.1857-0.947371-0.298948ZM23.0531 23.3331 23.0531-0.451847 20.0421-0.451847 20.0421 26.3496ZM20.0421 69.8341 23.0531 69.8341 23.0531 25.8797 20.0421 28.8962Z" fill="#221F20" fill-rule="evenodd" transform="matrix(1 0 0 -1 1893 1592)"/><path d="M2.25455 1.64588C-1.45103 4.75998-2.0776 10.4005 1.15422 14.2554 4.38322 18.1164 10.0324 18.4781 13.7379 15.3612 17.5907 12.1195 18.2148 6.4819 14.9826 2.62694 11.7536-1.22802 6.10445-1.58974 2.25455 1.64588" fill="#221F20" fill-rule="evenodd" transform="matrix(1 0 0 -1 1898 1488)"/><path d="M14.2577 21.2759 12.6704 4.93286C12.3538 1.68988 9.23847-0.737056 5.74779-0.462052 2.25676-0.187046-0.342152 2.69297-0.0255714 5.93307L2.37706 30.6742 2.11306 33.3819ZM14.6038 51.035C14.3074 50.8885 14.0023 50.76 13.6915 50.6458L15.5366 31.6654C15.6421 30.5747 15.4282 29.5221 14.9704 28.589L14.4835 23.589 1.84006 36.189-0.177919 56.9709C-1.26056 59.7224-1.17556 62.8132 0.162432 65.4332ZM36.15 91.9436C40.6675 88.1653 41.3979 81.5512 37.7693 77.2466L17.8099 53.529C17.3172 52.95 16.7716 52.4384 16.1849 51.9968L1.15071 66.9831 1.38554 67.2696 21.3449 90.9814C24.9706 95.2885 31.6325 95.7215 36.15 91.9436" fill="#221F20" fill-rule="evenodd" transform="matrix(1 0 0 -1 1860 1578)"/><path d="M14.5062 13.0092 27.0788 7.50929C29.4794 6.46041 30.6706 3.89675 29.7265 1.81319 28.782-0.267543 26.0494-1.11169 23.6488-0.0624503L9.00531 6.3419C7.55811 6.97775 6.55191 8.15969 6.18424 9.45447 5.80177 9.87921 5.49008 10.3763 5.26941 10.937L-0.61976 26.0088C-1.58479 28.477-0.363694 31.2571 2.09223 32.185 4.54563 33.1068 7.34611 31.8436 8.31114 29.3729L14.1974 14.3068C14.365 13.8792 14.4679 13.4428 14.5062 13.0092" fill="#221F20" fill-rule="evenodd" transform="matrix(1 0 0 -1 1888 1520)"/><path d="M14.0343 13.0075 26.1992 7.50756C28.5242 6.45783 29.678 3.89492 28.7641 1.81041 27.8471-0.268394 25.2022-1.11487 22.88-0.062649L8.71027 6.33894C7.31069 6.97397 6.3365 8.15683 5.9795 9.45288 5.61128 9.87896 5.30829 10.3748 5.09403 10.9344L-0.601422 26.0047C-1.5381 28.475-0.355593 31.2554 2.02064 32.1831 4.39722 33.105 7.10484 31.8438 8.03906 29.3706L13.7373 14.3064C13.8972 13.8771 13.9972 13.4393 14.0343 13.0075Z" stroke="#FFFFFF" stroke-width="2.62657" stroke-miterlimit="8" fill="none" fill-rule="evenodd" transform="matrix(1 0 0 -1 1888.5 1520.5)"/><path d="M148.598 36.1461 35.745 148.996C25.0671 135.353 18.6996 118.169 18.6996 99.5018 18.6996 77.3063 27.7013 57.201 42.2478 42.6549 56.8002 28.1029 76.9032 19.1012 99.1051 19.1012 117.768 19.1012 134.954 25.4688 148.598 36.1461M49.6036 162.857 51.3676 161.093C87.8074 124.652 124.25 88.2098 160.699 51.7682L162.46 50.0043 162.463 50.01C162.475 50.0248 162.489 50.0454 162.501 50.0631L162.51 50.0718C162.607 50.1923 162.753 50.3836 162.915 50.5951L162.927 50.607C162.942 50.6305 162.962 50.6511 162.977 50.6774L163.004 50.7041C163.13 50.8716 163.262 51.0481 163.371 51.1921L163.383 51.2065C163.415 51.2477 163.451 51.295 163.483 51.3419L163.565 51.4476C173.573 64.8532 179.505 81.4867 179.505 99.5018 179.505 121.7 170.5 141.803 155.954 156.345 141.401 170.898 121.301 179.905 99.1051 179.905 81.0866 179.905 64.4559 173.973 51.047 163.959 50.9676 163.898 50.8853 163.836 50.8001 163.777L50.7911 163.768C50.6323 163.648 50.459 163.516 50.3121 163.407L50.2916 163.389C50.2649 163.369 50.2327 163.345 50.206 163.322L50.1916 163.316C50.0032 163.169 49.7974 163.007 49.6624 162.904L49.6563 162.901C49.6419 162.887 49.6242 162.875 49.6094 162.86ZM99.1051 199.502C126.708 199.502 151.711 188.304 169.809 170.21 187.91 152.109 199.102 127.112 199.102 99.5018 199.102 71.8911 187.91 46.8912 169.809 28.7938 151.711 10.6993 126.708-0.498454 99.1051-0.498454 71.4908-0.498454 46.4901 10.6993 28.395 28.7938 10.2971 46.8912-0.897677 71.894-0.897677 99.5018-0.897677 127.109 10.2971 152.109 28.395 170.21 46.4901 188.304 71.4908 199.502 99.1051 199.502" fill="#E32626" fill-rule="evenodd" transform="matrix(1 0 0 -1 1756 1621)"/></g></svg>