<svg width="201" height="201" xmlns="http://www.w3.org/2000/svg" xmlns:xlink="http://www.w3.org/1999/xlink" xml:space="preserve" overflow="hidden"><g transform="translate(-1502 -1421)"><path d="M7.08079-0.178725C12.4866-1.74819 18.3177 1.32809 19.9412 6.9979 21.556 12.6673 18.2374 18.4061 12.8257 19.9759 7.20857 21.6117 1.37746 18.5291-0.240225 12.8626-1.85499 7.19284 1.46362 1.45117 7.08079-0.178725" fill="#221F20" fill-rule="evenodd" transform="matrix(1 0 0 -1 1614 1475)"/><path d="M20.3723 45.9751 11.6523 34.5637 12.2554 8.53079 12.2554 8.52791C12.2958 6.79402 11.6551 5.20095 10.5902 4.03362 9.52487 2.86016 8.02971 2.11208 6.37011 2.0739 4.71335 2.03572 3.18913 2.71033 2.06927 3.82832 0.952239 4.94595 0.239211 6.50948 0.198811 8.24049L-0.416051 34.7279C-0.652781 35.655-0.678652 36.6376-0.485156 37.5938-0.297685 38.5267 0.103481 39.4361 0.715508 40.2372L11.7763 54.7145ZM17.6907 78.9021 6.01785 76.4407C4.51986 76.1241 3.03922 76.3877 1.86727 77.0685 0.683613 77.755-0.191015 78.8669-0.470981 80.2341-0.747757 81.6038-0.378486 82.9768 0.435542 84.0887 1.2439 85.1829 2.4963 86.025 3.99465 86.3416L9.2768 87.4564ZM20.0172 79.0808 20.1125 79.4154 19.7631 79.3419 11.3493 87.8936 18.1928 89.3339C18.2938 89.46 18.4008 89.5832 18.5164 89.7006 18.6546 89.8472 18.8048 89.9909 18.9519 90.1173L18.9551 90.1173 24.4882 94.849 25.8883 99.801 25.9489 100.021 25.9546 100.021C26.4079 101.517 27.1379 102.861 28.076 104.014L28.076 104.011C29.0952 105.266 30.3621 106.296 31.7765 107.053 33.1937 107.807 34.7668 108.291 36.4005 108.455 37.9793 108.611 39.6162 108.473 41.2326 108.003L41.2354 108C42.8518 107.528 44.3094 106.76 45.5593 105.774 46.861 104.75 47.9408 103.489 48.7431 102.086 49.5511 100.678 50.0824 99.1232 50.29 97.5128 50.4864 95.9608 50.3882 94.3505 49.9381 92.7693L49.9381 92.7661 40.3899 59.0593 40.3289 58.8363 40.3232 58.8363 40.2279 58.5399ZM23.1231 45.723 23.9917 50.71 21.4663 47.4097 12.8703 56.1462 16.1434 60.429C15.9559 61.3356 15.8695 62.2685 15.8982 63.2071 15.9212 64.1666 16.0686 65.1347 16.3397 66.091L16.3369 66.091 19.4601 77.1067 39.4688 56.7678C39.3072 56.4541 39.1283 56.1519 38.9379 55.8616 38.3114 54.8935 37.5495 54.0337 36.6833 53.2975L33.5374 35.1414ZM33.3815-0.393313C31.7506-0.686497 30.1399-0.252484 28.867 0.683256 27.5997 1.61611 26.6616 3.05358 26.3643 4.7583L21.6594 31.8706C21.4546 32.4044 21.316 32.9735 21.2583 33.5573 21.2005 34.1383 21.2207 34.7365 21.3217 35.3323L22.7506 43.558 33.8376 32.2931 38.2423 6.88802C38.5396 5.18042 38.1413 3.50848 37.2606 2.18843 36.3832 0.868026 35.0152-0.10265 33.3815-0.393313" fill="#221F20" fill-rule="evenodd" transform="matrix(1 0 0 -1 1584 1586)"/><path d="M89.4004 23.1879 89.4004 16.6877 98.3766 16.6877 98.3766-0.496359-0.623801-0.496359-0.623801 16.6877 79.6488 16.6877 79.6488 32.8942ZM89.4004 53.4132 89.4004 25.7332 79.6488 35.4394 79.6488 63.1195ZM89.4004 164.504 89.4004 55.9588 79.6488 65.6679 79.6488 164.504" fill="#221F20" fill-rule="evenodd" transform="matrix(1 0 0 -1 1557 1605)"/><path d="M148.878 36.1461 36.0244 148.996C25.3468 135.353 18.979 118.169 18.979 99.5018 18.979 77.3063 27.981 57.201 42.5272 42.6549 57.0799 28.1029 77.1825 19.1012 99.3848 19.1012 118.047 19.1012 135.234 25.4688 148.878 36.1461M49.8801 162.857 51.644 161.093C88.0925 124.652 124.53 88.2098 160.975 51.7682L162.739 50.0043 162.745 50.01C162.754 50.0248 162.769 50.0454 162.78 50.0631L162.792 50.0718C162.886 50.1923 163.033 50.3836 163.195 50.5951L163.206 50.607C163.221 50.6334 163.242 50.6511 163.26 50.6774L163.28 50.7041C163.406 50.8716 163.542 51.0481 163.65 51.1921L163.662 51.2065C163.694 51.2477 163.73 51.295 163.762 51.3419L163.842 51.4476C173.852 64.8532 179.784 81.4867 179.784 99.5018 179.784 121.7 170.78 141.803 156.23 156.345 141.681 170.898 121.581 179.905 99.3848 179.905 81.3663 179.905 64.7353 173.973 51.3264 163.959 51.2441 163.898 51.1647 163.836 51.0795 163.777L51.0709 163.768C50.912 163.648 50.7355 163.516 50.5915 163.407L50.5681 163.389C50.5413 163.369 50.515 163.345 50.4886 163.322L50.471 163.316C50.2829 163.169 50.0739 163.007 49.9418 162.904L49.9328 162.901C49.9212 162.887 49.9035 162.875 49.8888 162.86ZM99.3848 199.502C126.987 199.502 151.994 188.304 170.089 170.21 188.189 152.109 199.382 127.112 199.382 99.5018 199.382 71.8911 188.189 46.8912 170.089 28.7938 151.994 10.6993 126.987-0.498454 99.3848-0.498454 71.7705-0.498454 46.7666 10.6993 28.6748 28.7938 10.574 46.8912-0.618304 71.894-0.618304 99.5018-0.618304 127.109 10.574 152.109 28.6748 170.21 46.7666 188.304 71.7705 199.502 99.3848 199.502" fill="#E32626" fill-rule="evenodd" transform="matrix(1 0 0 -1 1503 1621)"/></g></svg>