<svg width="201" height="201" xmlns="http://www.w3.org/2000/svg" xmlns:xlink="http://www.w3.org/1999/xlink" xml:space="preserve" overflow="hidden"><g transform="translate(-1246 -1004)"><path d="M17.5929 73.0869 17.5929 43.1629C17.5929 40.5073 14.8612 40.6251 14.8233 43.1629L14.5709 59.3748C14.4 70.3485-0.335009 83.0329-0.335009 59.3748L-0.335009 27.8464C5.20076 17.2935 12.805 7.59767 22.9065-1.06462L65.2071-1.05269C69.4721 4.24113 72.8027 9.74137 75.0349 15.5004ZM32.2143 91.2921 32.2143 115.354C32.2143 127.829 17.5954 131.286 17.5929 115.348L17.5929 105.952ZM48.2803 75.189 48.2803 126.033C48.2803 137.298 34.987 135.817 34.987 126.027L34.987 88.5183ZM49.9781 70.9316C49.241 70.7136 48.3744 71.279 48.2864 72.6274L34.987 85.9628 34.987 72.8541C34.987 70.4338 32.2143 70.004 32.2143 72.8573L32.2143 88.7391 17.5929 103.399 17.5929 75.6427 75.7164 17.3672C76.8794 20.7534 77.6637 24.2249 78.0337 27.7962 78.5097 32.3779 78.9385 36.9563 79.3027 41.5347ZM79.7813 96.5125C78.8123 108.761 67.9506 108.667 67.9506 96.9778L67.9506 72.866C67.9506 70.4193 65.1779 70.0304 65.1779 72.866L65.1779 115.365C65.1779 128.694 51.0473 130.376 51.0473 115.359L51.0473 72.8602C51.0473 72.7098 51.0383 72.5717 51.0238 72.4391L79.4877 43.905C80.8007 61.3475 81.1765 78.8196 79.7813 96.5125" fill="#221F20" fill-rule="evenodd" transform="matrix(1 0 0 -1 1307 1171)"/><path d="M149.161 35.5808 36.307 148.434C25.6295 134.787 19.2618 117.604 19.2618 98.9365 19.2618 76.7411 28.2637 56.6386 42.8126 42.0896 57.3648 27.5377 77.4647 18.5359 99.6627 18.5359 118.331 18.5359 135.514 24.9036 149.161 35.5808M50.1658 162.292 51.9297 160.528C88.371 124.086 124.813 87.6446 161.259 51.2029L163.02 49.439 163.022 49.4448C163.037 49.4625 163.052 49.4802 163.064 49.4979L163.072 49.5065C163.166 49.63 163.313 49.8184 163.478 50.0299L163.487 50.0418C163.505 50.0653 163.522 50.0887 163.54 50.1122L163.564 50.1385C163.69 50.3064 163.825 50.4857 163.934 50.6265L163.94 50.6413C163.975 50.6857 164.01 50.7297 164.045 50.7795L164.125 50.8824C174.135 64.288 180.065 80.9214 180.065 98.9365 180.065 121.135 171.063 141.237 156.514 155.783 141.964 170.335 121.861 179.34 99.6627 179.34 81.6509 179.34 65.0143 173.407 51.6092 163.395 51.5291 163.333 51.4471 163.274 51.3645 163.212L51.3533 163.203C51.1948 163.086 51.0212 162.951 50.8765 162.842L50.8537 162.824C50.827 162.803 50.7971 162.78 50.7675 162.756L50.7559 162.751C50.5653 162.604 50.3585 162.445 50.2264 162.339L50.2185 162.336C50.2037 162.321 50.1885 162.31 50.1737 162.298ZM99.6627 198.936C127.271 198.936 152.274 187.739 170.369 169.645 188.47 151.547 199.665 126.547 199.665 98.9365 199.665 71.3259 188.47 46.3259 170.369 28.2285 152.274 10.134 127.271-1.06368 99.6627-1.06368 72.0549-1.06368 47.0512 10.134 28.9574 28.2285 10.859 46.3259-0.335317 71.3288-0.335317 98.9365-0.335317 126.544 10.859 151.544 28.9574 169.645 47.0512 187.739 72.0549 198.936 99.6627 198.936" fill="#E32626" fill-rule="evenodd" transform="matrix(1 0 0 -1 1247 1203)"/></g></svg>