<svg width="201" height="201" xmlns="http://www.w3.org/2000/svg" xmlns:xlink="http://www.w3.org/1999/xlink" xml:space="preserve" overflow="hidden"><g transform="translate(-1752 -201)"><path d="M53.4746 36.4178C54.8228 33.1505 55.5618 29.5756 55.5618 25.8338 55.5618 18.1069 52.4041 11.1096 47.2953 6.04931 42.1865 0.986093 35.1263-2.14955 27.3328-2.14955 19.5364-2.14955 12.479 0.986093 7.37025 6.04931 2.2611 11.1096-0.899501 18.1069-0.899501 25.8338-0.899501 33.5606 2.2611 40.555 7.37025 45.6157 12.479 50.6789 19.5364 53.8142 27.3328 53.8142 31.0433 53.8142 34.588 53.1022 37.8346 51.8129L37.8727 51.8773ZM49.7553 72.8076 55.5088 82.9372C56.0704 84.0712 57.2472 84.8508 58.6073 84.8508L72.5826 84.8508C74.484 84.8508 76.0271 83.3211 76.0271 81.437 76.0271 79.553 74.484 78.0233 72.5826 78.0233L60.6118 78.0233 54.8079 67.8026ZM48.6762 25.8338C48.6762 31.6766 46.2873 36.9625 42.4258 40.7896 41.8021 41.4048 41.1458 41.9822 40.4482 42.5182L29.636 23.472C28.7075 21.8311 26.6112 21.248 24.9526 22.1682 23.297 23.0885 22.7086 25.1657 23.6371 26.8069L34.4137 45.7942C32.1991 46.5648 29.8131 46.9867 27.3328 46.9867 21.4374 46.9867 16.1039 44.6163 12.2395 40.7896 8.38119 36.9625 5.98942 31.6766 5.98942 25.8338 5.98942 19.9942 8.38119 14.7022 12.2395 10.8754 16.1039 7.04835 21.4374 4.67792 27.3328 4.67792 33.2253 4.67792 38.5617 7.04835 42.4258 10.8754 46.2873 14.7022 48.6762 19.9942 48.6762 25.8338M100.07 20.4011 92.2381 20.4011C93.2167 16.7416 95.1591 13.4714 97.7785 10.8754 101.64 7.04835 106.976 4.67792 112.869 4.67792 113.841 4.67792 114.802 4.74231 115.739 4.87147L121.484-0.819166C118.77-1.6833 115.876-2.14955 112.869-2.14955 105.075-2.14955 98.0151 0.986093 92.906 6.04931 89.027 9.89079 86.2715 14.8544 85.1688 20.4011L72.8785 20.4011 72.8785 20.4101C72.6153 20.4101 72.355 20.4425 72.098 20.5011L69.1621 23.4104 49.2791 58.0629 43.8599 48.5193C45.0811 47.6433 46.231 46.6705 47.2953 45.6157 48.3952 44.5314 49.4003 43.3532 50.3082 42.0962L38.7983 53.5063 48.833 71.1815 59.4763 60.6356 55.7037 60.6356 72.3728 31.5859 78.1677 42.1081 83.2293 37.0945 77.7894 27.2285 84.6722 27.2285C84.7963 29.7048 85.2428 32.1015 85.9761 34.3697L91.7176 28.6791C91.6526 28.2013 91.6054 27.7178 91.5727 27.2285L93.1811 27.2285ZM134.212 25.8338C134.212 31.6766 131.823 36.9625 127.959 40.7896 124.101 44.6163 118.764 46.9867 112.869 46.9867 110.329 46.9867 107.89 46.5442 105.628 45.7387L116.834 25.6348C117.167 25.1071 117.366 24.4861 117.366 23.8152 117.366 21.9279 115.822 20.4011 113.921 20.4011L102.636 20.4011 95.7475 27.2285 108.088 27.2285 99.6236 42.4186C98.976 41.9117 98.3582 41.3666 97.7785 40.7896 95.0524 38.0878 93.0599 34.6597 92.1227 30.8211L86.653 36.239C88.0869 39.7787 90.2304 42.9636 92.906 45.6157 93.9467 46.65 95.0644 47.5962 96.2561 48.4578L92.853 54.5643 84.1339 38.7382 79.0755 43.7518 88.3736 60.6356 62.0398 60.6356 55.1509 67.463 92.1375 67.463 93.4886 69.9184 92.9565 69.9184C91.0525 69.9184 89.5091 71.448 89.5091 73.3321 89.5091 75.2161 91.0525 76.7458 92.9565 76.7458L110.353 76.7458C112.257 76.7458 113.797 75.2161 113.797 73.3321 113.797 71.448 112.257 69.9184 110.353 69.9184L101.312 69.9184 96.7585 61.6526 102.264 51.7719C105.54 53.0875 109.12 53.8142 112.869 53.8142 120.665 53.8142 127.726 50.6789 132.834 45.6157 137.943 40.555 141.101 33.5606 141.101 25.8338 141.101 18.1069 137.94 11.1096 132.834 6.04931 130.153 3.3943 126.945 1.27318 123.367-0.14822L117.901 5.27259C121.774 6.19861 125.236 8.17367 127.959 10.8754 131.823 14.7022 134.212 19.9942 134.212 25.8338" fill="#090F10" fill-rule="evenodd" transform="matrix(1 0 0 -1 1782 337)"/><path d="M148.6 34.4948 35.7472 147.348C25.0699 133.701 18.7023 116.518 18.7023 97.8505 18.7023 75.655 27.7069 55.5526 42.2531 41.0036 56.8049 26.4517 76.9044 17.4499 99.1056 17.4499 117.773 17.4499 134.956 23.8175 148.6 34.4948M49.6082 161.206 51.3721 159.442C87.8137 123.001 124.252 86.5589 160.7 50.1172L162.458 48.3533 162.464 48.3591C162.476 48.3768 162.49 48.3941 162.505 48.4118L162.511 48.4208C162.605 48.5443 162.752 48.7323 162.917 48.9438L162.925 48.9557C162.946 48.9821 162.961 49.003 162.978 49.0265L163.005 49.0528C163.131 49.2203 163.266 49.3997 163.372 49.5408L163.381 49.5556C163.413 49.5996 163.452 49.6437 163.487 49.6939L163.566 49.7964C173.573 63.2019 179.503 79.8354 179.503 97.8505 179.503 120.049 170.501 140.151 155.955 154.697 141.403 169.249 121.301 178.254 99.1056 178.254 81.0906 178.254 64.4572 172.322 51.052 162.308 50.9726 162.247 50.887 162.188 50.8047 162.126L50.7932 162.118C50.6372 162 50.464 161.865 50.3167 161.756L50.2933 161.738C50.2698 161.718 50.2373 161.694 50.211 161.674L50.1962 161.665C50.0052 161.518 49.8024 161.356 49.6699 161.253L49.6584 161.25C49.6436 161.235 49.6288 161.224 49.6172 161.212ZM99.1056 197.851C126.713 197.851 151.713 186.653 169.808 168.558 187.908 150.461 199.106 125.461 199.106 97.8505 199.106 70.2398 187.908 45.2399 169.808 27.1425 151.713 9.04798 126.713-2.14974 99.1056-2.14974 71.4979-2.14974 46.4951 9.04798 28.3978 27.1425 10.3033 45.2399-0.894401 70.2427-0.894401 97.8505-0.894401 125.458 10.3033 150.458 28.3978 168.558 46.4951 186.653 71.4979 197.851 99.1056 197.851" fill="#E32626" fill-rule="evenodd" transform="matrix(1 0 0 -1 1753 399)"/></g></svg>