<svg width="201" height="201" xmlns="http://www.w3.org/2000/svg" xmlns:xlink="http://www.w3.org/1999/xlink" xml:space="preserve" overflow="hidden"><g transform="translate(-1497 -201)"><path d="M67.3422 28.5066C66.901 28.1588 66.4866 27.7814 66.0924 27.3829 63.6932 24.9572 62.1348 21.6783 61.8998 18.0308L73.0669 18.0308ZM62.764 36.8835 52.585 18.0308 57.2306 18.0308C57.4718 22.9776 59.5562 27.4307 62.8023 30.7125 63.4994 31.4227 64.2607 32.0797 65.0636 32.6742ZM48.9183 21.0393 59.7385 41.069 37.6513 41.069ZM4.56733 13.15C5.24348 10.6974 6.54018 8.5006 8.26899 6.75566 9.99781 5.00488 12.1706 3.69682 14.5908 3.01286L19.7361-2.18619C19.3187-2.21283 18.8982-2.2278 18.4718-2.2278 13.1999-2.2278 8.42783-0.0667901 4.97598 3.42637 1.52088 6.91333-0.613695 11.7408-0.613695 17.068-0.613695 17.4986-0.598894 17.9238-0.578317 18.349ZM36.6838 11.2832C35.7546 8.28344 34.1142 5.59614 31.9648 3.42637 29.3039 0.729947 25.8578-1.16645 22.0031-1.89786L17.6484 2.50481C17.9192 2.48693 18.1924 2.48072 18.4718 2.48072 22.4558 2.48072 26.0636 4.11581 28.6747 6.75566 30.8826 8.98528 32.3735 11.9339 32.7879 15.2278ZM16.6488 31.5388C13.3941 31.1257 10.4743 29.6125 8.26899 27.3829 5.6579 24.7463 4.041 21.0987 4.041 17.068 4.041 16.7884 4.04966 16.5121 4.06735 16.2355L-0.290241 20.6381C0.430308 24.5383 2.31507 28.019 4.97598 30.7125 7.11922 32.8823 9.78013 34.5382 12.7529 35.4834ZM24.5406 23.5572 20.0303 15.4387C19.4011 14.3091 17.9838 13.9048 16.8604 14.5413 15.7402 15.1741 15.3435 16.607 15.9727 17.7428L21.1328 27.0113ZM32.885 17.7008C32.7262 21.4765 31.1472 24.8832 28.6747 27.3829 28.2541 27.811 27.8072 28.2062 27.3397 28.5781L25.4636 25.2069 22.0501 28.6581 23.2616 30.8344C21.9472 31.3008 20.5505 31.5804 19.0982 31.6399L14.7846 36.0035C15.9784 36.2415 17.2073 36.3663 18.4718 36.3663 20.9797 36.3663 23.3764 35.8758 25.5698 34.9842L37.5249 56.4526C37.8982 57.2315 38.6949 57.7724 39.6093 57.7724L49.0624 57.7724C50.3475 57.7724 51.3912 56.7172 51.3912 55.4183 51.3912 54.1161 50.3475 53.0638 49.0624 53.0638L40.971 53.0638 36.9163 45.7779 62.2821 45.7779 63.1994 47.4695 62.8348 47.4695C61.55 47.4695 60.506 48.5247 60.506 49.8265 60.506 51.1258 61.55 52.1781 62.8348 52.1781L74.596 52.1781C75.8837 52.1781 76.9245 51.1258 76.9245 49.8265 76.9245 48.5247 75.8837 47.4695 74.596 47.4695L68.4858 47.4695 65.4076 41.7676 69.1298 34.9571C71.3438 35.8641 73.7639 36.3663 76.2981 36.3663 81.5672 36.3663 86.3393 34.2053 89.794 30.7125 93.2491 27.2223 95.3866 22.3977 95.3866 17.068 95.3866 11.7408 93.2491 6.91333 89.794 3.42637 86.3393-0.0667901 81.5672-2.2278 76.2981-2.2278 71.0294-2.2278 66.2541-0.0667901 62.8023 3.42637 60.1796 6.07498 58.3183 9.49369 57.5718 13.3223L49.2595 13.3223 49.2595 13.331C48.4566 13.331 47.6689 13.7562 47.2455 14.5172L33.3056 39.2945 29.6389 32.7158C30.4681 32.1125 31.2472 31.4377 31.9648 30.7125 35.4196 27.2223 37.557 22.3977 37.557 17.068 37.557 15.7895 37.4365 14.5471 37.2015 13.3372ZM90.7293 17.068C90.7293 21.0987 89.1121 24.7463 86.501 27.3829 83.8932 30.0256 80.2853 31.6578 76.2981 31.6578 74.5783 31.6578 72.9286 31.3545 71.4055 30.7957L78.98 16.9311C79.2034 16.5683 79.3385 16.1344 79.3385 15.6767 79.3385 14.3774 78.2948 13.3223 77.0097 13.3223L62.3496 13.3223C63.0113 10.7985 64.3253 8.54512 66.0924 6.75566 68.7064 4.11581 72.3142 2.48072 76.2981 2.48072 80.2853 2.48072 83.8932 4.11581 86.501 6.75566 89.1121 9.39223 90.7293 13.0398 90.7293 17.068" fill="#090F10" fill-rule="evenodd" transform="matrix(1 0 0 -1 1551 289)"/><path d="M67.3731 28.4454 66.9243 27.1099 66.2611 23.5472 66.2229 22.3401 66.1671 22.2117 65.9823 22.0276 65.8476 21.9691 65.2518 21.9691 65.1344 22.01 64.6503 22.3782 64.6182 22.4105 56.5647 32.1717 56.2304 32.5778 56.189 32.6977 56.189 33.364 56.2743 33.5247 56.7203 33.8197 56.8287 33.852 61.9426 33.852ZM68.9955 32.8904 68.0243 30.3273 64.486 33.852 68.1652 33.852 68.5348 33.8168 68.6374 33.773 68.8222 33.6241 68.878 33.5595 68.9865 33.3378 69.007 33.2528 69.007 32.9578ZM40.0646 58.1789 40.1878 58.4157 40.7864 59.1405 41.3671 59.6665 41.9481 60.0637 42.6991 60.3124 42.6642 60.3124 52.8062 60.8998 53.0148 60.669 52.9003 58.626 52.727 58.2112 43.814 57.6909 43.0248 57.4803 42.4088 57.0361 41.9921 56.2617ZM29.3473 37.8879 39.1875 56.519 41.1031 54.6105 31.4156 36.5643 33.757 34.787C36.6055 32.5631 40.1557 26.6861 40.6251 22.9541L40.848 21.4022 39.6244 21.4022C39.7977 20.3502 39.8827 19.2716 39.8827 18.17 39.8827 12.6112 37.6177 7.57278 33.9562 3.92543L33.9562 3.90785C30.2918 0.260858 25.2279-2.00111 19.6389-2.00111 14.0471-2.00111 8.98613 0.260858 5.32172 3.90785L5.32172 3.92543C1.65732 7.57278-0.610554 12.6112-0.610554 18.17-0.610554 23.7255 1.65732 28.764 5.32172 32.4142L5.32172 32.4286C7.4167 34.5154 9.96337 36.1434 12.8061 37.1602L11.6765 38.9285 13.6832 39.6296C17.5825 40.9741 23.5645 40.5446 27.3024 39.0013ZM21.3438 22.732 25.0871 29.8275C23.4327 30.5961 21.5841 31.026 19.6389 31.026 16.0743 31.026 12.8443 29.5882 10.512 27.2616L10.503 27.2706C8.1735 24.9441 6.73014 21.7266 6.73014 18.17 6.73014 14.6131 8.1735 11.3956 10.503 9.06903L10.512 9.07513C12.8443 6.74858 16.0743 5.31081 19.6389 5.31081 23.2007 5.31081 26.4282 6.74858 28.7663 9.07513L28.772 9.06903C31.1047 11.3956 32.5481 14.6131 32.5481 18.17 32.5481 21.7266 31.1047 24.9441 28.772 27.2706L28.7663 27.2616C28.2677 27.7586 27.7278 28.2143 27.1529 28.6266L23.2799 21.4079C24.0515 20.5518 24.527 19.4176 24.527 18.1872 24.527 16.8431 23.9755 15.6213 23.0951 14.7358 22.2119 13.8502 20.9944 13.3009 19.6566 13.3009 18.304 13.3009 17.075 13.8474 16.1889 14.7358 15.3027 15.6185 14.7484 16.8402 14.7484 18.1872 14.7484 19.517 15.3056 20.7327 16.1946 21.6125 17.0807 22.4923 18.3072 23.0388 19.6566 23.0388 20.2463 23.0388 20.8154 22.9304 21.3438 22.732M62.2653 36.0673 62.2974 42.8826 62.1126 43.2888 60.3699 44.2881 56.993 45.7643 53.6866 46.8016 50.7203 47.5644ZM38.2135 35.5646 60.2935 35.4943 47.4197 48.3215 45.4864 48.6868 42.8901 48.9817 41.1474 48.9085 40.5869 48.6136 35.3559 38.6332 35.3177 38.1861 35.6491 37.6335 36.9898 35.7838 37.5827 35.4914 38.2516 35.4914ZM46.7832 18.2253 56.3975 25.4672 60.6664 20.2594 68.2387 20.1105 68.2736 17.781 68.7195 14.6012 69.7231 11.1616 70.7616 8.3532 71.3512 7.50568 71.281 7.57565 51.0902 7.57565 49.9782 7.76259 48.2327 8.76225 47.1207 9.97791 46.5249 12.2341 46.6013 14.7857 46.8977 16.1183 47.4168 17.0767 46.7832 18.2253 56.3975 25.4672 51.847 31.4878 51.8704 31.4583 51.847 31.4878 49.8284 34.1588 40.3286 26.9491 42.4823 24.0646ZM22.8606 54.2513 22.8606 44.5307 26.4458 44.493C36.4647 45.2002 34.5725 55.2739 25.1195 54.2513ZM78.2431 17.6146C78.3573 14.2392 79.7772 11.1939 82.0073 8.96677 84.2427 6.74284 87.2998 5.33126 90.6912 5.21429L97.131-1.20059C95.2388-1.78797 93.2292-2.10086 91.1433-2.10086 85.5629-2.10086 80.5049 0.155367 76.8405 3.80558L76.8289 3.8203C73.1645 7.47051 70.8966 12.5061 70.8966 18.0645 70.8966 19.184 70.9874 20.2798 71.1636 21.3495L69.0542 21.3233 68.8604 21.5335 69.2681 25.0492 69.2743 25.0729 69.5646 26.2595ZM111.146 14.926C110.468 10.6152 108.418 6.75468 105.458 3.80558L105.443 3.80558C103.606 1.97635 101.42 0.497317 98.9972-0.522434L93.097 5.35172C95.8814 5.77261 98.378 7.07582 100.279 8.96677L100.27 8.97574C102.606 11.2991 104.052 14.5169 104.052 18.0645 104.052 19.7947 103.709 21.4488 103.087 22.9541ZM81.7695 46.7227 93.2231 48.7245 93.405 48.6574C93.4961 48.5465 93.6604 48.3097 93.7836 48.0933 93.8747 47.9354 93.9478 47.7808 93.9597 47.6757L94.7547 43.0401 96.7849 42.5522 96.8144 42.5435C98.4278 41.9239 99.9918 41.1671 101.464 40.2611L102.427 39.4836 105.279 37.4204 105.311 37.3881 106.159 36.3945 107.714 34.8107 107.731 34.7932 108.77 33.4225 108.741 33.1595 107.408 32.0604 106.493 31.2129C109.544 27.6825 111.39 23.0883 111.39 18.0645 111.39 17.7871 111.384 17.5094 111.372 17.2346ZM87.5433 14.8352C86.663 15.7121 86.1176 16.9188 86.1176 18.2604 86.1176 19.6049 86.6662 20.8292 87.5462 21.7119 87.7663 21.9311 88.0098 22.1327 88.2681 22.3111L86.0589 29.8921C84.5331 29.2462 83.1632 28.314 82.0073 27.1655 80.1119 25.2717 78.8032 22.7872 78.3807 20.0111L70.0664 28.2932 70.1633 28.6937C70.656 30.0177 72.2903 34.0041 73.4783 34.9916L73.7337 35.2607 64.9701 35.2607 64.8588 35.293 64.5977 35.4799 64.5184 35.6145 64.4802 35.9123 64.5184 36.0497 64.5948 36.1434 64.5566 42.6225 64.5624 42.672 64.709 43.2274 64.759 43.315 65.1315 43.6831 65.2136 43.733 65.9531 43.9551 65.9766 43.9609 79.6072 46.3455 96.0457 29.9678C94.5346 30.5846 92.8798 30.9237 91.1433 30.9237 90.6386 30.9237 90.1397 30.8975 89.6498 30.839L91.9559 23.0535C92.918 22.8604 93.7836 22.381 94.4525 21.7147 95.3415 20.8324 95.893 19.6078 95.893 18.2604 95.893 16.9163 95.3444 15.706 94.4583 14.8323 93.5696 13.9529 92.3373 13.4093 90.9876 13.4093 89.6498 13.4093 88.4266 13.9554 87.5433 14.8352" fill="#221F20" fill-rule="evenodd" transform="matrix(1 0 0 -1 1541 357)"/><path d="M148.884 34.4948 36.03 147.348C25.3526 133.701 18.9849 116.518 18.9849 97.8505 18.9849 75.655 27.9896 55.5526 42.5389 41.0036 57.0881 26.4517 77.1876 17.4499 99.3895 17.4499 118.055 17.4499 135.238 23.8175 148.884 34.4948M49.8884 161.206 51.6523 159.442C88.0974 123.001 124.537 86.5589 160.982 50.1172L162.743 48.3533 162.749 48.3591C162.761 48.3768 162.775 48.3941 162.787 48.4118L162.796 48.4208C162.893 48.5443 163.037 48.7323 163.202 48.9438L163.21 48.9557C163.228 48.9821 163.249 48.9998 163.263 49.0265L163.287 49.0528C163.413 49.2203 163.548 49.3997 163.657 49.5408L163.666 49.5556C163.698 49.5996 163.737 49.6437 163.769 49.6939L163.848 49.7964C173.858 63.2019 179.788 79.8354 179.788 97.8505 179.788 120.049 170.786 140.151 156.237 154.697 141.688 169.249 121.585 178.254 99.3895 178.254 81.3741 178.254 64.7405 172.322 51.3347 162.308 51.2524 162.247 51.1701 162.188 51.0878 162.126L51.0759 162.118C50.9203 162 50.7438 161.867 50.5998 161.756L50.5764 161.738C50.5496 161.718 50.5204 161.694 50.4912 161.674L50.4793 161.665C50.2883 161.518 50.0822 161.359 49.9501 161.253L49.9415 161.25C49.9267 161.235 49.9119 161.224 49.8971 161.212ZM99.3895 197.851C126.994 197.851 151.998 186.653 170.092 168.558 188.193 150.461 199.388 125.461 199.388 97.8505 199.388 70.2398 188.193 45.2399 170.092 27.1425 151.998 9.04798 126.994-2.14974 99.3895-2.14974 71.7785-2.14974 46.7749 9.04798 28.6805 27.1425 10.5828 45.2399-0.612159 70.2427-0.612159 97.8505-0.612159 125.458 10.5828 150.458 28.6805 168.558 46.7749 186.653 71.7785 197.851 99.3895 197.851" fill="#E32626" fill-rule="evenodd" transform="matrix(1 0 0 -1 1498 399)"/></g></svg>