<svg width="201" height="201" xmlns="http://www.w3.org/2000/svg" xmlns:xlink="http://www.w3.org/1999/xlink" xml:space="preserve" overflow="hidden"><g transform="translate(-1244 -201)"><path d="M23.2043 2.0463C20.7316 2.0463 18.2582 2.36798 16.0941 3.65725 13.6171 4.62484 11.1447 5.91374 9.2883 8.17059 7.43511 10.1058 5.88772 12.3626 4.95951 14.9412 4.03345 17.5193 3.7226 20.0979 3.7226 22.3547 3.7226 24.6112 4.03345 27.1897 4.95951 29.7708 5.88772 32.3494 7.43511 34.6062 9.2883 36.8631 11.1447 38.7953 13.6171 40.0842 16.0941 41.3735 18.2582 42.3411 20.7316 42.6628 23.2043 42.6628 25.3691 42.6628 27.8429 42.3411 30.3189 41.3735 32.7912 40.0842 34.9564 38.7953 36.8092 36.8631 38.6656 34.6062 40.2134 32.3494 41.1391 29.7708 42.0676 27.1897 42.6868 24.6112 42.6868 22.3547 42.6868 20.0979 42.0676 17.5193 41.1391 14.9412 40.2134 12.3626 38.6656 10.1058 36.8092 8.17059 34.9564 5.91374 32.7912 4.62484 30.3189 3.65725 27.8429 2.36798 25.3691 2.0463 23.2043 2.0463M14.5453 45.2442C11.4534 43.955 8.67093 42.0198 6.50726 39.7629 4.03345 37.1844 2.4857 34.6062 1.24916 31.3818 0.0133427 28.479-0.295342 25.2575-0.295342 22.3547-0.295342 19.4545 0.0133427 16.2301 1.24916 13.3302 2.4857 10.4274 4.03345 7.5276 6.50726 4.94944 8.67093 2.69258 11.4534 0.757403 14.5453-0.531864 17.33-1.49945 20.4229-2.14573 23.2043-2.14573 25.9886-2.14573 28.7711-1.49945 31.863-0.531864 34.6455 0.757403 37.4287 2.69258 39.9022 4.94944 42.0676 7.5276 43.9237 10.4274 44.8519 13.3302 46.0877 16.2301 46.7051 19.4545 46.7051 22.3547 46.7051 25.2575 46.0877 28.479 44.8519 31.3818 43.9237 34.6062 42.0676 37.1844 39.9022 39.7629 37.4287 42.0198 34.6455 43.955 31.863 45.2442 28.7711 46.5331 25.9886 46.8548 23.2043 46.8548 20.4229 46.8548 17.33 46.5331 14.5453 45.2442" fill="#221F20" fill-rule="evenodd" transform="matrix(1 0 0 -1 1288 346)"/><path d="M23.7813 42.6628C25.9775 42.6628 28.4866 42.3411 30.9957 41.3735 33.5077 40.0842 35.7039 38.7953 37.5841 36.8598 39.4675 34.6029 41.0378 32.3464 41.9766 29.7679 42.918 27.1897 43.2311 24.6112 43.2311 22.3547 43.2311 20.0979 42.918 17.5193 41.9766 14.9441 41.0378 12.3597 39.4675 10.1058 37.5841 8.17059 35.7039 5.91374 33.5077 4.62484 30.9957 3.65725 28.4866 2.36798 25.9775 2.0463 23.7813 2.0463 21.2722 2.0463 18.7602 2.36798 16.2511 3.65725 14.0549 4.62484 11.5458 5.91374 9.66237 8.17059 7.78221 10.1058 6.21194 12.3597 5.27022 14.9441 4.33142 17.5193 4.01568 20.0979 4.01568 22.3547 4.01568 24.6112 4.33142 27.1897 5.27022 29.7679 6.21194 32.3464 7.78221 34.6029 9.66237 36.8598 11.5458 38.7953 14.0549 40.0842 16.2511 41.3735 18.7602 42.3411 21.2722 42.6628 23.7813 42.6628M32.566-0.535153C35.3878 0.757403 38.213 2.68929 40.4089 4.94615 42.918 7.5276 44.8014 10.4304 45.7431 13.3273 46.9977 16.2301 47.6233 19.4516 47.6233 22.3547 47.6233 25.2546 46.9977 28.479 45.7431 31.3818 44.8014 34.6029 42.918 37.1815 40.4089 39.7629 38.213 42.0198 35.3878 43.952 32.566 45.2409 29.428 46.5302 26.6032 46.8548 23.7813 46.8548 20.9594 46.8548 17.8214 46.5302 14.9966 45.2409 11.8586 43.952 9.03675 42.0198 6.84049 39.7629 4.33142 37.1815 2.76115 34.6029 1.50661 31.3818 0.252078 28.479-0.376836 25.2546-0.376836 22.3547-0.376836 19.4516 0.252078 16.2301 1.50661 13.3273 2.76115 10.4304 4.33142 7.5276 6.84049 4.94615 9.03675 2.68929 11.8586 0.757403 14.9966-0.535153 17.8214-1.49945 20.9594-2.14573 23.7813-2.14573 26.6032-2.14573 29.428-1.49945 32.566-0.535153" fill="#221F20" fill-rule="evenodd" transform="matrix(1 0 0 -1 1356 346)"/><path d="M4.62215-1.26277C0.255836 1.06009-1.61726 6.70864 0.567352 11.6949 1.81524 13.6863 3.37718 15.3495 5.87295 16.3467 8.36871 17.0093 10.8674 16.6778 12.7379 15.6806 14.611 14.6834 16.4845 12.6891 17.1068 10.0317 18.0435 7.37167 17.7324 4.71428 16.4845 2.71992 14.2999-1.93145 8.99429-3.59165 4.62215-1.26277" fill="#221F20" fill-rule="evenodd" transform="matrix(1 0 0 -1 1347 262)"/><path d="M19.967 34.7095 30.3074 39.5196C31.2202 39.8396 31.8298 40.4822 32.4334 41.4452 32.7427 42.7274 32.7427 43.69 32.4334 44.6497L30.6138 50.7453C30.6138 51.0654 30.6138 51.0654 30.3074 51.3854 30.0042 51.705 29.701 51.705 29.701 52.028L28.7881 52.028 27.8753 52.028 4.4574 38.88C2.9385 37.9174 0.809275 38.557-0.103199 40.4822-0.406765 41.1219-0.406765 42.0849-0.103199 43.0475 0.202496 44.0101 0.809275 44.6497 1.41854 45.2927L33.3463 62.9311C35.1716 63.8937 37 64.2104 39.1289 63.2478 40.0417 62.9311 40.9485 62.2853 41.5582 61.3285 42.1674 60.6859 42.777 59.7233 43.0802 58.7607L48.554 40.8022C48.8601 39.2 48.554 37.2744 47.644 35.6721 46.7312 34.0666 45.2091 32.7844 43.9931 32.4643L26.9628 24.7632C26.6564 24.7632 26.3561 24.4464 26.0528 24.1235 26.0528 23.8064 25.7436 23.4838 25.7436 23.1609L25.7436 3.28018C25.7436 0.395295 23.6179-2.16957 20.8794-2.16957 19.6666-2.16957 18.1441-1.5299 17.2313-0.567304 16.3188 0.715312 15.7121 1.99793 15.7121 3.28018L15.7121 28.2968C15.7121 31.1788 17.5377 33.747 19.967 34.7095" fill="#221F20" fill-rule="evenodd" transform="matrix(1 0 0 -1 1324 329)"/><path d="M149.164 34.4948 36.3097 147.348C25.6323 133.701 19.2646 116.518 19.2646 97.8505 19.2646 75.655 28.2686 55.5526 42.8153 41.0036 57.3674 26.4517 77.4675 17.4499 99.6691 17.4499 118.334 17.4499 135.517 23.8175 149.164 34.4948M50.1684 161.206 51.9323 159.442C88.377 123.001 124.816 86.5589 161.262 50.1172L163.022 48.3533 163.028 48.3591C163.04 48.3768 163.055 48.3941 163.067 48.4118L163.075 48.4208C163.172 48.5443 163.316 48.7323 163.481 48.9438L163.49 48.9557C163.507 48.9821 163.528 49.003 163.543 49.0265L163.566 49.0557C163.693 49.2203 163.828 49.3997 163.937 49.5408L163.946 49.5556C163.978 49.5996 164.016 49.6437 164.048 49.6939L164.128 49.7964C174.138 63.2019 180.067 79.8354 180.067 97.8505 180.067 120.049 171.066 140.151 156.517 154.697 141.967 169.249 121.865 178.254 99.6691 178.254 81.653 178.254 65.0201 172.322 51.6143 162.311 51.5324 162.25 51.4497 162.188 51.3671 162.126L51.3559 162.118C51.1992 162 51.0238 161.867 50.8791 161.756L50.856 161.738C50.83 161.718 50.8 161.694 50.7712 161.674L50.7585 161.665C50.568 161.518 50.3626 161.359 50.2305 161.253L50.2211 161.25C50.2063 161.235 50.1915 161.224 50.1774 161.212ZM99.6691 197.851C127.274 197.851 152.277 186.653 170.372 168.558 188.473 150.461 199.667 125.461 199.667 97.8505 199.667 70.2398 188.473 45.2399 170.372 27.1425 152.277 9.04798 127.274-2.14974 99.6691-2.14974 72.0588-2.14974 47.0553 9.04798 28.9602 27.1425 10.8629 45.2399-0.332788 70.2427-0.332788 97.8505-0.332788 125.458 10.8629 150.458 28.9602 168.558 47.0553 186.653 72.0588 197.851 99.6691 197.851" fill="#E32626" fill-rule="evenodd" transform="matrix(1 0 0 -1 1245 399)"/></g></svg>