<svg width="201" height="201" xmlns="http://www.w3.org/2000/svg" xmlns:xlink="http://www.w3.org/1999/xlink" xml:space="preserve" overflow="hidden"><g transform="translate(-708 -538)"><path d="M14.7252 82.3867 10.7457 82.3957 14.6253 73.7556 4.58219 71.7008 10.3076 64.2925 0.643773 60.2504 7.97102 54.3942-0.893488 48.5442 7.70651 44.4988 0.0353642 37.0906 9.54328 35.0329 3.39749 26.3985 13.3821 26.4162 9.03483 16.9236 19.0664 19.0196 16.7031 9.09199 26.3525 13.1724 26.0674 3.23616 34.9113 9.12159 36.7275-0.382954 44.3694 7.05487 48.205-1.60869 54.3187 7.05487 60.0087-0.382954 64.3206 9.12159 71.6154 3.23616 73.9433 13.1695 82.5199 9.0891 82.6461 14.4512ZM28.5743 98.7995 28.357 89.7656 18.8664 91.8677 20.7299 82.3722 17.2765 82.3809 82.705 16.9384 82.758 19.0196 92.2454 16.9207 90.3819 26.4133 100.369 26.3928 99.8815 27.4774ZM112.884 101.648C113.513 102.18 112.761 104.1 111.209 105.938 109.654 107.772 107.882 108.83 107.256 108.298 107.215 108.26 107.18 108.222 107.15 108.172 106.489 107.405 98.5647 99.2229 92.9714 93.6522L94.4087 99.6965 84.7565 95.6161 85.0415 105.552 76.2005 99.6611 74.3843 109.169 66.7424 101.731 62.901 110.391 56.7992 101.731 51.1031 109.169 46.7944 99.664 39.4993 105.552 37.1743 95.6161 31.699 98.2235 97.8033 32.1046 96.4927 35.03 106.536 37.0877 100.807 44.4959 110.468 48.5409 103.147 54.3942 112.006 60.2443 103.406 64.2893 111.074 71.6979 101.574 73.7498 107.717 82.3928 97.7272 82.3722 102.08 91.8649 96.466 90.6889C103.761 95.5601 113.037 101.469 113.037 101.469" fill="#221F20" fill-rule="evenodd" transform="matrix(1 0 0 -1 752 696)"/><path d="M148.601 35.0319 35.7479 147.885C25.0707 134.238 18.703 117.055 18.703 98.3872 18.703 76.1917 27.7044 56.0893 42.2534 41.5403 56.8057 26.9884 76.9048 17.9866 99.1064 17.9866 117.774 17.9866 134.957 24.3542 148.601 35.0319M49.6061 161.743 51.37 159.979C87.8145 123.537 124.256 87.0956 160.701 50.6539L162.459 48.89 162.464 48.8987C162.479 48.9135 162.491 48.9308 162.506 48.9485L162.512 48.9575C162.606 49.081 162.753 49.269 162.92 49.4809L162.926 49.4925C162.947 49.5188 162.961 49.5397 162.979 49.5632L163.006 49.5924C163.132 49.757 163.267 49.9364 163.373 50.0775L163.382 50.0923C163.414 50.1364 163.455 50.1804 163.488 50.2302L163.567 50.3334C173.577 63.7386 179.504 80.3721 179.504 98.3872 179.504 120.588 170.502 140.688 155.953 155.234 141.407 169.786 121.302 178.791 99.1064 178.791 81.0942 178.791 64.4579 172.858 51.0552 162.848 50.9729 162.783 50.8877 162.725 50.8083 162.663L50.7935 162.654C50.6351 162.537 50.4644 162.404 50.3203 162.293L50.294 162.275C50.2673 162.254 50.2381 162.231 50.2117 162.21L50.1998 162.201C50.006 162.054 49.8028 161.896 49.6707 161.79L49.6588 161.787C49.6443 161.772 49.6324 161.761 49.6176 161.749ZM99.1064 198.387C126.714 198.387 151.717 187.19 169.808 169.095 187.908 150.998 199.106 125.998 199.106 98.3872 199.106 70.7766 187.908 45.7766 169.808 27.6792 151.717 9.58469 126.714-1.61267 99.1064-1.61267 71.4987-1.61267 46.4955 9.58469 28.3985 27.6792 10.304 45.7766-0.893679 70.7798-0.893679 98.3872-0.893679 125.995 10.304 150.998 28.3985 169.095 46.4955 187.19 71.4987 198.387 99.1064 198.387" fill="#E32626" fill-rule="evenodd" transform="matrix(1 0 0 -1 709 737)"/></g></svg>