<svg width="201" height="201" xmlns="http://www.w3.org/2000/svg" xmlns:xlink="http://www.w3.org/1999/xlink" xml:space="preserve" overflow="hidden"><g transform="translate(-708 -142)"><path d="M61.4459-2.02245C62.3442-2.02245 63.1326-1.27109 63.1326-0.415376L63.1326 5.37111C63.1326 6.22648 62.3442 6.97784 61.4459 6.97784L0.819691 6.97784C-0.0786204 6.97784-0.867373 6.22648-0.867373 5.37111L-0.867373-0.415376C-0.867373-1.27109-0.0786204-2.02245 0.819691-2.02245" fill="#221F20" fill-rule="evenodd" transform="matrix(1 0 0 -1 747 277)"/><path d="M46.6284-1.98316C51.8323-1.98316 56.1469 2.04106 56.1469 7.01712L-0.853473 7.01712C-0.853473 2.04106 3.35301-1.98316 8.55443-1.98316" fill="#221F20" fill-rule="evenodd" transform="matrix(1 0 0 -1 750 289)"/><path d="M27.5912 10.9541C13.9772 10.9541-0.853473 8.80763-0.853473-2.04633L56.1469-2.04633C56.1469 8.80763 41.2056 10.9541 27.5912 10.9541" fill="#221F20" fill-rule="evenodd" transform="matrix(1 0 0 -1 750 265)"/><path d="M9.43613 25.0128 12.6483-2.15621 36.8206-2.15621ZM5.38683 59.2333 9.09294 27.8942 39.3853-2.15621 52.6012-2.15621 54.1396 10.869ZM9.16993 110.731 15.006 89.6891 1.53546 89.6891-0.931519 83.2276 2.54688 83.2276 5.04655 62.1205 54.4116 13.1433 62.7027 83.2276 66.0689 83.2276 63.7116 89.6891 23.4213 89.6891 17.2511 112.844" fill="#221F20" fill-rule="evenodd" transform="matrix(1 0 0 -1 805 289)"/><path d="M148.601 34.4948 35.7479 147.348C25.0707 133.701 18.703 116.518 18.703 97.8505 18.703 75.655 27.7044 55.5526 42.2534 41.0036 56.8057 26.4517 76.9048 17.4499 99.1064 17.4499 117.774 17.4499 134.96 23.8175 148.601 34.4948M49.6061 161.206 51.37 159.442C87.8145 123.001 124.256 86.5589 160.701 50.1172L162.459 48.3533 162.464 48.3591C162.479 48.3768 162.491 48.3941 162.506 48.4118L162.512 48.4208C162.612 48.5443 162.753 48.7323 162.92 48.9438L162.926 48.9557C162.947 48.9821 162.961 49.003 162.979 49.0265L163.006 49.0557C163.132 49.2203 163.267 49.3997 163.373 49.5408L163.382 49.5556C163.414 49.5996 163.455 49.6437 163.488 49.6939L163.567 49.7964C173.577 63.2019 179.504 79.8354 179.504 97.8505 179.504 120.049 170.502 140.151 155.953 154.697 141.407 169.249 121.302 178.254 99.1064 178.254 81.0942 178.254 64.4579 172.322 51.0552 162.311 50.9729 162.247 50.8877 162.188 50.8083 162.126L50.7935 162.118C50.6351 162 50.4644 161.867 50.3203 161.756L50.294 161.738C50.2673 161.718 50.2381 161.694 50.2117 161.674L50.1998 161.665C50.006 161.518 49.8028 161.359 49.6707 161.253L49.6588 161.25C49.6443 161.235 49.6324 161.224 49.6176 161.212ZM99.1064 197.851C126.714 197.851 151.717 186.653 169.808 168.558 187.908 150.461 199.106 125.461 199.106 97.8505 199.106 70.2398 187.908 45.2399 169.808 27.1425 151.717 9.04798 126.714-2.14974 99.1064-2.14974 71.4987-2.14974 46.4955 9.04798 28.3985 27.1425 10.304 45.2399-0.893679 70.2427-0.893679 97.8505-0.893679 125.458 10.304 150.458 28.3985 168.558 46.4955 186.653 71.4987 197.851 99.1064 197.851" fill="#E32626" fill-rule="evenodd" transform="matrix(1 0 0 -1 709 340)"/></g></svg>