<svg width="201" height="201" xmlns="http://www.w3.org/2000/svg" xmlns:xlink="http://www.w3.org/1999/xlink" xml:space="preserve" overflow="hidden"><g transform="translate(-202 -945)"><path d="M29.5685 52.6416 29.5685 5.31022C29.5685 1.79101 32.4479-1.0637 36.0008-1.0637 39.554-1.0637 42.433 1.79101 42.433 5.31022L42.433 39.9003ZM12.8885 69.161 12.8885 5.31022C12.8885 1.79101 15.7708-1.0637 19.3222-1.0637 22.875-1.0637 25.7544 1.79101 25.7544 5.31022L25.7544 56.4164ZM-0.337464 82.2608-0.337464 65.0715C-0.337464 62.2579 1.96283 59.9739 4.80904 59.9739 7.65015 59.9739 9.95372 62.2579 9.95372 65.0715L9.95372 65.1155 9.95372 72.0684ZM12.8885 99.4266 12.8885 71.7096 26.5857 58.1453 29.5685 58.1453 29.5685 55.1935 42.433 42.4464 42.433 70.1662ZM1.7992 110.41C0.461371 108.39-0.322522 105.982-0.337464 103.398L-0.337464 93.197-0.337464 93.0913-0.337464 84.8127 9.95372 74.6203 9.95372 93.0444 9.95372 93.0913 9.95372 93.197 9.95372 102.334ZM45.3685 67.2588 45.3685 65.0715C45.3685 62.2579 47.672 59.9739 50.5157 59.9739 51.1717 59.9739 51.7978 60.0973 52.3765 60.3179ZM42.433 103.313 45.3685 103.301 45.3685 69.8075 53.9647 61.291C55.0066 62.2229 55.6626 63.5721 55.6626 65.0715L55.6626 93.0913 55.6626 93.197 55.6626 103.398C55.6152 110.545 49.711 116.328 42.433 116.328L42.433 116.499 12.8885 116.499 12.8885 116.328C8.90562 116.328 5.33455 114.596 2.90999 111.859L11.5448 103.307 12.8885 103.313 12.8885 101.976 42.433 72.7152ZM39.7526 130.957C39.7526 137.571 34.3357 142.937 27.6571 142.937 20.9756 142.937 15.5576 137.571 15.5576 130.957 15.5576 124.339 20.9756 118.977 27.6571 118.977 34.3357 118.977 39.7526 124.339 39.7526 130.957" fill="#221F20" fill-rule="evenodd" transform="matrix(1 0 0 -1 275 1116)"/><path d="M149.163 35.5841 36.3114 148.434C25.6304 134.787 19.2631 117.604 19.2631 98.9365 19.2631 76.7411 28.2649 56.6386 42.8134 42.0896 57.3658 27.5377 77.4656 18.5392 99.6674 18.5392 118.332 18.5392 135.516 24.9065 149.163 35.5841M50.1665 162.295 51.9304 160.531C88.375 124.087 124.815 87.645 161.26 51.2029L163.021 49.4394 163.027 49.4481C163.038 49.4628 163.053 49.4805 163.065 49.5011L163.074 49.5069C163.171 49.6332 163.315 49.8213 163.479 50.0302L163.488 50.0418C163.506 50.0685 163.523 50.0891 163.541 50.1154L163.564 50.1418C163.691 50.3092 163.826 50.4886 163.935 50.6298L163.944 50.6417C163.976 50.6857 164.015 50.7297 164.047 50.7828L164.126 50.8828C174.136 64.288 180.066 80.9214 180.066 98.9365 180.066 121.138 171.064 141.237 156.515 155.783 141.966 170.335 121.863 179.34 99.6674 179.34 81.6514 179.34 65.0185 173.408 51.6124 163.397 51.5309 163.333 51.4482 163.277 51.3655 163.212L51.354 163.204C51.1981 163.086 51.0223 162.951 50.8776 162.842L50.8545 162.824C50.8281 162.804 50.7981 162.783 50.7718 162.763L50.757 162.751C50.5661 162.604 50.3607 162.442 50.2286 162.342L50.2192 162.336C50.2048 162.321 50.1896 162.31 50.1744 162.301ZM99.6674 198.937C127.273 198.937 152.276 187.739 170.37 169.645 188.471 151.547 199.666 126.55 199.666 98.9365 199.666 71.3288 188.471 46.3259 170.37 28.2285 152.276 10.134 127.273-1.06368 99.6674-1.06368 72.0569-1.06368 47.0534 10.134 28.9583 28.2285 10.8611 46.3259-0.334232 71.3288-0.334232 98.9365-0.334232 126.544 10.8611 151.547 28.9583 169.645 47.0534 187.739 72.0569 198.937 99.6674 198.937" fill="#E32626" fill-rule="evenodd" transform="matrix(1 0 0 -1 203 1144)"/></g></svg>