<svg width="201" height="201" xmlns="http://www.w3.org/2000/svg" xmlns:xlink="http://www.w3.org/1999/xlink" xml:space="preserve" overflow="hidden"><g transform="translate(-452 -538)"><path d="M53.2875 44.0538C55.4219 47.6472 58.1488 54.7191 51.2757 60.4713 44.7561 54.2376 47.7196 47.2869 49.9708 43.8116 46.1778 44.7713 37.29 48.4857 40.3704 60.8313 40.3704 60.8313 41.4362 57.1168 44.8758 55.7969 44.8758 55.7969 40.7268 59.5113 43.8072 67.5399 43.8072 67.5399 46.1778 65.8628 48.429 63.108 48.429 63.108 46.4144 68.4995 51.5094 74.7328 56.4876 68.4995 54.7124 62.7476 54.7124 62.7476 56.844 65.5025 59.2117 67.1828 59.2117 67.1828 62.295 59.1542 58.1488 55.4365 58.1488 55.4365 61.5856 56.7565 62.6484 60.592 62.6484 60.592 65.3783 49.9239 58.0262 45.6098 53.2875 44.0538M-0.631998 49.9152-0.631998-1.61072 50.3153-1.61072ZM2.46311 77.1806C0.483588 75.1701-0.631998 72.976-0.631998 70.7791L-0.631998 52.475 52.8466-1.61072 72.3682-1.61072 72.3682 6.48855ZM54.3561 84.6806 54.3561 94.0292C54.3561 94.0292 49.1503 92.479 41.8771 91.6731 29.0651 90.9053 17.3801 94.3895 17.3801 94.3895L17.3801 84.6806C11.7215 83.2871 6.9889 81.043 3.7945 78.3973L72.3682 9.05163 72.3682 71.1395C72.3682 77.0095 65.0191 82.044 54.3561 84.6806" fill="#221F20" fill-rule="evenodd" transform="matrix(1 0 0 -1 540 692)"/><path d="M59.2971 2.48785 78.4004 2.48785 81.3667 0.844231 81.3667-1.51228 63.338-1.51228ZM60.7992-1.51228-0.633815-1.51228-0.633815 0.844231 2.33537 2.48785 56.7583 2.48785" fill="#221F20" fill-rule="evenodd" transform="matrix(1 0 0 -1 535 698)"/><path d="M39.43-1.53315-0.569864-1.53315-0.569864 0.820668 2.42219 2.46734 39.43 2.46734" fill="#221F20" fill-rule="evenodd" transform="matrix(1 0 0 -1 494 682)"/><path d="M22.4633 20.5333C24.6143 24.2071 27.1211 31.193 20.3124 36.8803 13.7446 30.7205 16.8518 23.8513 19.1177 20.4166 15.1777 21.362 6.10028 25.0358 9.32527 37.2364 9.32527 37.2364 10.4022 33.5627 13.7446 32.2611 13.7446 32.2611 9.5666 35.9291 12.6706 43.8662 12.6706 43.8662 15.1777 42.2089 17.3287 39.3638 17.3287 39.3638 15.2984 44.8117 20.433 50.9719 25.5673 44.8117 23.6548 39.1302 23.6548 39.1302 25.8086 41.856 28.3129 43.5105 28.3129 43.5105 31.4201 35.5762 27.2388 31.9053 27.2388 31.9053 30.5841 33.2065 31.7788 36.9971 31.7788 36.9971 34.4067 26.4542 27.2388 22.1907 22.4633 20.5333M44.7962 65.2036C44.9906 65.3551 45.1846 65.507 45.3818 65.6528 48.8629 68.2238 53.4882 70.0535 57.4549 70.99L57.5755 83.5407C57.5755 83.5407 64.8607 81.4136 74.2944 80.9378L74.4122 80.9378 74.4122 82.5956C74.4122 85.9132 71.6666 88.5164 68.3242 88.5164L67.6063 88.5164 67.6063 93.7278C67.6063 94.4401 66.8881 95.0294 66.1732 95.0294L53.0352 95.0294C52.3173 95.0294 51.7227 94.4401 51.7227 93.7278L51.7227 88.5164 30.8226 88.5164 30.8226 94.084C30.8226 94.7958 30.2254 95.3856 29.3898 95.3856L14.3595 95.3856ZM38.9438 40.9657 38.9438 54.8151C38.9438 58.521 40.8386 61.6054 43.4281 64.0306L11.8115 95.3856 9.92533 95.3856 7.65371 95.3856C6.93588 95.3856 6.22094 94.7958 6.22094 94.084L6.22094 88.8722 5.50275 88.8722C2.15746 88.8722-0.588136 86.2664-0.588136 82.9513L-0.588136 80.1704ZM-0.588136 4.30859C-0.588136 0.990983 2.16324-1.6151 5.50275-1.6151L38.9438-1.6151 38.9438 38.433-0.588136 77.6403" fill="#221F20" fill-rule="evenodd" transform="matrix(1 0 0 -1 495 675)"/><path d="M148.887 35.0319 36.0322 147.885C25.3544 134.238 18.987 117.055 18.987 98.3872 18.987 76.1917 27.9915 56.0893 42.5407 41.5403 57.0903 26.9884 77.1897 17.9866 99.3913 17.9866 118.056 17.9866 135.24 24.3542 148.887 35.0319M49.8906 161.743 51.6545 159.979C88.0996 123.537 124.539 87.0956 160.984 50.6539L162.745 48.89 162.751 48.8987C162.763 48.9135 162.777 48.9308 162.789 48.9485L162.798 48.9575C162.895 49.081 163.039 49.269 163.204 49.4809L163.212 49.4925C163.23 49.5188 163.251 49.5365 163.265 49.5632L163.289 49.5924C163.415 49.757 163.551 49.9364 163.659 50.0775L163.668 50.0923C163.7 50.1364 163.739 50.1804 163.771 50.2302L163.85 50.3334C173.861 63.7386 179.79 80.3721 179.79 98.3872 179.79 120.588 170.788 140.688 156.239 155.234 141.69 169.786 121.587 178.791 99.3913 178.791 81.3763 178.791 64.7426 172.858 51.3369 162.848 51.2546 162.783 51.1723 162.725 51.09 162.663L51.0781 162.654C50.9225 162.537 50.746 162.404 50.602 162.293L50.5785 162.275C50.5518 162.254 50.5226 162.231 50.493 162.21L50.4814 162.201C50.2901 162.054 50.0844 161.896 49.9523 161.79L49.9433 161.787C49.9288 161.772 49.914 161.761 49.8992 161.749ZM99.3913 198.387C126.997 198.387 152 187.19 170.095 169.095 188.195 150.998 199.39 125.998 199.39 98.3872 199.39 70.7766 188.195 45.7766 170.095 27.6792 152 9.58469 126.997-1.61267 99.3913-1.61267 71.7806-1.61267 46.7771 9.58469 28.6823 27.6792 10.585 45.7766-0.609993 70.7798-0.609993 98.3872-0.609993 125.995 10.585 150.998 28.6823 169.095 46.7771 187.19 71.7806 198.387 99.3913 198.387" fill="#E32626" fill-rule="evenodd" transform="matrix(1 0 0 -1 453 737)"/></g></svg>