<svg width="201" height="201" xmlns="http://www.w3.org/2000/svg" xmlns:xlink="http://www.w3.org/1999/xlink" xml:space="preserve" overflow="hidden"><g transform="translate(-452 -945)"><path d="M27.8478 32.9877 4.87118-1.05015-0.628563 2.65623 23.0675 37.764ZM39.9798 50.9594 28.869 34.4991 24.0887 39.2753 35.1995 55.736ZM84.2306 88.6954 67.4588 91.6681 41.0038 52.4739 36.2235 57.2473 64.3724 98.9499 66.4876 98.5759 85.3714 95.2288" fill="#221F20" fill-rule="evenodd" transform="matrix(1 0 0 -1 529 1099)"/><path d="M14.1053 39.9854 48.3373 16.736 44.6899 11.292 10.4582 34.5414ZM76.6498 52.9125 79.4197 57.0496 58.2722 71.4111ZM64.4423 34.6924 75.6194 51.3774 50.4303 76.7368 38.3554 84.9342 28.7617 70.6139 32.262 67.0873 34.5403 70.4836 68.7724 47.2375 65.1398 41.8109 41.2518 58.0335ZM40.4867-1.0661 63.4148 33.1573 33.416 63.3593 30.9078 65.0632 31.2345 65.5522 27.7317 69.0787-0.580792 26.821" fill="#221F20" fill-rule="evenodd" transform="matrix(1 0 0 -1 485 1091)"/><path d="M14.1034 39.9852 48.335 16.7371 44.6874 11.2927 10.4557 34.5408 14.1034 39.9852ZM76.6463 52.9103 79.4196 57.0476 58.2707 71.4101 76.6463 52.9103ZM64.4408 34.6918 75.6191 51.378 50.4281 76.7362 38.3553 84.9341 28.758 70.6128 32.2614 67.0861 34.5371 70.4855 68.7683 47.2377 65.1388 41.8108 41.2519 58.0316 64.4408 34.6918ZM40.4835-1.06618 63.4107 33.1566 33.4123 63.3606 30.9042 65.0618 31.231 65.5508 27.7308 69.0776-0.580834 26.8199 40.4835-1.06618Z" stroke="#221F20" stroke-width="0.120177" stroke-miterlimit="8" fill="none" fill-rule="evenodd" transform="matrix(1 0 0 -1 485.5 1091.5)"/><path d="M11.6234-1.05344 21.4365 13.0023 9.24668 20.9466-0.563474 6.89081 11.6234-1.05344Z" stroke="#221F20" stroke-width="4.27333" stroke-miterlimit="8" fill="none" fill-rule="evenodd" transform="matrix(1 0 0 -1 493 1045)"/><path d="M16.0949 35.8886 34.3599 23.6388 17.6246-1.11152-0.640504 11.1412Z" fill="#221F20" fill-rule="evenodd" transform="matrix(1 0 0 -1 550 1029)"/><path d="M16.094 35.888 34.3596 23.6373 17.6244-1.11215-0.640835 11.1385 16.094 35.888Z" stroke="#221F20" stroke-width="0.36378" stroke-miterlimit="8" fill="none" fill-rule="evenodd" transform="matrix(1 0 0 -1 550.5 1029.5)"/><path d="M11.6829 29.88 30.4027 17.1521 18.1221-1.1199-0.597627 11.608Z" fill="#221F20" fill-rule="evenodd" transform="matrix(1 0 0 -1 527 1014)"/><path d="M11.6838 29.8793 30.4023 17.1487 18.1206-1.12064-0.597968 11.6038 11.6838 29.8793Z" stroke="#221F20" stroke-width="0.349344" stroke-miterlimit="8" fill="none" fill-rule="evenodd" transform="matrix(1 0 0 -1 527.5 1014.5)"/><path d="M11.082 12.6887C14.5138 10.3731 15.4272 5.711 13.1085 2.27594 10.7928-1.1527 6.13039-2.063 2.69555 0.255609-0.736659 2.5712-1.64096 7.23333 0.671715 10.665 2.98742 14.1 7.64978 15.0043 11.082 12.6887Z" stroke="#221F20" stroke-width="5.20659" stroke-miterlimit="8" fill="none" fill-rule="evenodd" transform="matrix(1 0 0 -1 520.5 1111.5)"/><path d="M18.7065-1.01126-0.572641 11.9885 4.15083 18.989 23.4274 5.98893Z" fill="#221F20" fill-rule="evenodd" transform="matrix(1 0 0 -1 500 1102)"/><path d="M148.887 35.5841 36.0322 148.434C25.3544 134.787 18.987 117.604 18.987 98.9365 18.987 76.7411 27.9886 56.6386 42.5378 42.0896 57.0903 27.5377 77.1897 18.5392 99.3884 18.5392 118.056 18.5392 135.24 24.9065 148.887 35.5841M49.8906 162.295 51.6545 160.531C88.0996 124.087 124.539 87.645 160.984 51.2029L162.745 49.4394 162.751 49.4481C162.763 49.4628 162.777 49.4805 162.789 49.5011L162.798 49.5069C162.895 49.6332 163.039 49.8213 163.204 50.0302L163.212 50.0418C163.23 50.0685 163.248 50.0891 163.265 50.1154L163.289 50.1418C163.415 50.3092 163.551 50.4886 163.659 50.6298L163.665 50.6417C163.7 50.6857 163.739 50.7297 163.771 50.7828L163.85 50.8828C173.861 64.288 179.79 80.9214 179.79 98.9365 179.79 121.138 170.788 141.237 156.239 155.783 141.69 170.335 121.587 179.34 99.3884 179.34 81.3763 179.34 64.7426 173.408 51.3369 163.397 51.2546 163.333 51.1723 163.277 51.09 163.212L51.0781 163.204C50.9193 163.086 50.746 162.957 50.602 162.842L50.5785 162.824C50.5518 162.804 50.5226 162.783 50.493 162.763L50.4814 162.751C50.2901 162.604 50.0844 162.448 49.9523 162.342L49.9433 162.336C49.9288 162.321 49.914 162.31 49.8992 162.301ZM99.3884 198.937C126.997 198.937 152 187.739 170.095 169.645 188.195 151.547 199.39 126.55 199.39 98.9365 199.39 71.3288 188.195 46.3259 170.095 28.2285 152 10.134 126.997-1.06368 99.3884-1.06368 71.7806-1.06368 46.7771 10.134 28.6823 28.2285 10.585 46.3259-0.609993 71.3288-0.609993 98.9365-0.609993 126.544 10.585 151.547 28.6823 169.645 46.7771 187.739 71.7806 198.937 99.3884 198.937" fill="#E32626" fill-rule="evenodd" transform="matrix(1 0 0 -1 453 1144)"/></g></svg>