<svg width="201" height="201" xmlns="http://www.w3.org/2000/svg" xmlns:xlink="http://www.w3.org/1999/xlink" xml:space="preserve" overflow="hidden"><g transform="translate(-452 -142)"><path d="M11.3594-2.25573C4.78631-2.25573-0.610909 3.15122-0.610909 9.74266-0.610909 16.337 4.78631 21.7443 11.3594 21.7443 17.9354 21.7443 23.3892 16.337 23.3892 9.74266 23.3892 3.15122 17.9354-2.25573 11.3594-2.25573" fill="#221F20" fill-rule="evenodd" transform="matrix(1 0 0 -1 536 193)"/><path d="M4.67025 112.186C7.26083 113.475 10.757 113.762 15.0826 113.762L36.2207 113.762C47.594 113.762 47.3713 115.328 53.9712 105.7L62.1297 93.8404 77.7142 93.8404C86.5942 93.8404 86.6467 81.6969 77.6088 81.6407L54.5278 81.6407 40.7689 100.61 40.7689 75.776ZM25.8112 57.868C25.7878 57.2945 25.7907 56.6471 25.7907 55.9524L25.7907 5.30576C25.7907-4.65611 13.8078-4.59985 13.8078 5.30576L13.8078 69.9759ZM40.7689 42.7771 40.7689 5.30576C40.7689-4.59985 28.7857-4.59985 28.7857 5.30576L28.7857 54.8676ZM-0.619221 87.0916-0.619221 99.9947C-0.619221 105.836 0.667075 109.236 3.11122 111.199L40.7689 73.21 40.7689 45.3402 28.7799 57.4365C28.7418 59.2246 28.5248 60.4278 27.2824 60.4278 26.8222 60.4278 26.5027 60.2594 26.2833 59.9549L13.8078 72.5419 13.8078 97.6451C13.8078 100.385 11.1438 100.497 11.1438 97.5326L11.1438 75.2258ZM11.1438 67.9834C11.0355 59.3637-0.396863 58.8051-0.619221 68.1521L-0.619221 84.526 11.1438 72.6631" fill="#221F20" fill-rule="evenodd" transform="matrix(1 0 0 -1 520 310)"/><path d="M-0.660835 7.89877 9.33949 7.89877 9.33949-2.10192-0.0974767-2.10192-0.660835-1.53854" fill="#221F20" fill-rule="evenodd" transform="matrix(1 0 0 -1 598 269)"/><path d="M5.06445 11.8672 13.3426 6.14367 7.62063-2.13329-0.65751 3.58732Z" fill="#221F20" fill-rule="evenodd" transform="matrix(1 0 0 -1 590 256)"/><path d="M8.00393 11.8594 14.2889 3.72355 5.57407-2.14066-0.710888 5.99522Z" fill="#221F20" fill-rule="evenodd" transform="matrix(1 0 0 -1 597 244)"/><path d="M148.887 34.4948 36.0322 147.348C25.3544 133.701 18.987 116.518 18.987 97.8505 18.987 75.655 27.9886 55.5526 42.5378 41.0036 57.0903 26.4517 77.1897 17.4499 99.3884 17.4499 118.056 17.4499 135.24 23.8175 148.887 34.4948M49.8906 161.206 51.6545 159.442C88.0996 123.001 124.539 86.5589 160.984 50.1172L162.745 48.3533 162.751 48.3591C162.763 48.3768 162.777 48.3941 162.789 48.4118L162.798 48.4208C162.895 48.5443 163.039 48.7323 163.204 48.9438L163.212 48.9557C163.23 48.9792 163.248 49.003 163.265 49.0265L163.289 49.0557C163.415 49.2203 163.551 49.3997 163.659 49.5408L163.665 49.5556C163.7 49.5996 163.739 49.6437 163.771 49.6939L163.85 49.7964C173.861 63.2019 179.79 79.8354 179.79 97.8505 179.79 120.049 170.788 140.151 156.239 154.697 141.69 169.249 121.587 178.254 99.3884 178.254 81.3763 178.254 64.7426 172.322 51.3369 162.311 51.2546 162.247 51.1723 162.188 51.09 162.126L51.0781 162.118C50.9193 162 50.746 161.867 50.602 161.756L50.5785 161.738C50.5518 161.718 50.5226 161.694 50.493 161.674L50.4814 161.665C50.2901 161.518 50.0844 161.359 49.9523 161.253L49.9433 161.25C49.9288 161.235 49.914 161.224 49.8992 161.212ZM99.3884 197.851C126.997 197.851 152 186.653 170.095 168.558 188.195 150.461 199.39 125.461 199.39 97.8505 199.39 70.2398 188.195 45.2399 170.095 27.1425 152 9.04798 126.997-2.14974 99.3884-2.14974 71.7806-2.14974 46.7771 9.04798 28.6823 27.1425 10.585 45.2399-0.609993 70.2427-0.609993 97.8505-0.609993 125.458 10.585 150.458 28.6823 168.558 46.7771 186.653 71.7806 197.851 99.3884 197.851" fill="#E32626" fill-rule="evenodd" transform="matrix(1 0 0 -1 453 340)"/></g></svg>