<svg width="201" height="201" xmlns="http://www.w3.org/2000/svg" xmlns:xlink="http://www.w3.org/1999/xlink" xml:space="preserve" overflow="hidden"><g transform="translate(-1998 -201)"><path d="M75.2191 47.239 80.9147 47.2214 81.3525 47.5144 81.4027 56.9341C79.1936 60.2897 63.2777 64.0465 59.3357 64.5559L57.6525 64.749ZM49.7887 47.321 72.6635 47.2476 54.9501 64.9043 53.6369 64.8457 52.9055 64.4592 46.0375 51.3471 45.9906 50.7675 46.4252 50.0385 48.1819 47.6111 48.9631 47.2214 49.8388 47.2214ZM29.3818 62.7843 29.3818 71.8675 29.6401 72.1191 32.6043 72.1191 35.1773 72.1659 35.1834 72.1659 35.7002 72.1659C37.2338 72.0285 38.4997 71.6507 39.8482 70.904L41.4611 69.7385 41.5108 69.6889C42.5037 68.541 43.4818 67.1267 43.3675 65.5309L43.3704 65.4813 43.2409 64.1694 43.2146 64.0846C41.9865 60.4626 37.8624 58.9398 34.3431 58.7963L33.374 58.8049ZM29.3818 59.0951 29.3818 60.2458 30.8007 58.8315 29.6372 58.8431ZM54.474 37.7726 64.8819 45.6727 65.2401 45.6256 67.9075 42.0945 67.9133 42.0855 73.8587 34.215 73.8119 33.8752 79.2611 27.2165 89.1987 27.0235 89.2456 23.9634 89.8302 19.791 91.1433 15.2728 92.5092 11.5835 93.2907 10.4651 93.1908 10.5643 81.7698 10.5643ZM61.148 24.3527 60.8368 24.3969 55.1849 32.0684 52.362 35.8546 52.4121 36.2059 53.0289 36.6743 79.2228 10.5643 66.6914 10.5643C60.6254 11.3139 59.8262 16.7399 61.1862 21.779L61.8679 23.0413ZM49.6596 72.7166 52.1564 77.4513C52.7879 78.3853 53.6398 79.1729 54.6093 79.7438L55.5993 80.0659 55.6198 80.0106 55.6169 80.0749 55.6638 80.0807 55.6638 80.0778 68.9296 80.8507 69.1294 80.7688 69.4086 80.4643 69.4731 80.2798 69.3206 77.5979 69.2996 77.5127 69.0739 76.9652 68.8535 76.8099 57.1797 76.1308 56.216 75.8759 55.4875 75.3547 52.5355 69.8471ZM39.2311 52.9666 48.7814 71.0536 51.6482 68.1955 41.9984 50.2082ZM38.0445 50.7176 38.3529 51.3003 48.7489 40.9405 49.9034 39.2045 49.9149 39.1898 51.4719 36.3698 51.4896 36.3346 52.6588 33.1781 52.6675 33.149 53.2023 30.8213 53.2052 30.7979 53.4988 28.7599 53.2492 28.4697 51.6836 28.4697C51.8802 27.1669 51.9862 25.8317 51.9862 24.4732 51.9862 17.1616 49.0075 10.5381 44.1985 5.74485 39.3898 0.951604 32.7482-2.01465 25.4103-2.01465 18.0752-2.01465 11.4304 0.951604 6.61882 5.74485 1.81015 10.5381-1.16565 17.1616-1.16565 24.4732-1.16565 31.7872 1.81015 38.4107 6.61882 43.2011 9.30646 45.8805 12.5643 47.9886 16.1951 49.3267L14.747 51.6019 14.8761 51.9769 17.5082 52.8962 17.523 52.9051 19.864 53.5346 19.8994 53.5433 22.7724 53.883 22.8016 53.883C27.1079 54.1846 31.4996 53.6428 35.5387 52.0761L35.5888 52.056ZM20.8836 19.9607 20.8836 19.9607C19.7144 21.1262 18.9916 22.7306 18.9916 24.4994 18.9916 26.2473 19.7173 27.8431 20.8894 29 22.0525 30.1508 23.6625 30.8709 25.4337 30.8709 26.1182 30.8709 26.7819 30.7565 27.4018 30.5549L32.331 39.8955C30.2189 40.8381 27.8747 41.3651 25.4103 41.3651 20.7307 41.3651 16.4948 39.4709 13.4281 36.4169 10.3643 33.3597 8.46648 29.1377 8.46648 24.4732 8.46648 19.8115 10.3643 15.5862 13.4281 12.5323 16.4948 9.47505 20.7307 7.58371 25.4103 7.58371 30.0866 7.58371 34.3225 9.47505 37.3925 12.5323 40.4563 15.5862 42.3537 19.8115 42.3537 24.4732 42.3537 29.1377 40.4563 33.3597 37.3925 36.4169 36.7959 37.0083 36.1586 37.5558 35.4831 38.0566L30.3686 28.5255C31.2735 27.4247 31.8228 26.019 31.8228 24.4994 31.8228 22.7339 31.1062 21.1291 29.9488 19.9664 28.7882 18.8042 27.1844 18.078 25.4337 18.078 23.6593 18.078 22.0468 18.8013 20.8836 19.9607M86.8897 33.0699 86.6048 31.5356 86.555 29.9545 86.4815 29.7816 86.2377 29.5414 86.0584 29.4652 85.2772 29.4652 85.1272 29.5181 84.4899 30.0041 84.4488 30.0451 73.8793 42.8614 73.4389 43.4002 73.383 43.5556 73.383 44.4309 73.4977 44.6416 74.0791 45.0284 74.2201 45.0723 74.843 45.0723ZM90.1945 43.8072 88.6818 39.825 87.4715 36.2116 87.2865 35.2104 77.39 45.0723 89.0782 45.0723 89.1017 45.0723 89.5893 45.0227 89.7216 44.9666 89.9683 44.7736 90.0358 44.6887 90.1829 44.3986 90.2092 44.2846 90.2092 43.8982ZM91.3403 28.6308 90.2738 28.6164 90.0152 28.8972 90.127 29.8402ZM105.429 14.5908C105.984 13.806 106.603 13.0708 107.282 12.3975 107.961 11.718 108.695 11.1004 109.479 10.5467L122.073-2.00315C121.15-2.0995 120.213-2.14947 119.261-2.14947 111.926-2.14947 105.282 0.81679 100.473 5.60716 95.6642 10.4037 92.6855 17.0268 92.6855 24.3383 92.6855 25.2842 92.7385 26.2182 92.8352 27.1403ZM114.535 20.0926C113.383 21.2434 112.667 22.8302 112.667 24.5961 112.667 26.3616 113.386 27.9632 114.541 29.1258 114.831 29.4185 115.152 29.682 115.493 29.9135L112.59 39.866C110.593 39.0111 108.795 37.7873 107.279 36.2821 104.218 33.2252 102.321 29 102.321 24.3383 102.321 22.6692 102.561 21.0561 103.017 19.5303L90.3914 32.1155C90.7145 36.437 93.1201 43.1601 96.0754 46.5685L96.4104 46.9198 84.9101 46.9198 84.7629 46.9698 84.4225 47.2099 84.3164 47.3853 84.2695 47.7718 84.3193 47.9566 84.4134 48.0824 84.3637 56.5915 84.3723 56.6587 84.5664 57.3878 84.6338 57.5021 85.1214 57.9853 85.2271 58.0496 86.1994 58.3397 86.2319 58.3484 121.993 64.6084 122.231 64.5149C122.352 64.3686 122.572 64.0551 122.731 63.7797 122.848 63.5719 122.942 63.367 122.957 63.2207L124.006 57.139 126.667 56.4977 126.705 56.4861C128.823 55.6751 130.876 54.6793 132.806 53.4875L134.067 52.4716 137.812 49.7573 137.859 49.7192 138.975 48.4103 141.014 46.3284 141.034 46.305 142.397 44.51 142.356 44.1646 140.609 42.7122 139.413 41.6053C143.417 36.9673 145.834 30.9352 145.834 24.3383 145.834 17.0268 142.862 10.4037 138.053 5.60716 134.369 1.93808 129.61-0.658969 124.29-1.67816L114.441 8.14274C115.969 7.69192 117.587 7.4489 119.261 7.4489 123.941 7.4489 128.177 9.3406 131.241 12.3975 134.307 15.4514 136.205 19.6738 136.205 24.3383 136.205 29 134.307 33.2252 131.244 36.2821 128.177 39.3361 123.941 41.2278 119.261 41.2278 118.6 41.2278 117.945 41.1897 117.299 41.1163L120.328 30.8914C121.594 30.6336 122.728 30.0102 123.609 29.1345 124.772 27.9722 125.498 26.3645 125.498 24.5961 125.498 22.8302 124.778 21.2376 123.615 20.0869 122.449 18.9357 120.833 18.2243 119.056 18.2243 117.299 18.2243 115.695 18.939 114.535 20.0926M134.061 52.4745 134.067 52.4716ZM134.067 52.4716 134.072 52.4687ZM55.6198 80.0106 55.6198 80.0106 55.6169 80.0749" fill="#221F20" fill-rule="evenodd" transform="matrix(1 0 0 -1 2026 334)"/><path d="M148.329 34.4948 35.4749 147.348C24.7975 133.701 18.4297 116.518 18.4297 97.8505 18.4297 75.655 27.4345 55.5526 41.9809 41.0036 56.533 26.4517 76.6324 17.4499 98.8344 17.4499 117.499 17.4499 134.682 23.8175 148.329 34.4948M49.3362 161.206 51.0972 159.442C87.5423 123.001 123.982 86.5589 160.427 50.1172L162.188 48.3533 162.193 48.3591C162.205 48.3768 162.22 48.3941 162.232 48.4118L162.241 48.4208C162.338 48.5443 162.482 48.7323 162.646 48.9438L162.655 48.9557C162.673 48.9821 162.691 49.003 162.708 49.0265L162.732 49.0528C162.858 49.2203 162.993 49.3997 163.102 49.5408L163.111 49.5556C163.143 49.5996 163.181 49.6437 163.214 49.6939L163.293 49.7964C173.303 63.2019 179.233 79.8354 179.233 97.8505 179.233 120.049 170.231 140.151 155.682 154.697 141.133 169.249 121.03 178.254 98.8344 178.254 80.819 178.254 64.1853 172.322 50.7796 162.308 50.6973 162.247 50.615 162.188 50.5327 162.126L50.5208 162.118C50.3652 162 50.1887 161.867 50.0447 161.756L50.0212 161.738C49.9949 161.718 49.9653 161.694 49.936 161.674L49.9241 161.665C49.7332 161.518 49.5275 161.359 49.395 161.253L49.3863 161.25C49.3715 161.235 49.3567 161.224 49.3419 161.212ZM98.8344 197.851C126.439 197.851 151.443 186.653 169.537 168.558 187.638 150.461 198.833 125.461 198.833 97.8505 198.833 70.2398 187.638 45.2399 169.537 27.1425 151.443 9.04798 126.439-2.14974 98.8344-2.14974 71.2234-2.14974 46.2201 9.04798 28.1254 27.1425 10.0277 45.2399-1.16729 70.2427-1.16729 97.8505-1.16729 125.458 10.0277 150.458 28.1254 168.558 46.2201 186.653 71.2234 197.851 98.8344 197.851" fill="#E32626" fill-rule="evenodd" transform="matrix(1 0 0 -1 2000 399)"/></g></svg>