<svg width="201" height="201" xmlns="http://www.w3.org/2000/svg" xmlns:xlink="http://www.w3.org/1999/xlink" xml:space="preserve" overflow="hidden"><g transform="translate(-953 -945)"><path d="M58.8208 40.4099C57.7987 39.332 56.695 38.3795 55.5013 37.5447 52.5107 35.4531 49.4561 34.0614 46.3607 33.3849 44.3983 32.9921 42.028 32.6932 39.2497 32.4824L24.7486 47.0721 26.1783 47.0721C33.1434 47.0721 37.8086 47.5232 40.1496 48.4458 42.491 49.3687 44.3225 50.8014 45.6679 52.7671 45.7873 52.9458 45.8977 53.1217 46.0057 53.3033ZM15.1129 86.9238 27.1976 86.9238C37.9309 86.9238 44.9367 86.4724 48.1923 85.5876 53.201 84.2783 57.4172 81.413 60.8011 76.9863 64.1789 72.5596 65.8706 66.8438 65.8706 59.854 65.8706 54.4457 64.8921 49.8989 62.9383 46.2311 62.0649 44.5816 61.0892 43.0936 60.0031 41.7606L46.8384 55.0025C47.3886 56.4085 47.6653 57.9437 47.6653 59.6105 47.6653 62.8099 46.7275 65.4493 44.8524 67.5413 43.0004 69.6095 40.6187 70.9191 37.7646 71.4345 36.2506 71.7277 33.6503 71.9036 29.9665 71.9827ZM-1.12975 73.1074-1.12975 86.9238 12.5913 86.9238 27.4042 72.0147C26.6588 72.0233 25.8755 72.0266 25.0571 72.0266L16.5254 72.0266 16.5254 55.3424ZM-1.12975-1.07655-1.12975 70.5677 16.5254 52.8023 16.5254 47.0721 22.221 47.0721 36.8766 32.327C34.2442 32.1864 31.2947 32.1162 28.0331 32.1162L16.5254 32.1162 16.5254-1.07655" fill="#221F20" fill-rule="evenodd" transform="matrix(1 0 0 -1 999 1075)"/><path d="M8.81313 40.4337 5.91583 33.5727C5.51486 32.617 4.63076 31.1908 3.95583 30.4054L0.0383605 25.8473C-0.636566 25.0591-1.19388 23.5679-1.19388 22.5327L-1.19062 10.637-0.129557 8.51974-0.129557 0.235416C-0.129557-0.458555 0.436441-1.02326 1.132-1.02326L9.23474-1.02326C9.9274-1.02326 10.4934-0.458555 10.4934 0.235416L10.4963 7.46109 41.8614 7.46109ZM27.5862 51.9767 23.8519 51.9767 17.9332 51.9738C15.5957 51.9738 12.9427 50.215 12.0322 48.0652L9.56768 42.2279 44.4167 7.46109 55.1164 7.46109 55.1164 0.235416C55.1164-0.458555 55.6824-1.02326 56.3783-1.02326L64.4839-1.02326C65.1737-1.02326 65.7426-0.458555 65.7426 0.235416L65.7426 8.51974 66.8008 10.637 66.8036 12.8515ZM66.8065 22.5389C66.8008 23.5741 66.2525 25.062 65.5776 25.8473L61.663 30.4054C60.9852 31.1908 60.104 32.617 59.6972 33.5727L53.578 48.0652C52.6729 50.215 50.0173 51.9738 47.6828 51.9738L41.7583 51.9767 30.139 51.9767 66.8036 15.4013" fill="#221F20" fill-rule="evenodd" transform="matrix(1 0 0 -1 1044 1100)"/><path d="M8.32526 16.9181 34.6452 16.9181C36.268 16.9181 37.5803 16.8114 38.6483 15.9423 39.1915 15.5 39.7672 14.768 40.0954 13.9539 40.5726 12.7737 43.4689 5.48421 44.3431 3.02594 44.7936 1.7573 45.2947 0.214186 43.7227-0.0696479 43.3378-0.136675 42.4339-0.216058 41.9358-0.246389 36.1875-0.612602 27.8406-1.12485 22.0773-1.07917 17.3643-1.04547 12.1379-0.835026 9.68588-0.731303 8.9043-0.697603 4.07162-0.395795 0.903542-0.172996 0.0384564-0.112335-0.707231 0.0370707-1.02953 0.601369-1.25331 0.991921-1.29213 1.61688-0.9995 2.37964 0.211327 5.53626 2.23413 10.7726 2.86921 12.4411 3.29004 13.542 3.49294 14.3228 4.21189 15.2559 5.19601 16.5339 6.83681 16.9181 8.32526 16.9181" fill="#FFFFFF" fill-rule="evenodd" transform="matrix(1 0 0 -1 1055 1068)"/><path d="M11.8361 4.35675 11.8361-0.202769C11.8361-0.600446 11.4805-0.923435 11.049-0.923435L-0.371589-0.923435C-0.648289-0.923435-0.882393-0.805835-1.03165-0.597825-1.18403-0.389815-1.20377-0.146754-1.09676 0.0851696L0.824214 4.10321C1.23874 4.97063 1.68444 5.07709 2.60112 5.07709L11.049 5.07709C11.4805 5.07709 11.8361 4.75443 11.8361 4.35675" fill="#FFFFFF" fill-rule="evenodd" transform="matrix(1 0 0 -1 1092 1081)"/><path d="M-1.12053 4.35675-1.12053-0.202769C-1.12053-0.600446-0.76526-0.923435-0.331035-0.923435L11.0886-0.923435C11.3622-0.923435 11.5963-0.805835 11.7486-0.597825 11.8982-0.389815 11.9207-0.146754 11.8106 0.0851696L9.88986 4.10321C9.47537 4.97063 9.02972 5.07709 8.11591 5.07709L-0.331035 5.07709C-0.76526 5.07709-1.12053 4.75443-1.12053 4.35675" fill="#FFFFFF" fill-rule="evenodd" transform="matrix(1 0 0 -1 1051 1081)"/><path d="M148.33 35.5841 35.4768 148.434C24.7993 134.787 18.4314 117.604 18.4314 98.9365 18.4314 76.7411 27.4306 56.6386 41.98 42.0896 56.5324 27.5377 76.6353 18.5392 98.8372 18.5392 117.5 18.5392 134.683 24.9065 148.33 35.5841M49.3325 162.295 51.0965 160.531C87.5453 124.087 123.982 87.645 160.428 51.2029L162.192 49.4394 162.195 49.4481C162.206 49.4628 162.221 49.4805 162.233 49.5011L162.245 49.5069C162.339 49.6332 162.486 49.8213 162.647 50.0302L162.659 50.0418C162.674 50.0685 162.694 50.0891 162.709 50.1154L162.733 50.1418C162.859 50.3092 162.994 50.4886 163.103 50.6298L163.115 50.6417C163.147 50.6857 163.183 50.7297 163.215 50.7828L163.294 50.8828C173.304 64.288 179.237 80.9214 179.237 98.9365 179.237 121.138 170.232 141.237 155.683 155.783 141.133 170.335 121.033 179.34 98.8372 179.34 80.8187 179.34 64.1881 173.408 50.7792 163.397 50.6969 163.333 50.6175 163.277 50.532 163.212L50.5233 163.204C50.3645 163.086 50.1883 162.957 50.044 162.842L50.0205 162.824C49.9942 162.804 49.9649 162.783 49.9411 162.763L49.9238 162.751C49.7354 162.604 49.5267 162.448 49.3943 162.342L49.3856 162.336C49.3737 162.321 49.356 162.31 49.3416 162.301ZM98.8372 198.937C126.44 198.937 151.446 187.739 169.541 169.645 187.642 151.547 198.835 126.55 198.835 98.9365 198.835 71.3288 187.642 46.3259 169.541 28.2285 151.446 10.134 126.44-1.06368 98.8372-1.06368 71.2229-1.06368 46.2194 10.134 28.1272 28.2285 10.0264 46.3259-1.1655 71.3288-1.1655 98.9365-1.1655 126.544 10.0264 151.547 28.1272 169.645 46.2194 187.739 71.2229 198.937 98.8372 198.937" fill="#E32626" fill-rule="evenodd" transform="matrix(1 0 0 -1 955 1144)"/></g></svg>