<svg width="201" height="201" xmlns="http://www.w3.org/2000/svg" xmlns:xlink="http://www.w3.org/1999/xlink" xml:space="preserve" overflow="hidden"><g transform="translate(-953 -142)"><path d="M10.9295 16.5512C14.084 15.6542 16.5302 13.1635 17.4301 10.0537ZM8.32976-2.09182C3.03309-2.09182-1.19555 2.19869-1.19555 7.38875-1.19555 12.4611 2.87078 16.74 8.02 16.9081L17.8047 7.12066C17.666 2.05088 13.5558-2.09182 8.32976-2.09182M8.32976 3.07795C5.91292 3.07795 3.97721 5.07558 3.97721 7.45686 3.97721 9.80554 5.91292 11.8032 8.32976 11.8032 10.7701 11.8032 12.7001 9.80554 12.7001 7.45686 12.7001 5.07558 10.7701 3.07795 8.32976 3.07795" fill="#221F20" fill-rule="evenodd" transform="matrix(1 0 0 -1 1069 298)"/><path d="M-1.23959 10.065 0.767965 7.66429C2.2168 9.61828 4.42622 11.2914 6.13929 12.2251 11.4353 15.1043 16.338 10.0504 15.5866 5.75338 14.8319 1.45347 14.6788 2.02483 13.2211-0.361322 12.2649-1.55315 14.736-2.80549 15.4604-1.84292 20.955 4.79971 18.7666 10.7232 14.853 13.8025 10.9368 16.8846 5.00008 16.9974-1.23959 10.065" fill="#221F20" fill-rule="evenodd" transform="matrix(1 0 0 -1 1088 200)"/><path d="M-1.23996 10.0631 0.768192 7.66753C2.21746 9.61949 4.42753 11.293 6.13815 12.2266 11.4358 15.1065 16.3399 10.0486 15.585 5.75083 14.8334 1.45275 14.6802 2.02103 13.2187-0.362832 12.2656-1.55459 14.7374-2.80474 15.4587-1.84478 20.9549 4.79657 18.7663 10.7244 14.8515 13.8043 10.9367 16.8815 5.00155 16.9972-1.23996 10.0631Z" stroke="#221F20" stroke-width="0.114403" stroke-miterlimit="8" fill="none" fill-rule="evenodd" transform="matrix(1 0 0 -1 1088.5 200.5)"/><path d="M19.4809 9.45812C23.7351 9.22738 29.6452 8.83766 31.3833 10.1054 37.364 14.4877 36.4127 22.8355 33.9704 22.8355L30.5145 22.8355ZM-0.0227885 0.304341 0.218842-0.064401C2.19276-3.0769 3.70403-2.67503 6.22884 0.0375366L14.8997 9.35618C15.035 9.50596 15.524 9.56594 16.2579 9.56925L27.2734 22.8355 25.9155 22.8355C22.3562 22.8355 14.8288 22.2599 12.2598 19.5952L1.34994 8.27424C-1.219 5.60951-1.9967 3.31941-0.0227885 0.304341" fill="#221F20" fill-rule="evenodd" transform="matrix(1 0 0 -1 1006 272)"/><path d="M19.4806 9.46048C23.7354 9.22674 29.6464 8.83987 31.3818 10.1083 37.3633 14.4883 36.4148 22.8353 33.9689 22.8353L30.5157 22.8353 19.4806 9.46048ZM-0.0227916 0.307362 0.218871-0.0673619C2.19306-3.07767 3.70454-2.6757 6.2297 0.0404908L14.8988 9.35852C15.0341 9.50576 15.5232 9.56539 16.2573 9.57459L27.2743 22.8353 25.9158 22.8353C22.3564 22.8353 14.8279 22.2626 12.2586 19.5972L1.35013 8.27926C-1.21917 5.61091-1.99698 3.32061-0.0227916 0.307362Z" stroke="#221F20" stroke-width="0.114403" stroke-miterlimit="8" fill="none" fill-rule="evenodd" transform="matrix(1 0 0 -1 1006.5 272.5)"/><path d="M45.3044 34.3553 48.8364 63.853 33.7229 45.8861ZM42.0653 7.30963 45.0328 32.0768 32.5565 44.4956 19.8706 29.4103ZM-1.16381 4.39625C11.1091 2.24992 23.1957-0.00794133 35.4711-2.14524 35.6455-2.10445 36.2299-2.16293 36.413-2.14271 36.6019-2.12178 36.7883-2.11023 36.9714-2.09831 37.5029-2.06908 37.6976-2.07196 38.0373-1.91603 40.1339-0.951876 41.3329 1.20636 41.504 2.6293L41.7934 5.03119 18.701 28.0224" fill="#221F20" fill-rule="evenodd" transform="matrix(1 0 0 -1 1024 275)"/><path d="M45.3015 34.3557 48.8367 63.8528 33.7251 45.8847 45.3015 34.3557ZM42.0648 7.31063 45.0328 32.0767 32.5557 44.4966 19.8719 29.41 42.0648 7.31063ZM-1.16388 4.39663C11.1127 2.25048 23.1972-0.00794202 35.4705-2.14543 35.6478-2.10716 36.2294-2.16312 36.4154-2.14254 36.6014-2.12196 36.7845-2.1133 36.9705-2.10139 37.5024-2.0689 37.6971-2.07215 38.0369-1.91619 40.1337-0.951599 41.3324 1.20358 41.5039 2.62953L41.7932 5.03199 18.7023 28.022-1.16388 4.39663Z" stroke="#221F20" stroke-width="0.111516" stroke-miterlimit="8" fill="none" fill-rule="evenodd" transform="matrix(1 0 0 -1 1024.5 275.5)"/><path d="M12.0088 5.45351 14.8028-0.106728 10.8279-2.16198 1.80446 15.8061ZM-1.19774 21.7855 2.77427 23.8381 9.32548 10.7895-0.876296 21.1396" fill="#221F20" fill-rule="evenodd" transform="matrix(1 0 0 -1 1063 285)"/><path d="M11.2589 5.45149 13.8766-0.109719 10.1539-2.16251 1.68986 15.804 11.2589 5.45149ZM-1.12349 21.7819 2.60229 23.838 8.74467 10.7896-0.821976 21.1388-1.12349 21.7819Z" stroke="#221F20" stroke-width="0.114403" stroke-miterlimit="8" fill="none" fill-rule="evenodd" transform="matrix(1 0 0 -1 1064.5 285.5)"/><path d="M8.39824-2.09118C3.10248-2.09118-1.12218 2.19476-1.12218 7.3865-1.12218 12.558 3.10248 16.9087 8.39824 16.9087 13.7179 16.9087 17.8777 12.558 17.8777 7.3865 17.8777 2.19476 13.7179-2.09118 8.39824-2.09118M8.39824 3.07991C5.98218 3.07991 4.0497 5.07693 4.0497 7.45169 4.0497 9.80544 5.98218 11.8028 8.39824 11.8028 10.8382 11.8028 12.7707 9.80544 12.7707 7.45169 12.7707 5.07693 10.8382 3.07991 8.39824 3.07991" fill="#221F20" fill-rule="evenodd" transform="matrix(1 0 0 -1 1003 298)"/><path d="M8.94839-2.21025C3.59419-1.75095-0.682071 2.71323-1.11868 8.31293ZM9.86165 20.7898C15.9474 20.7898 20.8817 15.629 20.8817 9.27047 20.8817 3.43676 16.7328-1.39246 11.3477-2.14802L-1.05914 10.8209C-0.335987 16.4472 4.28079 20.7898 9.86165 20.7898" fill="#221F20" fill-rule="evenodd" transform="matrix(1 0 0 -1 1039 220)"/><path d="M8.94674-2.21078C3.59186-1.75137-0.682157 2.71096-1.11882 8.31199L8.94674-2.21078ZM9.86011 20.7889C15.9462 20.7889 20.8812 15.6298 20.8812 9.26976 20.8812 3.43175 16.729-1.39243 11.346-2.14853L-1.05928 10.8176C-0.336029 16.4452 4.27819 20.7889 9.86011 20.7889Z" stroke="#221F20" stroke-width="0.114403" stroke-miterlimit="8" fill="none" fill-rule="evenodd" transform="matrix(1 0 0 -1 1039.5 220.5)"/><path d="M11.6959-0.67041 8.70628-1.29509C5.33064-1.99795-0.0255338-3.40367-0.866298-0.153774-1.71335 3.09613-0.896643 5.67599 2.42497 6.59531L3.97698 7.0216ZM20.5332 1.17672 13.8571-0.216832 6.02079 7.58654 24.0388 12.5693C25.9434 13.0947 27.8814 12.6592 29.3524 11.581ZM31.643 8.22893C32.4871 4.9794 30.2716 3.21339 26.8989 2.50758L24.4699 2.00275 31.0043 9.76408C31.2844 9.29244 31.5013 8.7758 31.643 8.22893" fill="#221F20" fill-rule="evenodd" transform="matrix(1 0 0 -1 1023 238)"/><path d="M11.6962-0.669451 8.70866-1.29427C5.32957-2.00024-0.0240571-3.40332-0.868275-0.152701-1.71249 3.09497-0.895293 5.6754 2.42643 6.59455L3.97608 7.02131 11.6962-0.669451ZM20.5347 1.17809 13.8576-0.215773 6.02278 7.58896 24.0404 12.5669C25.9428 13.0958 27.884 12.6602 29.3522 11.5817L20.5347 1.17809ZM31.6432 8.22595C32.487 4.97533 30.2716 3.21484 26.8984 2.50887L24.4686 2.00135 31.004 9.76108C31.2842 9.28969 31.5014 8.7759 31.6432 8.22595Z" stroke="#221F20" stroke-width="0.114403" stroke-miterlimit="8" fill="none" fill-rule="evenodd" transform="matrix(1 0 0 -1 1023.5 238.5)"/><path d="M-12.1599-2.15982-13.1596-2.15982" stroke="#221F20" stroke-width="0.634088" stroke-miterlimit="8" fill="none" fill-rule="evenodd" transform="matrix(1 0 0 -1 1050.5 267.5)"/><path d="M32.8542 32.5987 3.61781-2.15645-1.15189-2.15356 30.3703 35.0977ZM46.6209 48.9648 34.0118 33.976 31.5365 36.4721 44.1837 51.4169ZM76.7439 89.8926 81.8487 90.8441 47.7814 50.3417 45.3499 52.791Z" fill="#221F20" fill-rule="evenodd" transform="matrix(1 0 0 -1 1010 279)"/><path d="M148.331 34.4948 35.4796 147.348C24.7989 133.701 18.4312 116.518 18.4312 97.8505 18.4312 75.655 27.4331 55.5526 41.9823 41.0036 56.5344 26.4517 76.6342 17.4499 98.8358 17.4499 117.501 17.4499 134.684 23.8175 148.331 34.4948M49.3351 161.206 51.099 159.442 160.428 50.1172 162.19 48.3533 162.195 48.3591C162.207 48.3768 162.222 48.3941 162.234 48.4118L162.245 48.4208C162.339 48.5443 162.483 48.7323 162.648 48.9438L162.657 48.9557C162.675 48.9821 162.695 49.003 162.71 49.0265L162.733 49.0557C162.86 49.2203 162.995 49.3997 163.104 49.5408L163.112 49.5556C163.145 49.5996 163.183 49.6437 163.215 49.6939L163.295 49.7964C173.305 63.2019 179.235 79.8354 179.235 97.8505 179.235 120.049 170.233 140.151 155.684 154.697 141.134 169.249 121.032 178.254 98.8358 178.254 80.8204 178.254 64.1871 172.322 50.7814 162.311 50.6991 162.247 50.6168 162.188 50.5345 162.126L50.5226 162.118C50.3666 162 50.1905 161.867 50.0465 161.756L50.0227 161.738C49.9963 161.718 49.9671 161.694 49.9433 161.674L49.9259 161.665C49.7346 161.518 49.5289 161.359 49.3968 161.253L49.3878 161.25C49.373 161.235 49.3585 161.224 49.3437 161.212ZM98.8358 197.851C126.441 197.851 151.447 186.653 169.539 168.558 187.64 150.461 198.835 125.461 198.835 97.8505 198.835 70.2398 187.64 45.2399 169.539 27.1425 151.447 9.04798 126.441-2.14974 98.8358-2.14974 71.2248-2.14974 46.2216 9.04798 28.1268 27.1425 10.0291 45.2399-1.16548 70.2427-1.16548 97.8505-1.16548 125.458 10.0291 150.458 28.1268 168.558 46.2216 186.653 71.2248 197.851 98.8358 197.851" fill="#E32626" fill-rule="evenodd" transform="matrix(1 0 0 -1 955 340)"/></g></svg>