<svg width="201" height="201" xmlns="http://www.w3.org/2000/svg" xmlns:xlink="http://www.w3.org/1999/xlink" xml:space="preserve" overflow="hidden"><g transform="translate(-953 -538)"><path d="M62.1113 26.3104 24.1877 26.3104 18.7931 6.35935C17.3407 0.993547 11.7728-2.19024 6.3576-0.75428 0.942415 0.681678-2.27356 6.20198-0.824387 11.5706L10.7203 54.2549 2.00972 62.8921C1.96857 62.9272 1.9332 62.9647 1.89205 62.9998-1.35353 66.2186-1.35353 71.4388 1.89205 74.6577 4.66443 77.399 8.90367 77.8039 12.1052 75.8637ZM89.4605-0.78933C88.4932-1.19991 87.4497-1.46493 86.3412-1.564 80.7586-2.04754 75.8314 2.05111 75.3434 7.58572L74.7998 13.7351ZM94.2408 24.461 95.5752 9.33927C95.9076 5.55249 94.0848 2.07722 91.1096 0.0990686L74.5587 16.5023 73.6914 26.3104 64.6603 26.3104 24.7082 65.8985 52.4248 65.8985ZM64.0427 65.8985 100.996 103.398 100.996 87.0234 121.475 75.3072C121.531 75.2725 121.587 75.2403 121.646 75.2084L121.716 75.1677 121.716 75.1616C124.777 73.3469 126.826 70.029 126.829 66.2361 126.837 60.483 122.131 55.8164 116.327 55.8107L116.145 55.8107 95.9928 55.8046 95.1871 55.0153 74.0086 75.9949 71.2893 73.2421 92.4328 52.2889 91.8358 51.6974 93.9939 27.231 54.9734 65.8985" fill="#221F20" fill-rule="evenodd" transform="matrix(1 0 0 -1 997 686)"/><path d="M148.33 35.0319 35.4768 147.885C24.7993 134.238 18.4314 117.055 18.4314 98.3872 18.4314 76.1917 27.4306 56.0893 41.98 41.5403 56.5324 26.9884 76.6353 17.9866 98.8372 17.9866 117.5 17.9866 134.683 24.3542 148.33 35.0319M49.3358 161.743 51.0965 159.979C87.5392 123.537 123.982 87.0956 160.428 50.6539L162.192 48.89 162.195 48.8987C162.206 48.9135 162.221 48.9308 162.233 48.9485L162.245 48.9575C162.339 49.081 162.486 49.269 162.647 49.4809L162.659 49.4925C162.674 49.5188 162.691 49.5397 162.709 49.5632L162.733 49.5924C162.859 49.757 162.994 49.9364 163.103 50.0775L163.115 50.0923C163.147 50.1364 163.179 50.1804 163.215 50.2302L163.294 50.3334C173.304 63.7386 179.237 80.3721 179.237 98.3872 179.237 120.588 170.232 140.688 155.683 155.234 141.133 169.786 121.033 178.791 98.8372 178.791 80.8187 178.791 64.1881 172.858 50.7792 162.848 50.6969 162.783 50.6175 162.725 50.532 162.663L50.5233 162.654C50.3645 162.537 50.1883 162.404 50.044 162.293L50.0205 162.275C49.9942 162.254 49.9649 162.231 49.9353 162.21L49.9238 162.201C49.7354 162.054 49.5267 161.896 49.3943 161.79L49.3856 161.787C49.3737 161.772 49.356 161.761 49.3416 161.749ZM98.8372 198.387C126.44 198.387 151.444 187.19 169.541 169.095 187.642 150.998 198.835 125.998 198.835 98.3872 198.835 70.7766 187.642 45.7766 169.541 27.6792 151.444 9.58469 126.44-1.61267 98.8372-1.61267 71.2229-1.61267 46.2194 9.58469 28.1272 27.6792 10.0264 45.7766-1.1655 70.7798-1.1655 98.3872-1.1655 125.995 10.0264 150.998 28.1272 169.095 46.2194 187.19 71.2229 198.387 98.8372 198.387" fill="#E32626" fill-rule="evenodd" transform="matrix(1 0 0 -1 955 737)"/></g></svg>