<svg width="201" height="201" xmlns="http://www.w3.org/2000/svg" xmlns:xlink="http://www.w3.org/1999/xlink" xml:space="preserve" overflow="hidden"><g transform="translate(-1495 -1004)"><path d="M10.9459 9.60973C10.416 10.3724 9.57994 10.9348 8.58161 11.1141 7.57496 11.2908 6.59759 11.0494 5.82914 10.5108 5.06648 9.97769 4.50731 9.14781 4.33056 8.14661 4.15381 7.13998 4.39852 6.16263 4.9313 5.3942 5.46697 4.63155 6.30012 4.06951 7.30098 3.89565 8.3051 3.71601 9.28535 3.9636 10.0509 4.49637 10.8103 5.03204 11.3727 5.86517 11.5491 6.86601 11.7259 7.8701 11.4815 8.84745 10.9459 9.60973M9.41186 15.8747C11.7172 15.4684 13.6456 14.161 14.8965 12.3741 16.145 10.5874 16.7161 8.33203 16.3098 6.02998 15.9036 3.72216 14.5933 1.79963 12.8092 0.54542 11.0254-0.699757 8.76739-1.27084 6.46783-0.867468 4.16285-0.461204 2.23161 0.848673 0.983151 2.63855-0.264945 4.41975-0.83604 6.67769-0.432659 8.97395-0.026386 11.2821 1.28352 13.2104 3.07054 14.4614 4.85467 15.7127 7.10977 16.2809 9.41186 15.8747" fill="#221F20" fill-rule="evenodd" transform="matrix(1 0 0 -1 1542 1163)"/><path d="M54.077 37.7947 26.5739-1.04541-0.586514 18.4252 2.21347 22.3747 25.4411 5.72689 50.6069 41.271ZM68.7211 53.5668 65.0592 53.3096 55.1392 39.2949 51.6723 42.7741 62.4451 57.9929 63.5841 58.0728 64.1887 58.1142ZM76.4135 54.1113 71.1109 53.7386 66.5761 58.286 76.0711 58.9548Z" fill="#221F20" fill-rule="evenodd" transform="matrix(1 0 0 -1 1534 1151)"/><path d="M25.7621 11.7811 31.4025 19.6649 14.3319 31.9188 10.6497 26.823ZM-0.597501 11.2468 16.5717-1.08154 24.6827 10.2679 9.56148 25.3185" fill="#221F20" fill-rule="evenodd" transform="matrix(1 0 0 -1 1558 1118)"/><path d="M-0.552818 16.4789 23.2049-1.04096 37.4477 19.4397 13.6899 36.9592Z" fill="#221F20" fill-rule="evenodd" transform="matrix(1 0 0 -1 1535 1140)"/><path d="M13.1937 16.3747 15.2973 33.0465C15.726 36.4404 13.3086 39.5463 9.92817 39.9485 6.5511 40.3565 3.43377 37.9081 3.00506 34.5174L2.08168 27.1868ZM4.76437-0.963813C8.14774-1.36606 11.2654 1.07951 11.6908 4.47304L12.9069 14.1083 1.79192 24.9204-0.604346 5.94111C-1.03306 2.54722 1.38433-0.561563 4.76437-0.963813" fill="#221F20" fill-rule="evenodd" transform="matrix(1 0 0 -1 1612 1164)"/><path d="M13.9332 13.6341 19.1006 30.9792C20.0773 34.2556 18.3445 37.7287 15.2534 38.6993 12.1599 39.6698 8.8311 37.7847 7.85444 34.5083L4.51719 23.2978ZM3.49164-0.791108C6.58552-1.76167 9.91398 0.123486 10.885 3.39985L13.3515 11.6814 3.93584 21.348-0.355214 6.9286C-1.32906 3.6526 0.400934 0.182341 3.49164-0.791108" fill="#221F20" fill-rule="evenodd" transform="matrix(1 0 0 -1 1616 1136)"/><path d="M3.42766 5.5643 3.61113 4.33216C4.09252 1.08593 7.09677-1.24586 10.3993-1.0343ZM12.5491-0.519498C15.069 0.574372 16.6565 3.21193 16.2369 6.01412L11.9995 34.5685C11.496 37.9587 8.23996 40.3551 4.76996 39.8963 1.29958 39.432-1.13327 36.2825-0.629765 32.8894L2.98976 8.5311" fill="#221F20" fill-rule="evenodd" transform="matrix(1 0 0 -1 1631 1135)"/><path d="M9.44443-1.16723C14.8048-1.16723 19.3414 3.20618 19.3414 8.83125 19.3414 14.4593 14.8048 18.8327 9.44443 18.8327 3.87811 18.8327-0.658871 14.4593-0.658871 8.83125-0.658871 3.20618 3.87811-1.16723 9.44443-1.16723" fill="#221F20" fill-rule="evenodd" transform="matrix(1 0 0 -1 1621 1058)"/><path d="M10.863 55.9093C4.53865 55.9093-0.636842 50.8073-0.636842 44.572L-0.636842 10.2433C-0.636842 4.01091 4.53865-1.09111 10.863-1.09111 17.1873-1.09111 22.3628 4.01091 22.3628 10.2433L22.3628 44.572C22.3628 50.8073 17.1873 55.9093 10.863 55.9093" fill="#221F20" fill-rule="evenodd" transform="matrix(1 0 0 -1 1622 1116)"/><path d="M0.63385 0.679095C2.53039-1.47378 5.89853-1.65175 8.14169 0.248449L25.6634 15.1082C27.9066 17.0084 24.2705 17.149 22.374 19.299 20.4774 21.4459 22.9685 26.4089 20.7221 24.5115L1.24838 8.06174C-0.997635 6.16436-1.25983 2.82598 0.63385 0.679095" fill="#221F20" fill-rule="evenodd" transform="matrix(1 0 0 -1 1604 1096)"/><path d="M148.886 35.5841 36.0327 148.434C25.3551 134.79 18.9873 117.604 18.9873 98.9365 18.9873 76.7411 27.9864 56.6386 42.5359 42.0925 57.0882 27.5406 77.1912 18.5392 99.3931 18.5392 118.056 18.5392 135.239 24.9065 148.886 35.5841M49.8884 162.295 51.6523 160.531C88.1008 124.087 124.538 87.645 160.983 51.2062L162.747 49.4423 162.75 49.4481C162.762 49.4628 162.777 49.4805 162.789 49.5011L162.8 49.5098C162.895 49.6332 163.042 49.8213 163.203 50.0302L163.215 50.0418C163.23 50.0685 163.25 50.0891 163.265 50.1154L163.288 50.1418C163.415 50.3092 163.55 50.4886 163.659 50.6298L163.671 50.6446C163.703 50.6857 163.738 50.7297 163.771 50.7828L163.85 50.8857C173.86 64.288 179.793 80.9243 179.793 98.9365 179.793 121.138 170.788 141.237 156.239 155.783 141.689 170.335 121.589 179.34 99.3931 179.34 81.3746 179.34 64.7436 173.408 51.3347 163.397 51.2524 163.333 51.173 163.277 51.0878 163.212L51.0792 163.206C50.9203 163.086 50.7438 162.951 50.5998 162.845L50.5764 162.824C50.55 162.804 50.5204 162.783 50.497 162.757L50.4793 162.751C50.2912 162.604 50.0826 162.448 49.9501 162.342L49.9415 162.336C49.9295 162.324 49.9119 162.31 49.8974 162.301ZM99.3931 198.937C126.995 198.937 151.999 187.739 170.097 169.645 188.198 151.547 199.39 126.55 199.39 98.9365 199.39 71.3288 188.198 46.3288 170.097 28.2285 151.999 10.134 126.995-1.06368 99.3931-1.06368 71.7788-1.06368 46.7752 10.134 28.6831 28.2285 10.5823 46.3288-0.610002 71.3288-0.610002 98.9365-0.610002 126.544 10.5823 151.547 28.6831 169.645 46.7752 187.739 71.7788 198.937 99.3931 198.937" fill="#E32626" fill-rule="evenodd" transform="matrix(1 0 0 -1 1496 1203)"/></g></svg>