<svg width="201" height="201" xmlns="http://www.w3.org/2000/svg" xmlns:xlink="http://www.w3.org/1999/xlink" xml:space="preserve" overflow="hidden"><g transform="translate(-1245 -597)"><path d="M0.388853 11.4869C-0.106316 10.3604-0.355356 9.1124-0.355356 7.98627-0.355356 6.86299-0.106316 5.61177 0.388853 4.48564 0.887298 3.36236 1.50699 2.23623 2.50024 1.23768 3.36933 0.361004 4.4871-0.387731 5.72975-0.887007 6.84789-1.2644 8.08726-1.51386 9.2054-1.51386 10.3235-1.51386 11.4413-1.2644 12.684-0.887007 13.8021-0.387731 14.9169 0.361004 15.789 1.23768 16.7822 2.23623 17.5264 3.36236 17.8974 4.48564 18.3955 5.61177 18.6445 6.86299 18.6445 7.98627 18.6445 9.1124 18.3955 10.3604 17.8974 11.4869 17.5264 12.7378 16.7822 13.7363 15.789 14.7377 14.9169 15.6112 13.8021 16.3631 12.684 16.8624 11.4413 17.3617 10.3235 17.4864 9.2054 17.4864 8.08726 17.4864 6.84789 17.3617 5.72975 16.8624 4.4871 16.3631 3.36933 15.6112 2.50024 14.7377 1.50699 13.7363 0.887298 12.7378 0.388853 11.4869M3.74289 7.98627C3.74289 8.59566 3.82882 9.29237 4.08696 9.98622 4.34802 10.6826 4.78092 11.2923 5.29684 11.9017 5.81568 12.4242 6.50673 12.7727 7.11186 13.118 7.80582 13.3792 8.49651 13.4665 9.18756 13.4665 9.79268 13.4665 10.4834 13.3792 11.1744 13.118 11.8655 12.7727 12.4702 12.4242 12.9894 11.9017 13.5083 11.2923 13.9412 10.6826 14.1993 9.98622 14.4575 9.29237 14.5463 8.59566 14.5463 7.98627 14.5463 7.37687 14.4575 6.68302 14.1993 5.98632 13.9412 5.28961 13.5083 4.68022 12.9894 4.16063 12.4702 3.55123 11.8655 3.2027 11.1744 2.94148 10.4834 2.59295 9.79268 2.506 9.18756 2.506 8.49651 2.506 7.80582 2.59295 7.11186 2.94148 6.50673 3.2027 5.81568 3.55123 5.29684 4.16063 4.78092 4.68022 4.34802 5.28961 4.08696 5.98632 3.82882 6.68302 3.74289 7.37687 3.74289 7.98627" fill="#2E2A26" fill-rule="evenodd" transform="matrix(1 0 0 -1 1353 764)"/><path d="M-0.305249 8.00496C-0.305249 6.87179-0.0569847 5.61598 0.435915 4.48282 0.932444 3.35252 1.55165 2.219 2.54145 1.2117 3.40711 0.332419 4.52176-0.420993 5.76054-0.926614 6.87519-1.30314 8.11433-1.55452 9.22499-1.55452 10.3393-1.55452 11.455-1.30314 12.6927-0.926614 13.8074-0.420993 14.9216 0.332419 15.7877 1.2117 16.7786 2.219 17.5212 3.35252 17.8928 4.48282 18.3872 5.61598 18.6355 6.87179 18.6355 8.00496 18.6355 9.13848 18.3872 10.3943 17.8928 11.5275 17.5212 12.7836 16.7786 13.7909 15.7877 14.7989 14.9873 15.6108 13.9736 16.3147 12.9446 16.8139L13.5591 19.6999 27.3646 8.2445 27.3773 8.2592 27.6938 8.00496 64.6947 8.00496 64.6947 11.7494 57.3306 11.7494 57.3306 49.7951 62.7674 49.7951C63.8109 49.7951 64.6595 50.6331 64.6595 51.6673 64.6595 52.6983 63.8109 53.5364 62.7674 53.5364L48.1038 53.5364C47.0596 53.5364 46.2106 52.6983 46.2106 51.6673 46.2106 50.6331 47.0596 49.7951 48.1038 49.7951L53.541 49.7951 53.541 36.9261 42.4485 36.9261C40.4461 36.9261 38.82 35.3229 38.82 33.3423L38.82 11.7494 29.0321 11.7494 14.4494 23.8531 22.3217 60.6835 19.7084 61.2268 9.23443 63.4056C8.21124 63.6187 7.20657 62.9703 6.99061 61.9598 6.77465 60.9464 7.43052 59.9534 8.4537 59.7429L17.8304 57.7918 9.2308 17.5648C9.22862 17.5648 9.22862 17.5648 9.22499 17.5648 8.11433 17.5648 6.87519 17.4393 5.76054 16.9369 4.52176 16.4313 3.40711 15.6779 2.54145 14.7989 1.55165 13.7909 0.932444 12.7836 0.435915 11.5275-0.0569847 10.3943-0.305249 9.13848-0.305249 8.00496M44.8539 12.354 48.5492 20.5641 42.1458 23.0176 51.5414 32.6065 48.2479 25.0215 54.4161 22.8688ZM3.78023 8.00496C3.78023 8.61852 3.86589 9.31957 4.1254 10.0174 4.3831 10.7185 4.81503 11.332 5.33225 11.9452 5.84983 12.4681 6.538 12.8184 7.14051 13.1691 7.54594 13.3237 7.95136 13.4173 8.35643 13.4667L7.33034 8.67697C7.11402 7.66644 7.77134 6.67313 8.79452 6.46012 9.81988 6.24676 10.8246 6.8951 11.0383 7.90598L12.0601 12.6839C12.4009 12.4709 12.7138 12.2342 12.998 11.9452 13.5152 11.332 13.9471 10.7185 14.2034 10.0174 14.4647 9.31957 14.55 8.61852 14.55 8.00496 14.55 7.39176 14.4647 6.6907 14.2034 5.99287 13.9471 5.29181 13.5152 4.67861 12.998 4.15255 12.4807 3.54222 11.8779 3.19187 11.1882 2.92902 10.4997 2.57831 9.81045 2.49081 9.20757 2.49081 8.51831 2.49081 7.83014 2.57831 7.14051 2.92902 6.538 3.19187 5.84983 3.54222 5.33225 4.15255 4.81503 4.67861 4.3831 5.29181 4.1254 5.99287 3.86589 6.6907 3.78023 7.39176 3.78023 8.00496" fill="#2E2A26" fill-rule="evenodd" transform="matrix(1 0 0 -1 1286 764)"/><path d="M40.2225 27.1104C39.1161 29.8734 37.7355 32.0826 35.526 34.2949 33.5908 36.2286 31.1038 37.887 28.3397 38.992 25.8527 40.0966 23.0915 40.3749 20.6016 40.3749 18.1147 40.3749 15.6277 40.0966 12.8665 38.992 10.3795 37.887 7.89256 36.2286 5.68017 34.2949 3.74785 32.0826 2.08975 29.8734 1.26088 27.1104 0.154498 24.6229-0.397227 21.8595-0.397227 19.3719-0.397227 16.8873 0.154498 14.1242 1.26088 11.6367 2.08975 9.14881 3.74785 6.66413 5.68017 4.45177 7.89256 2.51814 10.3795 0.85967 12.8665-0.244908 15.6277-1.07432 18.1147-1.62501 20.6016-1.62501 23.0915-1.62501 25.8527-1.07432 28.3397-0.244908 31.1038 0.85967 33.5908 2.51814 35.526 4.45177 37.7355 6.66413 39.1161 9.14881 40.2225 11.6367 41.3289 14.1242 41.6031 16.8873 41.6031 19.3719 41.6031 21.8595 41.3289 24.6229 40.2225 27.1104M36.9066 13.0196C36.0778 10.8073 34.6972 8.87329 33.0391 7.21517 31.381 5.28118 29.1686 4.17661 26.9591 3.34719 25.0239 2.24262 22.814 1.96425 20.6016 1.96425 18.6693 1.96425 16.4566 2.24262 14.2471 3.34719 12.0373 4.17661 10.102 5.28118 8.44429 7.21517 6.78618 8.87329 5.40559 10.8073 4.57672 13.0196 3.74785 15.2288 3.1932 17.4379 3.1932 19.3719 3.1932 21.3088 3.74785 23.5179 4.57672 25.7274 5.40559 27.9394 6.78618 29.8734 8.44429 31.8071 10.102 33.4655 12.0373 34.5705 14.2471 35.675 16.4566 36.5041 18.6693 36.7825 20.6016 36.7825 22.814 36.7825 25.0239 36.5041 26.9591 35.675 29.1686 34.5705 31.381 33.4655 33.0391 31.8071 34.6972 29.8734 36.0778 27.9394 36.9066 25.7274 37.7355 23.5179 38.013 21.3088 38.013 19.3719 38.013 17.4379 37.7355 15.2288 36.9066 13.0196" fill="#2E2A26" fill-rule="evenodd" transform="matrix(1 0 0 -1 1377 691)"/><path d="M34.5159 34.2949C32.642 36.2286 30.2306 37.887 27.5497 38.992 25.138 40.0966 22.4603 40.3749 20.0471 40.3749 17.6357 40.3749 15.2239 40.0966 12.5434 38.992 10.1317 37.887 7.72026 36.2286 5.84283 34.2949 3.70125 32.0854 2.09258 29.8734 1.28843 27.1104 0.216217 24.6229-0.319177 21.8595-0.319177 19.3748-0.319177 16.8844 0.216217 14.1242 1.28843 11.6367 2.09258 9.14881 3.70125 6.66413 5.84283 4.45177 7.72026 2.51814 10.1317 0.85967 12.5434-0.248112 15.2239-1.07432 17.6357-1.62501 20.0471-1.62501 22.4603-1.62501 25.138-1.07432 27.5497-0.248112 30.2306 0.85967 32.642 2.51814 34.5159 4.45177 36.6589 6.66413 38.0034 9.14881 39.0706 11.6367 40.1464 14.1242 40.6811 16.8844 40.6811 19.3748 40.6811 21.8595 40.1464 24.6229 39.0706 27.1104 38.0034 29.8734 36.6589 32.0854 34.5159 34.2949M35.8579 13.0164C35.0538 10.8073 33.7149 8.87329 32.1045 7.21517 30.4994 5.28118 28.3567 4.1734 26.48 3.34719 24.337 2.24262 22.1915 1.9671 20.0471 1.9671 18.1711 1.9671 16.0285 2.24262 13.8823 3.34719 11.7393 4.1734 9.8629 5.28118 8.25565 7.21517 6.64698 8.87329 5.3085 10.8073 4.50434 13.0164 3.70125 15.2288 3.43107 17.4379 3.43107 19.3748 3.43107 21.3059 3.70125 23.5179 4.50434 25.7274 5.3085 27.9394 6.64698 29.8734 8.25565 31.8071 9.8629 33.4655 11.7393 34.5705 13.8823 35.675 16.0285 36.5013 18.1711 36.7825 20.0471 36.7825 22.1915 36.7825 24.337 36.5013 26.48 35.675 28.3567 34.5705 30.4994 33.4655 32.1045 31.8071 33.7149 29.8734 35.0538 27.9394 35.8579 25.7274 36.6589 23.5179 36.9276 21.3059 36.9276 19.3748 36.9276 17.4379 36.6589 15.2288 35.8579 13.0164" fill="#2E2A26" fill-rule="evenodd" transform="matrix(1 0 0 -1 1317 691)"/><path d="M45.4885 25.8947C45.4737 25.9393 45.4473 25.9781 45.4266 26.0198 45.4089 26.0585 45.394 26.1002 45.3734 26.1419L40.3343 37.2062C40.3343 37.2091 40.3343 37.2091 40.3285 37.2124L40.3079 37.2599C40.3079 37.2687 40.3017 37.2778 40.2959 37.2866 40.2753 37.3254 40.2605 37.3612 40.2398 37.3999 40.2282 37.4204 40.2134 37.4416 40.2015 37.4625 40.1808 37.4862 40.1663 37.5129 40.1486 37.5396 40.128 37.5666 40.1131 37.5933 40.0925 37.62 40.0747 37.635 40.0661 37.6529 40.0483 37.6679 40.0248 37.7004 39.998 37.7304 39.9716 37.7571 39.9596 37.7688 39.9509 37.7809 39.939 37.79 39.9068 37.8225 39.8771 37.8492 39.8449 37.8792 39.8329 37.888 39.8242 37.8971 39.8123 37.903 39.7801 37.9329 39.7446 37.9567 39.7062 37.9834 39.6975 37.9892 39.6856 37.9984 39.6707 38.0071 39.6385 38.0309 39.603 38.0518 39.5646 38.0726 39.5498 38.0817 39.5382 38.0876 39.5234 38.0964 39.485 38.1143 39.4495 38.1322 39.4115 38.1501 39.3967 38.1559 39.3847 38.1622 39.3641 38.168 39.3286 38.1859 39.2906 38.198 39.2551 38.2097 39.2374 38.2155 39.2225 38.2214 39.2019 38.2276 39.1635 38.2393 39.1222 38.2484 39.081 38.2572 39.0694 38.2634 39.0545 38.2663 39.0397 38.2693 38.9955 38.278 38.9485 38.2839 38.901 38.2901 38.8924 38.2901 38.8804 38.293 38.8688 38.293 38.8185 38.2989 38.7657 38.2989 38.7182 38.3018 38.7124 38.3018 38.7066 38.3018 38.7008 38.3018L38.6596 38.3018C38.6534 38.3018 38.6476 38.3018 38.6389 38.3018L31.9392 38.3018C30.9603 38.3018 30.17 37.5008 30.17 36.5094 30.17 35.5209 30.9603 34.72 31.9392 34.72L37.5655 34.72 41.0978 26.9578 11.0893 26.9578 9.72988 29.9442 14.0174 29.9442C14.9963 29.9442 15.7866 30.7451 15.7866 31.7336 15.7866 32.725 14.9963 33.526 14.0174 33.526L1.4177 33.526C0.432624 33.526-0.357684 32.725-0.357684 31.7336-0.357684 30.7451 0.432624 29.9442 1.4177 29.9442L5.82287 29.9442 16.5972 6.30242 16.6178 6.31156 19.7939-0.655831C20.0415-1.2009 20.5455-1.58511 21.1352-1.67723 21.221-1.6893 21.3152-1.69807 21.4038-1.69807 21.8991-1.69807 22.3799-1.48677 22.7158-1.10841L45.1848 23.9653C45.6565 24.4921 45.7745 25.2484 45.4885 25.8947M21.9197 4.73047 25.3786 12.588 19.3837 14.9342 28.1799 24.1111 25.0955 16.8549 30.8662 14.7913" fill="#2E2A26" fill-rule="evenodd" transform="matrix(1 0 0 -1 1343 669)"/><path d="M18.3735 98.3872C18.3735 53.1996 55.0216 16.5522 100.208 16.5522 119.506 16.5522 137.265 23.287 151.271 34.4468L36.3124 149.449C25.1051 135.44 18.3735 117.681 18.3735 98.3872M181.998 98.3872C181.998 143.575 145.397 180.175 100.208 180.175 80.868 180.175 63.1533 173.487 49.1476 162.284L164.106 47.3257C175.31 61.3341 181.998 79.0492 181.998 98.3872M99.6645 198.387C154.884 198.387 199.667 153.608 199.667 98.3872 199.667 43.1659 154.884-1.61303 99.6645-1.61303 44.399-1.61303-0.333873 43.1659-0.333873 98.3872-0.333873 153.608 44.399 198.387 99.6645 198.387" fill="#E32626" fill-rule="evenodd" transform="matrix(1 0 0 -1 1246 796)"/><path d="M-0.335603 106.474 108.481-1.60569M14.4345 119.394 122.664 11.894" stroke="#FFFFFF" stroke-width="1.40892" stroke-miterlimit="8" fill="none" fill-rule="evenodd" transform="matrix(1 0 0 -1 1285.5 757.5)"/></g></svg>