<svg width="201" height="201" xmlns="http://www.w3.org/2000/svg" xmlns:xlink="http://www.w3.org/1999/xlink" xml:space="preserve" overflow="hidden"><g transform="translate(-1751 -1004)"><path d="M75.3542 110.346C80.6599 110.346 85.1459 114.632 85.1459 120.141 85.1459 125.649 80.6599 129.932 75.3542 129.932 69.8456 129.932 65.3568 125.649 65.3568 120.141 65.3568 114.632 69.8456 110.346 75.3542 110.346M12.4324 36.2866C11.9945 36.8092 11.3571 37.1649 10.6195 37.2295 9.88226 37.2911 9.18613 37.0502 8.66601 36.6127 8.143 36.1748 7.78772 35.5342 7.7228 34.7998 7.65823 34.0626 7.89917 33.3693 8.33706 32.8434 8.77458 32.3233 9.41517 31.9676 10.1524 31.9031 10.89 31.8356 11.5833 32.0795 12.1092 32.5173 12.6289 32.9549 12.9846 33.5955 13.0491 34.3298 13.1137 35.07 12.8728 35.7636 12.4324 36.2866M10.881 40.2701C12.4558 40.132 13.8308 39.3684 14.7707 38.243 15.7139 37.1176 16.225 35.637 16.0869 34.0683 15.9516 32.4935 15.1848 31.1247 14.0627 30.1786 12.9406 29.2386 11.4599 28.7246 9.88803 28.8624 8.3165 29.0006 6.94153 29.7645 6.00157 30.8895 5.05836 32.012 4.54437 33.4927 4.68215 35.0642 4.81741 36.6332 5.58136 38.0078 6.70636 38.9511 7.83172 39.891 9.31237 40.4083 10.881 40.2701M29.5184 66.8749 35.3854 76.8608 23.1287 84.1612 19.0659 77.325ZM14.2773 69.2606 26.5982 61.91 28.5726 65.2681 18.1198 75.7268ZM-0.887665 56.0873 16.8653 45.511 25.6435 60.4618 7.8934 71.0406ZM29.9209 63.9223 17.8438 43.3194 1.22744 53.1289-0.840775 49.6301 17.5322 38.7837 19.2834 37.7525 32.8851 60.9581ZM42.5477 81.5404 40.9556 81.2851 40.0095 81.135 39.5218 80.3069 30.8641 65.5296 33.8254 62.5654 42.5358 77.4307 46.0937 77.9948ZM84.5497 42.0887 86.2034 54.5302C89.1705 56.5396 91.1125 59.8447 91.1125 63.5641L91.1125 97.0817C91.1125 103.169 85.9037 108.149 79.5436 108.149 74.135 108.149 69.5697 104.555 68.3152 99.7404L48.5583 88.051C46.4637 86.8142 45.5707 84.3109 46.2729 82.1309L44.7483 81.8903 48.291 78.3443 50.1067 78.635 50.08 78.8056C51.2819 78.5791 52.5804 78.779 53.723 79.4549L67.9744 87.9215 67.9744 63.5641C67.9744 60.1505 69.6108 57.0803 72.1754 55.0474L72.1079 54.5302ZM85.0517 11.3356 83.6771 35.549 84.2499 39.8412 71.8053 52.2798 69.9575 38.3988C69.7046 37.6554 69.5903 36.8533 69.6372 36.0309L69.6635 35.5814C69.6667 35.4548 69.6754 35.3315 69.6841 35.2081L70.1955 26.1922ZM78.7533-1.059C82.5958-0.873963 85.569 2.26949 85.3605 5.92405L85.2076 8.63575 70.351 23.4953 71.388 5.25135C71.5936 1.59355 74.9076-1.24404 78.7533-1.059" fill="#221F20" fill-rule="evenodd" transform="matrix(1 0 0 -1 1802 1165)"/><path d="M-0.866601 61.0049 31.18 61.0049 29.253 46.204 58.497 46.204 56.5696 31.4031 85.8165 31.4031 83.8866 16.6022 113.134 16.6022 110.846-0.994972 105.964-0.357743 107.525 11.6501 81.0865 11.6501 81.0865 14.1262 78.6471 14.4435 80.2081 26.451 53.767 26.451 53.767 28.927 51.3244 29.2444 52.8882 41.2519 26.45 41.2519 26.45 43.7279 24.0106 44.0482 25.5744 56.0528-0.866601 56.0528" fill="#221F20" fill-rule="evenodd" transform="matrix(1 0 0 -1 1774 1184)"/><path d="M148.602 35.5841 35.7483 148.434C25.0711 134.79 18.7034 117.604 18.7034 98.9365 18.7034 76.7411 27.7052 56.6386 42.2571 42.0925 56.8061 27.5406 76.9056 18.5392 99.1069 18.5392 117.775 18.5392 134.955 24.9065 148.602 35.5841M49.6065 162.295 51.3704 160.531C87.8153 124.087 124.254 87.645 160.699 51.2062L162.46 49.4423 162.465 49.4481C162.48 49.4628 162.492 49.4805 162.507 49.5011L162.512 49.5098C162.607 49.6332 162.753 49.8213 162.921 50.0302L162.927 50.0418C162.948 50.0685 162.962 50.0891 162.98 50.1154L163.003 50.1418C163.13 50.3092 163.268 50.4886 163.374 50.6298L163.383 50.6446C163.415 50.6857 163.45 50.7297 163.488 50.7828L163.565 50.8857C173.578 64.288 179.505 80.9243 179.505 98.9365 179.505 121.138 170.503 141.237 155.954 155.783 141.408 170.335 121.302 179.34 99.1069 179.34 81.0947 179.34 64.4587 173.408 51.0531 163.397 50.9708 163.333 50.8886 163.277 50.8059 163.212L50.7944 163.206C50.6355 163.086 50.4623 162.951 50.3179 162.845L50.2945 162.824C50.2681 162.804 50.2389 162.783 50.2122 162.757L50.2006 162.751C50.0064 162.604 49.8007 162.448 49.6715 162.342L49.6596 162.336C49.6448 162.324 49.6303 162.31 49.6184 162.301ZM99.1069 198.937C126.715 198.937 151.715 187.739 169.809 169.645 187.909 151.547 199.107 126.55 199.107 98.9365 199.107 71.3288 187.909 46.3288 169.809 28.2285 151.715 10.134 126.715-1.06368 99.1069-1.06368 71.4992-1.06368 46.4934 10.134 28.3989 28.2285 10.3044 46.3288-0.89332 71.3288-0.89332 98.9365-0.89332 126.544 10.3044 151.547 28.3989 169.645 46.4934 187.739 71.4992 198.937 99.1069 198.937" fill="#E32626" fill-rule="evenodd" transform="matrix(1 0 0 -1 1752 1203)"/></g></svg>