<svg width="200" height="200" xmlns="http://www.w3.org/2000/svg" xmlns:xlink="http://www.w3.org/1999/xlink" xml:space="preserve" overflow="hidden"><g transform="translate(-1753 -597)"><path d="M0.500862-1.00822C-0.875109-0.102121-1.26545 1.77851-0.359557 3.15345 0.546331 4.5312 2.42666 4.92003 3.80263 4.01078 5.1786 3.11064 5.56894 1.22966 4.66305-0.147741 3.75681-1.52549 1.87683-1.91432 0.500862-1.00822" fill="#18181C" fill-rule="evenodd" transform="matrix(1 0 0 -1 1833 753)"/><path d="M0.576148-1.00225C-1.02907-0.0964717-1.48444 1.7835-0.427622 3.16076 0.629193 4.53803 2.8228 4.92391 4.42801 4.01813 6.03323 3.11516 6.4886 1.23519 5.43178-0.142076 4.37456-1.51934 2.18136-1.90803 0.576148-1.00225" fill="#18181C" fill-rule="evenodd" transform="matrix(1 0 0 -1 1839 757)"/><path d="M0.486871-0.996875C-0.889099-0.0908802-1.27944 1.78953-0.373548 3.16712 0.53234 4.5419 2.41267 4.93034 3.78864 4.02469 5.16461 3.12151 5.55495 1.24109 4.64906-0.136496 3.74282-1.51408 1.86284-1.90287 0.486871-0.996875" fill="#18181C" fill-rule="evenodd" transform="matrix(1 0 0 -1 1846 761)"/><path d="M0.482589-1.15628C-0.896286-0.0994602-1.2862 2.09439-0.380476 3.7009 0.52805 5.30782 2.4049 5.75805 3.78377 4.70123 5.15635 3.64769 5.54662 1.45384 4.64369-0.152669 3.73796-1.75959 1.85517-2.21309 0.482589-1.15628" fill="#18181C" fill-rule="evenodd" transform="matrix(1 0 0 -1 1853 766)"/><path d="M4.71105-0.260798C10.0708-3.24581 16.7536-1.4827 19.7208 3.90761 22.6912 9.30699 20.6298 15.9366 15.2639 18.922 10.0975 21.8035 3.42078 20.0433 0.453248 14.641-2.51681 9.24161-0.455768 2.61778 4.71105-0.260798" fill="#18181C" fill-rule="evenodd" transform="matrix(1 0 0 -1 1864 647)"/><path d="M91.4746 91.2653C90.0325 94.0585 86.4796 95.1478 83.5863 93.6865L68.6959 86.1793C68.6959 86.1793 55.7708 96.5325 51.7896 99.481 47.365 102.916 39.3493 102.383 38.764 102.342L18.7664 101.159C16.1003 100.86 15.208 100.172 14.0108 99.1065L0.627784 84.4548C-1.55059 82.0595-1.39673 78.3939 0.967803 76.2973 3.32907 74.2008 7.04424 74.438 9.2139 76.8276L20.8976 89.6606 28.7681 90.2113 14.058 63.9705C10.943 58.4017 13.3457 53.0464 18.9083 47.3629L37.1858 29.4115 23.7524 7.9436C21.8904 4.9656 22.7595 1.0684 25.6767-0.711786 28.5968-2.49772 32.5159-1.51991 34.375 1.45485L50.0605 26.5273C51.3255 28.5448 51.7011 32.2252 48.6656 35.5339L35.7731 48.2005C36.4586 49.3451 55.4072 82.1268 55.4072 82.1268L64.0938 75.1876C65.5657 74.0135 67.4338 73.6357 69.1331 74.0135 69.8248 74.0926 70.5106 74.2889 71.1667 74.6138L88.8325 83.5295C91.7319 84.9818 92.9171 88.4689 91.4746 91.2653" fill="#18181C" fill-rule="evenodd" transform="matrix(1 0 0 -1 1817 749)"/><path d="M34.1292 41.5607 29.1658 46.521C29.0555 46.6313 27.0301 48.6538 25.3114 51.4047L0.11502 8.10373C-1.75561 5.07934-0.884012 1.12095 2.05101-0.690464 4.98968-2.50152 8.93323-1.50836 10.8039 1.51347" fill="#18181C" fill-rule="evenodd" transform="matrix(1 0 0 -1 1805 749)"/><path d="M4.71105-0.260798C10.0708-3.24581 16.7536-1.4827 19.7208 3.90761 22.6912 9.30699 20.6298 15.9366 15.2639 18.922 10.0975 21.8035 3.42078 20.0433 0.453248 14.641-2.51681 9.24161-0.455768 2.61778 4.71105-0.260798" fill="#18181C" fill-rule="evenodd" transform="matrix(1 0 0 -1 1864 647)"/><path d="M-0.90483 8.11923 15.2757-1.5832C15.2757-1.5832 20.0221 5.85365 6.67015 15.417 6.67015 15.417 2.09665 9.06158-0.90483 8.11923" fill="#18181C" fill-rule="evenodd" transform="matrix(1 0 0 -1 1844 758)"/><path d="M0.538953-1.00898C-0.836934-0.103143-1.2269 1.77694-0.321064 3.15429 0.58477 4.53163 2.46464 4.91754 3.84052 4.01171 5.21641 3.10868 5.60673 1.22825 4.70089-0.148751 3.79786-1.5261 1.91484-1.91481 0.538953-1.00898" fill="#18181C" fill-rule="evenodd" transform="matrix(1 0 0 -1 1797 752)"/><path d="M0.530303-1.00336C-0.843027-0.0975298-1.23341 1.78255-0.330215 3.15989 0.575777 4.53724 2.45912 4.92315 3.83245 4.01696 5.21138 3.11429 5.59896 1.23386 4.69262-0.143137 3.78663-1.52048 1.90923-1.9092 0.530303-1.00336" fill="#18181C" fill-rule="evenodd" transform="matrix(1 0 0 -1 1804 756)"/><path d="M0.524995-1.16398C-0.850975-0.10723-1.24131 2.08607-0.335074 3.69288 0.570814 5.30297 2.45079 5.74949 3.82677 4.69274 5.20274 3.63968 5.59307 1.44638 4.68718-0.160845 3.7813-1.76725 1.90097-2.22072 0.524995-1.16398" fill="#18181C" fill-rule="evenodd" transform="matrix(1 0 0 -1 1810 761)"/><path d="M0.517969-0.994126C-0.857919-0.0855917-1.24823 1.79146-0.342048 3.17145 0.563785 4.54864 2.44365 4.93415 3.81954 4.02877 5.19543 3.12304 5.58574 1.24599 4.67991-0.131194 3.77407-1.50838 1.89386-1.89705 0.517969-0.994126" fill="#18181C" fill-rule="evenodd" transform="matrix(1 0 0 -1 1817 765)"/><path d="M-0.864962 8.1162 15.3156-1.58459C15.3156-1.58459 20.0619 5.85059 6.71022 15.4156 6.71022 15.4156 2.13645 9.06205-0.864962 8.1162" fill="#18181C" fill-rule="evenodd" transform="matrix(1 0 0 -1 1808 757)"/><path d="M17.7199 97.8857C17.7199 52.9257 54.185 16.4607 99.1441 16.4607 118.346 16.4607 136.014 23.1613 149.951 34.2653L35.5699 148.69C24.4188 134.754 17.7199 117.084 17.7199 97.8857M180.527 97.8857C180.527 142.845 144.109 179.266 99.1441 179.266 79.9013 179.266 62.2771 172.61 48.3396 161.462L162.721 47.081C173.87 61.0177 180.527 78.6428 180.527 97.8857M98.6046 197.386C153.547 197.386 198.107 152.829 198.107 97.8857 198.107 42.9424 153.547-1.61465 98.6046-1.61465 43.6177-1.61465-0.892677 42.9424-0.892677 97.8857-0.892677 152.829 43.6177 197.386 98.6046 197.386" fill="#E32626" fill-rule="evenodd" transform="matrix(1 0 0 -1 1754 795)"/><path d="M70.8255-1.62751-0.894649 70.0914 0.385116 71.3724 72.1052-0.346923Z" fill="#FFFFFF" fill-rule="evenodd" transform="matrix(1 0 0 -1 1820 721)"/><path d="M64.809-1.58252-0.900342 63.1449 0.391043 64.4175 66.1001-0.309982Z" fill="#FFFFFF" fill-rule="evenodd" transform="matrix(1 0 0 -1 1821 743)"/></g></svg>