<svg width="201" height="201" xmlns="http://www.w3.org/2000/svg" xmlns:xlink="http://www.w3.org/1999/xlink" xml:space="preserve" overflow="hidden"><g transform="translate(-1998 -1004)"><path d="M46.5137 90.376 51.2165 89.6335 59.4288 93.6348C62.0385 98.2001 67.3234 101.106 73.0872 100.604 80.8642 99.923 86.6958 93.2855 86.0491 85.8521L83.2304 53.7025ZM54.5906 52.0849 56.7688 76.9892C55.4401 76.0467 53.7765 75.5593 52.0397 75.7208 51.4103 75.7295 50.7904 75.8264 50.1967 75.9969L28.42 79.4406C27.8173 79.5372 27.2385 79.7048 26.7033 79.9394L23.0561 83.5799C22.5682 84.7102 22.3859 85.9754 22.5887 87.2614 23.1766 90.9661 26.7621 93.5029 30.5566 92.9009L43.4836 90.8547 83.0218 51.3629 82.4603 44.9366C81.993 39.5552 78.2515 35.178 73.2752 33.4255ZM78.3453 25.8159 48.5184 25.8159 52.0278-1.06402-1.18075-1.06402-1.18075 5.28912 19.0793 5.28912C18.8116 5.35364 18.5384 5.43293 18.271 5.52989 14.4588 6.91255 12.513 11.2634 13.9442 15.1915L26.0011 48.2804 26.0538 48.4329C27.0916 51.9998 30.8038 54.2958 34.6572 53.6175L53.9028 50.2268 71.2706 32.8766C69.9422 32.6153 68.5579 32.5327 67.1354 32.6564 65.6335 32.7854 64.199 33.1404 62.8732 33.6836L37.9782 38.0669 27.8058 10.1536C26.8827 7.61433 24.7637 5.84997 22.3534 5.28912L44.8004 5.28912 41.2909 32.1687 71.9851 32.1687ZM100.824 33.5838 101.838 25.8159 80.8909 25.8159 74.5303 32.1687 94.6167 32.1687 93.4706 40.9263ZM138.82 51.7504 98.4524 51.7504 100.443 36.5109 93.0943 43.8531 91.2308 58.1035 138.82 58.1035ZM71.359 103.305C63.6083 103.981 57.5974 110.803 58.3057 118.844 59.0084 126.879 66.1066 132.557 73.8572 131.882 81.9049 131.177 87.9126 124.352 87.21 116.317 86.5077 108.278 79.4005 102.601 71.359 103.305" fill="#221F20" fill-rule="evenodd" transform="matrix(1 0 0 -1 2042 1168)"/><path d="M148.329 35.5841 35.4749 148.434C24.7975 134.79 18.4297 117.604 18.4297 98.9365 18.4297 76.7411 27.4313 56.6386 41.9805 42.0925 56.533 27.5406 76.6324 18.5392 98.8344 18.5392 117.499 18.5392 134.686 24.9065 148.329 35.5841M49.3333 162.295 51.0972 160.531C87.5423 124.087 123.982 87.645 160.427 51.2062L162.188 49.4423 162.193 49.4481C162.205 49.4628 162.22 49.4805 162.232 49.5011L162.241 49.5098C162.338 49.6332 162.482 49.8213 162.646 50.0302L162.655 50.0418C162.673 50.0685 162.691 50.0891 162.708 50.1154L162.732 50.1418C162.858 50.3092 162.993 50.4886 163.102 50.6298L163.108 50.6446C163.143 50.6857 163.181 50.7297 163.214 50.7828L163.293 50.8857C173.303 64.288 179.233 80.9243 179.233 98.9365 179.233 121.138 170.231 141.237 155.682 155.783 141.133 170.335 121.03 179.34 98.8344 179.34 80.819 179.34 64.1853 173.408 50.7796 163.397 50.6973 163.333 50.615 163.277 50.5327 163.212L50.5208 163.206C50.3623 163.086 50.1887 162.951 50.0447 162.845L50.0212 162.824C49.9945 162.804 49.9653 162.783 49.936 162.757L49.9241 162.751C49.7332 162.604 49.5271 162.448 49.395 162.342L49.3863 162.336C49.3715 162.324 49.3567 162.31 49.3419 162.301ZM98.8344 198.937C126.439 198.937 151.442 187.739 169.537 169.645 187.638 151.547 198.833 126.55 198.833 98.9365 198.833 71.3288 187.638 46.3288 169.537 28.2285 151.442 10.134 126.439-1.06368 98.8344-1.06368 71.2234-1.06368 46.2198 10.134 28.1254 28.2285 10.0277 46.3288-1.16729 71.3288-1.16729 98.9365-1.16729 126.544 10.0277 151.547 28.1254 169.645 46.2198 187.739 71.2234 198.937 98.8344 198.937" fill="#E32626" fill-rule="evenodd" transform="matrix(1 0 0 -1 2000 1203)"/></g></svg>