<svg width="201" height="201" xmlns="http://www.w3.org/2000/svg" xmlns:xlink="http://www.w3.org/1999/xlink" xml:space="preserve" overflow="hidden"><g transform="translate(-1496 -597)"><path d="M64.6419 118.292C62.0643 119.712 60.2702 122.066 59.499 124.728 58.7453 127.337 58.9786 130.247 60.4298 132.859L60.4327 132.862C61.9017 135.501 64.287 137.252 66.9412 137.99 69.5957 138.727 72.5247 138.454 75.0783 137.05L75.0812 137.05 75.0845 137.05C77.7474 135.583 79.5887 133.212 80.39 130.552 81.1818 127.919 80.9543 124.995 79.4914 122.371 78.0312 119.75 75.6608 118.004 72.9946 117.27 70.3048 116.535 67.3048 116.829 64.6448 118.292ZM61.9816 41.9176 48.0454 19.4987 48.0425 19.4929C47.1262 18.0205 45.7077 17.0421 44.1556 16.6513 42.6039 16.2635 40.9164 16.4633 39.4797 17.3448 38.0372 18.2323 37.1035 19.6398 36.7606 21.1944 36.4176 22.7487 36.663 24.4535 37.5793 25.9284L50.6673 46.9835 32.8649 64.5859C30.0275 66.4757 28.0679 69.2116 27.2136 72.1647 26.7644 73.7132 26.6167 75.3209 26.8028 76.8958ZM31.5349 102.444 23.4776 93.5374 23.4715 93.5316 23.4715 93.5287C22.4017 92.35 20.9592 91.7006 19.4815 91.6035 18.0125 91.5126 16.5199 91.974 15.3554 93.0084L15.3492 93.0142 15.3434 93.0171 15.3434 93.0203C14.1818 94.0605 13.5642 95.4885 13.5021 96.9519 13.443 98.4153 13.9394 99.9169 15.0096 101.104L15.0096 101.107 15.0125 101.11 23.4715 110.461ZM56.6968 77.4247 51.5067 68.1065 51.5096 68.1065C51.2287 67.601 50.9126 67.1219 50.5577 66.6756 50.2148 66.2347 49.8454 65.8263 49.4407 65.4471L61.9845 53.0459C62.3601 52.6758 62.6881 52.2673 62.945 51.8384 63.2201 51.3975 63.4299 50.9274 63.5895 50.4482 64.1067 49.4845 64.3552 48.3794 64.3168 47.2689 64.2812 46.1934 63.9648 45.1088 63.3562 44.1271L62.9628 43.4925 27.2608 78.9913C27.4767 79.6699 27.7605 80.3313 28.1208 80.9717L37.0295 96.9815ZM63.489 117.055C64.287 116.614 65.0262 116.112 65.6968 115.559 66.3856 114.992 67.0152 114.372 67.5708 113.711 67.8339 113.605 68.0912 113.476 68.3452 113.326 68.5934 113.179 68.842 113.014 69.0725 112.826L81.504 102.832 96.0077 110.19 96.0139 110.193C97.4383 110.916 99.0197 111.004 100.43 110.57 101.834 110.138 103.063 109.174 103.773 107.796L103.778 107.787 103.778 107.784 103.781 107.781C104.491 106.397 104.553 104.839 104.083 103.447 103.613 102.056 102.611 100.831 101.18 100.111L101.18 100.108 83.9369 91.3538C83.6204 91.1922 83.2895 91.063 82.9614 90.9631 82.6214 90.8632 82.2756 90.7928 81.9326 90.7513 81.0816 90.5633 80.1828 90.5662 79.3169 90.769 78.4833 90.966 77.6766 91.3481 76.9701 91.921L68.5405 98.6945 57.6102 79.0645 37.9429 98.6213 42.4206 106.658 34.8659 106.126 32.7495 103.787 24.6864 111.801 27.9583 115.418C28.5908 116.12 29.3623 116.632 30.1901 116.958 31.0443 117.29 31.9635 117.419 32.8649 117.337L32.9596 117.346 32.9655 117.346 52.2782 118.698C52.5587 118.721 52.8396 118.718 53.1147 118.698 53.3981 118.68 53.6731 118.639 53.9362 118.583 55.5028 118.895 57.1522 118.933 58.8012 118.668 60.3914 118.413 61.9816 117.881 63.4861 117.055ZM67.7276-1.61238C65.5963-1.61238 63.8439 0.130246 63.8439 2.2463 63.8439 4.3591 65.5963 6.10462 67.7276 6.10462 69.8556 6.10462 71.6054 4.3591 71.6054 2.2463 71.6054 0.130246 69.8556-1.61238 67.7276-1.61238M11.5483 12.6342 78.643 12.6342 79.0182 13.2808 79.9081 15.0938 82.7633 13.6362 79.3554 7.20936 11.5483 7.20936ZM22.8361-1.61238C20.711-1.61238 18.9582 0.130246 18.9582 2.2463 18.9582 4.3591 20.711 6.1075 22.8361 6.1075 24.9644 6.1075 26.723 4.3591 26.723 2.2463 26.723 0.130246 24.9644-1.61238 22.8361-1.61238M1.85655 12.3373 1.85655 12.3373 1.84748 12.3402 1.84748 12.3434C0.384665 13.1808-0.443091 14.8203-0.590788 16.7805-0.738485 18.7349-0.215558 21.0151 1.01719 23.1485L1.0288 23.169 21.7456 59.0055C23.2294 61.5682 24.4854 63.3606 25.5494 64.4448 26.6283 65.5442 27.5181 65.9291 28.254 65.6762L28.254 65.6791C28.7476 65.5088 30.5268 63.9072 32.1555 62.2617 33.6571 60.7481 35.0372 59.1877 35.194 58.6707 35.4157 57.9036 34.3873 56.205 33.2877 54.3859 32.9919 53.8952 32.6875 53.393 32.407 52.911L11.6902 17.0745 11.6873 17.0687C10.4516 14.9321 8.72864 13.3306 6.95228 12.4726 5.17266 11.6146 3.32554 11.497 1.85946 12.3344" fill="#221F20" fill-rule="evenodd" transform="matrix(1 0 0 -1 1545 766)"/><path d="M148.885 35.0342 36.0333 147.885C25.3526 134.239 18.9852 117.053 18.9852 98.3858 18.9852 76.1906 27.9868 56.0917 42.536 41.5429 57.0885 26.9909 77.1879 17.9896 99.3895 17.9896 118.055 17.9896 135.238 24.3571 148.885 35.0342M49.8888 161.743 51.6527 159.98C88.0978 123.538 124.537 87.0944 160.982 50.6561L162.743 48.8922 162.749 48.898C162.761 48.9157 162.775 48.9305 162.787 48.9511L162.796 48.9597C162.893 49.0832 163.037 49.2716 163.202 49.4831L163.211 49.4921C163.228 49.5184 163.246 49.539 163.264 49.5654L163.287 49.5917C163.413 49.7592 163.549 49.9389 163.657 50.0797L163.666 50.0945C163.699 50.1385 163.737 50.1797 163.769 50.2327L163.848 50.3356C173.859 63.741 179.788 80.3738 179.788 98.3858 179.788 120.587 170.786 140.689 156.237 155.235 141.688 169.786 121.585 178.788 99.3895 178.788 81.3745 178.788 64.7408 172.859 51.3351 162.846 51.2528 162.784 51.1705 162.725 51.0882 162.663L51.0763 162.655C50.9207 162.537 50.7442 162.399 50.6002 162.293L50.5767 162.275C50.55 162.252 50.5208 162.231 50.4944 162.205L50.4796 162.202C50.2883 162.055 50.0826 161.896 49.9505 161.79L49.9415 161.787C49.927 161.773 49.9122 161.761 49.8974 161.749ZM99.3895 198.387C126.995 198.387 151.998 187.19 170.093 169.093 188.193 150.999 199.388 125.999 199.388 98.3858 199.388 70.7784 188.193 45.7788 170.093 27.6821 151.998 9.58491 126.995-1.61301 99.3895-1.61301 71.7788-1.61301 46.7753 9.58491 28.6805 27.6821 10.5828 45.7788-0.611798 70.7784-0.611798 98.3858-0.611798 125.996 10.5828 150.996 28.6805 169.093 46.7753 187.19 71.7788 198.387 99.3895 198.387" fill="#E32626" fill-rule="evenodd" transform="matrix(1 0 0 -1 1497 796)"/></g></svg>