<svg width="201" height="201" xmlns="http://www.w3.org/2000/svg" xmlns:xlink="http://www.w3.org/1999/xlink" xml:space="preserve" overflow="hidden"><g transform="translate(-202 -142)"><path d="M-0.40423-2.15736 6.59564-2.15736 6.59564 16.8425-0.40423 16.8425Z" fill="#221F20" fill-rule="evenodd" transform="matrix(1 0 0 -1 354 266)"/><path d="M-0.356624-2.15736 5.64321-2.15736 5.64321 16.8425-0.356624 16.8425Z" fill="#221F20" fill-rule="evenodd" transform="matrix(1 0 0 -1 365 266)"/><path d="M51.3128 21.7586 32.5221 21.7586C27.8267 21.7586 24.0662 25.5379 24.0662 30.1359 24.0662 31.32 24.3008 32.2625 24.6524 33.3232L24.7697 33.444C26.5312 38.5191 23.7146 40.6431 19.957 40.6431L18.4297 40.6431C11.7353 40.6431 6.33349 46.0719 6.33349 52.7997 6.33349 59.5276 11.7353 64.9564 18.4297 64.9564L18.4297 71.8018C7.97804 71.8018-0.360937 63.304-0.360937 52.7997-0.360937 42.6492 7.6261 34.2686 17.7233 33.9152 17.4919 32.7369 17.2544 31.4379 17.2544 30.1359 17.2544 21.7586 24.0662 14.9128 32.5221 14.9128L51.0753 14.9128C55.4249 14.9128 58.8277 11.3722 58.8277 7.12459L58.8277-2.19814 65.6394-2.19814 65.6394 7.36039C65.6394 15.2694 59.1796 21.7586 51.3128 21.7586" fill="#221F20" fill-rule="evenodd" transform="matrix(1 0 0 -1 295 244)"/><path d="M24.4478 36.3422 18.1525 36.3422C19.5518 39.0415 20.2501 42.0957 20.2501 45.0297 20.2501 56.5399 11.0429 65.8168-0.377872 65.8168L-0.377872 59.0049C7.31065 59.0049 13.6059 52.7822 13.6059 45.0297L13.4923 45.0297C13.4923 42.9165 13.0269 40.9233 11.9769 38.9213L11.2787 37.7489C9.29465 34.3432 9.76003 30.8201 15.0052 29.7617 16.2878 29.5275 18.6179 29.5275 18.6179 29.5275L22.8127 29.5275C34.0038 29.5275 42.981 20.3679 42.981 9.21537L42.981-2.18365 49.6223-2.18365 49.6223 10.8538C49.6223 24.9489 38.3179 36.3422 24.4478 36.3422" fill="#221F20" fill-rule="evenodd" transform="matrix(1 0 0 -1 321 244)"/><path d="M91.7983 16.8422 115.666 16.8422 115.666-2.15769 110.502-2.15769ZM61.5675 16.8422 89.2525 16.8422 107.959-2.15769 80.2738-2.15769ZM-0.333815 16.8422 59.0246 16.8422 77.7308-2.15769-0.333815-2.15769Z" fill="#221F20" fill-rule="evenodd" transform="matrix(1 0 0 -1 245 266)"/><path d="M149.163 34.4948 36.3103 147.348C25.6304 133.701 19.2631 116.518 19.2631 97.8505 19.2631 75.655 28.2649 55.5526 42.8134 41.0036 57.3658 26.4517 77.4656 17.4499 99.6674 17.4499 118.332 17.4499 135.516 23.8175 149.163 34.4948M50.1665 161.206 51.9304 159.442C88.375 123.001 124.815 86.5589 161.26 50.1172L163.021 48.3533 163.027 48.3591C163.038 48.3768 163.053 48.3941 163.065 48.4118L163.074 48.4208C163.171 48.5443 163.315 48.7323 163.479 48.9438L163.488 48.9557C163.506 48.9821 163.523 49.003 163.541 49.0265L163.564 49.0557C163.691 49.2203 163.826 49.3997 163.935 49.5408L163.944 49.5556C163.976 49.5996 164.015 49.6437 164.047 49.6939L164.126 49.7964C174.136 63.2019 180.066 79.8354 180.066 97.8505 180.066 120.049 171.064 140.151 156.515 154.697 141.966 169.249 121.863 178.254 99.6674 178.254 81.6514 178.254 65.0185 172.322 51.6124 162.311 51.5294 162.247 51.4482 162.188 51.3655 162.126L51.354 162.118C51.1981 162 51.0223 161.867 50.8776 161.756L50.8545 161.738C50.8281 161.718 50.7981 161.694 50.7718 161.674L50.757 161.665C50.5661 161.518 50.3607 161.359 50.2275 161.253L50.2192 161.25C50.2048 161.235 50.1896 161.224 50.1744 161.212ZM99.6674 197.851C127.273 197.851 152.276 186.653 170.37 168.558 188.471 150.461 199.666 125.461 199.666 97.8505 199.666 70.2398 188.471 45.2399 170.37 27.1425 152.276 9.04798 127.273-2.14974 99.6674-2.14974 72.0558-2.14974 47.0534 9.04798 28.9583 27.1425 10.8604 45.2399-0.334232 70.2427-0.334232 97.8505-0.334232 125.458 10.8604 150.458 28.9583 168.558 47.0534 186.653 72.0558 197.851 99.6674 197.851" fill="#E32626" fill-rule="evenodd" transform="matrix(1 0 0 -1 203 340)"/></g></svg>