<svg width="201" height="201" xmlns="http://www.w3.org/2000/svg" xmlns:xlink="http://www.w3.org/1999/xlink" xml:space="preserve" overflow="hidden"><g transform="translate(-1245 -1421)"><path d="M46.7183 22.8934 42.1287 30.5111 39.374 22.8934ZM61.8856 31.3246 61.6982 31.2922C59.9877 30.9927 58.3469 30.3176 56.9029 29.3369L56.809 29.2753 47.4689 45.7763 42.3689 50.887C40.7922 51.3245 39.0697 51.1807 37.6235 50.3056L37.5297 50.2501C36.3658 49.5192 35.5842 48.377 35.1678 47.0853 35.025 46.8416 34.9012 46.5951 34.7995 46.3338L25.8647 21.1114 4.02246 13.2061C0.604232 12.0643-1.12718 8.63848 0.00899155 5.21272 1.14876 2.33587 4.57059 0.641903 7.98953 1.78695L33.3986 10.9635 33.4137 10.9635C33.6219 10.943 33.8291 10.9311 34.0406 10.9282L34.0668 10.9282 34.0783 10.9253 34.2078 10.9253 54.4287 10.9253 54.541 10.8107C54.7607 10.5757 54.9859 10.3559 55.2265 10.1414L55.3466 10.0358 55.4462 9.95076 55.4689 9.93022C56.0843 9.40761 56.7389 8.95241 57.4449 8.55631L57.5826 8.4799 57.638 8.44746 57.729 8.40061C57.8578 8.33321 57.9898 8.2687 58.1214 8.20094L58.1624 8.18039C58.435 8.05136 58.7163 7.9281 58.9943 7.81926L59.0619 7.79295C59.214 7.73131 59.3723 7.67545 59.5277 7.62283L59.5658 7.60805C59.7589 7.54065 59.9582 7.47902 60.1546 7.42027L60.1661 7.42027C60.3477 7.36729 60.5326 7.31755 60.72 7.27322L60.7405 7.26746C61.7511 7.02381 62.797 6.90632 63.8425 6.90055L86.2585 6.90055ZM91.8919 31.4857 64.2673 31.4857 88.7952 6.90055 100.905 6.90055C104.934 6.90055 108.733 9.04936 110.924 12.4106ZM112.854 18.9158C112.854 25.7734 107.151 31.4857 100.905 31.4857L94.4286 31.4857 111.824 14.0516C112.483 15.5282 112.854 17.1692 112.854 18.9158M126.345-0.497016 139.661-0.497016 139.661 4.61947 121.238 4.61947ZM96.1862-0.497016 123.808-0.497016 118.696 4.61947 91.0772 4.61947ZM20.5299 4.61947 20.5299-0.497016 93.6495-0.497016 88.5405 4.61947ZM117.864 41.1734 117.864 41.9511 124.575 52.5809 117.975 52.5809 117.975 54.715 128.462 54.715 128.462 53.9401 121.73 43.3074 128.703 43.3074 128.703 41.1734ZM97.6216 58.0676 97.6216 58.8396 104.333 69.4719 97.7299 69.4719 97.7299 71.6092 108.22 71.6092 108.22 70.8343 101.491 60.2016 108.46 60.2016 108.46 58.0676ZM77.5493 74.9585 77.5493 75.7367 84.2606 86.3661 77.6636 86.3661 77.6636 88.5034 88.1539 88.5034 88.1539 87.7252 81.4192 77.0958 88.388 77.0958 88.388 74.9585ZM114.574 17.1807C114.574 11.4714 119.132 6.90055 124.833 6.90055 131.119 6.90055 135.684 11.4714 135.684 17.1807 135.684 23.4866 131.119 28.0599 124.833 28.0599 119.132 28.0599 114.574 22.8934 114.574 17.1807" fill="#221F20" fill-rule="evenodd" transform="matrix(1 0 0 -1 1281 1566)"/><path d="M149.162 36.1461 36.3076 148.996C25.6302 135.353 19.2624 118.169 19.2624 99.5018 19.2624 77.3063 28.2643 57.201 42.8132 42.6549 57.3653 28.1029 77.4655 19.1012 99.6642 19.1012 118.332 19.1012 135.516 25.4688 149.162 36.1461M50.1663 162.857 51.9302 161.093C88.375 124.652 124.814 88.2098 161.259 51.7682L163.02 50.0043 163.027 50.01C163.038 50.0248 163.053 50.0454 163.064 50.0631L163.073 50.0718C163.167 50.1923 163.315 50.3836 163.479 50.5951L163.488 50.607C163.506 50.6305 163.523 50.6539 163.541 50.6774L163.564 50.7041C163.691 50.8716 163.826 51.0481 163.935 51.1921L163.944 51.2065C163.976 51.2477 164.014 51.295 164.047 51.3419L164.126 51.4476C174.136 64.8532 180.066 81.4867 180.066 99.5018 180.066 121.7 171.064 141.803 156.515 156.345 141.966 170.898 121.863 179.905 99.6642 179.905 81.6513 179.905 65.018 173.973 51.6123 163.959 51.5296 163.898 51.4477 163.836 51.365 163.777L51.3538 163.768C51.1954 163.648 51.0207 163.516 50.877 163.407L50.8543 163.389C50.8279 163.369 50.7976 163.345 50.768 163.322L50.7565 163.316C50.5659 163.169 50.3591 163.007 50.2273 162.904L50.2194 162.901C50.2042 162.887 50.1891 162.875 50.1743 162.86ZM99.6642 199.502C127.272 199.502 152.276 188.304 170.37 170.21 188.471 152.109 199.665 127.112 199.665 99.5018 199.665 71.8911 188.471 46.8912 170.37 28.7938 152.276 10.6993 127.272-0.498454 99.6642-0.498454 72.0553-0.498454 47.0517 10.6993 28.9581 28.7938 10.8597 46.8912-0.334594 71.894-0.334594 99.5018-0.334594 127.109 10.8597 152.109 28.9581 170.21 47.0517 188.304 72.0553 199.502 99.6642 199.502" fill="#E32626" fill-rule="evenodd" transform="matrix(1 0 0 -1 1246 1621)"/></g></svg>