<svg width="200" height="200" xmlns="http://www.w3.org/2000/svg" xmlns:xlink="http://www.w3.org/1999/xlink" xml:space="preserve" overflow="hidden"><g transform="translate(-1998 -597)"><path d="M3.19747-1.46793C0.730402-1.46793-1.3025 0.339717-1.3025 2.53342-1.3025 4.72433 0.730402 6.53198 3.19747 6.53198 5.66454 6.53198 7.69744 4.72433 7.69744 2.53342 7.69744 0.339717 5.66454-1.46793 3.19747-1.46793" fill="#18181C" fill-rule="evenodd" transform="matrix(1 0 0 -1 2125 768)"/><path d="M-1.17379-1.57736 56.826-1.57736 56.826 4.42248-1.17379 4.42248Z" fill="#18181C" fill-rule="evenodd" transform="matrix(1 0 0 -1 2062 759)"/><path d="M3.2633-1.46793C0.796232-1.46793-1.23667 0.339717-1.23667 2.53342-1.23667 4.72433 0.796232 6.53198 3.2633 6.53198 5.73037 6.53198 7.76327 4.72433 7.76327 2.53342 7.76327 0.339717 5.73037-1.46793 3.2633-1.46793" fill="#18181C" fill-rule="evenodd" transform="matrix(1 0 0 -1 2070 768)"/><path d="M32.8795 45.128 27.7742 49.7887C27.6602 49.8919 25.5777 51.7914 23.7588 54.4263L-0.311419 7.76419C-2.00157 4.68812-0.95871 0.821369 2.01128-0.825701 4.97839-2.4753 8.79776-1.3048 10.4876 1.77091" fill="#18181C" fill-rule="evenodd" transform="matrix(1 0 0 -1 2045 753)"/><path d="M-1.01199-1.57767 1.98775-1.57767 1.98775 82.4222-1.01199 82.4222Z" fill="#18181C" fill-rule="evenodd" transform="matrix(1 0 0 -1 2128 759)"/><path d="M4.91712-0.522217C10.415-3.23942 17.0009-1.15237 19.7057 4.38234 22.4046 9.92358 20.0262 16.4442 14.5254 19.1672 9.22746 21.7929 2.64735 19.7029-0.0545064 14.162-2.75925 8.62113-0.380823 2.1005 4.91712-0.522217" fill="#18181C" fill-rule="evenodd" transform="matrix(1 0 0 -1 2099 646)"/><path d="M31.4969 103.224C27.7111 105.682 23.255 103.935 21.3255 100.871L-0.029252 63.4526C-2.8472 57.7159-0.205848 52.4619 5.59183 47.0338L24.5843 29.9063 12.3187 7.72441C10.6217 4.64865 11.6687 0.782296 14.6484-0.864244 17.631-2.51367 21.4667-1.34366 23.1636 1.7321L37.4856 27.6334C38.6358 29.7211 38.8297 33.429 35.6647 36.6015L22.2608 48.6836C22.8845 49.8655 40.0623 83.6617 40.0623 83.6617L49.0102 77.1195C49.0542 77.087 49.1069 77.0722 49.1514 77.0401L52.8368 88.5103C50.9043 89.8601 35.3765 100.707 31.4969 103.224" fill="#18181C" fill-rule="evenodd" transform="matrix(1 0 0 -1 2069 749)"/><path d="M-1.22134-1.7339 18.8058-1.72747C22.0888-1.7339 24.7733 0.97038 24.7762 4.27557 24.7762 7.57433 22.0859 10.2695 18.8058 10.2665L-1.22428 10.2665" fill="#18181C" fill-rule="evenodd" transform="matrix(1 0 0 -1 2119 671)"/><path d="M8.80765 12.474-1.19231 2.5656 2.93721-1.52646 8.80765 4.29631Z" fill="#18181C" fill-rule="evenodd" transform="matrix(1 0 0 -1 2116 759)"/><path d="M17.4462 97.8857C17.4462 52.9257 53.9117 16.4607 98.872 16.4607 118.071 16.4607 135.741 23.1613 149.677 34.2653L35.295 148.69C24.1468 134.754 17.4462 117.084 17.4462 97.8857M180.254 97.8857C180.254 142.845 143.836 179.266 98.872 179.266 79.6259 179.266 62.0006 172.61 48.0669 161.462L162.449 47.081C173.597 61.0177 180.254 78.6428 180.254 97.8857M98.3339 197.386C153.275 197.386 197.832 152.829 197.832 97.8857 197.832 42.9424 153.275-1.61465 98.3339-1.61465 43.3428-1.61465-1.16758 42.9424-1.16758 97.8857-1.16758 152.829 43.3428 197.386 98.3339 197.386" fill="#E32626" fill-rule="evenodd" transform="matrix(1 0 0 -1 2000 795)"/><path d="M70.5552-1.634-1.16447 70.0853 0.116122 71.3659 71.8358-0.353054Z" fill="#FFFFFF" fill-rule="evenodd" transform="matrix(1 0 0 -1 2062 716)"/><path d="M70.5663-1.60789-1.15994 71.1009 0.114093 72.3924 71.8403-0.316415Z" fill="#FFFFFF" fill-rule="evenodd" transform="matrix(1 0 0 -1 2063 746)"/></g></svg>