<svg width="201" height="201" xmlns="http://www.w3.org/2000/svg" xmlns:xlink="http://www.w3.org/1999/xlink" xml:space="preserve" overflow="hidden"><g transform="translate(-708 -945)"><path d="M56.0459-0.115657 56.0459-1.08091 19.9119-1.08091 19.9119 36.1329ZM78.1297 7.94898 78.1297 3.74642C78.1297 1.08775 75.9675-1.08091 73.314-1.08091L60.8878-1.08091 60.8878 25.2424ZM37.0162 51.7275 73.314 51.7275C75.9675 51.7275 78.1297 49.5588 78.1297 46.9002L78.1297 10.4902 60.8878 27.7869 60.8878 51.7275 56.0459 51.7275 56.0459 32.6437ZM29.5523 51.7275 34.4797 51.7275 56.0459 30.0993 56.0459 2.43168 19.9119 38.6773 19.9119 51.7275ZM29.5523 56.6723 29.5523 53.1741 25.3071 53.1741 25.3071 57.3003C25.3071 58.3099 25.6437 59.2549 26.2141 60.0177ZM46.4957 53.1741 46.4957 57.3003C46.4957 57.4646 46.4314 57.6116 46.338 57.7053 46.2647 57.7816 46.1594 57.8285 46.0513 57.8285L30.9364 57.8285 27.5454 61.2326C28.2563 61.67 29.0961 61.9194 29.9942 61.9194L46.0513 61.9194C47.356 61.9194 48.5382 61.3883 49.3953 60.5315 50.2262 59.6977 50.7413 58.5534 50.7413 57.3003L50.7413 53.1741ZM15.0668 43.5342 15.0668 51.7275 6.89811 51.7275ZM3.94567-1.08091 15.0668-1.08091 15.0668 40.9869 4.36417 51.7275 3.94567 51.7275C1.29211 51.7275-0.870031 49.5588-0.870031 46.9002L-0.870031 3.74642C-0.870031 1.08775 1.29211-1.08091 3.94567-1.08091" fill="#221F20" fill-rule="evenodd" transform="matrix(1 0 0 -1 752 1061)"/><path d="M19.2778 5.69534C17.6843 1.74894 13.955-1.01865 9.60577-1.01865 3.80928-1.01865-0.894033 3.90636-0.894033 9.9797-0.894033 14.5366 1.7502 18.4441 5.51671 20.1137L9.95147 15.4701C9.83717 15.4763 9.72007 15.4822 9.60577 15.4822 6.7077 15.4822 4.35727 13.0169 4.35727 9.9797 4.35727 6.94615 6.7077 4.48052 9.60577 4.48052 12.5045 4.48052 14.8574 6.94615 14.8574 9.9797 14.8574 10.1028 14.8518 10.2221 14.8459 10.3419ZM9.60577 20.9813C15.4058 20.9813 20.1059 16.0567 20.1059 9.9797 20.1059 9.18696 20.0232 8.41223 19.8721 7.67019L7.39874 20.7393C8.10976 20.8976 8.84918 20.9813 9.60577 20.9813" fill="#221F20" fill-rule="evenodd" transform="matrix(1 0 0 -1 823 1101)"/><path d="M76.8532-1.07134-0.890854-1.07134-0.890854 6.7274 68.9784 6.7274ZM99.7641 6.26656 99.7641-1.07134 79.4072-1.07134 71.5298 6.7274 91.1619 6.7274 91.1619 14.7825ZM92.3049 85.929 115.109 85.929 115.109 77.2379 99.7641 77.2379 99.7641 8.79488 91.1619 17.3141 91.1619 85.929" fill="#221F20" fill-rule="evenodd" transform="matrix(1 0 0 -1 747 1075)"/><path d="M10.1425 15.4822C13.179 15.4822 15.641 13.0169 15.641 9.983 15.641 6.94321 13.179 4.48052 10.1425 4.48052 7.1061 4.48052 4.64117 6.94321 4.64117 9.983 4.64117 13.0169 7.1061 15.4822 10.1425 15.4822M10.1425 20.9813C16.2154 20.9813 21.1427 16.0567 21.1427 9.983 21.1427 3.90636 16.2154-1.01865 10.1425-1.01865 4.06671-1.01865-0.857639 3.90636-0.857639 9.983-0.857639 16.0567 4.06671 20.9813 10.1425 20.9813" fill="#221F20" fill-rule="evenodd" transform="matrix(1 0 0 -1 752 1101)"/><path d="M148.603 35.5841 35.7484 148.434C25.071 134.787 18.7033 117.604 18.7033 98.9365 18.7033 76.7411 27.7019 56.6386 42.254 42.0896 56.8065 27.5377 76.9059 18.5392 99.1078 18.5392 117.773 18.5392 134.959 24.9065 148.603 35.5841M49.6039 162.295 51.3678 160.531C87.8157 124.087 124.255 87.645 160.7 51.2029L162.461 49.4394 162.467 49.4481C162.479 49.4628 162.494 49.4805 162.505 49.5011L162.514 49.5069C162.611 49.6332 162.755 49.8213 162.919 50.0302L162.928 50.0418C162.946 50.0685 162.961 50.0891 162.982 50.1154L163.005 50.1418C163.131 50.3092 163.267 50.4886 163.375 50.6298L163.381 50.6417C163.416 50.6857 163.455 50.7297 163.487 50.7828L163.567 50.8828C173.577 64.288 179.506 80.9214 179.506 98.9365 179.506 121.138 170.504 141.237 155.952 155.783 141.406 170.335 121.304 179.34 99.1078 179.34 81.0925 179.34 64.4559 173.408 51.0531 163.397 50.9708 163.333 50.8885 163.277 50.8062 163.212L50.7943 163.204C50.6326 163.086 50.4622 162.957 50.3182 162.842L50.2918 162.824C50.2651 162.804 50.2388 162.783 50.2095 162.763L50.1976 162.751C50.0067 162.604 49.8006 162.448 49.6685 162.342L49.6566 162.336C49.645 162.321 49.6302 162.31 49.6154 162.301ZM99.1078 198.937C126.713 198.937 151.716 187.739 169.811 169.645 187.911 151.547 199.106 126.55 199.106 98.9365 199.106 71.3288 187.911 46.3259 169.811 28.2285 151.716 10.134 126.713-1.06368 99.1078-1.06368 71.4968-1.06368 46.4933 10.134 28.3989 28.2285 10.3013 46.3259-0.893692 71.3288-0.893692 98.9365-0.893692 126.544 10.3013 151.547 28.3989 169.645 46.4933 187.739 71.4968 198.937 99.1078 198.937" fill="#E32626" fill-rule="evenodd" transform="matrix(1 0 0 -1 709 1144)"/></g></svg>