<svg width="201" height="201" xmlns="http://www.w3.org/2000/svg" xmlns:xlink="http://www.w3.org/1999/xlink" xml:space="preserve" overflow="hidden"><g transform="translate(-202 -538)"><path d="M12.014-1.67234C5.10798-1.59918-0.428266 4.05586-0.355095 10.9529-0.282282 17.8524 5.3709 23.3995 12.2769 23.3263 19.1805 23.2535 24.7164 17.5895 24.6436 10.6957 24.5704 3.79298 18.9204-1.74514 12.014-1.67234" fill="#221F20" fill-rule="evenodd" transform="matrix(1 0 0 -1 312 597)"/><path d="M36.1168 9.621C52.6801 9.4467 66.2927 22.809 66.4666 39.4071 66.5847 50.8266 60.317 60.85 50.9983 66.0492L53.3086 77.4125C67.7915 70.8704 77.8276 56.2034 77.6504 39.292 77.4146 16.5124 58.7294-1.8247 35.9987-1.5854 20.1083-1.42272 6.38878 7.79339-0.347445 21.1027L6.73441 35.2133C8.89697 20.875 21.1941 9.78078 36.1168 9.621" fill="#221F20" fill-rule="evenodd" transform="matrix(1 0 0 -1 275 702)"/><path d="M0.459787 8.89013 20.8655 48.9601 52.9778 48.6291 55.0416 58.6487 37.4248 58.8304C31.1982 58.8948 26.1995 63.9386 26.2639 70.0927L57.3365 69.7703 60.1917 83.6143C60.9984 87.5269 64.865 90.0588 68.8203 89.2557 72.7785 88.4588 75.3345 84.6401 74.5281 80.7279L64.9003 34.0436 29.8348 34.407 13.5326 2.38733C12.2344-0.159395 9.61549-1.62489 6.91428-1.59539 5.83271-1.58387 4.73839-1.33453 3.70597-0.821801 0.0968356 0.971481-1.35752 5.32372 0.459787 8.89013" fill="#221F20" fill-rule="evenodd" transform="matrix(1 0 0 -1 253 691)"/><path d="M149.163 35.0319 36.3082 147.885C25.6304 134.238 19.2631 117.055 19.2631 98.3872 19.2631 76.1917 28.2649 56.0893 42.8134 41.5403 57.3658 26.9884 77.4656 17.9866 99.6645 17.9866 118.332 17.9866 135.516 24.3542 149.163 35.0319M50.1665 161.743 51.9304 159.979C88.375 123.537 124.815 87.0956 161.26 50.6539L163.021 48.89 163.027 48.8987C163.038 48.9135 163.053 48.9308 163.065 48.9485L163.074 48.9575C163.171 49.081 163.315 49.269 163.479 49.4809L163.488 49.4925C163.506 49.5188 163.523 49.5397 163.541 49.5632L163.564 49.5924C163.691 49.757 163.826 49.9364 163.935 50.0775L163.944 50.0923C163.976 50.1364 164.015 50.1804 164.047 50.2302L164.126 50.3334C174.136 63.7386 180.066 80.3721 180.066 98.3872 180.066 120.586 171.064 140.688 156.515 155.234 141.966 169.786 121.863 178.791 99.6645 178.791 81.6514 178.791 65.0185 172.858 51.6124 162.848 51.5309 162.786 51.4482 162.725 51.3655 162.663L51.354 162.654C51.1955 162.537 51.0223 162.404 50.8776 162.293L50.8545 162.275C50.8281 162.254 50.7981 162.231 50.7693 162.21L50.757 162.201C50.5661 162.054 50.3607 161.896 50.2286 161.79L50.2192 161.787C50.2048 161.772 50.1896 161.761 50.1744 161.749ZM99.6645 198.387C127.273 198.387 152.276 187.19 170.37 169.095 188.471 150.998 199.666 125.998 199.666 98.3872 199.666 70.7766 188.471 45.7766 170.37 27.6792 152.276 9.58469 127.273-1.61267 99.6645-1.61267 72.0569-1.61267 47.0534 9.58469 28.9583 27.6792 10.8611 45.7766-0.334232 70.7798-0.334232 98.3872-0.334232 125.995 10.8611 150.998 28.9583 169.095 47.0534 187.19 72.0569 198.387 99.6645 198.387" fill="#E32626" fill-rule="evenodd" transform="matrix(1 0 0 -1 203 737)"/></g></svg>