<svg width="851" height="321" xmlns="http://www.w3.org/2000/svg" xmlns:xlink="http://www.w3.org/1999/xlink" xml:space="preserve" overflow="hidden"><g transform="translate(-776 -536)"><path d="M594.79 155.844 605.5 179.207 632.445 166.82ZM616.871 203.855 643.794 191.489 606.181 180.51ZM588.881 218.419 599.591 241.763 626.515 229.397ZM672.36 178.717 634.747 167.741 645.437 191.083ZM623.099 142.602 633.81 165.989 660.733 153.578ZM397.537 129.701 412.771 162.934 451.086 145.313ZM357.281 148.518 372.512 181.73 410.809 164.109ZM341.301 113.428 356.535 146.638 394.849 129.061ZM300.618 132.266 315.852 165.454 354.146 147.833ZM260.789 150.526 276.02 183.757 314.314 166.18ZM244.702 115.458 259.935 148.667 298.25 131.091ZM204.894 133.76 220.104 166.97 258.421 149.352ZM188.788 98.6709 204.019 131.88 242.334 114.262ZM148.977 116.973 164.19 150.183 202.505 132.607ZM109.148 135.276 124.358 168.509 162.673 150.888ZM93.0396 100.187 108.294 133.419 146.588 115.799ZM53.2317 118.489 68.4629 151.722 106.759 134.101ZM37.1467 83.4232 52.3779 116.633 90.6718 99.0118ZM84.5505 186.811 122.844 169.191 69.3168 153.578ZM100.636 221.901 138.95 204.28 85.4044 188.67ZM178.782 185.957 125.212 170.365 140.464 203.577ZM156.552 238.667 194.846 221.046 141.318 205.455ZM172.637 273.756 210.952 256.135 157.406 240.547ZM250.763 237.833 197.235 222.242 212.445 255.454ZM228.554 290.543 266.869 272.922 213.299 257.31ZM306.676 254.62 253.13 239.008 268.382 272.238ZM284.447 307.327 322.764 289.73 269.236 274.097ZM362.593 271.386 309.044 255.794 324.278 289.004ZM402.424 253.125 348.876 237.492 364.107 270.701ZM332.812 202.403 348.022 235.612 386.337 218.036ZM331.937 200.564 370.231 182.946 316.703 167.355ZM292.959 220.705 308.193 253.935 346.508 236.317ZM292.105 218.846 330.423 201.228 276.874 185.616ZM237.087 203.918 252.277 237.148 290.591 219.53ZM236.212 202.059 274.485 184.441 220.958 168.871ZM218.59 167.696 165.086 152.063 180.296 185.275ZM181.15 187.152 196.36 220.364 234.675 202.743ZM427.001 199.198 373.473 183.607 388.705 216.819ZM837.249 8.6714 799.851 8.6714 806.913 49.1231 491.792 39.4684 491.792 44.0623 811.586 75.861 819.606 121.864C809.6 121.137 768.47 117.957 707.325 110.418 642.43 102.407 541.116 87.6501 426.873 62.9417L423.842 77.0803C538.661 101.917 640.51 116.716 705.704 124.748 711.741 125.516 717.587 126.201 723.219 126.882 717.417 193.217 697.021 233.454 618.94 257.588 612.007 259.725 605.181 261.582 598.439 263.226L572.22 255.603 577.723 267.542C562.065 270.253 546.98 271.664 532.388 271.963 534.884 269.485 537.401 266.857 539.919 264.101 541.241 262.649 542.522 261.175 543.803 259.725L543.612 267.497 570.533 255.11 552.486 248.854C555.962 244.241 559.249 239.435 562.363 234.524L571.602 254.62 598.522 242.254 563.835 232.153C564.901 230.402 565.946 228.671 566.95 226.919L587.218 217.587 574.161 213.358C576.337 208.895 578.385 204.346 580.284 199.689L588.284 217.094 615.207 204.686 582.139 195.076C582.93 193.089 583.697 191.041 584.423 189.011L603.9 180.062 588.839 175.662C590.78 169.149 592.53 162.465 594.043 155.608L579.962 152.511C571.046 192.834 553.979 227.156 529.253 254.384 514.661 270.51 500.346 280.697 491.022 286.612 469.049 298.742 443.513 306.517 414.711 308.161 399.543 308.995 384.312 309.763 369.165 310.361L378.699 305.982 325.174 290.393 334.774 311.279C315.255 311.557 296.139 311.365 277.856 310.361L282.954 308.012 229.408 292.399 235.785 306.326C225.544 304.807 215.753 302.972 206.494 300.643L227.037 291.225 173.491 275.636 181.341 292.743C177.779 291.332 174.321 289.859 170.995 288.256 166.173 285.928 161.479 283.474 156.914 280.975L171.123 274.438 126.428 261.432C123.952 259.618 121.522 257.737 119.133 255.881L155.015 239.348 101.489 223.76 114.523 252.163C104.965 244.325 96.1985 236.081 88.1547 227.646L99.1216 222.585 77.9788 216.434C72.4311 209.983 67.2685 203.47 62.449 196.956L83.034 187.496 49.2635 177.65C46.4059 173.142 43.7159 168.679 41.1568 164.258L66.9489 152.406 29.0819 141.341C27.1829 137.455 25.3914 133.569 23.7491 129.788L50.8639 117.314 14.3615 106.679C9.36918 93.0543 6.19199 81.884 4.35587 74.6443L85.4673 83.6356 92.1884 98.33 116.592 87.1178 136.284 89.3178 148.126 115.114 186.42 97.5172 172.019 93.2877 237.918 100.658 243.827 113.578 265.31 103.732 288.734 106.338 299.764 130.365 338.058 112.744 332.94 111.249 391.947 117.849 396.578 127.994 413.454 120.262 442.573 123.531 452.408 144.931 488.015 128.571 595.578 140.573 597.179 126.243 329.333 96.3425 368.887 56.7246 399.905 87.7576 406.712 80.9663 373.709 47.9483 373.709 8.6714 364.107 8.6714 364.107 47.9483 318.262 93.8226 319.755 95.2753 248.714 87.3512 282.548 53.4784 310.838 81.8211 317.643 75.0298 287.349 44.7021 287.349 8.6714 277.728 8.6714 277.728 44.7021 236.511 85.9641 174.685 79.1072 204.084 49.6554 228.915 74.5368 235.72 67.7035 208.883 40.8581 208.883 8.97032 199.283 8.97032 199.283 40.8581 162.44 77.741 108.273 71.676 104.965 71.2906 129.309 46.9441 152.136 69.796 158.941 63.0046 134.107 38.1442 134.107 8.6714 124.487 8.6714 124.487 38.1442 92.7201 69.9454 43.2261 64.4573 65.7755 41.8834 84.4012 60.4848 91.1852 53.6725 70.5976 33.0415 70.5976 8.6714 60.977 8.6714 60.977 33.0415 34.8627 59.2025 34.8627 8.6714 4.50517 8.6714C-0.251451 8.6714-4.1149 4.80637-4.1149 0.00262213-4.1149-4.7618-0.251451-8.60584 4.50517-8.60584L837.249-8.60584C842.006-8.60584 845.888-4.7618 845.888 0.00262213 845.888 4.80637 842.006 8.6714 837.249 8.6714" fill-rule="evenodd" transform="matrix(1 0 0 -1 781 848)"/></g></svg>