<svg width="817" height="417" xmlns="http://www.w3.org/2000/svg" xmlns:xlink="http://www.w3.org/1999/xlink" xml:space="preserve" overflow="hidden"><g transform="translate(-1864 -489)"><path d="M791.241 1.16874 699.075 1.16874C696.869 87.1963 686.453 169.972 711.208 195.648 749.797 235.706 814.176 284.174 814.176 284.174 814.176 284.174 807.237 285.504 794.925 287.263 779.271 275.394 705.215 218.574 693.111 196.49 676.435 166.055 678.314 122.494 680.697 67.3295 681.54 47.3739 682.487 24.921 682.621 1.16874L676.288 1.16874C676.17 24.7885 675.207 47.167 674.35 67.0482 671.923 123.204 670.028 167.549 687.533 199.535 699.371 221.086 763.232 271.048 786.049 288.475 773.692 290.101 757.713 291.92 739.01 293.368 733.52 286.613 696.44 240.613 683.731 217.436 665.872 184.857 667.35 126.293 669.038 58.5059 669.496 39.8369 669.939 20.5763 670.044 1.16874L663.695 1.16874C663.623 20.5165 663.148 39.7172 662.674 58.3426 660.988 127.062 659.493 186.394 678.181 220.48 689.915 241.913 720.826 280.908 731.317 293.931 710.305 295.393 686.26 296.382 660.293 296.221 634.354 296.382 610.326 295.393 589.3 293.931 599.791 280.908 630.699 241.913 642.433 220.48 661.121 186.394 659.642 127.062 657.94 58.3426 657.466 39.7172 656.994 20.5019 656.934 1.16874L650.572 1.16874C650.661 20.5763 651.133 39.8369 651.578 58.4896 653.264 126.293 654.745 184.857 636.885 217.436 624.174 240.613 587.109 286.613 581.621 293.368 562.902 291.92 546.937 290.101 534.582 288.475 557.383 271.048 621.245 221.086 633.052 199.535 650.601 167.549 648.691 123.204 646.266 67.0482 645.422 47.167 644.461 24.7885 644.342 1.16874L637.995 1.16874C638.128 24.921 639.074 47.3739 639.933 67.3295 642.301 122.494 644.179 166.055 627.504 196.49 615.399 218.574 541.344 275.394 525.704 287.263 513.378 285.504 506.438 284.174 506.438 284.174 506.438 284.174 536.003 261.897 567.104 235.085 563.954 235.586 560.549 236.089 556.983 236.577L556.318 235.779C555.948 235.307 518.083 188.848 504.013 168.805 485.679 142.686 489.32 96.7603 493.522 43.59 494.601 29.8591 495.711 15.6836 496.51 1.16874L490.163 1.16874C489.363 15.4767 488.27 29.5034 487.174 43.1036 482.898 97.4844 479.168 144.474 498.805 172.44 511.218 190.105 541.758 227.886 549.557 237.508 531.519 239.622 508.793 241.189 480.974 241.174 453.143 241.189 430.444 239.622 412.394 237.508 420.205 227.886 450.716 190.105 463.129 172.44 482.765 144.474 479.065 97.4844 474.759 43.0891 473.68 29.5034 472.599 15.4767 471.8 1.16874L465.453 1.16874C466.252 15.6691 467.331 29.8446 468.441 43.59 472.643 96.7603 476.284 142.686 457.952 168.805 443.865 188.848 406.015 235.307 405.63 235.779L404.98 236.577C402.317 236.223 399.772 235.853 397.344 235.468 400.689 248.136 405.454 258.306 412.201 265.313 464.239 319.34 551.095 384.688 551.095 384.688 551.095 384.688 541.758 387.067 525.143 390.261 505.537 375.434 403.441 297.255 386.824 266.968 364.201 225.654 366.746 166.765 369.942 92.1925 371.141 64.7725 372.456 33.8499 372.591 1.16874L366.243 1.16874C366.109 33.7319 364.792 64.5656 363.624 91.9112 360.354 167.474 357.794 227.147 381.276 270.013 397.655 299.87 488.92 370.675 516.708 391.827 499.987 394.841 477.793 398.302 451.559 401.11L449.799 398.952C449.206 398.242 392.683 328.931 374.202 295.215 349.966 251.005 351.95 171.908 354.228 80.3091 354.878 54.5587 355.514 27.9663 355.589 1.16874L349.256 1.16874C349.167 27.8918 348.531 54.4407 347.881 80.1457 345.586 172.663 343.59 252.557 368.639 298.261 386.381 330.632 436.63 392.802 444.012 401.908 414.597 404.819 380.506 406.845 343.575 406.594 306.642 406.845 272.551 404.819 243.136 401.908 250.519 392.802 300.767 330.632 318.494 298.261 343.544 252.557 341.562 172.663 339.239 80.1457 338.603 54.4262 337.967 27.8918 337.893 1.16874L331.56 1.16874C331.634 27.9663 332.27 54.5442 332.92 80.2927 335.2 171.894 337.153 251.005 312.946 295.215 294.451 328.931 237.927 398.242 237.35 398.952L235.589 401.11C209.337 398.302 187.154 394.841 170.431 391.827 198.223 370.675 289.493 299.87 305.858 270.013 329.354 227.147 326.766 167.474 323.539 91.9112 322.357 64.5656 321.039 33.7319 320.907 1.16874L314.558 1.16874C314.692 33.8499 316.009 64.7725 317.177 92.1779 320.404 166.75 322.934 225.654 300.295 266.968 283.693 297.255 181.593 375.434 162 390.261 145.383 387.067 136.048 384.688 136.048 384.688 136.048 384.688 199.454 336.972 250.372 289.377 247.412 289.82 244.304 290.263 241.079 290.707L240.547 290.07C240.073 289.481 193.708 232.586 176.472 208.034 153.862 175.826 158.331 119.48 163.497 54.2338 164.843 37.0566 166.231 19.3205 167.209 1.16874L160.861 1.16874C159.884 19.1281 158.509 36.7028 157.163 53.7311 151.909 120.202 147.365 177.599 171.276 211.656 186.605 233.488 224.608 280.479 233.647 291.624 211.435 294.27 183.339 296.235 148.846 296.221 114.357 296.235 86.2603 294.27 64.0299 291.638 73.0877 280.479 111.085 233.503 126.412 211.656 150.325 177.599 145.781 120.202 140.517 53.7311 139.169 36.7028 137.812 19.1281 136.834 1.16874L130.47 1.16874C131.46 19.3205 132.834 37.0566 134.198 54.2338 139.359 119.48 143.816 175.826 121.224 208.034 103.969 232.586 57.6098 289.481 57.1356 290.07L56.6197 290.707C16.6824 285.386-1.82574 278.158-1.82574 278.158-1.82574 278.158 74.5665 236.178 106.294 205.448 132.331 180.2 126.915 86.768 119.211 1.16874L26.3179 1.16874C23.404 1.16874 21.0351-1.19778 21.0351-4.10873 21.0351-7.03603 23.404-9.38621 26.3179-9.38621L791.241-9.38621C794.157-9.38621 796.524-7.03603 796.524-4.10873 796.524-1.19778 794.157 1.16874 791.241 1.16874M515.73 167.032C533.176 183.94 567.149 204.988 587.479 216.948 595.262 209.792 602.719 202.595 609.408 195.648 634.162 169.972 623.76 87.1963 621.556 1.16874L505.092 1.16874C498.848 70.8031 494.572 146.513 515.73 167.032M392.343 206.157C411.18 194.435 433.271 179.579 446.232 167.032 467.391 146.513 463.115 70.8031 456.842 1.16874L395.909 1.16874C393.985 78.4017 387.06 153.86 392.343 206.157M191.385 205.448C211.758 225.166 250.519 249.526 275.674 264.44 308.241 228.728 294.109 116.936 291.239 1.16874L178.485 1.16874C170.762 86.768 165.357 180.2 191.385 205.448" fill-rule="evenodd" transform="matrix(1 0 0 -1 1866 896)"/></g></svg>