<svg width="740" height="426" xmlns="http://www.w3.org/2000/svg" xmlns:xlink="http://www.w3.org/1999/xlink" xml:space="preserve" overflow="hidden"><g transform="translate(-367 -1432)"><path d="M567.641 92.4268 613.103 115.71 572.684 127.984 526.698 106.073 448.455 132.154 495.478 149.868 465.014 158.499 416.507 142.812 341.397 167.858 397.179 186.11 378.536 191.752C410.662 202.832 441.882 214.874 468.584 226.246 552.833 262.168 611.077 298.937 611.077 298.937L585.977 304.053 587.697 336.461C587.697 336.461 543.226 352.266 542.002 352.63L542.512 377.152C542.512 377.152 448.982 402.213 380.286 419.067L379.805 419.167C379.805 419.167 172.783 331.811 160.861 326.285 142.602 317.815 138.518 307.129 138.518 307.129L138.092 330.221 68.0154 346.667 67.593 346.537C67.593 346.537 67.1385 346.39 66.3242 346.112 61.3815 344.451 44.0515 338.24 28.3983 328.254 7.90801 315.191-2.42663 303.644-0.47423 286.486-0.416965 286.005 9.47924 245.387 9.47924 245.387 3.83679 239.133-17.6181 220.225 20.6156 188.647 63.3518 153.353 151.985 142.914 224.851 151.837 237.867 153.424 252.312 156.064 267.656 159.476L290.061 151.049 301.458 154.781 365.141 126.206 351.907 121.848 384.615 108.23 395.939 112.385 470.071 79.1169 459.286 74.4505 498.13 57.4229 508.232 61.9872 659.38-5.8334 659.38 61.8404ZM300.861 229.119C312.96 232.106 324.388 235.226 334.839 238.215L333.6 201.754C323.149 198.94 311.838 196.039 299.694 193.123ZM204.68 281.922C204.68 281.922 261.637 340.297 351.848 356.115 443.443 372.165 460.13 333.808 377.765 303.587 308.98 278.351 226.863 277.096 204.68 281.922M584.636 334.057 582.815 302.741C582.815 302.741 520.708 265.347 416.841 228.199L416.827 228.199C416.827 228.199 387.777 216.552 336.85 202.644L338.089 239.133C348.117 241.874 437.976 267.824 584.636 334.057M184.91 320.031C281.167 376.087 402.265 375.913 456.983 371.496 497.24 368.492 515.766 364.25 539.305 373.259L538.811 353.562C502.357 360.722 413.751 369.847 365.068 362.499 297.525 352.309 262.02 333.998 244.454 323.355 214.706 305.322 190.61 283.848 190.61 283.848 174.463 285.699 144.434 296.458 184.91 320.031M136.185 300.949C136.652 286.486 153.488 276.514 153.488 276.514L134.157 269.836C134.157 269.836 111.229 282.389 112.357 304.477 113.302 322.976 135.446 327.146 135.446 327.146ZM5.98246 300.102C17.1313 324.959 68.146 343.401 68.146 343.401L131.392 328.634C106.857 322.321 109.003 303.004 109.003 303.004L4.37723 286.486C4.37723 286.486 2.73264 292.842 5.98246 300.102M205.437 176.926C155.442 175.993 129.017 177.728 84.4577 193.123 33.8761 210.589 15.1951 241.482 14.9266 241.89L8.69362 267.898C16.8235 257.81 64.1088 208.606 206.541 213.373ZM254.003 183.384C238.099 180.717 222.881 178.063 209.017 177.275L209.764 213.591C224.778 214.685 240.064 216.741 255.107 219.38ZM258.341 219.949C271.813 222.398 285.034 225.269 297.627 228.331L296.444 192.35C288.967 190.587 281.202 188.808 273.123 187.059 267.731 185.892 262.441 184.857 257.237 183.939" fill-rule="evenodd" transform="matrix(1 0 0 -1 447 1852)"/><path d="M2.18965-4.66119C2.18965-4.66119 18.3087 7.47639 32.825 9.91102 47.3413 12.3439 59.9892 11.0688 73.0535 15.4881 86.107 19.9199 99.7313 29.9002 118.2 35.2746 136.643 40.6329 157.344 40.9512 176.468 46.5567 195.586 52.1782 195.706 58.7388 213.597 57.4797L219.706 59.2598 198.526 73.311-1.29405 17.254-1.29405-5.6891" fill-rule="evenodd" transform="matrix(1 0 0 -1 369 1759)"/><path d="M11.8283-5.40127C11.8283-5.40127 20.0273 3.52055 31.1959 8.25982 42.3645 13.0116 45.452 11.8339 54.2464 16.3251 63.0425 20.8307 69.6092 28.5766 69.6092 28.5766L69.6092 24.187 78.0692 28.548 73.993 45.9884-1.93265 7.86726 9.29494 3.15832 10.634-6.01152" fill-rule="evenodd" transform="matrix(1 0 0 -1 1022 1520)"/></g></svg>