<svg width="610" height="357" xmlns="http://www.w3.org/2000/svg" xmlns:xlink="http://www.w3.org/1999/xlink" xml:space="preserve" overflow="hidden"><g transform="translate(-2911 -534)"><path d="M537.863 99.4891C537.863 97.1081 535.904 95.1488 533.526 95.1488L524.642 95.1488C522.246 95.1488 520.287 97.1081 520.287 99.4891L520.287 108.384C520.287 110.781 522.246 112.742 524.642 112.742L533.526 112.742C535.904 112.742 537.863 110.781 537.863 108.384ZM511.501 199.257 511.501 208.134C511.501 210.533 513.458 212.492 515.854 212.492L524.738 212.492C527.118 212.492 529.075 210.533 529.075 208.134L529.075 199.257C529.075 196.858 527.118 194.899 524.738 194.899L515.854 194.899C513.458 194.899 511.501 196.858 511.501 199.257M504.559 143.168C504.559 140.771 502.6 138.81 500.206 138.81L491.337 138.81C488.943 138.81 486.984 140.771 486.984 143.168L486.984 152.063C486.984 154.46 488.943 156.421 491.337 156.421L500.206 156.421C502.6 156.421 504.559 154.46 504.559 152.063ZM485.64 77.9908C485.64 75.594 483.683 73.6486 481.287 73.6486L472.42 73.6486C470.026 73.6486 468.067 75.594 468.067 77.9908L468.067 86.8861C468.067 89.2671 470.026 91.2283 472.42 91.2283L481.287 91.2283C483.683 91.2283 485.64 89.2671 485.64 86.8861ZM459.279 241.491 459.279 250.371C459.279 252.768 461.238 254.729 463.632 254.729L472.501 254.729C474.896 254.729 476.855 252.768 476.855 250.371L476.855 241.491C476.855 239.094 474.896 237.133 472.501 237.133L463.632 237.133C461.238 237.133 459.279 239.094 459.279 241.491M432.432 5.65304 410.553 5.65304C409.987 8.27866 409.421 10.8864 408.886 13.4941 420.166 110.847 424.793 250.062 425.846 286.37L432.432 286.37ZM386.246 292.963 416.897 292.963C416.379 273.57 412.721 145.712 402.916 43.8876 377.121 184.4 384.613 276.86 386.246 292.963M366.568 159.677C366.568 157.279 364.611 155.319 362.215 155.319L353.348 155.319C350.952 155.319 348.995 157.279 348.995 159.677L348.995 168.555C348.995 170.954 350.952 172.913 353.348 172.913L362.215 172.913C364.611 172.913 366.568 170.954 366.568 168.555ZM340.207 259.087 340.207 267.964C340.207 270.363 342.166 272.322 344.56 272.322L353.429 272.322C355.823 272.322 357.78 270.363 357.78 267.964L357.78 259.087C357.78 256.688 355.823 254.729 353.429 254.729L344.56 254.729C342.166 254.729 340.207 256.688 340.207 259.087M342.084 132.653C342.084 130.257 340.125 128.295 337.731 128.295L328.864 128.295C326.468 128.295 324.511 130.257 324.511 132.653L324.511 141.549C324.511 143.946 326.468 145.889 328.864 145.889L337.731 145.889C340.125 145.889 342.084 143.946 342.084 141.549ZM342.084 69.193C342.084 66.7961 340.125 64.8349 337.731 64.8349L328.864 64.8349C326.468 64.8349 324.511 66.7961 324.511 69.193L324.511 78.0883C324.511 80.4872 326.468 82.4305 328.864 82.4305L337.731 82.4305C340.125 82.4305 342.084 80.4872 342.084 78.0883ZM311.888 221.24C311.888 218.843 309.929 216.882 307.551 216.882L298.666 216.882C296.272 216.882 294.312 218.843 294.312 221.24L294.312 230.12C294.312 232.516 296.272 234.478 298.666 234.478L307.551 234.478C309.929 234.478 311.888 232.516 311.888 230.12ZM311.888 190.459C311.888 188.062 309.929 186.101 307.551 186.101L298.666 186.101C296.272 186.101 294.312 188.062 294.312 190.459L294.312 199.336C294.312 201.735 296.272 203.694 298.666 203.694L307.551 203.694C309.929 203.694 311.888 201.735 311.888 199.336ZM269.407 5.65304 244.923 5.65304C256.882 103.217 261.738 249.074 262.821 286.37L269.407 286.37ZM217.719 292.963 253.872 292.963C253.338 272.372 249.245 129.3 237.981 25.1264 207.93 176.121 216.021 276.146 217.719 292.963M202.266 159.677C202.266 157.279 200.307 155.319 197.912 155.319L189.045 155.319C186.649 155.319 184.692 157.279 184.692 159.677L184.692 168.555C184.692 170.954 186.649 172.913 189.045 172.913L197.912 172.913C200.307 172.913 202.266 170.954 202.266 168.555ZM177.474 221.24 177.474 230.12C177.474 232.516 179.433 234.478 181.811 234.478L190.694 234.478C193.09 234.478 195.047 232.516 195.047 230.12L195.047 221.24C195.047 218.843 193.09 216.882 190.694 216.882L181.811 216.882C179.433 216.882 177.474 218.843 177.474 221.24M180.112 102.212C180.112 99.8133 178.153 97.854 175.759 97.854L166.89 97.854C164.495 97.854 162.536 99.8133 162.536 102.212L162.536 111.09C162.536 113.488 164.495 115.448 166.89 115.448L175.759 115.448C178.153 115.448 180.112 113.488 180.112 111.09ZM158.314 190.459C158.314 188.062 156.355 186.101 153.961 186.101L145.092 186.101C142.698 186.101 140.739 188.062 140.739 190.459L140.739 199.336C140.739 201.735 142.698 203.694 145.092 203.694L153.961 203.694C156.355 203.694 158.314 201.735 158.314 199.336ZM149.527 69.193C149.527 66.7961 147.568 64.8349 145.173 64.8349L136.306 64.8349C133.91 64.8349 131.951 66.7961 131.951 69.193L131.951 78.0883C131.951 80.4872 133.91 82.4305 136.306 82.4305L145.173 82.4305C147.568 82.4305 149.527 80.4872 149.527 78.0883ZM105.834 5.65304 81.3656 5.65304C93.3086 103.217 98.1624 249.074 99.2473 286.37L105.834 286.37ZM153.751 267.964C153.751 270.363 155.708 272.322 158.104 272.322L166.971 272.322C169.367 272.322 171.324 270.363 171.324 267.964L171.324 259.087C171.324 256.688 169.367 254.729 166.971 254.729L158.104 254.729C155.708 254.729 153.751 256.688 153.751 259.087ZM598.434 5.65304 571.135 5.65304C536.357 167.503 545.063 275.449 546.843 292.963 575.23 293.027 597.933 308.646 597.317 327.713 597.043 329.35 597.22 333.4 590.407 333.173L504.77 333.173 504.77 349.472 450.557 349.472 450.557 333.173 186.261 333.173 186.261 349.472 132.438 349.472 132.438 333.173 62.8203 333.173C34.3547 333.173 4.96713 328.232-2.4935 322.173-9.93824 316.115 4.17239 307.058 28.869 302.068 44.6307 298.877 68.0457 296.041 90.3462 294.421 89.9587 279.63 85.4744 113.262 72.1565 5.65304L24.9688 5.65304C21.603 5.65304 18.883 2.91603 18.883-0.437603 18.883-3.80715 21.603-6.53023 24.9688-6.53023L598.434-6.53023C601.8-6.53023 604.52-3.80715 604.52-0.437603 604.52 2.91603 601.8 5.65304 598.434 5.65304" fill-rule="evenodd" transform="matrix(1 0 0 -1 2916 884)"/></g></svg>