<svg width="618" height="784" xmlns="http://www.w3.org/2000/svg" xmlns:xlink="http://www.w3.org/1999/xlink" xml:space="preserve" overflow="hidden"><g transform="translate(-3408 -1175)"><path d="M3812.16 1531.69C3795.65 1527 3769.39 1533.09 3767.32 1534.03L3762.17 1536.37C3758.55 1537.78 3754.43 1540.12 3749.78 1542.46 3744.11 1545.74 3738.95 1549.02 3733.79 1553.24 3728.63 1557.46 3723.47 1561.67 3719.35 1565.89 3714.7 1569.64 3710.58 1574.32 3705.93 1579.47 3701.81 1584.16 3697.68 1589.31 3694.12 1594.46 3691.02 1598.68 3686.9 1604.77 3683.28 1610.39 3677.09 1620.7 3670.9 1632.41 3665.74 1645.06 3664.71 1646.93 3662.65 1649.28 3660.07 1649.75 3660.07 1649.75 3629.68 1655.83 3613.17 1660.05 3594.6 1665.2 3580.67 1669.89 3567.78 1674.11 3551.83 1680.67 3537.91 1686.76 3525.01 1694.25 3518.3 1698 3518.82 1698.93 3522.43 1698.47 3534.29 1697.53 3536.36 1697.53 3548.22 1697.06 3560.04 1697.06 3571.9 1697.06 3584.28 1697.53 3597.18 1698.47 3609.05 1699.4 3620.4 1701.75 3633.24 1704.09 3645.11 1707.37 3655.43 1711.58 3667.81 1716.27 3678.64 1721.89 3687.93 1728.91 3693.08 1733.13 3697.68 1737.35 3701.29 1741.56 3705.42 1746.25 3709.03 1751.41 3711.61 1757.03 3715.22 1764.52 3718.32 1772.02 3719.86 1780.92 3720.9 1784.67 3721.41 1788.88 3721.41 1792.63 3721.41 1818.86 3700.26 1839.94 3674 1839.94 3647.69 1839.94 3626.59 1818.86 3626.59 1792.63 3626.59 1766.39 3647.69 1745.32 3674 1745.32 3680.7 1745.32 3687.41 1746.72 3693.6 1749.53 3670.9 1725.64 3635.31 1717.2 3607.5 1713.46 3589.44 1711.58 3570.36 1711.58 3548.22 1712.52 3536.87 1712.99 3525.01 1713.93 3513.14 1715.33 3501.28 1717.2 3489.97 1718.61 3478.63 1720.48 3476.56 1720.48 3473.98 1720.48 3472.44 1719.55 3470.37 1718.61 3469.34 1716.73 3468.83 1714.39 3468.83 1712.52 3468.83 1709.71 3470.37 1707.83 3479.66 1695.66 3492.04 1685.35 3509.53 1675.04 3522.43 1667.08 3536.87 1660.52 3554.93 1653.96 3570.36 1647.87 3586.35 1642.72 3601.82 1639.44 3617.3 1635.69 3631.7 1632.41 3646.14 1630.07 3651.3 1619.29 3657.49 1608.52 3664.2 1598.68 3671.42 1587.9 3679.67 1577.6 3689.99 1567.29 3699.75 1557.46 3710.06 1548.55 3721.41 1541.52 3727.09 1537.78 3732.76 1534.96 3737.92 1532.16 3735.85 1522.79 3727.6 1486.72 3721.41 1469.38 3711.09 1441.27 3700.78 1423.47 3700.78 1423.47L3698.24 1419.25 3702.84 1419.25C3715.22 1421.13 3748.24 1422.07 3752.36 1410.82 3757.52 1397.23 3749.27 1391.14 3748.75 1391.14L3747.72 1391.14 3747.72 1377.09 3743.59 1379.43 3729.67 1379.43 3727.6 1373.81C3724.51 1375.69 3718.83 1378.03 3713.16 1378.03L3712.12 1378.03C3702.84 1378.03 3683.8 1378.03 3669.87 1363.97 3663.68 1357.42 3661.62 1349.45 3663.68 1341.02 3665.74 1331.65 3672.96 1324.15 3682.77 1320.4 3716.77 1308.69 3746.17 1334.46 3747.2 1335.4L3747.2 1335.4 3749.27 1341.95C3749.27 1341.95 3755.46 1338.21 3760.1 1338.21 3766.29 1338.21 3770.37 1338.68 3772.44 1339.14 3773.47 1338.68 3777.08 1335.86 3781.2 1326.03 3785.33 1316.19 3784.81 1310.57 3784.3 1305.41 3784.3 1304.01 3784.3 1302.13 3784.3 1300.26 3784.3 1293.7 3784.3 1291.36 3787.39 1282.46 3789.46 1274.49 3783.78 1265.59 3773.47 1259.97 3762.17 1253.88 3728.12 1251.54 3727.6 1251.07L3724.51 1251.07 3726.05 1247.79C3726.05 1247.79 3727.6 1244.04 3725.02 1239.36 3721.93 1233.74 3716.77 1229.52 3698.71 1221.56 3691.02 1218.74 3686.9 1213.59 3681.22 1207.03 3673.48 1198.6 3664.2 1187.83 3640.98 1178.93 3602.86 1164.4 3526.56 1194.85 3526.04 1194.85L3523.98 1194.85C3523.98 1194.85 3516.75 1190.64 3507.47 1191.57 3501.79 1192.98 3494.06 1191.57 3487.4 1190.64 3484.82 1190.64 3481.72 1189.7 3479.66 1189.7 3479.66 1193.45 3483.27 1203.28 3486.37 1211.25L3486.37 1213.12 3485.33 1214.06C3485.33 1214.06 3472.95 1221.56 3463.15 1235.14 3454.38 1247.32 3440.45 1279.18 3438.91 1315.72 3437.36 1350.86 3426.53 1379.9 3423.94 1385.52 3424.98 1385.52 3428.59 1385.52 3434.78 1382.71 3437.36 1381.78 3439.42 1380.84 3442 1379.9 3446.64 1377.56 3451.28 1376.16 3455.93 1374.28 3463.67 1371 3471.4 1367.72 3480.17 1364.91 3481.2 1355.07 3482.75 1344.77 3484.3 1333.05L3488.43 1306.82C3488.43 1304.01 3489.41 1301.2 3489.97 1297.92 3491.47 1290.89 3493.02 1284.8 3495.09 1279.18 3497.67 1272.62 3500.76 1267 3504.37 1261.84 3508.5 1256.69 3513.66 1252.01 3519.85 1248.73 3522.43 1247.32 3525.52 1245.92 3528.62 1244.98 3531.71 1244.04 3534.81 1243.11 3537.91 1242.64L3550.28 1240.76 3539.45 1246.85C3536.87 1248.26 3534.29 1250.13 3532.23 1251.54 3529.65 1252.94 3527.59 1255.28 3525.52 1256.69 3521.39 1260.44 3518.3 1264.19 3515.72 1268.87 3510.56 1277.77 3508.5 1288.08 3506.95 1300.26L3505.92 1309.16C3505.92 1312.44 3504.89 1314.78 3504.37 1318.07 3503.34 1324.15 3502.31 1329.78 3501.28 1335.4 3498.7 1348.04 3496.12 1359.29 3493.02 1370.53L3492.04 1374.28 3490.96 1374.28C3487.91 1375.69 3461.6 1383.18 3454.9 1385.05 3452.83 1392.55 3450.25 1403.79 3446.64 1418.78 3439.42 1447.83 3422.4 1500.77 3418.32 1512.01 3418.32 1512.95 3418.32 1513.89 3418.32 1514.35 3418.32 1514.35 3419.86 1514.35 3423.43 1512.95 3429.1 1510.61 3435.29 1507.79 3442.52 1504.52 3449.74 1500.77 3455.93 1497.49 3461.6 1495.15 3464.18 1493.74 3467.28 1491.87 3469.85 1490.46L3480.17 1484.84C3484.82 1482.03 3489.41 1479.69 3495.09 1476.4 3496.12 1469.38 3497.67 1462.35 3499.21 1454.86 3501.28 1445.49 3502.82 1437.52 3504.89 1429.56 3506.95 1420.66 3509.53 1412.22 3511.59 1404.26 3513.66 1397.7 3516.24 1388.34 3519.85 1379.43L3524.49 1366.78 3524.49 1379.9C3524.49 1389.74 3523.46 1398.64 3522.43 1406.13 3521.91 1411.76 3521.39 1417.84 3520.36 1424.4L3574.48 1402.39C3573.45 1394.89 3572.93 1386.46 3572.42 1377.56 3572.42 1368.66 3571.9 1358.82 3571.9 1348.51 3571.9 1339.14 3571.9 1329.31 3572.93 1319 3573.45 1308.69 3575 1298.39 3576.03 1289.95L3580.67 1289.95C3580.16 1299.32 3579.13 1309.16 3579.13 1319.47 3579.13 1329.31 3579.13 1339.14 3579.64 1348.51 3580.16 1358.35 3581.19 1367.72 3582.22 1377.09 3583.25 1387.4 3584.8 1396.77 3586.35 1405.67L3587.38 1410.35 3517.27 1444.08C3516.24 1449.24 3515.72 1453.92 3514.69 1458.14 3513.14 1467.51 3511.59 1475.47 3509.53 1483.9L3508.5 1488.12 3504.89 1489.52C3497.67 1492.34 3491.47 1495.61 3485.33 1498.43 3479.14 1500.77 3472.44 1504.05 3465.21 1506.39 3460.05 1508.73 3454.9 1510.14 3449.74 1511.54 3448.19 1519.51 3444.06 1535.43 3437.36 1558.39 3431.17 1579.94 3422.91 1593.52 3417.29 1603.84 3414.19 1608.99 3412.13 1612.73 3411.09 1616.02 3411.09 1617.89 3412.64 1619.29 3416.77 1620.7 3423.94 1623.04 3431.17 1623.98 3440.45 1624.91 3448.19 1625.38 3456.45 1625.38 3464.7 1624.91 3472.95 1624.91 3480.69 1623.51 3488.43 1621.64 3495.09 1620.23 3501.79 1618.82 3508.5 1616.48 3508.5 1615.55 3509.53 1615.08 3509.53 1614.14 3510.56 1611.8 3511.08 1610.39 3512.11 1608.52 3513.14 1605.71 3514.17 1602.9 3515.21 1600.08L3516.75 1596.34C3519.85 1588.84 3522.43 1581.35 3525.52 1572.45 3529.13 1562.61 3531.71 1554.64 3534.29 1547.61 3535.84 1543.87 3537.39 1540.12 3538.94 1535.43 3540.48 1531.22 3542.55 1527 3544.09 1522.79L3549.25 1512.01 3549.25 1523.72C3548.22 1528.41 3548.22 1532.62 3547.71 1537.31 3547.71 1541.52 3546.67 1545.27 3546.16 1549.02L3546.16 1550.9C3545.13 1554.64 3544.61 1558.39 3543.58 1562.61 3547.71 1562.14 3551.83 1561.67 3555.44 1560.73 3563.65 1558.86 3571.9 1556.99 3579.64 1554.17 3587.9 1551.84 3595.63 1548.55 3602.86 1545.27 3609.05 1541.99 3614.72 1538.72 3620.4 1534.96 3617.82 1528.88 3614.72 1523.25 3611.62 1516.23 3608.02 1507.79 3604.92 1500.3 3602.34 1492.34 3599.25 1484.37 3596.67 1475.94 3594.6 1468.44 3592.54 1459.07 3590.99 1450.64 3589.96 1443.14L3594.6 1443.14C3596.15 1449.7 3597.7 1457.67 3600.79 1466.1 3603.37 1474.07 3605.95 1481.56 3609.56 1489.52 3612.66 1496.55 3616.27 1504.05 3620.4 1512.01 3625.04 1520.91 3628.6 1527.47 3632.21 1533.56L3634.79 1537.78 3631.18 1541.05C3624.01 1546.68 3616.78 1551.84 3609.05 1556.05 3601.82 1559.8 3593.57 1563.55 3584.8 1567.29 3577.06 1570.1 3568.29 1572.91 3559.57 1575.26 3555.44 1576.66 3550.8 1577.6 3546.67 1578.54 3544.61 1578.54 3542.55 1579 3540.48 1579.47 3537.91 1588.37 3535.84 1595.4 3533.26 1602.43 3531.71 1606.17 3530.17 1610.39 3528.1 1615.08 3527.07 1616.95 3526.04 1619.76 3525.01 1621.17 3524.49 1622.11 3523.98 1623.51 3523.46 1624.45L3522.43 1625.85 3522.43 1626.79 3520.88 1628.2 3519.33 1630.07 3516.75 1630.07C3508.5 1633.35 3499.73 1635.22 3490.96 1636.16 3482.24 1637.1 3473.47 1637.56 3464.7 1637.1 3459.02 1637.1 3453.35 1636.16 3448.19 1635.22 3440.97 1646 3393.04 1722.82 3414.71 1799.66 3439.93 1889.6 3505.4 1921.46 3506.44 1921.93L3515.72 1926.62 3415.22 1926.62C3411.09 1926.62 3408 1929.89 3408 1934.11L3408 1958 3806.48 1958 3806.48 1934.11C3806.48 1929.89 3803.39 1926.62 3799.26 1926.62L3693.6 1926.62 3704.39 1921.93C3726.05 1913.5 3751.85 1894.29 3766.76 1870.87 3786.88 1840.88 3788.43 1811.84 3785.85 1790.76 3781.2 1753.74 3768.87 1735.94 3758.55 1721.42 3748.24 1706.43 3738.95 1692.85 3738.95 1666.14 3738.95 1611.33 3786.88 1555.58 3801.32 1541.52 3802.87 1540.12 3804.42 1537.78 3805.97 1536.84 3810.09 1534.03 3817.31 1533.09 3809.58 1530.75ZM3759.59 1268.87C3762.17 1266.06 3764.23 1264.19 3766.29 1264.19 3769.39 1264.19 3771.92 1266.53 3774.5 1269.34L3776.05 1271.21 3776.05 1271.21C3781.72 1276.84 3779.66 1287.61 3777.59 1292.77 3777.59 1294.17 3776.05 1294.64 3775.01 1294.64L3775.01 1294.64C3775.01 1294.64 3769.86 1293.7 3759.59 1271.68L3759.59 1268.87ZM3664.2 1248.73C3664.2 1248.73 3675.03 1242.64 3688.96 1245.92 3696.18 1247.32 3700.26 1250.13 3701.81 1252.94 3702.84 1255.75 3701.81 1257.63 3701.81 1258.1L3701.81 1258.1 3700.78 1259.03C3700.78 1259.03 3693.6 1261.38 3682.25 1261.84L3680.7 1261.84C3669.87 1261.84 3658.01 1255.75 3657.49 1255.75L3653.36 1253.41 3664.71 1248.73Z" fill="#2D2A26" fill-rule="evenodd"/><path d="M3953.46 1453C3949.85 1453 3946.25 1451.13 3943.17 1448.78 3900 1408.97 3827.5 1400.54 3826.98 1400.54 3818.75 1399.13 3813.09 1392.11 3814.12 1383.67 3814.63 1375.71 3823.38 1370.56 3830.58 1371.03 3834.19 1371.03 3913.33 1380.86 3963.23 1427.24 3969.41 1432.86 3969.41 1442.22 3964.26 1448.31 3961.69 1451.13 3957.57 1453 3953.46 1453Z" fill="#8DA4AC" fill-rule="evenodd"/><path d="M3971.4 1582C3965.2 1582 3959.53 1577.78 3957.46 1571.69 3925.47 1470.5 3821.31 1398.81 3820.28 1397.88 3813.57 1393.19 3812.03 1383.82 3816.67 1377.26 3821.31 1370.7 3830.6 1369.3 3837.27 1373.04 3841.91 1376.33 3950.24 1451.29 3985.28 1562.32 3987.86 1569.82 3983.22 1578.25 3975.52 1580.59 3973.98 1580.59 3972.43 1581.06 3970.88 1581.06Z" fill="#8DA4AC" fill-rule="evenodd"/><path d="M4010.62 1502C4007.05 1502 4003.49 1500.59 4000.44 1498.24L3987.71 1486.03C3981.61 1480.39 3981.61 1470.99 3986.7 1464.89 3991.79 1458.78 4001.46 1458.32 4007.56 1463.95L4020.29 1475.7C4026.39 1481.33 4026.39 1490.73 4021.3 1496.83 4018.76 1500.12 4014.69 1501.53 4010.62 1501.53Z" fill="#8DA4AC" fill-rule="evenodd"/></g></svg>