<svg width="548" height="692" xmlns="http://www.w3.org/2000/svg" xmlns:xlink="http://www.w3.org/1999/xlink" xml:space="preserve" overflow="hidden"><g transform="translate(-2516 -1229)"><path d="M440.973-13.3097 250.953-13.3097 250.953 3.34135 396.285 3.34135C408.658 3.34135 418.828 9.49899 418.828 17.0807 418.828 24.5908 408.658 30.7484 396.285 30.7484L250.953 30.7484 250.953 49.277 351.541 49.277C363.97 49.277 374.14 55.371 374.14 62.9527 374.14 70.4707 363.97 76.6284 351.541 76.6284L250.953 76.6284 250.953 103.327C396.873 109.024 513.516 229.225 513.516 376.706 513.516 527.815 391.045 650.347 240.012 650.347 88.9786 650.347-33.4922 527.815-33.4922 376.706-33.4922 229.225 83.0865 109.024 229.062 103.327L229.062 76.6284 128.419 76.6284C115.982 76.6284 105.884 70.4707 105.884 62.9527 105.884 55.371 115.982 49.277 128.419 49.277L229.062 49.277 229.062 30.7484 83.7306 30.7484C71.3022 30.7484 61.1321 24.5908 61.1321 17.0807 61.1321 9.49899 71.3022 3.34135 83.7306 3.34135L229.062 3.34135 229.062-13.3097 38.9788-13.3097C26.6061-13.3097 16.444-19.4674 16.444-26.9854 16.444-34.5035 26.6061-40.6611 38.9788-40.6611L440.973-40.6611C453.409-40.6611 463.516-34.5035 463.516-26.9854 463.516-19.4674 453.409-13.3097 440.973-13.3097M2.13103 376.706C2.13103 507.918 108.802 614.706 240.012 614.706 371.158 614.706 477.892 507.918 477.892 376.706 477.892 249.122 377.058 144.728 250.953 138.961L250.953 366.92C250.953 372.298 246.548 376.706 241.109 376.706L238.843 376.706C233.468 376.706 229.062 372.298 229.062 366.92L229.062 138.961C102.966 144.728 2.13103 249.122 2.13103 376.706" fill-rule="evenodd" transform="matrix(1 0 0 -1 2550 1880)"/></g></svg>