<svg width="750" height="760" xmlns="http://www.w3.org/2000/svg" xmlns:xlink="http://www.w3.org/1999/xlink" xml:space="preserve" overflow="hidden"><g transform="translate(-1517 -1220)"><path d="M11.212 1.31731C11.212 1.31731 132.835 108.337 182.268 129.245 242.13 154.612 300.035 176.564 366.311 176.564 387.258 176.564 385.771 179.563 385.771 179.563 385.771 179.563 314.157 180.803 288.725 174.804 263.24 168.808 205.054 147.87 181.082 135.903 157.138 123.908 51.8633 54.1956 8.40396 10.7547-35.0554-32.6558 11.212 1.31731 11.212 1.31731" fill-rule="evenodd" transform="matrix(1 0 0 -1 1881 1543)"/><path d="M-9.02936 42.6752C-9.02936 49.2622-11.2585 14.6254-10.1166-0.253737-9.02936-15.1058-9.75417-10.975-9.75417-10.975L-6.44124-8.52217-6.77287 1.37018C-6.77287 1.37018-9.02936 36.1186-9.02936 42.6752" fill-rule="evenodd" transform="matrix(1 0 0 -1 2178 1362)"/><path d="M-6.84284 42.6752C-6.84284 49.2622-11.8245 14.6254-9.33534-0.253737-6.84284-15.1058-8.50341-10.975-8.50341-10.975L-1.03251-8.52217-1.86115 1.37018C-1.86115 1.37018-6.84284 36.1186-6.84284 42.6752" fill-rule="evenodd" transform="matrix(1 0 0 -1 2165 1362)"/><path d="M-6.81983 56.5668C-6.81983 64.8409-11.8015 21.3543-9.31232 2.7502-6.81983-15.9075-8.48039-10.7425-8.48039-10.7425L-1.00949-7.63012-1.83813 4.79943C-1.83813 4.79943-6.81983 48.2894-6.81983 56.5668" fill-rule="evenodd" transform="matrix(1 0 0 -1 2145 1372)"/><path d="M-6.78694 68.3159C-6.78694 78.0247-11.7686 26.9785-9.27944 5.05531-6.78694-16.8105-8.44751-10.6779-8.44751-10.6779L-0.97661-7.04772-1.80525 7.50361C-1.80525 7.50361-6.78694 58.6071-6.78694 68.3159" fill-rule="evenodd" transform="matrix(1 0 0 -1 2114 1384)"/><path d="M-6.76393 77.0911C-6.76393 87.9061-11.7456 31.1482-9.25642 6.85942-6.76393-17.4566-8.39818-10.6925-8.39818-10.6925L-0.953592-6.64496-1.75592 9.54872C-1.75592 9.54872-6.76393 66.2794-6.76393 77.0911" fill-rule="evenodd" transform="matrix(1 0 0 -1 2093 1393)"/><path d="M-7.44988 65.4567C-7.44988 74.824-12.969 25.6568-10.2659 4.59475-7.44988-16.4941-9.28959-10.6216-9.28959-10.6216L-1.0091-7.15037-1.93078 6.9156C-1.93078 6.9156-7.44988 56.0861-7.44988 65.4567" fill-rule="evenodd" transform="matrix(1 0 0 -1 2079 1396)"/><path d="M-6.74665 74.2325C-6.74665 84.6515-11.7448 29.8324-9.24737 6.37864-6.74665-17.1868-8.4127-10.6288-8.4127-10.6288L-0.943542-6.71365-1.74852 8.94025C-1.74852 8.94025-6.74665 63.8169-6.74665 74.2325" fill-rule="evenodd" transform="matrix(1 0 0 -1 2055 1406)"/><path d="M-6.71158 59.3477C-6.71158 68.0116-11.6935 22.6021-9.20089 3.12626-6.71158-16.2607-8.37222-10.8872-8.37222-10.8872L-0.897728-7.62754-1.72969 5.35638C-1.72969 5.35638-6.71158 50.7385-6.71158 59.3477" fill-rule="evenodd" transform="matrix(1 0 0 -1 2042 1414)"/><path d="M-6.67429 65.494C-6.67429 74.8618-11.6841 25.7061-9.19072 4.59672-6.67429-16.4322-8.36178-10.5882-8.36178-10.5882L-0.888151-7.11804-1.71709 6.94369C-1.71709 6.94369-6.67429 56.0994-6.67429 65.494" fill-rule="evenodd" transform="matrix(1 0 0 -1 2028 1423)"/><path d="M-7.37242 79.1808C-7.37242 90.2365-12.9263 32.2261-10.164 7.38628-7.37242-17.4299-9.21644-10.5649-9.21644-10.5649L-0.932942-6.40122-1.85495 10.1417C-1.85495 10.1417-7.37242 68.1251-7.37242 79.1808" fill-rule="evenodd" transform="matrix(1 0 0 -1 2011 1435)"/><path d="M-6.821 55.7085C-6.821 63.8795-11.2545 21.0278-9.02486 2.64227-6.821-15.6931-8.29024-10.626-8.29024-10.626L-1.64967-7.57563-2.41007 4.73937C-2.41007 4.73937-6.821 47.5342-6.821 55.7085" fill-rule="evenodd" transform="matrix(1 0 0 -1 1997 1446)"/><path d="M-6.64555 55.728C-6.64555 63.8779-11.6272 21.0138-9.13804 2.64638-6.64555-15.7211-8.27981-10.5956-8.27981-10.5956L-0.835215-7.54437-1.63755 4.69056C-1.63755 4.69056-6.64555 47.5546-6.64555 55.728" fill-rule="evenodd" transform="matrix(1 0 0 -1 1982 1459)"/><path d="M-7.34424 56.5608C-7.34424 64.8582-12.8633 21.3614-10.102 2.72279-7.34424-15.9124-9.18394-10.7418-9.18394-10.7418L-0.874314-7.64555-1.82513 4.76998C-1.82513 4.76998-7.34424 48.294-7.34424 56.5608" fill-rule="evenodd" transform="matrix(1 0 0 -1 1965 1473)"/><path d="M-6.63118 56.5784C-6.63118 64.8754-11.6293 21.3807-9.1319 2.71587-6.63118-15.8946-8.32692-10.7243-8.32692-10.7243L-0.828073-7.62481-1.66274 4.79012C-1.66274 4.79012-6.63118 48.2848-6.63118 56.5784" fill-rule="evenodd" transform="matrix(1 0 0 -1 1949 1487)"/><path d="M-6.59561 55.7751C-6.59561 63.9518-11.5793 21.0875-9.08582 2.72-6.59561-15.6475-8.23053-10.5488-8.23053-10.5488L-0.78292-7.49757-1.58558 4.73742C-1.58558 4.73742-6.59561 47.6017-6.59561 55.7751" fill-rule="evenodd" transform="matrix(1 0 0 -1 1932 1500)"/><path d="M-7.30725 56.6166C-7.30725 64.9094-12.8388 21.4192-10.073 2.75972-7.30725-15.876-9.14867-10.6791-9.14867-10.6791L-0.847641-7.58328-1.76835 4.83375C-1.76835 4.83375-7.30725 48.3205-7.30725 56.6166" fill-rule="evenodd" transform="matrix(1 0 0 -1 1915 1514)"/><path d="M-6.55703 56.6395C-6.55703 64.9093-11.5389 21.4146-9.04962 2.77698-6.55703-15.8607-8.21766-10.6598-8.21766-10.6598L-0.746462-7.5637-1.57513 4.85122C-1.57513 4.85122-6.55703 48.3459-6.55703 56.6395" fill-rule="evenodd" transform="matrix(1 0 0 -1 1899 1528)"/><path d="M-8.79664 40.8968C-8.79664 47.2465-12.1327 13.8155-10.4647-0.483059-8.79664-14.8116-9.90746-10.7939-9.90746-10.7939L-4.93216-8.43188-5.45701 1.11936C-5.45701 1.11936-8.79664 34.5204-8.79664 40.8968" fill-rule="evenodd" transform="matrix(1 0 0 -1 2137 1372)"/><path d="M-8.77561 27.1607C-8.77561 31.8374-12.1037 7.26565-10.411-3.27934-8.77561-13.8243-9.88377-10.8769-9.88377-10.8769L-4.89168-9.11775-5.44396-2.11763C-5.44396-2.11763-8.77561 22.484-8.77561 27.1607" fill-rule="evenodd" transform="matrix(1 0 0 -1 2125 1377)"/><path d="M-7.30102 31.0982C-7.30102 36.2668-10.0812 9.15473-8.69112-2.50459-7.30102-14.0842-8.25072-10.8388-8.25072-10.8388L-4.08042-8.94545-4.54179-1.17922C-4.54179-1.17922-7.30102 25.9295-7.30102 31.0982" fill-rule="evenodd" transform="matrix(1 0 0 -1 2107 1384)"/><path d="M-8.72638 31.8497C-8.72638 37.1336-12.0932 9.42008-10.3666-2.49934-8.72638-14.3407-9.83786-11.0739-9.83786-11.0739L-4.85598-9.08389-5.38475-1.1444C-5.38475-1.1444-8.72638 26.5691-8.72638 31.8497" fill-rule="evenodd" transform="matrix(1 0 0 -1 2069 1399)"/><path d="M-8.85742 18.9136C-8.85742 22.6491-12.2051 3.07466-10.5006-5.29334-8.85742-13.6579-9.9745-11.316-9.9745-11.316L-4.98365-9.92244-5.51336-4.34492C-5.51336-4.34492-8.85742 15.2329-8.85742 18.9136" fill-rule="evenodd" transform="matrix(1 0 0 -1 2159 1367)"/><path d="M-7.51236 42.6752C-7.51236 49.2622-11.3648 14.6254-9.42389-0.253737-7.51236-15.1058-8.8139-10.975-8.8139-10.975L-2.96841-8.52217-3.63059 1.37018C-3.63059 1.37018-7.51236 36.1186-7.51236 42.6752" fill-rule="evenodd" transform="matrix(1 0 0 -1 2184 1362)"/><path d="M-8.54738 27.9855C-8.54738 32.7986-13.0092 7.57744-10.7634-3.2278-8.54738-14.0364-10.0669-11.0269-10.0669-11.0269L-3.39288-9.21989-4.14892-2.02535C-4.14892-2.02535-8.54738 23.169-8.54738 27.9855" fill-rule="evenodd" transform="matrix(1 0 0 -1 2193 1361)"/><path d="M-8.52188 20.0209C-8.52188 23.8538-12.9235 3.66695-10.7208-4.93667-8.52188-13.5979-9.96563-11.1972-9.96563-11.1972L-3.33545-9.76161-4.08695-3.99877C-4.08695-3.99877-8.52188 16.1881-8.52188 20.0209" fill-rule="evenodd" transform="matrix(1 0 0 -1 2202 1358)"/><path d="M-7.52429 16.0423C-7.52429 19.3895-11.3972 1.76021-9.43305-5.79713-7.52429-13.3783-8.82394-11.2748-8.82394-11.2748L-2.98691-9.97337-3.6514-4.93741C-3.6514-4.93741-7.52429 12.6918-7.52429 16.0423" fill-rule="evenodd" transform="matrix(1 0 0 -1 2215 1356)"/><path d="M-7.47433 12.024C-7.47433 14.8674-11.3382-0.208726-9.4599-6.67581-7.47433-13.1395-8.79696-11.4115-8.79696-11.4115L-2.97673-10.3268-3.63642-5.97778C-3.63642-5.97778-7.47433 9.15315-7.47433 12.024" fill-rule="evenodd" transform="matrix(1 0 0 -1 2224 1355)"/><path d="M-7.54383 8.86425C-7.54383 11.3875-11.4167-1.85151-9.45259-7.52087-7.54383-13.1589-8.84348-11.6311-8.84348-11.6311L-3.00646-10.6949-3.66768-6.89442C-3.66768-6.89442-7.54383 6.34106-7.54383 8.86425" fill-rule="evenodd" transform="matrix(1 0 0 -1 2233 1355)"/><path d="M-7.53332 8.45361C-7.53332 10.8543-11.4268-1.71523-9.43941-7.16223-7.53332-12.5033-8.83115-11.0728-8.83115-11.0728L-3.00227-10.1556-3.66582-6.54303C-3.66582-6.54303-7.53332 6.02647-7.53332 8.45361" fill-rule="evenodd" transform="matrix(1 0 0 -1 2243 1353)"/><path d="M-7.51261 5.3235C-7.51261 7.35262-11.3711-3.33812-9.46621-7.96842-7.51261-12.5449-8.80744-11.2594-8.80744-11.2594L-2.99206-10.5191-3.65408-7.45021C-3.65408-7.45021-7.51261 3.29438-7.51261 5.3235" fill-rule="evenodd" transform="matrix(1 0 0 -1 2256 1355)"/><path d="M4.71652-2.30569C4.71652-2.30569 88.5481 71.0858 122.636 85.4787 163.891 102.887 203.849 117.913 249.485 117.913 263.98 117.913 262.934 119.943 262.934 119.943 262.934 119.943 213.549 120.791 195.996 116.708 178.439 112.622 138.373 98.2289 121.811 90.0597 105.33 81.8333 32.7416 33.9659 2.76089 4.19399-27.1691-25.6352 4.71652-2.30569 4.71652-2.30569" fill-rule="evenodd" transform="matrix(1 0 0 -1 1790 1740)"/><path d="M-7.35997 25.5522C-7.35997 30.019-10.6999 6.66392-9.04424-3.3204-7.35997-13.3047-8.47223-10.5328-8.47223-10.5328L-3.50202-8.86431-4.02002-2.2169C-4.02002-2.2169-7.35997 21.1415-7.35997 25.5522" fill-rule="evenodd" transform="matrix(1 0 0 -1 1983 1616)"/><path d="M-7.32889 43.2088C-7.32889 49.8253-10.6961 15.1377-8.98863 0.276382-7.32889-14.5617-8.47036-10.4392-8.47036-10.4392L-3.47208-7.96846-3.99035 1.92801C-3.99035 1.92801-7.32889 36.5923-7.32889 43.2088" fill-rule="evenodd" transform="matrix(1 0 0 -1 1947 1631)"/><path d="M-7.26927 42.0981C-7.26927 48.6286-10.585 14.5674-8.91449-0.00673947-7.26927-14.6078-8.37451-10.5709-8.37451-10.5709L-3.38517-8.13116-3.95042 1.6141C-3.95042 1.6141-7.26927 35.645-7.26927 42.0981" fill-rule="evenodd" transform="matrix(1 0 0 -1 1926 1639)"/><path d="M-8.45879 37.1728C-8.45879 43.0593-12.3271 12.1681-10.3782-1.0368-8.45879-14.2653-9.74824-10.6348-9.74824-10.6348L-3.92729-8.35182-4.58676 0.42215C-4.58676 0.42215-8.45879 31.2864-8.45879 37.1728" fill-rule="evenodd" transform="matrix(1 0 0 -1 1907 1649)"/><path d="M-7.28322 51.0119C-7.28322 58.5797-10.6376 18.8791-8.97476 1.85155-7.28322-15.176-8.40028-10.4327-8.40028-10.4327L-3.43735-7.58126-3.95758 3.77043C-3.95758 3.77043-7.28322 43.4441-7.28322 51.0119" fill-rule="evenodd" transform="matrix(1 0 0 -1 1879 1667)"/><path d="M-8.41458 35.2971C-8.41458 40.9589-12.2829 11.337-10.334-1.38018-8.41458-14.0738-9.70403-10.5445-9.70403-10.5445L-3.88309-8.43893-4.54255 0.0402973C-4.54255 0.0402973-8.41458 29.6353-8.41458 35.2971" fill-rule="evenodd" transform="matrix(1 0 0 -1 1871 1673)"/><path d="M-7.23285 36.0618C-7.23285 41.8441-10.5696 11.5919-8.91395-1.39926-7.23285-14.3596-8.34511-10.7551-8.34511-10.7551L-3.37491-8.57733-3.8929 0.054873C-3.8929 0.054873-7.23285 30.3345-7.23285 36.0618" fill-rule="evenodd" transform="matrix(1 0 0 -1 1860 1683)"/><path d="M-8.42357 35.3323C-8.42357 40.9648-12.3202 11.3556-10.3849-1.32924-8.42357-14.041-9.72122-10.5164-9.72122-10.5164L-3.9263-8.38161-4.52693 0.0637767C-4.52693 0.0637767-8.42357 29.6998-8.42357 35.3323" fill-rule="evenodd" transform="matrix(1 0 0 -1 1848 1692)"/><path d="M-7.17454 35.3413C-7.17454 40.9505-10.4934 11.3763-8.82292-1.34352-7.17454-14.0364-8.28293-10.5097-8.28293-10.5097L-3.29359-8.40373-3.85884 0.0772525C-3.85884 0.0772525-7.17454 29.6784-7.17454 35.3413" fill-rule="evenodd" transform="matrix(1 0 0 -1 1837 1701)"/><path d="M-8.43031 35.3498C-8.43031 40.9614-12.3315 11.4013-10.366-1.35082-8.43031-14.0492-9.73071-10.4907-9.73071-10.4907L-3.91978-8.38381-4.52539 0.0739254C-4.52539 0.0739254-8.43031 29.6844-8.43031 35.3498" fill-rule="evenodd" transform="matrix(1 0 0 -1 1825 1711)"/><path d="M-7.21744 35.3685C-7.21744 40.9744-10.5665 11.4032-8.87761-1.32002-7.21744-14.013-8.33272-10.4829-8.33272-10.4829L-3.34902-8.37692-3.86842 0.104124C-3.86842 0.104124-7.21744 29.7055-7.21744 35.3685" fill-rule="evenodd" transform="matrix(1 0 0 -1 1814 1720)"/><path d="M-8.36839 36.1236C-8.36839 41.9058-12.2652 11.6536-10.3298-1.3341-8.36839-14.2944-9.6661-10.6899-9.6661-10.6899L-3.87089-8.51217-4.47155 0.120035C-4.47155 0.120035-8.36839 30.3448-8.36839 36.1236" fill-rule="evenodd" transform="matrix(1 0 0 -1 1802 1730)"/><path d="M-8.46806 27.4369C-8.46806 32.1024-12.3647 7.53459-10.4331-2.9763-8.46806-13.514-9.76941-10.6181-9.76941-10.6181L-3.97079-8.84509-4.57513-1.83002C-4.57513-1.83002-8.46806 22.7412-8.46806 27.4369" fill-rule="evenodd" transform="matrix(1 0 0 -1 1886 1662)"/><path d="M-8.97336 25.3173C-8.97336 29.8013-11.1802 6.45257-10.0507-3.53186-8.97336-13.5399-9.73794-10.7644-9.73794-10.7644L-6.37032-9.11328-6.76651-2.43111C-6.76651-2.43111-8.97336 20.8907-8.97336 25.3173" fill-rule="evenodd" transform="matrix(1 0 0 -1 1965 1622)"/><path d="M-8.96294 15.613C-8.96294 18.8745-11.1733 1.82603-10.0403-5.48809-8.96294-12.7755-9.72751-10.7091-9.72751-10.7091L-6.3599-9.51069-6.75609-4.64685C-6.75609-4.64685-8.96294 12.3482-8.96294 15.613" fill-rule="evenodd" transform="matrix(1 0 0 -1 1957 1626)"/><path d="M-8.96982 18.4964C-8.96982 22.1102-11.214 3.1903-10.0518-4.88462-8.96982-12.9898-9.73766-10.7744-9.73766-10.7744L-6.38358-9.37592-6.78146-4.01057C-6.78146-4.01057-8.96982 14.8825-8.96982 18.4964" fill-rule="evenodd" transform="matrix(1 0 0 -1 1938 1632)"/><path d="M-8.83766 19.1266C-8.83766 22.8609-11.0384 3.3105-9.99341-5.03697-8.83766-13.4122-9.59893-11.1195-9.59893-11.1195L-6.27356-9.67445-6.66804-4.13031C-6.66804-4.13031-8.83766 15.3923-8.83766 19.1266" fill-rule="evenodd" transform="matrix(1 0 0 -1 1920 1642)"/><path d="M-8.98298 9.60422C-8.98298 12.1265-11.1896-1.09108-10.0568-6.76875-8.98298-12.4464-9.74749-10.8839-9.74749-10.8839L-6.38017-9.95107-6.77633-6.16596C-6.77633-6.16596-8.98298 7.08193-8.98298 9.60422" fill-rule="evenodd" transform="matrix(1 0 0 -1 1974 1618)"/><path d="M-8.3128 26.2485C-8.3128 30.7834-11.0837 6.84302-9.68312-3.41472-8.3128-13.6725-9.24543-10.8246-9.24543-10.8246L-5.07724-9.1376-5.5688-2.28101C-5.5688-2.28101-8.3128 21.6594-8.3128 26.2485" fill-rule="evenodd" transform="matrix(1 0 0 -1 1992 1614)"/><path d="M-8.29664 16.3187C-8.29664 19.6884-11.0891 2.04027-9.6643-5.56032-8.29664-13.1028-9.22745-10.9874-9.22745-10.9874L-5.06737-9.76047-5.55798-4.69569C-5.55798-4.69569-8.29664 12.9524-8.29664 16.3187" fill-rule="evenodd" transform="matrix(1 0 0 -1 2001 1612)"/><path d="M-8.33361 10.5457C-8.33361 13.1872-11.1014-0.67895-9.70402-6.65101-8.33361-12.5656-9.2663-10.9139-9.2663-10.9139L-5.09781-9.89713-5.53554-5.96192C-5.53554-5.96192-8.33361 7.90419-8.33361 10.5457" fill-rule="evenodd" transform="matrix(1 0 0 -1 2009 1611)"/><path d="M-8.33974 8.0623C-8.33974 10.4824-11.1107-2.1516-9.71006-7.53235-8.33974-12.9414-9.21849-11.4469-9.21849-11.4469L-5.10418-10.5531-5.59911-6.95647C-5.59911-6.95647-8.33974 5.67399-8.33974 8.0623" fill-rule="evenodd" transform="matrix(1 0 0 -1 2017 1611)"/><path d="M-8.34708 5.1441C-8.34708 7.18412-11.1182-3.55154-9.72086-8.14248-8.34708-12.7052-9.27977-11.4403-9.27977-11.4403L-5.11128-10.6687-5.60624-7.62454C-5.60624-7.62454-8.34708 3.1076-8.34708 5.1441" fill-rule="evenodd" transform="matrix(1 0 0 -1 2023 1611)"/><path d="M-8.38422 2.69894C-8.38422 4.37356-11.1306-4.43758-9.75741-8.22485-8.38422-11.9852-9.31879-10.9676-9.31879-10.9676L-5.13849-10.3375-5.63446-7.84073C-5.63446-7.84073-8.38422 0.99736-8.38422 2.69894" fill-rule="evenodd" transform="matrix(1 0 0 -1 2030 1611)"/><path d="M-8.31849 2.68467C-8.31849 4.36091-11.0712-4.45534-9.68147-8.24626-8.31849-12.0372-9.24277-10.968-9.24277-10.968L-5.07013-10.334-5.56241-7.83479C-5.56241-7.83479-8.31849 0.98483-8.31849 2.68467" fill-rule="evenodd" transform="matrix(1 0 0 -1 2037 1609)"/><path d="M-8.37065 0.465519C-8.37065 1.92759-11.1384-5.68622-9.74106-8.88623-8.37065-12.1173-9.2764-11.2449-9.2764-11.2449L-5.13485-10.7104-5.57257-8.5483C-5.57257-8.5483-8.37065-0.993106-8.37065 0.465519" fill-rule="evenodd" transform="matrix(1 0 0 -1 2044 1610)"/><path d="M-8.39892-2.78228C-8.39892-1.80411-11.2064-6.86986-9.77397-9.00758-8.39892-11.1712-9.33477-10.5914-9.33477-10.5914L-5.17922-10.2222-5.64546-8.79705C-5.64546-8.79705-8.39892-3.75721-8.39892-2.78228" fill-rule="evenodd" transform="matrix(1 0 0 -1 2053 1610)"/><path d="M330.658 5.41451C330.658 5.41451 220.132 112.404 175.197 133.339 120.813 158.706 68.1397 180.631 7.92079 180.631-11.1053 180.631-9.78351 183.63-9.78351 183.63-9.78351 183.63 55.3103 184.87 78.4371 178.898 101.594 172.876 154.491 151.968 176.269 139.97 198.05 128.003 296.46 52.4562 335.915 8.98815 375.401-34.3955 330.658 5.41451 330.658 5.41451" fill-rule="evenodd" transform="matrix(1 0 0 -1 1527 1594)"/><path d="M-6.16953 42.735C-6.16953 49.3712-4.51567 14.6755-5.32002-0.192698-6.16953-15.0338-5.61919-10.9026-5.61919-10.9026L-8.09998-8.39757-7.8234 1.48749C-7.8234 1.48749-6.16953 36.1528-6.16953 42.735" fill-rule="evenodd" transform="matrix(1 0 0 -1 1616 1408)"/><path d="M-4.0305 42.7473C-4.0305 49.3285 0.393141 14.6504-1.79311-0.196151-4.0305-15.0157-2.573-10.9134-2.573-10.9134L-9.18608-8.4311-8.45733 1.4576C-8.45733 1.4576-4.0305 36.1628-4.0305 42.7473" fill-rule="evenodd" transform="matrix(1 0 0 -1 1625 1410)"/><path d="M-4.05111 56.6203C-4.05111 64.9026 0.377294 21.3903-1.80973 2.77531-4.05111-15.8934-2.59309-10.6717-2.59309-10.6717L-9.20532-7.61112-8.47631 4.82574C-8.47631 4.82574-4.05111 48.3413-4.05111 56.6203" fill-rule="evenodd" transform="matrix(1 0 0 -1 1642 1418)"/><path d="M-4.59166 68.3864C-4.59166 78.0932 0.388331 27.0541-2.0711 5.13869-4.59166-16.726-2.95204-10.6184-2.95204-10.6184L-10.3879-6.96187-9.56805 7.58648C-9.56805 7.58648-4.59166 58.6222-4.59166 68.3864" fill-rule="evenodd" transform="matrix(1 0 0 -1 1672 1431)"/><path d="M-4.10901 77.1556C-4.10901 87.9682 0.333597 31.2502-1.91497 6.93958-4.10901-17.3711-2.64632-10.6357-2.64632-10.6357L-9.28296-6.58902-8.55162 9.60105C-8.55162 9.60105-4.10901 66.3463-4.10901 77.1556" fill-rule="evenodd" transform="matrix(1 0 0 -1 1686 1439)"/><path d="M-4.12524 66.3587C-4.12524 75.8448 0.317573 26.0503-1.9311 4.69721-4.12524-16.6593-2.66248-10.685-2.66248-10.685L-9.29942-7.17318-8.56804 7.07468C-8.56804 7.07468-4.12524 56.8692-4.12524 66.3587" fill-rule="evenodd" transform="matrix(1 0 0 -1 1701 1443)"/><path d="M-4.64745 74.2862C-4.64745 84.7327 0.33453 29.881-2.12588 6.37212-4.64745-17.0826-3.03595-10.5785-3.03595-10.5785L-10.446-6.66653-9.6582 9.01843C-9.6582 9.01843-4.64745 63.8126-4.64745 74.2862" fill-rule="evenodd" transform="matrix(1 0 0 -1 1718 1451)"/><path d="M-4.13898 58.5913C-4.13898 67.1055 0.287651 22.3393-1.90169 3.16965-4.13898-15.973-2.68155-10.6723-2.68155-10.6723L-9.29433-7.45879-8.56562 5.33783C-8.56562 5.33783-4.13898 50.0771-4.13898 58.5913" fill-rule="evenodd" transform="matrix(1 0 0 -1 1729 1457)"/><path d="M-4.67623 66.3941C-4.67623 75.8848 0.305753 26.0841-2.15466 4.72497-4.67623-16.6036-3.03235-10.6558-3.03235-10.6558L-10.4747-7.1435-9.62583 7.10614C-9.62583 7.10614-4.67623 56.9068-4.67623 66.3941" fill-rule="evenodd" transform="matrix(1 0 0 -1 1742 1470)"/><path d="M-4.18752 79.2375C-4.18752 90.3241 0.227653 32.2847-1.96551 7.47115-4.18752-17.3458-2.75107-10.5077-2.75107-10.5077L-9.3562-6.3168-8.6508 10.2267C-8.6508 10.2267-4.18752 68.2119-4.18752 79.2375" fill-rule="evenodd" transform="matrix(1 0 0 -1 1761 1483)"/><path d="M-4.70672 56.5917C-4.70672 64.8615 0.27327 21.367-2.18976 2.72944-4.70672-15.9081-3.0671-10.7073-3.0671-10.7073L-10.5065-7.61119-9.68671 4.80367C-9.68671 4.80367-4.70672 48.2981-4.70672 56.5917" fill-rule="evenodd" transform="matrix(1 0 0 -1 1771 1492)"/><path d="M-4.7247 56.6111C-4.7247 64.8784 0.255292 21.4066-2.20773 2.7433-4.7247-15.869-3.08508-10.6982-3.08508-10.6982L-10.5245-7.60179-9.70468 4.81436C-9.70468 4.81436-4.7247 48.3133-4.7247 56.6111" fill-rule="evenodd" transform="matrix(1 0 0 -1 1786 1506)"/><path d="M-4.21569 55.8031C-4.21569 63.979 0.210944 21.0922-1.97521 2.72643-4.21569-15.6393-2.75826-10.5143-2.75826-10.5143L-9.37104-7.46338-8.64232 4.77041C-8.64232 4.77041-4.21569 47.6305-4.21569 55.8031" fill-rule="evenodd" transform="matrix(1 0 0 -1 1802 1519)"/><path d="M-4.76065 56.6429C-4.76065 64.9365 0.21574 21.4418-2.24369 2.78037-4.76065-15.8301-3.09227-10.6598-3.09227-10.6598L-10.5605-7.5637-9.74064 4.85122C-9.74064 4.85122-4.76065 48.3765-4.76065 56.6429" fill-rule="evenodd" transform="matrix(1 0 0 -1 1818 1534)"/><path d="M-4.24784 56.6577C-4.24784 64.9559 0.178991 21.4822-2.00726 2.84188-4.24784-15.795-2.79034-10.6511-2.79034-10.6511L-9.40342-7.52743-8.67467 4.88926C-8.67467 4.88926-4.24784 48.363-4.24784 56.6577" fill-rule="evenodd" transform="matrix(1 0 0 -1 1832 1547)"/><path d="M-4.27902 55.8587C-4.27902 64.0321 0.163591 21.1678-2.08498 2.77353-4.27902-15.5639-2.81632-10.4685-2.81632-10.4685L-9.45297-7.41728-8.71842 4.81772C-8.71842 4.81772-4.27902 47.682-4.27902 55.8587" fill-rule="evenodd" transform="matrix(1 0 0 -1 1847 1560)"/><path d="M-4.81459 56.6972C-4.81459 64.9942 0.1654 21.469-2.29403 2.83469-4.81459-15.7758-3.17497-10.6055-3.17497-10.6055L-10.6108-7.50599-9.79098 4.90894C-9.79098 4.90894-4.81459 48.4036-4.81459 56.6972" fill-rule="evenodd" transform="matrix(1 0 0 -1 1862 1574)"/><path d="M-6.28649 41.7243C-6.28649 48.2202-3.51924 14.1932-4.89132-0.431022-6.28649-15.0247-5.37287-10.9351-5.37287-10.9351L-9.51219-8.52881-9.02734 1.20143C-9.02734 1.20143-6.28649 35.2556-6.28649 41.7243" fill-rule="evenodd" transform="matrix(1 0 0 -1 1656 1418)"/><path d="M-5.74571 28.7505C-5.74571 33.684-1.86386 7.85984-3.82091-3.24653-5.74571-14.3219-4.46251-11.2372-4.46251-11.2372L-10.2727-9.38842-9.63114-2.01058C-9.63114-2.01058-5.74571 23.8136-5.74571 28.7505" fill-rule="evenodd" transform="matrix(1 0 0 -1 1601 1408)"/><path d="M-5.77842 20.0851C-5.77842 23.9179-1.85786 3.73463-3.84869-4.89937-5.77842-13.53-4.49193-11.1328-4.49193-11.1328L-10.2883-9.69717-9.64149-3.93439C-9.64149-3.93439-5.77842 16.2522-5.77842 20.0851" fill-rule="evenodd" transform="matrix(1 0 0 -1 1591 1405)"/><path d="M-5.76405 16.0888C-5.76405 19.4434-1.84349 1.79294-3.83431-5.74626-5.76405-13.3093-4.44881-11.2306-4.44881-11.2306L-10.274-9.95814-9.62711-4.91273C-9.62711-4.91273-5.76405 12.7377-5.76405 16.0888" fill-rule="evenodd" transform="matrix(1 0 0 -1 1579 1403)"/><path d="M-4.89417 8.51653C-4.89417 10.9172-1.5638-1.65231-3.24127-7.09931-4.89417-12.4404-3.79121-11.0099-3.79121-11.0099L-8.77141-10.0927-8.22147-6.5066C-8.22147-6.5066-4.89417 6.08938-4.89417 8.51653" fill-rule="evenodd" transform="matrix(1 0 0 -1 1569 1400)"/><path d="M-4.8891 8.5032C-4.8891 10.9066-1.5815-1.67744-3.23376-7.07772-4.8891-12.478-3.80913-11.0194-3.80913-11.0194L-8.77207-10.1011-8.24593-6.50752C-8.24593-6.50752-4.8891 6.09976-4.8891 8.5032" fill-rule="evenodd" transform="matrix(1 0 0 -1 1556 1400)"/><path d="M-4.88266 5.38407C-4.88266 7.41319-1.54854-3.27419-3.251-7.90785-4.88266-12.4843-3.77745-11.1955-3.77745-11.1955L-8.76786-10.4013-8.21679-7.38627C-8.21679-7.38627-4.88266 3.35831-4.88266 5.38407" fill-rule="evenodd" transform="matrix(1 0 0 -1 1548 1401)"/><path d="M-5.67373 0.502795C-5.67373 1.95084-1.79208-5.638-3.74903-8.85924-5.67373-12.0805-4.41927-11.209-4.41927-11.209L-10.2005-10.6626-9.55538-8.50729C-9.55538-8.50729-5.67373-0.941902-5.67373 0.502795" fill-rule="evenodd" transform="matrix(1 0 0 -1 1539 1400)"/><path d="M224.434 0.519223C224.434 0.519223 148.396 74.0331 117.446 88.45 80.0581 105.888 43.8526 120.908 2.42181 120.908-10.6735 120.908-9.73789 122.968-9.73789 122.968-9.73789 122.968 35.0199 123.821 50.9221 119.728 66.8513 115.581 103.195 101.222 118.216 92.9814 133.179 84.7986 200.858 32.8426 228.065 2.99059 255.192-26.885 224.434 0.519223 224.434 0.519223" fill-rule="evenodd" transform="matrix(1 0 0 -1 1547 1775)"/><path d="M-6.15727 26.294C-6.15727 30.8263-2.82674 6.88159-4.506-3.37799-6.15727-13.607-5.07625-10.7858-5.07625-10.7858L-10.0335-9.07473-9.49129-2.24407C-9.49129-2.24407-6.15727 21.704-6.15727 26.294" fill-rule="evenodd" transform="matrix(1 0 0 -1 1608 1648)"/><path d="M-5.14594 36.1561C-5.14594 41.9001-2.36742 11.6576-3.7698-1.32241-5.14594-14.3024-4.24504-10.6573-4.24504-10.6573L-8.37637-8.50073-7.92446 0.115287C-7.92446 0.115287-5.14594 30.4121-5.14594 36.1561" fill-rule="evenodd" transform="matrix(1 0 0 -1 1624 1655)"/><path d="M-5.16052 44.0409C-5.16052 50.7745-2.382 15.4733-3.78438 0.349047-5.16052-14.7786-4.21005-10.5832-4.21005-10.5832L-8.39095-8.04164-7.93904 2.03328C-7.93904 2.03328-5.16052 37.3074-5.16052 44.0409" fill-rule="evenodd" transform="matrix(1 0 0 -1 1639 1662)"/><path d="M-6.20624 49.9018C-6.20624 57.3603-2.87572 18.2634-4.55498 1.5455-6.20624-15.2303-5.12522-10.57-5.12522-10.57L-10.0825-7.79896-9.54376 3.43141C-9.54376 3.43141-6.20624 42.4432-6.20624 49.9018" fill-rule="evenodd" transform="matrix(1 0 0 -1 1652 1666)"/><path d="M-6.22024 42.9254C-6.22024 49.524-2.88622 14.8246-4.56897 0.0308989-6.22024-14.8177-5.07974-10.7356-5.07974-10.7356L-10.0965-8.24657-9.55426 1.68227C-9.55426 1.68227-6.22024 36.2993-6.22024 42.9254" fill-rule="evenodd" transform="matrix(1 0 0 -1 1663 1671)"/><path d="M-5.20679 47.9981C-5.20679 55.2312-2.42848 17.3845-3.82784 1.20665-5.20679-14.9983-4.30304-10.5277-4.30304-10.5277L-8.43699-7.82287-7.98511 2.99967C-7.98511 2.99967-5.20679 40.765-5.20679 47.9981" fill-rule="evenodd" transform="matrix(1 0 0 -1 1687 1683)"/><path d="M-6.23811 37.2201C-6.23811 43.0796-2.90389 12.2153-4.58324-0.986143-6.23811-14.245-5.15352-10.5875-5.15352-10.5875L-10.1146-8.35857-9.57233 0.472808C-9.57233 0.472808-6.23811 31.3337-6.23811 37.2201" fill-rule="evenodd" transform="matrix(1 0 0 -1 1678 1680)"/><path d="M-6.25872 42.1637C-6.25872 48.6735-2.9247 14.5973-4.60396 0.0438257-6.25872-14.5636-5.1742-10.5013-5.1742-10.5013L-10.1315-8.05718-9.59274 1.662C-9.59274 1.662-6.25872 35.6842-6.25872 42.1637" fill-rule="evenodd" transform="matrix(1 0 0 -1 1695 1690)"/><path d="M-6.28009 35.3458C-6.28009 40.9563-2.94587 11.3754-4.62872-1.3203-6.28009-14.016-5.199-10.512-5.199-10.512L-10.1566-8.40559-9.61431 0.104146C-9.61431 0.104146-6.28009 29.7085-6.28009 35.3458" fill-rule="evenodd" transform="matrix(1 0 0 -1 1715 1705)"/><path d="M-6.31988 36.1081C-6.31988 41.8878-3.0001 11.6212-4.68634-1.33353-6.31988-14.2883-5.23085-10.7162-5.23085-10.7162L-10.2088-8.50852-9.69587 0.116555C-9.69587 0.116555-6.31988 30.3866-6.31988 36.1081" fill-rule="evenodd" transform="matrix(1 0 0 -1 1725 1715)"/><path d="M-5.25382 35.3565C-5.25382 41.0202-2.4753 11.4182-3.87476-1.33364-5.25382-14.0284-4.30335-10.4709-4.30335-10.4709L-8.48424-8.36462-8.03233 0.0907007C-8.03233 0.0907007-5.25382 29.6961-5.25382 35.3565" fill-rule="evenodd" transform="matrix(1 0 0 -1 1736 1724)"/><path d="M-6.30038 35.385C-6.30038 40.9942-2.97392 11.4199-4.62493-1.29986-6.30038-13.9961-5.13455-10.466-5.13455-10.466L-10.1679-8.33319-9.59892 0.120917C-9.59892 0.120917-6.30038 29.7758-6.30038 35.385" fill-rule="evenodd" transform="matrix(1 0 0 -1 1746 1733)"/><path d="M-6.32907 36.1441C-6.32907 41.9264-2.99485 11.6742-4.67421-1.31695-6.32907-14.2773-5.24449-10.6728-5.24449-10.6728L-10.2021-8.49502-9.66329 0.109746C-9.66329 0.109746-6.32907 30.3619-6.32907 36.1441" fill-rule="evenodd" transform="matrix(1 0 0 -1 1756 1743)"/><path d="M-6.33957 35.4088C-6.33957 41.018-3.00535 11.4469-4.6882-1.27636-6.33957-13.9694-5.25848-10.4392-5.25848-10.4392L-10.2161-8.33326-9.67379 0.147788C-9.67379 0.147788-6.33957 29.7492-6.33957 35.4088" fill-rule="evenodd" transform="matrix(1 0 0 -1 1767 1752)"/><path d="M-6.35356 36.1681C-6.35356 41.9504-3.01934 11.6982-4.6987-1.28951-6.35356-14.2498-5.26898-10.6488-5.26898-10.6488L-10.2266-8.46758-9.68778 0.161189C-9.68778 0.161189-6.35356 30.3859-6.35356 36.1681" fill-rule="evenodd" transform="matrix(1 0 0 -1 1777 1762)"/><path d="M-6.30088 27.4638C-6.30088 32.1636-2.93691 7.54778-4.62064-2.94531-6.30088-13.5189-5.21923-10.5669-5.21923-10.5669L-10.1514-8.84599-9.60884-1.82488C-9.60884-1.82488-6.30088 22.7943-6.30088 27.4638" fill-rule="evenodd" transform="matrix(1 0 0 -1 1705 1697)"/><path d="M-6.32811 15.6643C-6.32811 18.9259-4.66554 1.89425-5.50833-5.33259-6.32811-12.6662-5.76721-10.6819-5.76721-10.6819L-8.27256-9.40791-7.99067-4.57222C-7.99067-4.57222-6.32811 12.4594-6.32811 15.6643" fill-rule="evenodd" transform="matrix(1 0 0 -1 1634 1657)"/><path d="M-8.4835 19.1797C-8.4835 22.9115-6.26674 3.37424-7.39046-4.96763-8.4835-13.3373-7.7318-11.0739-7.7318-11.0739L-11.0761-9.60547-10.7003-4.09282C-10.7003-4.09282-8.4835 15.4201-8.4835 19.1797" fill-rule="evenodd" transform="matrix(1 0 0 -1 1670 1674)"/><path d="M-6.3048 9.64043C-6.3048 12.1651-4.64383-1.06854-5.48581-6.7483-6.3048-12.4314-5.74444-10.8404-5.74444-10.8404L-8.2474-9.90673-7.96865-6.14493C-7.96865-6.14493-6.3048 7.11572-6.3048 9.64043" fill-rule="evenodd" transform="matrix(1 0 0 -1 1617 1653)"/><path d="M-5.8422 26.2867C-5.8422 30.8742-3.63776 6.88469-4.73851-3.36939-5.8422-13.6235-5.09757-10.7766-5.09757-10.7766L-8.43219-9.06308-8.04663-2.23608C-8.04663-2.23608-5.8422 21.7534-5.8422 26.2867" fill-rule="evenodd" transform="matrix(1 0 0 -1 1599 1647)"/><path d="M-5.95495 10.5896C-5.95495 13.2311-3.72259-0.635038-4.83728-6.58007-5.95495-12.5217-5.22772-10.87-5.22772-10.87L-8.52708-9.85322-8.18731-5.91801C-8.18731-5.91801-5.95495 7.9481-5.95495 10.5896" fill-rule="evenodd" transform="matrix(1 0 0 -1 1589 1645)"/><path d="M-7.33354 2.74069C-7.33354 4.41274-4.53453-4.39926-5.94881-8.21532-7.33354-12.0044-6.36976-10.9054-6.36976-10.9054L-10.5498-10.2751-10.0698-7.77708C-10.0698-7.77708-7.33354 1.06526-7.33354 2.74069" fill-rule="evenodd" transform="matrix(1 0 0 -1 1576 1643)"/><path d="M-7.20646 2.73732C-7.20646 4.40937-4.49029-4.40263-5.83555-8.19173-7.20646-12.0078-6.31207-10.9088-6.31207-10.9088L-10.4615-10.2784-9.98494-7.78045C-9.98494-7.78045-7.20646 1.03155-7.20646 2.73732" fill-rule="evenodd" transform="matrix(1 0 0 -1 1566 1642)"/><path d="M-7.25137-2.7435C-7.25137-1.81927-4.4921-6.8393-5.87173-8.97638-7.25137-11.1426-6.35001-10.5622-6.35001-10.5622L-10.4852-10.1925-10.007-8.76559C-10.007-8.76559-7.25137-3.72286-7.25137-2.7435" fill-rule="evenodd" transform="matrix(1 0 0 -1 1555 1642)"/><path d="M-10.1495-7.61247C-10.1495-7.61247 101.373 119.467 137.246 140.419 180.63 165.819 222.663 187.729 270.695 187.729 285.935 187.729 284.834 190.723 284.834 190.723 284.834 190.723 232.924 191.96 214.466 185.973 195.951 179.989 152.789 157.087 135.432 145.085 118.018 133.114 50.234 70.4238 22.67 22.0148-4.86702-26.3132-10.1495-7.61247-10.1495-7.61247" fill-rule="evenodd" transform="matrix(1 0 0 -1 1884 1651)"/><path d="M-9.40169 42.8351C-9.40169 49.4555-11.0661 14.7888-10.2737-0.0708241-9.40169-14.9338-9.96572-10.8125-9.96572-10.8125L-7.48467-8.3134-7.7961 1.57499C-7.7961 1.57499-9.40169 36.2147-9.40169 42.8351" fill-rule="evenodd" transform="matrix(1 0 0 -1 2108 1458)"/><path d="M-6.97466 42.8351C-6.97466 49.4555-10.3071 14.7888-8.64089-0.0708241-6.97466-14.9338-8.10252-10.8125-8.10252-10.8125L-3.10386-8.3134-3.64523 1.57499C-3.64523 1.57499-6.97466 36.2147-6.97466 42.8351" fill-rule="evenodd" transform="matrix(1 0 0 -1 2098 1458)"/><path d="M-6.98826 57.5404C-6.98826 65.9462-10.3242 21.8157-8.6306 2.90265-6.98826-16.0104-8.06708-10.7313-8.06708-10.7313L-3.10991-7.57745-3.64932 5.00411C-3.64932 5.00411-6.98826 49.1075-6.98826 57.5404" fill-rule="evenodd" transform="matrix(1 0 0 -1 2083 1469)"/><path d="M-8.16635 68.4821C-8.16635 78.2157-12.0251 27.1269-10.124 5.29945-8.16635-16.6121-9.51975-10.5248-9.51975-10.5248L-3.6503-6.87515-4.28283 7.68656C-4.28283 7.68656-8.16635 58.7451-8.16635 68.4821" fill-rule="evenodd" transform="matrix(1 0 0 -1 2054 1484)"/><path d="M-8.05685 66.4661C-8.05685 75.925-11.9033 26.1922-9.99581 4.8158-8.05685-16.5065-9.36582-10.6036-9.36582-10.6036L-3.52443-6.99002-4.17892 7.21354C-4.17892 7.21354-8.05685 57.0039-8.05685 66.4661" fill-rule="evenodd" transform="matrix(1 0 0 -1 2035 1493)"/><path d="M-8.09085 75.2388C-8.09085 85.8077-11.9339 30.3475-10.0405 6.59744-8.09085-17.2107-9.41058-10.5928-9.41058-10.5928L-3.56504-6.64183-4.19499 9.20978C-4.19499 9.20978-8.09085 64.6699-8.09085 75.2388" fill-rule="evenodd" transform="matrix(1 0 0 -1 2018 1505)"/><path d="M-8.03143 63.4796C-8.03143 72.6249-11.9191 24.6869-9.97525 4.17799-8.03143-16.3547-9.34719-10.6457-9.34719-10.6457L-3.51572-7.26385-4.20343 6.47793C-4.20343 6.47793-8.03143 54.3377-8.03143 63.4796" fill-rule="evenodd" transform="matrix(1 0 0 -1 2005 1514)"/><path d="M-8.02132 65.6649C-8.02132 75.0074-11.9092 25.9008-9.96524 4.79496-8.02132-16.2574-9.33715-10.4292-9.33715-10.4292L-3.50889-6.86141-4.13698 7.13894C-4.13698 7.13894-8.02132 56.3224-8.02132 65.6649" fill-rule="evenodd" transform="matrix(1 0 0 -1 1997 1523)"/><path d="M-8.01038 79.3378C-8.01038 90.3992-11.8945 32.3802-9.95069 7.56563-8.01038-17.303-9.32263-10.396-9.32263-10.396L-3.49467-6.29907-4.12273 10.3183C-4.12273 10.3183-8.01038 68.2798-8.01038 79.3378" fill-rule="evenodd" transform="matrix(1 0 0 -1 1985 1533)"/><path d="M-8.00026 56.6868C-8.00026 64.96-11.8846 21.4637-9.94419 2.81757-8.00026-15.8014-9.3161-10.6167-9.3161-10.6167L-3.48432-7.52821-4.16856 4.91382C-4.16856 4.91382-8.00026 48.4101-8.00026 56.6868" fill-rule="evenodd" transform="matrix(1 0 0 -1 1977 1542)"/><path d="M-7.98623 56.7037C-7.98623 64.9803-11.8741 21.4806-9.93015 2.83451-7.98623-15.7845-9.29855-10.5964-9.29855-10.5964L-3.47029-7.4537-4.09838 4.93076C-4.09838 4.93076-7.98623 48.4305-7.98623 56.7037" fill-rule="evenodd" transform="matrix(1 0 0 -1 1965 1556)"/><path d="M-6.83331 56.7219C-6.83331 64.9997-10.1657 21.5209-8.49953 2.87217-6.83331-15.7461-7.96116-10.5877-7.96116-10.5877L-2.9625-7.4717-3.54899 4.94162C-3.54899 4.94162-6.83331 48.4204-6.83331 56.7219" fill-rule="evenodd" transform="matrix(1 0 0 -1 1953 1570)"/><path d="M-6.85954 56.7409C-6.85954 65.0176-10.1536 21.5179-8.53069 2.87176-6.85954-15.7473-7.99073-10.5591-7.99073-10.5591L-2.97729-7.47064-3.52027 4.96801C-3.52027 4.96801-6.85954 48.4677-6.85954 56.7409" fill-rule="evenodd" transform="matrix(1 0 0 -1 1941 1583)"/><path d="M-6.80884 56.7613C-6.80884 65.0345-10.1411 21.5382-8.47496 2.89208-6.80884-15.7269-7.93663-10.5422-7.93663-10.5422L-2.93827-7.4537-3.4766 4.98833C-3.4766 4.98833-6.80884 48.4846-6.80884 56.7613" fill-rule="evenodd" transform="matrix(1 0 0 -1 1929 1597)"/><path d="M-7.92968 56.7734C-7.92968 65.0533-11.8173 21.5365-9.8735 2.91015-7.92968-15.7162-9.24544-10.526-9.24544-10.526L-3.41397-7.4363-4.10168 4.98012C-4.10168 4.98012-7.92968 48.4969-7.92968 56.7734" fill-rule="evenodd" transform="matrix(1 0 0 -1 1916 1611)"/><path d="M-7.91564 56.7982C-7.91564 65.0714-11.8033 21.5753-9.85946 2.92931-7.91564-15.6896-9.20334-10.5049-9.20334-10.5049L-3.39994-7.41641-4.02799 5.02555C-4.02799 5.02555-7.91564 48.4674-7.91564 56.7982" fill-rule="evenodd" transform="matrix(1 0 0 -1 1904 1624)"/><path d="M-6.74832 56.8118C-6.74832 65.085-10.0626 21.5584-8.40396 2.94286-6.74832-15.6761-7.8441-10.4913-7.8441-10.4913L-2.86819-7.40287-3.40709 5.00862C-3.40709 5.00862-6.74832 48.5352-6.74832 56.8118" fill-rule="evenodd" transform="matrix(1 0 0 -1 1897 1634)"/><path d="M-7.8985 56.8222C-7.8985 65.0988-11.7864 21.5991-9.84243 2.95303-7.8985-15.6626-9.21434-10.4779-9.21434-10.4779L-3.38257-7.38936-4.07031 5.04928C-4.07031 5.04928-7.8985 48.549-7.8985 56.8222" fill-rule="evenodd" transform="matrix(1 0 0 -1 1889 1644)"/><path d="M-8.61056 41.8319C-8.61056 48.3102-10.7997 14.2903-9.7184-0.291087-8.61056-14.8759-9.34027-10.8514-9.34027-10.8514L-6.01678-8.39751-6.36837 1.33358C-6.36837 1.33358-8.61056 35.3535-8.61056 41.8319" fill-rule="evenodd" transform="matrix(1 0 0 -1 2076 1471)"/><path d="M-8.59497 28.0324C-8.59497 32.8148-10.8409 7.60293-9.70464-3.18033-8.59497-13.9602-9.32589-11.0039-9.32589-11.0039L-6.02345-9.17782-6.34905-1.96183C-6.34905-1.96183-8.59497 23.25-8.59497 28.0324" fill-rule="evenodd" transform="matrix(1 0 0 -1 2066 1477)"/><path d="M-8.58071 31.9895C-8.58071 37.2884-10.7665 9.55417-9.68854-2.36821-8.58071-14.233-9.31042-10.9229-9.31042-10.9229L-5.98693-8.90706-6.33852-1.0435C-6.33852-1.0435-8.58071 26.6907-8.58071 31.9895" fill-rule="evenodd" transform="matrix(1 0 0 -1 2047 1484)"/><path d="M-8.49786 32.0114C-8.49786 37.2806-10.7288 9.54548-9.60011-2.35164-8.49786-14.2183-9.2767-10.9077-9.2767-10.9077L-5.91715-8.94571-6.26697-1.02672C-6.26697-1.02672-8.49786 26.7117-8.49786 32.0114" fill-rule="evenodd" transform="matrix(1 0 0 -1 2029 1497)"/><path d="M-8.60547 18.4706C-8.60547 22.0504-10.8437 3.15006-9.68487-4.97795-8.60547-13.0564-9.3339-10.7955-9.3339-10.7955L-6.01621-9.44686-6.36718-4.06235C-6.36718-4.06235-8.60547 14.8876-8.60547 18.4706" fill-rule="evenodd" transform="matrix(1 0 0 -1 2092 1465)"/><path d="M-9.48127 42.8295C-9.48127 49.4511-12.7793 14.751-11.1284-0.111316-9.48127-14.9736-10.5398-10.7976-10.5398-10.7976L-5.58711-8.40938-6.14888 1.56516C-6.14888 1.56516-9.48127 36.1809-9.48127 42.8295" fill-rule="evenodd" transform="matrix(1 0 0 -1 2113 1458)"/><path d="M-9.55044 28.8354C-9.55044 33.7885-12.8738 7.892-11.241-3.16574-9.55044-14.251-10.6788-11.1437-10.6788-11.1437L-5.69176-9.29785-6.254-1.96269C-6.254-1.96269-9.55044 23.9338-9.55044 28.8354" fill-rule="evenodd" transform="matrix(1 0 0 -1 2123 1458)"/><path d="M-7.97851 16.1913C-7.97851 19.5361-10.7137 1.90985-9.33492-5.66171-7.97851-13.2061-8.91584-11.1334-8.91584-11.1334L-4.72184-9.86134-5.19211-4.83399C-5.19211-4.83399-7.97851 12.8499-7.97851 16.1913" fill-rule="evenodd" transform="matrix(1 0 0 -1 2133 1452)"/><path d="M-7.99577 11.6572C-7.99577 14.4053-10.738-0.0818856-9.38132-6.26916-7.99577-12.5121-8.90985-10.7794-8.90985-10.7794L-4.75641-9.76404-5.22788-5.60425C-5.22788-5.60425-7.99577 8.90915-7.99577 11.6572" fill-rule="evenodd" transform="matrix(1 0 0 -1 2143 1450)"/><path d="M-7.98042 8.59078C-7.98042 10.989-10.743-1.59113-9.3633-7.00957-7.98042-12.4247-8.89274-10.913-8.89274-10.913L-4.74727-9.99997-5.21784-6.41414C-5.21784-6.41414-7.98042 6.1925-7.98042 8.59078" fill-rule="evenodd" transform="matrix(1 0 0 -1 2152 1450)"/><path d="M-7.99322 0.601673C-7.99322 2.04569-10.7558-5.52202-9.37611-8.76437-7.99322-12.0034-8.93115-11.1042-8.93115-11.1042L-4.76008-10.6128-5.23065-8.37997C-5.23065-8.37997-7.99322-0.838999-7.99322 0.601673" fill-rule="evenodd" transform="matrix(1 0 0 -1 2164 1450)"/><path d="M-7.94212-10.8365C-7.94212-10.8365 64.3683 74.4791 89.0599 88.9142 118.956 106.461 149.153 124.918 182.266 124.918 192.726 124.918 191.983 126.984 191.983 126.984 191.983 126.984 156.227 127.836 143.509 123.703 130.764 119.547 101.669 105.139 89.6952 96.8184 77.7483 88.5557 28.9161 41.1172 5.573 13.5964-17.7971-13.9786-7.94212-10.8365-7.94212-10.8365" fill-rule="evenodd" transform="matrix(1 0 0 -1 1793 1813)"/><path d="M-9.15162 26.3674C-9.15162 30.9419-11.9342 6.93951-10.5282-3.31242-9.15162-13.5373-10.0767-10.6985-10.0767-10.6985L-5.92121-9.01696-6.36906-2.18234C-6.36906-2.18234-9.15162 21.793-9.15162 26.3674" fill-rule="evenodd" transform="matrix(1 0 0 -1 1938 1682)"/><path d="M-7.26966 36.2272C-7.26966 42.0121-9.47975 11.7185-8.36156-1.25096-7.26966-14.1934-8.00538-10.5858-8.00538-10.5858L-4.6771-8.41188-5.05664 0.209621C-5.05664 0.209621-7.26966 30.4998-7.26966 36.2272" fill-rule="evenodd" transform="matrix(1 0 0 -1 1928 1690)"/><path d="M-9.12291 44.1202C-9.12291 50.8643-11.9057 15.5289-10.4996 0.446-9.12291-14.6876-10.0517-10.5047-10.0517-10.5047L-5.89226-7.97394-6.34382 2.15229C-6.34382 2.15229-9.12291 37.3795-9.12291 44.1202" fill-rule="evenodd" transform="matrix(1 0 0 -1 1914 1697)"/><path d="M-9.11665 42.2211C-9.11665 48.7089-11.9076 14.6765-10.5269 0.0571464-9.11665-14.4816-10.0777-10.4578-10.0777-10.4578L-5.90962-7.99377-6.32937 1.67069C-6.32937 1.67069-9.11665 35.7602-9.11665 42.2211" fill-rule="evenodd" transform="matrix(1 0 0 -1 1900 1704)"/><path d="M-6.61322 44.9508C-6.61322 52.1937-10.1211 17.5269-8.91051 1.27277-7.77425-14.9813-8.50492-10.5012-8.50492-10.5012L-6.16119-7.71129C-6.16119-7.71129-6.61322 37.7079-6.61322 44.9508" fill-rule="evenodd" transform="matrix(1 0 0 -1 1890 1711)"/><path d="M-7.2683 37.285C-7.2683 43.1576-9.49138 12.298-8.36956-0.937182-7.2683-14.1724-8.00835-10.5214-8.00835-10.5214L-4.68402-8.29642-5.04229 0.519159C-5.04229 0.519159-7.2683 31.4091-7.2683 37.285" fill-rule="evenodd" transform="matrix(1 0 0 -1 1883 1715)"/><path d="M-7.23011 40.2174C-7.23011 46.4385-9.4498 13.6695-8.35167-0.375294-7.23011-14.4201-7.96805-10.5082-7.96805-10.5082L-4.65315-8.16857-5.01041 1.22055C-5.01041 1.22055-7.23011 33.9929-7.23011 40.2174" fill-rule="evenodd" transform="matrix(1 0 0 -1 1878 1720)"/><path d="M-9.12446 42.2489C-9.12446 48.713-11.9235 14.6637-10.5092 0.0908071-9.12446-14.4821-10.0882-10.4294-10.0882-10.4294L-5.90819-7.99103-6.32915 1.70516C-6.32915 1.70516-9.12446 35.7545-9.12446 42.2489" fill-rule="evenodd" transform="matrix(1 0 0 -1 1872 1724)"/><path d="M-9.06352 51.9424C-9.06352 59.6123-11.8424 19.2873-10.4401 2.00277-9.06352-15.2545-9.98859-10.5017-9.98859-10.5017L-5.8331-7.61189-6.28096 3.92024C-6.28096 3.92024-9.06352 44.2725-9.06352 51.9424" fill-rule="evenodd" transform="matrix(1 0 0 -1 1864 1733)"/><path d="M-7.24253 36.1813C-7.24253 41.9454-9.4658 11.7026-8.34095-1.2718-7.24253-14.1949-7.98264-10.6564-7.98264-10.6564L-4.65801-8.43079-5.01632 0.174359C-5.01632 0.174359-7.24253 30.4138-7.24253 36.1813" fill-rule="evenodd" transform="matrix(1 0 0 -1 1855 1742)"/><path d="M-9.04215 35.4243C-9.04215 41.0732-11.8249 11.4652-10.4188-1.22626-9.04215-13.9412-9.97096-10.4199-9.97096-10.4199L-5.81517-8.29236-6.20432 0.194326C-6.20432 0.194326-9.04215 29.7754-9.04215 35.4243" fill-rule="evenodd" transform="matrix(1 0 0 -1 1848 1749)"/><path d="M-7.22719 36.1968C-7.22719 41.9633-9.45026 11.711-8.32551-1.24498-7.22719-14.1976-7.96724-10.6336-7.96724-10.6336L-4.64291-8.43098-4.95419 0.205216C-4.95419 0.205216-7.22719 30.4302-7.22719 36.1968" fill-rule="evenodd" transform="matrix(1 0 0 -1 1840 1759)"/><path d="M-9.02314 35.4558C-9.02314 41.1022-11.8057 11.477-10.3997-1.20564-9.02314-13.8883-9.95188-10.3986-9.95188-10.3986L-5.79272-8.24187-6.24425 0.187543C-6.24425 0.187543-9.02314 29.8094-9.02314 35.4558" fill-rule="evenodd" transform="matrix(1 0 0 -1 1831 1768)"/><path d="M-9.00846 35.4545C-9.00846 41.1301-11.791 11.5222-10.3851-1.19611-9.00846-13.8843-9.9372-10.3897-9.9372-10.3897L-5.78171-8.2354-6.22956 0.22448C-6.22956 0.22448-9.00846 29.8056-9.00846 35.4545" fill-rule="evenodd" transform="matrix(1 0 0 -1 1820 1776)"/><path d="M-9.00176 36.2309C-9.00176 42.0024-11.7809 11.7244-10.3785-1.24261-9.00176-14.2062-9.9269-10.581-9.9269-10.581L-5.77111-8.4347-6.219 0.208814C-6.219 0.208814-9.00176 30.4594-9.00176 36.2309" fill-rule="evenodd" transform="matrix(1 0 0 -1 1812 1790)"/><path d="M-7.1926 36.2414C-7.1926 42.013-9.41587 11.7621-8.29102-1.23235-7.1926-14.196-7.93271-10.5708-7.93271-10.5708L-4.60808-8.4245-4.96639 0.219085C-4.96639 0.219085-7.1926 30.4699-7.1926 36.2414" fill-rule="evenodd" transform="matrix(1 0 0 -1 1803 1798)"/><path d="M-7.1412 36.2682C-7.1412 42.0331-9.35421 11.7897-8.23602-1.15913-7.1412-14.1661-7.87984-10.545-7.87984-10.545L-4.55156-8.40116-4.9311 0.259865C-4.9311 0.259865-7.1412 30.5033-7.1412 36.2682" fill-rule="evenodd" transform="matrix(1 0 0 -1 1796 1810)"/><path d="M-9.75305 15.7324C-9.75305 18.9854-11.4149 1.95448-10.5531-5.34069-9.75305-12.6359-10.2876-10.6015-10.2876-10.6015L-7.80026-9.40948-8.06572-4.50163C-8.06572-4.50163-9.75305 12.476-9.75305 15.7324" fill-rule="evenodd" transform="matrix(1 0 0 -1 1922 1692)"/><path d="M-9.72366 18.6024C-9.72366 22.2115-11.4128 3.29009-10.5537-4.8042-9.72366-12.9254-10.2843-10.6559-10.2843-10.6559L-7.79422-9.31633-8.05997-3.90111C-8.05997-3.90111-9.72366 14.9934-9.72366 18.6024" fill-rule="evenodd" transform="matrix(1 0 0 -1 1908 1698)"/><path d="M-9.81799 18.6182C-9.81799 22.2264-11.4923 3.2826-10.6258-4.78293-9.81799-12.929-10.3871-10.6332-10.3871-10.6332L-7.87202-9.32085-8.14372-3.91026C-8.14372-3.91026-9.81799 15.01-9.81799 18.6182" fill-rule="evenodd" transform="matrix(1 0 0 -1 1896 1707)"/><path d="M-9.80056 9.7171C-9.80056 12.264-11.4669-0.981118-10.6337-6.64607-9.80056-12.3681-10.367-10.752-10.367-10.752L-7.86749-9.82127-8.13425-6.01775C-8.13425-6.01775-9.80056 7.22735-9.80056 9.7171" fill-rule="evenodd" transform="matrix(1 0 0 -1 1934 1689)"/><path d="M-9.55096 26.3687C-9.55096 30.9406-11.7683 6.93397-10.6596-3.31978-9.55096-13.6006-10.2692-10.6768-10.2692-10.6768L-6.96892-8.9678-7.38882-2.16243C-7.38882-2.16243-9.55096 21.7935-9.55096 26.3687" fill-rule="evenodd" transform="matrix(1 0 0 -1 1947 1682)"/><path d="M-7.22524 15.6508C-7.22524 18.9216-8.85585 1.88145-8.06138-5.42674-7.22524-12.6814-7.7697-10.6894-7.7697-10.6894L-5.28073-9.46081-5.59741-4.60989C-5.59741-4.60989-7.22524 12.3801-7.22524 15.6508" fill-rule="evenodd" transform="matrix(1 0 0 -1 1954 1679)"/><path d="M-9.56483 9.28773C-9.56483 11.8173-11.7857-1.427-10.6771-7.08268-9.56483-12.7663-10.2867-11.2032-10.2867-11.2032L-6.98671-10.2367-7.34764-6.45815C-7.34764-6.45815-9.56483 6.7582-9.56483 9.28773" fill-rule="evenodd" transform="matrix(1 0 0 -1 1961 1677)"/><path d="M-9.57674 4.46524C-9.57674 6.37793-11.7941-3.70778-10.6854-8.01738-9.57674-12.3546-10.295-11.1441-10.295-11.1441L-6.9947-10.4385-7.35567-7.56428C-7.35567-7.56428-9.57674 2.5491-9.57674 4.46524" fill-rule="evenodd" transform="matrix(1 0 0 -1 1968 1676)"/><path d="M-7.2514 2.79598C-7.2514 4.49847-8.88074-4.32687-8.08831-8.1356-7.2514-11.9174-7.79358-10.8508-7.79358-10.8508L-5.30509-10.1914-5.57479-7.6982C-5.57479-7.6982-7.2514 1.12714-7.2514 2.79598" fill-rule="evenodd" transform="matrix(1 0 0 -1 1975 1677)"/><path d="M-9.59884-3.03168C-9.59884-1.93488-11.8199-7.63385-10.7075-10.0351-9.59884-12.4692-10.3171-11.817-10.3171-11.817L-7.0168-11.4016-7.37777-9.7983C-7.37777-9.7983-9.59884-4.12848-9.59884-3.03168" fill-rule="evenodd" transform="matrix(1 0 0 -1 1987 1677)"/><path d="M-4.95371 422.648C-1.93057 422.648 0.544519 325.489 0.544519 205.647 0.544519 85.8076-1.93057-11.3517-4.95371-11.3517-7.98039-11.3517-10.4555 85.8076-10.4555 205.647-10.4555 325.489-7.98039 422.648-4.95371 422.648" fill-rule="evenodd" transform="matrix(1 0 0 -1 1878 1643)"/><path d="M-6.89139 287.958C-4.71085 287.958-2.89126 221.019-2.89126 138.427-2.89126 55.8932-4.71085-11.0456-6.89139-11.0456-9.10542-11.0456-10.8915 55.8932-10.8915 138.427-10.8915 221.019-9.10542 287.958-6.89139 287.958" fill-rule="evenodd" transform="matrix(1 0 0 -1 1788 1809)"/><path d="M-5.39288 4.35881C-5.39288 4.35881 40.2147 46.1195 52.5679 55.3819 64.9481 64.6681 71.9524 65.4397 71.9524 65.4397 71.9524 65.4397 62.6596 55.3819 46.42 39.9163 30.1771 24.454 2.35621 0.500857-3.84577-8.78869-10.0511-18.0782-10.0511-1.04232-10.0511-1.04232" fill-rule="evenodd" transform="matrix(1 0 0 -1 1879 1333)"/><path d="M-5.42381 4.37203C-5.42381 4.37203 40.3878 45.7787 52.7963 54.9963 65.2319 64.2104 83.9007 69.5731 83.9007 69.5731 83.9007 69.5731 62.9332 54.9963 46.6209 39.6505 30.3053 24.3081 2.35995 0.540628-3.86978-8.67691-10.1029-17.8911-10.1029-1.01745-10.1029-1.01745" fill-rule="evenodd" transform="matrix(1 0 0 -1 1879 1366)"/><path d="M-5.4229 4.40347C-5.4229 4.40347 40.3524 46.0105 52.7476 55.2356 65.1734 64.491 93.9019 77.5631 93.9019 77.5631 93.9019 77.5631 62.8765 55.2356 46.5772 39.8302 30.2779 24.4248 2.35468 0.559706-3.8735-8.6687-10.1017-17.9241-10.1017-1.00477-10.1017-1.00477" fill-rule="evenodd" transform="matrix(1 0 0 -1 1879 1399)"/><path d="M-5.41403 4.44325C-5.41403 4.44325 40.2292 45.8599 52.592 55.0487 64.9819 64.2677 102.924 82.6486 102.924 82.6486 102.924 82.6486 62.6916 55.0487 46.4394 39.7038 30.1837 24.359 2.34111 0.587732-3.8691-8.6044-10.0759-17.7965-10.0759-0.973956-10.0759-0.973956" fill-rule="evenodd" transform="matrix(1 0 0 -1 1879 1432)"/><path d="M-5.38828 4.52786C-5.38828 4.52786 40.0378 46.5067 52.3418 55.8448 64.6728 65.1523 103.972 84.5496 103.972 84.5496 103.972 84.5496 62.3934 55.8448 46.2151 40.2711 30.0401 24.7553 2.32997 0.649754-3.85069-8.66111-10.028-17.9958-10.028-0.928706-10.028-0.928706" fill-rule="evenodd" transform="matrix(1 0 0 -1 1879 1466)"/><path d="M-5.43373 4.55004C-5.43373 4.55004 40.2897 46.2644 52.6742 55.5165 65.0859 64.7924 120.9 95.659 120.9 95.659 120.9 95.659 62.7916 55.5165 46.5108 40.0681 30.2266 24.6229 2.33504 0.696365-3.88269-8.58287-10.1038-17.8351-10.1038-0.872147-10.1038-0.872147" fill-rule="evenodd" transform="matrix(1 0 0 -1 1879 1499)"/><path d="M-5.4292 4.57131C-5.4292 4.57131 40.1707 46.2946 52.5217 55.5759 64.8999 64.8267 139.914 112.69 139.914 112.69 139.914 112.69 62.6118 55.5759 46.375 40.097 30.1348 24.6485 2.31858 0.716803-3.88574-8.53739-10.0867-17.8186-10.0867-0.852048-10.0867-0.852048" fill-rule="evenodd" transform="matrix(1 0 0 -1 1879 1532)"/><path d="M125.464 4.4667C125.464 4.4667 89.7305 36.338 77.344 45.6056 65.042 54.8159-9.91598 102.667-9.91598 102.667-9.91598 102.667 67.2962 45.6056 83.539 30.2068 99.7242 14.7506 117.755 0.617843 123.95-8.6228 130.087-17.9175 130.087-0.94871 130.087-0.94871ZM125.464 37.604C125.464 37.604 89.7305 69.5023 77.344 78.7125 65.042 87.9802 9.40903 118.835 9.40903 118.835 9.40903 118.835 67.2962 78.7125 83.539 63.3137 99.7242 47.9149 117.755 33.7822 123.95 24.5145 130.087 15.2469 130.087 32.2393 130.087 32.2393ZM125.464 70.765C125.464 70.765 89.7305 102.667 77.344 111.931 65.042 121.172 25.6214 140.419 25.6214 140.419 25.6214 140.419 67.2962 111.931 83.539 96.4781 99.7242 81.0793 117.755 66.8891 123.95 57.6755 130.087 48.4382 130.087 65.4036 130.087 65.4036ZM125.464 103.929C125.464 103.929 89.7305 135.828 77.344 145.095 65.042 154.336 27.1895 172.814 27.1895 172.814 27.1895 172.814 67.2962 145.095 83.539 129.642 99.7242 114.213 117.755 100.053 123.95 90.8398 130.087 81.5722 130.087 98.5139 130.087 98.5139ZM125.464 137.121C125.464 137.121 89.7305 168.992 77.344 178.233 65.042 187.5 36.4127 200.617 36.4127 200.617 36.4127 200.617 67.2962 178.233 83.539 162.83 99.7242 147.432 117.755 133.245 123.95 124.004 130.087 114.737 130.087 131.675 130.087 131.675ZM125.464 170.258C125.464 170.258 89.7305 202.129 77.344 211.394 65.042 220.661 46.4875 226.053 46.4875 226.053 46.4875 226.053 67.2962 211.394 83.539 195.995 99.7242 180.542 117.755 166.406 123.95 157.169 130.087 147.901 130.087 164.866 130.087 164.866ZM125.464 203.419C125.464 203.419 89.7305 235.317 77.344 244.558 65.042 253.826 58.0764 254.595 58.0764 254.595 58.0764 254.595 67.2962 244.558 83.539 229.159 99.7242 213.703 117.755 199.57 123.95 190.302 130.087 181.035 130.087 198.031 130.087 198.031" fill-rule="evenodd" transform="matrix(1 0 0 -1 1743 1522)"/><path d="M-6.63052-0.233554C-6.63052-0.233554 24.5034 28.5207 32.9813 34.9181 41.4357 41.3154 46.1416 41.8096 46.1416 41.8096 46.1416 41.8096 39.8772 34.9181 28.7423 24.2761 17.6612 13.6342-1.35029-2.85343-5.59261-9.30156-9.85845-15.6448-9.85845-3.98058-9.85845-3.98058" fill-rule="evenodd" transform="matrix(1 0 0 -1 1789 1596)"/><path d="M-6.64135-0.178688C-6.64135-0.178688 24.5118 28.4349 32.9984 34.807 41.458 41.1757 54.1324 44.8843 54.1324 44.8843 54.1324 44.8843 39.8985 34.807 28.7568 24.2071 17.6688 13.6342-1.35785-2.86912-5.59944-9.24119-9.87128-15.5559-9.87128-3.91427-9.87128-3.91427" fill-rule="evenodd" transform="matrix(1 0 0 -1 1789 1618)"/><path d="M-6.65942-0.161065C-6.65942-0.161065 24.5627 28.3744 33.0681 34.6593 41.5464 40.9744 61.107 49.9639 61.107 49.9639 61.107 49.9639 39.9835 34.6593 28.8171 24.0826 17.7046 13.5865-1.36422-2.83878-5.6152-9.15053-9.8965-15.4925-9.8965-3.82195-9.8965-3.82195" fill-rule="evenodd" transform="matrix(1 0 0 -1 1789 1641)"/><path d="M-6.71735-0.151759C-6.71735-0.151759 24.7605 28.4699 33.3354 34.8438 41.8832 41.1907 68.0225 53.9351 68.0225 53.9351 68.0225 53.9351 40.3041 34.8438 29.0462 24.2409 17.8461 13.665-1.37879-2.84295-5.66458-9.15948-9.98093-15.5334-9.98093-3.88502-9.98093-3.88502" fill-rule="evenodd" transform="matrix(1 0 0 -1 1789 1664)"/><path d="M-6.71056-0.132401C-6.71056-0.132401 24.7354 28.7343 33.3018 35.0929 41.8409 41.5093 69.0292 54.8919 69.0292 54.8919 69.0292 54.8919 40.2634 35.0929 29.0169 24.4194 17.8281 13.7731-1.3774-2.7872-5.65886-9.17638-9.97085-15.6165-9.97085-3.89394-9.97085-3.89394" fill-rule="evenodd" transform="matrix(1 0 0 -1 1789 1687)"/><path d="M-6.70127-0.112096C-6.70127-0.112096 24.6695 28.7713 33.2153 35.1913 41.734 41.5536 80.0497 62.913 80.0497 62.913 80.0497 62.913 40.1602 35.1913 28.9407 24.4573 17.7787 13.8048-1.38087-2.76843-5.65208-9.18847-9.95375-15.5779-9.95375-3.81805-9.95375-3.81805" fill-rule="evenodd" transform="matrix(1 0 0 -1 1789 1710)"/><path d="M-6.68937-0.047651C-6.68937-0.047651 24.5941 28.8391 33.1161 35.272 41.6111 41.7015 93.0707 74.9143 93.0707 74.9143 93.0707 74.9143 40.0417 35.272 28.8534 24.5675 17.7224 13.9243-1.38378-2.7093-5.6431-9.19665-9.93281-15.5717-9.93281-3.79166-9.93281-3.79166" fill-rule="evenodd" transform="matrix(1 0 0 -1 1789 1733)"/><path d="M83.0451-0.118051C83.0451-0.118051 58.5325 21.8024 50.0048 28.1502 41.5309 34.5216-9.80031 67.4073-9.80031 67.4073-9.80031 67.4073 43.12 28.1502 54.2804 17.5458 65.387 6.94142 77.7796-2.813 82.0048-9.1844 86.1996-15.5052 86.1996-3.85522 86.1996-3.85522ZM83.0451 22.6557C83.0451 22.6557 58.5325 44.5762 50.0048 50.951 41.5309 57.3224 3.44408 78.5312 3.44408 78.5312 3.44408 78.5312 43.12 50.951 54.2804 40.3736 65.387 29.7692 77.7796 20.0181 82.0048 13.6434 86.1996 7.32593 86.1996 18.9725 86.1996 18.9725ZM83.0451 45.4835C83.0451 45.4835 58.5325 67.4073 50.0048 73.7787 41.5309 80.1265 14.5506 93.3955 14.5506 93.3955 14.5506 93.3955 43.12 73.7787 54.2804 63.1743 65.387 52.6003 77.7796 42.7919 82.0048 36.4745 86.1996 30.0997 86.1996 41.7767 86.1996 41.7767ZM83.0451 68.3113C83.0451 68.3113 58.5325 90.2351 50.0048 96.6099 41.5309 102.927 15.5909 115.7 15.5909 115.7 15.5909 115.7 43.12 96.6099 54.2804 85.9785 65.387 75.3741 77.7796 65.6467 82.0048 59.2753 86.1996 52.9005 86.1996 64.5775 86.1996 64.5775ZM83.0451 91.1154C83.0451 91.1154 58.5325 113.009 50.0048 119.384 41.5309 125.758 21.9539 134.767 21.9539 134.767 21.9539 134.767 43.12 119.384 54.2804 108.779 65.387 98.1749 77.7796 88.4508 82.0048 82.0761 86.1996 75.7316 86.1996 87.3783 86.1996 87.3783ZM83.0451 113.889C83.0451 113.889 58.5325 135.84 50.0048 142.211 41.5309 148.586 28.8623 152.266 28.8623 152.266 28.8623 152.266 43.12 142.211 54.2804 131.607 65.387 120.976 77.7796 111.252 82.0048 104.877 86.1996 98.5054 86.1996 110.206 86.1996 110.206ZM83.0451 136.717C83.0451 136.717 58.5325 158.641 50.0048 164.985 41.5309 171.387 36.7873 171.937 36.7873 171.937 36.7873 171.937 43.12 164.985 54.2804 154.438 65.387 143.776 77.7796 134.079 82.0048 127.708 86.1996 121.333 86.1996 132.983 86.1996 132.983" fill-rule="evenodd" transform="matrix(1 0 0 -1 1695 1726)"/><path d="M-10.3195-10.9481 0.68401-10.9481 0.68401 347.055-10.3195 347.055Z" fill-rule="evenodd" transform="matrix(1 0 0 -1 1878 1925)"/><path d="M-8.55876-10.8339-4.55863-10.8339-4.55863 157.17-8.55876 157.17Z" fill-rule="evenodd" transform="matrix(1 0 0 -1 1790 1925)"/><path d="M-9.16003 95.0968C-9.16003 95.0968 23.2831 85.4617 30.2701 60.8857 37.2842 36.3639 32.094-21.457 31.1549-9.2249 30.2701 3.0614 33.806 29.3495 25.0528 48.6536 16.2724 67.9272 13.6214 78.4472-0.35257 84.5768-14.4045 90.7335-9.16003 95.0968-9.16003 95.0968" fill-rule="evenodd" transform="matrix(1 0 0 -1 1945 1847)"/><path d="M32.9618 95.0968C32.9618 95.0968 0.508671 85.4617-6.48046 60.8857-13.4967 36.3639-8.22012-21.457-7.36555-9.2249-6.48046 3.0614-9.9869 29.3495-1.25811 48.6536 7.52493 67.9272 10.1734 78.4472 24.1788 84.5768 38.2385 90.7335 32.9618 95.0968 32.9618 95.0968" fill-rule="evenodd" transform="matrix(1 0 0 -1 1901 1847)"/><path d="M32.9797 94.2164C32.9797 94.2164 0.538983 84.6722-6.44407 60.3281-13.4576 36.0377-8.24068-21.2377-7.32881-9.12108-6.44407 3.04931-9.95254 29.0894-1.22712 48.208 7.55254 67.3032 10.2034 77.7239 24.2 83.7957 38.2542 89.8943 32.9797 94.2164 32.9797 94.2164" fill-rule="evenodd" transform="matrix(1 0 0 -1 1886 1859)"/><path d="M-4.02357 87.1182C-4.02357 87.1182 0.440512 52.1071-0.437043 36.3379-1.31113 20.6228-4.02357-10.8851-4.02357-10.8851L-6.73602 50.3708-10.326 86.2619" fill-rule="evenodd" transform="matrix(1 0 0 -1 1938 1843)"/><path d="M-9.59148 0.517944C-9.59148 1.85702-11.8125-5.06259-10.7002-8.07235-9.59148-11.0316-10.3429-10.2073-10.3429-10.2073L-7.00944-9.72093-7.42934-7.73758C-7.42934-7.73758-9.59148-0.821131-9.59148 0.517944" fill-rule="evenodd" transform="matrix(1 0 0 -1 1981 1676)"/><path d="M208.054-10.8502C147.86-10.8502 93.3658 13.5257 53.9092 52.8746 14.4493 92.2269-9.9495 146.664-9.9495 206.704-9.9495 236.657-3.83375 265.264 7.15364 291.259 9.52015 290.324 11.9171 289.336 14.2836 288.374 3.62753 263.283-2.23805 235.695-2.23805 206.704-2.23805 148.722 21.2783 96.2653 59.3319 58.2896 97.3855 20.3408 149.98-3.18489 208.054-3.18489 266.125-3.18489 318.719 20.3408 356.772 58.2896 394.772 96.2653 418.342 148.722 418.342 206.704 418.342 255.26 401.794 300.024 374.038 335.611 376.847 336.188 379.653 336.711 382.49 337.15 409.833 300.793 426.054 255.645 426.054 206.704 426.054 146.664 401.628 92.2269 362.171 52.8746 322.738 13.5257 268.244-10.8502 208.054-10.8502" fill-rule="evenodd" transform="matrix(1 0 0 -1 1621 1969)"/></g></svg>