<svg width="374" height="374" xmlns="http://www.w3.org/2000/svg" xmlns:xlink="http://www.w3.org/1999/xlink" xml:space="preserve" overflow="hidden"><g transform="translate(-392 -1176)"><path d="M-1.86275 186.014C-1.86275 289.015 81.6353 372.514 184.634 372.514 287.64 372.514 371.137 289.015 371.137 186.014 371.137 83.0132 287.64-0.486293 184.634-0.486293 81.6353-0.486293-1.86275 83.0132-1.86275 186.014" fill="#2E2A26" fill-rule="evenodd" transform="matrix(1 0 0 -1 394 1549)"/><path d="M91.3699 186.513 139.551 186.513 64.7514 111.491 231.139 111.524 231.139 74.5084 64.7514 74.5084 139.485-0.487597 91.3045-0.487597-1.86176 92.9796" fill="#FFFFFF" fill-rule="evenodd" transform="matrix(1 0 0 -1 464 1456)"/></g></svg>