<svg width="374" height="374" xmlns="http://www.w3.org/2000/svg" xmlns:xlink="http://www.w3.org/1999/xlink" xml:space="preserve" overflow="hidden"><g transform="translate(-916 -1176)"><path d="M370.558 186.014C370.558 83.0132 287.061-0.486293 184.057-0.486293 81.0532-0.486293-2.4435 83.0132-2.4435 186.014-2.4435 289.015 81.0532 372.514 184.057 372.514 287.061 372.514 370.558 289.015 370.558 186.014" fill="#2E2A26" fill-rule="evenodd" transform="matrix(1 0 0 -1 919 1549)"/><path d="M137.323-0.487597 89.1432-0.487597 163.942 74.5343-2.44218 74.5011-2.44218 111.517 163.942 111.517 89.2094 186.513 137.396 186.513 230.559 93.046" fill="#FFFFFF" fill-rule="evenodd" transform="matrix(1 0 0 -1 989 1456)"/></g></svg>