<svg width="195" height="209" xmlns="http://www.w3.org/2000/svg" xmlns:xlink="http://www.w3.org/1999/xlink" xml:space="preserve" overflow="hidden"><g transform="translate(-1843 -1765)"><path d="M40.591 205.883C44.7201 206.887 49.0106 207.477 53.4448 207.477L84.5309 207.477C114.649 207.477 139.157 182.951 139.157 152.805L139.157 48.5023 192.816 102.218 192.816 67.2138 125.128-0.522886 57.5037 67.1666 57.5037 102.174 111.549 48.2587 111.549 152.805C111.549 167.718 99.4316 179.849 84.5309 179.849L53.43 179.849C38.5322 179.843 26.4176 167.715 26.4176 152.805L26.4176 65.7518-1.1846 65.7518-1.1846 152.805C-1.1846 178.516 16.6574 200.078 40.591 205.883" fill="#2E2A26" fill-rule="evenodd" transform="matrix(1 0 0 -1 1845 1973)"/></g></svg>