<svg width="196" height="209" xmlns="http://www.w3.org/2000/svg" xmlns:xlink="http://www.w3.org/1999/xlink" xml:space="preserve" overflow="hidden"><g transform="translate(-1415 -1627)"><path d="M152.607 205.883C148.457 206.887 144.147 207.477 139.69 207.477L108.441 207.477C78.1639 207.477 53.5321 182.951 53.5321 152.805L53.5321 48.5023-0.404625 102.218-0.404625 67.2138 67.6314-0.522886 135.607 67.1666 135.607 102.174 81.2797 48.2587 81.2797 152.805C81.2797 167.718 93.4629 179.849 108.441 179.849L139.702 179.849C154.673 179.843 166.851 167.715 166.851 152.805L166.851 65.7518 194.596 65.7518 194.596 152.805C194.596 178.516 176.661 200.078 152.607 205.883" fill="#2E2A26" fill-rule="evenodd" transform="matrix(1 0 0 -1 1416 1835)"/></g></svg>