<svg width="230" height="168" xmlns="http://www.w3.org/2000/svg" xmlns:xlink="http://www.w3.org/1999/xlink" xml:space="preserve" overflow="hidden"><g transform="translate(-974 -1250)"><path d="M56.4869 47.5216 48.1238 55.8881 10.4134 18.1649 10.4134 52.0573-0.512845 41.1351-0.512845-1.11193 41.7518-1.11193 52.6694 9.81021 18.7736 9.80447" fill="#2E2A26" fill-rule="evenodd" transform="matrix(1 0 0 -1 1138 1407)"/><path d="M26.3237 9.60683C18.1085 9.60683 10.4153 12.1611 10.4153 24.889 10.4153 37.291 16.577 40.3969 24.7922 40.3969L50.6778 40.3735C56.0358 40.3735 60.883 42.5641 64.4013 46.0599L154.614 136.351C157.542 139.266 161.588 141.096 166.043 141.096L203.348 141.102C211.285 141.102 217.717 137.04 217.717 125.529 217.717 115.262 212.823 110.276 203.348 110.283L180.235 110.276C174.883 110.276 170.036 108.086 166.512 104.587L76.3757 14.3575C73.4472 11.4486 69.4009 9.61259 64.982 9.64788ZM-0.429781 24.889C-0.429781 0.623989 17.853-1.16804 26.0686-1.16804L68.0485-1.11511C73.4004-1.11511 78.2476 1.07551 81.7687 4.57135L171.465 94.358C174.895 97.7775 179.598 99.3874 185.021 99.4637 188.824 99.5166 197.841 99.5109 204.196 99.5109 218.204 99.5109 228.571 104.875 228.571 125.529 228.571 146.618 216.191 152.079 203.348 151.824L162.935 151.824C157.583 151.824 152.736 149.633 149.221 146.134L115.345 112.235 115.345 116.379C115.345 125.485 107.966 132.873 98.8605 132.873 89.7587 132.873 82.3761 125.485 82.3761 116.379L82.3761 79.2314 59.0079 55.8461C56.0798 52.9368 52.0392 51.1012 47.5764 51.1012L25.7224 51.1188C8.12874 51.1188-0.429781 41.1271-0.429781 24.889" fill="#2E2A26" fill-rule="evenodd" transform="matrix(1 0 0 -1 975 1416)"/><path d="M14.0917-1.26456C6.07832-1.26456-0.411493 5.22895-0.411493 13.2359-0.411493 21.2425 6.07832 27.736 14.0917 27.736 22.0932 27.736 28.5887 21.2425 28.5887 13.2359 28.5887 5.22895 22.0932-1.26456 14.0917-1.26456" fill="#2E2A26" fill-rule="evenodd" transform="matrix(1 0 0 -1 1059 1278)"/></g></svg>