<svg width="230" height="167" xmlns="http://www.w3.org/2000/svg" xmlns:xlink="http://www.w3.org/1999/xlink" xml:space="preserve" overflow="hidden"><g transform="translate(-1164 -659)"><path d="M-1.25933 6.58876 7.10343-1.9242 44.8145 36.4609 44.8145 1.97389 55.7407 13.0906 55.7407 56.0759 13.4758 56.0759 2.55814 44.9621 36.4542 44.968" fill="#2E2A26" fill-rule="evenodd" transform="matrix(1 0 0 -1 1329 815)"/><path d="M25.5749 8.88318C17.359 8.88318 9.66553 11.4542 9.66553 24.2652 9.66553 36.7486 15.8276 39.8745 24.0431 39.8745L49.929 39.8509C55.2866 39.8509 60.1342 42.0558 63.652 45.5745L153.864 136.456C156.793 139.39 160.839 141.232 165.293 141.232L202.599 141.238C210.532 141.238 216.967 137.149 216.967 125.563 216.967 115.229 212.073 110.211 202.599 110.217L179.486 110.211C174.134 110.211 169.287 108.006 165.763 104.485L75.6267 13.6653C72.6983 10.7369 68.6519 8.88898 64.2331 8.92449ZM-1.1791 24.2652C-1.1791-0.158376 17.104-1.96176 25.3195-1.96176L67.2992-1.90885C72.6514-1.90885 77.4986 0.296094 81.0197 3.81479L170.715 94.1883C174.146 97.6302 178.849 99.2509 184.272 99.3277 188.074 99.3806 197.091 99.3748 203.446 99.3748 217.454 99.3748 227.821 104.774 227.821 125.563 227.821 146.79 215.442 152.286 202.599 152.03L162.186 152.03C156.834 152.03 151.986 149.825 148.471 146.303L114.593 112.183 114.593 116.354C114.593 125.519 107.216 132.955 98.1114 132.955 89.0093 132.955 81.6271 125.519 81.6271 116.354L81.6271 78.9628 58.2562 55.425C55.3306 52.4967 51.2904 50.6487 46.8272 50.6487L24.9762 50.6665C7.37974 50.6665-1.1791 40.6094-1.1791 24.2652" fill="#2E2A26" fill-rule="evenodd" transform="matrix(1 0 0 -1 1166 824)"/><path d="M13.3392-2.04224C5.33153-2.04224-1.15801 4.45349-1.15801 12.4593-1.15801 20.4651 5.33153 26.958 13.3392 26.958 21.3437 26.958 27.8422 20.4651 27.8422 12.4593 27.8422 4.45349 21.3437-2.04224 13.3392-2.04224" fill="#2E2A26" fill-rule="evenodd" transform="matrix(1 0 0 -1 1251 686)"/></g></svg>