<svg width="230" height="167" xmlns="http://www.w3.org/2000/svg" xmlns:xlink="http://www.w3.org/1999/xlink" xml:space="preserve" overflow="hidden"><g transform="translate(-1021 -960)"><path d="M-1.08999 47.5202 7.27068 55.8867 44.9861 18.1635 44.9861 52.0558 55.9104 41.1337 55.9104-1.11336 13.6463-1.11336 2.72803 9.80878 36.6258 9.80268" fill="#2E2A26" fill-rule="evenodd" transform="matrix(1 0 0 -1 1032 1116)"/><path d="M201.067 9.60215 162.409 9.64644C157.99 9.60827 153.943 11.4471 151.015 14.3561L60.8795 104.586C57.3552 108.084 52.508 110.272 47.1561 110.272L24.0435 110.281C14.5689 110.272 9.67454 115.258 9.67454 125.528 9.67454 137.039 16.1093 141.1 24.0435 141.1L61.3489 141.094C65.8031 141.094 69.8494 139.265 72.7775 136.346L162.99 46.0585C166.508 42.5626 171.355 40.372 176.713 40.372L202.599 40.3954C210.814 40.3954 216.976 37.2899 216.976 24.8875 216.976 12.1597 209.283 9.60215 201.067 9.60215M201.668 51.1174 179.815 51.0997C175.351 51.0997 171.311 52.9324 168.386 55.8446L145.015 79.2296 145.015 116.378C145.015 125.484 137.632 132.871 128.53 132.871 119.426 132.871 112.049 125.484 112.049 116.378L112.049 112.234 78.1708 146.133C74.6555 149.632 69.8083 151.822 64.4561 151.822L24.0435 151.822C11.2002 152.077-1.1791 146.617-1.1791 125.528-1.1791 104.873 9.18748 99.5094 23.1955 99.5094 29.5507 99.5094 38.5677 99.5152 42.3705 99.4623 47.7927 99.3859 52.4965 97.7761 55.9264 94.3566L145.622 4.56991C149.143 1.07407 153.99-1.11655 159.343-1.11655L201.322-1.16948C209.538-1.16948 227.821 0.622548 227.821 24.8875 227.821 41.1256 219.262 51.1174 201.668 51.1174" fill="#2E2A26" fill-rule="evenodd" transform="matrix(1 0 0 -1 1023 1125)"/><path d="M13.308-1.26598C21.3186-1.26598 27.8081 5.22745 27.8081 13.234 27.8081 21.2405 21.3186 27.7343 13.308 27.7343 5.30316 27.7343-1.19248 21.2405-1.19248 13.234-1.19248 5.22745 5.30316-1.26598 13.308-1.26598" fill="#2E2A26" fill-rule="evenodd" transform="matrix(1 0 0 -1 1139 988)"/></g></svg>