<svg width="231" height="167" xmlns="http://www.w3.org/2000/svg" xmlns:xlink="http://www.w3.org/1999/xlink" xml:space="preserve" overflow="hidden"><g transform="translate(-1155 -401)"><path d="M56.657 6.58872 48.2941-1.92419 10.5815 36.4606 10.5815 1.97388-0.343445 13.0905-0.343445 56.0755 41.9219 56.0755 52.8364 44.9619 18.944 44.9677" fill="#2E2A26" fill-rule="evenodd" transform="matrix(1 0 0 -1 1165 557)"/><path d="M202.697 8.88318 163.87 8.92449C159.432 8.88898 155.368 10.7369 152.427 13.6653L61.8976 104.485C58.3582 108.006 53.4899 110.211 48.1146 110.211L24.9007 110.217C15.3844 110.211 10.4687 115.229 10.4687 125.563 10.4687 137.149 16.9316 141.238 24.9007 141.238L62.3694 141.232C66.8427 141.232 70.9067 139.39 73.8479 136.456L164.454 45.5745C167.987 42.0558 172.856 39.8509 178.237 39.8509L204.236 39.8745C212.487 39.8745 218.676 36.7486 218.676 24.2652 218.676 11.4542 210.949 8.88318 202.697 8.88318M203.302 50.6665 181.352 50.6487C176.87 50.6487 172.812 52.4967 169.873 55.425L146.401 78.9628 146.401 116.354C146.401 125.519 138.986 132.955 129.844 132.955 120.699 132.955 113.291 125.519 113.291 116.354L113.291 112.183 79.2644 146.303C75.7341 149.825 70.8654 152.03 65.4902 152.03L24.9007 152.03C12.001 152.286-0.431656 146.79-0.431656 125.563-0.431656 104.774 9.97947 99.3748 24.0494 99.3748 30.4323 99.3748 39.4888 99.3806 43.3078 99.3277 48.754 99.2509 53.478 97.6302 56.9232 94.1883L147.011 3.81479C150.547 0.296094 155.415-1.90885 160.791-1.90885L202.954-1.96176C211.205-1.96176 229.568-0.158376 229.568 24.2652 229.568 40.6094 220.972 50.6665 203.302 50.6665" fill="#2E2A26" fill-rule="evenodd" transform="matrix(1 0 0 -1 1156 566)"/><path d="M14.0563-2.04222C22.0673-2.04222 28.5549 4.45344 28.5549 12.4592 28.5549 20.4649 22.0673 26.9576 14.0563 26.9576 6.04776 26.9576-0.445655 20.4649-0.445655 12.4592-0.445655 4.45344 6.04776-2.04222 14.0563-2.04222" fill="#2E2A26" fill-rule="evenodd" transform="matrix(1 0 0 -1 1272 428)"/></g></svg>