<svg width="259" height="213" xmlns="http://www.w3.org/2000/svg" xmlns:xlink="http://www.w3.org/1999/xlink" xml:space="preserve" overflow="hidden"><g transform="translate(-3907 -847)"><path d="M15.102-1.04597C24.2173-1.04597 31.602 6.1202 31.602 14.954 31.602 23.7878 24.2173 30.954 15.102 30.954 5.99287 30.954-1.39836 23.7878-1.39836 14.954-1.39836 6.1202 5.99287-1.04597 15.102-1.04597" fill="#2E2A26" fill-rule="evenodd" transform="matrix(1 0 0 -1 3963 878)"/><path d="M208.687 186.061 208.687 142.918 170.583 142.918 170.583 98.992 133.049 98.992 133.049 55.329 95.0591 55.329 95.0591 11.6599-1.4535 11.6599-1.4535-0.93907 104.554-0.93907 104.554 42.7268 142.317 42.7268 142.317 86.4579 180.306 86.4579 180.306 129.861 218.128 129.861 218.151 173.63 256.546 173.63 256.546 186.061" fill="#2E2A26" fill-rule="evenodd" transform="matrix(1 0 0 -1 3909 1059)"/><path d="M53.8992 63.142 10.8881 20.7938 10.894 58.8547-1.56121 46.5965-1.56121-0.85868 46.6147-0.85868 59.0702 11.4056 20.4193 11.4056 63.4391 53.7506" fill="#2E2A26" fill-rule="evenodd" transform="matrix(1 0 0 -1 4092 1049)"/><path d="M5.20763 104.815C6.21088 104.815 7.23173 105.044 8.19081 105.536L28.0228 115.692 28.0228 89.9469 28.0957 89.9469 27.3089 9.10481C27.2536 3.61025 31.6347-0.889006 37.0976-0.945043L37.1971-0.945043C42.6076-0.945043 47.0238 3.44829 47.0795 8.91067L47.7549 78.354 50.4368 65.2973C51.0217 62.4412 52.8261 59.9882 55.3676 58.5837L80.9756 44.4583C82.4819 43.6278 84.1078 43.2305 85.7136 43.2305 89.2084 43.2305 92.5981 45.1 94.3938 48.404 97.0143 53.2272 95.2624 59.2756 90.4749 61.917L68.8738 73.8309 65.0073 92.6501 65.0073 127.883 70.3445 122.68 75.448 103.902C76.2495 100.954 78.9048 99.0166 81.8004 99.0166 82.3763 99.0166 82.9645 99.0929 83.5462 99.2549 87.0558 100.221 89.1208 103.872 88.1585 107.406L82.5814 127.933C82.2682 129.081 81.6571 130.121 80.8061 130.948L59.7458 151.475C59.6991 151.519 59.6467 151.549 59.5968 151.593 56.2509 154.968 51.6243 157.055 46.515 157.055 39.2765 157.055 33.0236 152.856 29.988 146.758 29.8271 146.496 29.6576 146.24 29.5287 145.948L21.1526 127.061 2.21297 117.361C-1.03054 115.704-2.3232 111.708-0.670748 108.439 0.490494 106.14 2.80364 104.815 5.20763 104.815" fill="#2E2A26" fill-rule="evenodd" transform="matrix(1 0 0 -1 3937 1038)"/></g></svg>