<svg width="259" height="212" xmlns="http://www.w3.org/2000/svg" xmlns:xlink="http://www.w3.org/1999/xlink" xml:space="preserve" overflow="hidden"><g transform="translate(-3330 -847)"><path d="M15.6159-1.0469C6.49867-1.0469-0.886794 6.11686-0.886794 14.9533-0.886794 23.7861 6.49867 30.9531 15.6159 30.9531 24.7245 30.9531 32.1132 23.7861 32.1132 14.9533 32.1132 6.11686 24.7245-1.0469 15.6159-1.0469" fill="#2E2A26" fill-rule="evenodd" transform="matrix(1 0 0 -1 3502 878)"/><path d="M47.0443 185.065 47.0443 142.155 85.1466 142.155 85.1466 98.4628 122.681 98.4628 122.681 55.0296 160.669 55.0296 160.669 11.5993 257.184 11.5993 257.184-0.934889 151.178-0.934889 151.178 42.4983 113.414 42.4983 113.414 85.9964 75.4262 85.9964 75.4262 129.168 37.6005 129.168 37.5799 172.702-0.816193 172.702-0.816193 185.065" fill="#2E2A26" fill-rule="evenodd" transform="matrix(1 0 0 -1 3331 1058)"/><path d="M8.81339 63.1412 51.8259 20.7952 51.8168 58.8557 64.2743 46.5949 64.2743-0.859464 16.098-0.859464 3.64087 11.4071 42.2927 11.4071-0.725992 53.753" fill="#2E2A26" fill-rule="evenodd" transform="matrix(1 0 0 -1 3341 1049)"/><path d="M90.4563 104.151C89.4421 104.151 88.4128 104.379 87.4429 104.868L67.4065 114.96 67.4065 89.3756 67.3328 89.3756 68.1283 9.04665C68.1842 3.58774 63.757-0.88453 58.2386-0.939903L58.1381-0.939903C52.6698-0.939903 48.2103 3.42665 48.154 8.85321L47.4677 77.8573 44.759 64.8835C44.1675 62.0429 42.3488 59.6062 39.7784 58.2121L13.9074 44.1754C12.3874 43.3495 10.743 42.9572 9.11919 42.9572 5.58807 42.9572 2.1666 44.8137 0.350752 48.0969-2.29913 52.8881-0.524676 58.8975 4.31069 61.5216L26.1361 73.362 30.0398 92.0641 30.0398 127.073 24.6456 121.901 19.4911 103.243C18.6806 100.314 15.9981 98.387 13.0733 98.387 12.4909 98.387 11.8994 98.4661 11.3108 98.6272 7.76484 99.5848 5.67703 103.213 6.64976 106.725L12.2869 127.123C12.6002 128.265 13.2182 129.296 14.0758 130.119L35.3544 150.516C35.4016 150.56 35.4579 150.59 35.5051 150.634 38.8885 153.987 43.5611 156.06 48.7248 156.06 56.0383 156.06 62.3525 151.89 65.4192 145.828 65.5848 145.567 65.7562 145.312 65.8866 145.022L74.3474 126.259 93.4819 116.621C96.7614 114.972 98.0628 111.001 96.3947 107.753 95.2237 105.468 92.8843 104.151 90.4563 104.151" fill="#2E2A26" fill-rule="evenodd" transform="matrix(1 0 0 -1 3463 1038)"/></g></svg>