<svg width="259" height="214" xmlns="http://www.w3.org/2000/svg" xmlns:xlink="http://www.w3.org/1999/xlink" xml:space="preserve" overflow="hidden"><g transform="translate(-3330 -263)"><path d="M15.7123-1.86771C6.60297-1.86771-0.7877 5.52026-0.7877 14.6323-0.7877 23.7443 6.60297 31.1327 15.7123 31.1327 24.8282 31.1327 32.2127 23.7443 32.2127 14.6323 32.2127 5.52026 24.8282-1.86771 15.7123-1.86771" fill="#2E2A26" fill-rule="evenodd" transform="matrix(1 0 0 -1 3414 295)"/><path d="M97.5511 10.8166 97.5511 54.2497 135.549 54.2497 135.549 97.6793 173.083 97.6793 173.083 141.37 211.192 141.37 211.192 184.281 257.186 184.281 257.186 171.919 220.664 171.919 220.64 128.381 182.81 128.381 182.81 85.2113 144.815 85.2113 144.815 41.7141 107.043 41.7141 107.043-1.71871-0.814523-1.71871-0.814523 10.8166" fill="#2E2A26" fill-rule="evenodd" transform="matrix(1 0 0 -1 3331 475)"/><path d="M3.3965 50.0972 15.6608 62.3621 63.0971 62.3621 63.0971 14.9085 50.8328 2.64678 50.8414 40.705 8.48786-1.6385-0.903185 7.75078 41.4532 50.0972" fill="#2E2A26" fill-rule="evenodd" transform="matrix(1 0 0 -1 3515 466)"/><path d="M82.5834 104.086C81.5688 104.086 80.545 104.315 79.5805 104.81L58.4219 115.578C58.0662 115.758 57.7925 116.043 57.478 116.282L54.8308 92.6527 68.4601 86.9109C72.1513 85.3572 74.5511 81.7403 74.5511 77.7351L74.5511 52.4316C74.5511 46.9312 70.0952 42.4725 64.5985 42.4725 59.1044 42.4725 54.6455 46.9312 54.6455 52.4316L54.6455 71.1192 37.0723 78.5235 36.3844 8.12544C36.3284 2.66042 31.8872-1.73327 26.4343-1.73327L26.3343-1.73327C20.8347-1.68015 16.4228 2.8223 16.4759 8.32272L17.2905 91.0722C17.2905 91.2135 17.3288 91.3429 17.3317 91.4841L17.2288 91.4961 21.0405 125.487 17.3992 121.961 12.2582 103.174C11.4552 100.222 8.78194 98.2824 5.86137 98.2824 5.28469 98.2824 4.69646 98.3619 4.11148 98.5238 0.575954 99.4893-1.50615 103.138-0.53876 106.676L5.07309 127.215C5.39085 128.368 6.00833 129.407 6.86125 130.237L26.9257 149.669C30.8021 154.246 36.8079 156.867 43.2135 156.149 50.3398 155.349 56.0661 150.617 58.4927 144.357L66.5308 126.346 85.5921 116.641C88.8626 114.981 90.1626 110.984 88.5037 107.714 87.3301 105.413 84.9977 104.086 82.5834 104.086" fill="#2E2A26" fill-rule="evenodd" transform="matrix(1 0 0 -1 3378 455)"/></g></svg>