<svg width="259" height="214" xmlns="http://www.w3.org/2000/svg" xmlns:xlink="http://www.w3.org/1999/xlink" xml:space="preserve" overflow="hidden"><g transform="translate(-3907 -263)"><path d="M14.5509-1.86838C23.3845-1.86838 30.5509 5.51936 30.5509 14.6318 30.5509 23.7442 23.3845 31.132 14.5509 31.132 5.71139 31.132-1.44904 23.7442-1.44904 14.6318-1.44904 5.51936 5.71139-1.86838 14.5509-1.86838" fill="#2E2A26" fill-rule="evenodd" transform="matrix(1 0 0 -1 4051 295)"/><path d="M158.183 10.815 158.183 54.2466 120.186 54.2466 120.186 97.6785 82.6493 97.6785 82.6493 141.371 44.5377 141.371 44.5377 184.281-1.45235 184.281-1.45235 171.917 35.0686 171.917 35.092 128.382 72.9218 128.382 72.9218 85.2116 110.916 85.2116 110.916 41.7122 148.687 41.7122 148.687-1.71936 256.547-1.71936 256.547 10.815" fill="#2E2A26" fill-rule="evenodd" transform="matrix(1 0 0 -1 3909 475)"/><path d="M58.3532 50.0975 46.0879 62.3615-1.34573 62.3615-1.34573 14.9061 10.9195 2.64788 10.911 40.7076 53.2602-1.63918 62.6542 7.74827 20.2992 50.0975" fill="#2E2A26" fill-rule="evenodd" transform="matrix(1 0 0 -1 3919 466)"/><path d="M5.1443 104.086C6.15647 104.086 7.18308 104.316 8.1483 104.81L29.3056 115.58C29.6585 115.759 29.9352 116.045 30.2502 116.283L32.8981 92.6543 19.267 86.9107C15.5774 85.359 13.1766 81.7408 13.1766 77.7341L13.1766 52.4332C13.1766 46.9308 17.631 42.4736 23.1271 42.4736 28.6229 42.4736 33.0805 46.9308 33.0805 52.4332L33.0805 71.1219 50.654 78.5231 51.3425 8.12843C51.3956 2.6614 55.8413-1.73391 61.293-1.73391L61.3931-1.73391C66.8892-1.67788 71.3024 2.82333 71.2464 8.32289L70.4376 91.0732C70.4376 91.2149 70.3993 91.3443 70.3935 91.4828L70.4994 91.4943 66.6862 125.489 70.3285 121.962 75.4656 103.176C76.2718 100.224 78.9464 98.2832 81.8619 98.2832 82.4417 98.2832 83.0301 98.3598 83.6157 98.5218 87.1521 99.4905 89.2321 103.138 88.2672 106.677L82.6505 127.217C82.3358 128.365 81.7178 129.408 80.8645 130.238L60.8017 149.671C56.9268 154.244 50.9192 156.87 44.5138 156.148 37.3878 155.35 31.6623 150.616 29.2352 144.357L21.1971 126.346 2.13163 116.642C-1.13427 114.982-2.4347 110.984-0.775203 107.713 0.395548 105.411 2.72874 104.086 5.1443 104.086" fill="#2E2A26" fill-rule="evenodd" transform="matrix(1 0 0 -1 4030 455)"/></g></svg>